<?xml version="1.0" encoding="utf-8"?>
<!-- Generator: Adobe Illustrator 24.2.3, SVG Export Plug-In . SVG Version: 6.00 Build 0)  -->
<svg version="1.1" id="圖層_1" xmlns="http://www.w3.org/2000/svg" xmlns:xlink="http://www.w3.org/1999/xlink" x="0px" y="0px"
	 viewBox="0 0 693.9 464.9" style="enable-background:new 0 0 693.9 464.9;" xml:space="preserve">
<style type="text/css">
	.st0{fill:#494233;}
	.st1{fill:#F0EFE7;}
	.st2{fill:#EBC046;}
	.st3{fill:#FFFFFF;}
	.st4{fill:#2B261E;}
	.st5{enable-background:new    ;}
	.st6{fill:#F4F4F4;}
	.st7{fill:#647F68;}
	.st8{font-family:'jf-openhuninn-1.1';}
	.st9{font-size:20px;}
</style>
<g>
	
		<image style="overflow:visible;enable-background:new    ;" width="999" height="665" id="圖層_14_1_" xlink:href="4DD99A0F7C8B03B3.png"  transform="matrix(0.3556 0 0 0.3556 266.6195 34.4586)">
	</image>
	
		<image style="overflow:visible;enable-background:new    ;" width="1000" height="668" id="圖層_14" xlink:href="4DD99A0F7C8B03B1.png"  transform="matrix(0.249 0 0 0.249 42.3964 143.4222)">
	</image>
	
		<image style="overflow:visible;enable-background:new    ;" width="923" height="586" id="camp-l" xlink:href="4DD99A0F7C8B03B7.png"  transform="matrix(0.2893 0 0 0.2893 392.4586 155.5987)">
	</image>
	<g>
		<g>
			<g>
				<path class="st0" d="M255.7,198c0.9-4.3-0.6-14.2-0.8-15.2c-0.8-4.3-6.4-5.5-3.8-15.8c0.7-2.7,1.8-6.4,4.6-7.6
					c3.7-1.7,8.8-0.2,12.4,1c3,1,5.9,2.1,9,2.6c3.3,0.5,6.6,0,9.9-0.6c5.6-1.1,11.6-2.8,17.4-2.2c6.2,0.6,12.2,3.1,17.5,6.4
					c1.2,0.7,2.4,1.5,3.7,2c1.6,0.5,3.3,0.5,5,0.3c2.4-0.2,4.7-1.1,7.2-1.1s4.5,0.9,6.6,2.1c0.9,0.5,1.9,1.5,2.4,2.4
					c0.6,0.9,0.9,1.9,1.1,2.9c0.2,0.9,0.5,1.5,0.4,2.4c-0.3,2-1.5,3.9-2.8,5.4c-1.9,2.1-4.2,3.7-5.8,6.1c-1.7,2.5-2.3,5.6-3.1,8.5
					c-0.2,1-0.5,1.9-1.2,2.7c-0.5,0.5-1.1,0.8-1.7,1.1c-4.1,1.6-8.9,1-12.8-0.8c-3.3-1.5-7.8-1.9-10.7-4.1c-2.6-2-5.4-4-8-6.1
					c-0.5-0.4-0.9-0.8-1.5-1c-3.5-1.5-9.2,1.4-11.6,3.9c-1.2,1.3-2.1,2.9-3.5,4c-1.2,0.9-2.7,1.4-4.1,1.9c-1.4,0.4-2.8,0.9-4.2,1.3
					c-0.9,0.3-1.8,0.6-2.7,0.7c-1.2,0.2-2.5,0.2-3.7,0.1c-3.2-0.1-6.4-0.2-9.7-0.3c-2-0.1-4.2-0.2-5.7-1.6
					C255.7,199.1,255.6,198.7,255.7,198z"/>
				<path class="st0" d="M328.6,202.7c-2.6,0-5.3-0.6-7.9-1.8c-1.2-0.5-2.6-0.9-4.1-1.4c-2.4-0.7-4.8-1.4-6.7-2.8
					c-0.7-0.5-1.3-1-2-1.5c-2-1.5-4.1-3-6-4.7c-0.5-0.4-0.9-0.7-1.3-0.9c-3.1-1.4-8.6,1.3-10.9,3.8c-0.5,0.5-0.9,1-1.3,1.6
					c-0.7,0.9-1.3,1.7-2.2,2.4c-1.3,1-2.9,1.5-4.3,2l-4.2,1.3c-0.9,0.3-1.8,0.6-2.8,0.7c-1.3,0.2-2.6,0.2-3.9,0.1l-9.7-0.3
					c-2.2-0.1-4.5-0.3-6.1-1.8l-0.5-0.4l0.2-0.3c0-0.2,0-0.6,0.1-1l0,0c0.9-4.1-0.5-13.7-0.8-15c-0.2-1.3-0.9-2.2-1.7-3.4
					c-1.7-2.4-3.9-5.4-2-12.7c0.8-3.3,2.1-6.8,5-8.1c3.7-1.7,8.6-0.5,12.9,0.9c0.6,0.2,1.3,0.4,1.9,0.6c2.4,0.8,4.6,1.6,7,1.9
					c3.3,0.5,6.7,0,9.6-0.6c1-0.2,2-0.4,3.1-0.6c4.8-1,9.7-2.1,14.5-1.6c5.8,0.5,11.8,2.7,17.8,6.5l0.4,0.3c1.1,0.7,2.1,1.3,3.2,1.7
					c1.5,0.5,3.2,0.4,4.8,0.3c1-0.1,2-0.3,3.1-0.5c1.3-0.3,2.7-0.6,4.1-0.6l0,0c2.5,0,4.6,0.9,6.9,2.2c0.9,0.5,1.9,1.5,2.7,2.6
					c0.7,1,1,2.2,1.2,3.1c0.1,0.2,0.1,0.5,0.2,0.7c0.2,0.6,0.3,1.2,0.2,1.9c-0.3,1.9-1.3,3.8-3,5.7c-0.7,0.8-1.5,1.5-2.3,2.2
					c-1.3,1.2-2.5,2.4-3.5,3.8c-1.5,2.2-2.1,4.9-2.8,7.5l-0.2,0.8c-0.3,1.1-0.6,2.1-1.3,3c-0.6,0.6-1.4,1-2,1.2
					C332.4,202.4,330.5,202.7,328.6,202.7z M298.6,188c0.9,0,1.7,0.1,2.5,0.5c0.6,0.3,1.1,0.7,1.6,1.1c1.9,1.7,4,3.2,6,4.7
					c0.7,0.5,1.3,1,2,1.5c1.7,1.3,4.1,2,6.3,2.6c1.4,0.4,2.9,0.8,4.2,1.4c4.2,1.9,8.8,2.1,12.3,0.8c0.7-0.3,1.2-0.6,1.5-0.9
					c0.6-0.6,0.8-1.4,1-2.4l0.2-0.8c0.7-2.7,1.4-5.6,3-8c1-1.5,2.4-2.8,3.7-4c0.7-0.7,1.5-1.4,2.2-2.1c1.5-1.7,2.4-3.4,2.7-5
					c0.1-0.5-0.1-0.9-0.2-1.4c-0.1-0.3-0.2-0.5-0.2-0.8c-0.2-0.8-0.4-1.8-1-2.6c-0.5-0.7-1.3-1.7-2.2-2.2c-2.2-1.2-4.1-2-6.3-2
					c-1.3,0-2.5,0.3-3.9,0.6c-1.1,0.2-2.1,0.5-3.3,0.6c-1.7,0.1-3.5,0.2-5.3-0.4c-1.3-0.4-2.4-1.1-3.5-1.8l-0.4-0.2
					c-5.8-3.6-11.6-5.8-17.2-6.3c-4.6-0.4-9.5,0.6-14.1,1.6c-1,0.2-2.1,0.4-3.1,0.6c-3,0.6-6.6,1.1-10.1,0.6c-2.5-0.4-4.9-1.2-7.3-2
					c-0.6-0.2-1.2-0.4-1.9-0.6c-4-1.3-8.6-2.5-11.9-1c-2.4,1.1-3.6,4.4-4.3,7.2c-1.7,6.7,0.2,9.3,1.8,11.6c0.9,1.2,1.7,2.3,1.9,3.9
					c0,0.1,1.7,10.8,0.8,15.5c-0.1,0.3-0.1,0.5,0,0.6c1.3,1,3.1,1.2,5.1,1.2l9.7,0.3c1.2,0,2.4,0.1,3.6-0.1c0.9-0.1,1.7-0.4,2.6-0.7
					l4.2-1.3c1.4-0.4,2.8-0.9,3.9-1.8c0.8-0.6,1.4-1.4,2-2.2c0.4-0.6,0.9-1.1,1.4-1.7C290.8,190.3,295,188,298.6,188z"/>
			</g>
			<path class="st1" d="M273.8,203.4c1.7-0.1,3.5-0.3,5.1-0.9s3.1-1.7,4.5-2.8c2.4-1.9,4.8-3.7,7.2-5.6c1.4-1.1,2.9-2.2,4.6-2.5
				c3.7-0.6,6.8,2.6,9.8,5c7.4,6.1,17.3,8.2,26.8,8.5c-2.4,9.7-3.1,19.8-1.9,29.7c0,0.3,0.1,0.7,0,1c-0.3,0.8-1.4,1-2.3,1.1
				c-5,0.6-9.1,3.9-13.4,6.5c-7.2,4.3-15.5,6.7-23.9,6.9c-3.2,0.1-6.7,0.1-9.9-0.6c-2.6-0.6-5.2-0.5-7.7-1.7c-2.1-1-4-2.5-5.8-4.1
				c-4.9-4.2-9.3-9-13.2-14.2c-0.9-1.2-2.4-3.1-2.2-4.7c0.2-1.2,0.7-2.4,1.2-3.5c1.2-2.9,1.9-6,2.2-9.1c0.2-1.5,0.3-3,0.3-4.4
				c0-1-0.3-3.4,0.2-4.2c0.9-1.4,6.7-0.2,8.4-0.2C267.1,203.7,270.5,203.6,273.8,203.4z"/>
			<g>
				<path class="st2" d="M247.9,259.3c0.3,4.4,1.6,8.7,1.5,13.2c-0.1,5.2,0.4,10,1.9,15c1.5,5.3,3.6,10.5,4.8,15.9
					c0.6,2.9,1,5.8,1.7,8.7c1.9,7.9,6,15.1,10.7,21.8c1.1,1.6,2.3,3.2,3.8,4.6c7.1,6.5,16.5,7.2,24.2,0.9c5.5-4.5,8.9-11,12.5-17.1
					c1.6-2.7,3.4-5.4,4.5-8.4c1-3,2-6.2,2.1-9.4c0.1-2,1.3-3.9,2.1-5.7c0.9-2,1.7-4,2.4-6c1.5-4,2.8-8.1,3.9-12.3c1-4,1.9-8,2.6-12
					c0.3-2,0.6-4,0.8-5.9c0.2-1.7,1-3,1.5-4.5c0.6-1.8,0.8-4,1-5.9c0.5-3.9,0.5-7.9,0.2-11.9c0-0.3-0.1-0.6-0.2-0.8
					c-0.5-0.8-1.7-0.4-2.5,0.1c-3.5,2.1-6.2,5-9.9,6.8c-6.6,3.2-13.3,6.5-20.6,7.6c-8,1.2-16.1-0.6-23.2-4c-3.7-1.8-7.2-4-10.4-6.6
					c-2.9-2.3-6.5-4.9-8.2-8.1c-0.5-0.9-1.3-1.9-2.4-1.8c-0.9,0.1-1.6,1-1.7,1.8c-0.2,0.9,0,1.8,0,2.7c0.5,5.9-2.6,11.2-3.2,17
					C247.7,256.6,247.8,258,247.9,259.3z"/>
				<path class="st2" d="M285,344.4c-4.6,0-9.2-1.8-13.1-5.4c-1.5-1.4-2.8-3.1-3.9-4.7c-5.7-8.2-9.1-15.2-10.8-22
					c-0.4-1.6-0.7-3.2-1-4.8c-0.2-1.3-0.5-2.6-0.8-3.9c-0.7-3.4-1.8-6.7-2.9-9.9c-0.6-1.9-1.3-3.9-1.9-5.9c-1.4-4.8-2-9.5-1.9-15.2
					c0-2.5-0.4-5.1-0.8-7.6c-0.3-1.8-0.6-3.7-0.7-5.5l0,0c-0.1-1.5-0.1-2.9,0-4.2c0.2-2.4,0.9-4.8,1.6-7.1c1-3.3,1.9-6.4,1.6-9.8
					v-0.5c-0.1-0.8-0.2-1.6,0-2.4c0.2-1,1-2.2,2.3-2.3c1.1-0.1,2.3,0.7,3,2.1c1.4,2.7,4.4,5.1,7,7.1l1,0.8c3.3,2.6,6.7,4.8,10.3,6.5
					c7.6,3.7,15.5,5,22.9,4c7.2-1.1,13.9-4.3,20.4-7.5c2.1-1,3.8-2.3,5.6-3.8c1.3-1,2.7-2.1,4.3-3.1c1.5-0.9,2.8-0.8,3.4,0.1
					c0.2,0.4,0.3,0.8,0.3,1.1c0.4,4,0.3,8-0.2,12l-0.1,0.9c-0.2,1.6-0.4,3.5-0.9,5c-0.2,0.5-0.4,1-0.6,1.4c-0.4,1-0.8,1.9-0.9,3
					c-0.2,1.8-0.5,3.7-0.8,6c-0.7,4.1-1.5,8.1-2.6,12.1c-1.1,4.2-2.4,8.3-3.9,12.3c-0.8,2-1.6,4-2.4,6c-0.2,0.5-0.5,1-0.7,1.5
					c-0.6,1.3-1.3,2.6-1.4,3.9c-0.1,3.2-1.1,6.5-2.1,9.5c-1,2.7-2.5,5.1-3.9,7.4l-0.6,1.1c-0.5,0.8-1,1.7-1.5,2.5
					c-3.1,5.3-6.3,10.7-11.1,14.7C293.2,343,289.1,344.4,285,344.4z M248.5,259.3c0.1,1.8,0.4,3.6,0.7,5.4c0.4,2.5,0.8,5.2,0.8,7.8
					c-0.1,5.5,0.5,10.1,1.9,14.8c0.6,2,1.2,4,1.9,5.9c1.1,3.3,2.2,6.6,2.9,10c0.3,1.3,0.5,2.6,0.8,4c0.3,1.6,0.6,3.2,1,4.7
					c1.6,6.7,5,13.6,10.6,21.6c1.1,1.5,2.3,3.2,3.7,4.5c7.1,6.5,16,6.9,23.3,0.9c4.6-3.8,7.8-9.2,10.8-14.4c0.5-0.9,1-1.7,1.5-2.6
					l0.6-1.1c1.4-2.3,2.8-4.7,3.8-7.2c1-3,2-6.1,2.1-9.1c0.1-1.6,0.8-3.1,1.5-4.5c0.2-0.5,0.5-1,0.7-1.4c0.8-1.9,1.7-3.9,2.4-5.9
					c1.5-4,2.8-8.1,3.9-12.2c1-3.9,1.9-8,2.6-12c0.4-2.3,0.6-4.1,0.8-5.9c0.1-1.3,0.6-2.3,1-3.4c0.2-0.4,0.4-0.9,0.5-1.3
					c0.5-1.4,0.7-3.1,0.9-4.8l0.1-1c0.5-3.9,0.5-7.8,0.2-11.7c0-0.2,0-0.4-0.1-0.5c-0.2-0.3-1-0.1-1.7,0.3c-1.5,0.9-2.8,2-4.2,3
					c-1.8,1.4-3.6,2.8-5.8,3.9c-6.6,3.2-13.3,6.6-20.8,7.6c-7.6,1.1-15.8-0.3-23.6-4.1c-3.6-1.8-7.2-4-10.5-6.7l-1-0.8
					c-2.7-2.1-5.8-4.6-7.3-7.5c-0.4-0.7-1-1.5-1.7-1.4c-0.6,0.1-1,0.7-1.2,1.3c-0.1,0.6-0.1,1.3,0,2l0.1,0.5c0.3,3.6-0.7,7-1.6,10.2
					c-0.6,2.2-1.3,4.5-1.5,6.8C248.4,256.5,248.4,257.8,248.5,259.3L248.5,259.3z"/>
			</g>
			<g>
				<path class="st0" d="M242.7,362.1c0.4,5.3-0.4,11-0.3,16.4c0,3.5,0.2,7.1,1,10.6c0.8,3.3,1.9,6.6,0.9,10.1
					c-0.2,0.8-0.6,1.5-1,2.2c-0.8,1.6-1.6,3.1-2.4,4.7c-0.9,1.8-2,5.3-1.1,7.2c0.7,1.4,2.3,2.1,3.8,2.7c0.9,0.3,1.7,0.6,2.6,0.9
					c3.1,0.8,7.8,0.4,10.7-0.9c0.7-0.3,1.2-0.8,1.8-1.4c1.5-1.5,2.8-3.3,3.4-5.3c1-3.4-0.7-7.8-1.9-10.9c-1-2.6-1.3-6.1-0.6-8.9
					c0.6-2.3,1.4-4.5,1.8-6.9c0.9-6.1,1.6-12.3,2-18.5c0.4-5.7,1.3-11.1,2.2-16.7c1-6.9-1.1-14-4.1-20.3c-2.1-4.3-4-8.2-5.4-12.9
					c-1.5-4.9-2.8-9.9-4-15c-1-4.1-1.5-8.4-2.2-12.5c-0.3-1.9-0.9-3.8-1.4-5.7c-0.4-1.6-0.2-3.4-1.1-4.9c-0.1-0.1-0.2-0.2-0.3-0.2
					c-0.1,0-0.2,0.1-0.2,0.2c-0.7,2-0.9,4.2-1.5,6.2c-0.6,2.3-1.3,4.5-1.7,6.8c-1,5.3-1.3,10.9-1.8,16.2c-1.1,11.9-1.6,23.9-1,35.9
					c0.3,6.8,1.3,13.6,1.8,20.4C242.7,361.8,242.7,362,242.7,362.1z"/>
				<path class="st0" d="M249.9,417.7c-1.4,0-2.7-0.1-3.8-0.4c-0.9-0.2-1.8-0.6-2.7-0.9c-1.7-0.6-3.4-1.4-4.2-3
					c-1-2.1,0.1-5.8,1.1-7.8l2.4-4.7c0.4-0.7,0.7-1.3,0.9-2c0.9-2.9,0.2-5.6-0.6-8.4c-0.1-0.4-0.2-0.8-0.3-1.3
					c-0.9-3.5-1-7.2-1-10.7c0-2.3,0.1-4.7,0.2-6.9c0.2-3.1,0.3-6.4,0.1-9.4v-0.5c-0.2-2.6-0.5-5.3-0.8-7.9
					c-0.4-4.1-0.9-8.3-1.1-12.5c-0.5-11.3-0.2-23.1,1-36c0.1-1.4,0.3-2.9,0.4-4.3c0.3-4,0.7-8.1,1.4-12c0.4-2.1,1-4.2,1.5-6.2
					l0.2-0.7c0.2-0.8,0.4-1.7,0.6-2.6c0.3-1.2,0.5-2.5,0.9-3.7c0.2-0.5,0.5-0.6,0.7-0.7c0.2,0,0.6,0,0.9,0.5
					c0.7,1.1,0.8,2.2,0.9,3.4c0.1,0.6,0.1,1.2,0.3,1.7c0.1,0.5,0.3,1.1,0.4,1.6c0.4,1.3,0.7,2.7,1,4.1c0.2,1.3,0.4,2.6,0.6,3.9
					c0.5,2.8,0.9,5.8,1.6,8.6c1.2,5,2.5,10,3.9,14.9c1.3,4.4,3.1,8.2,5.1,12.2l0.3,0.6c3.7,7.6,5.1,14.6,4.2,20.7
					c-0.2,1.2-0.4,2.4-0.5,3.6c-0.7,4.5-1.3,8.7-1.6,13.1c-0.4,6.2-1.1,12.4-2,18.6c-0.2,1.6-0.7,3-1.1,4.4
					c-0.2,0.8-0.5,1.7-0.7,2.5c-0.6,2.6-0.4,6,0.6,8.5c1.2,3.1,3,7.7,1.9,11.3c-0.5,1.9-1.7,3.7-3.6,5.6c-0.6,0.6-1.2,1.2-2,1.5
					C255.3,417.3,252.5,417.7,249.9,417.7z M243.3,362.1c0.2,3.1,0.1,6.4-0.1,9.6c-0.1,2.3-0.2,4.6-0.2,6.9c0,3.4,0.2,7,1,10.4
					c0.1,0.4,0.2,0.8,0.3,1.3c0.8,2.9,1.5,5.9,0.6,9.1c-0.2,0.8-0.6,1.6-1,2.3l-2.4,4.7c-0.9,1.8-1.9,5-1.1,6.6
					c0.6,1.2,2,1.8,3.5,2.3c0.8,0.3,1.7,0.6,2.6,0.8c3,0.8,7.5,0.4,10.3-0.9c0.5-0.2,1-0.7,1.6-1.2c1.7-1.7,2.8-3.4,3.2-5.1
					c1-3.2-0.8-7.6-1.9-10.5c-1.1-2.8-1.4-6.3-0.7-9.3c0.2-0.9,0.5-1.7,0.7-2.6c0.4-1.4,0.8-2.8,1-4.2c0.9-6.1,1.6-12.3,2-18.5
					c0.3-4.5,1-8.8,1.6-13.2c0.2-1.2,0.4-2.4,0.5-3.5c0.9-5.8-0.5-12.5-4.1-19.9l-0.3-0.6c-2-4.1-3.8-7.9-5.2-12.4
					c-1.5-4.9-2.8-10-4-15c-0.7-2.9-1.1-5.8-1.6-8.7c-0.2-1.3-0.4-2.6-0.6-3.9s-0.6-2.7-1-4c-0.1-0.5-0.3-1.1-0.4-1.6
					c-0.2-0.6-0.2-1.3-0.3-1.9c-0.1-0.7-0.1-1.3-0.3-1.9c-0.2,0.8-0.4,1.7-0.6,2.6s-0.4,1.8-0.6,2.7l-0.2,0.7c-0.5,2-1.1,4-1.5,6.1
					c-0.7,3.8-1.1,7.9-1.4,11.9c-0.1,1.4-0.2,2.9-0.4,4.3c-1.2,12.9-1.6,24.6-1,35.8c0.2,4.1,0.6,8.3,1.1,12.4
					c0.3,2.6,0.6,5.3,0.8,7.9L243.3,362.1L243.3,362.1L243.3,362.1z"/>
			</g>
			<g>
				<path class="st0" d="M288.3,375.1c0.4,0.4,0.9,0.7,1.3,0.9c1.9-5.8,1.8-12,1.1-18c-0.1-1.2-1.6-7.5-0.2-7.6
					c2-0.1,2.7,3.9,2.9,5.2c0.2,2.4,0.1,3.9-0.5,6.2c-0.6,2.5-0.9,5.1-1.1,7.6c-0.5,5.3-0.5,10.5-1.3,15.8c-0.4,2.8-1.1,5.6-1.7,8.4
					c-0.6,2.5-1.1,5-2.4,7.2c-2.9,5.2-9.3,5.8-12.3,10.9c-0.7,1.2-1.7,3-0.6,4.3c0.5,0.7,1.3,1,2.1,1.3c5.1,2,10.8,2,16.3,2
					c3.5,0,7.5-0.2,9.9-2.7c2.5-2.7,1.9-6.2,2.8-9.4c1.1-4.1,3.4-8.1,5.6-11.7c0.9-1.5,1.9-3,2.5-4.6c0.8-2,1-4.2,1.8-6.3
					c0.7-1.8,2.2-2.9,3-4.6c2.1-4.4,3.1-9.6,3.7-14.4c1.3-9.8,0.7-19.8,0.6-29.6c-0.1-8.5,0.4-17,1-25.5c0.1-0.8,0.2-1.8,1-2.2
					c0.8-0.4,1.7,0.3,2.1,1c0.4,0.8,0.5,1.7,0.6,2.6c0.5,9.4-0.3,18.8-0.7,28.2c-0.1,1.7-0.1,3.4,0.5,5c0.8,1.8,2.4,3,4,4
					c4.6,2.9,9.8,4.9,14.7,7.3c5.1,2.6,10.4,5.8,15,9.2c4.4,3.3,6.8,8.7,9.2,13.5c2.9,5.7,6.4,11.7,12.4,14c2.3,0.9,4.8,1.2,7.3,1.4
					c5.6,0.6,11.7,1.1,16.7-1.5c1.6-0.8,3.2-2.5,2.5-4.2c-0.4-0.8-1.2-1.3-2-1.8c-4.8-2.6-9.1-6.3-13.1-10
					c-4.7-4.8-6.1-11.8-7.8-18.2c-1.5-5.9-3.9-11.1-5.4-17c-1.6-6.3-3.3-12.5-5-18.7c-3.6-13.3-13-25.1-21.5-35.8
					c-6.4-8-13.8-18.3-22.3-24.1c-2.3,2.2-2.2,10.7-2.8,14c-1,4.8-2.2,9.6-3.8,14.2c-1.6,4.6-3.9,8.6-6.3,12.8
					c-2.4,4.2-2.7,9.5-4.4,14c-3.3,9.1-8.4,17.8-16.4,23.5c-1.9,1.4-3.9,2.5-6.1,3.3c-2.5,0.9-5.2,1.3-7.9,1.2c-1-0.1-2.1,0-3-0.4
					c-1.2-0.6-2.3-1.3-3.6-1.7c-0.7-0.3-1.4-0.5-2.1-0.8s-1.6-0.5-2.3-0.2c-0.3,0.1-0.6,0.3-0.7,0.6c-0.1,0.2-0.1,0.5-0.1,0.7
					c0.1,2.2,0.9,4.5,1.5,6.6c0.7,2.2,1.5,4.3,2.4,6.4c1.6,3.6,3.7,7,6.1,10.1c1.2,1.6,2.5,3.1,3.9,4.5
					C286.2,373,287.2,374.2,288.3,375.1z"/>
				<path class="st0" d="M291.2,420.1c-5.1,0-10.9-0.1-16-2.1c-0.9-0.3-1.7-0.8-2.4-1.5c-1.4-1.7-0.1-4,0.6-5.1
					c1.6-2.7,4-4.2,6.3-5.6c2.3-1.5,4.6-2.8,6-5.3c1.2-2.1,1.8-4.6,2.3-7c0.6-2.7,1.3-5.5,1.7-8.3c0.5-3.3,0.7-6.6,0.9-9.9
					c0-0.3,0-0.6,0.1-0.9c-0.2,0.6-0.3,1.2-0.5,1.8l-0.2,0.7l-0.7-0.3c-0.5-0.2-1-0.5-1.5-1l0,0c-0.7-0.6-1.4-1.4-2-2
					c-0.3-0.4-0.6-0.7-0.9-1c-1.4-1.4-2.8-3-4-4.6c-2.4-3.2-4.5-6.6-6.2-10.2c-1-2.1-1.8-4.3-2.5-6.5l-0.2-0.6
					c-0.6-1.9-1.3-4.1-1.3-6.1c0-0.3,0-0.6,0.1-1c0.2-0.4,0.6-0.8,1.1-0.9c1-0.4,2,0,2.7,0.2s1.4,0.5,2.2,0.8
					c0.8,0.3,1.6,0.7,2.4,1.1c0.4,0.2,0.8,0.4,1.3,0.6c0.6,0.3,1.4,0.3,2.2,0.4h0.6c2.5,0.1,5.2-0.2,7.6-1.1
					c1.9-0.7,3.9-1.8,5.9-3.3c6.9-5,12.4-12.8,16.1-23.2c0.6-1.7,1.1-3.6,1.5-5.5c0.7-2.9,1.4-6,2.9-8.7c2.3-4,4.6-8,6.2-12.7
					c1.4-4.1,2.7-8.7,3.8-14.1c0.2-0.9,0.3-2.4,0.5-3.9c0.4-4.1,0.8-8.7,2.6-10.4l0.4-0.4l0.4,0.3c7.5,5,14,13.4,19.8,20.8
					c0.9,1.2,1.8,2.3,2.7,3.4c8.4,10.6,17.9,22.6,21.6,36c1.7,6.2,3.4,12.5,5,18.8c0.7,2.9,1.7,5.7,2.7,8.4c1,2.8,2,5.6,2.7,8.6
					l0.5,1.8c1.5,5.9,3,11.9,7.1,16.2c3.6,3.4,8,7.2,12.9,9.9c0.8,0.4,1.8,1,2.3,2.1c0.9,2-0.9,4-2.8,5c-5.4,2.8-11.9,2.1-17.1,1.6
					c-2.5-0.3-5-0.5-7.4-1.4c-6-2.3-9.6-8.3-12.7-14.3l-0.6-1.2c-2.3-4.5-4.6-9.1-8.5-12.1c-4.2-3.2-9.4-6.4-14.9-9.2
					c-1.7-0.8-3.4-1.6-5.1-2.4c-3.2-1.5-6.5-3-9.6-4.9c-1.6-1-3.4-2.3-4.3-4.3c-0.8-1.7-0.7-3.6-0.6-5.3c0.1-2.1,0.2-4.2,0.3-6.4
					c0.4-7.2,0.8-14.6,0.4-21.8c0-0.8-0.1-1.7-0.5-2.4c-0.3-0.5-0.9-0.9-1.3-0.7c-0.5,0.2-0.6,1-0.6,1.6c-0.7,10.3-1,18.1-1,25.5
					c0,2.3,0.1,4.5,0.1,6.8c0.1,7.5,0.3,15.3-0.7,22.9c-0.6,4.3-1.5,9.9-3.8,14.6c-0.4,0.9-1,1.6-1.5,2.2c-0.6,0.7-1.1,1.5-1.5,2.4
					c-0.4,1-0.6,2-0.9,3.1c-0.2,1.1-0.5,2.2-0.9,3.2c-0.5,1.4-1.3,2.7-2.1,4l-0.4,0.7c-2.2,3.7-4.4,7.7-5.5,11.6
					c-0.3,1-0.4,2-0.5,3.1c-0.3,2.3-0.6,4.7-2.5,6.6C299.5,420,295.3,420.1,291.2,420.1z M290.6,349.9c2.7,0,3.3,5.1,3.4,5.7
					c0.3,2.6,0,4.2-0.5,6.4c-0.6,2.6-0.9,5.3-1.1,7.5c-0.2,1.9-0.3,3.9-0.4,5.8c-0.2,3.3-0.4,6.7-0.9,10c-0.4,2.8-1.1,5.7-1.7,8.4
					c-0.6,2.5-1.1,5-2.5,7.3c-1.6,2.7-4,4.3-6.4,5.8c-2.3,1.4-4.5,2.8-5.9,5.2c-0.8,1.3-1.4,2.7-0.7,3.6c0.4,0.5,1.2,0.9,1.9,1.2
					c5.1,2,10.9,2,16.1,2c3.6,0,7.2-0.2,9.4-2.5c1.6-1.7,1.8-3.7,2.1-5.9c0.1-1.1,0.3-2.2,0.6-3.3c1.1-4.1,3.4-8.1,5.6-11.9l0.4-0.7
					c0.7-1.2,1.5-2.5,2-3.8c0.4-1,0.6-2,0.9-3c0.2-1.1,0.5-2.2,0.9-3.2c0.4-1.1,1.1-1.9,1.7-2.7c0.5-0.6,1-1.3,1.3-2
					c2.2-4.5,3.1-9.9,3.7-14.2c1-7.5,0.9-15.2,0.7-22.7c0-2.3-0.1-4.6-0.1-6.8c0-7.4,0.3-15.3,1-25.6c0-0.6,0.2-2.2,1.4-2.7
					c1.1-0.5,2.4,0.3,2.9,1.3c0.5,0.9,0.6,1.9,0.7,2.9c0.4,7.3,0,14.7-0.4,21.9c-0.1,2.1-0.2,4.2-0.3,6.3c-0.1,1.5-0.2,3.3,0.5,4.7
					c0.7,1.6,2.3,2.8,3.8,3.7c3,1.9,6.3,3.4,9.5,4.8c1.7,0.8,3.5,1.6,5.2,2.4c5.6,2.8,10.8,6,15.1,9.3c4.1,3.1,6.6,8.1,8.8,12.5
					l0.6,1.2c2.8,5.4,6.2,11.4,12,13.7c2.2,0.9,4.7,1.1,7.1,1.4c5,0.5,11.3,1.2,16.3-1.4c1.2-0.6,2.8-2,2.2-3.4
					c-0.3-0.6-0.9-1-1.7-1.5c-5-2.7-9.5-6.6-13.2-10.1c-4.4-4.5-6-10.7-7.5-16.8l-0.5-1.8c-0.7-2.9-1.7-5.8-2.7-8.5
					s-1.9-5.5-2.7-8.5c-1.6-6.2-3.3-12.5-5-18.7c-3.6-13.2-13-25-21.3-35.5c-0.9-1.1-1.8-2.3-2.7-3.4c-5.6-7.2-11.9-15.3-19-20.2
					c-1.2,1.7-1.6,6-1.8,9.2c-0.1,1.6-0.3,3-0.5,4c-1.1,5.4-2.3,10.1-3.8,14.3c-1.7,4.8-4,8.9-6.3,12.9c-1.4,2.5-2.1,5.4-2.8,8.3
					c-0.4,1.9-0.9,3.8-1.5,5.6c-3.9,10.7-9.4,18.7-16.6,23.8c-2.1,1.5-4.2,2.7-6.3,3.4c-2.6,1-5.4,1.4-8.1,1.2H283
					c-0.9,0-1.9-0.1-2.7-0.5c-0.4-0.2-0.9-0.4-1.3-0.7c-0.8-0.4-1.5-0.8-2.2-1.1c-0.7-0.3-1.4-0.5-2.1-0.8c-0.7-0.2-1.3-0.4-1.9-0.2
					c-0.2,0.1-0.3,0.2-0.3,0.2c0,0.1,0,0.3,0,0.4c0,1.9,0.7,3.9,1.3,5.8l0.2,0.6c0.7,2.1,1.5,4.3,2.4,6.3c1.6,3.5,3.7,6.9,6,10
					c1.2,1.6,2.5,3.1,3.9,4.5c0.3,0.3,0.6,0.7,1,1c0.6,0.6,1.2,1.4,1.9,1.9l0,0c0.2,0.2,0.4,0.3,0.5,0.4c1.7-5.9,1.4-12.1,0.9-16.9
					c0-0.2-0.1-0.6-0.2-1.2c-0.7-3.7-0.9-5.8-0.2-6.7c0.2-0.2,0.5-0.4,0.8-0.4C290.5,349.9,290.5,349.9,290.6,349.9z M290.6,351.2
					c-0.4,0.8,0.3,4.4,0.5,5.6c0.1,0.6,0.2,1,0.2,1.3c0.2,1.8,0.4,3.9,0.4,6c0.1-0.8,0.3-1.5,0.5-2.3c0.5-2.1,0.7-3.5,0.5-6
					C292.5,353.9,291.7,351.3,290.6,351.2z"/>
			</g>
			<g>
				<path class="st0" d="M430.5,304.8c0.9,0.4,1.8,0.9,2.6,1.3c4,2.1,10.1,4.9,13.2,8.1c2.9,1.8,5.9,3.6,8.5,5.9
					c2.4,2,4.4,4.4,6.4,6.8c3.8,4.5,7.6,9,10.4,14.1c4.5,8.3,6.3,17.7,6.5,27.1c0.1,4.4-0.3,8.6,0.2,12.9c0.5,4.5,0.6,9.6-0.8,14
					c-1.7,5.5-3.3,11.3-5.6,16.6c-1,2.4-2.2,4.8-4.1,6.7c-1.6,1.6-4.1,3.1-6.5,2.9c-0.9-0.1-1.9-0.7-2.7-1c-1.2-0.4-2.4-0.9-3.3-1.8
					c-2.9-2.6-4-6.4-3.2-10.1c1.2-5.3,0.3-10.8-0.1-16.3c-0.4-6.8-0.3-13.1-2.3-19.6c-2.3-7.4-6.5-14-10.7-20.4
					c-2.4-3.7-4.9-7.5-7.3-11.2c-1.8-2.7-3.6-5.5-5.6-8c-4-5-9-9.2-14-13.2c-1.8-1.4-3.6-2.8-5.6-3.9s-4.2-1.8-6.4-2.6
					c-3.6-1.2-7.3-2.5-10.9-3.7c-4.6-1.6-9.3-3.1-14.2-3.3c-1.6-0.1-4,0.1-5.2-1.1c-2.2-2.1,1.6-3.9,3.2-4.3
					c1.9-0.5,3.9-0.9,5.8-1.1c2.1-0.2,4.3-0.1,6.4-0.1c5.5-0.1,11.1-1.1,16.6-0.7c2.2,0.1,4.3,0.5,6.4,0.8c4.1,0.7,8.1,1.3,12.2,2
					C423.9,302.1,427.3,303.3,430.5,304.8z"/>
				<path class="st0" d="M461.7,421.8c-0.1,0-0.3,0-0.4,0c-0.7,0-1.4-0.4-2-0.7c-0.3-0.1-0.6-0.3-0.9-0.4c-1.6-0.5-2.6-1.1-3.5-1.9
					c-3-2.7-4.3-6.7-3.4-10.7c0.9-4.1,0.5-8.5,0.2-12.7c-0.1-1.1-0.2-2.3-0.3-3.4c-0.1-1.4-0.2-2.8-0.2-4.2
					c-0.3-5.3-0.5-10.2-2-15.3c-2.2-7.3-6.5-13.9-10.6-20.2l-7.3-11.2c-1.7-2.7-3.5-5.5-5.6-8c-4.1-5.1-9.1-9.3-13.9-13.1
					c-1.8-1.4-3.6-2.8-5.5-3.8c-2-1.1-4.2-1.8-6.3-2.5l-10.9-3.7c-4.5-1.5-9.2-3.1-14-3.3c-0.2,0-0.5,0-0.8,0
					c-1.6,0-3.7-0.1-4.9-1.2c-0.9-0.9-0.9-1.7-0.8-2.3c0.5-1.8,3.4-2.9,4.3-3.1c1.9-0.5,3.9-1,5.9-1.2c1.5-0.1,3.1-0.1,4.6-0.1
					c0.6,0,1.3,0,1.9,0c2.3,0,4.6-0.2,6.8-0.4c3.2-0.3,6.5-0.5,9.8-0.3c2.2,0.1,4.3,0.5,6.5,0.8l12.2,2c3.1,0.5,6.5,1.6,10.2,3.4
					l0,0c0.9,0.4,1.8,0.9,2.7,1.3c0.7,0.3,1.4,0.7,2.1,1.1c3.8,1.9,8.5,4.3,11.2,7c2.9,1.8,5.9,3.6,8.5,5.9c2.4,2.1,4.5,4.5,6.5,6.9
					c3.7,4.4,7.6,9,10.4,14.2c4.1,7.5,6.3,16.8,6.5,27.4c0,1.5,0,3.1,0,4.6c0,2.8-0.1,5.5,0.2,8.3c0.4,4.1,0.7,9.5-0.8,14.2
					c-0.3,1.1-0.7,2.2-1,3.4c-1.4,4.4-2.7,9-4.6,13.3c-1,2.3-2.2,4.9-4.2,6.9C466.3,420.6,463.9,421.8,461.7,421.8z M382.1,300.1
					c-1,0-2.1,0-3.1,0.1c-1.9,0.2-3.9,0.7-5.7,1.1c-1.2,0.3-3.1,1.3-3.4,2.2c-0.1,0.2-0.1,0.5,0.4,1c0.9,0.8,2.6,0.9,4,0.9
					c0.3,0,0.5,0,0.8,0c5,0.2,9.8,1.8,14.4,3.4l10.9,3.7c2.2,0.7,4.4,1.5,6.5,2.6c2,1.1,3.9,2.5,5.7,3.9c4.9,3.8,10,8.1,14.2,13.3
					c2.1,2.6,3.9,5.4,5.6,8.1l7.3,11.2c4.2,6.4,8.5,13.1,10.8,20.5c1.6,5.2,1.8,10.2,2.1,15.6c0.1,1.4,0.1,2.8,0.2,4.2
					c0.1,1.1,0.2,2.3,0.3,3.4c0.4,4.3,0.7,8.7-0.2,13c-0.8,3.6,0.3,7.1,3,9.5c0.7,0.7,1.7,1.2,3.1,1.7c0.3,0.1,0.7,0.3,1,0.4
					c0.5,0.3,1.1,0.5,1.6,0.5c2.3,0.1,4.6-1.3,6-2.7c1.9-1.9,3-4.3,4-6.5c1.8-4.2,3.2-8.8,4.5-13.2c0.3-1.1,0.7-2.3,1-3.4
					c1.4-4.5,1.1-9.7,0.7-13.7c-0.3-2.8-0.2-5.7-0.2-8.4c0-1.5,0.1-3,0-4.5c-0.2-10.4-2.3-19.5-6.4-26.8c-2.8-5.1-6.6-9.6-10.3-14
					c-2-2.3-4-4.7-6.3-6.8c-2.6-2.2-5.5-4-8.4-5.8l-0.1-0.1c-2.6-2.6-7.2-4.9-10.9-6.8c-0.8-0.4-1.5-0.8-2.1-1.1
					c-0.9-0.4-1.7-0.9-2.6-1.3c-3.6-1.7-6.9-2.8-9.9-3.2l-12.2-2c-2.1-0.3-4.3-0.7-6.4-0.8c-3.2-0.2-6.5,0.1-9.7,0.3
					c-2.3,0.2-4.6,0.4-6.9,0.4c-0.6,0-1.3,0-2,0C382.9,300.1,382.5,300.1,382.1,300.1z"/>
			</g>
			<path class="st0" d="M281.3,386.2c-0.6,0.4-1.3,0.8-1.7,1.4c-0.4,0.6-0.6,1.4-0.3,2c0.2,0.4,0.6,0.6,0.9,0.9
				c1.9,1.2,4.2,1.8,6.4,1.7c0.1-1.6,2.8-8.7,1.6-9.7C287.4,381.6,282.5,385.5,281.3,386.2z"/>
			<path class="st3" d="M243.8,410.8c-0.5-0.1-0.9-0.4-1.4-0.2c-0.3,0.1-0.6,0.4-0.5,0.8c0.1,0.3,0.3,0.5,0.6,0.6
				c0.3,0.1,0.6,0.1,0.8,0.1c0.2,0,0.4,0,0.7,0c0.3,0,0.6,0,0.8-0.2c0.2-0.2,0.1-0.6-0.1-0.8C244.4,411,244.1,410.9,243.8,410.8z"/>
			<path class="st3" d="M249.5,412.3c-0.2-0.1-0.5,0.1-0.6,0.4c-0.1,0.3,0,0.5,0.2,0.7s0.4,0.3,0.7,0.3c0.4,0.1,0.8,0.1,1.1,0
				c0.1,0,0.2,0,0.3-0.1c0.2-0.1,0.1-0.4,0-0.6c-0.3-0.5-0.9-0.7-1.5-0.9"/>
			<path class="st3" d="M256.7,412.3c0.2-0.1,0.4-0.2,0.5-0.4s-0.1-0.5-0.3-0.6c-0.5-0.3-2.3-0.2-2.6,0.4
				C253.6,412.9,256.2,412.4,256.7,412.3z"/>
			<path class="st3" d="M259.2,408.5c-0.1,0.2-0.4,0.4-0.4,0.7s0.4,0.4,0.7,0.4c0.3,0,0.7-0.2,0.9-0.4c0.3-0.2,0.5-0.5,0.4-0.8
				c-0.1-0.2-0.3-0.3-0.5-0.4c-0.2,0-0.4,0-0.7,0c-0.2,0-0.4,0.1-0.4,0.3"/>
			<path class="st3" d="M280.6,411.7c-0.8-0.7-3.5-0.6-2.9,1c0.2,0.6,1,0.7,1.7,0.8c0.6,0,2,0.2,1.8-0.9
				C281,412.2,280.9,411.9,280.6,411.7z"/>
			<path class="st3" d="M286.2,414.3c-0.6-0.3-1.3-0.5-1.9-0.1c-0.6,0.3-0.5,0.9,0.1,1.2c0.5,0.2,1,0.3,1.4,0.1
				C286.3,415.3,286.5,414.6,286.2,414.3z"/>
			<path class="st3" d="M292.7,414.8c-0.9-0.8-2.7-0.4-3.2,0.6c-0.2,0.3-0.1,0.7,0.2,0.8c0.1,0,0.2,0,0.3,0c0.7,0,1.3,0.1,2,0.1
				c0.3,0,0.5,0,0.8-0.1C293.1,415.9,293.1,415.1,292.7,414.8z"/>
			<path class="st3" d="M298.7,413.8c-0.5-1.1-2.8,0.2-2.3,0.9c0.1,0.1,0.3,0.2,0.5,0.2c0.4,0,0.9,0.1,1.2-0.1
				C298.6,414.6,298.9,414.2,298.7,413.8z"/>
			<path class="st3" d="M388.7,390.9c0-0.4-0.3-0.4-0.6-0.5c-0.4-0.1-0.7-0.1-1.1-0.1s-0.8,0-1.2,0.1c-0.2,0-0.5,0.2-0.6,0.4
				c-0.1,0.3,0.1,0.6,0.4,0.7s0.6,0.2,0.9,0.2s0.7,0,1,0C388,391.7,388.7,391.4,388.7,390.9z"/>
			<path class="st3" d="M396.1,390.7c0.3-0.2,0.5-0.6,0.4-1c0-0.2-0.1-0.3-0.3-0.3c-0.2-0.1-0.4-0.1-0.6-0.1s-0.5,0-0.7,0
				c-0.1,0-0.2,0-0.3,0.1c-0.3,0.1-0.4,0.4-0.6,0.6c-0.1,0.2-0.2,0.5,0,0.7s0.4,0.3,0.7,0.3C395.3,391.1,395.7,391,396.1,390.7z"/>
			<path class="st3" d="M402.6,388c-1.1-0.3-2.9,0.2-3,1.6c0,0.5,0.5,0.5,0.9,0.5c0.9-0.1,1.7-0.5,2.2-1.1c0.2-0.2,0.3-0.6,0.1-0.8
				C402.8,388,402.7,388,402.6,388z"/>
			<path class="st4" d="M295.2,373.1c0.2,5.5-1.7,11.2-4.2,16.1c-1.4,2.7-3.1,5.1-5,7.4s-3.9,4.5-5.2,7.2c-0.4,0.9-0.3,2.5-0.3,3.5
				c0,0.3,0.4,2.8,0.3,2.8c7.8-7.2,12-17.2,15.9-26.8c-0.1-2.1-0.1-4.1-0.2-6.2c-3.4,8.7-7.7,17-13,24.6c-0.5,0.8-0.3,2.7-0.3,3.5
				c0,0.2,0.2,2.8,0.3,2.8c11.3-6.3,14-20,14.5-31.8c0.1-1.3,0.1-2.6-0.1-3.9c0-0.3-0.2-1.5-0.4-0.5c-1.2,6.2-4.1,11.9-6.8,17.6
				c-2.5,5.2-5.3,10.4-9.7,14.3c0,2.1,0,4.3,0,6.4c8.9-9.2,15-20.7,17.8-33.2c-0.1-1.9-0.2-3.7-0.4-5.6c-2.3,10.1-5.5,19.9-9.7,29.3
				c-0.4,1-0.3,2.5-0.3,3.5c0,0.3,0.3,2.8,0.3,2.8c4.8-4.1,9.4-8.8,12.5-14.4c3.4-6.2,4.4-13.2,3.9-20.2c0-0.2-0.3-1.8-0.4-1.5
				c-2,6.6-4,13.3-6.1,19.9c-1.8,5.7-3.7,11.4-7.5,16.1c-0.5,0.7-0.3,2.8-0.3,3.5c0,0.6,0,1.2,0.1,1.8c0,0.1,0.2,1,0.3,0.9
				c7.2-8.2,12-18,16.9-27.6c-0.1-2-0.2-3.9-0.3-5.9c-1,6.9-3,13.5-5.9,19.8c-0.5,1.1-0.3,2.8-0.2,4c0,0.4,0.3,2.5,0.4,2.2
				c4-7.6,7.3-15.4,9.8-23.6c0.4-1.2,0.3-2.7,0.2-4c0-0.4-0.3-2.5-0.4-2.2c-3.3,7-6.6,14-9.9,21c-0.5,1.1-0.3,2.8-0.2,4
				c0,0.4,0.3,2.5,0.4,2.2c3.8-6.8,6.8-14,9-21.4c-0.1-1.8-0.2-3.6-0.3-5.4c-0.4,4-1.7,8.2-4.1,11.5c-0.6,0.8-1.4,1.9-2.5,2.2
				c-0.3,0.1-0.6,0.1-0.9,0c-0.1-0.1-0.2-0.2-0.3-0.3c-0.1-0.1-0.1-0.2-0.1-0.3c-0.1-1-0.1-0.1,0.1,2.8c0.1-1.2,0.1-2.4,0-3.6
				c0-0.1-0.2-1.5-0.4-1.2c-1.5,3.2-4.4,5.7-6.9,8.1c-2.5,2.4-5.2,4.7-7.7,7.2c0,2.1,0.1,4.2,0.1,6.3c3.8-6.1,7.6-12.3,9.8-19.2
				c1.8-5.6,3-11.4,5.6-16.7c-0.1-2-0.2-3.9-0.3-5.9c-2.2,9-4.2,18.1-5.9,27.3c-0.7,3.6-1.3,7.4-0.9,11.1c0,0.2,0,1.1,0.3,1.2
				c0.4,0.2,2-1.5,2.4-1.9c1.3-1.2,2.9-2.7,3.5-4.4c0.5-1.6,0.4-3.5,0.3-5.1c0-0.5,0.1-1.7-0.6-1.9c-0.4-0.1-1.2,0.6-1.4,0.9
				c-1,0.9-1.8,2-2.6,3.1c0.1,2.1,0.1,4.1,0.2,6.2c5.4-9.4,13.3-17.6,16.6-28.1c-0.1-2-0.2-3.9-0.3-5.9c-1.4,5.4-3.9,10.4-7.3,14.8
				c0.1,0.7,0.3,1.5,0.4,2.2c-0.1-3.6,0-7.2,0.4-10.7c-0.2-0.2-0.4-0.4-0.6-0.7c0.5,6.5-2.2,13.4-5.6,18.8c-0.5,0.8-0.3,2.7-0.3,3.5
				c0,0.6,0,1.2,0.1,1.8c0,0.1,0.2,1,0.3,0.9c4.6-5.2,9.4-10.6,11.7-17.4c-0.1-1-0.3-2.1-0.4-3.1c0-1.2-0.3,0.6-0.4,0.9
				c-0.2,0.7-0.4,1.3-0.7,2c-0.4,1.1-0.9,2.3-1.4,3.4c-1,2.3-2.2,4.6-3.3,6.9c-2.3,4.8-4.7,9.5-7,14.3c0.1,1.6,0.3,3.1,0.4,4.7
				c0.2-2.5,1.4-4.9,2.8-6.9c-0.1-2.1-0.1-4.1-0.2-6.2c0-0.1-1.7,1.9-1.8,1.6c0,1.5,0.1,2.9,0.1,4.4c-0.1,1.2,0.3-0.1,0.5-0.4
				c-0.1-2.1-0.1-4.1-0.2-6.2c-0.8,2.1-2.1,3.9-4,5.3c-0.6,0.4-0.4,2.6-0.4,3.2c0,0.3,0.3,3.2,0.4,3.2c1.9-1.4,3.3-3.3,4.2-5.5
				c0.4-1.2,0.3-2.7,0.2-4c0-0.4-0.3-2.5-0.4-2.2c-1.2,2.2-1.2,5.1-0.8,7.5c0.3,2.1,1.7,0.3,2.4-0.7c0.6-0.9,0.3-3,0.2-4
				c0-0.3-0.2-2.5-0.4-2.2c-2.1,3-3,6.3-3.3,9.9c-0.1,1.2-0.1,2.4,0,3.6c0,0.1,0.2,1.5,0.4,1.2c2.7-5.6,5.5-11.2,8.2-16.8
				c2.6-5.5,5.1-10.7,5-16.9c0-0.8,0-1.7-0.1-2.5c0-0.1-0.2-1-0.3-0.6c-2.3,6.6-6.9,12-11.5,17.1c0,2.1,0.1,4.2,0.1,6.3
				c5.3-8.5,6.8-18.4,6-28.2c-0.1-0.8-0.4-2.5-0.6-0.7c-0.6,5.6-0.8,11.3-0.6,17c0,0.2,0.2,2.6,0.4,2.2c3.5-4.6,6-9.8,7.4-15.4
				c0.3-1.2,0.2-2.8,0.1-4c0-0.3-0.3-2.1-0.4-1.9c-3.3,10.5-11.2,18.7-16.6,28.1c-0.6,1-0.3,2.9-0.2,4c0,0.3,0.2,2.5,0.4,2.2
				c0.1-0.1,3.7-4.6,4-3.6c-0.1-0.5-0.1-1-0.2-1.5c-0.4-5.7,0.8-5-0.6-2.9c-0.6,0.9-1.3,1.6-2.1,2.4c-0.5,0.5-1,0.9-1.5,1.3
				c-0.3,0.2-1.2,0.8-1.4,1.1c0,0,0,0.1,0,0c0.1,0.6,0.2,1.3,0.2,1.9c-0.1,2.1-0.1,2.7,0,1.9c0.1,0.7,0,0.1,0-0.2s0.1-0.5,0.1-0.8
				c0-0.2,0.2-1,0.2-1.5c0.3-1.7,0.6-3.4,0.9-5.1c1.6-8,3.3-16,5.2-23.9c0.3-1.3,0.2-2.7,0.1-4c0-0.3-0.3-2.2-0.4-1.9
				c-2.7,5.3-3.9,11.1-5.6,16.7c-2.2,6.9-6,13.1-9.8,19.2c-0.5,0.8-0.3,2.6-0.3,3.5c0,0.3,0.4,2.7,0.3,2.8c2.5-2.6,5.4-5,8-7.5
				c2.4-2.3,5.3-4.9,6.7-8c-0.1-1.6-0.3-3.1-0.4-4.7c-0.1,1.7-0.1,3.5,0.1,5.2c0.1,0.6,0.1,1.5,0.6,2c0.9,0.9,2.1-0.2,2.7-0.9
				c3.6-3.7,5-9.5,5.5-14.5c0.1-1.3,0.1-2.6,0.1-3.9c0-0.2-0.3-1.9-0.4-1.5c-2.1,7.5-5.1,14.7-9,21.4c0.1,2.1,0.1,4.1,0.2,6.2
				c3.3-7,6.6-14,9.9-21c-0.1-2.1-0.1-4.1-0.2-6.2c-2.6,8.1-5.8,16-9.8,23.6c0.1,2.1,0.1,4.1,0.2,6.2c3-6.5,5-13.4,6.1-20.5
				c0.2-1.3,0.2-2.7,0.1-4c0-0.3-0.3-2.2-0.4-1.9c-4.9,9.5-9.6,19.2-16.7,27.3c0,2.1,0.1,4.2,0.1,6.3c3.8-4.7,5.7-10.4,7.5-16.1
				c2-6.6,4.1-13.2,6.1-19.9c-0.1-0.5-0.3-1-0.4-1.5c0,0.7,0.1,0.8,0,0.1c0,0.4-0.1,0.7-0.1,1.1c-0.1,0.6-0.2,1.1-0.3,1.7
				c-0.3,1.4-0.7,2.7-1.2,4c-0.9,2.4-2.1,4.6-3.6,6.7c-2.9,4.3-6.6,7.9-10.5,11.3c0,2.1,0.1,4.2,0.1,6.3c4.3-9.6,7.6-19.6,9.9-29.9
				c0.3-1.4,0.2-3,0.1-4.4c0-0.3-0.2-2.3-0.5-1.2c-2.7,12.1-8.9,23.3-17.5,32.3c-0.6,0.6-0.4,2.5-0.4,3.2c0,0.8,0,1.5,0.1,2.3
				c0,0.1,0.2,1,0.3,0.9c4.5-3.9,7.3-9.2,9.9-14.5c2.9-5.9,5.7-11.8,7-18.3c-0.2-1.5-0.3-2.9-0.5-4.4c-0.5,10.9-3.7,22.9-13.9,28.6
				c0,2.1,0.1,4.2,0.1,6.3c5.3-7.7,9.6-15.9,13-24.6c0.4-1.2,0.3-2.7,0.2-4c0-0.5,0.1-1.5-0.2-1.9c0-0.1-0.1-0.7-0.3-0.3
				c-3.9,9.6-7.9,19.4-15.7,26.6c0,2.1,0.1,4.2,0.1,6.3c1.5-3.2,4.1-5.7,6.3-8.5c2.1-2.7,3.9-5.7,5.3-8.9c2.8-6.7,3.6-13.9,3.3-21.1
				c0-0.2-0.1-2.6-0.4-2.2C294.9,369.6,295.2,372.4,295.2,373.1L295.2,373.1z"/>
			<path class="st4" d="M448.9,366.3c5.2,4.4,5.7,11.5,6.3,17.8c0.8,7.8,0.9,15.6,0.5,23.4c0,0.9-0.3,3.1,0.4,3.8s0.8-0.8,0.9-1.3
				c2.2-14.2,1.5-28.9-2.1-42.8c-0.2-0.9-0.6-1.3-0.9-0.3c-0.5,1.2-0.3,2.9-0.2,4.1c1.5,12.2,3.3,24.4,5.5,36.6
				c0.3,1.9,1,0.3,1.1-0.7c2.1-16.3,3-33.1-0.7-49.2c-0.3-1.1-0.7-1.1-1,0c-0.4,1.4-0.3,3.1,0,4.5c2.4,13,3.4,26.2,3.3,39.4
				c0,0.7-0.1,2.2,0.4,2.8c0.3,0.4,0.5,0.7,0.7,0c5.9-16.6,5.5-35.9-1.4-52.1c-1.9-4.5-4.3-8.9-7.1-12.9c-0.1,2.1-0.3,4.1-0.4,6.2
				c12.2,16.6,13.4,37.4,14.1,57.3c0,0.4,0.1,2.2,0.6,2.3s0.7-1.2,0.7-1.5c1.7-11.1,2.9-22.5,0.7-33.7c-1-5.4-3-10.4-5.3-15.3
				c-2.5-5.3-5-10.6-7.6-15.9c-0.6-1.2-0.9,0.7-1,1.2c-0.2,1.4-0.2,3.1,0.3,4.4c1.5,3.9,3.5,7.5,5.6,11.1c2.1,3.7,4,7.5,5.5,11.5
				c2.9,7.6,4.7,15.8,4.9,24c0,0.5-0.1,3,0.6,3.2c0.7,0.2,0.8-2,0.8-2.3c0.6-18.4-3.5-36.6-12.6-52.7c-0.1,2.1-0.3,4.1-0.4,6.2
				c6.9,8.5,11.8,18.7,13.4,29.6c0.8,5.5,0.7,10.8-1.2,16.1c-2,5.6-5.4,10.5-8.7,15.4c0.2,2,0.4,3.9,0.5,5.9
				c4.9-16.5,4.9-34.3,0.2-50.8c-0.2-0.7-0.5-0.3-0.7,0c-0.4,0.6-0.4,2.1-0.4,2.8c0.4,16.2,0.7,32.6-2.6,48.6c0.4,1,0.8,2.1,1.2,3.1
				c1-18,2-36.1,0.7-54.1c0-0.4,0-2.3-0.7-2.4c-0.6-0.1-0.7,2.1-0.7,2.4c-0.8,16.2-3.1,32.4-6.9,48.2c0.4,1.3,0.7,2.6,1.1,3.9
				c1.2-10.1,4.2-20,4.2-30.3s-3-20-7.8-29c-0.4-0.8-0.9,2.1-0.9,2.2c-0.1,1.3-0.1,2.8,0.5,4c3.9,7.4,7.1,15.7,6.8,24.1
				c-0.4,8.7-2.9,17.2-4,25.8c-0.1,1.3-0.3,2.9,0.2,4.1c0.4,0.9,0.7,0.7,0.9-0.3c4-16.7,6.4-33.8,7.3-51c-0.5,0-0.9,0-1.4,0
				c1.2,16.9,0.3,33.8-0.7,50.7c-0.1,0.9-0.2,2.8,0.3,3.6c0.5,0.7,0.7,0.2,0.9-0.5c3.7-17.5,3.4-35.4,3-53.2
				c-0.4,0.9-0.7,1.9-1.1,2.8c3.7,13,3.7,26.7-0.2,39.7c-0.4,1.3-0.4,2.7-0.3,4c0,0.2,0.4,2.5,0.8,1.9c2.9-4.3,5.8-8.7,7.9-13.5
				c2.2-5,3.3-10.3,3.5-15.7c0.3-10.3-1.7-20.8-6.1-30.1c-2.3-5.1-5.3-9.8-8.8-14.2c-0.6-0.7-0.9,2.1-0.9,2.2
				c-0.1,1.2-0.1,2.8,0.5,4c7.6,13.5,12.1,29.2,11.6,44.8c0.5,0.3,0.9,0.6,1.4,0.9c-0.2-9.3-1.7-18.5-4.8-27.3
				c-1.5-4.2-3.4-8.3-5.5-12.3c-2.2-4.1-4.7-8.1-6.3-12.5c-0.2,1.9-0.5,3.7-0.7,5.6c2.2,4.6,4.4,9.3,6.6,13.9
				c2.1,4.5,4.3,9.1,5.4,13.9c2.2,9.3,1,18.9-0.5,28.2c0.4,0.3,0.9,0.5,1.3,0.8c-0.8-21.3-2-44-15.1-61.8c-0.5-0.7-0.9,2.1-0.9,2.2
				c-0.1,1.1-0.2,3,0.5,4c5.5,7.9,9.4,17,10.9,26.5c1.4,9.1,0.4,18.2-2.7,26.8c0.4,0.9,0.7,1.9,1.1,2.8c0.2-14.7-1.1-29.5-3.7-44
				c-0.3,1.5-0.7,3-1,4.5c3.2,13.7,2.2,27.7,0.5,41.4c0.4-0.2,0.7-0.4,1.1-0.7c-2.1-11.7-3.8-23.5-5.2-35.3
				c-0.4,1.3-0.7,2.6-1.1,3.9c3,11.5,3.7,23.3,1.9,35c0.4,0.8,0.9,1.7,1.3,2.5c0.5-9.5,0.3-19-0.7-28.4c-0.7-7.1-1.3-15.8-7.2-20.8
				c-0.7-0.6-0.9,2-0.9,2.2C448.3,363.2,448.1,365.6,448.9,366.3L448.9,366.3z"/>
			<path class="st4" d="M253.7,175c-0.3,0-0.6-0.1-0.8-0.2c-0.3-0.1-0.5-0.3-0.6-0.6c-0.3-0.2-0.6-0.5-0.7-0.9c0-0.1,0-0.2-0.1-0.2
				s-0.2,0.1-0.3,0.1c-0.2,0.1-0.5,0.1-0.7-0.1s-0.3-0.5-0.2-0.7c0.9-2.3,1.9-4.6,3.1-6.9c0-0.9,0-1.8,0-2.7c0-0.3,0.3-0.6,0.6-0.6
				c0.3,0,0.6,0.2,0.7,0.6c0,0.1,0,0.3,0,0.4c0.1-0.1,0.3-0.2,0.5-0.2c0.3,0,0.5,0.2,0.5,0.5c0.1,0.4,0.2,0.8,0.3,1.2
				c0.1-0.1,0.1-0.1,0.2-0.2c0.2-0.1,0.4-0.2,0.6-0.1c0.1,0,0.1,0.1,0.2,0.1c0.2-0.2,0.3-0.4,0.5-0.6c0.1-0.2,0.4-0.3,0.6-0.2
				c0.2,0,0.4,0.2,0.5,0.4c0.5,1.4,0.7,2.9,0.7,4.3c0.2,1,0.2,2,0.2,2.9c-0.1,0.8-0.6,1.7-1.6,1.8c-0.2,0.2-0.4,0.4-0.6,0.5
				c-0.3,0.3-0.7,0.5-1.1,0.7c-0.1,0-0.2,0.1-0.3,0.1c-0.5,0.2-1,0.3-1.5,0.4C254.2,175,253.9,175,253.7,175z M254.6,173.3
				c-0.1,0.1-0.2,0.2-0.4,0.3c0.2,0,0.3-0.1,0.5-0.1C254.7,173.5,254.7,173.4,254.6,173.3z M255.9,172.9l0.1,0.1
				c0.1,0,0.2-0.1,0.2-0.1l-0.1-0.1C256.1,172.9,256,172.9,255.9,172.9z M253.9,171.6c-0.2,0.4-0.4,0.8-0.5,1.1
				c0.2-0.2,0.5-0.4,0.6-0.6C254,171.9,254,171.7,253.9,171.6z M256.7,171.7c0.1,0.1,0.3,0.2,0.5,0.3c0.3-0.4,0.4-0.8,0.5-1.2
				c0.2-0.7,0.3-1.3,0.4-2c-0.1-0.4-0.2-0.8-0.3-1.3c0-0.1,0-0.1-0.1-0.2c-0.1-0.2-0.1-0.4-0.2-0.6
				C257.6,168.4,257.3,170.1,256.7,171.7z M254.9,165.6c0,0.1,0,0.1,0,0.2l0,0C255,165.7,255,165.6,254.9,165.6L254.9,165.6z"/>
			<path class="st4" d="M342.8,184.4c-0.3,0-0.6-0.2-0.6-0.5c0-0.1,0-0.2-0.1-0.3c-0.1,0.1-0.3,0.1-0.4,0.2c-0.3,0-0.5-0.2-0.6-0.4
				c-0.1-0.3-0.3-0.7-0.4-1l-0.1,0.1c-0.2,0.2-0.4,0.2-0.6,0.2c0,0-0.1,0-0.1-0.1c-0.1,0.2-0.3,0.4-0.4,0.6s-0.4,0.3-0.6,0.3
				s-0.4-0.1-0.5-0.4c-0.6-1.3-1-2.6-1.1-3.9c-0.3-0.9-0.4-1.8-0.5-2.7c0-0.8,0.4-1.6,1.3-1.9c0.2-0.2,0.3-0.4,0.5-0.5
				c0.3-0.3,0.6-0.5,1-0.8c0.1-0.1,0.2-0.1,0.3-0.1c0.4-0.2,0.8-0.4,1.3-0.6c0.6-0.2,1.1-0.2,1.5-0.1c0.3,0.1,0.5,0.2,0.6,0.5
				c0.3,0.1,0.6,0.4,0.7,0.7c0,0.1,0,0.1,0.1,0.2c0.1,0,0.1-0.1,0.2-0.1c0.2-0.1,0.5-0.1,0.7,0c0.2,0.2,0.3,0.4,0.2,0.7
				c-0.6,2.2-1.3,4.5-2.1,6.7c0.1,0.8,0.2,1.7,0.3,2.5C343.4,184,343.2,184.3,342.8,184.4C342.9,184.4,342.8,184.4,342.8,184.4z
				 M338.9,179.9c0,0.1,0.1,0.1,0.1,0.2c0.1,0.1,0.1,0.2,0.2,0.3c-0.2-1.5-0.1-3,0.2-4.5c-0.1-0.1-0.3-0.1-0.4-0.1
				c-0.2,0.4-0.3,0.8-0.3,1.2c-0.1,0.6-0.1,1.2-0.1,1.8C338.6,179.1,338.7,179.5,338.9,179.9z M341.9,175.3c0,0.1,0.1,0.2,0.1,0.3
				c0.1-0.3,0.2-0.5,0.3-0.8C342.1,175,342,175.1,341.9,175.3z M339.8,174.7L339.8,174.7c0.1,0,0.1,0,0.1-0.1l0,0
				C339.9,174.7,339.8,174.7,339.8,174.7z M341.1,174C341.1,174,341.1,174.1,341.1,174c0.1,0,0.2,0,0.2-0.1
				C341.2,174,341.2,174,341.1,174z"/>
			<path class="st4" d="M245.5,409.6c2.2-7.3,2.8-14.9,2.9-22.5c0.1-7.3,0.7-15.4-2-22.4c-0.6-1.6-1.1,2.5-1.1,2.8
				c0,12,0,23.9,0,35.9c0,0.7,0.6,4.9,1.2,2.3c2.4-9.7,3.8-19.6,4.3-29.5c0-0.7,0.3-3.6-0.5-4s-0.8,1.9-0.9,2.2
				c-0.9,10.9-1.8,21.9-2.6,32.8c-0.1,1-0.1,2.4,0.3,3.4c0.2,0.5,0.5,1,0.8,0.3c5.2-12.1,9-24.7,7.6-38.1c0-0.2-0.1-1.6-0.6-1.6
				s-0.6,1.3-0.6,1.6c-1.5,10.3-3,20.6-4.7,30.9c-0.2,1.2-0.3,3,0.2,4.1c0.4,0.9,0.7,0.8,0.9-0.3c2.5-11.3,3.3-22.9,2.7-34.5
				c0-0.5-0.1-2.4-0.8-2.3c-0.6,0.1-0.6,2.9-0.6,3.2c0.1,8.2,0,16.4-0.2,24.7c0.4-0.5,0.9-1.1,1.3-1.6c-0.5-3.1,0.5-6.2,1-9.2
				c0.6-3.5,1.1-7,1.3-10.5c0.5-7.1,0.2-14.3-1-21.4c-0.1-0.9-0.8-2.6-1.1-0.7c-1.4,7.8-2.2,15.7-2.5,23.7c-0.3,7.8-0.5,16,1.5,23.6
				c0.1,0.5,0.5,1.4,0.9,0.5c3.6-8.8,5.9-18.1,7.1-27.5c0.2-1.3,0.3-2.9-0.2-4.1c-0.4-0.9-0.7-0.8-0.9,0.3
				c-2.4,10.8-4.7,21.6-5.3,32.7c0,0.9-0.2,2.8,0.3,3.6c0.5,0.7,0.7,0.2,0.9-0.5c1.9-6.8,2.8-13.8,2.9-20.8
				c-0.5,0.3-0.9,0.6-1.4,0.9c0.2,5.9,0.4,11.8,0.5,17.8c0,0.5,0.1,2.4,0.8,2.3c0.6-0.1,0.6-2.9,0.6-3.2c0-10.1-1.1-20.2-2.2-30.2
				c-0.1-1-0.8-2.5-1.1-0.7c-2,10.2-2.8,20.6-3.5,31c-0.1,1-0.1,2.4,0.3,3.4c0.2,0.5,0.5,1.1,0.8,0.3c3-7.6,4.7-15.5,5.3-23.6
				c0.1-1,0.1-2.4-0.3-3.4c-0.1-0.4-0.5-1.1-0.8-0.3c-0.9,3.2-1.8,6.4-2.7,9.6c0.3,1.2,0.7,2.4,1,3.6c0.6-7.5,1.1-15,1.7-22.5
				c0-0.7,0.3-3.6-0.5-4c-0.8-0.4-0.8,1.9-0.9,2.2c-0.6,7.5-1.1,15-1.7,22.5c-0.1,1-0.1,2.4,0.3,3.4c0.1,0.4,0.5,1.1,0.8,0.3
				c0.9-3.2,1.8-6.4,2.7-9.6c-0.3-1.2-0.7-2.4-1-3.6c-0.5,6.8-2.2,13.5-4.7,19.8c0.3,1.2,0.7,2.4,1,3.6c0.6-9.4,1.3-18.9,3.1-28.2
				c-0.4-0.2-0.7-0.4-1.1-0.7c1,9,2,18,2,27c0.5-0.3,0.9-0.6,1.4-0.9c-0.2-5.9-0.4-11.8-0.5-17.8c0-0.5-0.1-2.4-0.8-2.3
				c-0.6,0.1-0.6,2.9-0.6,3.2c-0.1,5.5-1,11-2.5,16.3c0.4,1,0.8,2.1,1.2,3.1c0.5-10.1,2.7-20,4.9-29.8c-0.4-1.3-0.7-2.6-1.1-3.9
				c-1.1,8.7-3.3,17.1-6.6,25.2c0.3,0.2,0.6,0.3,0.9,0.5c-1.6-6-1.3-12.5-1.1-18.6c0.3-6.6,1-13.1,2.1-19.6
				c-0.4-0.2-0.7-0.4-1.1-0.7c1.1,6.6,1.3,13.3,0.5,19.9c-0.9,7.1-3,14-1.8,21.2c0.1,0.5,0.1,1.8,0.8,1.5c0.6-0.3,0.5-2.6,0.5-3.1
				c0.2-8.2,0.3-16.4,0.2-24.7c-0.5,0.3-0.9,0.6-1.4,0.9c0.5,9.5-0.3,18.9-2.3,28.2c0.4,1.3,0.7,2.6,1.1,3.9
				c1.7-10.3,3.2-20.6,4.7-30.9c-0.4,0-0.8,0-1.2,0c1,10-3.2,20.2-7.1,29.3c0.3,1.2,0.7,2.4,1,3.6c0.9-10.9,1.8-21.9,2.6-32.8
				c-0.5-0.6-0.9-1.1-1.4-1.7c-0.4,9-1.7,17.9-3.9,26.7c0.4,0.8,0.8,1.5,1.2,2.3c0-12,0-23.9,0-35.9c-0.4,0.9-0.7,1.9-1.1,2.8
				c1,2.7,1.2,5.4,1.3,8.2c0,2.9,0.1,5.8,0,8.6c-0.1,5.7-0.6,11.4-2.2,16.9c-0.4,1.4-0.4,3-0.3,4.4
				C244.6,408.8,245.1,410.9,245.5,409.6L245.5,409.6z"/>
			<path class="st4" d="M392.4,378.9c-6.1-4-6.4-11.8-9-17.9c-2.2-5.2-6.8-10.2-7.3-16c-0.4,1-0.8,2.1-1.2,3.1
				c3.3,11.9,9.4,22.4,16.7,32.2c0.1-2.1,0.1-4.2,0.2-6.3c-3.3-0.8-5.8-2.9-8.1-5.3c-2.3-2.4-4.4-5-6.2-7.8
				c-3.6-5.6-6-11.8-7.1-18.3c-0.3,1.7-0.6,3.4-0.9,5.1c2.1,7.2,6,13.9,9.3,20.6c3.2,6.6,6.4,13.1,9.7,19.7c0.6,1.2,0.9-0.7,1-1.2
				c0.2-1.4,0.2-3-0.3-4.4c-3.5-10.7-7.4-21.2-10.9-31.8c-0.3-1-0.7,0.1-0.9,0.5c-0.3,1.2-0.2,2.6-0.1,3.9c1.1,10.3,3,20.7,7.3,30.1
				c0.2-2,0.4-3.9,0.5-5.9c-6.1-4.8-10.5-11.7-13.9-18.5c-3.5-6.9-6.4-14.4-7.9-22c-0.3,1.7-0.6,3.4-0.9,5.1
				c2.3,6.8,5.1,13.4,7.9,19.9c3,6.9,5.8,14.6,11.5,19.7c0.7,0.6,0.9-2,0.9-2.2c0.1-1,0.3-3.1-0.5-4c-4.4-4.6-8.6-9.3-12.6-14.3
				c-4-4.9-7.9-10.2-10.4-16c-0.2,2-0.4,3.9-0.5,5.9c6.7,11.2,14.3,22.7,18.1,35.3c0.2-2,0.4-3.9,0.5-5.9
				c-3.5-5.3-6.4-11.1-10.1-16.3c-1.7-2.4-3.7-4.5-6.1-6.3c-2.6-1.9-5.5-3.3-8.4-4.7c0,2.1,0,4.3,0,6.4c3.3,0.6,6.5,1.3,9.4,3.1
				c2.7,1.8,5,4.3,7.2,6.7c4.5,4.9,8.5,10.3,11.9,16.1c0.4,0.7,0.8-1.5,0.8-1.5c0.2-1.3,0.1-2.6-0.1-3.9c-1.1-5.6-2.4-11.2-5.1-16.3
				c-1.4-2.6-3.2-4.9-5.2-7.1c-1-1.1-2.1-2.3-2.9-3.5c-0.4-0.6-0.8-1.3-1.1-2c-0.3-0.7-0.4-2.3-0.4-0.5c-0.3,0.7-0.6,1.5-0.9,2.2
				c7.2,9.8,14.7,19.4,22.6,28.7c0.6,0.7,0.9-2.1,0.9-2.2c0.1-1,0.3-3.1-0.5-4c-7.8-9.3-15.4-18.9-22.6-28.7
				c-0.5-0.7-0.9,2.3-0.9,2.2c-0.2,3.5,0.3,6.8,2.1,9.8c1.8,2.9,4.5,5.1,6.4,7.9c3.8,5.3,5.3,11.7,6.6,18c0.2-1.8,0.5-3.6,0.7-5.4
				c-3.5-5.9-7.6-11.5-12.3-16.5c-2.2-2.4-4.5-4.8-7.3-6.6c-2.8-1.8-6-2.5-9.3-3.1c-0.8-0.1-1.2,5.9,0,6.4c2.9,1.4,5.8,2.8,8.4,4.8
				c2.3,1.7,4.2,4,5.9,6.3c3.6,5.1,6.4,10.7,9.9,15.9c0.5,0.7,0.8-1.8,0.8-1.9c0.1-1.3,0.1-2.7-0.3-4c-1.9-6.4-5-12.5-8.2-18.3
				c-3.2-6-6.7-11.8-10.2-17.6c-0.4-0.7-0.8,1.8-0.8,1.9c-0.1,1.2-0.2,2.8,0.3,4c2.6,5.9,6.4,11.3,10.4,16.3
				c4,5.1,8.4,9.9,12.9,14.7c0.1-2.1,0.3-4.1,0.4-6.2c-5.7-5-8.5-12.6-11.4-19.4c-2.8-6.4-5.5-12.9-7.7-19.5
				c-0.4-1.2-0.8,0.5-0.9,0.8c-0.2,1.4-0.2,2.8,0.1,4.2c1.5,8,4.5,15.8,8.2,23c3.6,7,8,14.2,14.3,19.2c0.6,0.5,0.8-1.6,0.8-1.9
				c0.1-1.2,0.2-2.9-0.3-4c-4-8.7-5.8-18.3-6.8-27.8c-0.3,1.5-0.6,2.9-1,4.4c3.5,10.7,7.4,21.2,10.9,31.8c0.2-1.9,0.5-3.7,0.7-5.6
				c-3.2-6.6-6.4-13.1-9.7-19.7c-3.3-6.7-7.2-13.4-9.3-20.6c-0.3-1.2-0.9,0.5-0.9,0.8c-0.2,1.4-0.2,2.8,0.1,4.2
				c1.2,6.9,3.7,13.6,7.4,19.5c1.9,2.9,4,5.7,6.4,8.2s5.1,4.7,8.5,5.5c1,0.2,0.7-5.7,0.2-6.3c-7-9.3-13-19.3-16.1-30.6
				c-0.2-0.7-0.4-1.3-0.9-0.5c-0.6,0.9-0.4,2.7-0.3,3.6c0.3,3.6,1.2,7,2.8,10.2c1.5,2.9,3.3,5.7,4.7,8.7c3,6.5,3.2,15.2,9.7,19.5
				c0.7,0.5,0.8-1.9,0.9-2.2C392.9,382.1,393.2,379.4,392.4,378.9L392.4,378.9z"/>
		</g>
		<g>
			<path class="st4" d="M264.9,404.7c0.3,1.4-0.6,3.4-1.4,4.5c-0.9,1.3-2.2,2.2-3.5,3.1c-2.2,1.5-4.7,2.5-7.3,2.9
				c-2.9,0.5-6.4,0.6-9.2-0.1c-1.6-0.4-3-1.2-4.2-2.3c-0.6-0.6-1-1.3-1.4-2c0-0.1-0.2-0.8-0.2-0.3c0-0.3,0.2-0.8,0.4-1.1
				c1.1-2.4,3-4.2,4.5-6.3c1.7-2.3,2.4-4.9,2.7-7.7c0.4-3.6,0-7.1-0.6-10.6c-0.6-3.9-1.1-7.8-1.5-11.8c-1.8-16.2-2.5-32.5-1.8-48.8
				c0.6-16.2,2.9-32.3,4.9-48.4c1-8,2-16.1,2.8-24.1c0.8-8,1.2-16,2.3-24c1.1-7.7,2.6-15.4,3.6-23.1c0.5-3.8,0.8-7.6,0.8-11.4
				c0.1-3.2,0.1-6.7-1.2-9.7c-1.2-2.8-3-5.1-3.5-8.1c-0.4-2.1-0.4-4.3,0.2-6.5c1.2-4.8,4.9-7.6,9.9-7.3c6.7,0.4,12.8,4.4,19.6,3.2
				c5.2-0.9,10.3-2,15.7-2.2c3.5-0.1,6.9,0.1,10.3,0.9c3.6,0.8,6.9,2.4,10.3,3.9c3.2,1.4,6.5,2.7,10,2.9c3.2,0.1,6.3-0.4,9.5-0.4
				c3.1,0,6.4,0.4,8.9,2.5c2.7,2.2,3.9,5.4,2.4,8.6c-2.3,5.1-7.3,8.4-9.8,13.3c-2.6,5.1-3.6,11.2-4.3,16.9c-0.8,6.1-1,12.3-1.1,18.5
				c-0.1,6.1-0.3,12.1-0.6,18.2c-0.2,6.3,0.2,12.6,3.4,18.1c3.1,5.4,7.7,9.8,11.9,14.3c4.9,5.3,9.8,10.8,14.2,16.6
				c7.3,9.6,12,20.6,16.2,31.9c3.1,8.3,5.7,16.7,7.5,25.3c1,4.6,2.1,9.2,3.6,13.7c1.4,4.1,3,8.6,5.8,12c2.7,3.2,7.2,3.7,10.9,5.2
				c2.1,0.8,3.9,1.7,4.9,3.8c0.3,0.7,0.5,0.8,0.2,1.4c-0.3,0.5-0.9,0.9-1.3,1.1c-1,0.5-2.3,0.7-3.4,1c-2.1,0.5-4.4,0.5-6.6,0.6
				c-2,0.1-4,0.3-6.1,0.4c-5,0.3-10.4,0.4-15.1-1.7s-7.2-7.1-9.8-11.4c-1.9-3.1-3.8-6.2-5.8-9.2c-1.7-2.5-3.4-5.2-5.5-7.4
				c-3.4-3.5-8-5.6-12.5-7.3c-2.5-0.9-5.1-1.6-7.6-2.6c-4.8-1.9-9.7-4-13.7-7.3c-0.3-0.2-0.4,0.6-0.4,0.7c-1,8-2.2,16.1-3.9,24
				c-1.3,6-3.1,11.8-5.6,17.4c-2.3,5.2-4.9,10.3-6.8,15.7c-0.6,1.7-1.2,3.4-1.8,5.1c-0.5,1.6-0.9,3.2-2.1,4.5
				c-1.8,2-4.6,2.9-7.2,3.5c-3.7,0.9-7.4,1.2-11.2,1c-3.1-0.2-6.8-0.6-9.1-2.9c-0.4-0.4-0.8-0.9-1.1-1.5c-0.2-0.3-0.2-1.1-0.2-0.5
				c0.1-1,0.9-2.1,1.5-2.9c1.3-1.7,2.9-3.2,4.6-4.6c1.5-1.3,3.2-2.6,4.6-4.1c1.8-1.9,2.8-4.4,3.5-6.9c1-3.4,1.4-7.1,2-10.6
				c0.6-4.3,1.3-8.6,1.8-12.9c1-7.1,2.6-14.8-0.4-21.6c-0.3-0.6-0.4,0.4-0.5,0.6c-0.1,0.6-0.1,1.6,0.1,2.2c1.5,3.3,1.5,6.7,1.1,10.3
				c-0.5,4-1,8-1.6,12c-0.6,3.9-1.1,7.8-1.7,11.7c-0.5,3.5-1.2,7.1-3,10.2c-2.2,3.7-6.3,5.9-9.2,9c-2.7,2.8-4.6,7-2.8,10.8
				c1.1,2.4,3.7,3.7,6.2,4.3c3.6,0.8,7.4,0.7,11,0.3c3.1-0.4,6.3-1,9.1-2.4c2.7-1.4,3.8-3.2,4.7-6c2.2-6.2,4.5-12.2,7.3-18.1
				c2.7-5.6,5-11.4,6.5-17.4c2.4-9.4,3.8-19.1,4.9-28.7c-0.1,0.2-0.3,0.5-0.4,0.7c4.2,3.4,9.2,5.6,14.2,7.6c2.5,1,5.1,1.6,7.7,2.6
				c5.1,2,10,4.5,13.4,8.8c4.5,5.6,7.9,11.9,11.7,17.9c1.3,2,2.5,4.1,4.2,5.8c1.8,1.8,4.1,2.9,6.5,3.5c5.1,1.4,10.5,0.9,15.7,0.5
				c4.3-0.3,9,0.1,13-1.9c4-1.9,2.1-9-0.8-11.1c-1.8-1.3-4.2-1.9-6.3-2.6c-2-0.7-4.4-1.1-6.1-2.4c-3.4-2.7-5.2-7.5-6.6-11.5
				c-2.9-8.2-4-16.7-6.4-25c-3.2-11-7.2-22-12.2-32.4c-6-12.6-15.2-23-24.6-33.1c-4.5-4.8-9.5-9.6-12.2-15.7
				c-2.9-6.6-1.5-14.2-1.3-21.2c0.3-12.6-0.3-25.8,3.5-38c0.9-2.9,2.2-5.5,4.1-7.8c1.8-2.3,3.9-4.3,5.6-6.7
				c3.1-4.4,4.1-10.6,1.1-15.4c-3.8-5.9-11.4-4.7-17.4-4.4c-3.6,0.2-6.8-0.3-10.2-1.6c-3.5-1.4-6.9-3.2-10.5-4.4
				c-6.7-2.1-14-1.9-20.9-0.8c-2.4,0.4-4.9,0.9-7.3,1.3c-3,0.6-5.9,0.3-8.9-0.5c-5.4-1.4-12.4-4.8-17.5-1c-3.6,2.7-4.6,7.7-4.7,12
				c0,2.4,0.2,4.7,0.8,7c0.8,3.2,3.2,5.7,3.9,8.9c0.9,4,0.2,8.7-0.2,12.7c-0.4,4.1-1,8.1-1.7,12.2c-1.3,8.1-2.7,16.1-3.3,24.2
				c-0.6,8.5-1.5,16.9-2.5,25.4c-1.9,16.6-4.5,33.2-5.7,49.9c-1.3,16.7-1.2,33.4,0.1,50.1c0.6,8.1,1.5,16.3,2.7,24.4
				c0.6,4,1.2,8.3-0.9,12c-1.3,2.3-3.3,4.1-4.7,6.4c-2.9,4.6-1.6,10.5,3.6,12.8c2.9,1.3,6.7,1.1,9.8,0.7c2.6-0.3,5.1-1.1,7.4-2.5
				c2.2-1.3,4.4-3,5.4-5.4c1-2.5,1.3-5.5,0.7-8.1c-0.1-0.6-0.3-0.5-0.5,0C264.7,403.1,264.8,404.1,264.9,404.7L264.9,404.7z"/>
			<path class="st4" d="M270,337.6c-0.6,2.9,0,6.1,0.5,9c0.7,3.9,1.8,7.8,3,11.5c1.2,3.6,2.8,6.9,4.8,10.2c1.4,2.4,3.2,4.5,5.3,6.3
				c1.1,0.9,2.2,1.8,3.4,2.5c0.1,0.1,2.5,1.3,2.4,0.8c0-0.7,0.1-1.5,0.1-2.2c-0.4,1-1.8,2.2-2.6,2.9c-1.1,1.1-2.3,1.8-3.7,2.5
				c-1.8,0.9-3.6,1.7-4.2,3.8c-0.5,1.8-0.5,4.4,0.7,6c1.8,2.3,5.2,1.8,7.7,1.4c0.7-0.1,0.4-3.3,0-3.2c-1.4,0.3-2.8,0.5-4.3,0.3
				c-1-0.1-3.5-0.8-3.6-2.2c-0.1-0.9,1.7-1.9,2.3-2.2c1-0.6,2.1-1,3.1-1.6c1.1-0.7,1.9-1.5,2.8-2.4c0.7-0.8,1.7-1.6,2-2.6
				c0.2-0.7,0.3-2,0-2.7c-0.3-0.8-1.3-0.9-2-1.2c-2.6-1.3-4.9-3.5-6.8-5.6c-2-2.2-3.2-4.8-4.7-7.4c-1.8-3.2-2.8-6.8-3.8-10.4
				c-0.6-2.3-1.2-4.5-1.6-6.8c-0.2-1.3-0.8-3.1-0.5-4.3c0.1-0.7,0.3-1.6,0-2.3C270.4,337.2,270.2,336.9,270,337.6L270,337.6z"/>
			<path class="st4" d="M335.6,201.6c-6.7,1.7-13.6,1.1-20-1.7c-4.2-1.9-7.8-4.7-11.2-7.7c-2-1.7-4-3.4-6.8-3
				c-2.5,0.3-4.9,1.8-7,3.2c-3.5,2.5-6.5,5.5-10.6,7.1c-8.1,3.2-17,1.6-25.2,0.1c-0.3-0.1-0.7,3.1,0,3.2c7.3,1.3,15,2.8,22.4,0.8
				c3.8-1,7.1-2.9,10.1-5.5c2.6-2.2,5.5-4.5,8.7-5.5c3.1-1,5.4,0.1,7.7,2.1c3.1,2.7,6.2,5.3,9.9,7.3c6.8,3.6,14.5,4.6,21.9,2.7
				C336.2,204.6,335.8,201.5,335.6,201.6L335.6,201.6z"/>
			<path class="st4" d="M247,264.7c0.6,4.2,1.5,8.3,2.3,12.5c1.3,7.4,2.7,14.8,4.4,22.2c1.7,7.4,3.6,14.8,6.1,21.9
				c2.2,6.4,4.9,13,9.5,18.1c1.8,2.1,3.8,4,6.3,5.1c2.3,1.1,4.8,1.6,7.4,1.8c5,0.3,10.6-0.7,14.6-3.9c2.3-1.9,4.2-4.4,6-6.8
				c1.9-2.6,3.6-5.4,5.1-8.3c3-5.7,5.5-11.7,7.8-17.7c5.8-15.6,11.3-31.5,13.3-48c0.1-0.5,0.3-1.9-0.1-2.2c-0.4-0.3-0.4,0.1-0.5,0.6
				c-1.8,14.9-6.6,29.1-11.7,43.1c-4.2,11.5-8.8,23.5-16.9,32.9c-1.8,2.1-3.7,3.9-6.2,5.1c-2.3,1.1-4.8,1.7-7.3,1.9
				c-4.9,0.5-10.6-0.4-14.5-3.7c-5.1-4.4-8.3-10.3-10.8-16.4c-2.7-6.8-4.7-13.9-6.5-21.1c-2.1-8.3-3.8-16.7-5.2-25.1
				c-0.8-4.6-1.8-9.1-2.5-13.6c-0.1-0.5-0.1-0.9-0.5-0.6C246.8,262.8,247,264.3,247,264.7L247,264.7z"/>
			<path class="st4" d="M369.8,309.7c5.6-0.9,11.7,0.1,17,1.5c14.6,3.8,27.2,13,37.1,24.2c11.3,12.8,20.6,28,24.3,44.8
				c1.3,6,1.8,12.1,1.4,18.2c-0.4,5.4-2.6,11.1-0.8,16.5c1.8,5.3,7.2,9.5,12.9,8.8c4.9-0.5,8.3-4.5,10.4-8.7
				c4.2-8.5,5.8-18.5,6.5-27.9c1-12.6,0.1-25.6-3.7-37.8c-2-6.3-4.8-12.5-8.5-18s-8.5-10.1-13.5-14.4c-8.7-7.5-18.5-13.9-29.5-17.5
				c-13.4-4.4-27.7-4.8-41.7-3.6c-4.5,0.4-8.9,1-13.3,1.6c-0.6,0.1-0.4,3.3,0,3.2c15-2.3,30.6-3.5,45.6-0.5c11.4,2.3,22,7.1,31.4,14
				c10.2,7.5,19.6,16.3,25.2,27.9c5.6,11.5,7.8,24.5,7.6,37.2c-0.1,10-1.5,20.4-5.2,29.8c-1.4,3.6-3.2,7.3-6.6,9.6
				c-5.2,3.6-12.1,1.6-15.6-3.3c-0.9-1.2-1.6-2.6-1.9-4s0-2.5,0.3-3.9c0.5-2.6,0.8-5.2,1-7.8c0.5-5.9,0.2-11.9-0.8-17.8
				c-2.5-15.4-9.8-29.5-19.1-41.8c-9.7-12.8-21.8-24.1-37-29.9c-7-2.7-14.9-4.4-22.5-3.8c-0.4,0-0.7,0.1-1.1,0.1
				C369.2,306.5,369.5,309.7,369.8,309.7L369.8,309.7z"/>
			<g>
				<path class="st4" d="M277.2,186c0.4,0.3,1,0.5,1.5,0.4c0.6-0.1,1-0.5,1.3-1s0.3-1.1,0.4-1.6c0.1-0.8,0.1-1.7-0.4-2.3
					c-0.2-0.3-0.5-0.5-0.9-0.6c-0.6-0.3-1.3-0.4-1.9,0c-0.7,0.4-0.9,1.4-0.9,2.3C276.1,184.4,276,185.1,277.2,186z"/>
			</g>
			<g>
				<path class="st4" d="M319.4,182.5c-0.4-0.3-0.9-0.4-1.5-0.3c-0.5,0.1-1,0.6-1.2,1.1s-0.3,1.1-0.4,1.6c-0.1,0.8-0.1,1.7,0.4,2.3
					c0.2,0.3,0.5,0.5,0.9,0.6c0.6,0.3,1.3,0.3,1.9,0C321,186.8,320.9,183.5,319.4,182.5z"/>
			</g>
			<g>
				<path class="st4" d="M297.5,191.9c2.1,0.1,3.9-1.5,5.2-3.1c0.4-0.5,0.8-0.9,0.9-1.5c0.2-0.6,0.1-1.2-0.3-1.7
					c-0.2-0.2-0.5-0.3-0.8-0.4c-2.4-0.8-8.1-1.6-10.1,0.5C290,188.3,295.2,191.8,297.5,191.9z"/>
			</g>
			<path class="st4" d="M258.5,165.2c0.6,0.4,0.9,1.2,1.2,1.9c0.3,0.8,0.7,1.5,0.9,2.3c0.4,1.2,0.4,2.2,0,3.4
				c-0.9,2.6-2.9,4.7-5.4,5.7c-0.7,0.3-0.2,3.3,0,3.2c3.3-1.3,5.5-4.3,6.1-7.7c0.4-2,0.4-4.2-0.1-6.2c-0.3-1-0.6-2.1-1.1-3
				c-0.4-0.9-0.7-2.1-1.5-2.6c-0.4-0.2-0.4,1-0.4,1.1C258.3,163.6,258.1,164.9,258.5,165.2L258.5,165.2z"/>
			<path class="st4" d="M340.4,170.1c-0.9,0.3-1.4,1.2-2,1.9c-0.7,0.8-1.3,1.7-1.8,2.7c-0.9,1.7-1.3,3.6-1.4,5.5
				c-0.1,3.7,1.1,7.5,4.2,9.8c0.4,0.3,0.4-1,0.4-1.1c0-0.4,0.2-1.7-0.2-2c-1.9-1.4-3.6-3.8-3.7-6.3c0-1.3,0.7-2.6,1.3-3.7
				c0.4-0.7,0.9-1.3,1.4-1.9s1-1.4,1.7-1.7C341.1,173.1,340.6,170,340.4,170.1L340.4,170.1z"/>
			<path class="st4" d="M297.3,191.9c0,0.4,0,0.8,0.1,1.2c0-0.2,0,0.3,0,0.3c0,0.2,0,0.3,0,0.5c0,0.1,0,0.2,0,0.3c0-0.1,0-0.1,0,0.1
				s0,0.3,0,0.5c0-0.1,0,0.3,0,0.3c0,0.1,0,0.2-0.1,0.4c-0.2,1.3-0.8,2.5-2,3.1c-1.1,0.5-2.3,0.6-3.5,0.6c-1.2-0.1-2.5-0.3-3.3-1.3
				c-0.3-0.3-0.4,1-0.4,1.1c0,0.4,0,0.8,0,1.2c0,0.2,0.1,0.6,0.2,0.7c0.9,1.1,2.4,1.4,3.7,1.4c1.4,0.1,2.8-0.1,3.9-1
				c1.3-1,1.7-2.8,2-4.3c0.3-2,0.2-4,0.1-6c0-0.2,0-1.3-0.4-1.1c-0.2,0.1-0.2,0.6-0.2,0.7C297.3,191.1,297.3,191.5,297.3,191.9
				L297.3,191.9z"/>
			<path class="st4" d="M297.1,196.2c-0.2,1.4-0.1,3.1,0.7,4.3c0.6,0.9,1.5,1.5,2.5,1.8c1.1,0.3,2.3,0.2,3.4-0.2
				c0.9-0.3,1.8-0.8,2.1-1.8c0.2-0.7,0.2-1.5,0.1-2.2c0-0.2-0.3-1.2-0.5-0.6c-0.2,0.7-0.9,1.1-1.6,1.3c-0.9,0.3-1.8,0.4-2.7,0.4
				c-0.9-0.1-1.7-0.3-2.4-0.9c-0.3-0.3-0.6-0.6-0.8-0.9c-0.1-0.2-0.2-0.3-0.2-0.5c0-0.1,0-0.1,0-0.1c0.2,0.3,0.1,0.7,0,1.1
				c0.1-0.7,0.1-1.6-0.1-2.2C297.3,195,297.1,196,297.1,196.2L297.1,196.2z"/>
			<path class="st4" d="M264,397.7c-1.1-1.2-1.6-2.7-1.3-4.3c0.2-0.8,0.4-1.6,0.6-2.4c0.7-3,1.3-6,1.9-9.1c1.6-8.5,3-17.2,3.6-25.8
				c0.3-4.4,0.4-8.8-0.2-13.1c-0.1-0.5-0.1-0.9-0.5-0.6s-0.2,1.8-0.1,2.2c1.1,8.4-0.4,17.4-1.7,25.7c-1.1,6.8-2.3,13.5-4,20.2
				c-0.8,3.2-1.1,7.7,1.5,10.3c0.3,0.3,0.4-1,0.4-1.1C264.2,399.2,264.4,398.1,264,397.7L264,397.7z"/>
			<path class="st4" d="M323.6,348.1c0.3-5,0.6-10,0.8-15c0.3-7.8,0.7-15.8,0.3-23.6c0-0.3,0-1.2-0.4-1.1s-0.3,1.8-0.2,2
				c0.4,7.5,0,15.1-0.3,22.7c-0.2,4.7-0.5,9.5-0.8,14.2c0,0.3-0.1,1.9,0.2,2C323.6,349.3,323.6,348.4,323.6,348.1L323.6,348.1z"/>
			<path class="st4" d="M259.2,242.3c5,8.3,12.4,15.9,21.8,18.9c5.4,1.7,10.8,1,16.2-0.5c5.3-1.5,10.3-3.9,14.9-6.9
				c5.3-3.4,10.3-7.4,14.4-12.1c0.4-0.4,0.3-1.5,0.2-2c0-0.1-0.2-1.4-0.4-1.1c-7.1,8.1-16.8,14.9-27.1,18.3
				c-5,1.7-10.6,2.9-15.8,1.8c-4.9-1-9.5-3.5-13.3-6.8c-4.2-3.6-7.8-7.9-10.6-12.6c-0.2-0.4-0.4,1.1-0.4,1.1
				C258.9,240.9,258.9,241.7,259.2,242.3L259.2,242.3z"/>
			<g>
				<path class="st4" d="M283.8,239.1c-0.8,1.1-1.5,2.4-1.9,3.7c-0.2,0.7-0.2,1.5-0.1,2.2c0,0.2,0,0.6,0.2,0.7
					c0.1,0.1,0.2,0,0.3-0.2c0.2-0.6,0.4-1.2,0.7-1.8v-0.1c0,0.1,0,0.1,0,0s0.1-0.1,0.1-0.2c0.1-0.1,0.2-0.3,0.3-0.4
					c0.2-0.3,0.4-0.6,0.6-0.8c0.1-0.2,0.2-0.5,0.2-0.7c0.1-0.4,0.1-0.8,0-1.2c0-0.3,0-0.7-0.2-1C284.1,239.1,284,238.9,283.8,239.1
					L283.8,239.1z"/>
				<path class="st4" d="M287.1,241c-0.7,2-0.9,4-1,6.1c0,0.4,0,0.8,0.1,1.1c0,0.1,0.1,0.5,0.3,0.5c0.2,0,0.2-0.4,0.3-0.5
					c0.1-0.4,0.1-0.8,0.1-1.1c0-0.3,0,0.4,0,0.1c0-0.1,0-0.2,0-0.3c0-0.1,0-0.2,0-0.3c0-0.3,0,0.2,0,0s0-0.4,0.1-0.6
					c0-0.1,0-0.2,0-0.3c0-0.3,0,0.3,0,0c0.1-0.3,0.1-0.7,0.2-1c0-0.1,0-0.2,0.1-0.3c0.1-0.2,0,0.1,0-0.1c0.1-0.2,0.1-0.4,0.2-0.6
					c0.2-0.7,0.2-1.5,0.1-2.2c0-0.2,0-0.6-0.2-0.7C287.2,240.7,287.1,240.8,287.1,241L287.1,241z"/>
				<path class="st4" d="M292.9,244.2c0.1,0.4,0.2,0.7,0.2,1.1c0,0.1,0,0.1,0-0.1c0,0.1,0,0.1,0,0.2s0,0.2,0,0.3
					c0,0.2,0.1,0.4,0.1,0.5c0,0.2,0,0.4,0.1,0.5c0,0.1,0,0.4,0,0c0,0.1,0,0.2,0,0.3c0,0.4,0.1,0.8,0.1,1.2c0,0.1,0.1,1.4,0.4,1.1
					c0.2-0.2,0.2-0.5,0.2-0.7c0-0.4,0-0.8,0-1.2c-0.1-1.8-0.3-3.6-0.7-5.4c0-0.1-0.1-0.5-0.3-0.5c-0.2,0-0.2,0.4-0.3,0.5
					C292.7,242.6,292.7,243.5,292.9,244.2L292.9,244.2z"/>
				<path class="st4" d="M297,242.8c0.4,0.3,0.8,0.8,1,1.3c0-0.1-0.1-0.1-0.1-0.2c0.1,0.2,0.2,0.4,0.3,0.7v0.1c0,0.1-0.1-0.2,0-0.1
					c0,0.1,0,0.1,0,0.2s0,0.1,0,0.2s-0.1-0.3,0-0.2v0.1c0,0.2,0,0.3,0.1,0.5c0,0.1,0.1,0.2,0.1,0.3c0.1,0.1,0.2,0,0.3-0.2
					c0.1-0.3,0.1-0.6,0.2-1c0-0.4,0-0.8,0-1.2c-0.2-1.3-0.7-2.6-1.7-3.5c0-0.1-0.1-0.1-0.1,0c-0.1,0-0.1,0.1-0.1,0.2
					c-0.1,0.3-0.1,0.7-0.2,1c0,0.4,0,0.8,0,1.2c0,0.1,0,0.2,0.1,0.3C296.9,242.6,296.9,242.7,297,242.8L297,242.8z"/>
			</g>
		</g>
	</g>
	
		<image style="overflow:visible;enable-background:new    ;" width="335" height="436" id="圖層_19" xlink:href="4DD99A0F7C8B03B0.png"  transform="matrix(0.2164 0 0 0.2018 25.0885 376.916)">
	</image>
	
		<image style="overflow:visible;enable-background:new    ;" width="332" height="469" id="圖層_19_1_" xlink:href="4DD99A0F7C8B03BE.png"  transform="matrix(0.1374 0 0 0.1374 144.2226 290.9582)">
	</image>
	
		<image style="overflow:visible;enable-background:new    ;" width="330" height="474" id="圖層_19_3_" xlink:href="4DD99A0F7C8B03BF.png"  transform="matrix(0.1167 0 0 0.1167 655.3954 193.858)">
	</image>
	
		<image style="overflow:visible;enable-background:new    ;" width="200" height="559" id="圖層_3" xlink:href="4DD99A0F7C8B03B2.png"  transform="matrix(0.1486 0 0 0.1486 0 220.0611)">
	</image>
	
		<image style="overflow:visible;enable-background:new    ;" width="198" height="558" id="圖層_3_1_" xlink:href="4DD99A0F7C8B03B5.png"  transform="matrix(0.1851 0 0 0.1851 591.0829 308.0315)">
	</image>
	<g class="st5">
		<path class="st6" d="M244.5,134.8c8-5.4,20.5-8.6,30.9-12.9c31.6-13,42.3-34.2,43.4-52.9c1.1-20.1-7-40.7-33.4-54
			s-74.5-17.2-110.6-4.8c-21.4,7.4-35.7,19.3-42.4,31.3s-6.6,24.1-5,35.9c1.9,13,6.1,26.4,22,35.8c12.4,7.3,30.8,11.6,50.3,13.9
			c4.9,0.6,10.2,1.1,13.3,2.9c2.7,1.6,3.2,3.8,4.4,5.8c2.3,4.2,9.6,11.7,20.6,10.5C238.9,142.5,239.2,138.4,244.5,134.8z"/>
		<g>
			<path class="st7" d="M244.7,137.2c8.1-5.3,17.8-7.9,26.8-11.3c8.8-3.3,17.3-7.5,24.8-13.3c11.2-8.6,19.3-20.7,22-34.7
				c2.7-14.1,1-29.6-6.4-42.1c-8.6-14.5-23.8-23.6-39.5-28.7c-17-5.5-35.3-7.5-53.2-7.1c-19,0.5-38.4,3.8-55.7,12
				c-15.2,7.2-29.7,18.7-35.1,35.2c-3.3,10-3.1,20.8-1.6,31.2c1.1,7.7,3,15.3,7,22c9.7,16.4,29.6,22.5,47.2,26
				c5.3,1.1,10.6,1.9,15.9,2.6c4.9,0.6,10.2,0.7,14.8,2.6c2.1,0.9,3.5,2.4,4.5,4.4c0.7,1.4,1.3,2.7,2.2,3.9c2,2.6,4.6,4.8,7.4,6.3
				c3.7,2,7.9,2.8,12,2.4c0.2,0,0.4-0.6,0.4-0.7c0.4-1.8,0.7-3.7,1.5-5.4C240.9,140.3,242.7,138.6,244.7,137.2
				c0.6-0.4,0.4-2.4,0.4-3.1c0-0.3-0.1-2.1-0.7-1.7c-2.2,1.5-4,3.4-5.1,5.9c-0.9,2-1.2,4.1-1.7,6.2c0.1-0.2,0.3-0.5,0.4-0.7
				c-7.5,0.7-14.9-2.6-19.3-8.7c-0.9-1.2-1.5-2.5-2.1-3.8c-0.9-1.8-2.2-3.2-4-4.1c-4.2-2.1-9.4-2.2-13.9-2.8
				c-10.2-1.2-20.3-3-30.1-5.8c-8.6-2.5-17.3-5.9-24.4-11.6c-6.3-5-10.9-11.7-13.5-19.3c-1.2-3.4-1.9-6.9-2.5-10.5
				c-0.7-4.5-1.2-9.1-1-13.6c0.3-9.1,3.5-17.9,9.1-25.2c4.7-6.2,10.8-11.3,17.3-15.5c15.7-10.1,34.4-15,52.8-16.8
				c17.8-1.8,36-0.9,53.5,2.8c16,3.5,32,9.7,43.8,21.5c5.3,5.3,9.5,11.6,12,18.7c2.2,6.1,3.1,12.9,2.8,19
				c-0.3,5.4-1.6,11.3-3.9,16.6c-2.6,6.2-6.4,11.8-11.1,16.6c-5.9,6.1-12.9,10.9-20.4,14.7c-8.7,4.4-18.1,7.1-27.1,10.7
				c-3.9,1.6-7.8,3.3-11.4,5.7c-0.6,0.4-0.4,2.4-0.4,3.1C244,135.8,244.1,137.6,244.7,137.2z"/>
		</g>
	</g>
	<text transform="matrix(1 0 0 1 144.5802 62.0532)" class="st7 st8 st9">準備好登山了嗎？</text>
	<text transform="matrix(1 0 0 1 144.5802 86.0532)" class="st7 st8 st9">先來過我這關吧！</text>
</g>
</svg>
