<?xml version="1.0" encoding="utf-8"?>
<!-- Generator: Adobe Illustrator 24.2.3, SVG Export Plug-In . SVG Version: 6.00 Build 0)  -->
<svg version="1.1" id="圖層_1" xmlns="http://www.w3.org/2000/svg" xmlns:xlink="http://www.w3.org/1999/xlink" x="0px" y="0px"
	 viewBox="0 0 204.8 155.2" style="enable-background:new 0 0 204.8 155.2;" xml:space="preserve">
<style type="text/css">
	.st0{fill:#8FA88B;}
</style>
<g>
	<g>
		<g>
			<path class="st0" d="M27,109.2c-2.1,0-4.1,0-6.2,0c-0.2,0-0.5-0.1-0.7-0.2c-0.8-0.3-1.6-0.5-1.8-1.5c-0.2-1.1,0.2-2,1.2-2.7
				c2.6-1.8,5.4-3.3,8.3-4.5c3-1.3,6-2.2,9.2-2.4c2.6-0.2,5.3,0,7.9,0.2c0.7,0,1.4,0.4,2,0.7c1,0.5,1.8,1.3,1.7,2.6
				c-0.1,1.4-0.6,2.6-2.1,3.1c-2.3,0.7-4.6,1.5-6.9,2.1c-2.3,0.6-4.7,1.1-7.1,1.6c-0.2,0.1-0.6,0.5-0.5,0.7c0.2,1.9,0.5,3.9,0.8,5.9
				c3.1-1.5,6.2-1.9,9.5-1.7c0.6,0,1.3,0.2,1.9,0.3c0.6,0.2,1.2,0.5,1.2,1.3c0,0.8-0.1,1.4-0.9,1.8c-1.5,0.6-3,1.3-4.5,1.8
				c-2.2,0.7-4.5,1.4-6.8,2.1c0.1,0.6,0.1,1.1,0.1,1.5c2.4-0.2,4.8-0.5,7.2-0.6c0.6,0,1.2,0.1,1.8,0.2c0.3,0.1,0.7,0.5,0.7,0.8
				c0,0.3-0.3,0.8-0.5,0.9c-1.4,0.5-2.9,1-4.4,1.3c-1.6,0.3-3.2,0.5-4.7,0.7c0.1,1,0.1,1.9,0.2,3c0.8-0.1,1.5-0.3,2.3-0.4
				c2.9-0.5,5.7-1.1,8.6-1.3c2.3-0.2,4.7,0.1,7,0.4c2.8,0.3,4,2.2,3,4.9c-0.2,0.7-1,1.2-1.7,1.6c-2.2,1.2-4.6,1.4-7,1.8
				c-3.2,0.5-6.4,1-9.6,1.5c-0.1,0-0.2,0.1-0.3,0.1c-1.3-0.2-2,0.4-2.5,1.5c-0.2,0.5-0.6,0.9-1.1,1.6c2.1-0.4,3.9-0.8,5.8-1.1
				c1.3-0.2,2.6-0.4,3.8-0.2c1.7,0.2,2.3,1.7,2.8,3.2c0.3,0.9,0.6,1.8,0.8,2.8c0.4,1.5-0.3,2.6-1.8,2.7c-1.4,0.1-2.9,0-4.2-0.4
				c-0.7-0.2-1.2-1.1-1.7-1.7c-2.9,0.1-5.9,0.3-8.9,0.3c-1.2,0-2.4-0.2-3.6-0.5c-1.6-0.4-2.1-1.5-1.6-3.6c0.3-1.2,0.6-2.4,0.9-3.5
				c-2.3,0.1-4.6,0.3-6.9,0.3c-0.7,0-1.5-0.3-2.2-0.6c-0.8-0.4-0.7-1.4-0.1-2c2.3-2.2,5.1-3.3,8.1-4c0.7-0.2,1.3-0.3,2-0.5
				c1.6-0.4,1.6-0.6,1.5-2.2c-0.1-3-0.1-6.1-0.1-9.1c0-2.1,0-4.3,0-6.4C26.9,111.8,27,110.5,27,109.2z"/>
			<path class="st0" d="M58.2,167.3c0,1.9-0.1,3.7,0,5.4c0,0.3,0.7,0.9,1,0.9c3.4,0,6.8,0.2,10-1.2c0.4-0.2,0.8-0.7,0.9-1.1
				c0.4-1.5,1.2-3.1,2.7-3.5c1.3-0.4,2.8,0.1,4.3,0.4c0.5,0.1,1,0.6,1.5,0.8c1.6,0.8,1.9,2.2,1.9,3.8c0,1.5-0.8,2.7-2.2,3.3
				c-3.1,1.3-6.3,2.3-9.7,2.3c-3.2-0.1-6.4,0.1-9.6-0.1c-1.7-0.1-3.5-0.4-5.2-0.8c-2.9-0.7-3.7-2.3-3.8-5c-0.1-1.5,0-3.1,0-4.6
				c0-0.1,0-0.1-0.1-0.4c-0.8,0-1.8,0.1-2.7,0c-2-0.2-4.1-0.3-6.1-0.7c-0.5-0.1-1.2-0.6-1.3-1.1c-0.3-0.8,0.5-1.2,1.2-1.4
				c2.4-0.5,4.8-0.9,7.1-1.4c2.4-0.5,2.2,0.2,2.4-2.5c0.1-0.7,0-1.5,0-2.4c-3,0-5.9,0-8.9,0c-1.2,0-2.4-0.2-3.5-0.4
				c-0.4-0.1-1-0.6-1.1-1c-0.1-0.4,0.4-1,0.8-1.2c1.4-0.6,2.9-1.2,4.4-1.5c2.8-0.5,5.7-0.7,8.6-1c0.1-1.3,0.1-2.6,0.2-4
				c-1.1-0.2-2.2-0.3-3.3-0.5c-0.7-0.1-1.4-0.3-1.6-1.2c-0.2-0.9,0.2-1.7,1-2c1.1-0.5,2.3-1.1,3.5-1.3c3.1-0.5,6.1-0.5,9.2,0.2
				c0.4,0.1,0.8,0.2,1.1,0.4c0.9,0.4,1.5,1.1,1.5,2.2c0,1.1-0.8,1.7-1.7,1.9c-1,0.2-2,0.3-3.1,0.5c-0.1,1.1-0.1,2.2-0.2,3.4
				c1,0,2,0,3.1,0c1.5,0,2.9,0,4.4,0.1c1,0.1,1.9,0.3,2.1,1.5c0.1,1.1-0.6,1.8-1.6,2.1c-2.2,0.6-4.5,1.1-6.8,1.7c0,0.8,0,1.9,0,2.9
				c2.1,0,4-0.1,5.9,0c1.6,0.1,3.2,0.2,4.8,0.4c0.9,0.1,1.6,0.6,1.8,1.6c0.2,1-0.3,1.6-1.1,2.2c-1.6,1.2-3.6,1.1-5.4,1.4
				C62.5,166.8,60.4,167,58.2,167.3z"/>
			<path class="st0" d="M33.1,185.5c1-1.9,2-3.5,2.8-5.1c0.5-1,1.3-1.1,2.2-1.1c0.9,0,1.3,0.6,1.5,1.4c0.9,4.8,1.9,9.5,2.8,14.3
				c0.2,0.9,0.3,2.1-0.7,2.5c-0.9,0.3-2,0.2-3-0.1c-0.4-0.1-0.8-0.9-0.9-1.4c-0.5-2.7-0.8-5.5-1.2-8.3c-0.2,0.2-0.4,0.3-0.5,0.5
				c-1,2.2-2.6,4.2-2.9,6.8c-0.1,1-1.1,1.5-2.4,1.4c-1-0.1-1.5-0.6-1.5-1.6c-0.2-3.4-0.4-6.9-0.7-10.3c-0.2-3.4-0.5-6.9-0.7-10.3
				c-0.2-3.1-0.5-6.2-0.8-9.3c-0.1-0.6-0.2-1.3-0.3-2.2c-0.4,0.8-0.7,1.3-0.8,1.9c-1,3.1-2.1,6.2-2.9,9.3c-2,7.2-4.7,14.1-7.6,20.9
				c-0.4,1-1.7,1.6-2.6,1c-0.4-0.3-0.7-1.1-0.6-1.5c0.8-3.4,1.7-6.9,2.7-10.2c1.3-4.6,2.7-9.1,4.3-13.6c1.4-4.1,3.1-8.1,4.7-12.2
				c0.6-1.5,1.2-3.1,1.8-4.6c0.5-1.1,2-1.8,3.1-1.4c0.4,0.2,0.9,0.8,0.9,1.3c0.6,3.8,1.3,7.7,1.7,11.5c0.6,6,1,12,1.6,18
				C32.9,183.7,33,184.4,33.1,185.5z"/>
			<path class="st0" d="M97.8,141.4c-3.5-0.1-7.1,0.3-10.5-0.8c-1.7-0.6-2.3-1.7-1.7-3.4c0.1-0.3,0.3-0.7,0.6-0.8c1-0.6,2-1.2,3-1.6
				c2.5-1.1,5.1-2.2,7.7-3.1c3.3-1.1,6.6-2.4,10.1-2.5c4.6-0.2,9.2-0.4,13.8-0.3c1.8,0,3.7,0.7,5.5,1.2c1.7,0.5,2.4,1.9,2.4,3.7
				c0,1.8-0.8,2.9-2.4,3.4c-1.9,0.6-3.9,1.2-5.9,1.6c-3.1,0.6-6.2,1-9.3,1.6C106.7,141.2,102.3,141.6,97.8,141.4z"/>
			<path class="st0" d="M109.5,160.5c-2.5-0.2-5-0.4-7.5-0.6c-0.6-0.1-1.1-0.3-1.6-0.5c-1.7-0.7-2.2-1.5-2.2-3.3
				c0-0.5-0.2-1.1-0.3-1.6c-0.6-1.8-1-3.7-0.5-5.6c0.2-0.7,0.8-1.4,1.4-1.9c2.3-1.9,5.1-2.3,7.9-3c4-1,8.1-1,12.1-1
				c2.7,0,4.6,1.3,6.1,3.4c1.5,2,2.1,4.1,1.9,6.5c-0.1,1.1-0.6,2.3-1.3,3.2c-1.2,1.5-2.9,2.5-4.9,3
				C117.1,160.2,113.3,160.5,109.5,160.5z M113.8,148.4c-3,0.6-5.9,1.2-9,1.8c0.4,1.3,0.7,2.4,1,3.4c1.4,0.1,2.6,0.1,3.9,0.2
				c1.8,0.2,3-0.7,4-1.9C114.7,150.8,114.2,149.6,113.8,148.4z"/>
			<path class="st0" d="M124.3,171.1c2.8,0.4,5.5,0.6,8.1,1.1c1.9,0.4,2.6,1.3,2.3,2.8c-0.1,0.5-0.5,1.2-0.9,1.4
				c-1.3,0.4-2.7,0.9-4,0.9c-7.3,0.1-14.6,0.2-21.9,0.2c-2.8,0-5.7,0.1-8.5,0.1c-2,0-3.9-0.1-5.9-0.2c-0.1,0-0.1,0-0.2,0
				c-0.8-0.2-1.8-0.1-1.9-1.2c-0.1-1,0.8-1.3,1.5-1.5c2.4-0.7,4.9-1.3,7.4-2c-0.7-2.2-1.4-4.5-2.1-6.7c-0.5-1.4-0.3-1.8,1.1-2.3
				c2.6-1,5.1-0.1,6.8,2.3c0.6,0.9,1.2,1.9,1.7,2.8c0.5,0.9,1,1.9,1.5,2.8c1.1-2.2,2.1-4.4,3.3-6.6c0.7-1.4,2.1-1.9,3.6-1.9
				c1.7,0,3.5,0,5.2,0.2c1.8,0.2,2.5,1.2,2.5,3C124.1,168,124.2,169.6,124.3,171.1z"/>
			<path class="st0" d="M121.3,117.4c1.3,0.7,2.6,1.4,3.6,1.9c1.1-1.1,2-2.4,3.2-3.2c2.2-1.5,4.7-2.3,7.4-1.9
				c0.5,0.1,1.2,0.4,1.4,0.8c0.1,0.4-0.3,1.1-0.6,1.4c-2.1,1.7-4.3,3.2-6.6,4.9c1.6,0.4,3.2,0.6,4.8,1.1c1.3,0.3,2.5,0.7,3.7,1.3
				c1.6,0.8,1.6,2.6,0,3.4c-0.7,0.4-1.6,0.7-2.4,0.8c-1.8,0.2-3.7,0.3-5.5,0.3c-2.1,0-3.8-1.5-5.6-2.3c-2.7-1.3-5.4-2.7-8-4.3
				c-3-1.8-5.8-3.8-8.8-5.8c-0.5-0.4-1.1-0.6-1.6-1.1c-0.4-0.4-0.8-1-0.7-1.4c0.1-0.4,0.7-1,1.1-1.1c1.5-0.2,3-0.2,4.6-0.2
				c0.4,0,0.9,0.2,1.3,0.3c0.3-0.6,0.6-1.2,0.8-1.8c0.7-2.1,2.4-3.2,4.5-3.3c2.8-0.1,5.6-0.1,8.3-0.1c0.2,0,0.4,0.1,0.6,0.1
				c1,0.3,2.1,0.5,2.3,1.7c0.2,1.4,0.4,2.9-1.2,3.9c-1.6,1-3,2.4-4.6,3.5C122.8,116.8,122,117,121.3,117.4z"/>
			<path class="st0" d="M87.8,120.8c-2.8-0.9-5.2-2.3-7.3-4.1c-0.4-0.4-1-1.1-0.9-1.5c0.2-0.6,0.8-1.2,1.4-1.3
				c2.9-0.9,5.8-0.3,8.6,0.9c1.4,0.6,1.4,0.6,2-0.7c0.7-1.4,1.3-2.8,2-4.3c-2.4-0.1-4.6-0.2-6.8-0.3c-0.7,0-1.4-0.1-2-0.4
				c-0.5-0.3-1-1-1.1-1.6c-0.1-0.3,0.7-1,1.2-1.1c2.5-0.5,5-0.9,7.5-1.1c2.7-0.2,5.5-0.2,8.2-0.1c2.2,0.1,3.4,1.4,3.1,3.6
				c-0.3,2-0.8,4.1-1.6,5.9c-1.4,3.2-3,6.3-4.6,9.4c-0.7,1.5-1.6,2.8-2.4,4.3c-0.8,1.4-2.1,2.1-3.6,2.1c-1.8,0-3.7-0.1-5.4-0.4
				c-2-0.4-2.6-1.8-1.6-3.6C85.6,124.5,86.7,122.7,87.8,120.8z"/>
			<path class="st0" d="M64.2,107c0.9,0.1,1.8,0.1,2.7,0.2c2.4,0.3,3.1,1.4,2.8,3.8c-0.3,2.4-1.3,4.5-2.8,6.3
				c-0.7,0.8-1.9,1.4-3,1.6c-1.2,0.3-2.5,0.2-3.8,0.1c-1.5,0-3-0.1-4.5-0.3c-1.1-0.2-2.3-0.6-2.5-1.8c-0.3-1.5-0.2-2.9,1.3-4
				c1.3-1,2.3-2.2,3.4-3.4C59.3,107.6,61.5,106.6,64.2,107z"/>
			<path class="st0" d="M129.7,190.4c0-1.1,0-2.1,0-3.2c0-0.4-0.3-0.9-0.6-1c-0.3-0.1-0.9,0.1-1.2,0.3c-0.9,0.7-1.3,1.5-1.1,2.8
				c0.3,2.3,0.4,4.7,0.6,7c0.1,1.1-0.6,1.8-1.6,1.9c-1.4,0.1-2.9,0.1-4.4,0c-1-0.1-1.7-0.8-1.7-1.9c-0.1-2.9,0.2-5.7,1.2-8.5
				c0.3-0.9,1-1.1,1.8-1.3c0.5-0.1,1-0.5,1.5-0.7c1-0.5,2-1.2,3-1.5c1.1-0.3,2.4-0.1,3.5,0c1.2,0.1,2.2,0.8,2.6,2
				c0.8,2.4,1.5,4.8,2.1,7.3c0.1,0.3-0.3,1-0.7,1.1c-1.5,0.7-3,0.7-4.4-0.1c-0.4-0.2-0.7-0.8-0.7-1.3
				C129.6,192.3,129.7,191.3,129.7,190.4C129.7,190.4,129.7,190.4,129.7,190.4z"/>
			<path class="st0" d="M102.2,195.7c-1.1-0.1-2.1-0.1-3.1-0.3c-1.8-0.4-3.1-2-2.8-3.6c0.4-2.2,1.3-3.8,3.7-3.7c0.4,0,0.8,0,1.4,0.1
				c0-0.4,0-0.7,0-1.1c0-1.9-0.1-1.9-2-2c-0.7,0-1.4-0.2-1.9-0.5c-0.8-0.4-0.8-1.3,0-1.8c1.5-1.1,5.9-1.4,7.4-0.3
				c0.6,0.4,1.1,1,1.4,1.6c1.2,3.5,2.5,7.1,3.5,10.7c0.5,1.9-0.3,2.8-2.4,2.8c-1,0-1.9-0.1-2.9-0.2
				C103.5,197.2,102.5,196.8,102.2,195.7z M103,191.5c0-1.1-0.5-1.7-1.5-1.7c-0.9,0-1.4,0.6-1.5,1.6c0,1,0.5,1.8,1.3,1.8
				C102.2,193.2,103,192.4,103,191.5z"/>
			<path class="st0" d="M59.8,136.7c-0.8-0.2-1.8-0.3-2.8-0.6c-1-0.3-2-0.9-1.9-2c0.1-0.8,0.6-1.9,1.2-2.4c0.9-0.7,2.2-1.1,3.3-1.3
				c3.1-0.6,6.2-1.1,9.3-1.4c1.9-0.2,3.9-0.1,5.9,0.1c1.5,0.1,2.1,1.3,1.2,2.4c-0.7,0.9-1.7,1.8-2.7,2.3c-3.5,1.9-7.3,2.6-11.2,2.6
				C61.4,136.5,60.8,136.6,59.8,136.7z"/>
			<path class="st0" d="M86.8,188.2c-1.1-0.5-2.1-0.8-2.9-1.3c-0.4-0.3-0.8-1.1-0.7-1.5c0.1-0.4,0.8-0.8,1.3-1
				c0.9-0.2,1.8-0.2,2.6-0.2c0.6-2.7,0.6-2.7,3-2.6c1.2,0.1,1.3,0.3,1.5,2.5c0.8,0.1,1.6,0.2,2.4,0.4c0.7,0.2,1.4,0.5,1.5,1.4
				c0.1,0.9-0.5,1.4-1.2,1.6c-0.7,0.2-1.4,0.4-2.4,0.7c0.3,1.6,0.5,3.3,0.8,5.1c0.6-0.2,1-0.4,1.5-0.4c1.3-0.1,1.9,0.5,1.9,1.7
				c0,1.5-1.4,3-2.9,3.1c-0.4,0-0.8,0-1.2,0c-3.3,0-3.9-0.5-4.6-3.8c-0.2-1-0.3-2-0.4-3C86.8,190,86.8,189,86.8,188.2z"/>
			<path class="st0" d="M60.5,189.4c0.1,0.6,0.1,1.2,0.3,1.8c0.1,0.4,0.6,1.1,0.8,1c0.5-0.1,1-0.4,1.3-0.9c0.3-0.5,0.4-1.1,0.4-1.7
				c0.1-0.5,0-1-0.1-1.5c0-1.2,0.4-1.9,1.3-2c1.5-0.1,2,0.2,2.3,1.6c0.2,1.1,0.4,2.3,0.9,3.3c0.4,1,1.2,1.8,1.8,2.7
				c0.2,0.4,0.6,0.8,0.5,1.2c-0.1,0.3-0.6,0.8-1,0.8c-1,0.1-2,0-3,0c-0.3,0-0.8,0-0.9,0.2c-0.5,0.9-1.2,1.2-2.1,1.2
				c-1.1,0.1-2.3,0.2-3.4,0.1c-2.1-0.2-3.3-1.4-3.6-3.5c-0.2-1.2-0.2-2.4-0.2-3.6c0-2.2,2.4-3.6,4.4-2.6c0.2,0.1,0.3,0.4,0.4,0.7
				C60.6,188.6,60.6,189,60.5,189.4C60.6,189.4,60.6,189.4,60.5,189.4z"/>
			<path class="st0" d="M77.7,187.1c-1.5,1.5-2.5,2.9-1.9,4.9c0.2,0.9,0.3,1.8,0.4,2.7c0.1,1.2-0.4,1.8-1.6,1.9c-0.3,0-0.6,0-0.9,0
				c-2.4-0.1-2.9-0.5-3.2-2.8c-0.2-1.5-0.3-3.1-0.3-4.6c0-2.5,1.2-3.4,3.7-3.1c0.4,0.1,0.9-0.1,1.4-0.2c2.8-0.9,4.9-0.9,6.3,1.8
				c0.9,1.8,1.5,3.7,1.5,5.7c0,0.8-0.3,1.3-1,1.4c-1.1,0.1-2.2,0.2-3.3,0c-0.9-0.1-1-0.9-1-1.7c0-1.5,0.1-3.1,0.1-4.6
				C78,188.2,77.9,187.8,77.7,187.1z"/>
			<path class="st0" d="M76.6,119.8c0.1,1.8-1.5,3.2-3,4.6c-1.7,1.5-3.7,2.3-6.1,1.9c-0.8-0.2-1.6,0-2.4-0.2
				c-0.6-0.1-1.3-0.4-1.8-0.7c-1.4-1-1.3-2.4,0.2-3.3c1.8-1.1,3.6-2.1,5.3-3.4c1.9-1.4,4-1.4,6.2-1.3
				C76.3,117.4,76.6,117.9,76.6,119.8z"/>
			<path class="st0" d="M49.3,195.7c-3.2,0-4.8-1.7-4.6-4.9c0.1-1,0.2-2.1,0.6-3c0.5-1.4,1.9-2.1,3.3-2c1.1,0.1,2.2,0.2,3.2,0.6
				c1.6,0.5,2.3,1.8,2.4,3.4c0.1,1,0,2-0.3,2.9C53.2,195.1,52.2,195.7,49.3,195.7z M51.3,190.2c-0.2-0.7-0.2-1.3-0.5-1.7
				c-0.3-0.4-1-0.6-1.5-0.6c-0.3,0-0.9,0.7-0.9,1c0.1,1.4,0.4,2.7,0.8,4c0.2,0.6,0.8,0.7,1.1,0C50.7,192,51,191.1,51.3,190.2z"/>
			<path class="st0" d="M117.2,191.7c-0.1,1.1-0.2,2-0.3,2.9c-0.1,0.9-0.6,1.5-1.5,1.7c-0.7,0.1-1.3,0.2-2,0.2c-1,0-1.8-0.5-2.1-1.4
				c-0.6-2.3-1.2-4.6-1.7-6.9c-0.2-0.8,0.4-1.5,1.2-1.5c1.6,0,3.2,0,4.8,0.2c0.4,0.1,1,0.8,1.1,1.3
				C117.1,189.4,117.1,190.6,117.2,191.7z"/>
			<path class="st0" d="M113.9,179.9c0.5,0,1.1,0,1.6,0.1c1.9,0.3,2.6,1.8,1.3,3.6c-0.9,1.3-2.9,1.7-4.6,1c-0.6-0.2-1.2-0.6-1.7-0.8
				c-1.2-0.5-1.4-1.5-1.2-2.4c0.1-0.5,1-0.9,1.6-1.1C111.8,180,112.9,179.9,113.9,179.9C113.9,179.8,113.9,179.8,113.9,179.9z"/>
		</g>
	</g>
	<g>
		
			<image style="overflow:visible;enable-background:new    ;" width="335" height="390" id="bag-l_1_" xlink:href="1C3202AFABCBCE35.png"  transform="matrix(0.1864 5.833133e-02 -5.833133e-02 0.1864 -193.723 129.2166)">
		</image>
		
			<image style="overflow:visible;enable-background:new    ;" width="244" height="201" id="cup-l_1_" xlink:href="1C3202AFABCBCE37.png"  transform="matrix(0.1634 -4.636646e-02 4.636646e-02 0.1634 -74.8204 99.6954)">
		</image>
		
			<image style="overflow:visible;enable-background:new    ;" width="237" height="173" id="camera-l_1_" xlink:href="1C3202AFABCBCE32.png"  transform="matrix(0.2325 -8.384173e-02 8.384173e-02 0.2325 -109.0522 229.836)">
		</image>
		
			<image style="overflow:visible;enable-background:new    ;" width="301" height="160" id="handlight-l_1_" xlink:href="1C3202AFABCBCE33.png"  transform="matrix(-0.1628 -0.1419 0.1419 -0.1628 303.135 178.101)">
		</image>
		
			<image style="overflow:visible;enable-background:new    ;" width="122" height="202" id="lock-l_1_" xlink:href="1C3202AFABCBCE3D.png"  transform="matrix(0.2014 0.1064 -0.1064 0.2014 70.5833 6.2873)">
		</image>
		
			<image style="overflow:visible;enable-background:new    ;" width="263" height="242" id="shoe-l_1_" xlink:href="1C3202AFABCBCE3F.png"  transform="matrix(-0.1623 0.1078 0.1193 0.1795 344.1544 12.6102)">
		</image>
		
			<image style="overflow:visible;enable-background:new    ;" width="280" height="239" id="sock-l_1_" xlink:href="1C3202AFABCBCE30.png"  transform="matrix(0.1827 -4.410580e-02 4.410580e-02 0.1827 -174.2487 19.4536)">
		</image>
		
			<image style="overflow:visible;enable-background:new    ;" width="921" height="581" id="camp-l_1_" xlink:href="1C3202AFABCBCE31.png"  transform="matrix(0.1026 0 0 0.1026 278.4854 221.458)">
		</image>
		
			<image style="overflow:visible;enable-background:new    ;" width="267" height="223" id="box-l_1_" xlink:href="1C3202AFABCBCE36.png"  transform="matrix(0.1691 5.506781e-02 -5.506781e-02 0.1691 187.6389 22.2994)">
		</image>
		
			<image style="overflow:visible;enable-background:new    ;" width="640" height="813" id="cloth-l_1_" xlink:href="133A6363D474CDBE.png"  transform="matrix(9.100485e-02 1.026601e-04 -1.026601e-04 9.100485e-02 175.4423 152.4774)">
		</image>
		
			<image style="overflow:visible;enable-background:new    ;" width="157" height="379" id="bottle-l_1_" xlink:href="133A6363D474CDB9.png"  transform="matrix(0.1509 -8.535383e-02 8.535383e-02 0.1509 41.4256 229.3718)">
		</image>
	</g>
</g>
</svg>
