<?xml version="1.0" encoding="utf-8"?>
<!-- Generator: Adobe Illustrator 24.2.3, SVG Export Plug-In . SVG Version: 6.00 Build 0)  -->
<svg version="1.1" id="圖層_1" xmlns="http://www.w3.org/2000/svg" xmlns:xlink="http://www.w3.org/1999/xlink" x="0px" y="0px"
	 viewBox="0 0 1009.5 214.3" style="enable-background:new 0 0 1009.5 214.3;" xml:space="preserve">
<image style="overflow:visible;enable-background:new    ;" width="336" height="437" id="圖層_19_3_" xlink:href="55745B9B95233C32.png"  transform="matrix(0.2206 0 0 0.2056 134.5179 101.7447)">
</image>
<image style="overflow:visible;enable-background:new    ;" width="332" height="437" id="圖層_19_1_" xlink:href="55745B9B95233C36.png"  transform="matrix(0.2216 0 0 0.2065 527.1973 101.5459)">
</image>
<image style="overflow:visible;enable-background:new    ;" width="200" height="558" id="圖層_3_1_" xlink:href="55745B9B95233C31.png"  transform="matrix(0.152 0 0 0.152 25.5774 108.0467)">
</image>
<image style="overflow:visible;enable-background:new    ;" width="200" height="558" id="圖層_3_2_" xlink:href="55745B9B95233C33.png"  transform="matrix(0.152 0 0 0.152 810.378 108.0467)">
</image>
<image style="overflow:visible;enable-background:new    ;" width="283" height="664" id="圖層_14_1_" xlink:href="55745B9B95233C30.png"  transform="matrix(0.1866 0 0 0.1639 406.7769 83.1189)">
</image>
<image style="overflow:visible;enable-background:new    ;" width="283" height="664" id="圖層_14_2_" xlink:href="55745B9B95233C3E.png"  transform="matrix(0.1866 0 0 0.1639 929.9772 83.1189)">
</image>
<image style="overflow:visible;enable-background:new    ;" width="264" height="693" id="圖層_19_4_" xlink:href="55745B9B95233C35.png"  transform="matrix(0.1503 0 0 0.1503 282.5432 88.6645)">
</image>
<image style="overflow:visible;enable-background:new    ;" width="264" height="693" id="圖層_19_2_" xlink:href="55745B9B95233C37.png"  transform="matrix(0.1503 0 0 0.1503 674.9435 88.6645)">
</image>
</svg>
