<svg xmlns="http://www.w3.org/2000/svg" viewBox="0 0 240.59 189.71"><defs><style>.cls-1{fill:#5b8066;}</style></defs><title>資產 6</title><g id="圖層_2" data-name="圖層 2"><g id="圖層_1-2" data-name="圖層 1"><path class="cls-1" d="M28.05,21.43c-3.91,0-7.79,0-11.68,0A4.42,4.42,0,0,1,15,21.13c-1.48-.5-3.1-.93-3.38-2.79a4.91,4.91,0,0,1,2.26-5.07A88.45,88.45,0,0,1,29.61,4.76,54.56,54.56,0,0,1,46.92.14,116.74,116.74,0,0,1,61.87.48,10.12,10.12,0,0,1,65.65,1.8c2,1,3.42,2.44,3.22,4.92-.21,2.68-1.12,4.93-3.89,5.81-4.3,1.37-8.6,2.75-13,3.89s-8.93,2-13.37,3.11a1.72,1.72,0,0,0-1,1.36c.39,3.66.91,7.31,1.42,11.18A35.26,35.26,0,0,1,57,28.87a17.41,17.41,0,0,1,3.58.61c1.19.34,2.23.88,2.3,2.44s-.26,2.72-1.73,3.32c-2.8,1.15-5.58,2.37-8.45,3.33-4.2,1.4-8.48,2.6-12.85,3.92l.27,2.87c4.6-.42,9.08-.88,13.56-1.21a9.3,9.3,0,0,1,3.39.46,2.22,2.22,0,0,1,1.35,1.46,2.07,2.07,0,0,1-1,1.7,69.13,69.13,0,0,1-8.29,2.47c-2.94.63-6,.89-8.92,1.3.14,2,.26,3.68.41,5.71,1.45-.24,2.87-.48,4.29-.7,5.39-.86,10.76-2.06,16.18-2.44a71.36,71.36,0,0,1,13.29.67c5.29.62,7.51,4.22,5.75,9.24-.45,1.26-2,2.34-3.27,3.06-4.09,2.31-8.74,2.67-13.27,3.38q-9.07,1.42-18.16,2.81a1.8,1.8,0,0,1-.6.1c-2.37-.32-3.75.81-4.63,2.93a23.31,23.31,0,0,1-2,3.1c3.91-.75,7.39-1.52,10.91-2a27.68,27.68,0,0,1,7.19-.44c3.28.39,4.37,3.26,5.33,6,.6,1.7,1.07,3.45,1.5,5.2.69,2.77-.56,4.9-3.38,5a25.82,25.82,0,0,1-8-.75c-1.3-.36-2.2-2.15-3.21-3.22-5.43.18-11.15.48-16.86.51a28,28,0,0,1-6.79-1C21.74,88,20.92,85.93,21.86,82c.54-2.27,1.19-4.51,1.78-6.68-4.28.19-8.65.49-13,.51a8.93,8.93,0,0,1-4.15-1.2C5,73.81,5.13,72,6.33,70.84c4.28-4.24,9.64-6.29,15.38-7.6,1.24-.28,2.46-.65,3.71-.94,3-.68,3-1.1,2.84-4.11-.24-5.72-.1-11.46-.13-17.18,0-4.06-.06-8.12-.08-12.18C28,26.41,28.05,24,28.05,21.43Z"/><path class="cls-1" d="M87.16,131.3c0,3.58-.11,6.93.09,10.26a2.67,2.67,0,0,0,2,1.7c6.4,0,12.89.4,19-2.25a3.52,3.52,0,0,0,1.71-2.08c.84-2.91,2.24-5.86,5-6.62,2.45-.67,5.38.26,8.06.74,1,.17,1.82,1.13,2.8,1.59,3,1.47,3.64,4.19,3.61,7.13a6.46,6.46,0,0,1-4.11,6.24c-5.88,2.42-11.88,4.43-18.41,4.28-6-.14-12.05.11-18.07-.12A50,50,0,0,1,79,150.71c-5.44-1.34-6.9-4.4-7.24-9.38-.2-2.9-.06-5.82-.09-8.73a3.16,3.16,0,0,0-.27-.67c-1.61,0-3.36.12-5.09,0-3.82-.31-7.66-.64-11.45-1.23a3.78,3.78,0,0,1-2.54-2c-.54-1.57,1-2.33,2.2-2.6,4.47-1,9-1.77,13.47-2.64s4.13.38,4.52-4.82c.11-1.4,0-2.82,0-4.51-5.62,0-11.2.07-16.77,0a35.81,35.81,0,0,1-6.61-.76,3,3,0,0,1-2-1.82,2.83,2.83,0,0,1,1.47-2.27A39.83,39.83,0,0,1,57,106.37c5.32-.87,10.73-1.25,16.29-1.86.14-2.48.28-5,.42-7.47-2.1-.29-4.16-.54-6.21-.86-1.37-.21-2.7-.57-3-2.21a3.28,3.28,0,0,1,2-3.83A27.6,27.6,0,0,1,73,87.7a45.58,45.58,0,0,1,17.34.35,10.69,10.69,0,0,1,2.11.71,4.11,4.11,0,0,1,2.78,4.07A3.78,3.78,0,0,1,92,96.45c-1.88.45-3.83.61-5.9.92l-.33,6.37h5.86c2.76,0,5.54,0,8.3.1,1.8.11,3.64.64,3.88,2.84s-1.21,3.49-3,4c-4.25,1.2-8.57,2.15-12.94,3.22v5.42c3.89,0,7.53-.1,11.16,0a88.73,88.73,0,0,1,9,.84,3.61,3.61,0,0,1,3.39,3c.31,1.82-.53,3-2,4.08-3.12,2.19-6.78,2.12-10.3,2.61C95.22,130.45,91.33,130.82,87.16,131.3Z"/><path class="cls-1" d="M39.73,165.62c1.94-3.53,3.75-6.52,5.25-9.66,1-2,2.52-2,4.23-2s2.44,1.17,2.75,2.72c1.78,9,3.6,18,5.33,27,.33,1.73.6,4-1.36,4.66a10.7,10.7,0,0,1-5.63-.16c-.74-.19-1.48-1.72-1.65-2.73-.87-5.19-1.56-10.4-2.33-15.74-.29.31-.74.6-.92,1-1.88,4.24-4.86,8-5.52,12.77-.27,1.9-2.08,2.8-4.63,2.65a2.81,2.81,0,0,1-2.89-3c-.41-6.48-.8-12.95-1.24-19.43s-.89-13-1.4-19.43c-.45-5.86-1-11.72-1.48-17.58-.1-1.21-.29-2.41-.52-4.22-.67,1.52-1.23,2.53-1.58,3.6-1.9,5.84-4,11.65-5.57,17.57A286,286,0,0,1,6.13,183.23c-.84,1.92-3.3,3-5,1.86A3.32,3.32,0,0,1,0,182.24c1.56-6.49,3.16-13,5.06-19.38,2.55-8.6,5.19-17.19,8.14-25.67,2.7-7.77,5.85-15.39,8.8-23.07,1.12-2.9,2.19-5.82,3.37-8.69a4.79,4.79,0,0,1,5.82-2.6A3.59,3.59,0,0,1,33,105.2c1.2,7.26,2.52,14.51,3.29,21.83,1.19,11.29,2,22.62,2.94,33.94C39.36,162.31,39.53,163.65,39.73,165.62Z"/><path class="cls-1" d="M162,82.34c-6.67-.15-13.41.53-19.94-1.54-3.29-1-4.38-3.19-3.21-6.41A3.21,3.21,0,0,1,140,72.85a45.2,45.2,0,0,1,5.66-3.11c4.78-2,9.55-4.15,14.48-5.78,6.24-2.07,12.47-4.47,19.14-4.77,8.7-.4,17.42-.79,26.13-.66,3.48,0,7,1.26,10.38,2.36,3.17,1,4.47,3.59,4.49,7a6.21,6.21,0,0,1-4.51,6.48,92.16,92.16,0,0,1-11.07,3c-5.81,1.16-11.7,1.93-17.51,3.06A105.75,105.75,0,0,1,162,82.34Z"/><path class="cls-1" d="M184.09,118.5c-4.71-.37-9.42-.7-14.12-1.14a12,12,0,0,1-3.12-.87c-3.21-1.25-4.21-2.92-4.14-6.33a10.07,10.07,0,0,0-.6-3.08c-1-3.45-2-7-.89-10.51A8.24,8.24,0,0,1,164,93c4.35-3.5,9.71-4.33,15-5.63,7.61-1.88,15.25-1.82,23-1.83,5.15,0,8.63,2.43,11.6,6.45a17.37,17.37,0,0,1,3.63,12.25,11.7,11.7,0,0,1-2.43,6,17.74,17.74,0,0,1-9.3,5.74A84.56,84.56,0,0,1,184.09,118.5Zm8.16-23L175.31,98.9c.75,2.51,1.33,4.48,1.92,6.46,2.56.14,5,.15,7.41.42,3.36.39,5.7-1.23,7.61-3.66C193.91,100,193.05,97.82,192.25,95.54Z"/><path class="cls-1" d="M212.11,138.45c5.25.7,10.39,1.06,15.37,2.15,3.69.8,4.86,2.44,4.33,5.25-.19,1-.91,2.36-1.69,2.62a26.27,26.27,0,0,1-7.65,1.69c-13.8.28-27.61.32-41.42.47-5.34.06-10.69.27-16,.28-3.72,0-7.43-.21-11.15-.33a1.85,1.85,0,0,1-.41,0c-1.49-.32-3.37-.27-3.62-2.27s1.57-2.39,2.93-2.79c4.58-1.34,9.21-2.53,13.92-3.81-1.31-4.12-2.65-8.41-4-12.69-.87-2.69-.55-3.41,2.14-4.39,5-1.82,9.59-.28,12.85,4.42,1.19,1.71,2.21,3.55,3.24,5.36s1.91,3.53,2.87,5.3c2.06-4.15,4.06-8.38,6.24-12.52,1.41-2.68,4.05-3.57,6.84-3.65a74.64,74.64,0,0,1,9.92.32c3.33.37,4.69,2.25,4.82,5.62C211.68,132.55,211.93,135.64,212.11,138.45Z"/><path class="cls-1" d="M206.31,36.91l6.9,3.62c2.06-2.11,3.76-4.54,6.06-6.05,4.17-2.75,8.87-4.34,14-3.67.95.13,2.32.73,2.56,1.43a3.25,3.25,0,0,1-1.19,2.65c-4,3.13-8.1,6.09-12.44,9.31,3,.67,6.11,1.22,9.12,2a37.14,37.14,0,0,1,7,2.52c3,1.53,3,4.86,0,6.52a12.25,12.25,0,0,1-4.56,1.53,104.92,104.92,0,0,1-10.49.48c-4.05,0-7.11-2.76-10.55-4.36a160.93,160.93,0,0,1-15.18-8.08C191.92,41.44,186.51,37.62,181,34a17.64,17.64,0,0,1-3-2c-.68-.68-1.46-1.83-1.31-2.6a3.12,3.12,0,0,1,2.11-2,77.9,77.9,0,0,1,8.65-.35,11.45,11.45,0,0,1,2.5.51,34.19,34.19,0,0,0,1.56-3.36c1.39-4.05,4.46-6,8.44-6.19,5.23-.28,10.5-.11,15.75-.11a4.51,4.51,0,0,1,1.19.21c1.84.5,4,.95,4.31,3.14.37,2.66.82,5.45-2.19,7.4S213.3,33,210.35,35.1A22.35,22.35,0,0,1,206.31,36.91Z"/><path class="cls-1" d="M143,43.43a40.28,40.28,0,0,1-13.83-7.71c-.82-.71-1.87-2.13-1.64-2.86a4.53,4.53,0,0,1,2.69-2.54c5.57-1.69,11-.62,16.18,1.6,2.61,1.11,2.59,1.21,3.82-1.4s2.49-5.33,3.79-8.11c-4.56-.21-8.74-.35-12.91-.6a8.09,8.09,0,0,1-3.72-.79,5.21,5.21,0,0,1-2.12-3c-.1-.56,1.33-1.92,2.22-2.08a131.47,131.47,0,0,1,14.21-2.07,128.53,128.53,0,0,1,15.58-.12c4.21.2,6.39,2.6,5.87,6.79a42.43,42.43,0,0,1-3,11.23c-2.57,6-5.66,11.88-8.63,17.75-1.39,2.75-3,5.38-4.52,8.08a7.55,7.55,0,0,1-6.87,4,53.54,53.54,0,0,1-10.28-.8c-3.78-.7-4.84-3.42-2.95-6.82S140.9,47.05,143,43.43Z"/><path class="cls-1" d="M98.37,17.3c1.68.14,3.36.21,5,.44,4.62.66,5.86,2.61,5.31,7.26a22.71,22.71,0,0,1-5.33,12A11.08,11.08,0,0,1,97.65,40a28.4,28.4,0,0,1-7.21.24,84.87,84.87,0,0,1-8.59-.59c-2.1-.29-4.28-1.1-4.74-3.49-.55-2.83-.29-5.45,2.45-7.52a47,47,0,0,0,6.38-6.39C89.29,18.53,93.29,16.64,98.37,17.3Z"/><path class="cls-1" d="M222.22,174.89c0-2,.09-4.06-.05-6.08a2.53,2.53,0,0,0-1.08-1.93,2.76,2.76,0,0,0-2.19.58,5,5,0,0,0-2,5.22c.65,4.38.83,8.83,1.17,13.25a3.11,3.11,0,0,1-3,3.64,49.29,49.29,0,0,1-8.24-.08,3.49,3.49,0,0,1-3.3-3.53,40.45,40.45,0,0,1,2.32-16.06c.6-1.62,1.93-2.07,3.46-2.41a12.36,12.36,0,0,0,2.77-1.33c1.89-1,3.69-2.33,5.69-2.78a22.86,22.86,0,0,1,6.66,0,5.27,5.27,0,0,1,4.85,3.76c1.47,4.54,2.83,9.13,4,13.75A2.68,2.68,0,0,1,232,183a8.79,8.79,0,0,1-8.36-.23,3.53,3.53,0,0,1-1.36-2.45,47.31,47.31,0,0,1-.07-5.46Z"/><path class="cls-1" d="M170.3,185a56.23,56.23,0,0,1-5.78-.58c-3.49-.71-5.91-3.69-5.33-6.8.77-4.21,2.39-7.28,7-7l2.64.12c0-.76,0-1.41,0-2.06-.05-3.58-.22-3.68-3.71-3.8a8.94,8.94,0,0,1-3.66-.86c-1.52-.77-1.46-2.42-.09-3.47,2.82-2.15,11.11-2.6,14-.58A7,7,0,0,1,178,163c2.34,6.66,4.71,13.33,6.59,20.14,1,3.68-.62,5.28-4.46,5.32a35.65,35.65,0,0,1-5.46-.41C172.7,187.75,170.88,187.06,170.3,185Zm1.47-8c0-2.11-.9-3.16-2.76-3.2-1.7,0-2.72,1.07-2.75,3s1,3.4,2.38,3.46A3.17,3.17,0,0,0,171.77,177Z"/><path class="cls-1" d="M90.2,73.5c-1.45-.29-3.38-.58-5.26-1.08s-3.84-1.61-3.68-3.72a6.85,6.85,0,0,1,2.36-4.54,15.87,15.87,0,0,1,6.32-2.41c5.82-1.08,11.66-2.07,17.54-2.66a64.1,64.1,0,0,1,11.08.14c2.76.2,3.88,2.41,2.24,4.61a16.35,16.35,0,0,1-5.09,4.37c-6.57,3.61-13.74,4.93-21.2,4.9C93.24,73.11,92,73.33,90.2,73.5Z"/><path class="cls-1" d="M141.17,170.85a36.16,36.16,0,0,1-5.53-2.5,3.52,3.52,0,0,1-1.38-2.91c.14-.75,1.54-1.56,2.52-1.8a31.63,31.63,0,0,1,4.94-.46c1.17-5.14,1.17-5.14,5.76-4.88,2.22.13,2.44.48,2.81,4.73,1.48.23,3,.37,4.5.71s2.69.91,2.83,2.71-.92,2.59-2.35,3.08-2.71.78-4.49,1.29c.49,3.1,1,6.32,1.53,9.69a19.8,19.8,0,0,1,2.79-.76c2.37-.28,3.62.89,3.57,3.24a6.26,6.26,0,0,1-5.48,5.81c-.74,0-1.48,0-2.23,0-6.18,0-7.44-1-8.69-7.17a53,53,0,0,1-.81-5.61C141.28,174.23,141.25,172.41,141.17,170.85Z"/><path class="cls-1" d="M91.52,173.16a17.66,17.66,0,0,0,.49,3.37c.28.79,1.14,2,1.59,1.95a3.94,3.94,0,0,0,2.48-1.61,7.91,7.91,0,0,0,.8-3.25,19.18,19.18,0,0,0-.1-2.83c-.09-2.27.75-3.56,2.43-3.72,2.9-.27,3.76.39,4.28,3a29.42,29.42,0,0,0,1.64,6.21c.83,1.84,2.32,3.38,3.46,5.1.45.68,1.11,1.58,1,2.21a2.55,2.55,0,0,1-1.86,1.48c-1.86.15-3.75-.08-5.63-.09-.58,0-1.51.07-1.68.41a4.4,4.4,0,0,1-4,2.33,35.8,35.8,0,0,1-6.46.13c-4-.41-6.22-2.59-6.74-6.59a52.39,52.39,0,0,1-.43-6.85,5.69,5.69,0,0,1,8.23-5,2,2,0,0,1,.68,1.31,17.9,17.9,0,0,1,0,2.43Z"/><path class="cls-1" d="M124,168.8c-2.83,2.92-4.66,5.49-3.67,9.24a32.16,32.16,0,0,1,.77,5.19c.24,2.31-.72,3.38-3.06,3.57a12.52,12.52,0,0,1-1.62,0c-4.6-.27-5.41-.87-6-5.31a60,60,0,0,1-.48-8.68c.06-4.65,2.33-6.44,6.91-5.88a6.28,6.28,0,0,0,2.62-.38c5.25-1.69,9.28-1.72,12,3.5a24.69,24.69,0,0,1,2.9,10.84c0,1.45-.6,2.53-1.91,2.69a26.7,26.7,0,0,1-6.19.07c-1.77-.2-2-1.76-1.91-3.29.09-2.9.17-5.81.18-8.71A18.14,18.14,0,0,0,124,168.8Z"/><path class="cls-1" d="M121.84,41.42c.16,3.48-2.81,6.11-5.62,8.66-3.22,2.93-7,4.43-11.52,3.51-1.5-.31-3.11-.06-4.62-.34a8.31,8.31,0,0,1-3.32-1.37c-2.66-1.93-2.37-4.6.45-6.29,3.4-2,6.83-4.05,10-6.37,3.62-2.6,7.63-2.73,11.72-2.4C121.36,37,121.91,38,121.84,41.42Z"/><path class="cls-1" d="M70.26,185c-6.11,0-9.11-3.15-8.65-9.25a20.68,20.68,0,0,1,1.13-5.69,6.09,6.09,0,0,1,6.3-3.82,29.83,29.83,0,0,1,6.11,1.06c3,.93,4.31,3.46,4.56,6.35a15.17,15.17,0,0,1-.61,5.56C77.71,183.91,75.84,185,70.26,185Zm3.82-10.43c-.39-1.32-.42-2.51-1-3.16a3.86,3.86,0,0,0-2.77-1.15c-.63,0-1.74,1.27-1.67,1.86a44.88,44.88,0,0,0,1.46,7.63c.34,1.17,1.55,1.24,2.09,0C73,178.08,73.5,176.22,74.08,174.59Z"/><path class="cls-1" d="M198.71,177.39c-.18,2.07-.33,3.81-.49,5.56a3.22,3.22,0,0,1-2.84,3.21,27.22,27.22,0,0,1-3.82.42,3.69,3.69,0,0,1-3.92-2.64c-1.22-4.33-2.29-8.71-3.18-13.12a2.34,2.34,0,0,1,2.29-2.82,56.45,56.45,0,0,1,9,.34c.84.11,1.92,1.53,2.15,2.52A53.47,53.47,0,0,1,198.71,177.39Z"/><path class="cls-1" d="M192.42,155.05c1,0,2,0,3,.17,3.58.49,4.87,3.31,2.4,6.8-1.72,2.43-5.4,3.14-8.71,2-1.14-.41-2.18-1-3.31-1.5a3.55,3.55,0,0,1-2.19-4.62c.27-.92,1.86-1.72,3-2.05a43.71,43.71,0,0,1,5.74-.91Z"/></g></g></svg>