<?xml version="1.0" encoding="utf-8"?>
<!-- Generator: Adobe Illustrator 24.2.3, SVG Export Plug-In . SVG Version: 6.00 Build 0)  -->
<svg version="1.1" id="圖層_1" xmlns="http://www.w3.org/2000/svg" xmlns:xlink="http://www.w3.org/1999/xlink" x="0px" y="0px"
	 viewBox="0 0 413.6 288" style="enable-background:new 0 0 413.6 288;" xml:space="preserve">
<style type="text/css">
	.st0{fill:#494233;stroke:#494233;stroke-miterlimit:10;}
	.st1{fill:#F0EFE8;}
	.st2{fill:#F5C641;stroke:#F5C641;stroke-miterlimit:10;}
	.st3{fill:#494233;}
	.st4{fill:#FFFFFF;}
	.st5{fill:#2C271F;}
	.st6{fill:none;stroke:#2C271F;stroke-linecap:round;stroke-linejoin:round;}
</style>
<g id="圖層_2_1_">
	<g id="圖層_1-2">
		<path class="st0" d="M232.2,53.2c-0.9-4.4,0.6-14.7,0.8-15.8c0.8-4.5,6.6-5.7,3.9-16.4c-0.7-2.8-1.9-6.6-4.8-7.9
			c-3.9-1.7-9.1-0.2-12.9,1c-3,1.2-6.2,2.1-9.4,2.7c-3.4,0.4-6.9,0.2-10.2-0.6c-5.9-1.2-12.1-2.9-18.1-2.4c-6.5,0.8-12.7,3-18.2,6.6
			c-1.2,0.8-2.5,1.5-3.9,2.1c-1.7,0.5-3.5,0.6-5.2,0.4c-2.5-0.2-4.9-1.2-7.5-1.2c-2.4,0.1-4.8,0.9-6.8,2.2c-1,0.6-1.9,1.5-2.5,2.5
			c-0.6,0.9-0.9,1.9-1.1,3c-0.3,0.8-0.4,1.7-0.4,2.5c0.4,2.1,1.4,4.1,2.9,5.6c2,2.2,4.4,3.9,6,6.3c1.8,2.6,2.4,5.8,3.2,8.9
			c0.2,1,0.6,2,1.2,2.8c0.5,0.5,1.1,0.9,1.8,1.1c4.2,1.7,9.3,1,13.3-0.8c3.4-1.5,8.1-2,11.1-4.3c2.7-2.1,5.6-4.1,8.3-6.4
			c0.5-0.4,1-0.8,1.5-1.1c3.7-1.6,9.6,1.4,12.1,4c1.3,1.3,2.2,3,3.6,4.1c1.3,0.9,2.7,1.6,4.2,1.9l4.4,1.4c0.9,0.3,1.8,0.6,2.8,0.7
			c1.3,0.2,2.6,0.2,3.9,0.1l10-0.3c2.1-0.1,4.4-0.2,5.9-1.6C232.2,53.9,232.2,53.5,232.2,53.2z"/>
		<path class="st1" d="M213.4,58.7c-1.8-0.1-3.6-0.4-5.3-1c-1.7-0.8-3.2-1.7-4.6-2.9l-7.5-5.8c-1.4-1.2-3-2.1-4.8-2.6
			c-3.9-0.6-7.1,2.7-10.1,5.3c-7.7,6.3-18,8.5-27.9,8.8c2.5,10.1,3.2,20.5,2,30.8c-0.1,0.4-0.1,0.7,0,1.1c0.3,0.9,1.5,1,2.4,1.1
			c5.2,0.6,9.5,4.1,14,6.8c7.5,4.5,16.1,7,24.9,7.2c3.4,0.2,6.9,0,10.2-0.7c2.7-0.7,5.4-0.5,7.9-1.7c2.2-1.1,4.2-2.5,6.1-4.2
			c5.1-4.4,9.7-9.3,13.7-14.7c0.9-1.3,2.5-3.2,2.3-4.9c-0.2-1.3-0.7-2.5-1.3-3.7c-1.2-3-2-6.2-2.3-9.5c-0.2-1.5-0.3-3.1-0.3-4.6
			c-0.1-1.1,0.4-3.5-0.2-4.4c-1-1.5-6.9-0.2-8.7-0.2C220.3,59.1,216.8,59,213.4,58.7z"/>
		<path class="st2" d="M240.3,116.9c-0.3,4.6-1.6,9.1-1.6,13.7c0.1,5.3-0.5,10.5-2,15.6c-1.6,5.5-3.7,10.9-5,16.5
			c-0.7,3-1.1,6.1-1.8,9.1c-2,8.2-6.3,15.7-11.1,22.7c-1.1,1.7-2.5,3.3-3.9,4.8c-7.4,6.8-17.1,7.5-25.1,1c-5.7-4.7-9.2-11.4-13-17.7
			c-1.8-2.8-3.4-5.7-4.7-8.7c-1.2-3.1-1.9-6.4-2.2-9.7c-0.1-2.1-1.4-4-2.2-5.9c-0.9-2-1.7-4.1-2.5-6.2c-1.6-4.2-2.9-8.4-4.1-12.8
			c-1.1-4.1-2-8.3-2.7-12.5c-0.3-2.1-0.6-4.1-0.9-6.2c-0.2-1.8-1-3.1-1.6-4.7c-0.5-2-0.9-4-1-6.1c-0.5-4.1-0.6-8.2-0.2-12.3
			c0-0.3,0.1-0.6,0.2-0.8c0.5-0.8,1.8-0.4,2.6,0.1c3.7,2.2,6.4,5.2,10.3,7.1c6.8,3.4,13.8,6.8,21.4,7.9c8.3,1,16.7-0.4,24.2-4.2
			c3.8-1.9,7.5-4.2,10.8-6.8c3-2.4,6.8-5.1,8.5-8.4c0.5-1,1.4-1.9,2.4-1.8c0.9,0.2,1.7,1,1.8,1.9c0.1,0.9,0.1,1.9-0.1,2.8
			c-0.5,6.1,2.7,11.7,3.3,17.6C240.5,114,240.5,115.5,240.3,116.9z"/>
		<path class="st0" d="M245.7,223.7c-0.4,5.6,0.4,11.4,0.3,17c0.1,3.7-0.2,7.4-1,11c-0.9,3.4-2,6.8-0.9,10.5c0.3,0.8,0.6,1.5,1,2.2
			l2.5,4.9c1,1.9,2.1,5.5,1.2,7.5c-0.7,1.5-2.4,2.2-4,2.8c-0.9,0.3-1.8,0.7-2.7,0.9c-3.7,0.8-7.6,0.5-11.1-0.9
			c-0.7-0.4-1.3-0.8-1.8-1.4c-1.6-1.5-2.8-3.4-3.5-5.5c-1-3.5,0.7-8.1,2-11.4c1.1-2.9,1.3-6.1,0.7-9.2c-0.6-2.4-1.4-4.6-1.8-7.1
			c-1-6.4-1.7-12.8-2.1-19.3c-0.4-5.9-1.4-11.5-2.3-17.4c-1.1-7.2,1.2-14.6,4.3-21.1c2.2-4.3,4.1-8.7,5.6-13.3
			c1.5-5.1,2.9-10.3,4.1-15.5c1-4.3,1.6-8.7,2.3-13c0.4-2,0.9-3.9,1.4-5.9c0.4-1.7,0.2-3.6,1.1-5.1c0.1-0.1,0.2-0.2,0.3-0.2
			c0.1,0,0.2,0.1,0.2,0.2c0.7,2.1,1,4.3,1.6,6.5c0.6,2.4,1.3,4.7,1.8,7.1c1,5.5,1.3,11.3,1.8,16.9c1.3,12.4,1.6,24.9,1.1,37.3
			c-0.3,7.1-1.3,14.1-1.9,21.2C245.7,223.4,245.7,223.6,245.7,223.7z"/>
		<path class="st0" d="M198.3,237.2c-0.4,0.4-0.9,0.7-1.4,1c-2-6-1.8-12.4-1.2-18.7c0.1-1.2,1.6-7.8,0.2-7.9c-2.1-0.1-2.8,4-3,5.4
			c-0.2,2.2-0.1,4.4,0.5,6.5c0.6,2.6,1,5.3,1.2,7.9c0.5,5.5,0.6,11,1.4,16.4c0.4,2.9,1.1,5.8,1.8,8.7c0.5,2.6,1.3,5.1,2.5,7.4
			c3,5.4,9.6,6.1,12.8,11.4c0.8,1.3,1.8,3.2,0.7,4.5c-0.6,0.6-1.4,1.1-2.2,1.4c-5.3,2.1-11.2,2.1-16.9,2.1c-3.7,0-7.8-0.2-10.3-2.8
			s-2-6.5-3-9.8c-1.2-4.2-3.6-8.4-5.8-12.2c-1-1.5-1.9-3.1-2.6-4.8c-0.8-2.1-1-4.4-1.8-6.5c-0.7-1.9-2.2-3-3.1-4.8
			c-2.2-4.6-3.2-9.9-3.9-14.9c-1.4-10.2-0.7-20.5-0.6-30.8c0.1-8.9-0.4-17.7-1-26.5c-0.1-0.9-0.2-1.9-1-2.3
			c-0.9-0.2-1.8,0.2-2.2,1.1c-0.4,0.9-0.6,1.8-0.6,2.8c-0.6,9.7,0.3,19.6,0.8,29.3c0.2,1.7,0,3.5-0.6,5.2c-1,1.8-2.4,3.2-4.2,4.1
			c-4.8,3-10.2,5-15.2,7.6c-5.5,2.7-10.6,5.9-15.5,9.6c-4.5,3.4-7.1,9-9.6,14c-3,5.9-6.7,12.1-12.9,14.6c-2.4,0.8-5,1.3-7.5,1.4
			c-5.9,0.6-12.1,1.1-17.3-1.6c-1.7-0.9-3.4-2.6-2.6-4.4c0.5-0.8,1.2-1.5,2-1.9c4.9-2.9,9.5-6.4,13.6-10.4c4.9-5,6.3-12.2,8.1-19
			c1.6-6.1,4-11.6,5.6-17.6c1.7-6.5,3.4-13,5.2-19.5c3.8-13.8,13.5-26.1,22.3-37.2c6.6-8.3,14.3-19.1,23.2-25.1
			c2.4,2.2,2.2,11.2,2.9,14.6c1,5,2.3,9.9,3.9,14.7c1.8,4.7,3.9,9.2,6.5,13.4c2.5,4.4,2.8,9.9,4.5,14.6c3.4,9.4,8.7,18.4,17,24.4
			c1.9,1.4,4.1,2.6,6.3,3.5c2.6,1,5.4,1.4,8.2,1.2c1.1,0,2.1-0.1,3.2-0.5c1.3-0.6,2.4-1.3,3.7-1.8c0.7-0.3,1.5-0.5,2.2-0.8
			c0.7-0.4,1.6-0.4,2.4-0.2c0.3,0.1,0.6,0.3,0.7,0.6c0.1,0.2,0.1,0.5,0.1,0.7c-0.2,2.3-0.7,4.6-1.5,6.8c-1.9,6.2-4.9,12-8.9,17.1
			c-1.3,1.7-2.6,3.2-4.1,4.7C200.5,235,199.4,236.3,198.3,237.2z"/>
		<path class="st0" d="M50.5,164.2c-0.9,0.4-1.9,0.9-2.8,1.4c-4.1,2.2-10.5,5.1-13.7,8.4c-3.1,1.8-6.1,3.8-8.8,6.1
			c-2.4,2.2-4.6,4.6-6.6,7.1c-4,4.6-7.9,9.3-10.8,14.6C3,210.3,1.2,220.1,1,229.9c-0.1,4.5,0.3,8.9-0.2,13.4
			c-0.5,4.7-0.6,10,0.8,14.5c1.8,5.7,3.4,11.7,5.8,17.3c1,2.6,2.4,4.9,4.3,6.9c1.7,1.7,4.2,3.2,6.7,3c1-0.2,1.9-0.6,2.9-1.1
			c1.3-0.4,2.4-1,3.4-1.9c2.9-2.6,4.2-6.7,3.3-10.5c-1.2-5.5-0.3-11.3,0.1-16.9c0.5-7,0.3-13.7,2.4-20.4c2.3-7.7,6.8-14.5,11.1-21.2
			l7.6-11.6c1.8-2.9,3.8-5.7,5.9-8.4c4.2-5.2,9.3-9.6,14.6-13.7c1.8-1.5,3.8-2.8,5.8-4c2.1-1.1,4.4-2,6.6-2.7l11.3-3.8
			c4.8-1.6,9.7-3.3,14.8-3.5c1.6-0.1,4.2,0.1,5.4-1.1c2.3-2.1-1.6-4.1-3.4-4.5c-2-0.5-4-0.9-6.1-1.2c-2.2-0.2-4.4-0.1-6.7-0.1
			c-5.8-0.1-11.5-1.1-17.2-0.8c-2.2,0.1-4.5,0.5-6.7,0.9l-12.6,2C57.3,161.4,53.8,162.6,50.5,164.2z"/>
		<path class="st3" d="M205.6,248.7c0.7,0.3,1.3,0.8,1.8,1.4c0.5,0.6,0.6,1.4,0.3,2.1c-0.2,0.4-0.6,0.7-1,0.9
			c-2,1.3-4.3,1.9-6.7,1.7c-0.1-1.7-2.9-9-1.7-10.1C199.2,243.9,204.4,248,205.6,248.7z"/>
		<path class="st4" d="M244.6,274.3c0.5-0.2,1-0.3,1.5-0.2c0.4,0.1,0.7,0.5,0.5,0.9c-0.1,0.3-0.3,0.5-0.6,0.6
			c-0.3,0.1-0.6,0.1-0.9,0.1h-0.7c-0.3,0-0.6,0-0.8-0.2c-0.2-0.3-0.2-0.7,0.1-0.9C244,274.5,244.3,274.3,244.6,274.3z"/>
		<path class="st4" d="M238.7,275.8c0.3-0.1,0.6,0.1,0.6,0.4c0,0,0,0,0,0c0.1,0.3,0,0.6-0.2,0.7c-0.2,0.2-0.5,0.3-0.7,0.4
			c-0.4,0.1-0.8,0.1-1.2,0c-0.1,0-0.2-0.1-0.3-0.1c-0.2-0.1-0.1-0.4,0-0.6c0.4-0.5,0.9-0.8,1.5-0.9"/>
		<path class="st4" d="M231.2,275.8c-0.2-0.1-0.4-0.2-0.5-0.4c-0.1-0.3,0.1-0.6,0.3-0.7c0.5-0.3,2.4-0.2,2.7,0.4
			C234.3,276.5,231.7,276,231.2,275.8z"/>
		<path class="st4" d="M228.6,271.9c0.1,0.2,0.4,0.4,0.4,0.7s-0.4,0.5-0.7,0.4c-0.4,0-0.7-0.2-1-0.4c-0.3-0.2-0.5-0.5-0.4-0.8
			c0.1-0.2,0.3-0.4,0.5-0.4c0.2,0,0.4,0,0.7,0c0.2,0,0.4,0.1,0.4,0.3"/>
		<path class="st4" d="M206.3,275.2c0.8-0.7,3.6-0.6,3.1,1c-0.2,0.6-1.1,0.8-1.7,0.8s-2.1,0.2-1.8-0.9
			C205.9,275.8,206.1,275.5,206.3,275.2z"/>
		<path class="st4" d="M200.5,277.9c0.6-0.3,1.4-0.4,2-0.1c0.6,0.3,0.5,1-0.1,1.2c-0.5,0.2-1,0.3-1.5,0.1c-0.4-0.2-0.7-0.7-0.5-1.1
			C200.4,278,200.4,277.9,200.5,277.9z"/>
		<path class="st4" d="M193.7,278.4c1.1-0.8,2.6-0.5,3.4,0.6c0.2,0.3,0.1,0.6-0.2,0.8c0,0,0,0,0,0c-0.1,0-0.2,0.1-0.3,0l-2.1,0.1
			c-0.3,0-0.6,0-0.8-0.1c-0.4-0.3-0.5-0.9-0.1-1.3C193.6,278.5,193.7,278.5,193.7,278.4z"/>
		<path class="st4" d="M187.5,277.4c0.5-1.1,2.9,0.2,2.4,0.9c-0.1,0.1-0.3,0.2-0.5,0.2c-0.4,0.1-0.9,0.1-1.3-0.1
			C187.6,278.3,187.4,277.8,187.5,277.4z"/>
		<path class="st4" d="M94,253.6c0-0.4,0.3-0.4,0.6-0.5c0.4-0.1,0.7-0.2,1.1-0.1c0.4,0,0.9,0,1.3,0.1c0.3,0,0.5,0.2,0.6,0.5
			c0,0.3-0.1,0.6-0.4,0.8c-0.3,0.1-0.6,0.2-0.9,0.2c-0.4,0-0.7,0-1.1,0C94.7,254.4,93.9,254.2,94,253.6z"/>
		<path class="st4" d="M86.3,253.4c-0.3-0.2-0.5-0.6-0.4-1c0-0.2,0.1-0.3,0.3-0.3c0.2-0.1,0.4-0.1,0.6-0.1c0.2,0,0.5,0,0.7,0
			c0.1,0,0.2,0,0.3,0.1c0.2,0.2,0.4,0.4,0.6,0.6c0.2,0.2,0.2,0.5,0,0.8c-0.2,0.2-0.5,0.3-0.7,0.3C87.1,253.8,86.7,253.7,86.3,253.4z
			"/>
		<path class="st4" d="M79.5,250.6c1.1-0.3,3.1,0.3,3.1,1.6c0,0.6-0.5,0.5-0.9,0.5c-0.9-0.1-1.7-0.5-2.3-1.2
			c-0.2-0.2-0.3-0.6-0.1-0.8C79.3,250.7,79.4,250.6,79.5,250.6z"/>
		<path class="st5" d="M190.5,233.5c-0.4,7.3,0.8,14.7,3.6,21.4c1.4,3.2,3.2,6.2,5.4,8.9c2.2,2.8,4.9,5.3,6.4,8.6l0.1-4.9
			c-8.1-7.4-12.3-17.7-16.3-27.7c-0.1-0.3-0.3,1.6-0.3,1.8c-0.1,1-0.1,2.1,0.2,3.1c3.5,9,8,17.6,13.5,25.6l0.1-4.9
			c-10.8-6-14-18.7-14.6-30.2l-0.4,3.5c1.3,6.7,4.3,12.9,7.3,19c2.7,5.4,5.6,10.9,10.2,14.9c0,0,0.3-2.3,0.3-2.5
			c0-0.6,0.2-2-0.3-2.5c-9-9.4-15.3-21-18.2-33.7c-0.2-1-0.4,0.8-0.4,0.9c-0.1,1.1-0.1,2.3,0.1,3.4c2.4,10.7,5.8,21,10.3,31l0.1-4.9
			c-4.4-3.6-8.2-7.7-11.4-12.3c-1.5-2.2-2.7-4.7-3.6-7.2c-1-2.4-1.5-5-1.5-7.6l-0.3,1.1c2.1,6.9,4.2,13.9,6.4,20.8
			c1.8,5.9,3.8,11.8,7.8,16.6l0.1-4.9c-7.4-8.4-12.3-18.5-17.4-28.4c-0.1-0.3-0.3,1.4-0.3,1.4c-0.1,1,0,2.1,0.1,3.1
			c1.1,7.3,3.2,14.5,6.3,21.2l0.1-4.8c-4.1-7.9-7.5-16.1-10.2-24.5l-0.1,4.8l10.3,21.9l0.1-4.8c-4-7-7.1-14.5-9.3-22.3
			c-0.1-0.3-0.3,1.1-0.3,1.1c-0.1,1-0.1,2,0.1,3c0.5,5.1,2,10.9,5.6,14.7c0.6,0.6,1.9,1.9,2.8,1.1c0.4-0.4,0.6-0.9,0.6-1.5
			c0.2-1.6,0.3-3.2,0.1-4.8l-0.3,3.7c1.5,3.3,4.5,5.9,7,8.4c2.7,2.6,5.6,5,8.3,7.8c0,0,0.3-2.1,0.3-2.2c0-0.7,0.2-2.1-0.2-2.7
			c-3.9-6.4-7.9-12.8-10.2-20c-1.8-5.8-3.1-11.9-5.9-17.4c-0.1-0.3-0.3,1.4-0.3,1.4c-0.1,1-0.1,2.1,0.1,3.1
			c1.9,7.7,3.6,15.4,5.1,23.2c0.6,2.9,1.2,6.2,1.6,9c0,0.2,0,0.4,0.1,0.7s0,0.3,0,0.4c0,0,0-0.5,0-0.2c0,0.3,0-0.3,0-0.3
			c0-0.7,0.4-1.8,0.1-2.3c-0.1-0.1,0-0.2,0-0.2c-0.2-0.2-0.5-0.4-0.8-0.6c-0.5-0.4-1-0.8-1.4-1.2c-0.9-0.8-1.7-1.6-2.5-2.6
			c-0.4-0.6-0.8-1.2-1.1-1.8c-0.6-1.2-0.4,4-0.1,4c0.1,0,0.2-0.1,0.4,0c1.6,0.6,2.8,2.6,3.8,3.9c0.2,0.3,0.3-1.6,0.3-1.8
			c0-0.8,0.2-2.3-0.2-3.1c-5.6-9.8-13.8-18.3-17.2-29.2c-0.1-0.3-0.3,1.4-0.3,1.4c-0.1,1-0.1,2.1,0.1,3.1c1.5,5.8,4.1,11.2,7.7,16
			c0.2,0.3,0.3-1.7,0.3-1.8c0.2-5.6,0-11.2-0.6-16.8c-0.1-1.4-0.4-0.1-0.4,0.5c-0.7,9.8,1,19.7,6.2,28.1l0.1-4.9
			c-4.8-5.4-9.6-10.9-12-17.8c-0.1-0.3-0.2,0.3-0.2,0.2c-0.1,0.5-0.2,1-0.1,1.5c-0.1,3.2,0.4,6.4,1.6,9.4c1.1,2.8,2.4,5.6,3.7,8.3
			c2.8,5.7,5.6,11.4,8.4,17.1c0.1,0.3,0.3-0.8,0.3-0.9c0.3-4.5-0.8-8.9-3.3-12.7c-0.2-0.3-0.3,1.6-0.3,1.8c0,0.7-0.3,2.4,0.2,3.1
			s2,2.8,2.4,1.1c0.5-2.2,0.2-4.5-0.8-6.6c-0.2-0.3-0.3,1.6-0.3,1.7c-0.1,1-0.1,2.1,0.2,3.1c0.9,2.3,2.4,4.3,4.3,5.7
			c0.1-0.8,0.2-1.7,0.3-2.5c0-0.5,0.2-2.1-0.3-2.5c-1.9-1.4-3.4-3.3-4.2-5.5l-0.1,4.8c0.6,0.9,0.5,2,0.5-0.4l0.1-2.1
			c-0.1,0.5-1.9-1.7-1.9-1.6l-0.1,4.8c1.7,2.2,2.7,4.8,3,7.6l0.3-3.7l-7.3-14.8c-1.1-2.3-2.3-4.6-3.3-7c-0.5-1.2-1-2.4-1.5-3.6
			c-0.2-0.7-0.5-1.3-0.7-2c-0.1-0.3-0.2-0.7-0.3-1s-0.2-1.4-0.2-0.3l-0.3,1.8c2.4,7,7.3,12.6,12.1,18c0,0,0.3-2,0.3-2.2
			c0-0.7,0.2-2.1-0.2-2.7c-3.8-6.1-6.4-13.6-5.9-20.8l-0.4,0.5c0.4,4,0.6,8,0.4,12l0.3-1.7c-3.5-4.6-6.1-9.8-7.6-15.4l-0.2,4.6
			c3.4,10.9,11.6,19.4,17.2,29.2l0.1-4.8c-0.7-1-1.5-2-2.3-2.9c-0.4-0.4-1-1.1-1.6-1.2c-0.4-0.1-0.4,0-0.6,0.3
			c-0.2,0.8-0.3,1.6-0.2,2.5c0,0.8,0,1.6,0.1,2.4c0.3,1.6,1.7,3,2.8,4.1c0.5,0.5,1.1,1,1.6,1.5c0.2,0.2,1.4,1.4,1.7,1.4
			s0.3-0.2,0.3-0.5c0.3-1.8,0.3-3.7,0-5.5c-0.2-1.6-0.4-3.2-0.7-4.7c-0.8-4.5-1.8-9-2.7-13.5c-1.1-5.1-2.3-10.2-3.5-15.4l-0.2,4.6
			c2.8,5.5,4,11.6,5.9,17.4c2.3,7.2,6.3,13.6,10.2,20l0.1-4.9c-2.6-2.6-5.4-5-8-7.5c-2.6-2.5-5.6-5.1-7.1-8.4
			c-0.1-0.3-0.3,0.8-0.3,0.9c-0.1,0.9-0.1,1.8,0,2.8c0.1,0.8,0.2-1.9,0-1.8s0,0.2-0.1,0.2s-0.1,0.3-0.3,0.4
			c-0.3,0.2-0.6,0.2-0.9,0.1c-1.1-0.5-2-1.3-2.6-2.3c-2.5-3.6-4-7.9-4.4-12.3l-0.3,4.2c2.2,7.8,5.3,15.2,9.3,22.3
			c0.2,0.3,0.3-1.6,0.3-1.8c0.1-1,0.1-2.1-0.2-3.1l-10.3-21.9c-0.1-0.3-0.3,1.6-0.3,1.8c-0.1,1,0,2.1,0.2,3.1
			c2.7,8.5,6.1,16.7,10.2,24.5c0.2,0.3,0.3-1.6,0.3-1.7c0.1-1,0.1-2.1-0.2-3.1c-3-6.6-5.1-13.5-6.2-20.7l-0.2,4.6
			c5.1,10,10.1,20.1,17.6,28.6c0,0,0.3-2,0.3-2.2c0-0.6,0.2-2.2-0.2-2.8c-3.9-4.8-6-10.8-7.8-16.6c-2.1-6.9-4.2-13.8-6.4-20.8
			c-0.1-0.3-0.3,1.1-0.3,1.1c-0.7,6.9,0.8,13.8,4.1,19.9c3.2,5.8,7.9,10.5,12.9,14.8c0,0,0.3-2.1,0.3-2.2c0.1-0.9,0-1.9-0.2-2.8
			c-4.4-9.8-7.8-20-10.1-30.5l-0.3,4.3c2.9,12.9,9.3,24.8,18.5,34.4v-5c-4.6-4-7.4-9.4-10.1-14.8c-2.9-5.9-5.9-12-7.2-18.5
			c-0.1-0.7-0.3,0.1-0.3,0.4c-0.1,1-0.1,2,0,3c0.6,12.2,3.4,26.2,15,32.7c0.2-0.7,0.3-1.4,0.3-2.2c0-0.7,0.2-2.1-0.2-2.7
			c-5.5-8-10-16.6-13.5-25.6l-0.1,4.8c4.1,10,8.4,20.4,16.5,27.8c0,0,0.3-2.1,0.3-2.2c0.1-0.9,0.1-1.8-0.2-2.7
			c-1.4-2.7-3.2-5.1-5.3-7.3c-2.1-2.4-3.9-5.1-5.4-8c-2.7-5.3-4.6-11.5-4.3-17.5c0-0.5,0.3-2.8-0.2-3.1
			C190.6,231.5,190.5,233.3,190.5,233.5L190.5,233.5z"/>
		<path class="st5" d="M31.1,222.4c-6,5.1-6.6,14-7.3,21.3c-1,9.6-1.2,19.2-0.6,28.8l1-1.9c-1.9-12.5-1.3-25.2,2-37.4l-0.9-3
			c-1.5,12.3-3.3,24.6-5.5,36.8l0.9,0.5c-1.9-14.6-2.9-29.6,0.5-44.1l-0.8-3.5c-2.7,14.9-4,30-3.8,45.1l0.8-2.2
			c-5.2-14.6-4.6-30.7,1.7-44.9c1.8-4.2,4.1-8.2,6.8-12c0.4-1,0.6-2,0.4-3.1c0-0.2-0.3-2.2-0.7-1.8c-10.2,13.9-13.6,31.2-14.8,48
			c-0.4,5.2-0.6,10.4-0.7,15.6l1-0.6c-1.2-7.8-2.3-15.8-1.6-23.7s3.9-15.2,7.4-22.5l6.3-13.2l-0.6-4.3c-1.6,4.4-4.1,8.4-6.4,12.5
			c-2.3,4.1-4.2,8.4-5.8,12.9c-3.2,9-4.9,18.5-5,28l1.1-0.7c-0.6-16.6,4-33.2,12.2-47.6c0.4-1,0.5-2,0.4-3.1c0-0.2-0.3-2.2-0.7-1.8
			c-6.4,7.9-11,17.1-13.4,26.9c-2.5,10.4-3.2,22.1,0.8,32.2c2.2,5.6,5.6,10.7,9,15.7c0.4,0.5,0.6-1.4,0.6-1.5c0.1-1,0-2.1-0.2-3.1
			c-4.2-13.9-4.2-28.7-0.2-42.7l-0.8-2.2c-0.4,18.3-0.7,36.7,3.1,54.7c0.1,0.5,0.3,1,0.7,0.4c0.3-0.9,0.4-1.9,0.2-2.8
			c-1-17.7-2-35.4-0.7-53.1h-1c0.9,17.7,3.4,35.4,7.5,52.6c0.2,0.7,0.4,1,0.7,0.2c0.3-1,0.3-2.1,0.1-3.2c-1-9.1-3.8-18-4.1-27.2
			s3-18,7.2-25.9c0.4-1,0.5-2,0.4-3.1c0-0.2-0.4-2.2-0.7-1.8c-3.7,7.1-6.6,14.6-7.6,22.5c-1,8.3,0.2,16.5,1.7,24.7
			c0.8,4.4,1.7,8.8,2.2,13.2l0.9-3c-4-16.6-6.4-33.5-7.2-50.5c0-0.3,0-1.8-0.5-1.8s-0.5,1.6-0.5,1.8c-1.4,18.6-0.3,37.2,0.7,55.8
			l0.9-2.4c-3.6-16.8-3.2-34.1-2.8-51.1c0.1-0.7,0-1.5-0.3-2.2c-0.2-0.2-0.4-0.6-0.6,0c-4.8,16.8-4.8,34.6,0.2,51.4l0.4-4.6
			c-5.3-8-10.8-16.3-10.9-26.2c-0.1-8.9,2.3-17.8,6.2-25.8c2.3-4.7,5.1-9.1,8.4-13.2l-0.3-4.8c-9.2,16.4-13.7,35-12.9,53.8
			c0,0.4,0.1,1.9,0.6,1.8s0.5-2.2,0.5-2.4c0.2-8.7,2-17.3,5.1-25.4c1.6-4.1,3.5-8.1,5.7-12c2.2-3.7,4.2-7.6,5.9-11.6
			c0.3-1.1,0.4-2.3,0.2-3.4c0-0.4-0.3-1.8-0.8-0.9c-2,4.2-4,8.4-6,12.6c-2,3.9-3.7,7.9-5.2,12c-3,8.5-3.6,17.6-3.1,26.5
			c0.3,5.1,1,10.2,1.8,15.2c0,0.3,0.1,1.3,0.6,1.2s0.4-1.6,0.4-1.8c0.6-16.4,1.2-33.2,8-48.5c1.8-4.1,4.1-8,6.8-11.6l-0.3-4.8
			c-10.5,14.8-14.6,33.4-12.3,51.4c0.6,5,1.8,9.8,3.5,14.6c0.2,0.5,0.3,0.3,0.6,0c0.3-0.7,0.4-1.4,0.3-2.2
			c-0.2-13.9,1-27.9,3.5-41.6c0.2-1.2,0.2-2.4,0-3.5c-0.2-0.8-0.6-0.9-0.8,0c-3.8,16.5-2.8,33.5-0.7,50.2c0.1,0.7,0.6,2,0.9,0.5
			c2.2-12.6,4.1-25.2,5.6-37.8c0.2-1.1,0.2-2.2-0.1-3.2c-0.3-0.7-0.5-0.6-0.7,0.2c-3.7,14.2-4.5,29-2.2,43.5c0.1,0.4,0.2,1.6,0.7,1
			s0.4-2.3,0.3-3c-0.5-8.3-0.3-16.6,0.5-24.9c0.7-6.7,1.2-14.4,6.7-19c0.6-0.5,0.4-2.4,0.4-3.1C31.8,223.9,31.6,222,31.1,222.4
			L31.1,222.4z"/>
		<path class="st6" d="M229.7,19.3c-0.2,1.7-0.9,3.4-0.7,5.2s1.8,3.6,4.7,4.1c0.4,0.1,0.8,0.1,1.2,0c0.2-0.1,0.4-0.3,0.4-0.5
			c0.1-1-0.2-2-0.8-2.8c-1.4-2.5-3-4.8-4.9-7c-0.8,2.2-0.9,4.5-0.2,6.8c0.3,1.4,1.2,2.5,2.5,3.1c0.9-0.8,1.5-1.9,1.5-3.1
			c0.3-2.7,0.5-5.5,0.4-8.3c-0.2,1.4-0.3,2.7-0.2,4.1c0.1,2.2,0.6,4.6,3.5,6.1c-1.3-3.2-2.8-6.4-4.4-9.4c-0.6,2.1-0.7,4.4-0.3,6.6
			c0.2,1.5,1,2.9,2.3,3.7c0.2,0.1,0.3,0.2,0.5,0.2c0.3,0,0.6-0.2,0.6-0.5c0.7-3-1.1-6.2-4.9-8.4c-0.8,0.4-1.4,1.1-1.6,1.9
			c-0.5,1.4-0.7,2.9-0.6,4.5c0,0.8,0.7,1.4,1.4,1.3c0.5,0,1-0.2,1.4-0.5c1.4-1.1,1.4-2.6,1.1-4c-0.1-1.3-0.7-2.5-1.7-3.3
			c-0.4,2.5-0.1,5.1,1,7.5"/>
		<path class="st6" d="M145.8,36.4c0.3-1.6,1.2-3.1,1.2-4.7s-1.2-3.5-3.9-4.3c-0.4-0.1-0.8-0.2-1.2-0.1c-0.2,0.1-0.4,0.2-0.4,0.5
			c-0.2,0.9,0,1.8,0.4,2.7c1,2.4,2.3,4.8,3.7,7c1-1.9,1.3-4.1,1-6.2c-0.1-1.3-0.9-2.5-2-3.1c-0.9,0.6-1.6,1.6-1.8,2.7
			c-0.6,2.5-1,5-1.3,7.6c0.3-1.2,0.5-2.5,0.6-3.8c0.2-2,0-4.4-2.6-6c0.8,3.1,1.8,6.2,3.1,9.1c0.8-1.9,1.1-3.9,1-6
			c0-1.4-0.6-2.8-1.7-3.6c-0.1-0.1-0.3-0.2-0.5-0.2c-0.3,0-0.5,0.1-0.6,0.4c-1,2.7,0.4,5.8,3.6,8.2c0.8-0.2,1.4-0.8,1.7-1.6
			c0.6-1.3,0.9-2.6,1-4c0.1-0.7-0.4-1.3-1.1-1.4c0,0,0,0,0,0c-0.5,0-1,0.1-1.4,0.3c-1.2,0.8-1.7,2.2-1.5,3.6c0,1.2,0.4,2.3,1.2,3.2
			c0.7-2.3,0.6-4.7-0.1-7"/>
		<path class="st5" d="M243.4,268c-1.6-6-2.5-12.1-2.4-18.3c0-3.1,0-6.2,0-9.3c-0.1-3,0.4-6,1.4-8.8l-0.8-2.2v37.3l0.9-1.8
			c-2.3-9.2-3.7-18.6-4.1-28.1l-1.1,1.3l2.7,34.1l0.8-2.8c-4.2-9.8-8.6-20.7-7.4-31.6h-0.9c1.6,10.7,3.1,21.4,4.9,32.1l0.9-3
			c-2.2-9.9-3-20.1-2.4-30.2l-1.1-0.7c-0.1,8.5,0,17.1,0.2,25.6c0,0.4-0.1,2.2,0.4,2.4s0.6-0.8,0.6-1.1c1.2-7.4-1.2-14.5-2-21.8
			c-0.8-7-0.6-14,0.6-20.9l-0.9,0.5c1.2,6.9,1.9,13.8,2.2,20.8c0.3,6.6,0.5,13.6-1.2,20.1l0.7-0.4c-3.4-8.5-5.8-17.4-6.9-26.5
			l-0.9,3c2.3,10.4,4.6,20.8,5.1,31.4l0.9-2.4c-1.7-5.7-2.6-11.5-2.7-17.4c0-0.4,0.1-2.3-0.5-2.5s-0.6,1.6-0.6,1.8l-0.6,18.5
			l1.1,0.7c0-9.5,1.1-19,2.1-28.5l-0.9,0.5c1.9,9.8,2.6,19.7,3.3,29.6l0.8-2.8c-2.7-6.7-4.4-13.8-4.9-21.1l-0.8,2.8l2.8,9.9
			c0.2,0.6,0.5,0.1,0.6-0.2c0.2-0.9,0.3-1.7,0.2-2.6L232,232c0-0.4-0.1-2-0.7-1.8s-0.4,2.7-0.4,3.1l1.7,23.3l0.8-2.8l-2.8-9.9
			c-0.2-0.6-0.5-0.1-0.6,0.2c-0.2,0.9-0.3,1.7-0.2,2.6c0.6,8.2,2.4,16.4,5.4,24.1c0.2,0.6,0.5,0.2,0.6-0.2c0.2-0.9,0.3-1.7,0.2-2.6
			c-0.7-10.7-1.5-21.3-3.6-31.8c-0.3-1.4-0.8-0.2-0.9,0.5c-1.1,10.3-2.2,20.6-2.2,31c0,0.4-0.1,2.3,0.5,2.5s0.6-1.5,0.6-1.8
			l0.6-18.5l-1.1-0.7c0.1,7.1,1.1,14.2,3,21c0.1,0.5,0.3,1,0.7,0.4c0.3-0.9,0.4-1.9,0.2-2.8c-0.6-11.4-3-22.5-5.4-33.6
			c-0.1-0.7-0.4-1-0.7-0.2c-0.3,1.1-0.3,2.2-0.1,3.2c1.2,9.7,3.6,19.2,7.3,28.3c0.3,0.7,0.6,0,0.7-0.4c2-7.7,1.8-16.1,1.5-24
			c-0.3-8-1.1-16.1-2.5-24c-0.3-1.5-0.8-0.2-0.9,0.5c-1.2,7.3-1.5,14.7-1,22c0.3,3.6,0.7,7.2,1.4,10.8c0.6,3.3,1.5,6.7,1,10l1,1.3
			c-0.2-8.5-0.3-17.1-0.2-25.6c0-0.4,0.1-2.3-0.5-2.5s-0.6,1.6-0.6,1.8c-0.7,11.7,0.3,23.5,2.8,35c0.1,0.7,0.4,1,0.7,0.2
			c0.3-1.1,0.3-2.2,0.1-3.2c-1.8-10.7-3.3-21.4-4.9-32.1c0-0.2-0.1-1.2-0.5-1.2s-0.4,1-0.5,1.2c-1.5,13.4,2.5,26.2,7.8,38.4
			c0.2,0.6,0.5,0.2,0.6-0.2c0.2-0.9,0.3-1.7,0.2-2.6l-2.7-34.1c0-0.4-0.1-2-0.7-1.8s-0.4,2.7-0.4,3.1c0.5,10.2,1.9,20.4,4.4,30.3
			c0.1,0.4,0.2,0.9,0.6,0.5s0.3-1.8,0.3-2.3v-37.3c0-0.2-0.4-3.4-0.8-2.2c-1.2,3.5-1.8,7.2-1.8,10.9c-0.1,3.9-0.1,7.7-0.1,11.6
			c0.1,7.6,0.7,15.3,3,22.6c0.3,1,0.7-0.7,0.8-0.9C243.8,270.3,243.8,269.1,243.4,268L243.4,268z"/>
		<path class="st5" d="M90.5,246.7c6.8-4.4,7-13.5,10.1-20.2c1.4-3.1,3.3-5.9,4.8-8.9c1.6-3.2,2.6-6.7,2.9-10.3
			c0-0.7,0.2-2.2-0.2-2.8s-0.5-0.2-0.7,0.4c-3.2,11.8-9.5,22.2-16.8,32c-0.4,0.5-0.6,5.1,0.2,4.9c3.5-0.8,6.3-3.2,8.8-5.7
			c2.6-2.6,4.8-5.5,6.8-8.6c3.9-6.2,6.5-13.2,7.7-20.4c0.2-1.1,0.2-2.2-0.1-3.2c-0.3-0.7-0.5-0.5-0.7,0.2c-1.2,3.9-2.8,7.6-4.7,11.2
			l-4.9,9.9c-3.3,6.8-6.7,13.6-10,20.4l0.6,4.3c3.7-11.1,7.7-22,11.4-33.1l-0.8-3.4c-1,10-3,20-7.2,29.2c-0.3,1-0.4,2.1-0.2,3.1
			c0,0.3,0.2,1.8,0.7,1.4c5-3.9,8.8-9.2,12-14.6c3.5-6,6.4-12.3,8.6-18.9c1.1-3.3,2-6.7,2.7-10.1c0.2-1.1,0.2-2.2,0-3.3
			c-0.1-0.3-0.4-1.6-0.7-0.6c-2.3,6.9-5.2,13.6-8,20.2c-3.1,7.1-6,15.1-11.9,20.4l0.3,4.8c4.7-4.9,9.2-9.9,13.4-15.2
			s8.2-10.7,10.8-16.9c0.3-1,0.4-2.1,0.2-3.1c0-0.2-0.3-1.9-0.7-1.4c-3.6,6-7.2,12-10.6,18.2s-6.5,12.4-8.5,19
			c-0.3,1-0.4,2.1-0.2,3.1c0,0.2,0.3,1.9,0.7,1.4c3.6-5.4,6.5-11.3,10.3-16.5c1.7-2.4,3.7-4.6,6-6.4c2.8-2,5.8-3.7,8.9-5.1
			c0.9-0.4,0.6-5.1,0-5c-3.4,0.7-6.8,1.4-9.8,3.3c-2.8,2-5.3,4.3-7.6,6.9c-4.8,5.2-9,10.9-12.6,17l0.5,4.2
			c1.3-6.5,2.8-13.1,6.6-18.6c1.9-2.8,4.5-5,6.4-7.7c2-2.9,2.9-6.4,2.6-9.9c0-0.1-0.3-2.3-0.7-1.8c-7.5,10.2-15.3,20.1-23.5,29.8
			c-0.6,0.7-0.4,2.2-0.4,3.1c0,0.2,0.3,2.2,0.7,1.8c8.1-9.7,16-19.6,23.4-29.9l-0.7-1.7c0-0.7-0.1,0.2-0.1,0.4
			c-0.1,0.3-0.2,0.7-0.3,1c-0.3,0.7-0.7,1.4-1.1,2.1c-0.9,1.3-1.9,2.5-3,3.6c-2.1,2.2-3.9,4.6-5.4,7.2c-2.8,5.3-4.3,11.2-5.4,17
			c-0.2,1-0.2,2-0.1,3c0,0.1,0.3,1.6,0.6,1.1c3.5-6,7.6-11.5,12.3-16.6c2.1-2.5,4.5-4.8,7.2-6.7c3.1-2.1,6.6-2.9,10.2-3.6v-5
			c-3,1.4-6,3-8.7,4.9c-2.4,1.8-4.5,4-6.3,6.5c-3.9,5.3-6.8,11.3-10.5,16.8l0.4,4.6c2.2-6.6,5-12.9,8.4-18.9
			c3.3-6.1,6.9-12,10.4-17.9l-0.4-4.6c-2.6,6.1-6.7,11.6-10.8,16.7s-8.6,10.1-13.1,14.9c-0.6,0.6-0.4,2.3-0.4,3.1
			c0,0.2,0.2,2.2,0.7,1.8c4.9-4.3,7.6-10.4,10.1-16.2c2.4-5.4,4.7-11,6.9-16.5c1.1-2.8,2.2-5.6,3.2-8.4l-0.7-3.9
			c-1.2,6.1-3.1,12.1-5.7,17.8c-2.6,6.2-6,12.1-10.1,17.5c-2,2.7-4.3,5-6.9,7.1l0.4,4.6c4.5-9.7,6.5-20.4,7.6-31c0.1-1,0.1-2-0.1-3
			c-0.1-0.3-0.4-1.1-0.7-0.4c-3.7,11.1-7.7,22-11.4,33.1c-0.3,1.1-0.4,2.3-0.2,3.4c0.1,0.4,0.3,1.8,0.8,0.9
			c3.4-6.9,6.8-13.8,10.2-20.8c3.4-7,7.4-14,9.6-21.5l-0.9-3c-1.2,6.7-3.7,13.1-7.4,18.8c-1.8,2.9-4,5.5-6.3,8
			c-2.4,2.4-5,4.8-8.5,5.5l0.1,4.9c7.6-10.2,13.9-21,17.3-33.3l-0.9-2.4c-0.5,6.2-5.1,11.3-7.5,16.8c-2.8,6.4-3,14.9-9.5,19
			c-0.6,0.4-0.4,2.4-0.4,3.1c0,0.3,0.1,2.1,0.7,1.7L90.5,246.7z"/>
		<path class="st5" d="M222,265.5c-0.7,3.2-0.3,6.5,1.1,9.4c1.3,2.7,4.1,4.5,6.7,5.8c2.5,1.2,5.1,1.9,7.9,2c3.4,0.2,7,0.3,10-1.5
			c2.7-1.6,4.2-4.5,4-7.6c-0.1-2.6-1.1-5.2-2.8-7.2c-1.9-2.4-4-4.6-4.8-7.6c-1-3.9,0-7.9,0.5-11.8c2.4-17.4,3.6-35.1,3.5-52.7
			c-0.1-17.3-2-34.3-4.1-51.4c-1.1-8.6-2.1-17.1-3.1-25.7c-1-8.8-1.7-17.6-2.5-26.4c-0.7-8.4-2.3-16.8-3.6-25.1
			c-0.6-4.2-1.2-8.4-1.6-12.6c-0.3-3.8-0.9-8.4,0.6-12c0.7-1.7,1.9-3.1,2.6-4.8c0.5-1.2,0.9-2.4,1.1-3.6c0.5-2.5,0.7-5.1,0.5-7.7
			c-0.3-4.5-1.6-9.7-5.8-12c-2.5-1.4-5.4-1.2-8.1-0.8c-3.8,0.6-7.3,2.1-11.1,2.8c-5.5,1.1-10.9-0.8-16.3-1.6c-7.2-1-14.8-1-21.7,1.5
			c-3.7,1.4-7.1,3.3-10.8,4.5c-3.2,1-6.6,1.4-10,1.2c-6.4-0.4-14.4-1.2-17.9,5.5c-1.4,2.9-1.8,6.1-1.1,9.2c0.6,2.8,1.9,5.4,3.8,7.5
			c1.8,2.3,3.9,4.4,5.7,6.8c1.8,2.6,3.1,5.5,3.8,8.5c1.6,6.5,2.6,13.2,2.8,19.9c0.3,6.3,0.3,12.6,0.5,18.9
			c0.2,7.1,1.5,14.7-1.7,21.4c-2.9,6.2-8.1,11.1-12.7,16c-5.2,5.6-10.3,11.3-15,17.4c-8,10.4-13.1,22.4-17.7,34.7
			c-1.9,5.3-3.8,10.6-5.3,16c-1,3.6-1.8,7.2-2.6,10.9c-1,5.1-2.4,10.1-4.1,14.9c-1.5,4.1-3.3,9.1-6.9,11.8c-1.8,1.3-4.3,1.8-6.3,2.5
			s-4.7,1.4-6.5,2.8c-1.9,1.6-3,4-3,6.5c-0.1,1.3,0.1,2.6,0.6,3.9c0.6,1.1,1.6,1.8,2.8,2c1.9,0.6,3.9,1,5.9,1.1
			c2.4,0.1,4.8,0.2,7.1,0.4c5.4,0.4,11,0.8,16.2-0.8c2.5-0.7,4.8-2.1,6.6-4c1.7-2,3.1-4.1,4.4-6.4c3.9-6.1,7.4-12.7,12.1-18.3
			c3.5-4.2,8.6-6.8,13.7-8.7c2.6-1,5.3-1.7,8-2.7c5.1-2.1,10.3-4.3,14.7-7.8l-0.5-0.9c1,8.7,2.4,17.4,4.2,25.9
			c1.3,6.2,3.2,12.3,5.8,18.1c2.5,5.6,5.2,11,7.3,16.8c0.6,1.8,1.3,3.6,1.9,5.4c0.4,1.6,1.1,3.2,2.1,4.6c1.8,2.1,4.6,3.2,7.2,3.8
			c3.8,1,7.7,1.4,11.6,1.3c3.3-0.1,7.1-0.5,9.7-2.6c3.5-2.9,3.2-8.5,0.7-12c-2.6-3.8-6.7-6.2-9.8-9.4c-2.4-2.5-3.4-5.9-4.1-9.2
			c-0.9-4.2-1.4-8.6-2-12.9c-0.7-4.6-1.3-9.2-1.9-13.8c-0.5-4.1-0.8-7.9,0.9-11.7c0.3-0.8,0.3-1.7,0.1-2.6c0-0.3-0.2-1.4-0.6-0.7
			c-2.9,6.5-1.6,13.8-0.7,20.6c1,7.6,2,15.3,3.4,22.8c0.5,3.2,1.6,6.4,3.2,9.2c1.2,1.6,2.5,3.1,4.1,4.3c1.8,1.5,3.6,3.1,5.2,4.7
			c0.7,0.8,1.4,1.6,2,2.5c0.3,0.4,0.5,0.8,0.7,1.2c0.1,0.2,0.2,0.5,0.3,0.7s0,0.6,0.1,0.2c0.2-0.9-0.2,0.3-0.3,0.5
			c-0.2,0.4-0.5,0.8-0.8,1.1c-1.2,1.2-2.7,2.1-4.4,2.5c-3.6,0.9-7.4,1.1-11.1,0.6c-3.4-0.2-6.7-1-9.8-2.3c-1.3-0.5-2.5-1.4-3.5-2.4
			c-1.2-1.3-1.6-3-2.1-4.6c-2.1-6.2-4.6-12.2-7.3-18.1c-2.8-5.7-5-11.6-6.6-17.7c-2.2-9.5-3.9-19.1-4.9-28.8c0-0.2-0.1-1.1-0.5-0.9
			c-4.4,3.6-9.7,5.8-15,7.9c-2.5,1-5.1,1.6-7.6,2.6c-4.8,1.9-9.6,4.2-13.1,8c-2.2,2.6-4.2,5.4-6,8.3c-2,3.1-3.9,6.2-5.9,9.3
			c-2.7,4.3-5.2,9-10.1,11s-10.7,1.8-16,1.4c-2.2-0.2-4.4-0.4-6.7-0.4c-2,0-4-0.2-6-0.6c-1.2-0.2-2.4-0.6-3.5-1.1
			c-0.5-0.3-0.9-0.7-1.2-1.1c-0.6-0.6,0.7-0.4-0.1,0.5c0.2-0.3,0.3-0.7,0.4-1.1c1-2.3,2.8-3.2,5-4.1c2.5-1,5.2-1.8,7.7-2.7
			c1.5-0.6,2.9-1.5,3.9-2.8c2.9-3.6,4.6-8.3,6-12.6c2.7-8.1,3.8-16.6,6.2-24.7c3.3-11.2,7.4-22.1,12.3-32.6
			c6-12.8,15.4-23.4,24.9-33.6c4.5-4.9,9.4-9.6,12.5-15.5c3.3-6.2,3.3-13.3,3-20.1c-0.6-12.7-0.1-25.6-1.9-38.2
			c-0.8-5.7-1.9-12-5-16.9c-1.7-2.4-3.5-4.7-5.5-6.9c-1.8-2.1-3.8-4.5-4.4-7.3c-0.8-3.2,2.1-6.5,4.7-7.8s5.9-1.6,9-1.5
			c3.2,0.1,6.5,0.6,9.7,0.3c3.7-0.4,7.2-2,10.5-3.5c3.4-1.6,6.9-2.9,10.6-3.7c3.4-0.6,6.9-0.8,10.4-0.6c5.4,0.3,10.6,1.6,16,2.4
			c7.2,1.1,13.7-3.5,20.9-3.5c4.8,0,8.1,3.4,9.2,8c0.4,2,0.5,4.1,0.1,6.1c-0.2,1-0.5,2-0.8,2.9c-0.7,1.8-2,3.4-2.8,5.2
			c-1.4,3.2-1.3,7-1.3,10.4c0.1,4.1,0.4,8.1,0.9,12.2c1,8.2,2.7,16.4,3.8,24.6s1.5,16.4,2.3,24.6c1.7,16.8,4,33.4,5.9,50.1
			c2,16.8,2.7,33.8,2.1,50.8c-0.3,8.4-1,16.8-1.9,25.1c-0.5,4.2-1,8.4-1.6,12.5c-0.7,3.8-0.8,7.7-0.3,11.6c0.4,2.9,1.6,5.6,3.4,7.8
			c0.8,1,1.7,2,2.5,3.1c0.7,1.1,1.4,2.2,1.8,3.5c-0.2-0.5,0.1-0.7-0.2,0c-0.1,0.4-0.3,0.7-0.6,1c-0.5,0.7-1,1.3-1.7,1.8
			c-1.4,1.1-3,1.8-4.8,2c-3.2,0.4-6.4,0.3-9.6-0.4c-2.6-0.6-5-1.6-7.1-3.2c-1.3-0.8-2.4-1.9-3.3-3.2c-0.6-1-1.4-2.8-1.1-3.9
			c0.2-0.9,0.2-1.8,0-2.7C222.4,264.9,222.2,264.8,222,265.5L222,265.5z"/>
		<path class="st5" d="M216.7,200.7C216.7,200.9,216.7,200.5,216.7,200.7c0,0.1,0,0.2,0,0.7c0,0.8-0.2,1.6-0.3,2.4
			c-0.3,2-0.8,4-1.2,5.9c-0.9,3.9-2.1,7.7-3.7,11.4c-2.2,5.2-5.6,9.7-9.9,13.2c-1.1,0.9-2.3,1.6-3.6,2.2c-0.4,0.1-0.8,0.3-1.1,0.5
			c-0.4,0.6-0.5,1.3-0.4,2c-0.1,1,0.2,2.1,0.9,2.8c0.9,1.1,2,2.2,3.1,3.2c1.1,0.8,2.3,1.5,3.5,2.1c1.2,0.5,2.3,1.3,3.1,2.3l0.2,0.4
			c0.2,0.6,0.2,0.4,0.1-0.6c-0.2,0.4-0.4,0.8-0.7,1.1c-0.6,0.6-1.4,1-2.3,1.2c-1.7,0.3-3.5,0.2-5.2-0.2c-0.4-0.1-0.8,3.6,0,3.8
			c2.6,0.5,5.9,0.9,7.9-1.3c1.6-1.7,1.5-5.1,0.8-7.1s-2.9-2.9-4.7-3.8c-1.2-0.6-2.3-1.4-3.3-2.3c-0.5-0.5-1-1.1-1.6-1.7
			c-0.5-0.4-0.8-0.9-1.1-1.4l0.2,1.6v-0.2l-0.3,1.8c0.3-0.5,1.6-0.8,2.1-1.1c0.8-0.5,1.6-1,2.4-1.6c1.8-1.3,3.4-2.8,4.8-4.5
			c1.5-1.8,2.7-3.7,3.7-5.8c0.7-1.2,1.4-2.5,2-3.8c2.3-5.6,4-11.4,4.9-17.3c0.5-2.8,1-5.9,0.4-8.8c-0.1-0.7-0.4-0.6-0.6,0
			C216.6,199,216.6,199.9,216.7,200.7L216.7,200.7z"/>
		<path class="st5" d="M149.2,60.4c6.9,1.8,14.2,1.1,20.7-1.8c4.3-2,8.2-4.7,11.6-7.9c2.1-1.8,4.2-3.6,7.1-3.2s5.4,2.1,7.7,3.7
			c3.5,2.5,6.5,5.5,10.6,7.1c8.4,3.3,17.6,1.6,26.2,0.1c0.8-0.1,0.4-3.8,0-3.8c-7.7,1.4-15.7,2.9-23.4,0.8c-1.9-0.5-3.8-1.3-5.6-2.3
			c-1.9-1.2-3.8-2.5-5.5-4c-2.5-2-5.3-4.1-8.4-5.1s-5.6,0.2-7.9,2.2c-3.1,2.9-6.6,5.5-10.4,7.6c-7,3.7-15,4.7-22.7,2.7
			C148.9,56.6,148.4,60.3,149.2,60.4L149.2,60.4z"/>
		<path class="st5" d="M240.5,120.6c-0.6,4.2-1.5,8.3-2.3,12.4c-1.3,7.3-2.7,14.7-4.3,21.9c-1.7,7.7-3.8,15.3-6.3,22.8
			c-2.3,6.7-5,13.5-9.8,18.8c-1.8,2.2-4.1,4.1-6.6,5.4c-2.5,1.1-5.1,1.7-7.8,1.8c-5.1,0.3-10.8-0.8-14.8-4.1c-2.2-2-4.2-4.2-5.9-6.7
			c-2-2.7-3.8-5.6-5.4-8.5c-3-5.8-5.7-11.9-7.9-18.1c-6-15.8-11.6-32.1-13.7-48.9c-0.1-0.4-0.1-1.2-0.6-0.7s-0.2,2-0.1,2.6
			c1.9,15.7,6.8,30.7,12.2,45.5c4.5,12.4,9.4,25.4,18.2,35.5c1.7,2.1,3.8,3.8,6.1,5c2.5,1.2,5.1,1.9,7.8,2.1
			c5.1,0.5,11-0.4,15.1-3.8c5.5-4.4,8.9-10.8,11.5-17.2c2.8-7.3,5.1-14.9,6.9-22.5c3.2-12.8,5.4-25.8,7.8-38.8
			c0.2-0.9,0.3-1.8,0.4-2.7c0.1-0.6,0.3-2-0.1-2.6S240.6,120.2,240.5,120.6L240.5,120.6z"/>
		<path class="st5" d="M113.6,165.6c-5.5-0.9-11.6,0.1-16.9,1.4c-14.2,3.5-26.8,12-36.8,22.5C47.7,202.3,37.6,218,32.8,235
			c-3.5,12.1-4,24.9-1.5,37.2c1.1,5.5-4.8,10.8-9.8,11.8c-5.7,1.1-10.5-2.4-13.2-7.2c-1.8-3.5-3.2-7.2-4.1-11.1
			c-1.4-5.2-2.3-10.5-2.8-15.9c-1.3-12.7,0-25.5,3.8-37.6c2.1-6.5,5.1-12.6,9.1-18.2c3.9-5.5,8.8-10.1,13.9-14.4
			c9.1-7.7,19.1-14.1,30.5-17.7c13.8-4.4,28.4-4.7,42.7-3.4c4.6,0.4,9.1,1,13.6,1.7c0.4,0.1,0.8-3.6,0-3.8
			c-15.9-2.4-32.3-3.6-48.2-0.4c-11.9,2.5-23,7.7-32.7,15c-5.2,3.8-10,7.9-14.5,12.5c-4.8,5.1-8.8,10.9-11.7,17.3
			c-5.8,12.3-7.9,26.2-7.9,39.8c0,11.1,1.4,22.7,5.1,33.2c1.2,3.4,2.6,7,5,9.8c2.2,2.6,5.3,4.2,8.6,4.4c3,0,5.8-1,8.1-2.8
			c2.3-1.9,4-4.4,4.8-7.3c0.9-3.3,0.4-6.5-0.2-9.8c-1-5.5-1.2-11.2-0.7-16.8c1.4-15.9,8.5-30.8,17.6-43.7
			c10.1-14.3,23.1-27.2,39.6-33.9c7.6-3.1,16.2-5,24.4-4.3c0.4,0,0.8,0.1,1.2,0.1S114.4,165.8,113.6,165.6L113.6,165.6z"/>
		<path class="st5" d="M209.9,40.7c-0.7,0.6-1.8,0.6-2.5-0.1c-0.1-0.2-0.2-0.3-0.3-0.5c-0.2-0.5-0.4-1.1-0.4-1.7
			c-0.2-0.8-0.1-1.7,0.4-2.4c0.2-0.3,0.5-0.5,0.9-0.7c0.6-0.3,1.4-0.3,2,0c0.7,0.6,1.1,1.5,1,2.4C211,39,211.1,39.8,209.9,40.7z"/>
		<path class="st5" d="M165.9,37c0.5-0.3,1-0.4,1.6-0.3c0.6,0.2,1,0.6,1.3,1.1c0.2,0.5,0.4,1.1,0.4,1.7c0.2,0.8,0,1.7-0.4,2.4
			c-0.2,0.3-0.6,0.5-0.9,0.6c-0.6,0.3-1.4,0.3-2,0C164.3,41.5,164.4,38.1,165.9,37z"/>
		<path class="st5" d="M188.8,46.8c-2.2,0.1-4-1.5-5.4-3.2c-0.4-0.4-0.8-1-1-1.6c-0.2-0.6-0.1-1.2,0.4-1.7c0.2-0.2,0.5-0.3,0.8-0.4
			c2.5-0.9,8.4-1.6,10.4,0.5C196.5,43.1,191.1,46.7,188.8,46.8z"/>
		<path class="st5" d="M229,15.6c-0.7,0.7-1.3,1.6-1.6,2.6c-0.5,1-0.8,2.1-1.1,3.2c-0.6,2.3-0.6,4.6-0.2,6.9c0.6,3.6,3,6.7,6.4,8.1
			c0.3,0.1,0.4-1.7,0.4-1.9c0-0.4,0.1-1.7-0.4-1.9c-2.6-1.1-4.6-3.2-5.6-5.9c-0.4-1-0.4-2,0-3c0.3-0.8,0.6-1.7,1-2.5
			c0.2-0.8,0.7-1.5,1.3-2.1c0.5-0.3,0.3-1.8,0.3-2.3C229.6,16.7,229.5,15.3,229,15.6L229,15.6z"/>
		<path class="st5" d="M144.2,27.7c0.7,0.2,1.2,1,1.7,1.6c0.5,0.6,1,1.3,1.5,2c0.8,1.1,1.3,2.4,1.4,3.8c0,2.4-1.9,4.9-3.8,6.3
			c-0.5,0.3-0.3,1.8-0.3,2.3c0,0.2,0.1,1.6,0.5,1.3c3.3-2.4,4.5-6.5,4.4-10.4c0-2-0.5-4.1-1.4-5.9c-0.5-0.9-1.1-1.8-1.8-2.7
			c-0.6-0.8-1.2-1.7-2.2-2.1C144,23.9,143.3,27.4,144.2,27.7L144.2,27.7z"/>
		<path class="st5" d="M188.1,45.9c-0.2,2.1-0.1,4.2,0.1,6.3c0.2,1.6,0.7,3.6,2.1,4.7c1.2,0.8,2.6,1.1,4,1c1.5,0.1,2.9-0.5,3.9-1.5
			c0.2-0.3,0.2-0.6,0.2-0.9c0-0.5,0-1,0-1.5c0-0.2-0.2-1.7-0.5-1.3c-0.9,0.9-2.1,1.4-3.3,1.3c-1.3,0.1-2.5-0.1-3.7-0.6
			c-1.1-0.6-1.8-1.7-2-3c0-0.2-0.1-0.2-0.1-0.4s-0.1-0.5,0-0.3c0-0.2,0-0.4,0-0.5s0-0.2,0,0V49c0-0.2,0-0.4,0-0.6s0-0.6,0-0.2
			l0.1-1.3c0-0.5,0-1,0-1.5c0-0.2-0.1-0.7-0.2-0.9C188.3,44.3,188.2,45.8,188.1,45.9L188.1,45.9z"/>
		<path class="st5" d="M188.5,53.1c0-0.2,0-0.5,0-0.7c0-0.2,0-0.4,0-0.6c0-0.1,0-0.1,0,0v-0.1c-0.1,0.2-0.1,0.3-0.2,0.5
			c-0.7,1.2-1.9,2-3.3,2c-0.9,0.1-1.9-0.1-2.8-0.4c-0.7-0.2-1.4-0.7-1.7-1.4c-0.1-0.2-0.1-0.3-0.3-0.2s-0.2,0.7-0.2,0.9
			c-0.1,0.9-0.1,1.7,0.1,2.6c0.3,1,1.1,1.7,2.1,1.9c1.2,0.4,2.4,0.5,3.6,0.2c1.1-0.3,2-0.9,2.6-1.8c0.8-1.5,1.1-3.2,0.8-4.9
			c0-0.2-0.3-1.4-0.6-0.7C188.3,51.3,188.3,52.2,188.5,53.1L188.5,53.1z"/>
		<path class="st5" d="M223.8,264.1c2.6-2.7,2.4-7.4,1.6-10.7c-0.6-2.5-1.1-4.9-1.7-7.4c-1.9-8.8-3.3-17.6-4.1-26.6
			c-0.5-4.6-0.6-9.2-0.1-13.7c0.1-0.6,0.3-2-0.1-2.6s-0.5,0.2-0.6,0.7c-1.1,8.8-0.1,17.9,1.2,26.6c1.1,7.7,2.5,15.5,4.2,23.1
			c0.2,1,0.5,1.9,0.7,2.9c0.3,1.5-0.2,3.1-1.3,4.2c-0.4,0.5-0.3,1.7-0.3,2.3C223.3,262.9,223.5,264.4,223.8,264.1L223.8,264.1z"/>
		<path class="st5" d="M162.3,208.2c-0.6-9.6-1.1-19.3-1.2-28.9c0-3.1-0.1-6.2,0.1-9.3c0-0.4,0.2-2-0.3-2.3s-0.5,1.1-0.5,1.3
			c-0.4,6.3-0.2,12.6,0,19c0.2,5.9,0.5,11.7,0.8,17.6c0.1,1.2,0.1,2.4,0.2,3.6c0,0.2,0.1,1.6,0.5,1.3S162.3,208.6,162.3,208.2
			L162.3,208.2z"/>
		<path class="st5" d="M228.3,95.7c-5.1,8.6-12.9,16.6-22.7,19.6c-5.5,1.7-11.1,0.9-16.5-0.6c-5.5-1.6-10.7-4-15.6-7.2
			c-5.5-3.4-10.4-7.6-14.7-12.5c-0.4-0.4-0.5,1.2-0.5,1.3c0,0.6-0.1,1.8,0.3,2.3c7.6,8.7,17.4,15.3,28.3,19.1
			c5.4,1.8,11.2,3,16.9,1.8c5-1.2,9.6-3.6,13.5-6.9c4.4-3.8,8.2-8.3,11.2-13.3c0.3-0.7,0.4-1.5,0.3-2.3
			C228.9,96.9,228.6,95.3,228.3,95.7L228.3,95.7z"/>
		<path class="st5" d="M202.7,99.2c0.4,0.5,0.7,1.1,1,1.7l-0.1-0.2c0.3,0.7,0.6,1.3,0.8,2.1c0,0.2,0.2,0.3,0.3,0.2s0.2-0.7,0.2-0.9
			c0.1-0.9,0.1-1.7-0.1-2.6c-0.4-1.4-1.1-2.7-2-3.9c-0.1-0.2-0.3,0.1-0.3,0.2c-0.1,0.4-0.2,0.7-0.2,1.1c0,0.5,0,1,0,1.4
			c0,0.3,0.1,0.6,0.2,0.9L202.7,99.2z"/>
		<path class="st5" d="M199.2,100.9l0.2,0.6v0.1c0-0.1,0-0.2,0-0.1s0.1,0.2,0.1,0.3c0.1,0.4,0.2,0.8,0.2,1.1s-0.1-0.3,0,0
			c0,0.1,0,0.2,0,0.3l0.1,0.6c0,0.3,0-0.4,0-0.1c0,0.1,0,0.2,0,0.3c0,0.1,0,0.2,0,0.3c0,0.4,0-0.4,0-0.1c0,0.4,0,0.9,0.1,1.3
			c0,0.1,0.1,0.6,0.3,0.6s0.3-0.5,0.3-0.6c0.1-0.4,0.1-0.9,0.1-1.3c0-2.2-0.3-4.4-1-6.5c0-0.2-0.2-0.3-0.3-0.2
			c-0.2,0.3-0.2,0.6-0.2,0.9C198.8,99.2,198.9,100,199.2,100.9L199.2,100.9z"/>
		<path class="st5" d="M193,98.6c-0.4,1.9-0.7,3.8-0.7,5.7c0,0.5,0,1,0,1.4c0,0.2,0.1,0.7,0.2,0.9c0.4,0.3,0.5-1.2,0.5-1.3
			c0-0.4,0-0.8,0.1-1.2c0-0.1,0-0.2,0-0.3v0.3c0-0.1,0-0.1,0-0.2c0-0.2,0-0.4,0.1-0.6s0-0.4,0.1-0.6c0-0.1,0-0.2,0-0.3v-0.2v0.2
			c0-0.1,0-0.2,0-0.3c0-0.1,0-0.2,0.1-0.3c0-0.2,0.1-0.4,0.1-0.7c0.1-0.4,0.1-0.9,0.1-1.3c0-0.4,0-0.9-0.1-1.3
			c0-0.1-0.1-0.6-0.3-0.6s-0.3,0.4-0.3,0.6H193z"/>
		<path class="st5" d="M189,96.3c-1,1-1.7,2.3-1.8,3.7c0,0.5,0,1,0,1.4c0,0.2,0,0.4,0.1,0.6c0,0.2,0.1,0.3,0.1,0.5
			c0.1,0.1,0.2,0.4,0.3,0.2l0.1-0.2c0.1-0.2,0.1-0.4,0.1-0.7v-0.1c0-0.2,0,0.3,0,0.2c0-0.1,0-0.1,0-0.2c0-0.1,0-0.1,0-0.2
			c0-0.2-0.1,0.2-0.1,0.2s0-0.1,0-0.1c0.1-0.2,0.2-0.5,0.3-0.7l-0.1,0.2c0.3-0.5,0.6-1,1.1-1.3c0.1-0.1,0.1-0.2,0.1-0.3
			c0.1-0.2,0.1-0.3,0.1-0.5c0.1-0.5,0.1-1,0-1.4c0-0.4-0.1-0.8-0.2-1.1l-0.1-0.2C189.1,96.2,189,96.2,189,96.3L189,96.3z"/>
	</g>
</g>
<g id="圖層_2_2_">
	<g id="圖層_1-2_1_">
		<path class="st4" d="M277.5,50.3c4.4-4,6.4-10,9.5-15.1c9.5-15.4,29-21.4,47-22.8c19.4-1.5,40,1.4,55.5,13.2s23.9,34.1,15.3,51.6
			c-5.1,10.4-15.2,17.6-26.2,21.3s-22.7,4.2-34.3,4c-12.8-0.3-26.1-1.6-36.8-8.7c-8.3-5.4-14.2-13.9-18.2-22.9c-1-2.3-2-4.7-4.1-6.1
			c-1.8-1.2-4-1.3-6.1-1.8c-4.2-0.8-12.2-3.9-12.1-9.1C270.7,53.3,274.6,53,277.5,50.3z"/>
		<path class="st5" d="M277.7,52.1c4.4-4.1,6.4-10,9.5-15.1c2.8-4.4,6.4-8.2,10.6-11.3c8.8-6.3,19.5-9.4,30.1-10.8
			c22.5-3.1,49.6-0.3,66.4,16.7c7.4,7.4,12.8,17.6,13.5,28.1c0.8,10.8-4.5,20.8-12.6,27.7c-9.7,8.3-22.3,11.7-34.8,12.8
			c-6.7,0.5-13.5,0.6-20.2,0.3c-6.2-0.2-12.4-1-18.5-2.5c-6.1-1.5-11.8-4.2-16.8-8c-4.6-3.8-8.6-8.3-11.6-13.4
			c-1.5-2.6-2.9-5.3-4.1-8c-1.1-2.4-2.3-4.8-4.7-6.1c-2.2-1.1-4.9-1.2-7.3-1.9c-2.2-0.6-4.2-1.5-6.1-2.7c-0.9-0.6-1.7-1.2-2.4-2
			c-0.3-0.3-0.6-0.7-0.8-1.1c-0.1-0.2-0.2-0.5-0.3-0.8c0-0.1-0.1-0.5-0.1-0.2l-0.4,1.8C270.8,55.2,274.7,54.7,277.7,52.1
			c0.5-0.4,0.3-1.8,0.3-2.3c0-0.2-0.1-1.6-0.5-1.3c-2.9,2.5-6.7,2.9-10.4,3.6c-0.4,0.1-0.4,1.6-0.4,1.9c-0.1,2.3,0.7,4.5,2.3,6.1
			c1.7,1.5,3.6,2.7,5.7,3.5c2.2,0.8,4.5,1.4,6.9,1.8c1.5,0.2,3,0.8,4.2,1.7c1.1,1,2,2.3,2.6,3.8c2.6,5.5,5.3,10.9,9.2,15.7
			c3.8,4.8,8.6,8.7,14.1,11.5c11.7,6,25.6,6.5,38.5,6.4c13.4-0.1,27.3-1.8,39.1-8.8c9.8-5.9,17.1-15,19-26.4
			c1.7-11-0.6-22.3-6.4-31.8c-13-21.6-39.6-28-63.2-27.1c-11.4,0.4-22.9,2.4-33.2,7.3c-4.9,2.3-9.3,5.4-13.2,9.1
			c-1.9,1.9-3.6,4.1-5.1,6.4c-1.6,2.6-2.9,5.4-4.4,8.1c-1.4,2.7-3.2,5.2-5.3,7.3c-0.5,0.4-0.3,1.7-0.3,2.3
			C277.1,51,277.3,52.5,277.7,52.1z"/>
	</g>
</g>
</svg>
