<?xml version="1.0" encoding="utf-8"?>
<!-- Generator: Adobe Illustrator 24.2.3, SVG Export Plug-In . SVG Version: 6.00 Build 0)  -->
<svg version="1.1" id="圖層_1" xmlns="http://www.w3.org/2000/svg" xmlns:xlink="http://www.w3.org/1999/xlink" x="0px" y="0px"
	 viewBox="0 0 204.8 155.2" style="enable-background:new 0 0 204.8 155.2;" xml:space="preserve">
<style type="text/css">
	.st0{enable-background:new    ;}
	.st1{fill:#F4F4F5;}
	.st2{fill:#647E67;}
	.st3{font-family:'jf-openhuninn-1.1';}
	.st4{font-size:20px;}
</style>
<g class="st0">
	<path class="st1" d="M124,138.2c8-5.4,20.5-8.6,30.9-12.9c31.6-13,42.3-34.2,43.4-52.9c1.1-20.1-7-40.7-33.4-54S90.4,1.2,54.3,13.6
		C32.9,21,18.6,32.9,11.9,44.9S5.3,69,6.9,80.8c1.9,13,6.1,26.4,22,35.8c12.4,7.3,30.8,11.6,50.3,13.9c4.9,0.6,10.2,1.1,13.3,2.9
		c2.7,1.6,3.2,3.8,4.4,5.8c2.3,4.2,9.6,11.7,20.6,10.5C118.4,145.9,118.7,141.8,124,138.2z"/>
	<g>
		<path class="st2" d="M124.2,140.6c8.1-5.3,17.8-7.9,26.8-11.3c8.8-3.3,17.3-7.5,24.8-13.3c11.2-8.6,19.3-20.7,22-34.7
			c2.7-14.1,1-29.6-6.4-42.1c-8.6-14.5-23.8-23.6-39.5-28.7C134.9,5,116.6,3,98.7,3.4c-19,0.5-38.4,3.8-55.7,12
			C27.8,22.6,13.3,34.1,7.9,50.6c-3.3,10-3.1,20.8-1.6,31.2c1.1,7.7,3,15.3,7,22c9.7,16.4,29.6,22.5,47.2,26
			c5.3,1.1,10.6,1.9,15.9,2.6c4.9,0.6,10.2,0.7,14.8,2.6c2.1,0.9,3.5,2.4,4.5,4.4c0.7,1.4,1.3,2.7,2.2,3.9c2,2.6,4.6,4.8,7.4,6.3
			c3.7,2,7.9,2.8,12,2.4c0.2,0,0.4-0.6,0.4-0.7c0.4-1.8,0.7-3.7,1.5-5.4C120.4,143.7,122.2,142,124.2,140.6c0.6-0.4,0.4-2.4,0.4-3.1
			c0-0.3-0.1-2.1-0.7-1.7c-2.2,1.5-4,3.4-5.1,5.9c-0.9,2-1.2,4.1-1.7,6.2c0.1-0.2,0.3-0.5,0.4-0.7c-7.5,0.7-14.9-2.6-19.3-8.7
			c-0.9-1.2-1.5-2.5-2.1-3.8c-0.9-1.8-2.2-3.2-4-4.1c-4.2-2.1-9.4-2.2-13.9-2.8c-10.2-1.2-20.3-3-30.1-5.8
			c-8.6-2.5-17.3-5.9-24.4-11.6c-6.3-5-10.9-11.7-13.5-19.3C9,87.7,8.3,84.2,7.7,80.6C7,76.1,6.5,71.5,6.7,67
			c0.3-9.1,3.5-17.9,9.1-25.2c4.7-6.2,10.8-11.3,17.3-15.5c15.7-10.1,34.4-15,52.8-16.8c17.8-1.8,36-0.9,53.5,2.8
			c16,3.5,32,9.7,43.8,21.5c5.3,5.3,9.5,11.6,12,18.7c2.2,6.1,3.1,12.9,2.8,19c-0.3,5.4-1.6,11.3-3.9,16.6
			c-2.6,6.2-6.4,11.8-11.1,16.6c-5.9,6.1-12.9,10.9-20.4,14.7c-8.7,4.4-18.1,7.1-27.1,10.7c-3.9,1.6-7.8,3.3-11.4,5.7
			c-0.6,0.4-0.4,2.4-0.4,3.1C123.5,139.2,123.6,141,124.2,140.6z"/>
	</g>
</g>
<text transform="matrix(1 0 0 1 24.088 65.4865)" class="st2 st3 st4">準備好登山了嗎？</text>
<text transform="matrix(1 0 0 1 24.088 89.4865)" class="st2 st3 st4">先來過我這關吧！</text>
</svg>
