<svg xmlns="http://www.w3.org/2000/svg" viewBox="0 0 161.53 71.85"><defs><style>.cls-1{fill:#fbfbfb;}</style></defs><g id="圖層_2" data-name="圖層 2"><g id="圖層_1-2" data-name="圖層 1"><path class="cls-1" d="M140.88,28.46c-.41,0-.82,0-1.22,0-.81-6.72-8.21-12-17.23-12a21.1,21.1,0,0,0-9.94,2.4c-3.07-3.67-8.45-6.11-14.58-6.11a21.87,21.87,0,0,0-3.47.27C91.84,5.55,82.86,0,72.18,0c-12.25,0-22.26,7.3-23,16.51-.77-.07-1.54-.1-2.33-.1-8.57,0-15.94,3.93-19.17,9.55a24.42,24.42,0,0,0-8.39-1.45C8.65,24.51,0,31.1,0,39.24S8.65,54,19.31,54h.2c2,6.22,9.34,10.84,18.11,10.84a22.35,22.35,0,0,0,11.92-3.29C52.43,67.55,60,71.85,69,71.85c8.4,0,15.62-3.82,18.85-9.32,4.46,4.33,11.37,7.12,19.15,7.12,10.48,0,19.42-5.06,22.84-12.15A25.43,25.43,0,0,0,140.88,60c11.41,0,20.65-7.06,20.65-15.76S152.29,28.46,140.88,28.46Z"/></g></g></svg>