<svg xmlns="http://www.w3.org/2000/svg" viewBox="0 0 186.87 104.86"><defs><style>.cls-1{fill:#fbfbfb;}</style></defs><g id="圖層_2" data-name="圖層 2"><g id="圖層_1-2" data-name="圖層 1"><path class="cls-1" d="M145.84,19a51.92,51.92,0,0,0-16.07,2.5C125.58,9.12,110.88,0,93.38,0c-18,0-33.07,9.67-36.73,22.58a52.38,52.38,0,0,0-15.32-2.25C18.5,20.33,0,34.44,0,51.85S18.5,83.37,41.33,83.37c.48,0,1,0,1.43,0,9.14,12.82,26.95,21.52,47.42,21.52,21.64,0,40.3-9.72,48.9-23.75a53.57,53.57,0,0,0,6.76.43c22.66,0,41-14,41-31.28S168.5,19,145.84,19Z"/></g></g></svg>