<svg xmlns="http://www.w3.org/2000/svg" viewBox="0 0 1200 160.12"><defs><style>.cls-1{fill:#5a7e65;}.cls-2{fill:#7fa383;}.cls-3{fill:#c7d5ca;}</style></defs><title>資產 1</title><g id="圖層_2" data-name="圖層 2"><g id="圖層_1-2" data-name="圖層 1"><path class="cls-1" d="M1200,78.63,1041,16.42c-3.88-1.52-8-3.08-12.41-2.85-3.92.2-7.52,1.8-10.94,3.36L993.06,28.08c-8.41,3.82-17.26,7.74-26.88,8.13-16.43.67-29.73-8.82-42.54-16.47a196.6,196.6,0,0,0-33.92-16c-6.4-2.31-13.37-4.38-20.48-3.61-6.81.74-12.76,4-18.48,7a637.35,637.35,0,0,1-92,40c-13.2,4.55-27.32,8.79-41.48,7.62-8.73-.73-16.93-3.48-25.66-4.22C667,48.48,645,62.29,625.05,74.24c-51.82,31.15-110.62,55.2-172.7,70.66l-4.69,15.22H1200Z"/><path class="cls-1" d="M507.29,132.39c-25-15-52.65-32.33-83.5-29.73-11,.92-21.25,4.38-32.2,5.29-17.77,1.47-35.48-3.85-52-9.56A797.12,797.12,0,0,1,224.08,48.24c-7.18-3.83-14.65-7.88-23.2-8.81-8.92-1-17.66,1.63-25.69,4.53a246.35,246.35,0,0,0-42.57,20c-16.08,9.6-32.76,21.51-53.38,20.67-12.07-.49-23.18-5.42-33.73-10.21l-30.83-14c-4.3-1.95-8.81-4-13.72-4.22H0V160.12H557.86Q531.82,147.13,507.29,132.39Z"/><path class="cls-2" d="M821.94,69c-7-2.72-14.34-5.52-22.24-5.1-7,.37-13.44,3.22-19.58,6l-44,20c-15.06,6.83-30.9,13.86-48.13,14.56-29.41,1.2-53.22-15.8-76.17-29.49a350.7,350.7,0,0,0-60.73-28.59c-11.46-4.14-23.93-7.84-36.66-6.46-12.2,1.32-22.85,7.1-33.1,12.57A1139.38,1139.38,0,0,1,316.62,124c-23.64,8.15-48.92,15.75-74.27,13.65-15.63-1.3-30.32-6.23-45.95-7.55-35.63-3-68.32,12.64-98.38,30.06H1055Z"/><path class="cls-2" d="M265.92,68.49a20.5,20.5,0,0,1-6.83-.4c-5.51-1.36-8.91-5.16-14.7-4.34a6.14,6.14,0,0,0-4,2.07c-5.11,5.88-3.21,12.76-10.54,18.18a11.8,11.8,0,0,1-8.51,2.09,6.52,6.52,0,0,1-3.69-1.56c-2-1.72-2.1-4.22-6.46-4.83a16.56,16.56,0,0,0-7.95,1.18c-6.71,2.57-11.31,6-18.33,8.4a16.07,16.07,0,0,1-7.73,1,10.14,10.14,0,0,1-3.9-1.44c-6.6-4.07-5.36-9.11-7.77-13.76a3.34,3.34,0,0,0-2-1.75c-3-1.12-7.48-.13-10.29.92A99.21,99.21,0,0,0,139,81.15c-2.94,1.68-5.57,3.54-9.67,4.76s-10.41,1.6-14.86.35c-5.71-1.67-5.6-5-4.55-7.64a48.71,48.71,0,0,1,2.86-5.87c9.7-5.6,19.38-10.87,28.72-15.55,22-10.86,41.74-18.33,55.2-18.14a43.61,43.61,0,0,1,8,.95h.11C220.92,43.3,243,54.44,265.92,68.49Z"/><path class="cls-2" d="M275,111.08c-5.9,0-5.91,9.16,0,9.16S280.91,111.08,275,111.08Z"/><path class="cls-2" d="M304.9,102.56a4.58,4.58,0,0,0-1.18-2l-.93-.71a4.48,4.48,0,0,0-2.31-.63h-.85a3.49,3.49,0,0,0-1.77.4,3.38,3.38,0,0,0-1.47.94,3.49,3.49,0,0,0-.95,1.48,3.33,3.33,0,0,0-.39,1.76c.05.41.1.82.16,1.22a4.55,4.55,0,0,0,1.18,2l.92.72a4.72,4.72,0,0,0,2.32.63h.85a5.16,5.16,0,0,0,3.24-1.35,3.38,3.38,0,0,0,.94-1.47,3.49,3.49,0,0,0,.4-1.77C305,103.37,305,103,304.9,102.56Z"/><path class="cls-2" d="M301.33,118.72c-5.9,0-5.91,9.17,0,9.17S307.23,118.72,301.33,118.72Z"/><path class="cls-2" d="M1115.46,56a4.08,4.08,0,0,0-3.4-.45,3.39,3.39,0,0,0-1.64.76l-.86.87a4.49,4.49,0,0,0-.89,2.16c0,.39,0,.78,0,1.17a4.63,4.63,0,0,0,.91,2.22l.52.67a3.42,3.42,0,0,0,1.39,1.17,4.16,4.16,0,0,0,3.39.45,3.41,3.41,0,0,0,1.64-.77l.87-.87a4.49,4.49,0,0,0,.89-2.16V60a4.53,4.53,0,0,0-.91-2.22l-.51-.67A3.38,3.38,0,0,0,1115.46,56Z"/><path class="cls-2" d="M1147.54,69.88a3.5,3.5,0,0,0-1.65-.59h-1.17a4.63,4.63,0,0,0-2.22.91l-.87.87a4.67,4.67,0,0,0-.89,2.17l-.15,1.19a3.36,3.36,0,0,0,.14,1.75,4.13,4.13,0,0,0,2.15,2.8,3.44,3.44,0,0,0,1.65.6h1.17a4.63,4.63,0,0,0,2.22-.91l.86-.87a4.57,4.57,0,0,0,.89-2.17c0-.39.11-.79.16-1.19a3.42,3.42,0,0,0-.15-1.74,3.38,3.38,0,0,0-.76-1.65A3.44,3.44,0,0,0,1147.54,69.88Z"/><path class="cls-2" d="M1118.58,78.16a3.61,3.61,0,0,0-1.65-.59,3.57,3.57,0,0,0-1.75.14,3.53,3.53,0,0,0-1.64.76l-.87.88a4.59,4.59,0,0,0-.89,2.16v1.17a4.53,4.53,0,0,0,.91,2.22l1,1.35a3.54,3.54,0,0,0,1.39,1.16,4.16,4.16,0,0,0,3.39.45,3.57,3.57,0,0,0,1.65-.76l.86-.87a4.57,4.57,0,0,0,.89-2.17c0-.39,0-.78,0-1.17a4.63,4.63,0,0,0-.91-2.22l-1-1.34A3.39,3.39,0,0,0,1118.58,78.16Z"/><path class="cls-2" d="M1121.78,108.87a3.53,3.53,0,0,0-1.65-.59,3.58,3.58,0,0,0-1.75.14,3.5,3.5,0,0,0-1.64.77l-.86.87a4.49,4.49,0,0,0-.89,2.16c0,.39,0,.78,0,1.17a4.63,4.63,0,0,0,.91,2.22l1,1.35a3.54,3.54,0,0,0,1.39,1.16,3.32,3.32,0,0,0,1.65.59,3.36,3.36,0,0,0,1.75-.14,3.53,3.53,0,0,0,1.64-.76l.87-.87a4.55,4.55,0,0,0,.88-2.17c0-.39,0-.78,0-1.17a4.63,4.63,0,0,0-.91-2.22l-1-1.34A3.48,3.48,0,0,0,1121.78,108.87Z"/><path class="cls-2" d="M1144.31,97.69c-4.68,3.59.89,10.87,5.57,7.28S1149,94.1,1144.31,97.69Z"/><path class="cls-2" d="M1176.36,81a3.51,3.51,0,0,0-1.65-.6,3.46,3.46,0,0,0-1.75.15,3.39,3.39,0,0,0-1.64.76l-.87.87a4.63,4.63,0,0,0-.89,2.16v1.18a4.5,4.5,0,0,0,.91,2.21l.51.68a3.54,3.54,0,0,0,1.39,1.16,3.42,3.42,0,0,0,1.65.59,3.46,3.46,0,0,0,1.75-.14,3.58,3.58,0,0,0,1.64-.76l.87-.87a4.55,4.55,0,0,0,.88-2.17c0-.39,0-.78,0-1.17a4.63,4.63,0,0,0-.91-2.22l-.52-.67A3.43,3.43,0,0,0,1176.36,81Z"/><path class="cls-2" d="M1182.29,106.58a4.16,4.16,0,0,0-3.39-.45,3.57,3.57,0,0,0-1.65.76l-.86.87a4.57,4.57,0,0,0-.89,2.17c0,.39,0,.78,0,1.17a4.63,4.63,0,0,0,.91,2.22l.52.67a5.17,5.17,0,0,0,3,1.76,3.42,3.42,0,0,0,1.74-.15,3.3,3.3,0,0,0,1.64-.76l.87-.87a4.49,4.49,0,0,0,.89-2.16c0-.39,0-.78,0-1.18a4.64,4.64,0,0,0-.91-2.21l-.52-.68A3.54,3.54,0,0,0,1182.29,106.58Z"/><path class="cls-1" d="M879.77,109.71a4.09,4.09,0,0,0-3.37-.6,3.47,3.47,0,0,0-1.67.69l-.91.83a4.64,4.64,0,0,0-1,2.12c0,.39,0,.78-.05,1.18a4.58,4.58,0,0,0,.81,2.25l.49.69a3.42,3.42,0,0,0,1.33,1.23,3.51,3.51,0,0,0,1.62.66,3.35,3.35,0,0,0,1.75-.07,3.5,3.5,0,0,0,1.68-.69l.9-.83a4.54,4.54,0,0,0,1-2.12l.06-1.17a4.58,4.58,0,0,0-.81-2.26l-.49-.69A3.42,3.42,0,0,0,879.77,109.71Z"/><path class="cls-1" d="M911.21,125a3.33,3.33,0,0,0-1.62-.66l-1.17-.06a4.49,4.49,0,0,0-2.25.82l-.91.83a4.64,4.64,0,0,0-1,2.12l-.21,1.18a5.09,5.09,0,0,0,.76,3.43,5.17,5.17,0,0,0,3,1.89l1.17.05a4.58,4.58,0,0,0,2.25-.81c.3-.28.6-.56.91-.83a4.73,4.73,0,0,0,1-2.13l.21-1.18a3.45,3.45,0,0,0-.07-1.75,3.54,3.54,0,0,0-.69-1.68A3.49,3.49,0,0,0,911.21,125Z"/><path class="cls-1" d="M881.92,132a3.52,3.52,0,0,0-1.62-.67,3.57,3.57,0,0,0-1.75.07,3.47,3.47,0,0,0-1.67.69L876,133a4.58,4.58,0,0,0-1,2.13l-.06,1.17a4.59,4.59,0,0,0,.82,2.25l1,1.39a3.42,3.42,0,0,0,1.34,1.22,4.09,4.09,0,0,0,3.37.6,3.47,3.47,0,0,0,1.67-.69l.91-.83a4.54,4.54,0,0,0,1-2.12c0-.39,0-.78,0-1.18a4.58,4.58,0,0,0-.81-2.25l-1-1.39A3.42,3.42,0,0,0,881.92,132Z"/><path class="cls-1" d="M906.78,147.89c-4.83,3.38.42,10.89,5.26,7.51S911.62,144.5,906.78,147.89Z"/><path class="cls-1" d="M939.53,137.35a3.52,3.52,0,0,0-1.63-.67,3.57,3.57,0,0,0-1.75.07,3.47,3.47,0,0,0-1.67.69c-.3.28-.6.56-.91.83a4.68,4.68,0,0,0-1,2.13c0,.39,0,.78-.05,1.17a4.58,4.58,0,0,0,.81,2.25l.49.7a5,5,0,0,0,2.95,1.88,5,5,0,0,0,3.43-.75l.9-.84a4.54,4.54,0,0,0,1-2.12l.06-1.17a4.54,4.54,0,0,0-.81-2.25l-.49-.7A3.46,3.46,0,0,0,939.53,137.35Z"/><path class="cls-1" d="M962.13,147.45a3.42,3.42,0,0,0-1.62-.67,3.35,3.35,0,0,0-1.75.07,3.47,3.47,0,0,0-1.67.69l-.91.83a4.54,4.54,0,0,0-1,2.12l-.06,1.18a4.59,4.59,0,0,0,.82,2.25l.48.7a3.57,3.57,0,0,0,1.34,1.22,3.51,3.51,0,0,0,1.62.66,3.35,3.35,0,0,0,1.75-.07,3.47,3.47,0,0,0,1.67-.69c.31-.27.61-.55.91-.83a4.54,4.54,0,0,0,1-2.12l.06-1.17a4.49,4.49,0,0,0-.82-2.26l-.48-.69A3.49,3.49,0,0,0,962.13,147.45Z"/><path class="cls-3" d="M893.7,96.89a31.09,31.09,0,0,1-8.55-.75c-6.88-1.69-11-5.8-18.33-5.23a8.21,8.21,0,0,0-5.11,2c-6.57,5.85-4.37,13.08-13.73,18.35A17,17,0,0,1,837.25,113a9.19,9.19,0,0,1-4.58-1.8c-2.43-1.88-2.53-4.49-8-5.33a24.52,24.52,0,0,0-10,.82c-8.49,2.34-14.36,5.64-23.24,7.82a24.19,24.19,0,0,1-9.72.67,14.69,14.69,0,0,1-4.86-1.69c-8.17-4.55-6.48-9.72-9.37-14.66a4,4,0,0,0-2.43-1.92c-3.67-1.31-9.37-.5-12.93.45a133.54,133.54,0,0,0-18,6.45c-3.74,1.6-7.08,3.4-12.26,4.46a46.68,46.68,0,0,1-11.8.69c-3.19-.2-8.36-.29-9.81-3.8a4.72,4.72,0,0,1,.53-4.48c1.27-1.76,3.55-2.39,5.61-3.07,8.65-2.82,45.42-23.62,56.87-27,10.78-3.21,21.8-6,33-7.21a72.53,72.53,0,0,1,11.41-.4,66.17,66.17,0,0,1,10,1.37h.14C837.94,68.52,865.32,81.17,893.7,96.89Z"/><path class="cls-2" d="M987.38,31a12.13,12.13,0,0,0,4.13-.24c3.33-.82,5.39-3.12,8.9-2.62a3.72,3.72,0,0,1,2.44,1.25c3.09,3.56,1.94,7.72,6.38,11a7.08,7.08,0,0,0,5.15,1.26,4,4,0,0,0,2.24-.94c1.19-1,1.27-2.56,3.91-2.93a10,10,0,0,1,4.81.71c4.06,1.56,6.85,3.62,11.1,5.09a9.78,9.78,0,0,0,4.68.62,6.19,6.19,0,0,0,2.36-.88c4-2.46,3.25-5.51,4.71-8.33a2,2,0,0,1,1.19-1.06c1.79-.68,4.53-.08,6.23.56a60.62,60.62,0,0,1,8.61,4.17c7.81,4.69,19.36,5,28,2.16a3,3,0,0,0,2.09-1.52,2.16,2.16,0,0,0-.6-2.17,6.23,6.23,0,0,0-2-1.21q-7.85-3.42-16-6.15c-2.47-.82-11.13-4.69-13-5.61-13.29-6.58-25.28-11.1-33.43-11a26,26,0,0,0-4.83.57h-.06C1014.62,15.76,1001.26,22.51,987.38,31Z"/></g></g></svg>