<svg xmlns="http://www.w3.org/2000/svg" viewBox="0 0 218.95 77.01"><defs><style>.cls-1{isolation:isolate;}.cls-2,.cls-4{fill:#c2ad89;}.cls-3{opacity:0.3;}.cls-3,.cls-4{mix-blend-mode:multiply;}.cls-5{fill:#775029;}</style></defs><g class="cls-1"><g id="圖層_2" data-name="圖層 2"><g id="圖層_3" data-name="圖層 3"><path class="cls-2" d="M23.79,6.86A106.78,106.78,0,0,1,46.67,0S88.48,1.51,96.76,5s38.65,5,53.37,7.49,32.71,3.15,36.31,3.28-2.06,1.53,8.32,2.3S203.1,20,207.5,20.13,219,24.54,219,24.54s-2,21.94-7.33,26.15l-5.35,4.22s3.17.91,2.11,8.08A44.36,44.36,0,0,0,208,74.58s-8.15,4.11-21.67,1.64-28.61-5.82-37.05-4.92-16.72-2.59-16.72-2.59-28.88,1.78-38.74-2.17-10.27-4-19.06-4.28S41,57.84,41,57.84,2.55,28.5.27,21.69,10.56,12.33,23.79,6.86Z"/><polygon class="cls-4" points="206.27 54.91 174.66 48.82 210.66 51.45 206.27 54.91"/><path class="cls-5" d="M57.09,40.77a3.44,3.44,0,0,1-1-.71,2.86,2.86,0,0,1-.38-2l1.77-14.64c.12-1,.59-1.39,1.43-1.29a1.13,1.13,0,0,1,.86.46A1.71,1.71,0,0,1,60,23.7L58.29,37.49q-.16,1.3,1.23,1.5l6.57.79L68.49,20A1.64,1.64,0,0,1,68.93,19a1.12,1.12,0,0,1,1-.25c.81.1,1.16.64,1,1.61L68.54,40.08l6.66.8a1.23,1.23,0,0,0,1.56-1.15l1.66-13.79c.12-1,.59-1.39,1.4-1.29a1.17,1.17,0,0,1,.89.46,1.71,1.71,0,0,1,.16,1.12L79.09,40.88a2.83,2.83,0,0,1-1.06,2,2.58,2.58,0,0,1-2.08.34L58.24,41.07A4,4,0,0,1,57.09,40.77Z"/><path class="cls-5" d="M85.63,44.31a2.45,2.45,0,0,1-.35-2.09l2.15-17.77a2.77,2.77,0,0,1,.92-2,2.75,2.75,0,0,1,2.19-.31L111,24.64c.89.1,1.29.51,1.21,1.21s-.57,1-1.47.86L91.1,24.33a1,1,0,0,0-1.23,1L87.84,42a1,1,0,0,0,1,1.21L109,45.67c.91.11,1.32.52,1.24,1.22s-.58,1-1.49.86l-21-2.54A3.2,3.2,0,0,1,85.63,44.31Zm4-4.62L90,36.51c.17-1.4,1-2,2.5-1.83l4.53.55c1.48.18,2.13,1,2,2.37l-.39,3.18a1.92,1.92,0,0,1-2.46,1.83l-4.54-.55Q89.38,41.79,89.63,39.69Zm7,.28.25-2.07q.07-.72-.72-.87L93,36.64a.72.72,0,0,0-.91.68l-.25,2.07a.74.74,0,0,0,.72.9l3.19.39A.77.77,0,0,0,96.62,40Zm-3.5-7.22a2,2,0,0,1-.29-1.7l.32-2.63a1.89,1.89,0,0,1,2.53-1.91L106,27.77a2.57,2.57,0,0,1,1.74.74,2.11,2.11,0,0,1,.29,1.75l-.31,2.57a1.9,1.9,0,0,1-2.56,1.9L94.83,33.48A2.58,2.58,0,0,1,93.12,32.75Zm12.4-.73.18-1.54c.07-.52-.19-.83-.77-.94l-8.69-1.05a.78.78,0,0,0-.95.7l-.19,1.6q-.09.75.75.9l8.69,1.06A.8.8,0,0,0,105.52,32Zm-5.6,8.91.39-3.17a1.93,1.93,0,0,1,2.46-1.84l4.83.59a1.91,1.91,0,0,1,1.92,2.39L109.15,42a1.93,1.93,0,0,1-2.44,1.87l-4.83-.59C100.4,43.12,99.75,42.33,99.92,40.93Zm7.17.31.25-2.07a.72.72,0,0,0-.14-.59,1,1,0,0,0-.58-.28l-3.38-.41a.71.71,0,0,0-.91.67l-.25,2.08c-.06.49.18.79.72.89l3.38.41A.71.71,0,0,0,107.09,41.24Z"/><path class="cls-5" d="M113.52,48.27c0-.37.18-.59.41-.68a5.08,5.08,0,0,1,1.1,0l1.14,0a36.65,36.65,0,0,0,4.43-.19l2.62-.19c.73.09,1.06.48,1,1.16-.06.48-.55.76-1.47.86a38,38,0,0,1-8.38.27C113.71,49.42,113.44,49,113.52,48.27Zm1.67-14c0-.35.61-.84,1.71-1.45,1.37-.77,2.35-1.35,2.95-1.74a1.66,1.66,0,0,1,1.14-.37c.76.09,1.09.47,1,1.13,0,.41-.92,1.14-2.62,2.21s-2.77,1.6-3.23,1.54Q115,35.48,115.19,34.29Zm1.73,9.32.72-6c.09-1.88,1.1-2.62,3-2.24l15.12,1.83c2,.09,2.76,1.05,2.4,2.9l-.72,6q-.14,2.79-3,2.25l-15.12-1.83Q116.38,46.35,116.92,43.61Zm2.8-16-1.08-.8c-.51-.36-.74-.71-.7-1.07.08-.68.5-1,1.26-.88a8.77,8.77,0,0,1,2,1.17c1.13.73,1.67,1.32,1.62,1.76a1.2,1.2,0,0,1-.4.85,1.29,1.29,0,0,1-.94.17A6.44,6.44,0,0,1,119.72,27.57ZM135.1,45.81l.08-.66-15.85-1.92-.08.66c-.08.63.21,1,.87,1.06L134,46.63A.84.84,0,0,0,135.1,45.81Zm.27-2.21.19-1.6-15.85-1.92-.19,1.6Zm.45-3.76a.84.84,0,0,0-.84-1.05L121.07,37.1a.86.86,0,0,0-1.1.82l-.07.61,15.85,1.92Zm-4.63-7.29h-.06a8.13,8.13,0,0,1-4,2.29,11.6,11.6,0,0,1-4.55.55,1.11,1.11,0,0,1-.73-.33,1,1,0,0,1-.14-.73c.06-.56.41-.83,1-.83a13.11,13.11,0,0,0,5.21-1,4.37,4.37,0,0,0,2.5-2.71l-3.75-.46-.33.27c-1.18,1-2,1.44-2.53,1.38a.9.9,0,0,1-.89-1.12c0-.27.29-.57.78-.89l.64-.39a7.68,7.68,0,0,0,.81-.58q1.22-1.05,1.71-1.5c.67-.59,1.18-.87,1.55-.82.78.09,1.13.4,1.07.91,0,.28-.37.69-1,1.23l10.82,1.31c1.31.15,1.92.65,1.82,1.48,0,.35-.74,1-2.1,2a11.3,11.3,0,0,1-1.58,1,2.05,2.05,0,0,1-.94.33,1.19,1.19,0,0,1-.75-.32,1,1,0,0,1-.16-.75c0-.26.27-.51.72-.75,1-.61,1.53-1,1.56-1.19a.28.28,0,0,0-.07-.19.34.34,0,0,0-.2-.09L132.55,30l-.3.8q2.1,3.57,8.18,5.11c.69.16,1,.53.92,1.12a1,1,0,0,1-1.27,1l-.63-.16Q133.11,36,131.19,32.55Zm.16,17.94a6.44,6.44,0,0,1-1.5-.76q-.53-.39-.48-.72c.08-.66.51-.94,1.28-.85l.54.18a45.69,45.69,0,0,0,6.93,2,3.69,3.69,0,0,1,1.25.46.72.72,0,0,1,.32.72.94.94,0,0,1-1.2.92A31.13,31.13,0,0,1,131.35,50.49Z"/><path class="cls-5" d="M153.25,47l-.52,4.28c-.18,1.47-1.06,2.11-2.65,1.92l-3.61-.44a2.58,2.58,0,0,1-1.7-.76,2,2,0,0,1-.42-1.68l.52-4.34c.18-1.45,1.06-2.09,2.65-1.89l3.61.43C152.72,44.75,153.42,45.57,153.25,47Zm2.55-12.09c-.08.67-.54,1-1.4.84l-8-1c-.84-.11-1.22-.49-1.14-1.15s.54-1,1.38-.85l8,1C155.5,33.9,155.88,34.28,155.8,34.94Zm-2,7.22c-.08.63-.52.89-1.34.79l-5.93-.71c-.84-.11-1.21-.47-1.14-1.09s.52-.92,1.31-.83l6,.73Q154,41.2,153.84,42.16Zm.44-3.67c-.07.62-.52.89-1.33.79l-6-.73q-1.2-.13-1.08-1.11c.08-.62.51-.89,1.31-.79l6,.72C154,37.47,154.36,37.84,154.28,38.49Zm-3.17,8.64c.06-.48-.16-.75-.67-.81L147.77,46a.68.68,0,0,0-.85.62l-.43,3.57a.67.67,0,0,0,.67.84l2.67.32a.69.69,0,0,0,.85-.66Zm-4.42-17.08c.08-.66.52-.94,1.34-.84l6.14.74c.85.1,1.23.49,1.15,1.15s-.54.94-1.4.84l-6.13-.74C147,31.1,146.61,30.72,146.69,30.05Zm23.6,19.8a15,15,0,0,1-.25,2,6.63,6.63,0,0,1-1.21,3,1.87,1.87,0,0,1-1.7.65,1.7,1.7,0,0,1-1.18-.81,4.78,4.78,0,0,1-.71-2.08,31,31,0,0,1,.06-8l.95-8.6.15-1a1.07,1.07,0,0,0-.23-1,1.57,1.57,0,0,0-1-.36l-3-.37-.86,7.13,1.77.21c.82.1,1.18.49,1.1,1.17a.9.9,0,0,1-.41.7,1.36,1.36,0,0,1-.93.15L161,42.36l-1.36,11.16c-.1.83-.52,1.2-1.25,1.11a1.14,1.14,0,0,1-.81-.42,1.44,1.44,0,0,1-.18-1l1.36-11.17-2-.24c-.83-.1-1.21-.49-1.13-1.17s.54-1,1.37-.85l2,.25.86-7.13-2.73-.33c-.91-.11-1.33-.51-1.24-1.19s.58-1,1.49-.86l8.87,1.08q2.85.34,2.58,2.58l-.1.55-1.31,11.31a31.74,31.74,0,0,0-.26,4.69c.06,1.08.24,1.64.55,1.68s.28-.22.38-.71.24-1.39.42-2.7a.82.82,0,0,1,1-.8c.58.07.84.42.79,1A3.39,3.39,0,0,0,170.29,49.85Z"/></g></g></g></svg>