<svg xmlns="http://www.w3.org/2000/svg" viewBox="0 0 218.95 77.01"><defs><style>.cls-1{isolation:isolate;}.cls-2,.cls-4{fill:#c2ad89;}.cls-3{opacity:0.3;}.cls-3,.cls-4{mix-blend-mode:multiply;}.cls-5{fill:#775029;}</style></defs><g class="cls-1"><g id="圖層_2" data-name="圖層 2"><g id="圖層_3" data-name="圖層 3"><path class="cls-2" d="M195.16,6.86A106.78,106.78,0,0,0,172.28,0s-41.81,1.51-50.09,5S83.54,10,68.82,12.5s-32.71,3.15-36.31,3.28,2.06,1.53-8.32,2.3S15.85,20,11.45,20.13,0,24.54,0,24.54,2,46.48,7.33,50.69l5.35,4.22s-3.17.91-2.11,8.08A44.36,44.36,0,0,1,11,74.58s8.15,4.11,21.67,1.64S61.26,70.4,69.7,71.3s16.72-2.59,16.72-2.59,28.88,1.78,38.74-2.17,10.27-4,19.06-4.28,33.71-4.42,33.71-4.42S216.4,28.5,218.68,21.69,208.39,12.33,195.16,6.86Z"/><polygon class="cls-4" points="12.68 54.91 44.28 48.82 8.28 51.45 12.68 54.91"/><path class="cls-5" d="M57.48,43A.94.94,0,0,1,57,44l-2.13,1L55.7,52a2.69,2.69,0,0,1-.57,2.2,3.05,3.05,0,0,1-2.05.91l-1.36.16c-.89.1-1.39-.25-1.48-1.06s.31-1.24,1.2-1.35l1-.11c.64-.07.94-.46.89-1.17l-.66-5.72a21.29,21.29,0,0,1-2.84,1,1,1,0,0,1-1.29-1,.9.9,0,0,1,.29-.8,3.27,3.27,0,0,1,1.14-.62l2.44-.85-.74-6.3-2.59.3a1.67,1.67,0,0,1-1-.13.94.94,0,0,1-.41-.74c-.08-.7.33-1.1,1.22-1.2l2.59-.3L51,31.42c-.1-.85.24-1.31,1-1.41s1.22.29,1.32,1.14L53.72,35l1.66-.2c.87-.1,1.35.2,1.43.9a.94.94,0,0,1-.23.81,1.71,1.71,0,0,1-1,.37L54,37l.66,5.69,1.7-.64A.91.91,0,0,1,57.48,43Zm18.31,7.79c.08.7-.32,1.1-1.19,1.2L63,53.31q-2.91.55-3-2.28l-1.42-12.2a7.73,7.73,0,0,1-1,1.57c-.32.38-.59.58-.82.6a.94.94,0,0,1-1.17-1A1.84,1.84,0,0,1,56,38.93a23.23,23.23,0,0,0,3.22-8.78,1.89,1.89,0,0,1,.42-.9,1.2,1.2,0,0,1,.76-.39c.8-.09,1.24.21,1.32.92a20.34,20.34,0,0,1-1.21,4.34l4.63-.54a32.88,32.88,0,0,0,1-3.48q.39-1.7,1.29-1.8c.78-.09,1.21.21,1.29.89s-.38,1.93-1.32,4.13L72,32.78c.91-.11,1.4.19,1.49.89s-.34,1.08-1.25,1.19l-4.63.53.4,3.46,4.22-.49c.84-.1,1.29.18,1.37.85a.93.93,0,0,1-.22.81,1.48,1.48,0,0,1-.91.36l-4.22.49.4,3.43,4.22-.5c.83-.09,1.29.2,1.37.88s-.3,1.07-1.14,1.17l-4.22.49.48,4.12,5-.58C75.23,49.78,75.71,50.07,75.79,50.75ZM65.36,35.66l-4,.46a.8.8,0,0,0-.6.26,1.09,1.09,0,0,0-.11.67l.3,2.62,4.83-.56Zm1,8.9L66,41.13l-4.83.56.4,3.43Zm.23,2-4.83.57.36,3.06a1.1,1.1,0,0,0,.33.79,1.45,1.45,0,0,0,.9.14l3.72-.44Z"/><path class="cls-5" d="M76.93,29.91c-.07-.61.26-.95,1-1l5.82-.67-.12-1c-.07-.62.26-1,1-1.06s1.17.18,1.25.8l.11,1,7.69-.9-.12-1a.9.9,0,0,1,.18-.74,1.64,1.64,0,0,1,1.69-.19.93.93,0,0,1,.34.67l.12,1,6-.71c.74-.09,1.14.18,1.21.78s-.26,1-1,1.05l-6.05.7.1.86a.92.92,0,0,1-.18.76,1.2,1.2,0,0,1-.81.33,1.26,1.26,0,0,1-.87-.13.94.94,0,0,1-.35-.71l-.1-.85-7.68.89.1.86a.89.89,0,0,1-.2.76,1.31,1.31,0,0,1-.83.34c-.73.08-1.14-.2-1.21-.84l-.1-.86-5.82.68C77.4,30.78,77,30.52,76.93,29.91Zm26.55,1c.07.57-.29.9-1.06,1l-7.4.86.16,1.36,5-.58c1.47-.17,2.28.36,2.42,1.59l.13,1.11c.15,1.29-.51,2-2,2.11L87,40l0,.31-.05.32v.58l15.94-1.85a1.28,1.28,0,0,1,.81.1A.79.79,0,0,1,104,40c.06.54-.25.84-.93.92L86.75,42.83v.62a.49.49,0,0,0,.23.45.81.81,0,0,0,.57.1l14.69-1.7a2.47,2.47,0,0,1,1.72.29,1.78,1.78,0,0,1,.72,1.33c.25,2.19.09,3.69-.49,4.48s-1.74,1.21-3.61,1.43c-.87.1-1.35-.21-1.43-.93s.39-1.06,1.39-1.2,1.52-.37,1.72-.73a5,5,0,0,0,.07-2.41.53.53,0,0,0-.23-.44.93.93,0,0,0-.56-.06L86.74,45.78a2.47,2.47,0,0,1-1.63-.25,1.48,1.48,0,0,1-.69-1.16l.23-4.12L82,40.56a28.91,28.91,0,0,1,0,7.84,8.52,8.52,0,0,1-.65,2.27,1.3,1.3,0,0,1-1,.83c-.76.09-1.18-.23-1.26-.94a2.91,2.91,0,0,1,.3-1.22q1.17-2.88.28-10.48L79.29,35c-.16-1.38.58-2.17,2.21-2.36l7.68-.89L89.09,31c-.08-.66.27-1,1-1.13s1.2.2,1.28.86l.09.78,10.71-1.25Q103.38,30.09,103.48,30.94ZM86.19,35.2,86,33.84l-3.78.44a.83.83,0,0,0-.82,1l0,.41Zm.38,3.23-.2-1.66-4.71.55L81.85,39ZM86,46.75a.89.89,0,0,1,.29.65l-.06.52c-.39,2-.94,3.1-1.66,3.19s-1.08-.18-1.15-.79a3.22,3.22,0,0,1,.29-1,14.69,14.69,0,0,0,.6-1.75c.17-.58.48-.9,1-.95A1,1,0,0,1,86,46.75ZM93,34.4l-.16-1.35-4.68.54.15,1.35Zm-2.5,13a5.29,5.29,0,0,1,.77,1.76c.07.57-.23.89-.89,1a1,1,0,0,1-.68-.14,1.65,1.65,0,0,1-.48-.7l-.92-2a.8.8,0,0,1,.15-.64,1.15,1.15,0,0,1,.72-.28C89.65,46.31,90.09,46.67,90.53,47.44Zm2.87-9.81L93.21,36l-4.68.54.19,1.66Zm1.5,9.08a5.4,5.4,0,0,1,.78,1.61c.07.56-.22.87-.86,1s-1-.44-1.54-1.51l-.5-1a.93.93,0,0,1,.11-.76,1.06,1.06,0,0,1,.69-.29C94,45.66,94.46,46,94.9,46.71Zm.44-11,.19,1.68,4.22-.49a.63.63,0,0,0,.5-.26,1.21,1.21,0,0,0,.09-.76q-.09-.75-.78-.66ZM99,48.05c-.43.05-.88-.31-1.36-1.07A8.31,8.31,0,0,1,97,45.9c-.06-.52.21-.81.81-.88.41-.05.83.2,1.27.75a3,3,0,0,1,.71,1.32C99.88,47.66,99.6,48,99,48.05Z"/><path class="cls-5" d="M110.27,47.22l-1.6-13.77a2.74,2.74,0,0,1,.4-2.08,2.68,2.68,0,0,1,2-.78l2.88-.33-.91-3-5,.58c-.87.11-1.35-.18-1.42-.87s.31-1.1,1.18-1.2l10.48-1.22-.15-1.24c-.08-.72.33-1.13,1.22-1.24s1.32.21,1.4.93l.15,1.25L131.69,23c.9-.1,1.38.19,1.47.9s-.33,1.07-1.22,1.17l-5.18.61-.43,3.16,3.34-.39a3,3,0,0,1,2.15.35,2.31,2.31,0,0,1,.8,1.88L134,42.88q.59,3-2.65,3.14l-1.92.22c-.83.1-1.29-.24-1.38-1s.28-1.21,1.12-1.31l1.42-.17a1,1,0,0,0,1-1.2l-1.3-11.2c-.07-.62-.45-.92-1.14-.87l-5.76.67.29,2.43c.07.62.61.88,1.62.76a5.5,5.5,0,0,0,1.83-.44c.25-.12.36-.42.34-.9a1.11,1.11,0,0,1,.18-.77.93.93,0,0,1,.67-.31c.64-.08,1,.17,1.06.74a3.89,3.89,0,0,1-.35,2.28c-.3.54-1.35.92-3.18,1.13l-.93.11a5.31,5.31,0,0,1-2.43-.08,1.48,1.48,0,0,1-.72-1.15l-.42-3.57-2.79.33a6,6,0,0,1-2.46,5.21,5.71,5.71,0,0,1-2.23,1.33,1.22,1.22,0,0,1-.85-.15,1.07,1.07,0,0,1-.35-.75c0-.4.27-.8,1-1.17A5,5,0,0,0,116.43,32l-4.43.51a.94.94,0,0,0-.93,1.12l1.56,13.35c.1.89-.24,1.38-1,1.46S110.37,48.1,110.27,47.22ZM116,45a2.11,2.11,0,0,1-.67-1.61l-.31-2.65a2.3,2.3,0,0,1,.33-1.73,2.08,2.08,0,0,1,1.63-.68l8.47-1a2.49,2.49,0,0,1,1.82.32,2.07,2.07,0,0,1,.67,1.58l.31,2.65a2.37,2.37,0,0,1-.34,1.76,2.23,2.23,0,0,1-1.65.69l-8.47,1A2.48,2.48,0,0,1,116,45Zm8.39-19L115.35,27a31,31,0,0,1,.91,3l7.77-.91A27.26,27.26,0,0,0,124.43,25.93ZM126,41.72l-.21-1.8a.7.7,0,0,0-.87-.66l-6.9.81c-.52.06-.76.34-.7.83l.21,1.8a.7.7,0,0,0,.87.66l6.9-.81C125.82,42.49,126.06,42.21,126,41.72Z"/><path class="cls-5" d="M140.61,43.76a2.57,2.57,0,0,1-.85-1.91l-.71-6.05a2.81,2.81,0,0,1,.42-2.1,2.69,2.69,0,0,1,2-.79l5.5-.64a3,3,0,0,1,2.18.36,2.45,2.45,0,0,1,.83,1.9l.7,6a2.73,2.73,0,0,1-.41,2.09,2.64,2.64,0,0,1-2,.82l-5.5.64A3.08,3.08,0,0,1,140.61,43.76Zm1.89-13.95a2.47,2.47,0,0,1-.84-2l-.49-4.26q-.54-2.82,2.56-3.07l11.61-1.35a3.37,3.37,0,0,1,2.39.38,2.42,2.42,0,0,1,.84,2l.49,4.25c.39,1.92-.48,2.95-2.59,3.08l-11.61,1.35A3.41,3.41,0,0,1,142.5,29.81Zm5.7,11.34a1.43,1.43,0,0,0,.14-1l-.53-4.56a1.43,1.43,0,0,0-.39-1,1.49,1.49,0,0,0-1.06-.14l-3.76.43a1.69,1.69,0,0,0-1,.38,1.46,1.46,0,0,0-.14,1.05l.53,4.56a1.44,1.44,0,0,0,.38,1,1.65,1.65,0,0,0,1.11.13l3.75-.44A1.54,1.54,0,0,0,148.2,41.15Zm8.28-14.64a1.43,1.43,0,0,0,.15-1.11l-.34-3c-.07-.54-.19-.88-.39-1a1.64,1.64,0,0,0-1.13-.12l-9.93,1.15a1.93,1.93,0,0,0-1.12.38,1.42,1.42,0,0,0-.12,1.08l.35,3a1.57,1.57,0,0,0,.38,1,1.67,1.67,0,0,0,1.17.13l9.89-1.15A1.72,1.72,0,0,0,156.48,26.51ZM154,42.2a2.3,2.3,0,0,1-.79-1.91l-.7-6.06a2.78,2.78,0,0,1,.4-2.09,2.65,2.65,0,0,1,2-.79l5.5-.64a3.05,3.05,0,0,1,2.18.36,2.5,2.5,0,0,1,.85,1.89l.71,6a2.29,2.29,0,0,1-2.44,2.92l-5.53.64A3,3,0,0,1,154,42.2Zm7.66-2.61a1.5,1.5,0,0,0,.14-1.06L161.26,34a1.46,1.46,0,0,0-.38-1,1.61,1.61,0,0,0-1.11-.12l-3.72.43a1.64,1.64,0,0,0-1.05.37,1.45,1.45,0,0,0-.14,1.06l.53,4.56a1.44,1.44,0,0,0,.38,1,1.57,1.57,0,0,0,1.1.12L160.6,40A1.69,1.69,0,0,0,161.65,39.59Z"/></g></g></g></svg>