<svg xmlns="http://www.w3.org/2000/svg" viewBox="0 0 218.95 77.01"><defs><style>.cls-1{isolation:isolate;}.cls-2,.cls-4{fill:#c2ad89;}.cls-3{opacity:0.3;}.cls-3,.cls-4{mix-blend-mode:multiply;}.cls-5{fill:#775029;}</style></defs><g class="cls-1"><g id="圖層_2" data-name="圖層 2"><g id="圖層_3" data-name="圖層 3"><path class="cls-2" d="M195.16,6.86A106.78,106.78,0,0,0,172.28,0s-41.81,1.51-50.09,5S83.54,10,68.82,12.5s-32.71,3.15-36.31,3.28,2.06,1.53-8.32,2.3S15.85,20,11.45,20.13,0,24.54,0,24.54,2,46.48,7.33,50.69l5.35,4.22s-3.17.91-2.11,8.08A44.36,44.36,0,0,1,11,74.58s8.15,4.11,21.67,1.64S61.26,70.4,69.7,71.3s16.72-2.59,16.72-2.59,28.88,1.78,38.74-2.17,10.27-4,19.06-4.28,33.71-4.42,33.71-4.42S216.4,28.5,218.68,21.69,208.39,12.33,195.16,6.86Z"/><polygon class="cls-4" points="12.68 54.91 44.28 48.82 8.28 51.45 12.68 54.91"/><path class="cls-5" d="M54.46,55.73l-.7-6a15.08,15.08,0,0,1-2.38,3.89c-1,1.2-1.69,1.82-2.05,1.86-.7.08-1.1-.27-1.19-1.06a1,1,0,0,1,.23-.69,7.39,7.39,0,0,1,.88-1,15.76,15.76,0,0,0,3.92-5.3l-4.07.47c-.88.1-1.35-.19-1.43-.87s.32-1,1.19-1.15l4.4-.51L53,42.8l-4.77.55a1.65,1.65,0,0,1-1-.12.91.91,0,0,1-.39-.73c-.08-.68.3-1.07,1.16-1.17l1.86-.21a29.28,29.28,0,0,0-1.14-3.71l-.05-.22-1,.12a.92.92,0,0,1-1.17-.9c-.08-.67.23-1,.93-1.12l4.57-.53-.18-1.58c-.11-.94.24-1.45,1.06-1.55s1.27.33,1.38,1.27l.19,1.58L58.92,34a.89.89,0,0,1,1.13.87.91.91,0,0,1-.9,1.15l-1.31.15-.35,4.1L59.73,40c.86-.1,1.32.19,1.4.87a.92.92,0,0,1-.21.8A1.65,1.65,0,0,1,60,42l-4.75.55.31,2.6,4.36-.51c.87-.1,1.35.19,1.43.87s-.32,1-1.19,1.15l-4.37.51.24,2a1.09,1.09,0,0,1,1-.68,5,5,0,0,1,2.07.83c1,.59,1.6,1.06,1.64,1.43a.92.92,0,0,1-.92,1.15,2.08,2.08,0,0,1-1.21-.45l-2.45-1.59.65,5.61c.1.86-.23,1.34-1,1.43S54.56,56.6,54.46,55.73Zm1.3-19.23v-.14l-5.1.59c.34.9.74,2.19,1.19,3.87v.06l3.61-.42ZM69.52,53.87,68.05,41.26l-3.87.45.17,1.94c.34,3.91.11,6.89-.67,9s-1.53,3.1-2.31,3.19A1.09,1.09,0,0,1,60,54.73c0-.28.22-.8.76-1.58A8,8,0,0,0,62,50.29a16.89,16.89,0,0,0,.36-4q-.06-2.27-.42-5.89l-.65-5.25a2.83,2.83,0,0,1,.29-1.85,4.13,4.13,0,0,1,2.2-1.16c1.29-.37,2.3-.69,3-1l.93-.33,1.22-.45a5.69,5.69,0,0,1,.91-.33,1.17,1.17,0,0,1,1.46,1.18c0,.46-.27.81-1,1.06-2.39.86-4.29,1.47-5.68,1.84-.84.21-1.2.9-1.06,2.06L64,39.52l8.15-1a1.1,1.1,0,0,1,.25,2.19l-2,.22,1.47,12.61c.1.9-.24,1.4-1,1.49S69.63,54.77,69.52,53.87Z"/><path class="cls-5" d="M86,51.93c-.09-.79.37-1.25,1.37-1.37l1.81-.21a1.23,1.23,0,0,0,1.22-1.45l-.62-5.29-11,1.28c-.93.11-1.44-.2-1.52-.94s.33-1.16,1.26-1.27l11-1.28L89,37.23l-8.62,1c-.91.11-1.41-.2-1.49-.92s.33-1.1,1.25-1.21l8.61-1-.46-4-1.22.17c-4.38.84-7.08,1.33-8.09,1.44s-1.65-.21-1.74-1a1.09,1.09,0,0,1,.34-.88,5,5,0,0,1,2.07-.47c1.52-.17,3.23-.45,5.16-.82,2.42-.47,4.39-.87,5.9-1.22q3.14-.71,4.87-1.24c1.42-.44,2.21-.68,2.37-.69,1-.11,1.47.26,1.58,1.13a.73.73,0,0,1-.25.59,2.76,2.76,0,0,1-.92.55,58.43,58.43,0,0,1-7.71,1.94l.49,4.17,7.91-.92a1.8,1.8,0,0,1,1.07.14,1,1,0,0,1,.42.78c.09.7-.33,1.1-1.24,1.21L91.38,37l.49,4.18,10.18-1.19c1-.11,1.5.2,1.59.94s-.36,1.16-1.33,1.27L92.13,43.34l.67,5.75a3,3,0,0,1-.44,2.61,3.52,3.52,0,0,1-2.56,1L87.61,53C86.61,53.09,86.05,52.74,86,51.93Z"/><path class="cls-5" d="M118,42.29a54.17,54.17,0,0,1-5,2.4q-3.8,1.66-4.14,1.71a1.13,1.13,0,0,1-1.4-1.15,1,1,0,0,1,.2-.84,17.66,17.66,0,0,1,3.62-1.57l-1.46-12.52-2.67.31c-.94.11-1.44-.2-1.53-.92s.34-1.13,1.27-1.24l8-.93c.93-.1,1.44.2,1.52.92s-.34,1.13-1.27,1.24l-2.91.34,1.38,11.89c.87-.35,1.8-.76,2.81-1.25a3.33,3.33,0,0,1,1-.35.9.9,0,0,1,1.13.91A1.05,1.05,0,0,1,118,42.29Zm16.44,3.63a1.41,1.41,0,0,1-.4,1.11,1.15,1.15,0,0,1-.69.45,2.66,2.66,0,0,1-1.13-.24q-.77-.27-2.31-.93a19.23,19.23,0,0,1-4.72-2.82,22.1,22.1,0,0,1-4.95,4.11,13.31,13.31,0,0,1-3.93,2c-.81.1-1.27-.3-1.38-1.18-.06-.52.42-1,1.45-1.52a21.28,21.28,0,0,0,7.08-5A15.51,15.51,0,0,1,120.93,38a29,29,0,0,1-1.92-5.5q-1.89,3.55-2.85,3.67a1.08,1.08,0,0,1-1.36-1.05c0-.22.24-.72.8-1.49a22.74,22.74,0,0,0,3.55-8.51c.16-.81.56-1.25,1.21-1.32.87-.1,1.35.2,1.43.9q.15,1.35-1.39,4.59l10.74-1.25a1.14,1.14,0,1,1,.26,2.26l-1.62.19,0,.48a17.83,17.83,0,0,1-3.13,10.64,21.78,21.78,0,0,0,3,1.78,25.34,25.34,0,0,0,3.58,1.38C134,45,134.4,45.41,134.46,45.92Zm-7.13-15.11-6.34.74q1.4,5.69,4,8.53A16,16,0,0,0,127.33,30.81Z"/><path class="cls-5" d="M138.32,41.1l-1.77-15.26a2,2,0,0,1,2.06-2.51l5.76-.67c1.56-.18,2.42.46,2.59,1.91l1.78,15.32a2,2,0,0,1-2.07,2.51l-5.76.67A2,2,0,0,1,138.32,41.1Zm2.42-16-1.4.16a.75.75,0,0,0-.72.9l.69,6,2.21-.26Zm1,8.65-2.21.26.74,6.33c.06.5.36.72.9.65l1.4-.16ZM145,25.42a.73.73,0,0,0-.88-.71l-1.51.17.79,6.78,2.3-.27Zm1.65,14.18-.74-6.33-2.29.27.82,7.07,1.51-.17A.7.7,0,0,0,146.64,39.6Zm1.74-4.35c-.06-.48.23-.91.88-1.31A21.31,21.31,0,0,0,154,30.31a12.63,12.63,0,0,1-2.66-4.37c-1,2.43-1.85,3.69-2.51,3.76s-1.09-.25-1.18-1a2,2,0,0,1,.43-1.11,17.55,17.55,0,0,0,2.6-6.33,1.28,1.28,0,0,1,1.14-1.11c.72-.08,1.11.18,1.18.79a5.53,5.53,0,0,1-.39,1.69l6.2-.72a2.25,2.25,0,0,1,1.44.21,1.18,1.18,0,0,1,.57.9,1.9,1.9,0,0,1-.08.77,11.91,11.91,0,0,1-1.06,2.34,30.1,30.1,0,0,1-2.64,3.95A14.06,14.06,0,0,0,161.62,32c1,.22,1.55.62,1.62,1.19a1,1,0,0,1-1,1.24,6.85,6.85,0,0,1-2.8-.77,20.83,20.83,0,0,1-3.77-2,27.56,27.56,0,0,1-3.41,2.95,7.17,7.17,0,0,1-2.71,1.55A.91.91,0,0,1,148.38,35.25Zm3.5,9a2.29,2.29,0,0,1-.78-1.79l-.5-4.31a3,3,0,0,1,.48-2.21,2.87,2.87,0,0,1,2-.91l5.38-.62a3,3,0,0,1,2.29.4,2.89,2.89,0,0,1,1,1.93l.51,4.4a2.53,2.53,0,0,1-.4,2,2.57,2.57,0,0,1-1.9.77l-6,.7A2.87,2.87,0,0,1,151.88,44.23Zm7.86-2.61a1,1,0,0,0,.18-.68L159.46,37c0-.41-.3-.6-.77-.58l-5.3.61a.64.64,0,0,0-.62.75l.46,4c.06.53.4.78,1,.75l4.86-.57A.9.9,0,0,0,159.74,41.62Zm-2.49-15.5a12.88,12.88,0,0,0,.85-1.61.82.82,0,0,0,0-.23c0-.18-.16-.26-.41-.23l-4.92.57a11.61,11.61,0,0,0,2.58,4.19A17.67,17.67,0,0,0,157.25,26.12Z"/></g></g></g></svg>