<svg xmlns="http://www.w3.org/2000/svg" viewBox="0 0 218.95 77.01"><defs><style>.cls-1{isolation:isolate;}.cls-2,.cls-4{fill:#c2ad89;}.cls-3{opacity:0.3;}.cls-3,.cls-4{mix-blend-mode:multiply;}.cls-5{fill:#775029;}</style></defs><g class="cls-1"><g id="圖層_2" data-name="圖層 2"><g id="圖層_3" data-name="圖層 3"><path class="cls-2" d="M23.79,6.86A106.78,106.78,0,0,1,46.67,0S88.48,1.51,96.76,5s38.65,5,53.37,7.49,32.71,3.15,36.31,3.28-2.06,1.53,8.32,2.3S203.1,20,207.5,20.13,219,24.54,219,24.54s-2,21.94-7.33,26.15l-5.35,4.22s3.17.91,2.11,8.08A44.36,44.36,0,0,0,208,74.58s-8.15,4.11-21.67,1.64-28.61-5.82-37.05-4.92-16.72-2.59-16.72-2.59-28.88,1.78-38.74-2.17-10.27-4-19.06-4.28S41,57.84,41,57.84,2.55,28.5.27,21.69,10.56,12.33,23.79,6.86Z"/><polygon class="cls-4" points="206.27 54.91 174.66 48.82 210.66 51.45 206.27 54.91"/><path class="cls-5" d="M53.42,39.64a13.56,13.56,0,0,1,1.07-2.25q.94-1.74,2.66-5.65A1.08,1.08,0,0,1,58.34,31c.78.09,1.12.49,1,1.19a25.19,25.19,0,0,1-1.64,4q-1.47,3.16-2,4.11a1.32,1.32,0,0,1-.51.51,1.09,1.09,0,0,1-.69.13C53.71,40.8,53.33,40.38,53.42,39.64ZM55.75,26c-.49-.33-.71-.68-.67-1.07a1.2,1.2,0,0,1,.42-.86,1.34,1.34,0,0,1,1-.17A7,7,0,0,1,59,25.12a1.31,1.31,0,0,1,.73,1.24,1.26,1.26,0,0,1-.38.86,1.19,1.19,0,0,1-.92.18A9.49,9.49,0,0,1,55.75,26Zm3.73-5.92-1.15-.75a2.94,2.94,0,0,1-.79-.66.85.85,0,0,1-.2-.64c.09-.76.53-1.08,1.33-1a7.94,7.94,0,0,1,2.2,1.08c.67.42,1,.88.92,1.37a1.12,1.12,0,0,1-.48.81,1.15,1.15,0,0,1-.77.28A2.48,2.48,0,0,1,59.48,20.1Zm-.9,20a1.52,1.52,0,0,1,.55-.83,22.24,22.24,0,0,0,2-2c.62-.76,1.17-1.12,1.63-1.06a1.22,1.22,0,0,1,.79.35.89.89,0,0,1,.2.75A7.85,7.85,0,0,1,62,39.64c-1.15,1.23-2,1.81-2.48,1.75A1,1,0,0,1,58.58,40.15Zm2.59-6.69,1.6-13.29c.18-1.48,1-2.12,2.6-1.93l3.84.46c1.57.19,2.27,1,2.09,2.5L69.69,34.49c-.18,1.45-1,2.09-2.62,1.9l-3.84-.47C61.68,35.73,61,34.91,61.17,33.46Zm6.43.19.34-2.74-4.25-.51-.33,2.73c-.06.52.19.83.77.94l2.53.3A.75.75,0,0,0,67.6,33.65ZM68.16,29l.4-3.29-4.24-.51-.4,3.29Zm.92-7.54q.09-.75-.75-.9l-2.53-.31a.78.78,0,0,0-1,.7l-.29,2.4,4.25.51ZM67.67,40.92l-1.16-2.33a4.57,4.57,0,0,1-.2-.42,1,1,0,0,1-.14-.49.91.91,0,0,1,.38-.68,1.16,1.16,0,0,1,.82-.16c.48.06,1.08.7,1.8,1.93a6.43,6.43,0,0,1,1,2.25c-.09.74-.54,1.06-1.33,1C68.43,41.93,68,41.58,67.67,40.92Zm3.87-4.19,1.83-15.09a1.08,1.08,0,1,1,2.15.26L73.69,37a1.08,1.08,0,1,1-2.15-.26Zm.87,5.46c.1-.75.55-1.08,1.36-1l1.11.13a1.12,1.12,0,0,0,1.37-1.07l2.4-19.81c.11-.9.55-1.31,1.32-1.21s1.08.59,1,1.49L78.47,41.16c-.11,2-1.25,2.87-3.43,2.53L73.5,43.5C72.68,43.4,72.32,43,72.41,42.19Z"/><path class="cls-5" d="M85.63,37.34,84.87,41q-.27,1.29-1.2,1.17c-.68-.08-1-.4-.92-1l.52-1.59.52-2.09c.17-.75.52-1.09,1.07-1S85.7,36.81,85.63,37.34ZM111,31.17a1.06,1.06,0,0,1-1.34,1c-.62-.08-1.55-.8-2.8-2.16a.83.83,0,0,1,0,.39c-.08.67-.54.95-1.37.85l-5.47-.66c-.83-.1-1.21-.49-1.13-1.15a.91.91,0,0,1,.06-.27c-1.45,1.22-2.46,1.8-3,1.73a1.16,1.16,0,0,1-.65-.25,1.16,1.16,0,0,1,0,.46.81.81,0,0,1-.36.64,1.16,1.16,0,0,1-.82.14l-2.27-.28L91.61,34l1.75.21c1.34.17,1.93.86,1.78,2.1l-.2,1.15A36.09,36.09,0,0,1,94,41.65a13.31,13.31,0,0,1-1,2.51c-.64,1.08-1.89,1.5-3.76,1.28q-1.25-.15-1.11-1.26c.09-.73.55-1,1.38-1a1.94,1.94,0,0,0,2.22-1,10.45,10.45,0,0,0,.56-1.67.74.74,0,0,1-.48.11c-.37,0-.64-.49-.82-1.33l-.37-2a.57.57,0,0,1,.24-.42.76.76,0,0,1,.53-.1c.39.05.65.4.79,1.05l.2.75.18.75.48-2.55c.08-.44-.17-.69-.73-.76l-5.41-.65c-1.51-.19-2.18-1-2-2.41l1.21-10A2,2,0,0,1,88.68,21l7.33.88c.77.1,1.12.47,1,1.11a.94.94,0,0,1-.36.7,1.41,1.41,0,0,1-.92.13l-2.88-.35-.27,2.26,2.27.28c.71.08,1,.44,1,1.07a.86.86,0,0,1-.36.64,1.19,1.19,0,0,1-.83.14l-2.27-.27-.27,2.23,2.27.28a1.28,1.28,0,0,1,.68.25,1.26,1.26,0,0,1,0-.6c0-.33.37-.67,1-1a15.11,15.11,0,0,0,6.21-6.2,1.34,1.34,0,0,1,1.4-.81c.72.09,1,.38,1,.88l-.17.4a18.37,18.37,0,0,0,5.83,6.9A1.34,1.34,0,0,1,111,31.17ZM87.9,40.76V41q-.09.78-1,.66c-.54-.06-.79-.71-.74-1.94l0-2.35q0-.71.84-.6a.78.78,0,0,1,.56.36,1.55,1.55,0,0,1,.21.85Zm2-9.34-2.76-.34L87,32.69c0,.46.2.74.76.84l1.92.24Zm.22-1.85.27-2.24L87.68,27l-.27,2.24Zm.77-6.36L89,23c-.56-.07-.87.16-.93.67l-.18,1.49,2.76.34ZM88.83,40.67l-.45-3.36a.42.42,0,0,1,.23-.43,1,1,0,0,1,.66-.1c.41,0,.7.57.88,1.56l.32,2.2a.71.71,0,0,1-.91.67A.85.85,0,0,1,88.83,40.67Zm11.27,3.47a1.4,1.4,0,0,1-.74-.48l-1.16-1.4-.06,0c-1.45,2.27-2.63,3.36-3.55,3.25-.67-.09-1-.44-.9-1.07A.83.83,0,0,1,94,44q.26-.26.81-.72a8.66,8.66,0,0,0,2.76-4,2.41,2.41,0,0,1-1.5-.72,1.86,1.86,0,0,1-.33-1.49l.41-3.37c.15-1.31.92-1.88,2.3-1.72l1.77.22a2.17,2.17,0,0,1,1.48.68,2,2,0,0,1,.35,1.53l-.41,3.37a1.74,1.74,0,0,1-2.24,1.69l-.45,1.27c1.59,1.2,2.35,2.06,2.29,2.57A.86.86,0,0,1,100.1,44.14Zm-2.45-7.39a.64.64,0,0,0,.59.75l.79.09a.59.59,0,0,0,.75-.58l.27-2.27a.61.61,0,0,0-.58-.77l-.79-.09a.6.6,0,0,0-.75.61Zm8.14-7.45a3.22,3.22,0,0,1,.49.11,19.71,19.71,0,0,1-3-4.76,26.92,26.92,0,0,1-3.64,4,1.45,1.45,0,0,1,.68,0Zm3,17.1c-.08.7-.52,1-1.32.91-.4-.05-1.19-.94-2.36-2.67l-.74-.93q-2.45,3.06-3.78,2.9a.89.89,0,0,1-.89-1.12c0-.33.32-.64.85-.93a7.43,7.43,0,0,0,3.61-4.5,1.72,1.72,0,0,1-1.66-2.16l.41-3.37a1.77,1.77,0,0,1,2.25-1.72l2,.25c1.38.16,2,.9,1.83,2.21l-.41,3.37a1.79,1.79,0,0,1-2.3,1.71l-.32,0a15.09,15.09,0,0,1-.67,1.88C107.73,44.22,108.89,45.63,108.79,46.4Zm-4.36-8.83c-.05.41.17.66.65.75l.84.11c.47,0,.73-.14.78-.58l.27-2.27c.06-.42-.15-.68-.61-.77l-.84-.11a.67.67,0,0,0-.81.61Z"/><path class="cls-5" d="M120.82,48a8.23,8.23,0,0,1-3.32-2.31l-.06,0q-3.1,2-4,1.88c-.76-.1-1.09-.57-1-1.41q.11-.88,1.47-1.23A16.87,16.87,0,0,0,116.4,44l.62-5.11c.07-.57-.2-.89-.8-1l-1.57-.19a1.21,1.21,0,0,1-.83-.35,1,1,0,0,1-.18-.81.91.91,0,0,1,.37-.72,1.24,1.24,0,0,1,.88-.13l2.27.27a2.8,2.8,0,0,1,1.77.73,1.9,1.9,0,0,1,.33,1.68l-.68,5.61.73.82c1.14,1.11,3.91,1.93,8.29,2.46l10.34,1.14c.73.09,1.06.47,1,1.16s-.7,1.06-1.83.92l-9-1.11A34,34,0,0,1,120.82,48ZM117.9,32.87l-2.29-1.32A1.71,1.71,0,0,1,115,31a.93.93,0,0,1-.14-.66c.08-.7.5-1,1.26-.92a3.72,3.72,0,0,1,.87.33l1.45.74c1.2.65,1.76,1.26,1.69,1.83a1,1,0,0,1-1.27,1A2.35,2.35,0,0,1,117.9,32.87Zm2.16-5.08a5.86,5.86,0,0,1-.5-.33l-1.81-1.17c-.64-.41-.93-.84-.88-1.28a1,1,0,0,1,1.24-1,10.64,10.64,0,0,1,2.2,1.08,5,5,0,0,1,1.27,1,1.26,1.26,0,0,1,.36.93,1,1,0,0,1-1.28,1A2,2,0,0,1,120.06,27.79Zm2.49,16.6c.08-.64.54-.91,1.37-.81l.87.13a.85.85,0,0,0,.92-.31,12.64,12.64,0,0,0,1-3.5l.55-3.33c.08-.49-.15-.77-.67-.83l-1.8-.22a28.25,28.25,0,0,1-1,4A11.58,11.58,0,0,1,122,42.73c-.74,1-1.38,1.49-2,1.42a.91.91,0,0,1-.89-1.15,1.64,1.64,0,0,1,.47-.75q2.75-2.86,3.73-10.29l.19-1.6-1.45-.18c-.78-.09-1.13-.47-1.05-1.13s.52-1,1.29-.88l2.71.32.36-2.95a1.13,1.13,0,1,1,2.24.27l-.36,3,1.89.23c.79.1,1.15.49,1.07,1.17s-.52.95-1.32.85l-3.4-.41-.06.75-.37,2.28,2.56.31c1.32.16,1.92.76,1.79,1.81l-.31,1.82q-.58,3.41-1,5.16a5,5,0,0,1-.94,2.22,4,4,0,0,1-3.34.75C122.89,45.58,122.46,45.15,122.55,44.39ZM128.77,33a1.41,1.41,0,0,1,.34-.61A26.17,26.17,0,0,0,133,26.28a1.23,1.23,0,0,1,1.28-.82c.72.08,1,.45,1,1.09a8.55,8.55,0,0,1-1.14,2.31l6.11.73c.8.1,1.15.49,1.07,1.17s-.52.95-1.31.85l-7.07-.85c-1.48,2.3-2.55,3.42-3.21,3.34A.9.9,0,0,1,128.77,33Zm1.06,12.74c.08-.7.51-1,1.29-.91l1,.12a.85.85,0,0,0,1.07-.79l.36-3-2.94-.36c-.75-.09-1.09-.46-1-1.1s.49-.93,1.25-.83l2.94.35.12-1a2.23,2.23,0,0,1,1.4-1.82l2-1L132,34.68a.92.92,0,1,1,.22-1.82l6.4.77c1.26.16,1.85.59,1.76,1.31,0,.31-.37.65-1,1l-2.5,1.43a1.49,1.49,0,0,0-.84,1.05l-.12,1,3.11.38c.78.1,1.13.46,1.05,1.11s-.51.92-1.28.83l-3.11-.38-.42,3.43a2.72,2.72,0,0,1-.88,1.93,2.54,2.54,0,0,1-2.13.28l-1.31-.16C130.1,46.77,129.75,46.39,129.83,45.72Z"/><path class="cls-5" d="M146.72,41.71A42.11,42.11,0,0,1,145.08,49a7.51,7.51,0,0,1-1,2.08c-.34.46-.66.66-1,.63-.76-.09-1.1-.48-1-1.16a3.09,3.09,0,0,1,.31-.81q1.37-2.8,2.39-9.77l.75-6.22a2,2,0,0,1,2.5-1.88l2.74.33.45-3.73c.07-.61.47-.87,1.19-.78s1.06.43,1,1l-.08.67,4.83.58c.66.08,1,.4.89.95s-.43.79-1.09.71L153.15,31,153,32.43l4.45.54a2.52,2.52,0,0,1,1.72.76,2,2,0,0,1,.31,1.73l-.15,1.27c-.07.55-.44.79-1.12.71s-1-.4-.92-1l.12-1c.05-.48-.2-.77-.75-.88l-4-.49-.17,1.41,3.53.15a1,1,0,0,1,.65.24.73.73,0,0,1,.16.61.67.67,0,0,1-.3.54,1.45,1.45,0,0,1-.73.15c-.35,0-.94,0-1.76-.1-.45,0-1-.06-1.73-.07l-.05.42a1,1,0,0,0,.06.56.45.45,0,0,0,.31.29l.66.11,1.11.11a13,13,0,0,0,2.06.11c.16,0,.33-.2.53-.5a1,1,0,0,1,.41-.36,1.2,1.2,0,0,1,.55-.06,1.13,1.13,0,0,1,.73.32.8.8,0,0,1,.18.69,1.54,1.54,0,0,1-1.17,1.4,8.5,8.5,0,0,1-3.28,0c-.78-.09-1.69-.23-2.75-.41s-1.55-.88-1.41-2.08l.09-.75c-.39,0-.66,0-.82,0l-1,0a.88.88,0,0,1-.63-.26.75.75,0,0,1-.15-.59.7.7,0,0,1,.31-.57,1.26,1.26,0,0,1,.72-.12l.42,0,.46,0,.85,0,.19-1.52-2.13-.26c-.52-.06-.82.25-.91.93-.29,2.45-.53,4.29-.69,5.52l11.22,1.36a1.13,1.13,0,0,1,.7.29.7.7,0,0,1,.19.63c-.06.53-.42.76-1.08.68Zm22.48,7.88-.19,1A8.64,8.64,0,0,1,168,53.79a1.66,1.66,0,0,1-1.58.93,2.9,2.9,0,0,1-1.92-1.5,13.36,13.36,0,0,1-1.53-3.44,26.39,26.39,0,0,1-3.71,2.61,5.49,5.49,0,0,1-2.65,1,.9.9,0,0,1-.87-1.14,1,1,0,0,1,.35-.69c-.92.13-3.78.23-8.56.28l-.55,0a4.73,4.73,0,0,1-.69,0,.86.86,0,0,1-.84-1.08q.09-.81,1.62-.78h1.48l-.11-1a2.46,2.46,0,0,1,0-.78.53.53,0,0,1,.32-.34,1.23,1.23,0,0,1,.68-.07c.52.06.86.8,1,2.22l2.36,0,.24-.73c.24-.72.6-1.05,1.09-1a1,1,0,0,1,.68.31.59.59,0,0,1,.13.58l-.31.83.8,0H156a.68.68,0,0,1,.59.24.93.93,0,0,1,.13.66,1.33,1.33,0,0,1-.17.4,20.26,20.26,0,0,0,5.81-3.58,34.52,34.52,0,0,1-.31-8.9l-.59,0c-.51,0-.88-.05-1.12-.07-.64-.08-.91-.47-.83-1.17a1.05,1.05,0,0,1,.37-.73,1.31,1.31,0,0,1,.78-.22l1.56.07q.38-4.15.62-6.15c.12-.94.54-1.36,1.28-1.27s1.08.55,1,1.38c-.18,1.51-.31,2.63-.37,3.35l-.31,2.74c1.14,0,2,0,2.56.08l2.53.08a.94.94,0,0,1,.77.32,1.17,1.17,0,0,1,.18.86q-.12.95-1.41.93l-4.83-.14a48.7,48.7,0,0,0-.1,6.91,19.58,19.58,0,0,0,2.51-3.84c.31-.62.72-.9,1.25-.83q1.18.14,1.08,1.08a6.83,6.83,0,0,1-1.38,2.55,30.91,30.91,0,0,1-3,3.59,15.31,15.31,0,0,0,1,2.78q.54,1.08.78,1.11c.23,0,.53-.87.88-2.7.15-.71.5-1,1.07-1A.91.91,0,0,1,169.2,49.59Zm-13.6-5.88c1.41.17,2.06.78,1.93,1.83l-.16,1.36c-.14,1.08-.91,1.52-2.32,1.32l-6.28-.77a2.6,2.6,0,0,1-1.51-.58,1.49,1.49,0,0,1-.42-1.25l.16-1.35a1.4,1.4,0,0,1,.7-1.12,2.49,2.49,0,0,1,1.62-.2Zm-.09,2.18a.64.64,0,0,0-.07-.47.58.58,0,0,0-.41-.18l-5.53-.67a.54.54,0,0,0-.41.09.94.94,0,0,0-.22.51v.08c-.05.41.11.63.48.68l5.53.66a.47.47,0,0,0,.41-.1.94.94,0,0,0,.22-.52Zm10.8-12.66a1.4,1.4,0,0,1-.44-1c.07-.58.45-.84,1.15-.75.35,0,.87.5,1.54,1.39s1,1.46.94,1.8c-.09.7-.51,1-1.26.91a1.1,1.1,0,0,1-.55-.26,2.13,2.13,0,0,1-.49-.65A8.39,8.39,0,0,0,166.31,33.23Z"/></g></g></g></svg>