<svg xmlns="http://www.w3.org/2000/svg" viewBox="0 0 203.06 117.77"><defs><style>.cls-1{fill:#fff;}.cls-2{fill:#2b271f;}</style></defs><g id="圖層_2" data-name="圖層 2"><g id="圖層_1-2" data-name="圖層 1"><path class="cls-1" d="M19.9,57.71c6.47-5.9,10-17.63,14.54-25.08C48.38,10,72.42,4.41,98.92,2.4c28.47-2.16,58.77,2,81.49,19.31,7.71,5.87,14.1,12.63,18.55,23.59a51.16,51.16,0,0,1,1.75,33.07c-2.92,11-8.39,15.63-15.92,21.12-22.44,16.38-61.19,16.48-75.31,16.38C89.82,115.72,70.59,114.3,53,105c-3.15-1.67-13.4-8.78-19.51-22.47a10.67,10.67,0,0,0-4.48-5C26.18,76,20.33,75.3,17.14,75.1c-4.09-.25-6.75-.66-10.24-2.84a16.18,16.18,0,0,1-4.73-4.18c-.24-.34-2.34-4.66-1.59-4.79C5.82,62.4,15.57,61.67,19.9,57.71Z"/><path class="cls-2" d="M20,59.52C26,54,28.76,45.59,32.34,38.44a54.75,54.75,0,0,1,15.1-18.52c12.7-9.93,29-13.4,44.73-15C110.36,3,129,3.23,146.78,7.79a97.71,97.71,0,0,1,25.38,10.27c7.28,4.28,14.22,9.65,19.44,16.34a49.83,49.83,0,0,1,10.56,27.31,48.68,48.68,0,0,1-1.85,15.74,31.62,31.62,0,0,1-5.35,11,41.51,41.51,0,0,1-7.81,7.4,67.18,67.18,0,0,1-9.75,6.32A92,92,0,0,1,155.12,110c-13.46,3-27.33,4-41.1,4.05-18,.07-36.56-.64-53.49-7.41a51.71,51.71,0,0,1-9.39-4.6,43.91,43.91,0,0,1-6.38-5.24,52.08,52.08,0,0,1-7.46-9.15,51,51,0,0,1-3.45-6.33,12.15,12.15,0,0,0-3.8-5c-3-2.17-7.26-2.55-10.85-2.9C14.86,73,10.83,72.83,7,70.45a14.07,14.07,0,0,1-4.8-4.3A26.47,26.47,0,0,1,.8,62.86C.31,61.7,4.47,65.45.58,65.17a2.38,2.38,0,0,0,.51-.09l1.08-.16,2.71-.4c1.91-.28,3.81-.58,5.7-1,3.31-.72,6.84-1.72,9.43-4,.46-.41.32-1.76.29-2.3,0-.19-.14-1.64-.51-1.31-2.86,2.52-6.93,3.44-10.58,4.15-2,.37-3.91.65-5.88.94-.75.11-1.5.21-2.24.33s-.89.38-1,1.18a11.22,11.22,0,0,0,2.5,8.05,18.43,18.43,0,0,0,11.92,6.2c4.07.47,8.17.5,12.14,1.68a10.21,10.21,0,0,1,5.12,3.29c1.49,1.82,2.26,4.15,3.38,6.21a50.71,50.71,0,0,0,14.59,16.84A41.69,41.69,0,0,0,57.24,109a85.42,85.42,0,0,0,14.63,5c10.09,2.51,20.5,3.37,30.87,3.64a243.64,243.64,0,0,0,40.77-1.82,124.18,124.18,0,0,0,23.77-5.55,72.38,72.38,0,0,0,20.61-11.2,38.84,38.84,0,0,0,7.87-7.76,34.49,34.49,0,0,0,5.13-11.19,58,58,0,0,0-.14-31.93A53.24,53.24,0,0,0,186.5,24.94,82.36,82.36,0,0,0,163.94,10C146.55,2.11,127.09-.42,108.12.06A184.17,184.17,0,0,0,81.4,2.59a88.79,88.79,0,0,0-23.47,7.1A56.18,56.18,0,0,0,39.26,24a55.75,55.75,0,0,0-6.85,10.28c-2,3.86-3.69,7.87-5.68,11.74a35.15,35.15,0,0,1-6.94,9.91c-.46.42-.32,1.74-.29,2.3C19.51,58.39,19.65,59.86,20,59.52Z"/></g></g></svg>