<?xml version="1.0" encoding="utf-8"?>
<!-- Generator: Adobe Illustrator 24.3.0, SVG Export Plug-In . SVG Version: 6.00 Build 0)  -->
<svg version="1.1" id="圖層_1" xmlns="http://www.w3.org/2000/svg" xmlns:xlink="http://www.w3.org/1999/xlink" x="0px" y="0px"
	 viewBox="0 0 300 110" style="enable-background:new 0 0 300 110;" xml:space="preserve">
<style type="text/css">
	.st0{clip-path:url(#SVGID_2_);}
	.st1{fill:#DEDDCD;}
	.st2{clip-path:url(#SVGID_4_);}
	.st3{fill:#CED9CF;}
	.st4{fill:#8CA789;}
	.st5{fill:#647F68;}
	.st6{fill:#484235;}
	.st7{fill:#2B2720;}
	.st8{fill:#EBC65B;}
	.st9{fill:#EFEEE8;}
	.st10{fill:#FFFFFF;}
	.st11{enable-background:new    ;}
	.st12{fill:#DA8138;}
	.st13{fill:#EDC449;}
</style>
<g id="圖層_2_1_">
	<g id="圖層_1-2">
		<g>
			<g>
				<defs>
					<rect id="SVGID_1_" y="0" width="300" height="110"/>
				</defs>
				<clipPath id="SVGID_2_">
					<use xlink:href="#SVGID_1_"  style="overflow:visible;"/>
				</clipPath>
				<g class="st0">
					<rect x="-11" y="-14" class="st1" width="321" height="139"/>
					<g>
						<g>
							<defs>
								<rect id="SVGID_3_" x="-34.6" y="71.3" width="382.6" height="54.8"/>
							</defs>
							<clipPath id="SVGID_4_">
								<use xlink:href="#SVGID_3_"  style="overflow:visible;"/>
							</clipPath>
							<g class="st2">
								<path class="st3" d="M205.8,173.4l-8.8-28.6c-23.2-5.7-45.5-14.8-66-27c-7.6-4.6-16-9.8-25.4-9.1c-3.3,0.3-6.5,1.3-9.8,1.6
									c-5.4,0.4-10.8-1.2-15.8-2.9c-12.1-4.2-23.9-9.3-35.2-15.3c-2.2-1.3-4.6-2.3-7.1-2.7c-2.7-0.1-5.4,0.3-7.8,1.4
									c-4.5,1.6-8.9,3.7-13,6.1c-4.9,2.9-10,6.6-16.3,6.3c-3.7-0.2-7.1-1.7-10.3-3.1l-9.4-4.3c-1.3-0.7-2.7-1.1-4.2-1.3
									c-1.6,0-3.3,0.4-4.8,1.1l-82.3,32.2c-4.8,1.9-15.5,47-20.8,46V195h336.9L205.8,173.4z"/>
								<path class="st4" d="M57.4,98.3c-0.7,0.1-1.4,0-2.1-0.1c-1.7-0.4-2.7-1.6-4.5-1.3c-0.5,0-0.9,0.3-1.2,0.6
									c-1.6,1.8-1,3.9-3.2,5.5c-0.8,0.5-1.7,0.8-2.6,0.6c-0.4,0-0.8-0.2-1.1-0.5c-0.6-0.5-0.6-1.3-2-1.5c-0.8-0.1-1.7,0-2.4,0.4
									c-2,0.8-3.4,1.8-5.6,2.6c-0.8,0.3-1.6,0.4-2.4,0.3c-0.4-0.1-0.8-0.2-1.2-0.4c-2-1.2-1.6-2.8-2.4-4.2
									c-0.1-0.3-0.3-0.4-0.6-0.5c-1.1-0.2-2.2-0.1-3.2,0.3c-1.5,0.6-2.9,1.3-4.3,2.1c-0.9,0.6-1.9,1.1-2.9,1.4
									c-1.5,0.4-3,0.4-4.5,0.1c-1.7-0.5-1.7-1.5-1.4-2.3c0.3-0.6,0.5-1.2,0.9-1.8c2.9-1.7,5.9-3.3,8.7-4.7
									c6.7-3.3,12.7-5.6,16.8-5.5c0.8,0,1.6,0.1,2.4,0.3l0,0C43.7,90.6,50.4,94,57.4,98.3z"/>
								<path class="st4" d="M60.1,111.2c-0.8,0.1-1.3,0.7-1.3,1.5c0.1,0.7,0.6,1.2,1.3,1.3c0.8-0.1,1.3-0.7,1.3-1.5
									C61.4,111.8,60.8,111.3,60.1,111.2z"/>
								<path class="st4" d="M69.2,108.6c-0.1-0.2-0.2-0.5-0.4-0.6l-0.3-0.2c-0.2-0.1-0.5-0.2-0.7-0.2h-0.3c-0.2,0-0.4,0-0.5,0.1
									c-0.2,0.1-0.3,0.2-0.4,0.3c-0.1,0.1-0.2,0.3-0.3,0.4c-0.1,0.2-0.1,0.4-0.1,0.5s0,0.2,0.1,0.4c0.1,0.2,0.2,0.4,0.4,0.6
									l0.3,0.2c0.2,0.1,0.5,0.2,0.7,0.2H68c0.2,0,0.4,0,0.5-0.1c0.2-0.1,0.3-0.2,0.4-0.3c0.1-0.1,0.2-0.3,0.3-0.4
									c0.1-0.2,0.1-0.4,0.1-0.5C69.3,108.9,69.3,108.8,69.2,108.6z"/>
								<path class="st4" d="M68.2,113.6c-0.8,0.1-1.3,0.7-1.3,1.5c0.1,0.7,0.6,1.2,1.3,1.3c0.8-0.1,1.3-0.7,1.3-1.5
									C69.4,114.2,68.8,113.6,68.2,113.6z"/>
								<path class="st5" d="M107.1,144.4l7-22.8c18.5-4.5,36.3-11.8,52.7-21.5c6.1-3.7,12.8-7.8,20.3-7.2c2.7,0.2,5.2,1.1,7.8,1.3
									c4.3,0.4,8.6-0.9,12.6-2.3c9.6-3.3,19-7.4,28-12.2c1.7-1.1,3.6-1.8,5.6-2.1c2.1-0.1,4.3,0.3,6.2,1.1c3.6,1.3,7,2.9,10.3,4.9
									c3.9,2.3,8,5.2,13,5c2.9-0.3,5.6-1.1,8.2-2.5l7.5-3.4c1-0.5,2.2-0.9,3.3-1c1.3,0,2.6,0.3,3.8,0.9l65.6,25.7
									c3.8,1.5,12.3,37.4,16.5,36.7v26.5H107.1V144.4z"/>
								<path class="st4" d="M373.8,542.3c-7.5,1.4-22.8-395.3-29.6-398L226.7,98.4c-2.1-1-4.4-1.5-6.7-1.6c-2.1,0.2-4.1,0.8-6,1.8
									l-13.4,6.1c-4.6,2.1-9.4,4.2-14.7,4.4c-9,0.4-16.2-4.8-23.2-9c-5.9-3.5-12.1-6.4-18.5-8.7c-3.5-1.3-7.3-2.4-11.2-2
									s-7,2.2-10.1,3.8c-16.1,8.6-32.9,15.9-50.2,21.8c-7.2,2.5-14.9,4.8-22.6,4.2c-4.8-0.4-9.2-1.9-14-2.3
									c-13.4-1.1-25.4,6.4-36.3,12.9c-29.3,17.4-61.1,30.4-94.2,38.5L-107,541.5L373.8,542.3z"/>
								<path class="st5" d="M244.4,110.8c-0.1-0.1-0.3-0.2-0.5-0.2s-0.4,0-0.5,0c-0.2,0-0.4,0.1-0.5,0.2l-0.3,0.2
									c-0.2,0.2-0.3,0.4-0.3,0.7c0,0.1,0,0.2,0,0.3c0,0.2,0.1,0.5,0.2,0.7l0.1,0.2c0.1,0.2,0.2,0.3,0.4,0.4
									c0.1,0.1,0.3,0.2,0.5,0.2s0.4,0,0.5,0c0.2,0,0.4-0.1,0.5-0.2l0.3-0.3c0.1-0.2,0.3-0.4,0.3-0.6V112c0-0.2-0.1-0.5-0.2-0.7
									l-0.1-0.2C244.7,111,244.5,110.9,244.4,110.8z"/>
								<path class="st5" d="M253.9,115.5c-0.1-0.1-0.3-0.2-0.5-0.2H253c-0.2,0-0.5,0.1-0.7,0.2l-0.3,0.3c-0.2,0.2-0.3,0.4-0.3,0.6
									c0,0.1-0.1,0.2-0.1,0.4c0,0.2,0,0.4,0,0.5c0,0.2,0.1,0.4,0.2,0.5c0.1,0.2,0.2,0.3,0.4,0.4c0.1,0.1,0.3,0.2,0.5,0.2h0.4
									c0.2,0,0.5-0.1,0.7-0.2l0.3-0.2c0.2-0.2,0.3-0.4,0.3-0.7l0.1-0.4c0-0.2,0-0.4,0-0.5c0-0.2-0.1-0.4-0.2-0.5
									C254.3,115.7,254.1,115.6,253.9,115.5z"/>
								<path class="st5" d="M245,117.6c-0.1-0.1-0.3-0.2-0.5-0.2s-0.4,0-0.5,0c-0.2,0-0.4,0.1-0.5,0.2l-0.3,0.2
									c-0.1,0.2-0.3,0.4-0.3,0.7c0,0.1,0,0.2,0,0.4c0,0.2,0.1,0.5,0.2,0.7l0.3,0.4c0.1,0.2,0.2,0.3,0.4,0.4
									c0.1,0.1,0.3,0.2,0.5,0.2s0.4,0,0.5,0c0.2,0,0.4-0.1,0.5-0.2l0.3-0.2c0.2-0.2,0.3-0.4,0.3-0.7v-0.4c0-0.2-0.1-0.5-0.2-0.7
									l-0.3-0.4C245.3,117.8,245.2,117.7,245,117.6z"/>
								<path class="st5" d="M245.6,127c-0.1-0.1-0.3-0.2-0.5-0.2s-0.4,0-0.5,0c-0.2,0-0.4,0.1-0.5,0.2l-0.3,0.2
									c-0.1,0.2-0.3,0.4-0.3,0.7v0.4c0,0.2,0.1,0.5,0.2,0.7l0.3,0.4c0.1,0.2,0.2,0.3,0.4,0.4c0.3,0.2,0.7,0.3,1,0.2
									c0.2,0,0.4-0.1,0.5-0.2l0.3-0.2c0.1-0.2,0.3-0.4,0.3-0.6c0-0.1,0-0.2,0-0.4s-0.1-0.5-0.2-0.7l-0.3-0.4
									C245.9,127.2,245.7,127.1,245.6,127z"/>
								<path class="st5" d="M252.6,123.9c-0.6,0.5-0.7,1.4-0.2,2c0.4,0.5,1.2,0.7,1.8,0.3c0.6-0.5,0.7-1.4,0.2-2
									C254,123.7,253.2,123.5,252.6,123.9z"/>
								<path class="st5" d="M262.6,119.2c-0.1-0.1-0.3-0.2-0.5-0.2s-0.4,0-0.5,0c-0.2,0-0.4,0.1-0.5,0.2l-0.3,0.2
									c-0.2,0.2-0.3,0.4-0.3,0.7c0,0.1,0,0.2,0,0.3c0,0.2,0.1,0.5,0.2,0.7l0.1,0.2c0.1,0.2,0.2,0.3,0.4,0.4
									c0.1,0.1,0.3,0.2,0.5,0.2s0.4,0,0.5,0c0.2,0,0.4-0.1,0.5-0.2l0.3-0.3c0.1-0.2,0.3-0.4,0.3-0.6v-0.4c0-0.2-0.1-0.5-0.2-0.7
									l-0.1-0.2C262.9,119.4,262.7,119.3,262.6,119.2z"/>
								<path class="st5" d="M269.5,122.3c-0.1-0.1-0.3-0.2-0.5-0.2s-0.4,0-0.5,0c-0.2,0-0.4,0.1-0.5,0.2l-0.3,0.3
									c-0.2,0.2-0.3,0.4-0.3,0.6c0,0.1,0,0.2,0,0.4c0,0.2,0.1,0.5,0.2,0.7l0.1,0.2c0.1,0.2,0.2,0.3,0.4,0.4
									c0.1,0.1,0.3,0.2,0.5,0.2c0.3,0,0.7,0,1-0.2l0.3-0.2c0.2-0.2,0.3-0.4,0.3-0.7c0-0.1,0-0.2,0-0.4c0-0.2-0.1-0.5-0.2-0.7
									l-0.1-0.2C269.7,122.5,269.6,122.4,269.5,122.3z"/>
								<path class="st3" d="M248.6,106.9c-0.9,0-1.7,0-2.6-0.2c-2.1-0.5-3.4-1.8-5.6-1.6c-0.6,0-1.1,0.2-1.6,0.6
									c-2,1.8-1.3,4-4.2,5.6c-1,0.5-2.2,0.7-3.3,0.5c-0.5-0.1-1-0.2-1.4-0.6c-0.7-0.6-0.8-1.4-2.4-1.6c-1-0.1-2.1,0-3.1,0.2
									c-2.6,0.7-4.4,1.7-7.1,2.4c-1,0.3-2,0.3-3,0.2c-0.5-0.1-1-0.2-1.5-0.5c-2.5-1.4-2-3-2.9-4.5c-0.2-0.3-0.4-0.5-0.7-0.6
									c-1.3-0.3-2.7-0.3-3.9,0.1c-1.9,0.5-3.7,1.2-5.5,2c-1.2,0.6-2.4,1.1-3.7,1.4c-1.2,0.2-2.4,0.3-3.6,0.2c-1-0.1-2.6-0.1-3-1.2
									c-0.2-0.5-0.1-1,0.2-1.4c0.5-0.5,1.1-0.8,1.7-0.9c2.6-0.9,13.8-7.2,17.3-8.2c3.3-1,6.6-1.8,10.1-2.2
									c1.2-0.1,2.3-0.2,3.5-0.1c1,0.1,2,0.2,3,0.4l0,0C231.6,98.3,240,102.1,248.6,106.9z"/>
							</g>
						</g>
					</g>
					<path class="st6" d="M436.2,97.8c-8.5-11-22.6-1.2-20.5,9c3.7,17.2,1.3,41.8-22.3,69.8c-8.7,10.3-19.6,19.1-32.4,23.7
						c-3.9,1.4-8,2.4-12.2,2.9c-2.1,0.3-4.2,0.4-6.3,0.4c-2,0-4-0.3-6-0.2h-0.3c-0.7,0-1.3,0.3-1.7,0.8c-0.2,0.4-0.2,0.8-0.1,1.2
						c0.4,2,1.1,4,2.7,5.2c1.2,0.7,2.6,1.2,4,1.3c1.4,0.2,2.8,0.6,4.3,0.8c3.7,0.4,7.5,0.8,11.2,0.9c6.5,0.4,12.9,0.1,19.4-0.6
						c10.6-1.2,20.8-4.7,29.9-10.1c6.6-4.1,12.8-8.8,18.5-14.2C454.2,161.4,444.6,108.9,436.2,97.8z"/>
					<path class="st6" d="M316.7,135c11.6-0.9,22.9-3.5,33.7-7.8c17.9-7.4,44.3-28.3,34.8-33.6c-8.4-4.7-32,14.8-64.5,15.5
						c-4.4,0.4-8.8,0.1-13.1-0.8V105c-0.4-3.6-0.9-7.1-1.3-10.7c-0.2-2.1,0.4-6.9-1.8-8c-1-0.5-2.2-0.2-2.7,0.8
						c-0.2,0.6-0.3,1.2-0.2,1.9c0.2,3,0.5,3.7,0.1,6.6c-0.9,6.6,0,8.1,0,10.7c0,5.1,0.6,7-0.1,12c-1.3,9.4-3.9,24-6.6,33.2
						c-2,6.7-1.6,5.4-2.8,12.3c-0.8,4.6-6.7,15.2-10.4,18c-2.9,2.2-11.4,7.6-21.8-0.9c-8.9-7.2-21.9-37.8-25-48.8
						c-1.7-6.1-3.2-12.2-4.5-18.3c-0.4-2.5-0.6-5.1-0.6-7.7l-0.7-8.8c0-1-0.3-1.9-0.9-2.7c-0.7,2.6,0.1,5.3,0.1,7.9
						c0,0.2,0,0.3-0.1,0.4s-0.3,0.2-0.5,0.2c-1.8,0.1-3-1-4.4-2c-10.1-7.1-17.6-17.2-24.2-27.4c-5-7.9-9.1-16.8-15.3-23.9
						c-10.4-11.9-16,4.3-4.7,32.3c12.2,30.1,49.1,58,49.1,58s2.2,67.5,25.6,103.3c0,0,2.1,7.7,9.5,28s7.2,36.8,6.1,44.2
						c-0.6,4.5-2.9,9.9-1.6,14.4c0.3,1.7,1.9,2.9,3.7,2.6c0.1,0,0.1,0,0.2,0c4-0.5,7.9-1.6,11.6-3.3c7-3.6,7.2-10.4,7.8-17.4
						c1-11.7-0.5-50.4,21.6-41.9s36.5,24.7,40.2,37.2c1.1,3.8,2,7.8,3.5,11.5c1.4,3.3,4.8,5.4,8.4,5.2c2.4,0,4.6-0.9,6.4-2.5
						c0.9-0.9,1.8-1.9,2.5-3c1.5-2.1,2.4-4.5,2.5-7.1c0-2.5,0.8-4.7-0.1-7.2c-2.5-7.3-17.4-32.5-22.5-42
						c-5.1-9.5-9.9-17.8-17.6-43.6c-0.3-1.1-0.6-2.2-1-3.2c-0.8-2.8-1.7-5.7-2.5-8.7C326,183.2,319.5,157.7,316.7,135z"/>
					<path class="st7" d="M185.2,56.7c2.8,5.6,5.1,11.4,7.9,16.9c1.3,2.6,2.8,5.1,4.5,7.4c1.9,2.5,4.3,4.7,5.6,7.6l0.1-3.6
						c-6.6-6-10-14.4-13.3-22.6c-0.1-0.2-0.2,1.2-0.2,1.3c-0.1,0.8,0,1.5,0.1,2.3c2.8,7.4,6.5,14.4,11,20.9l0.1-3.6
						c-8.8-4.9-11.4-15.3-11.9-24.7l-0.3,2.5c1,5.4,3.5,10.4,5.9,15.3c2.2,4.5,4.6,9,8.4,12.3c0,0,0.2-1.7,0.2-1.8
						c0-0.4,0.1-1.5-0.2-1.8c-7.4-7.6-12.5-17.2-14.9-27.5c-0.1-0.7-0.3,0.5-0.3,0.7c-0.1,0.8-0.1,1.7,0.1,2.5
						c1.9,8.7,4.8,17.1,8.4,25.2v-3.6c-3.5-2.9-6.6-6.2-9.1-9.9c-2.3-3.5-4.6-8.2-4.2-12.5l-0.2,0.8l3.1,10.3
						c0.9,2.9,1.7,5.9,2.9,8.7c2,5,4.8,9.7,8.2,14l0.1-3.6c-6.7-7.7-12.2-16.7-16.8-25.7c-0.1-0.2-0.2,1-0.2,1.1
						c0,0.8,0,1.5,0.1,2.3c0.9,6,2.6,11.8,5.1,17.3l0.1-3.5c-3.4-6.4-6.2-13.1-8.3-20l-0.1,3.5l8.3,17.8l0.1-3.5
						c-3.2-5.7-5.8-11.8-7.6-18.2c-0.1-0.2-0.2,0.8-0.2,0.8c-0.1,0.7-0.1,1.5,0,2.2c0.4,4.1,1.6,8.9,4.6,12c0.5,0.5,1.5,1.5,2.3,0.8
						c0.3-0.4,0.5-0.9,0.5-1.4c0.1-1.1,0.1-2.3,0-3.4l-0.2,2.7c1.2,2.7,3.6,4.8,5.7,6.8c2.2,2.1,4.6,4.1,6.8,6.3
						c0,0,0.2-1.5,0.2-1.6c0.1-0.7,0.1-1.4-0.1-2c-3.2-5.2-6.5-10.5-8.3-16.4c-1.5-4.7-2.5-9.7-4.8-14.1c-0.1-0.2-0.2,1-0.2,1.1
						c-0.1,0.8-0.1,1.5,0.1,2.3c1.5,6.2,2.9,12.4,4.1,18.6c0.5,2.5,1,4.9,1.3,7.4c0,0.3,0.1,0.7,0.1,1.1c-0.1-0.3,0-0.1,0,0
						c0.1-0.6,0.1-1.1,0-1.7c0-0.1,0-0.2,0-0.3c-0.5-0.5-1.1-0.9-1.7-1.3c-0.7-0.6-1.4-1.3-2-2c-0.4-0.5-0.7-1-1.1-1.6
						c-0.7-1.2-0.2,2.7-0.1,2.8s0.2,0,0.3,0c1.3,0.8,2.3,1.9,3.1,3.2c0.2,0.2,0.2-1.2,0.2-1.3c0.1-0.8,0.1-1.5-0.1-2.2
						c-4.6-8-11.2-14.9-14-23.8c-0.1-0.2-0.2,1-0.2,1.1c-0.1,0.8-0.1,1.5,0.1,2.3c1.2,4.7,3.3,9.1,6.3,13c0.2,0.2,0.2-1.2,0.2-1.3
						c0.2-4.5,0-9-0.5-13.5c-0.1-1-0.3-0.1-0.3,0.4c-0.6,7.9,0.8,15.8,5.1,22.6l0.1-3.6c-3.9-4.4-7.8-8.9-9.8-14.5
						c0,0-0.2,1.5-0.2,1.8c0,4.9,2.2,9.3,4.3,13.7c2.3,4.7,4.6,9.3,6.9,14c0.1,0.2,0.2-0.6,0.2-0.7c0.1-0.7,0.1-1.3,0-2
						c-0.1-2.9-1-5.7-2.7-8c-0.2-0.2-0.2,1.2-0.2,1.3c0,0.5-0.2,1.8,0.1,2.2s1.6,2.3,1.9,0.8c0.3-1.6,0.1-3.3-0.7-4.8
						c-0.1-0.2-0.2,1.2-0.2,1.3c-0.1,0.8,0,1.5,0.1,2.2c0.7,1.8,2,3.4,3.6,4.5c0,0,0.2-1.7,0.2-1.8c0-0.4,0.1-1.6-0.2-1.8
						c-1.6-1.1-2.7-2.7-3.4-4.5l-0.1,3.5c0.4,0.8,0.4,1.8,0.5-0.1l0.1-1.8c-0.2,0.8-1.6-1-1.6-1.1l-0.1,3.5c1.4,1.8,2.2,4,2.5,6.3
						l0.2-2.7l-6-12.1c-1-2-1.9-3.9-2.8-6c-0.4-1-0.9-2-1.2-3c-0.4-0.9-0.7-2-0.9-3l-0.2,1.7c2,5.7,6,10.2,9.9,14.7
						c0,0,0.2-1.5,0.2-1.6c0.1-0.7,0.1-1.4-0.1-2c-3.2-5.1-5.3-11.2-4.9-17.2l-0.3,0.4c0.3,3.3,0.5,6.7,0.4,10l0.2-1.3
						c-2.9-3.8-5-8-6.2-12.6l-0.2,3.3c2.8,8.9,9.5,15.8,14.1,23.8l0.1-3.5c-0.5-0.8-1.1-1.6-1.8-2.3c-0.3-0.3-0.8-0.9-1.3-1
						c-1.1-0.2-0.7,2.9-0.6,3.4c0.3,1.3,1,2.5,2,3.4c0.8,0.9,1.7,1.6,2.6,2.3c0.5,0.3,0.4,0.4,0.6,0c0.2-0.6,0.2-1.3,0.1-2
						c0-0.7,0-1.4-0.1-2c-0.1-1.2-0.3-2.4-0.5-3.6c-0.6-3.8-1.4-7.5-2.2-11.2c-0.9-4.3-1.9-8.5-2.9-12.8l-0.1,3.3
						c2.2,4.4,3.3,9.4,4.8,14.1c1.9,5.9,5.1,11.2,8.3,16.4v-3.6c-2.1-2.1-4.4-4-6.5-6.1s-4.6-4.2-5.8-6.9c-0.1-0.2-0.2,0.6-0.2,0.7
						c-0.1,0.7-0.1,1.3,0,2c-0.2-2.1,0.3-0.9-0.4-0.5c-0.2,0.1-0.5,0.1-0.8,0c-0.9-0.4-1.6-1.1-2.1-1.9c-2-3-3.2-6.4-3.5-10
						l-0.2,3.1c1.8,6.4,4.4,12.5,7.7,18.2c0.1,0.2,0.2-1.2,0.2-1.3c0.1-0.8,0.1-1.5-0.1-2.2l-8.4-17.8c-0.1-0.2-0.2,1.2-0.2,1.3
						c-0.1,0.8,0,1.5,0.1,2.2c2.2,6.9,5,13.6,8.3,20c0.1,0.2,0.2-1.2,0.2-1.3c0.1-0.8,0.1-1.5-0.1-2.2c-2.5-5.4-4.1-11.1-5-16.9
						l-0.2,3.3c4.7,9.1,10.2,18.1,17,25.8c0,0,0.2-1.5,0.2-1.6c0-0.5,0.2-1.6-0.1-2c-3.4-4.3-6.1-9-8.2-14c-1.1-2.8-1.9-5.6-2.8-8.5
						l-3.3-10.5c-0.1-0.2-0.2,0.8-0.2,0.8c-0.5,5.4,0.6,10.9,3.2,15.7c2.6,4.8,6.5,8.7,10.6,12.2c0,0,0.2-1.5,0.2-1.6
						c0.1-0.7,0-1.3-0.1-2c-3.6-8-6.4-16.3-8.3-24.9l-0.2,3.2c2.4,10.5,7.6,20.2,15.1,28v-3.7c-3.8-3.3-6.1-7.8-8.3-12.2
						c-2.3-4.8-4.7-9.6-5.7-14.9c-0.1-0.5-0.2,0.1-0.2,0.3c-0.1,0.7-0.1,1.5,0,2.2c0.5,9.9,2.8,21.3,12.2,26.5
						c0.1-0.5,0.2-1,0.2-1.6c0-0.5,0.1-1.6-0.1-2c-4.5-6.5-8.2-13.5-11-20.9l-0.2,3.4c3.3,8.2,6.8,16.6,13.4,22.7
						c0,0,0.2-1.5,0.2-1.6c0.1-0.7,0-1.4-0.1-2c-1.4-2.9-3.7-5.1-5.6-7.6c-1.7-2.3-3.2-4.8-4.5-7.4c-2.9-5.6-5.1-11.4-7.9-17
						c-0.1-0.2-0.2,1.2-0.2,1.3C184.9,55.2,185,56,185.2,56.7L185.2,56.7z"/>
					<path class="st7" d="M368.5,97.6c-12.9,8.6-26.8,15.5-41.5,20.5c-0.7,0.2-0.4,3.7,0,3.7c6.4-1.4,12.7-3.2,18.8-5.5
						c6.8-2.3,13.4-5.1,19.8-8.2c2.7-1.3,5.4-2.8,7.9-4.5l-0.2-3.5c-5.5,4.9-11.6,9.1-18.1,12.6c-5.9,3.2-12.2,6.2-18.8,7.6
						c-0.7,0.2-0.4,3.7,0,3.7c11.5-2.1,23.1-4.4,32.9-11.1l-0.2-3.5c-5.7,5.4-13,8.7-20.8,9.6c-0.6,0.1-0.6,3.6,0,3.7
						c9.5,0.4,18.5-4.6,23.8-12.3c0.2-0.4,0.5-3.7-0.1-3.6l-20.3,2.1c-6.8,0.7-13.6,1.6-20.5,1.4v3.7c2.6-1.1,5.3-1.9,8-2.5
						c2.7-0.7,5.3-1.5,7.8-2.6c5.4-2.2,10.6-4.9,16.3-6.6c0.8-0.2,0.3-3.7,0-3.7c-5.6,1.8-10.8,4.4-16.3,6.6c-2.5,1-5.1,1.9-7.7,2.6
						c-2.8,0.6-5.5,1.4-8.1,2.5c-0.6,0.3-0.6,3.6,0,3.7c6.8,0.2,13.7-0.7,20.5-1.4l20.3-2.1l-0.1-3.6c-5.3,7.7-14.1,12.6-23.6,12.2
						v3.7c7.9-0.9,15.2-4.3,21-9.7c0.5-0.4,0.3-1.7,0.3-2.2c0-0.2-0.1-1.6-0.5-1.3c-9.7,6.6-21.4,8.9-32.7,10.9v3.7
						c6.7-1.4,13.2-4.5,19.2-7.8c6.5-3.5,12.5-7.7,18-12.6c0.5-0.4,0.3-1.7,0.3-2.2c0-0.2-0.1-1.6-0.5-1.3
						c-4.9,3.4-10.6,5.9-16.2,8.2c-6.7,2.8-13.5,5.2-20.4,7.3c-3.2,1-6.5,1.9-9.8,2.5v3.7c14.7-5,28.8-11.9,41.7-20.6
						c0.5-0.3,0.3-1.8,0.3-2.2C369.1,98.7,369,97.3,368.5,97.6L368.5,97.6z"/>
					<path class="st7" d="M285.6,317.2c-1.2-3-0.4-5.9,0.5-8.8c1-2.8,1.8-5.7,2.5-8.6c1-5.6,0.4-11.6,3.4-16.7l-0.3-3.4
						c-4,11.5-4.7,23.5-4.3,35.6l0.5-2.2c-1.8-2.1-2.9-4.8-3.3-7.5c-0.5-2.9-0.8-5.9-0.7-8.8c0.3-6.1,1.7-12,4.3-17.5l-0.4-3.2
						c-2.3,6.9-2.9,14.3-4,21.5s-2,14-3.1,21.1c-0.1,0.7-0.1,1.5,0.1,2.2c0.1,0.2,0.3,0.9,0.5,0.3c3-10.3,5.6-20.7,8.6-30.9
						c0.2-0.7,0.2-1.5,0.1-2.3c0-0.1-0.3-1.4-0.5-1.1c-4.5,8.4-8.5,17.5-10.2,27.1l0.5-0.3c-2.1-6.6-1.6-13.9-0.7-20.7
						c0.9-7.1,2.8-14.1,5.6-20.6l-0.5-2.9c-1.8,6.6-3.2,13.3-4.6,20c-1.5,7.8-3.4,16-1.5,23.8c0.1,0.5,0.3,0.7,0.5,0.1
						c0.2-0.8,0.3-1.6,0.1-2.4c-0.9-5.7-1.7-11.5-2.1-17.2s-0.7-11.5,0.4-17.1l-0.7-1.8c-0.4,6.2-0.7,12.3-1.4,18.5
						c-0.5,6.2-1.6,12.3-3.3,18.3l0.6,1.6c0.1-6.1,1-12.2,0.8-18.3c0-2.9-0.4-5.7-1.2-8.5c-1.1-3.3-2.6-6.4-4.5-9.4l-0.2,3.5
						c2.1,1.9,3.9,4.2,5.3,6.7c1.1,2.7,1.9,5.6,2.2,8.5c0.9,6.1,1.2,12.4,0.7,18.6c-0.1,0.6,0,1.3,0.1,1.9c0.1,0.3,0.2,0.6,0.5,0.1
						c2.3-5.3,4.3-10.8,4.9-16.7c0.2-3,0.1-6-0.4-8.9c-0.4-2.8-0.6-5.4,1.3-7.8l-0.5-1.3c0.4,11.8,1.1,23.5,2.2,35.2
						c0,0.4,0.1,1.1,0.5,0.7s0.2-2,0.1-2.5c-1.1-11.4-1.8-22.8-2.2-34.3c0-0.1-0.2-1.7-0.5-1.3c-3.6,4.7-1.7,11-1.4,16.3
						c0.4,6-2.2,12.1-4.6,17.5l0.6,2.1c0.5-7.1,0.2-14.3-0.8-21.4c-0.4-3.2-1.1-6.4-2.3-9.4c-1.4-2.8-3.3-5.3-5.6-7.4
						c-0.4-0.4-0.5,1.2-0.5,1.3c-0.1,0.8,0,1.5,0.3,2.2c1.7,2.7,3.1,5.6,4.1,8.6c0.7,2.4,1,5,0.9,7.5c0,5.5-0.7,11-0.8,16.6
						c0,0.2,0.3,2.5,0.6,1.6c1.8-6.3,3-12.7,3.5-19.2c0.7-6.6,1.1-13.2,1.5-19.7c0-0.5,0.1-1.7-0.2-2.1s-0.4-0.2-0.5,0.3
						c-1.3,6.4-1.1,13-0.7,19.5s1.3,12.9,2.3,19.3l0.6-2.2c-1-4.1-0.4-8.2,0.3-12.3c0.5-2.8,1-5.6,1.6-8.4c1.2-6,2.5-12.1,4.1-18
						c0.2-0.8,0.2-1.6,0-2.4c-0.1-0.3-0.2-1.1-0.5-0.5c-2.4,5.7-4.2,11.6-5.2,17.7c-1.3,6.6-1.7,13.4-1.4,20.1
						c0.2,3.3,0.7,6.6,1.7,9.8c0.2,0.5,0.5,0,0.5-0.3c1.6-9.2,5.5-17.9,9.9-26.1l-0.3-3.3c-3,10.3-5.6,20.6-8.6,30.9l0.5,2.5
						c1-6.7,2-13.5,3-20.2c0.5-3.3,1-6.5,1.5-9.8c0.4-3.8,1.2-7.5,2.3-11.2c0.2-0.8,0.3-1.7,0.1-2.5c0-0.3-0.2-1.3-0.5-0.6
						c-3,6.6-4.6,13.8-4.7,21.1c-0.1,3.6,0.2,7.2,0.9,10.8c0.6,3.1,1.5,6.3,3.7,8.7c0.4,0.4,0.5-2.1,0.5-2.2
						c-0.4-10.7,0.4-21.3,3.9-31.5c0.2-0.7,0.3-1.5,0.2-2.3c0-0.1-0.3-1.4-0.5-1.1c-1.6,2.9-2.6,6-2.9,9.3c-0.4,3.5-0.4,7-1.2,10.4
						c-0.9,3.6-2.5,7-3.1,10.7c-0.7,3.5-0.5,7.1,0.7,10.4c0.3,0.7,0.5-0.4,0.6-0.6C285.9,318.9,285.9,318,285.6,317.2L285.6,317.2z"
						/>
					<path class="st7" d="M371.5,296c-2.7-1.5-4.9-3.7-6.5-6.3c-1.9-3.1-2.4-7-3.9-10.3c-2.5-5.6-7.2-10.3-7.9-16.6l-0.5,2.5
						c3.4,10.8,9.5,20.3,16.6,29.1l0.1-3.6c-3.1-0.6-5.6-2.6-7.9-4.7c-6.8-6.5-11.5-15-13.4-24.2l-0.5,2.9c2,6.1,5.4,11.7,8.5,17.2
						s6,10.9,9,16.3c1.5,2.7,3,5.4,4.4,8.1c0.2,0.4,0.5-1.1,0.5-1.1c0.1-0.8,0.1-1.5-0.2-2.3c-4.3-11.5-9.8-22.4-14.1-33.9
						c-0.2-0.5-0.4,0-0.5,0.3c-0.2,0.7-0.2,1.5-0.1,2.2c1.5,10.3,4.7,20.3,9.3,29.6l0.3-3.3c-4.7-3.4-8.3-8.2-11.5-13.1
						c-3.6-5.5-6.7-11.4-9.1-17.6c-1.2-2.9-2.1-5.9-2.9-8.9l-0.5,2.9c2.4,6.2,5.2,12.3,8.1,18.3c3,6.4,5.9,13.5,11.5,18.1
						c0.4,0.3,0.5-1.1,0.5-1.3c0-0.5,0.2-1.8-0.3-2.2c-4.3-4.1-8.4-8.4-12.3-13s-7.8-9.3-10.3-14.8l-0.3,3.3
						c3.8,5.8,7.4,11.7,10.8,17.7s6.9,12.2,9.1,18.7l0.3-3.4c-4-5.6-7-11.7-10.9-17.4c-1.6-2.5-3.6-4.7-5.9-6.5
						c-2.7-1.8-5.6-3.4-8.7-4.6v3.6c3.1,0.5,6.2,1,8.9,2.6c2.6,1.7,4.9,3.7,7,6c4.4,4.5,8.3,9.4,11.6,14.6c0.2,0.4,0.5-0.9,0.5-0.8
						c0.1-0.7,0.1-1.5-0.1-2.2c-1.2-5.2-2.7-10.3-5.3-15c-1.4-2.3-3.1-4.4-5-6.3c-1.8-1.9-4.7-4.6-4.7-7.4l-0.5,1.8
						c7.1,9,14.4,17.7,22.1,26.1c0.3,0.4,0.5-1.2,0.5-1.3c0-0.6,0.2-1.8-0.3-2.2c-7.6-8.5-15-17.2-22.1-26.1
						c-0.3-0.4-0.5,1.7-0.5,1.8c-0.1,2.9,0.9,5.7,2.6,8c1.9,2.4,4.3,4.4,6.1,6.9c3.5,4.8,5.1,10.7,6.5,16.4l0.4-3.1
						c-3.4-5.4-7.4-10.4-12-15c-2-2.2-4.4-4.2-6.9-5.8c-2.7-1.6-5.8-2.2-8.9-2.6c-0.5-0.1-0.6,3.4,0,3.6c3.2,1.2,6.2,2.9,9,4.8
						c2.2,1.8,4.1,4,5.6,6.4c3.8,5.6,6.8,11.6,10.7,17.1c0.3,0.4,0.5-1,0.5-1.1c0.1-0.8,0.1-1.5-0.2-2.3c-2.3-6.6-5.7-12.8-9.1-18.8
						s-7.2-12.1-11-18c-0.2-0.4-0.5,1-0.5,1.1c-0.1,0.8-0.1,1.6,0.2,2.3c2.6,5.4,6.4,10.3,10.3,14.8s8.2,9,12.5,13.2l0.2-3.5
						c-5.5-4.6-8.5-11.7-11.5-18c-2.8-5.9-5.6-11.9-7.9-18c-0.2-0.6-0.5,0.2-0.5,0.5c-0.2,0.8-0.2,1.6,0,2.4
						c1.5,5.9,3.6,11.6,6.4,17c2.9,6.1,6.5,11.8,10.7,17.1c2,2.5,4.2,4.7,6.8,6.6c0.5,0.3,0.5-2.9,0.3-3.3c-4.5-8.9-7.6-18.5-9-28.3
						l-0.5,2.5c4.3,11.5,9.8,22.4,14.1,33.9l0.3-3.4c-3.5-6.5-7.1-13-10.7-19.5c-1.8-3.2-3.5-6.4-5.3-9.6c-2.3-3.9-4.2-8-5.7-12.2
						c-0.2-0.7-0.5,0.3-0.5,0.5c-0.2,0.8-0.2,1.6,0,2.4c1.3,6.4,3.9,12.4,7.5,17.8c1.8,2.7,3.9,5.2,6.3,7.4c2.3,2.2,4.9,4.3,8.1,4.9
						c0.6,0.1,0.4-3.2,0.1-3.6c-7-8.7-13-18-16.4-28.7c-0.2-0.6-0.4,0.1-0.5,0.3c-0.2,0.7-0.2,1.5-0.1,2.2c0.4,3.2,1.5,6.2,3.1,9
						c1.7,3,3.7,5.7,5.1,8.9c1.5,3.4,2.1,7.3,4,10.5c1.7,2.7,4,5,6.8,6.6c0.3,0.2,0.4-1.7,0.4-1.8C371.9,297.4,372,296.3,371.5,296
						L371.5,296z"/>
					<path class="st7" d="M412.8,158.8c6.1-4.4,7.2-12.6,8.3-19.5c1.4-9.2,2-18.5,1.8-27.8l-0.8,0.9c1.6,12.4,0.3,25-3.6,36.8
						l0.5,2.9c2.1-12.1,4.5-24.2,7.3-36.2l-0.6-0.4c1.4,14.5,1.8,29.3-2.3,43.4l0.5,2.9c3.4-14.2,5.2-28.8,5.6-43.4l-0.6,1.6
						c5,14.9,3.6,31.2-3.9,45c-2.1,4-4.6,7.7-7.5,11.2c-0.3,0.7-0.4,1.5-0.3,2.2c0,0.2,0.2,1.6,0.5,1.3c11-12.7,15.3-29.2,17.2-45.6
						c0.6-5.1,1-10.2,1.4-15.4l-0.7,0.4c1,7.7,1.8,15.5,0.7,23.3c-1.1,8.2-4.9,15.4-8.9,22.5l-6.9,12.2l0.3,3.3
						c2-4.4,4.9-8.3,7.5-12.4c2.4-3.8,4.6-7.8,6.4-11.9c3.5-8.3,5.6-17.1,6.1-26.1l-0.8-0.5c0,16.8-5.6,33.2-14.9,47.1
						c-0.3,0.7-0.4,1.5-0.3,2.2c0,0.2,0.2,1.6,0.5,1.3c6.9-7.2,12-15.9,15-25.4c3-9.8,4-20.9,0.3-30.7c-2.1-5.6-5.5-10.6-8.8-15.5
						c-0.2-0.4-0.5,0.8-0.5,0.8c-0.1,0.7-0.1,1.5,0.1,2.2c4,14.1,3.4,29.2-1.5,43l0.6,2.1c1.1-17.8,2.1-35.8-1.2-53.5
						c-0.1-0.3-0.2-0.6-0.4-0.4s-0.3,1.4-0.2,1.7c0.4,17.4,0.8,34.9-1.3,52.2l0.8,0.9c-0.2-17.4-2.2-34.8-5.9-51.9
						c-0.1-0.5-0.2-0.6-0.5-0.3s-0.2,1.6-0.2,2.1c0.6,7.2,2.2,14.3,3,21.4c0.8,6.9-0.1,13.9-2.7,20.4c-1.6,3.9-3.5,7.6-5.8,11.1
						c-0.3,0.7-0.4,1.5-0.3,2.2c0,0.1,0.3,1.6,0.5,1.3c4-6.5,7.3-13.4,8.6-21c1.3-7.8,0.5-15.5-0.8-23.2c-0.7-4.4-1.5-8.8-1.9-13.2
						l-0.7,1.8c3.5,16.2,5.4,32.7,5.7,49.3c0,0.3-0.1,1.6,0.3,1.8s0.4-0.6,0.5-0.8c2.1-17.9,1.8-36,1.4-54l-0.7,1.3
						c3.1,16.5,2,33.3,1,49.9c-0.1,0.6,0,1.3,0.1,1.9c0.1,0.2,0.3,0.6,0.5,0.1c5.5-15.7,6.1-32.7,1.7-48.7l-0.4,3.1
						c5.4,8.2,11,16.6,10.6,26.9c-0.5,9-3.2,17.7-7.9,25.5c-2.6,4.4-5.7,8.5-9.2,12.1l0.2,3.5c10-15,15.4-32.6,15.5-50.6
						c0-0.2,0-1.7-0.4-1.8s-0.4,1.1-0.4,1.3c-0.6,8.7-2.7,17.2-6.3,25.1c-1.9,4.1-4,8-6.5,11.7c-2.6,3.6-4.9,7.4-6.8,11.4
						c-0.2,0.7-0.3,1.5-0.2,2.3c0,0.1,0.3,1.4,0.5,1.1l6.8-12c2.2-3.7,4.2-7.5,6-11.4c3.4-7.9,4.4-16.5,4.2-25.1
						c-0.1-5-0.7-9.9-1.3-14.9c0-0.2-0.1-0.9-0.4-0.9s-0.3,1.2-0.3,1.3c-1.3,16.3-2.7,33.1-10.7,47.7c-2.1,3.8-4.5,7.4-7.4,10.7
						l0.2,3.5c11.2-13.6,16.5-31.2,14.7-48.8c-0.5-4.8-1.5-9.6-3.1-14.2c-0.3-0.9-0.6,1.4-0.6,1.6c-0.4,13.7-2.2,27.4-5.4,40.8
						c-0.2,0.8-0.2,1.6,0,2.4c0,0.2,0.3,1.2,0.5,0.5c4.6-15.7,4.2-32.2,2.6-48.4c-0.1-0.6-0.4-1.4-0.6-0.4
						c-2.8,12-5.2,24.1-7.3,36.1c-0.1,0.8-0.1,1.6,0,2.4c0,0.2,0.3,1.1,0.5,0.5c4.4-13.5,5.7-27.8,3.9-41.8c0-0.2-0.1-1.1-0.5-0.8
						s-0.3,1.4-0.3,1.8c0.1,8.5-0.4,17-1.8,25.5c-1,6.6-2,14.1-7.9,18.3c-0.5,0.3-0.3,1.8-0.3,2.2
						C412.3,157.8,412.4,159.1,412.8,158.8L412.8,158.8z"/>
					<path class="st8" d="M301.3,110.8c-1.1,8.1-2.5,16.1-4.4,24.1c-1.3,4.6-3,9-4,13.7c-0.5,2.5-0.9,5-1.5,7.5
						c-1.6,6.8-5,13-9,18.7c-0.9,1.4-2,2.8-3.2,3.9c-6,5.6-13.8,6.2-20.2,0.8c-4.6-3.9-7.4-9.4-10.5-14.7c-1.5-2.3-2.7-4.7-3.8-7.2
						c-1-2.6-1.5-5.3-1.8-8c0-1.7-1.1-3.3-1.8-4.9s-1.4-3.4-2-5.1c-1.3-3.5-2.4-7-3.3-10.5c-0.9-3.4-1.6-6.8-2.1-10.3
						c-0.9-5.9-1-12-3.8-17.4c-0.9-1.3-1.4-2.8-1.7-4.4c-0.2-1.8,1-3.4,2.8-3.6c0.7-0.1,1.4,0.1,2,0.4c3,1.8,5.2,4.3,8.3,5.9
						c5.5,2.8,11.1,5.6,17.2,6.5c6.7,0.9,13.5-0.4,19.5-3.5c3.1-1.5,6-3.4,8.7-5.7c4.4-3.6,7.4-8.8,12.6-11c0.6-0.2,1.4-0.4,1.8,0
						c0.3,0.4,0.4,0.9,0.3,1.4c-0.2,5.3-1.1,10.6-0.7,16c0.3,2.4,0.4,4.8,0.4,7.2C301.3,110.7,301.3,110.7,301.3,110.8z"/>
					<path class="st9" d="M282.4,54.1c-1.8-0.1-3.5-0.4-5.2-0.9c-1.6-0.7-3.2-1.7-4.5-2.9l-7.3-5.6c-1.3-1.2-2.9-2.1-4.6-2.5
						c-3.8-0.6-6.9,2.6-9.9,5c-7.5,6.2-17.5,8.3-27.2,8.6c2.5,9.8,3.1,20,1.9,30.1c-0.1,0.3-0.1,0.7,0,1c0.3,0.9,1.4,1,2.3,1.1
						c5.1,0.6,10.9,5.7,15.3,8.3c7.3,4.4,9,8.5,17.5,8.8c3.3,0.1,6.9,1.6,10.1,0.8c2.6-0.6,5.2-0.5,7.8-1.7c2.1-1.1,4.1-2.5,5.9-4.1
						c5-4.3,14.4-14,18.3-19.2c0.9-1.2,2.5-3.1,2.2-4.8c-0.2-1.4-0.4-2.7-0.4-4.1c-0.1-3.3-0.5-6.5-1-9.8c-0.2-1.5-1.4-2.9-1.4-4.4
						c-0.1-1.2-0.6-2.3-1.2-3.3c-1-1.5-6.8-0.2-8.5-0.2C289.2,54.4,285.8,54.4,282.4,54.1z"/>
					<path class="st6" d="M299.6,47.9c-0.9-4.2,0.5-13.9,0.7-15c0.8-4.2,6.3-5.4,3.7-15.5c-0.7-2.6-1.8-6.3-4.5-7.5
						c-3.6-1.6-8.6-0.2-12.1,0.9c-2.9,1.1-5.8,1.9-8.9,2.6c-3.2,0.4-6.5,0.1-9.7-0.6c-5.5-1.1-11.4-2.7-17.1-2.2
						c-6.1,0.7-12,2.9-17.1,6.2c-1.1,0.8-2.3,1.5-3.6,2c-1.6,0.4-3.3,0.6-4.9,0.3c-2.4-0.2-4.6-1.1-7-1.1c-2.3,0.1-4.5,0.8-6.5,2.1
						c-1.9,1.1-3.1,3-3.4,5.2c-0.3,0.8-0.4,1.6-0.4,2.4c0.4,2,1.3,3.8,2.8,5.3c1.9,2,4.1,3.7,5.7,6c1.7,2.5,2.3,5.5,3,8.4
						c0.2,1,0.6,1.9,1.2,2.6c0.5,0.5,1.1,0.8,1.7,1c4,1.6,8.7,1,12.6-0.8c3.2-1.5,7.6-1.9,10.5-4c2.6-2,5.3-3.9,7.8-6
						c0.4-0.4,0.9-0.7,1.4-1c3.5-1.5,9,1.4,11.4,3.8c1.2,1.2,2.1,2.8,3.4,3.9c1.2,0.8,2.6,1.5,4,1.8l4.1,1.3
						c0.9,0.3,1.7,0.5,2.6,0.7c1.2,0.2,2.4,0.2,3.7,0.1l9.5-0.3c2-0.1,4.1-0.2,5.5-1.5C299.7,48.6,299.7,48.2,299.6,47.9z"/>
					<path class="st7" d="M302.7,25.9c-0.2,0-0.5,0-0.7-0.1c-0.5-0.1-1-0.2-1.5-0.4c-0.1,0-0.2,0-0.2,0c-0.4-0.2-0.8-0.4-1.1-0.7
						c-0.2-0.2-0.5-0.4-0.7-0.6c-0.9-0.1-1.5-0.9-1.5-1.7c-0.1-1,0-2,0.2-3c-0.1-1.5,0.2-2.9,0.7-4.3c0.1-0.2,0.2-0.3,0.4-0.3
						c0.2,0,0.3,0,0.5,0.2l0.6,0.8c0.1-0.1,0.1-0.1,0.2-0.2c0.2-0.1,0.3,0,0.5,0.1s0.3,0.2,0.4,0.4c0.1-0.5,0.2-1,0.4-1.5
						c0.1-0.3,0.3-0.4,0.6-0.3c0.1,0,0.2,0.1,0.3,0.2c0,0.1,0.1,0.1,0.1,0.2c0-0.3,0.1-0.6,0.1-0.9c0-0.3,0.3-0.4,0.5-0.4l0,0
						c0.3,0,0.5,0.2,0.5,0.5c0,0.9,0,1.9,0,2.8c1.2,2.3,2.2,4.6,3.2,7c0.1,0.2,0,0.4-0.1,0.5s-0.4,0.2-0.5,0.1l-0.5-0.2l-0.1,0.5
						c-0.1,0.4-0.3,0.7-0.7,0.8c-0.1,0.3-0.3,0.5-0.6,0.6C303.2,25.8,302.9,25.9,302.7,25.9z M301.3,24.6c0.3,0.1,0.5,0.2,0.8,0.2
						c0.2,0,0.4,0.1,0.6,0.1c-0.4-0.2-0.7-0.5-1-0.8C301.6,24.3,301.4,24.5,301.3,24.6z M299.7,23.9c0.2,0.1,0.4,0.3,0.6,0.4
						c0.2-0.2,0.3-0.4,0.4-0.5l0,0c-0.2,0.1-0.4,0-0.5-0.1C300.1,23.7,299.9,23.8,299.7,23.9z M302.1,23c0.3,0.4,0.6,0.7,1.1,1
						c-0.1-0.6-0.4-1.2-0.7-1.8l-0.1-0.2C302.3,22.4,302.2,22.7,302.1,23L302.1,23z M301,23L301,23c0,0.1,0,0.1,0,0.2l0,0
						C301,23.1,301,23.1,301,23z M298,19.7c0.1,0.7,0.2,1.3,0.4,2c0.1,0.5,0.3,1,0.6,1.4c0.3-0.1,0.6-0.2,0.8-0.4
						c-0.7-1.8-1-3.7-0.8-5.7c-0.3,0.3-0.5,0.7-0.6,1.1c0,0.1,0,0.1-0.1,0.2C298.2,18.8,298.1,19.2,298,19.7L298,19.7z M299.9,18.3
						c0,1.2,0.2,2.4,0.6,3.6l0,0c-0.1-0.3-0.1-0.5-0.2-0.8c-0.1-0.8-0.2-1.7-0.2-2.5L299.9,18.3z M302.8,19.6c0.2,0.8,0.5,1.5,1,2.1
						C303.5,21,303.2,20.3,302.8,19.6L302.8,19.6z M301.5,18.2c0,0.1,0.1,0.2,0.1,0.3C301.6,18.4,301.6,18.4,301.5,18.2L301.5,18.2z
						 M301.2,16.7l0.4,0.3c0-0.2,0-0.4,0-0.6l-0.2-0.5L301.2,16.7z"/>
					<path class="st7" d="M214.3,34.4L214.3,34.4c-0.3,0-0.5-0.3-0.5-0.5c0.1-0.9,0.2-1.7,0.3-2.6c-0.8-2.2-1.6-4.5-2.2-6.8
						c0-0.2,0-0.4,0.2-0.5s0.4-0.1,0.6,0l0.4,0.2l0.1-0.4c0.1-0.3,0.4-0.6,0.7-0.7c0.1-0.2,0.3-0.4,0.6-0.5c0.5-0.1,1-0.1,1.4,0.1
						c0.5,0.1,0.9,0.3,1.4,0.6c0.1,0,0.2,0,0.2,0.1c0.4,0.2,0.7,0.5,1,0.8c0.2,0.2,0.4,0.4,0.5,0.6c0.8,0.2,1.3,1,1.2,1.8
						c0,0.9-0.2,1.8-0.5,2.7c-0.1,1.4-0.5,2.7-1.1,3.9c-0.1,0.2-0.4,0.3-0.7,0.2c-0.1,0-0.1-0.1-0.2-0.2c-0.2-0.2-0.3-0.5-0.5-0.8
						c-0.1,0.1-0.1,0.1-0.2,0.1c-0.2,0-0.3,0-0.5-0.1c-0.1-0.1-0.2-0.2-0.3-0.4c-0.1,0.4-0.3,0.9-0.5,1.3c-0.1,0.2-0.3,0.3-0.4,0.3
						l0,0c-0.2,0-0.4-0.1-0.4-0.3v-0.1c-0.1,0.2-0.1,0.5-0.2,0.7C214.8,34.2,214.6,34.4,214.3,34.4z M215.3,31.5
						c0,0.1,0.1,0.2,0.1,0.4l0.1-0.6l-0.2-0.2L215.3,31.5z M217.6,25.9c0.4,1.7,0.5,3.5,0.2,5.2c0.2-0.2,0.4-0.5,0.6-0.9
						c0-0.1,0.1-0.1,0.1-0.2c0.1-0.4,0.3-0.8,0.4-1.2c0-0.6,0-1.3-0.1-1.9c-0.1-0.5-0.2-0.9-0.4-1.3
						C218.1,25.7,217.8,25.8,217.6,25.9L217.6,25.9z M216.9,29.7l0.1,0.2c0.1-0.8,0.1-1.5,0-2.3C217,28.3,216.9,29,216.9,29.7
						L216.9,29.7z M213.9,26.5c0.1,0.6,0.3,1.1,0.6,1.7C214.3,27.6,214.2,27,213.9,26.5L213.9,26.5z M214.6,24.4
						c0.1,0.6,0.2,1.1,0.5,1.6v0.1c0.1-0.3,0.2-0.5,0.3-0.8C215.2,25,214.9,24.6,214.6,24.4L214.6,24.4z M216.9,24.8
						c0.1,0,0.3,0.1,0.4,0.2c0.1-0.1,0.3-0.1,0.4-0.2c-0.1-0.1-0.3-0.2-0.4-0.4C217.1,24.6,217,24.7,216.9,24.8L216.9,24.8z
						 M215.2,23.6c0.3,0.2,0.5,0.5,0.7,0.8c0.1-0.1,0.2-0.3,0.4-0.4c-0.2-0.1-0.4-0.2-0.7-0.2C215.5,23.7,215.4,23.6,215.2,23.6
						L215.2,23.6z"/>
					<path class="st10" d="M373.5,309.4c0.3-0.4,0.6-0.8,1.1-0.9s0.8,0,0.9,0.4c0.1,0.3,0,0.6-0.2,0.8c-0.2,0.2-0.4,0.4-0.6,0.6
						l-0.5,0.4c-0.2,0.2-0.5,0.3-0.8,0.2c-0.3-0.1-0.5-0.5-0.4-0.8C373.1,309.9,373.2,309.6,373.5,309.4z"/>
					<path class="st10" d="M369.4,313.8c0.2-0.2,0.5-0.2,0.7,0s0.3,0.5,0.2,0.7c-0.1,0.3-0.2,0.5-0.4,0.7c-0.3,0.3-0.6,0.5-1,0.6
						c-0.1,0-0.2,0.1-0.3,0c-0.2-0.1-0.4-0.3-0.3-0.5c0.1-0.6,0.4-1.1,0.8-1.5"/>
					<path class="st10" d="M363.2,317.6c-0.2,0.1-0.4,0-0.6-0.1c-0.2-0.2-0.2-0.5-0.1-0.7c0.3-0.5,1.9-1.4,2.5-1
						C366.1,316.6,363.7,317.5,363.2,317.6z"/>
					<path class="st10" d="M359,315.7c0.2,0.1,0.6,0.1,0.7,0.4s-0.1,0.6-0.3,0.7c-0.3,0.2-0.7,0.2-1,0.2s-0.7-0.2-0.8-0.5
						c0-0.2,0-0.4,0.2-0.6c0.2-0.1,0.4-0.3,0.6-0.3C358.6,315.5,358.8,315.5,359,315.7"/>
					<path class="st10" d="M285.6,323c0.4-0.3,0.8-0.5,1.3-0.6c0.4,0,0.7,0.2,0.7,0.7c0,0.3-0.2,0.6-0.4,0.7
						c-0.2,0.2-0.5,0.3-0.8,0.4l-0.6,0.2c-0.3,0.1-0.5,0.1-0.8,0c-0.3-0.2-0.3-0.6-0.1-0.9C285,323.3,285.3,323.1,285.6,323z"/>
					<path class="st10" d="M280.5,326.1c0.2-0.1,0.5,0,0.7,0.2c0.1,0.2,0.1,0.5,0,0.8c-0.1,0.2-0.3,0.4-0.6,0.5
						c-0.3,0.2-0.7,0.3-1.1,0.4c-0.1,0-0.2,0-0.3,0c-0.2-0.1-0.3-0.4-0.2-0.6c0.2-0.6,0.7-1,1.2-1.3"/>
					<path class="st10" d="M272.5,329.1c-0.2,0-0.4-0.1-0.6-0.2c-0.1-0.2-0.1-0.5,0.1-0.7c0.4-0.4,2.2-0.9,2.6-0.3
						C275.6,328.9,273,329.1,272.5,329.1z"/>
					<path class="st10" d="M269.9,325.1c0.2,0.2,0.5,0.3,0.6,0.5s-0.2,0.5-0.5,0.6s-0.7,0-1-0.1s-0.6-0.3-0.6-0.7
						c0-0.2,0.2-0.4,0.4-0.5c0.2-0.1,0.4-0.2,0.6-0.2s0.4,0,0.5,0.1"/>
					<path class="st7" d="M308.8,100.9c-0.6-4.8-1.2-9.7-1.7-14.5s-0.9-9.8-1.6-14.7c-0.9-5.7-1.9-11.3-2.7-17
						c-0.8-5.4-1.5-11.1-1.1-16.6c0.2-2.7,1.6-4.7,2.8-7c0.8-1.5,1.3-3.2,1.6-4.8c0.7-3.5,0.7-7.2-0.1-10.7c-0.6-2.9-2-5.8-4.5-7.4
						c-3.5-2.3-7.9-1.3-11.7-0.2c-4.4,1.2-8.8,2.9-13.5,2.1c-3.5-0.6-6.9-1.4-10.4-1.8c-4.9-0.7-9.9-0.6-14.7,0.2
						c-5.2,1-9.7,3.6-14.5,5.4c-2.3,0.9-4.7,1.4-7.2,1.5c-2.2,0-4.4-0.2-6.6-0.3c-4.3-0.2-9,0-12.2,3.4c-3,3.2-3.4,8.4-2.2,12.4
						c1.1,3.7,3.9,6.5,6.4,9.4c1.4,1.5,2.6,3.1,3.6,4.9c1,1.8,1.7,3.8,2.2,5.8c1.2,4.3,1.9,8.6,2.3,13c0.8,8.5,0.6,17,0.9,25.5
						c0.1,2.5,0.3,5.1,0.4,7.6c0,0.2,0,1.8,0.4,1.8s0.4-1.7,0.4-1.8c-0.1-4.4-0.4-8.9-0.5-13.3c-0.1-4.2-0.1-8.4-0.3-12.5
						c-0.4-8.6-1-17.5-3.9-25.7c-1.4-3.6-3.5-6.9-6.1-9.7c-1.3-1.4-2.5-2.9-3.6-4.4c-0.9-1.4-2-3.1-2-4.8c0-2.2,1.8-4.5,3.5-5.7
						c1.8-1.2,3.9-2,6.1-2.1c4.3-0.4,8.7,0.6,13,0.2c5-0.5,9.4-3.2,14.1-5.1c4.7-1.8,9.6-2.6,14.6-2.4c4.2,0.1,8.3,0.6,12.4,1.5
						c1.4,0.3,2.8,0.6,4.2,0.8c2.2,0.3,4.4,0.2,6.5-0.3c6.7-1.4,16.9-6.6,21.3,1.6c1.3,2.5,1.7,5.3,1.3,8.1
						c-0.2,1.7-0.8,3.3-1.5,4.8c-1.1,2-2.3,3.9-2.8,6.2c-1,5.1-0.5,10.6,0,15.7c0.5,5.5,1.4,11,2.4,16.5s1.8,11,2.3,16.6
						c0.4,4.2,0.8,8.4,1.3,12.7l0.9,7.2c0.1,0.4,0.1,1.1,0.5,0.7S308.8,101.4,308.8,100.9L308.8,100.9z"/>
					<path class="st7" d="M221.5,53.4c6.6,1.7,13.6,1.1,19.8-1.7c4.1-1.9,7.8-4.5,11.1-7.6c1.9-1.8,3.9-3.4,6.8-3.1s5.2,1.9,7.3,3.5
						c3.3,2.4,6.1,5.2,10,6.8c8,3.3,17,1.6,25.2,0.2c0.7-0.1,0.4-3.7,0-3.7c-7.3,1.3-15,2.8-22.3,0.8c-1.9-0.5-3.7-1.2-5.3-2.1
						c-1.9-1.1-3.7-2.5-5.3-3.9c-2.3-2.1-5.1-3.7-8-4.8c-3-0.9-5.3,0.1-7.6,2.1c-3,2.8-6.3,5.2-9.8,7.2c-6.7,3.6-14.4,4.6-21.8,2.7
						C221.2,49.6,220.7,53.2,221.5,53.4L221.5,53.4z"/>
					<path class="st7" d="M301.3,117.9c-0.5,3.2-1.2,6.3-1.7,9.5c-1,5.8-2.1,11.5-3.4,17.2c-1.3,5.8-2.9,11.6-4.7,17.2
						c-1.8,5.4-4,10.8-7.8,15.1c-1.5,1.8-3.3,3.3-5.4,4.3c-1.9,0.8-3.9,1.2-5.9,1.3c-4,0.2-8.4-0.6-11.5-3.2
						c-3.7-3.1-6.4-7.6-8.6-11.7c-2.4-4.6-4.5-9.4-6.3-14.3c-4.6-12.3-9-24.8-10.6-37.9c-0.1-0.4-0.1-1.2-0.6-0.7s-0.2,2-0.1,2.5
						c1.5,12.3,5.3,24.1,9.6,35.6c3.5,9.7,7.3,19.8,14.2,27.6c1.3,1.7,3,3,4.9,4c1.9,0.9,4,1.5,6.1,1.7c4,0.4,8.5-0.3,11.8-2.8
						c4.4-3.4,7.1-8.5,9.1-13.6c2.2-5.7,4-11.5,5.4-17.4c1.8-7,3.2-14,4.4-21.1c0.7-3.8,1.5-7.6,2.1-11.4c0.1-0.6,0.3-2-0.1-2.5
						S301.4,117.5,301.3,117.9L301.3,117.9z"/>
					<path class="st7" d="M338.6,208.3c5.2,0.9,11-0.1,16.1-1.3c13.7-3.4,25.8-11.6,35.4-21.7c11.5-12.1,21.1-27,25.6-43.2
						c3.3-11.6,3.8-23.8,1.5-35.6c-1.1-5.2,4.6-10.2,9.3-11.2c5.4-1.1,10.1,2.2,12.6,6.8c1.8,3.3,3.1,6.9,4,10.6
						c1.3,5,2.2,10.1,2.6,15.2c1.2,12.1,0,24.3-3.6,35.9c-2,6.2-4.9,12.1-8.7,17.5c-3.8,5.1-8.3,9.7-13.2,13.6
						c-8.7,7.4-18.3,13.5-29.2,17c-13.1,4.2-27.1,4.5-40.7,3.3c-4.4-0.4-8.7-1-13.1-1.6c-0.4-0.1-0.7,3.5,0,3.7
						c15.1,2.3,30.9,3.5,46,0.4c11.4-2.4,22-7.4,31.3-14.4c4.9-3.6,9.5-7.6,13.8-12c4.6-4.8,8.4-10.4,11.2-16.4
						c5.5-11.8,7.5-25.1,7.5-38c0-10.7-1.4-21.7-4.9-31.8c-1.1-3.3-2.5-6.7-4.8-9.3c-2-2.4-5-4-8.1-4.2c-2.8-0.1-5.6,0.9-7.7,2.7
						c-2.3,1.8-3.9,4.2-4.6,7c-0.9,3.1-0.4,6.2,0.1,9.3c1,5.3,1.2,10.7,0.8,16c-1.3,15.3-8.1,29.6-16.8,42
						c-9.7,13.7-22,26-37.8,32.4c-7.3,2.9-15.5,4.8-23.4,4.1c-0.4,0-0.8-0.1-1.1-0.1S337.9,208.3,338.6,208.3L338.6,208.3z"/>
					<path class="st7" d="M279.5,34.5c-0.4,0.3-0.9,0.5-1.5,0.4c-0.5-0.1-1-0.5-1.2-1s-0.4-1.1-0.4-1.6c-0.2-0.8-0.1-1.6,0.4-2.3
						c0.2-0.3,0.5-0.5,0.8-0.6c0.6-0.3,1.3-0.3,1.9,0c0.6,0.6,1,1.4,0.9,2.3C280.5,32.9,280.7,33.7,279.5,34.5z"/>
					<path class="st7" d="M237.5,31c0.4-0.3,1-0.4,1.5-0.3c0.5,0.2,1,0.5,1.2,1.1c0.2,0.5,0.3,1.1,0.4,1.6c0.2,0.8,0,1.6-0.4,2.3
						c-0.2,0.3-0.5,0.5-0.9,0.6c-0.6,0.3-1.3,0.3-1.9,0C236,35.3,236.1,32.1,237.5,31z"/>
					<path class="st7" d="M259.3,40.4c-2.1,0.1-3.8-1.5-5.2-3c-0.4-0.4-0.7-0.9-0.9-1.5s-0.1-1.2,0.3-1.6c0.2-0.2,0.5-0.3,0.8-0.4
						c2.3-0.8,8-1.5,10,0.5C266.7,36.8,261.5,40.3,259.3,40.4z"/>
					<path class="st7" d="M297.8,10.6c-0.7,0.7-1.2,1.5-1.5,2.4c-0.4,1-0.8,2-1.1,3c-0.6,2.2-0.6,4.5-0.2,6.7
						c0.6,3.4,2.9,6.4,6.1,7.7c0.3,0.1,0.4-1.7,0.4-1.8c0-0.4,0.1-1.6-0.4-1.8c-2.5-1-4.4-3.1-5.3-5.6c-0.3-0.9-0.3-1.9,0-2.8
						c0.2-0.8,0.6-1.6,0.9-2.3c0.2-0.8,0.6-1.5,1.2-2c0.5-0.3,0.3-1.8,0.3-2.2C298.3,11.6,298.2,10.2,297.8,10.6L297.8,10.6z"/>
					<path class="st7" d="M216.7,22.1c0.7,0.2,1.1,1,1.6,1.5c0.5,0.6,1,1.3,1.4,1.9c0.8,1,1.2,2.3,1.4,3.6c0,2.2-1.8,4.6-3.6,6
						c-0.4,0.3-0.3,1.8-0.3,2.2c0,0.2,0.1,1.6,0.5,1.3c3.1-2.3,4.3-6.2,4.2-10c0-2-0.5-3.9-1.4-5.7c-0.5-0.9-1.1-1.8-1.7-2.5
						c-0.6-0.7-1.2-1.7-2.1-2C216.5,18.4,215.9,21.8,216.7,22.1L216.7,22.1z"/>
					<path class="st7" d="M258.7,39.5c-0.2,2-0.1,4,0.1,6c0.2,1.6,0.6,3.5,2,4.5c1.1,0.8,2.5,1.1,3.9,1c1.4,0.1,2.7-0.4,3.7-1.4
						c0.1-0.3,0.2-0.5,0.2-0.8c0-0.5,0-0.9,0-1.4c0-0.2-0.2-1.6-0.5-1.3c-0.8,0.9-2,1.3-3.2,1.3c-1.2,0.1-2.4-0.1-3.5-0.5
						c-1.1-0.6-1.8-1.7-1.9-2.9c0-0.1-0.1-0.3-0.1-0.4c0,0-0.1-0.5,0-0.2c0-0.2,0-0.3,0-0.5s0-0.2,0,0V42c0-0.1,0-0.6,0-0.2l0.1-1.2
						c0-0.5,0-0.9,0-1.4c0-0.2-0.1-0.7-0.2-0.8C258.9,37.9,258.8,39.4,258.7,39.5L258.7,39.5z"/>
					<path class="st7" d="M259,46.4c0-0.4,0.1-0.9,0-1.3c0-0.2,0,0.1,0,0c-0.1,0.2-0.1,0.3-0.2,0.5c-0.6,1.1-1.8,1.9-3.1,1.9
						c-0.9,0.1-1.8-0.1-2.7-0.3c-0.7-0.2-1.3-0.6-1.6-1.3c-0.1-0.2-0.2-0.3-0.3-0.2s-0.2,0.7-0.2,0.8c-0.1,0.8-0.1,1.7,0.1,2.5
						c0.3,0.9,1.1,1.6,2,1.8c1.1,0.4,2.3,0.4,3.4,0.2s2-0.9,2.6-1.8c0.8-1.4,1.1-3.1,0.8-4.7c0-0.2-0.3-1.4-0.5-0.7
						C259,44.7,258.9,45.5,259,46.4L259,46.4z"/>
					<path class="st7" d="M297.1,87.1c-4.9,8.2-12.3,15.8-21.6,18.7c-5.3,1.6-10.8,0.9-16-0.7c-5.2-1.6-10.2-3.9-14.8-6.9
						c-5.1-3.3-9.8-7.2-13.9-11.8c-0.3-0.4-0.5,1.2-0.5,1.3c0,0.6-0.1,1.8,0.3,2.2c7.2,8.2,16.4,14.5,26.7,18.1
						c5.2,1.8,11,3,16.4,1.8c4.8-1.1,9.3-3.4,13-6.7c4.2-3.6,7.8-7.9,10.7-12.6c0.3-0.7,0.4-1.5,0.3-2.2
						C297.6,88.2,297.3,86.7,297.1,87.1z"/>
					<path class="st7" d="M272.6,90.5c0.4,0.5,0.7,1,1,1.6l-0.1-0.2c0.3,0.6,0.6,1.3,0.8,2c0,0.2,0.2,0.3,0.3,0.2s0.2-0.7,0.2-0.8
						c0.1-0.8,0.1-1.7-0.1-2.5c-0.4-1.3-1.1-2.6-1.9-3.7c-0.1-0.2-0.3,0.1-0.3,0.2c-0.1,0.4-0.2,0.7-0.2,1.1c0,0.5,0,0.9,0,1.4
						C272.4,90,272.5,90.3,272.6,90.5L272.6,90.5z"/>
					<path class="st7" d="M269.3,92c0.1,0.2,0.1,0.4,0.2,0.5s0,0.1,0,0.1c0-0.1,0-0.2,0-0.1l0.1,0.2c0.1,0.4,0.2,0.7,0.2,1.1
						c0.1,0.3,0-0.3,0,0c0,0.1,0,0.2,0,0.3l0.1,0.5c0,0.3,0-0.4,0-0.1c0,0.1,0,0.2,0,0.3c0,0.1,0,0.2,0,0.3c0,0.4,0-0.4,0-0.1
						c0,0.4,0.1,0.9,0.2,1.3c0,0.1,0.1,0.5,0.3,0.5s0.3-0.4,0.3-0.5c0.1-0.4,0.1-0.9,0.1-1.3c0-2.1-0.3-4.2-1-6.2
						c0-0.2-0.2-0.3-0.3-0.2s-0.2,0.7-0.2,0.8C269,90.4,269.1,91.2,269.3,92L269.3,92z"/>
					<path class="st7" d="M263.4,89.9c-0.4,1.8-0.6,3.6-0.7,5.5c0,0.5,0,0.9,0,1.4c0,0.3,0.1,0.6,0.2,0.8c0.4,0.3,0.5-1.2,0.5-1.3
						c0-0.4,0-0.8,0.1-1.1c0-0.1,0-0.2,0-0.3v0.2c0-0.1,0-0.1,0-0.2l0.1-0.5c0-0.2,0-0.4,0.1-0.5c0-0.1,0-0.2,0-0.3v-0.2v0.2
						c0.1-0.4,0.1-0.8,0.2-1.2c0.1-0.4,0.1-0.9,0.1-1.3s0-0.9-0.1-1.3c0-0.1-0.1-0.5-0.3-0.5s-0.3,0.4-0.3,0.5h0.1V89.9z"/>
					<path class="st7" d="M259.6,87.6c-1,0.9-1.6,2.2-1.7,3.5c0,0.5,0,0.9,0,1.4c0,0.2,0,0.4,0.1,0.6c0,0.2,0.1,0.3,0.1,0.5
						c0.1,0.1,0.2,0.3,0.3,0.2l0.1-0.2c0.1-0.2,0.1-0.4,0.1-0.7v-0.1c0-0.2,0,0.3,0,0.2c0-0.1,0-0.1,0-0.2s0-0.1,0-0.2s0,0.2,0,0.2
						v-0.1c0.1-0.2,0.2-0.4,0.3-0.7l-0.1,0.2c0.2-0.5,0.6-0.9,1-1.3c0.1-0.1,0.1-0.2,0.1-0.3c0.1-0.2,0.1-0.3,0.1-0.5
						c0-0.5,0-0.9,0-1.4c0-0.4-0.1-0.7-0.2-1.1l-0.1-0.2C259.7,87.6,259.6,87.6,259.6,87.6c-0.1,0-0.1,0-0.1,0H259.6z"/>
					<path class="st7" d="M236.2,103.1C220.5,98,209,85.4,200,72.1c-4-5.9-7.6-12.1-11.3-18.2c-2.7-4.5-5.6-9.8-9.8-13.2
						c-1.4-1.1-3.4-2.2-5.2-1.6s-2.7,2.6-3.2,4.3c-0.8,3.2-1.1,6.5-0.8,9.8c0.3,4.5,1,8.9,2.2,13.3c2.5,9.6,6.5,18.8,11.8,27.1
						c5,7.7,10.6,14.8,16.8,21.5c8,8.7,16.7,16.7,25.9,24l0.5,0.4l-0.3-1.3c0.5,11,1.5,22,3.1,32.8c3,20.9,7.4,42,16.2,61.3
						c1,2.3,2.2,4.6,3.3,6.8c0.6,1.1,1.2,2.2,1.9,3.3s1.6,2.3,1.9,3.1c0.4,1.2,0.8,2.4,1.1,3.6c1.2,3.8,2.4,7.5,3.7,11.2
						c2.4,6.9,5,13.6,7.1,20.6c3.3,10.9,5.2,22.7,4.3,34.1c-0.4,5.6-2.7,10.9-2.4,16.5c0.1,2.3,0.6,5.7,3.4,6.2
						c1.5,0.1,3.1-0.1,4.5-0.5c1.8-0.3,3.5-0.8,5.2-1.4c2.8-0.8,5.4-2.4,7.5-4.5c1.6-2,2.7-4.3,3.2-6.8c0.9-4.2,1.3-8.5,1.4-12.9
						c0.4-7.2,0.5-14.5,1.9-21.7c1.1-6.1,3.2-14.3,9.5-17.1c3.2-1.4,6.8-0.9,10,0.3c6.3,2.3,12.3,5.5,17.8,9.3
						c8.8,6.1,17.1,14.1,21.8,24c2.3,4.8,3.2,10.1,4.9,15.1c1,2.8,2.3,6.5,5.9,6.6c5,0.1,9.9-3.9,12.6-7.7
						c3.1-4.4,4.5-10.3,2.7-15.5c-1.3-3.3-2.8-6.6-4.6-9.7c-2.3-4.5-4.8-8.9-7.2-13.3c-8.2-14.8-17-29.3-22.9-45.2
						c-4.9-13.2-8.7-26.8-12.4-40.3c-4-14.5-7.8-29.1-10.6-43.9c-1.3-6.9-2.5-13.8-3.4-20.7l-0.4,2.8c4.4-0.3,8.9-0.9,13.2-1.8
						c8.6-1.5,17-4.1,25-7.8c6.3-3,12.2-6.6,17.8-10.8c5-3.6,10-7.7,13.7-12.6c2.4-3,4.5-7.6,2.7-11.4c-1.4-3.1-5.5-2.9-8.3-2.3
						c-5,1-9.8,3.2-14.5,5.1c-6.6,2.7-13.3,5.1-20.1,7.2c-8.1,2.3-16.5,3.7-24.9,4c-4.9,0.2-9.7,0.4-14.4-0.9
						c-1.6-0.4-3.1-1.1-4.5-2c-0.4-0.3-0.5,1.1-0.5,1.3c0,0.4-0.2,1.9,0.3,2.2c4.8,3.2,11.2,3.5,16.8,3.3c6.3-0.2,12.5-0.9,18.6-2
						c7.2-1.5,14.3-3.7,21.2-6.3c5.4-2.1,10.8-4.4,16.2-6.3c3.3-1.2,7.4-2.7,10.9-1.8c0.7,0.2,1.3,0.5,1.9,0.9
						c0.5,0.4,0.7,1.1,1.1,1.5s-0.2-0.7,0-0.7l-0.3,1c-0.4,0.9-0.9,1.8-1.5,2.7c-3.1,4.7-7.6,8.5-12,11.9c-5.5,4.3-11.3,8-17.5,11.3
						c-12.3,6.4-26.3,9.8-40.1,10.9l-0.9,0.1c-0.6,0-0.4,2.4-0.4,2.8c2.5,20,7.2,39.8,12.4,59.2c2.6,9.6,5.3,19.1,8.2,28.6
						c2.4,8,5,16.1,8.2,23.9c3.9,9.5,8.9,18.5,13.9,27.5c3.5,6.2,7,12.4,10.4,18.7c2.9,5,5.5,10.1,7.8,15.4c0.6,1.2,0.8,2.5,0.7,3.8
						c-0.4,1.9-1.2,3.8-2.3,5.4c-2.2,3.4-5.4,6-9.1,7.5c-2,0.7-4.7,1.3-6.5-0.3s-2.6-4.7-3.4-7.1c-1.1-3.6-1.9-7.3-3.3-10.8
						c-1.1-2.8-2.6-5.6-4.3-8.1c-4.3-6.3-9.6-11.9-15.8-16.4c-3.4-2.6-7.1-4.9-10.8-6.9c-3.7-2.1-7.6-3.8-11.7-5.1
						c-4.2-1.2-8.6-0.5-11.7,2.7s-4.9,8.1-5.9,12.5c-1.2,5.3-1.9,10.8-2.2,16.2c-0.3,4.4-0.4,8.8-0.7,13.1c-0.2,3.4-0.4,7-1.6,10.3
						c-1.5,4-4.7,6.5-8.7,8c-2.2,0.8-4.5,1.4-6.8,1.9c-1.8,0.3-4.2,1.1-5.6-0.5c-1.5-1.8-0.8-4.7-0.4-6.7s1.1-4.4,1.4-6.6
						c0.8-6,0.9-12.1,0.3-18.2c-0.8-9.2-2.7-18.3-5.6-27c-2.7-8.1-5.7-16-8.4-24.1c-0.6-1.9-1.2-3.8-1.8-5.7c-0.1-0.5-0.3-1-0.4-1.5
						l-0.1-0.4c-0.1-0.3,0.1,0.2,0,0c-0.5-1-1-2-1.7-2.9c-0.9-1.5-1.8-3-2.6-4.5c-1.7-3.2-3.2-6.5-4.6-9.9
						c-5.7-13.7-9.4-28.2-12.1-42.7c-2.1-11.5-3.7-23.1-4.6-34.8c-0.3-3.1-0.5-6.1-0.6-9.2c0-0.5,0-1-0.1-1.6c0.1-0.8-0.3-1.5-1-1.8
						c-7.9-6.2-15.4-13-22.4-20.3c-10.9-11.3-21.3-24-27.3-38.6c-3.3-7.9-6.3-16.8-6.3-25.5c0-2.9,0.6-8.8,4.7-8.6
						c2,0.1,3.7,1.6,5,2.9c1.5,1.6,2.9,3.3,4.1,5.2c3.1,4.5,5.8,9.3,8.6,14.1c7,11.7,14.7,23.3,25.4,32c5.3,4.4,11.3,7.8,17.9,9.9
						C236.4,106.8,237,103.4,236.2,103.1L236.2,103.1z"/>
				</g>
			</g>
		</g>
		<g class="st11">
			<path class="st5" d="M33.7,61c0-0.3,0.1-0.5,0.3-0.7s0.6-0.3,1.1-0.4c3.1-0.6,5.6-1.8,7.8-3.4v0c-1.5-1.4-2.7-3-3.5-4.7
				c-0.8-1.8-1.2-2.9-1.2-3.4c0-0.5,0.3-0.8,1-0.8c0.2,0,0.5,0.1,0.7,0.2s0.3,0.4,0.4,0.7c0.8,2.6,2.1,4.9,4.1,6.8h0
				c2.1-2.3,3.4-5.2,4-8.7H35.2c-0.8,0-1.2-0.3-1.2-0.9c0-0.6,0.4-1,1.2-1h8v-2.2c0-0.9,0.3-1.3,1-1.3c0.4,0,0.6,0.1,0.8,0.3
				s0.2,0.5,0.2,1v2.2h8.2c0.8,0,1.2,0.3,1.2,1c0,0.6-0.4,0.9-1.2,0.9h-3c-0.9,4.2-2.4,7.5-4.7,9.9v0c2.2,1.6,4.8,2.7,7.9,3.4
				c0.9,0.2,1.3,0.6,1.3,1.1c0,0.8-0.3,1.2-1,1.2c-0.1,0-0.3,0-0.4-0.1s-0.3-0.1-0.4-0.1c-3.6-1-6.5-2.3-8.7-4.1h0
				c-1.4,1.2-3.1,2.2-5.1,3.1c-2,0.9-3.5,1.3-4.5,1.3C34.1,62.1,33.7,61.8,33.7,61z"/>
			<path class="st5" d="M57.6,47.6c0-0.5,0.3-0.8,0.9-0.8h4.8l-0.5-2.2h-3.1c-0.6,0-0.9-0.3-0.9-0.8s0.3-0.8,0.9-0.8h7.4v-1
				c0-0.7,0.4-1,1.1-1s1.1,0.3,1.1,1v1h7.6c0.6,0,0.9,0.3,0.9,0.8s-0.3,0.8-0.9,0.8h-3.3l-0.7,2.2h5.2c0.6,0,0.9,0.3,0.9,0.8
				c0,0.5-0.3,0.8-0.9,0.8H58.6C58,48.4,57.6,48.1,57.6,47.6z M67.3,61.3v-1.7h-8.7c-0.6,0-1-0.3-1-0.8s0.3-0.8,1-0.8h8.7v-1.3h-5
				c-0.8,0-1.3-0.2-1.7-0.5s-0.5-0.9-0.5-1.6v-2.8c0-0.8,0.2-1.3,0.5-1.6s0.9-0.5,1.6-0.5h12c0.8,0,1.3,0.2,1.7,0.5s0.5,0.9,0.4,1.6
				v2.8c0.1,1.5-0.6,2.2-2.1,2.1h-5.1v1.3h8.9c0.6,0,1,0.3,1,0.8s-0.3,0.8-1,0.8h-8.9v1.7c0,0.7-0.3,1.1-1,1.1S67.3,62,67.3,61.3z
				 M74.6,51.6c0-0.4-0.2-0.7-0.7-0.7H62.8c-0.4,0-0.6,0.2-0.7,0.7v0.7h12.5V51.6z M74.6,54.5v-0.8H62.1v0.8c0,0.4,0.2,0.7,0.7,0.7
				h11.1C74.3,55.2,74.6,55,74.6,54.5z M71,46.8l0.6-2.2h-6.9l0.5,2.2H71z"/>
			<path class="st5" d="M82.2,61.2c0-0.7,0.3-1,1-1h0.8c0.5,0,0.8-0.3,0.9-0.9v-4.8l-1.6,0.4L82.6,55c0,0-0.1,0-0.2,0
				c-0.2,0-0.4-0.1-0.6-0.3s-0.2-0.4-0.2-0.7c0-0.6,0.4-0.9,1.3-1.1l1.9-0.5v-5.2h-2c-0.7,0-1.1-0.3-1.1-0.9c0-0.6,0.4-0.9,1.1-0.9
				h2v-3.5c0-0.6,0.3-0.9,0.9-0.9c0.6,0,0.9,0.3,0.9,0.9v3.5h1.3c0.7,0,1,0.3,1,0.9c0,0.6-0.3,0.9-1,0.9h-1.3V52l1.4-0.4
				c0.1,0,0.2,0,0.3,0c0.2,0,0.4,0.1,0.6,0.2s0.2,0.4,0.2,0.6c0,0.2-0.1,0.4-0.2,0.6s-0.3,0.3-0.5,0.4l-1.8,0.6v6
				c0,0.8-0.2,1.4-0.6,1.7c-0.4,0.4-1,0.6-1.7,0.6h-1.2C82.5,62.2,82.2,61.9,82.2,61.2z M88.2,61.3c0-0.2,0.1-0.3,0.2-0.5
				s0.4-0.3,0.8-0.5c1.7-1,2.8-2.4,3.1-4.2L91,56.5c-1.2,0.4-1.9,0.6-2.2,0.6c-0.3,0-0.5-0.1-0.7-0.2s-0.2-0.4-0.2-0.8
				c0-0.5,0.2-0.8,0.7-0.9l1.6-0.4l2.4-0.6l0.1-2.7h-2.4c-0.7,0-1.1-0.3-1.1-0.9c0-0.6,0.4-0.9,1.1-0.9h2.4v-3.3h-2.6
				c-0.7,0-1.1-0.3-1.1-0.9c0-0.6,0.4-0.9,1.1-0.9h2.6v-2.5c0-0.8,0.3-1.1,0.9-1.1c0.6,0,0.9,0.4,0.9,1.2v1.2c0,3.6,0,6.2,0,8
				c-0.1,3.2-0.3,5.4-0.8,6.7c-0.4,1.2-1.2,2.2-2.2,3c-1,0.8-1.7,1.2-2.2,1.2C88.6,62.3,88.2,61.9,88.2,61.3z M96.8,61.2V42.3
				c0-0.8,0.3-1.2,0.9-1.2c0.6,0,0.9,0.4,0.9,1.2v2.5h3.2c0.8,0,1.1,0.3,1.1,0.9c0,0.6-0.4,0.9-1.1,0.9h-3.2v3.4h2.7
				c0.7,0,1.1,0.3,1.1,0.9c0,0.6-0.4,0.9-1.1,0.9h-2.7v3.6h3.3c0.7,0,1.1,0.3,1.1,0.9c0,0.3-0.1,0.5-0.3,0.7s-0.5,0.2-0.8,0.2h-3.3
				v4.1c0,0.7-0.3,1.1-0.9,1.1C97.1,62.3,96.8,61.9,96.8,61.2z"/>
			<path class="st5" d="M113.2,47.2c0,0.5-0.8,1.5-2.3,3.2v10.8c0,0.4-0.1,0.7-0.2,0.9s-0.4,0.3-0.8,0.3s-0.6-0.1-0.8-0.3
				s-0.2-0.5-0.2-0.9v-8.8c-0.6,0.6-1.1,1.1-1.5,1.4s-0.7,0.4-0.9,0.4c-0.3,0-0.5-0.1-0.7-0.3s-0.2-0.4-0.2-0.8
				c0-0.4,0.3-0.8,0.9-1.3c1.7-1.3,3.2-3,4.6-5c0.3-0.4,0.6-0.6,1-0.6C112.8,46.3,113.2,46.6,113.2,47.2z M106,46.2
				c-0.1-0.2-0.2-0.4-0.2-0.8c0-0.4,0.4-0.8,1.1-1.2c1.1-0.6,2.3-1.4,3.7-2.6c0.5-0.4,0.8-0.6,1-0.6c0.3,0,0.6,0.1,0.7,0.2
				s0.3,0.4,0.3,0.7c0,0.4-0.8,1.2-2.5,2.5c-1.7,1.2-2.8,1.9-3.4,1.9C106.4,46.4,106.1,46.4,106,46.2z M127.1,49.5
				c0,0.6-0.4,1-1.2,1h-2.5v9.1c0.1,0.9-0.1,1.6-0.5,2s-1.1,0.6-2,0.6h-2c-0.8,0-1.2-0.4-1.2-1.1c0-0.7,0.4-1,1.2-1h1.4
				c0.4,0,0.7-0.1,0.9-0.3s0.3-0.5,0.3-0.9v-8.5h-6.3c-0.8,0-1.1-0.3-1.1-1c0-0.6,0.4-0.9,1.1-0.9h10.8
				C126.7,48.5,127.1,48.8,127.1,49.5z M115.3,43.8c-0.2-0.2-0.3-0.4-0.3-0.7s0.1-0.6,0.3-0.7s0.4-0.2,0.8-0.2h9.2
				c0.7,0,1.1,0.3,1.1,1s-0.4,1-1.1,1h-9.2C115.7,44,115.5,43.9,115.3,43.8z"/>
		</g>
		<g id="Star">
			<circle class="st12" cx="172.6" cy="46.7" r="22.7"/>
			<path class="st13" d="M186.5,42.2c-0.2-0.5-0.6-0.8-1.1-0.9l-8-1.2l-3.6-7.3c-0.3-0.7-1.1-0.9-1.8-0.6c-0.3,0.1-0.5,0.3-0.6,0.6
				l-3.6,7.3l-8,1.2c-0.7,0.1-1.2,0.8-1.1,1.5c0,0.3,0.2,0.5,0.4,0.7l5.8,5.7l-1.4,8c-0.1,0.5,0.1,1,0.5,1.3s1,0.3,1.4,0.1l7.2-3.8
				l7.2,3.8c0.7,0.3,1.5,0.1,1.8-0.6c0.1-0.3,0.2-0.6,0.1-0.8l-1.4-8l5.8-5.7C186.6,43.2,186.7,42.6,186.5,42.2L186.5,42.2z"/>
		</g>
	</g>
</g>
</svg>
