<?xml version="1.0" encoding="utf-8"?>
<!-- Generator: Adobe Illustrator 24.3.0, SVG Export Plug-In . SVG Version: 6.00 Build 0)  -->
<svg version="1.1" id="圖層_1" xmlns="http://www.w3.org/2000/svg" xmlns:xlink="http://www.w3.org/1999/xlink" x="0px" y="0px"
	 viewBox="0 0 36 36" style="enable-background:new 0 0 36 36;" xml:space="preserve">
<style type="text/css">
	.st0{fill:#DA8138;}
	.st1{fill:#EDC449;}
	.st2{enable-background:new    ;}
</style>
<g id="圖層_2_1_">
	<g id="圖層_1-2">
		<g id="Star">
			<circle class="st0" cx="18" cy="18" r="18"/>
			<path class="st1" d="M31.2,13.9c-0.1-0.5-0.5-0.8-1-0.9l-7.7-1.1L19.1,5c-0.3-0.6-1-0.9-1.7-0.6C17.2,4.5,17,4.7,16.9,5l-3.4,6.9
				L5.8,13c-0.7,0.1-1.2,0.8-1.1,1.4c0,0.3,0.2,0.5,0.4,0.7l5.5,5.4l-1.3,7.7c-0.1,0.5,0.1,1,0.5,1.2c0.4,0.3,0.9,0.3,1.3,0.1L18,26
				l6.9,3.6c0.4,0.2,0.9,0.2,1.3-0.1c0.4-0.3,0.6-0.8,0.5-1.2l-1.3-7.7l5.5-5.4C31.3,14.9,31.4,14.4,31.2,13.9z"/>
		</g>
		<g class="st2">
			<path class="st0" d="M15.9,21.9c-0.1-0.1-0.2-0.3-0.2-0.4s0.1-0.3,0.2-0.4c0.1-0.1,0.3-0.2,0.4-0.2h1.6v-6.7c0-0.1,0-0.1,0-0.1
				c0,0-0.1,0-0.1,0l-1.2,0.6c-0.1,0.1-0.2,0.1-0.3,0.1c-0.2,0-0.3-0.1-0.4-0.2c-0.1-0.1-0.2-0.3-0.2-0.4c0-0.3,0.1-0.5,0.4-0.6
				l1.9-1c0.1-0.1,0.2-0.1,0.4-0.1h0.3c0.2,0,0.3,0.1,0.5,0.2c0.1,0.1,0.2,0.3,0.2,0.5v7.7h1.3c0.2,0,0.3,0.1,0.4,0.2
				s0.2,0.3,0.2,0.4s-0.1,0.3-0.2,0.4s-0.3,0.2-0.4,0.2h-4.2C16.1,22.1,16,22,15.9,21.9z"/>
		</g>
	</g>
</g>
</svg>
