<svg xmlns="http://www.w3.org/2000/svg" viewBox="0 0 20 20"><defs><style>.cls-1{fill:#647f68;}</style></defs><g id="圖層_2" data-name="圖層 2"><g id="圖層_2-2" data-name="圖層 2"><g id="圖層_2-3" data-name="圖層 2"><g id="icon"><path class="cls-1" d="M11.22,14.24a1,1,0,0,1,.27.59A1.07,1.07,0,0,0,11.22,14.24Z"/><path class="cls-1" d="M11.49,5a1.07,1.07,0,0,0-.27-.59A1,1,0,0,1,11.49,5Z"/><path class="cls-1" d="M17.08,2.94A10,10,0,1,0,20,10,10,10,0,0,0,17.08,2.94Zm-.64,7.38a1,1,0,0,1-1,1H8.13l3.06,2.92,0,0a1.07,1.07,0,0,1,.27.59V15a1,1,0,0,1-.27.59l0,0-.43.43a.85.85,0,0,1-.23.17l-.09.05h0l-.17,0a1.15,1.15,0,0,1-.37,0l-.18,0h0l-.09-.05A.91.91,0,0,1,9.39,16L4,10.68A1,1,0,0,1,4,9.32L9.39,4a.72.72,0,0,1,.23-.17l.09,0,.08,0,.1,0a1.15,1.15,0,0,1,.37,0l.09,0,.09,0,.09,0a.91.91,0,0,1,.23.17l.43.43,0,0a1.07,1.07,0,0,1,.27.59v.16a1,1,0,0,1-.27.59l0,0L8.13,8.71h7.34a1,1,0,0,1,1,1Z"/></g></g></g></g></svg>