<?xml version="1.0" encoding="utf-8"?>
<!-- Generator: Adobe Illustrator 24.3.0, SVG Export Plug-In . SVG Version: 6.00 Build 0)  -->
<svg version="1.1" id="圖層_1" xmlns="http://www.w3.org/2000/svg" xmlns:xlink="http://www.w3.org/1999/xlink" x="0px" y="0px"
	 viewBox="0 0 161.5 71.8" style="enable-background:new 0 0 161.5 71.8;" xml:space="preserve">
<style type="text/css">
	.st0{fill:#FFFFFF;}
</style>
<g id="圖層_2_1_">
	<g id="圖層_1-2">
		<path class="st0" d="M140.9,28.5c-0.4,0-0.8,0-1.2,0c-0.8-6.7-8.2-12-17.2-12c-3.5,0-6.9,0.8-9.9,2.4c-3.1-3.7-8.4-6.1-14.6-6.1
			c-1.2,0-2.3,0.1-3.5,0.3C91.8,5.6,82.9,0,72.2,0C60,0,49.9,7.3,49.2,16.5c-0.8-0.1-1.5-0.1-2.3-0.1c-8.6,0-15.9,3.9-19.2,9.5
			c-2.7-1-5.5-1.5-8.4-1.5C8.6,24.5,0,31.1,0,39.2S8.6,54,19.3,54h0.2c2,6.2,9.3,10.8,18.1,10.8c4.2,0,8.3-1.1,11.9-3.3
			c2.9,6,10.5,10.3,19.5,10.3c8.4,0,15.6-3.8,18.8-9.3c4.5,4.3,11.4,7.1,19.2,7.1c10.5,0,19.4-5.1,22.8-12.2c3.4,1.7,7.2,2.5,11,2.5
			c11.4,0,20.6-7.1,20.6-15.8S152.3,28.5,140.9,28.5z"/>
	</g>
</g>
</svg>
