<?xml version="1.0" encoding="utf-8"?>
<!-- Generator: Adobe Illustrator 24.3.0, SVG Export Plug-In . SVG Version: 6.00 Build 0)  -->
<svg version="1.1" id="圖層_1" xmlns="http://www.w3.org/2000/svg" xmlns:xlink="http://www.w3.org/1999/xlink" x="0px" y="0px"
	 viewBox="0 0 107.9 99.4" style="enable-background:new 0 0 107.9 99.4;" xml:space="preserve">
<style type="text/css">
	.st0{fill:#FBFBFB;}
</style>
<path class="st0" d="M107.9,38.9c0-7.5-6.1-13.8-14.3-15.2C90.9,17,83.6,12.2,75,12.2c-2.5,0-4.9,0.4-7.2,1.2
	C64.3,5.6,55.7,0,45.5,0C33.8,0,24.1,7.3,21.9,17c-0.9-0.1-1.8-0.2-2.7-0.2C8.6,16.8,0,24.3,0,33.6c0.1,5.1,2.6,9.9,6.8,12.8
	c-6.8,8.7-6,32.1,13.5,35.7c2.5,5.4,8.7,9,15.8,8.6c2-0.1,4-0.6,5.9-1.3c3.2,6.3,10.6,10.4,18.9,9.9c9.6-0.5,17.2-7,18.5-15
	c10.8-2,24.4-11.9,20.2-32.3C104.5,49.3,107.9,44.5,107.9,38.9z"/>
</svg>
