<svg xmlns="http://www.w3.org/2000/svg" viewBox="0 0 107.86 63.23"><defs><style>.cls-1{fill:#fbfbfb;}</style></defs><g id="圖層_2" data-name="圖層 2"><g id="圖層_1-2" data-name="圖層 1"><path class="cls-1" d="M93.59,23.73C90.92,17,83.62,12.2,75,12.2a21.81,21.81,0,0,0-7.21,1.2C64.35,5.56,55.65,0,45.47,0,33.78,0,24.06,7.31,21.92,17a22,22,0,0,0-2.71-.17C8.6,16.81,0,24.33,0,33.61c0,9,8.06,16.32,18.21,16.78C20.76,57.67,28.5,63,37.66,63A21.58,21.58,0,0,0,53.25,56.6a19.2,19.2,0,0,0,14.84,6.63c7.46,0,13.87-3.9,16.74-9.49a20,20,0,0,0,5.31.71c9.79,0,17.72-6.94,17.72-15.51C107.86,31.41,101.72,25.14,93.59,23.73Z"/></g></g></svg>