<svg xmlns="http://www.w3.org/2000/svg" viewBox="0 0 142.07 94.25"><defs><style>.cls-1{fill:#fff;}.cls-2{fill:#2c271f;}</style></defs><title>資產 3</title><g id="圖層_2" data-name="圖層 2"><g id="圖層_1-2" data-name="圖層 1"><path class="cls-1" d="M10.86,40.09c4.41-4,6.36-10,9.49-15.08C29.84,9.6,49.35,3.6,67.4,2.22c19.39-1.47,40,1.39,55.51,13.16S146.78,49.51,138.24,67C133.16,77.36,123,84.62,112.06,88.33s-22.71,4.23-34.26,4C65,92.06,51.66,90.7,41,83.67c-8.27-5.45-14.2-13.9-18.25-22.94-1-2.27-2-4.74-4.13-6.11-1.77-1.17-4-1.34-6.07-1.77C8.3,52,.32,48.9.41,43.7,4,43.1,7.91,42.78,10.86,40.09Z"/><path class="cls-2" d="M11,41.89c4.44-4.14,6.37-10,9.49-15.07A39.41,39.41,0,0,1,31.11,15.56C39.87,9.28,50.65,6.19,61.22,4.75c22.53-3.07,49.6-.26,66.41,16.67C135,28.84,140.39,39,141.15,49.53c.78,10.82-4.47,20.82-12.58,27.73-9.7,8.28-22.32,11.74-34.81,12.8a158.18,158.18,0,0,1-20.19.26,88.91,88.91,0,0,1-18.45-2.46,44.87,44.87,0,0,1-16.78-8A49.94,49.94,0,0,1,26.76,66.42a72.78,72.78,0,0,1-4.12-8c-1.08-2.38-2.28-4.83-4.72-6.07-2.24-1.14-4.92-1.16-7.32-1.86a23.2,23.2,0,0,1-6.15-2.73,11.24,11.24,0,0,1-2.41-2,7,7,0,0,1-.78-1.09c-.14-.24-.22-.5-.34-.75,0-.08-.1-.55-.09-.17L.41,45.58C4.17,45,8,44.5,11,41.89c.46-.4.32-1.76.29-2.3,0-.19-.14-1.64-.51-1.31C7.85,40.82,4.07,41.22.41,41.83,0,41.91,0,43.47,0,43.7a8.24,8.24,0,0,0,2.3,6.13A17.06,17.06,0,0,0,8,53.33a37.36,37.36,0,0,0,6.9,1.84,9,9,0,0,1,4.18,1.7,10.84,10.84,0,0,1,2.65,3.76C24.38,66.15,27,71.5,30.92,76.3A43.35,43.35,0,0,0,45,87.85c11.73,6,25.56,6.48,38.46,6.39,13.44-.08,27.34-1.79,39.05-8.85,9.75-5.87,17.09-15,19-26.42a47.27,47.27,0,0,0-6.37-31.81c-13-21.6-39.6-28-63.21-27.07C60.56.54,49,2.46,38.69,7.37a46.78,46.78,0,0,0-13.17,9.14,37.8,37.8,0,0,0-5.09,6.39c-1.63,2.59-2.91,5.37-4.36,8.06a27.87,27.87,0,0,1-5.32,7.32c-.46.43-.33,1.74-.29,2.31C10.47,40.77,10.61,42.23,11,41.89Z"/></g></g></svg>