<svg xmlns="http://www.w3.org/2000/svg" viewBox="0 0 351.93 444"><defs><style>.cls-1{isolation:isolate;}.cls-2{fill:#dab44d;}.cls-3{fill:#eac360;}.cls-4{fill:#a6bdba;}.cls-5{fill:#bcd8d3;}.cls-6{fill:#7a6a56;}</style></defs><g id="圖層_2" data-name="圖層 2"><g id="圖層_2-2" data-name="圖層 2"><g class="cls-1"><path class="cls-2" d="M46.4,310.29c-13,8.55-22.33,14.59-35.29,23.14-2.88,1.9-5.92,4-7.35,7.41A21.36,21.36,0,0,0,2.55,348C1.5,367.3.64,382,0,401.37c0,1.51,0,5.87,1,7.81,1.62,3.19,5.51,4.09,7.38,4.42,8.24,1.45,13.87,1.31,22.18.44,4-.41,8.24-1.23,11.24-4.3,4.36-4.45,4.67-12,4.67-18.68l-.06-80.77"/></g><g class="cls-1"><path class="cls-3" d="M47.42,316.55C36,324.07,27.77,329.39,16.36,336.91c-2.53,1.67-5.2,3.51-6.47,6.52a18.92,18.92,0,0,0-1.06,6.26q-1.39,25.53-2.21,51.1a7.59,7.59,0,0,0,.54,3.87c.86,1.62,2.7,2.11,4.34,2.4a79,79,0,0,0,22,.79c3.53-.37,7.26-1.09,9.9-3.79,3.83-3.92,4.1-10.56,4.1-16.44q0-35.53,0-71.07"/></g><g class="cls-1"><path class="cls-2" d="M47,166.14c-13,8.55-22.33,14.59-35.3,23.14-2.87,1.9-5.91,4-7.35,7.41a21.36,21.36,0,0,0-1.2,7.11c-1.06,19.35-1.92,34-2.54,53.42-.05,1.51,0,5.87,1,7.81,1.62,3.19,5.5,4.08,7.37,4.42,8.25,1.45,13.87,1.31,22.18.44,4-.41,8.25-1.23,11.25-4.3,4.36-4.45,4.67-12,4.66-18.68q0-40.38-.05-80.77"/></g><g class="cls-1"><path class="cls-3" d="M48,172.4C36.62,179.92,28.37,185.24,17,192.76c-2.53,1.67-5.21,3.51-6.47,6.52a18.92,18.92,0,0,0-1.06,6.26Q8,231.07,7.22,256.64a7.81,7.81,0,0,0,.54,3.87c.87,1.62,2.7,2.11,4.35,2.4a79.32,79.32,0,0,0,22,.79c3.52-.37,7.25-1.09,9.89-3.79,3.84-3.92,4.11-10.56,4.11-16.44q0-35.53,0-71.07"/></g><g class="cls-1"><path class="cls-2" d="M305.53,310.29c13,8.55,22.33,14.59,35.29,23.14,2.88,1.9,5.92,4,7.35,7.41a21.36,21.36,0,0,1,1.21,7.11c1.05,19.35,1.91,34.05,2.54,53.42.05,1.51,0,5.87-1,7.81-1.62,3.19-5.51,4.09-7.38,4.42-8.24,1.45-13.87,1.31-22.18.44-4-.41-8.24-1.23-11.24-4.3-4.36-4.45-4.67-12-4.67-18.68l.06-80.77"/></g><g class="cls-1"><path class="cls-3" d="M304.51,316.55c11.41,7.52,19.65,12.84,31.06,20.36,2.53,1.67,5.2,3.51,6.47,6.52a18.92,18.92,0,0,1,1.06,6.26q1.39,25.53,2.21,51.1a7.59,7.59,0,0,1-.54,3.87c-.86,1.62-2.7,2.11-4.34,2.4a79,79,0,0,1-22,.79c-3.53-.37-7.26-1.09-9.9-3.79-3.83-3.92-4.1-10.56-4.1-16.44q0-35.53.05-71.07"/></g><g class="cls-1"><path class="cls-2" d="M304.92,166.14c13,8.55,22.33,14.59,35.3,23.14,2.87,1.9,5.91,4,7.35,7.41a21.36,21.36,0,0,1,1.2,7.11c1.06,19.35,1.92,34,2.54,53.42.05,1.51,0,5.87-1,7.81-1.62,3.19-5.5,4.08-7.37,4.42-8.25,1.45-13.87,1.31-22.18.44-4-.41-8.25-1.23-11.25-4.3-4.36-4.45-4.67-12-4.66-18.68q0-40.38.05-80.77"/></g><g class="cls-1"><path class="cls-3" d="M303.9,172.4c11.41,7.52,19.66,12.84,31.06,20.36,2.53,1.67,5.21,3.51,6.47,6.52a18.92,18.92,0,0,1,1.06,6.26q1.39,25.53,2.22,51.1a7.81,7.81,0,0,1-.54,3.87c-.87,1.62-2.7,2.11-4.35,2.4a79.32,79.32,0,0,1-22,.79c-3.52-.37-7.25-1.09-9.89-3.79-3.84-3.92-4.11-10.56-4.11-16.44q0-35.53,0-71.07"/></g><g class="cls-1"><path class="cls-2" d="M37.21,317.69q-2.6-106.62,2.29-213.25c.46-10.2,1.23-21.13,7.36-29.14C56.09,63.22,73.27,62.58,88.15,63c57.18,1.59,89.63-1.67,146.81-.08,15.93.44,59.11-2.09,71.76,7.93,15,11.86,12.54,40.3,12.49,64-.16,81.66-1.91,163.31-2.87,245-.21,18.4-1.47,39.21-15,51.11-10.54,9.23-25.49,10.23-39.29,10.48-61,1.09-124,5.08-185,.13-18.07-1.46-36.5-4.25-37.7-32.72-.29-7.09-3-64.37-2.06-91.16"/></g><g class="cls-1"><path class="cls-3" d="M46,131A155.76,155.76,0,0,1,48.1,84.49c.44-2.22,1.16-4.6,6.9-6.35,8.64-2.63,24.72-2.77,38.65-2.68,53.52.35,83.91-.36,137.43,0,14.91.09,55.34-.46,67.18,1.72,14,2.59,11.74,8.78,11.7,14-.16,17.79-1.8,35.58-2.69,53.37-.2,4-1.38,8.54-14.08,11.14-9.86,2-23.85,2.23-36.78,2.28-57.14.24-116.08,1.11-173.22,0C66.26,157.62,49,157,47.9,150.81c-.28-1.54-2.8-14-1.94-19.86"/></g><g class="cls-1"><path class="cls-3" d="M46.77,346.47Q44.34,276,48.91,205.42c.43-6.75,1.16-14,6.89-19.28,8.64-8,24.72-8.41,38.65-8.13,53.53,1,83.91-1.11,137.44-.06,14.91.29,55.33-1.38,67.17,5.25,14,7.84,11.74,26.65,11.7,42.35-.15,54-1.79,108-2.69,162-.2,12.16-1.37,25.93-14.07,33.8-9.86,6.11-23.86,6.77-36.78,6.93-57.15.72-116.09,3.37-173.23.09-16.92-1-34.17-2.81-35.29-21.64-.28-4.69-2.8-42.58-1.93-60.3"/></g><g class="cls-1"><path class="cls-4" d="M336.51,17.87l.2,32.26c0,3.13,0,6.46-1.58,9.09-2.67,4.5-8.44,5-13.37,5.07L45.31,67.13c-7.78.08-16.14,0-22.5-4.89C12.61,54.44,12.12,38.53,12.66,25c.12-3.17.35-6.62,2.29-9s4.71-3,7.41-3.52C59.11,4.8,96.82,4.91,134.24,5.17,197.61,5.63,261,6,324.33,7.64c11.25.3,11.93,5.1,12.18,10.23"/></g><g class="cls-1"><path class="cls-5" d="M336.51,12.74l.2,19.32c0,1.88,0,3.87-1.58,5.45-2.67,2.69-8.44,3-13.37,3L45.31,42.24c-7.78,0-16.14,0-22.5-2.92C12.61,34.65,12.12,25.12,12.66,17c.12-1.9.35-4,2.29-5.39s4.71-1.77,7.41-2.11C59.11,4.92,96.82,5,134.24,5.14c63.37.27,126.74.47,190.09,1.48,11.25.18,11.93,3.05,12.18,6.12"/></g><g class="cls-1"><path class="cls-3" d="M58.43,167.47q115.31-2.33,230.66-3.24c6.82-.06,15.47.57,17.36,4.07-81,3.7-162.39,4.54-243.57,2.53-3.4-.08-7.27-.29-9.31-1.75-.63-.55,0-1.48,4.86-1.61"/></g><g class="cls-1"><path class="cls-6" d="M104.25,1.09c6.76,21,5.55,44.65,2.16,65.7,5.54.73,9.12.6,12.34-3.06,1.79-2,1.81-4.71,1.75-7.2l-.93-43.28c-.07-3.58-.22-7.35-2.56-10.41s-8.94-3.65-12.76-1.75"/></g><g class="cls-1"><path class="cls-6" d="M236.79,1.09c6.75,21,5.55,44.65,2.15,65.7,5.54.73,9.12.6,12.34-3.06,1.8-2,1.81-4.71,1.76-7.2l-.93-43.28c-.08-3.58-.22-7.35-2.56-10.41s-8.94-3.65-12.76-1.75"/></g></g></g></svg>