<svg id="Layer_1_1_" enable-background="new 0 0 64 64" height="512" viewBox="0 0 64 64" width="512" xmlns="http://www.w3.org/2000/svg"><path d="m49.38 18.591-34.761.006c-6.68 2.198-11.619 5.593-11.619 9.403 0 0 2-2.667 8 .333 3.459 1.73 6.527 4.244 9.6 6.562 2.832 2.136 9.688 5.13 9.88 5.132.325.004.653-.003.979-.002.182.002.358.008.541.008 0 0 13.568-.793 19.829-3.238 3.634-1.42 9.171-4.176 9.171-8.795 0-3.813-4.919-7.211-11.62-9.409z" fill="#294523"/><path d="m49.38 18.591-2.998.001c6.7 2.197 11.618 5.595 11.618 9.408 0 4.619-5.537 7.375-9.172 8.795-5.108 1.996-15.078 2.89-18.577 3.152.121.047.211.08.228.08.325.004.653-.003.979-.002.182.002.358.008.541.008 0 0 13.568-.793 19.829-3.238 3.635-1.42 9.172-4.176 9.172-8.795 0-3.813-4.919-7.211-11.62-9.409z" fill="#34572c"/><path d="m11 28.333c-6-3-8-.333-8-.333 0 2.891 8.696 11.385 26.913 11.995-3.628-.299-6.481-2.964-9.313-5.1-3.073-2.318-6.141-4.832-9.6-6.562z" fill="#1e331a"/><path d="m48 11c0-4.971-7-8-16-8s-16 3.029-16 8l-1.381 7.597-.619 3.403c0 4.971 8.059 9 18 9s18-4.029 18-9z" fill="#294523"/><path d="m28 51h8v4h-8z" fill="#2e2e2e"/><path d="m36 51h3v4h-3z" fill="#2e2e2e"/><ellipse cx="32" cy="11" fill="#294523" rx="16" ry="8"/><path d="m32 17c-8.158 0-14.876-3.055-15.862-7-.082.328-.138.661-.138 1 0 4.418 7.163 8 16 8s16-3.582 16-8c0-.339-.056-.672-.138-1-.986 3.945-7.704 7-15.862 7z" fill="#34572c"/><path d="m23.297 16.83c-.704-.218-1.366-.468-1.967-.74l-.826 1.821c.677.307 1.416.586 2.199.829z"/><path d="m50.259 17.838-1.272-6.994c-.133-5.296-6.92-8.844-16.987-8.844s-16.854 3.548-16.987 8.844l-1.273 7.001c-7.465 2.567-11.74 6.249-11.74 10.155 0 1.479 1.472 3.711 4.376 5.912 3.701 8.372 11.684 13.965 21.428 14.974.62.064 1.081.533 1.163 1.114h-.967c-.553 0-1 .448-1 1v4c0 .552.447 1 1 1h.884c-.43 1.99-2.042 4-3.884 4h-11v2h11c3.035 0 5.452-3.036 5.914-6h2.172c.462 2.964 2.879 6 5.914 6h11v-2h-11c-1.842 0-3.454-2.01-3.884-4h3.884c.553 0 1-.448 1-1v-4c0-.552-.447-1-1-1h-3.967c.083-.581.544-1.05 1.163-1.114 9.166-.948 16.962-6.029 20.92-13.607 3.241-2.089 4.884-4.525 4.884-7.279 0-3.918-4.276-7.602-11.741-10.162zm-13.259 34.162h1v2h-1zm-20.675-37.199c.544.713 1.248 1.371 2.112 1.961l1.127-1.652c-1.702-1.161-2.564-2.544-2.564-4.11 0-4.122 6.168-7 15-7s15 2.878 15 7-6.168 7-15 7c-2.062 0-4.021-.162-5.826-.481l-.348 1.97c1.919.339 3.996.511 6.174.511 7.531 0 13.224-1.988 15.674-5.204l1.325 7.289c-.101 4.299-7.845 7.915-16.999 7.915s-16.898-3.616-16.999-7.915zm-12.252 13.593c.663-.424 2.559-1.127 6.48.834 2.833 1.417 5.457 3.422 7.995 5.363.484.37.967.739 1.449 1.103.416.313.832.639 1.251.966.756.591 1.546 1.199 2.371 1.773-12.659-1.894-18.849-7.759-19.546-10.039zm30.927 25.606h-6v-2h6zm.991-7.103c-1.646.17-2.89 1.491-2.975 3.103h-2.032c-.085-1.612-1.329-2.933-2.974-3.103-7.79-.807-14.352-4.765-18.194-10.793 4.717 2.548 11.545 4.656 20.429 4.904.075.003.146.018.222.019.394.005.782.007 1.169.007.073 0 .141-.003.213-.004.051 0 .1.002.151.002v-.005c7.965-.033 14.588-1.113 20.192-3.302.494-.193.963-.391 1.419-.593-3.956 5.431-10.31 9.009-17.62 9.765zm15.473-11.034c-5.526 2.159-12.122 3.187-20.15 3.16-.342-.004-.687-.005-1.022-.014-2.925-.121-5.411-2.048-7.812-3.925-.428-.334-.854-.667-1.277-.987-.479-.361-.959-.728-1.439-1.095-2.612-1.997-5.313-4.062-8.315-5.563-3.195-1.598-5.418-1.7-6.888-1.363 1.201-2.147 4.312-4.28 8.767-5.958l-.31 1.704c-.012.058-.018.118-.018.178 0 5.607 8.346 10 19 10s19-4.393 19-10c0-.06-.006-.12-.017-.179l-.311-1.712c5.793 2.178 9.328 5.132 9.328 7.891 0 3.005-2.872 5.651-8.536 7.863z"/></svg>