<svg id="Layer_2" height="512" viewBox="0 0 128 128" width="512" xmlns="http://www.w3.org/2000/svg" data-name="Layer 2"><path d="m81.542 31.375h-1.142a1.75 1.75 0 0 1 0-3.5h1.146a8.188 8.188 0 0 0 0-16.375h-1.146a1.75 1.75 0 0 1 0-3.5h1.146a11.688 11.688 0 0 1 0 23.375z" fill="#475c70"/><rect fill="#475c70" height="96.625" rx="5" width="49.917" x="36.521" y="29.625"/><path d="m42.562 20.333h37.833v9.292h-37.833z" fill="#e6e6e6"/><path d="m50.562 1.75h21.838a8 8 0 0 1 8 8v10.583a0 0 0 0 1 0 0h-37.838a0 0 0 0 1 0 0v-10.583a8 8 0 0 1 8-8z" fill="#358bd8"/><path d="m61.479 47.5h24.958v63.051h-24.958z" fill="#00cd8c"/></svg>