<svg id="Layer_1_1_" enable-background="new 0 0 64 64" height="512" viewBox="0 0 64 64" width="512" xmlns="http://www.w3.org/2000/svg"><path d="m6.752 25.489c4.952-2.034 14.33-3.489 25.248-3.489 10.919 0 20.296 1.455 25.247 3.489 2.395-1.027 3.753-2.217 3.753-3.489 0-3.866-12.431-7-29-7s-29 3.134-29 7c0 1.271 1.358 2.461 3.752 3.489z" fill="#214369"/><path d="m42 25h-20c-1.657 0-3 1.343-3 3v10c0 1.657 1.343 3 3 3h20c1.657 0 3-1.343 3-3v-1.712h-.001.001v-8.288c0-1.657-1.343-3-3-3z" fill="#c4c4c4"/><circle cx="32" cy="33" fill="#f98600" r="5"/><path d="m32 22c10.919 0 20.296 1.455 25.247 3.489.909-.39 1.666-.803 2.258-1.236-3.766-2.758-14.322-4.742-27.505-4.742s-23.739 1.985-27.506 4.743c.592.432 1.35.846 2.258 1.235 4.952-2.034 14.33-3.489 25.248-3.489z" fill="#1f3f63"/><path d="m42 25h-20c-1.657 0-3 1.343-3 3v10c0 1.657 1.343 3 3 3h20c1.657 0 3-1.343 3-3v-1.712-8.288c0-1.657-1.343-3-3-3zm1 10.466v1.284c0 1.243-1.136 2.25-2.538 2.25h-16.924c-1.402 0-2.538-1.007-2.538-2.25v-7.5c0-1.243 1.136-2.25 2.538-2.25h16.923c1.403 0 2.539 1.007 2.539 2.25z" fill="#b5b5b5"/><path d="m3 22v8c0 2.761 6.34 5.149 16 6.288v-8c-9.66-1.139-16-3.527-16-6.288z" fill="#214369"/><path d="m45 28.288-.002 8c9.661-1.139 16.002-3.527 16.002-6.288v-8c0 2.761-6.34 5.149-16 6.288z" fill="#214369"/><path d="m5 28.712v-4.119c-1.288-.802-2-1.676-2-2.593v8c0 2.761 6.34 5.149 16 6.288v-1.551c-8.523-1.219-14-3.46-14-6.025z" fill="#1f3f63"/><path d="m59.001 24.592v4.12c0 2.565-5.479 4.807-14.003 6.026v1.551c9.661-1.14 16.002-3.528 16.002-6.289v-8c0 .916-.712 1.79-1.999 2.592z" fill="#1f3f63"/><circle cx="32" cy="33" fill="#fff" r="2"/><path d="m32 27c-3.309 0-6 2.691-6 6s2.691 6 6 6 6-2.691 6-6-2.691-6-6-6zm3.858 7c-.364 1.399-1.459 2.494-2.858 2.858v-2.858h-2v2.858c-1.399-.364-2.494-1.459-2.858-2.858h2.858v-2h-2.858c.364-1.399 1.459-2.494 2.858-2.858v2.858h2v-2.858c1.399.364 2.494 1.459 2.858 2.858h-2.858v2z"/><path d="m32 14c-14.449 0-30 2.503-30 8v8c0 4.516 10.561 6.467 16 7.172v.828c0 2.206 1.794 4 4 4h20c2.206 0 4-1.794 4-4v-.829c5.44-.705 16-2.655 16-7.171v-8c0-5.497-15.551-8-30-8zm-14 21.15c-10.231-1.346-14-3.788-14-5.15v-4.881c3.328 2.358 10.028 3.538 14 4.053zm26 2.85c0 1.103-.897 2-2 2h-20c-1.103 0-2-.897-2-2v-10c0-1.103.897-2 2-2h20c1.103 0 2 .897 2 2zm1.908-10.838c-.387-1.804-1.99-3.162-3.908-3.162h-20c-1.918 0-3.521 1.358-3.908 3.162-3.474-.453-6.213-1.03-8.307-1.652 5.408-1.568 13.559-2.51 22.215-2.51s16.807.942 22.215 2.51c-2.095.622-4.833 1.199-8.307 1.652zm14.092 2.838c0 1.362-3.77 3.805-14 5.15v-5.978c3.972-.515 10.672-1.695 14-4.053zm-2.777-5.59c-5.429-2.106-15.015-3.41-25.223-3.41-10.209 0-19.795 1.303-25.224 3.41-1.937-.891-2.776-1.77-2.776-2.41 0-2.452 9.971-6 28-6s28 3.548 28 6c0 .64-.839 1.519-2.777 2.41z"/><circle cx="41" cy="33" r="1"/><circle cx="23" cy="33" r="1"/><path d="m31 45h2v5h-2z"/><path d="m36.5 43.5h2v5h-2z" transform="matrix(.8 -.6 .6 .8 -20.103 31.711)"/><path d="m24 45h5v2h-5z" transform="matrix(.6 -.8 .8 .6 -26.2 39.6)"/></svg>