<?xml version="1.0" encoding="utf-8"?>
<!-- Generator: Adobe Illustrator 24.2.3, SVG Export Plug-In . SVG Version: 6.00 Build 0)  -->
<svg version="1.1" id="圖層_1" xmlns="http://www.w3.org/2000/svg" xmlns:xlink="http://www.w3.org/1999/xlink" x="0px" y="0px"
	 viewBox="0 0 96.8 51.9" style="enable-background:new 0 0 96.8 51.9;" xml:space="preserve">
<style type="text/css">
	.st0{fill:#C8D6CB;stroke:#647F68;stroke-width:0.5;stroke-miterlimit:10;}
	.st1{fill:#80A383;stroke:#647F68;stroke-width:0.5;stroke-miterlimit:10;}
	.st2{fill:#D2DDD3;stroke:#647F68;stroke-width:0.5;stroke-miterlimit:10;}
</style>
<g id="圖層_2_1_">
	<g id="圖層_1-2">
		<path class="st0" d="M80.9,21.8c-0.3,0.6-1,0.9-1.6,0.7l0,0c-0.9-0.4-1.1-2-2-1.8c-1.6,2.3-0.9,5.5-1.6,8.2
			c-0.2,0.7-0.5,1.4-1.1,1.9c-0.5,0.5-1.3,0.7-2,0.4c-0.7-0.4-1.2-1.2-1.3-2c-0.1-0.8-0.3-1.6-0.6-2.3c-0.3-0.8-1.2-1.2-2-1
			c-0.4,0.2-0.9,0.7-1.3,0.5C67.1,26.3,67,26,67,25.6c-0.2-1.8-0.5-3.6-0.7-5.5c-0.1-0.4-0.2-0.9-0.6-0.9c-0.2,0-0.4,0.1-0.5,0.2
			l-4.5,3.3c-0.5,0.4-1,0.7-1.6,0.8c-0.6,0.1-1.2-0.2-1.5-0.7c-0.1-0.5-0.1-1,0.2-1.5c0.3-0.8,0.6-1.5,0.9-2.2l0,0
			c0,0,0-0.1,0.1-0.1l1-1.5c0.5-0.7,1-1.5,1.5-2.1l0.5-0.7c1-1.3,2-2.6,3.1-3.8l0.4-0.5c0.2-0.2,0.4-0.5,0.6-0.6
			c0.1-0.1,0.3-0.3,0.4-0.4l0.2-0.2C66.7,9,66.9,8.9,67,8.7l0.4-0.4c0.3-0.2,0.7-0.5,1.1-0.6c0.3-0.1,0.6-0.2,0.9-0.2
			c1.4-0.1,3.3,1.4,5.5,3.9c2.2,2.6,4.3,5.4,6.2,8.3v0.2C81.2,20.6,81.1,21.2,80.9,21.8z"/>
		<path class="st1" d="M70.3,44.4h25.2c0,0-7.2-13.9-14.3-24.6v0.2c0.1,0.6,0,1.3-0.3,1.9c-0.3,0.6-1,0.9-1.6,0.7l0,0
			c-0.9-0.4-1.1-2-2-1.8c-1.6,2.3-0.9,5.5-1.6,8.2c-0.2,0.7-0.5,1.4-1.1,1.9c-0.5,0.5-1.3,0.7-2,0.4c-0.7-0.4-1.2-1.2-1.3-2
			c-0.1-0.8-0.3-1.6-0.6-2.3c-0.3-0.8-1.2-1.2-2-1c-0.4,0.2-0.9,0.7-1.3,0.5C67.1,26.3,67,26,67,25.6c-0.2-1.8-0.5-3.6-0.7-5.5
			c-0.1-0.4-0.2-0.9-0.6-0.9c-0.2,0-0.4,0.1-0.5,0.2l-4.5,3.3c-0.5,0.4-1,0.7-1.6,0.8c-0.6,0.1-1.2-0.2-1.5-0.7
			c-0.1-0.5-0.1-1,0.2-1.5c0.3-0.8,0.6-1.5,0.9-2.2c-0.3,0.5-0.6,1-0.9,1.5c-0.2,0.3-0.3,0.5-0.5,0.8l-0.5,0.8
			c4.5,7.2,8.7,14.6,12.7,22.1H70.3z"/>
		<path class="st2" d="M78.7,29.9c-0.6,0-1,0.4-1.1,0.9c0,0.6,0.4,1,0.9,1.1s1-0.4,1.1-0.9C79.7,30.4,79.3,30,78.7,29.9z"/>
		<path class="st2" d="M85.4,28.5c0-0.2-0.1-0.3-0.2-0.5L85,27.8c-0.1-0.1-0.3-0.2-0.5-0.2h-0.2c-0.1,0-0.3,0-0.4,0.1
			c-0.1,0-0.2,0.1-0.3,0.2c-0.1,0.1-0.2,0.2-0.2,0.3c-0.1,0.1-0.1,0.2-0.1,0.4v0.3c0,0.2,0.1,0.3,0.2,0.5l0.2,0.2
			c0.1,0.1,0.3,0.2,0.5,0.2h0.2c0.1,0,0.3,0,0.4-0.1c0.1,0,0.2-0.1,0.3-0.2c0.1-0.1,0.2-0.2,0.2-0.3c0.1-0.1,0.1-0.2,0.1-0.4V28.5z"
			/>
		<path class="st2" d="M84.4,31.9c-0.6,0-1,0.4-1.1,0.9c0,0.6,0.4,1,0.9,1.1l0,0c0.6,0,1-0.4,1.1-0.9C85.4,32.4,85,32,84.4,31.9z"/>
		<path class="st0" d="M50.5,20.3c-0.4,0.8-1.3,1.3-2.2,1l0,0c-1.2-0.5-1.5-2.7-2.8-2.5c-2.1,3.2-1.2,7.4-2.2,11.1
			c-0.2,1-0.7,1.9-1.4,2.6c-0.7,0.7-1.8,0.9-2.8,0.6c-1-0.6-1.6-1.6-1.7-2.7c-0.1-1.1-0.3-2.2-0.7-3.2c-0.4-1.1-1.6-1.7-2.7-1.3
			c-0.6,0.3-1.2,1-1.8,0.7c-0.4-0.2-0.5-0.7-0.6-1.1c-0.3-2.5-0.6-4.9-1-7.4c-0.1-0.5-0.3-1.2-0.8-1.2c-0.3,0-0.5,0.1-0.7,0.3
			l-6,4.5c-0.6,0.5-1.3,0.9-2.1,1.1c-0.8,0.2-1.7-0.2-2.1-0.9c-0.2-0.7-0.1-1.4,0.2-2c0.4-1,0.8-2,1.2-3l0,0c0,0,0.1-0.1,0.1-0.1
			l1.4-2.1c0.7-1,1.3-2,2-2.9c0.2-0.3,0.4-0.6,0.7-0.9c1.3-1.8,2.7-3.6,4.2-5.2c0.2-0.2,0.4-0.5,0.6-0.7s0.6-0.6,0.9-0.9
			c0.2-0.2,0.4-0.4,0.6-0.5l0.3-0.2c0.3-0.2,0.5-0.5,0.8-0.6l0.6-0.5c0.5-0.3,1-0.6,1.5-0.9C34.2,1.1,34.6,1,35,0.9
			c1.9-0.1,4.5,2,7.5,5.3c3,3.6,5.8,7.3,8.3,11.3v0.2C51,18.6,50.8,19.5,50.5,20.3z"/>
		<path class="st1" d="M50.9,17.5v0.2c0.1,0.9,0,1.8-0.4,2.6c-0.4,0.8-1.3,1.3-2.2,1l0,0c-1.2-0.5-1.5-2.7-2.8-2.5
			c-2.1,3.2-1.2,7.4-2.2,11.1c-0.2,1-0.7,1.9-1.4,2.6c-0.7,0.7-1.8,0.9-2.8,0.6c-1-0.6-1.6-1.6-1.7-2.7c-0.1-1.1-0.3-2.2-0.7-3.2
			c-0.4-1.1-1.6-1.7-2.7-1.3c-0.6,0.3-1.2,1-1.8,0.7c-0.4-0.2-0.5-0.7-0.6-1.1c-0.3-2.5-0.6-4.9-1-7.4c-0.1-0.5-0.3-1.2-0.8-1.2
			c-0.3,0-0.5,0.1-0.7,0.3l-6,4.5c-0.6,0.5-1.3,0.9-2.1,1.1c-0.8,0.2-1.7-0.2-2.1-0.9c-0.2-0.7-0.1-1.4,0.2-2c0.4-1,0.8-2,1.2-3
			l-1.3,2c-0.2,0.3-0.5,0.7-0.7,1.1c-1.1,1.8-2.3,3.6-3.4,5.5c-0.3,0.5-0.6,1-0.9,1.5c-0.9,1.5-1.7,2.9-2.5,4.3
			c-0.4,0.6-0.7,1.3-1.1,1.9s-0.7,1.2-1,1.8C7.4,39,5.4,42.7,4,45.4c-0.2,0.4-0.4,0.8-0.6,1.2c-1.5,2.7-2.3,4.3-2.3,4.3h69.2
			C70.3,50.9,60.5,32.1,50.9,17.5z"/>
		<path class="st2" d="M49.2,26.6c-0.1-0.1-0.2-0.2-0.3-0.3c-0.1-0.1-0.2-0.1-0.4-0.1c-0.1,0-0.3,0-0.4,0l-0.3,0.1
			c-0.2,0.1-0.3,0.2-0.4,0.4L47.4,27c0,0.2,0,0.4,0,0.5l0,0.2c0,0.1,0.1,0.3,0.2,0.4c0.1,0.1,0.2,0.2,0.3,0.3
			c0.1,0.1,0.2,0.1,0.4,0.1c0.1,0,0.3,0,0.4,0l0.3-0.1c0.2-0.1,0.3-0.2,0.4-0.4l0.1-0.2c0-0.2,0-0.4,0-0.5l0-0.2
			C49.4,26.9,49.3,26.7,49.2,26.6z"/>
		<path class="st2" d="M54.7,32.5c-0.1-0.1-0.2-0.2-0.3-0.3l-0.2-0.1c-0.2-0.1-0.4-0.1-0.5,0l-0.3,0.1c-0.2,0.1-0.3,0.2-0.4,0.4
			l-0.1,0.2c-0.1,0.2-0.2,0.5-0.1,0.8c0,0.1,0.1,0.3,0.2,0.4c0.1,0.1,0.2,0.2,0.3,0.3l0.2,0.1c0.2,0.1,0.4,0.1,0.5,0l0.3-0.1
			c0.2-0.1,0.3-0.2,0.4-0.4l0.2-0.2c0.1-0.1,0.1-0.3,0.1-0.4c0-0.1,0-0.3,0-0.4C54.9,32.7,54.8,32.6,54.7,32.5z"/>
		<path class="st2" d="M47.9,31.6c-0.1-0.1-0.2-0.2-0.3-0.3c-0.1-0.1-0.2-0.1-0.4-0.1c-0.1,0-0.3,0-0.4,0l-0.3,0.1
			c-0.2,0.1-0.3,0.2-0.4,0.4l0,0.3c-0.1,0.2-0.1,0.4,0,0.6l0.1,0.4c0,0.1,0.1,0.3,0.2,0.4c0.2,0.2,0.4,0.4,0.7,0.4
			c0.1,0,0.3,0,0.4,0l0.3-0.1c0.2-0.1,0.3-0.2,0.4-0.4l0.1-0.2c0-0.2,0-0.4,0-0.5l-0.1-0.4C48.1,31.8,48,31.7,47.9,31.6z"/>
		<path class="st2" d="M45.8,38.3c-0.1-0.1-0.2-0.2-0.3-0.3c-0.2-0.1-0.5-0.2-0.8-0.1l-0.3,0.1c-0.2,0.1-0.3,0.2-0.4,0.4l-0.1,0.2
			c-0.1,0.2-0.1,0.4,0,0.5l0.1,0.4c0,0.1,0.1,0.3,0.2,0.4c0.1,0.1,0.2,0.2,0.3,0.3c0.1,0.1,0.2,0.1,0.4,0.1c0.1,0,0.3,0,0.4,0
			l0.3-0.1c0.2-0.1,0.3-0.2,0.4-0.4l0.1-0.2c0-0.2,0-0.4,0-0.5L46,38.7C45.9,38.6,45.9,38.5,45.8,38.3z"/>
		<path class="st2" d="M51.5,38c-0.6,0.1-0.9,0.7-0.7,1.3c0.1,0.6,0.7,0.9,1.3,0.7s0.9-0.7,0.7-1.3C52.6,38.2,52.1,37.9,51.5,38z"/>
		<path class="st2" d="M59.8,37.4c-0.1-0.1-0.2-0.2-0.3-0.3c-0.1-0.1-0.2-0.1-0.4-0.1c-0.1,0-0.3,0-0.4,0l-0.3,0.1
			c-0.2,0.1-0.3,0.2-0.4,0.4l-0.1,0.2c0,0.2,0,0.4,0,0.5l0,0.2c0,0.1,0.1,0.3,0.2,0.4c0.1,0.1,0.2,0.2,0.3,0.3
			c0.2,0.1,0.5,0.2,0.8,0.1l0.3-0.1c0.2-0.1,0.3-0.2,0.4-0.4l0.1-0.2c0-0.2,0-0.4,0-0.5l0-0.2C59.9,37.6,59.9,37.5,59.8,37.4z"/>
		<path class="st2" d="M63.8,41.4c-0.1-0.1-0.2-0.2-0.3-0.3c-0.1-0.1-0.2-0.1-0.4-0.1c-0.1,0-0.3,0-0.4,0l-0.3,0.1
			c-0.2,0.1-0.3,0.2-0.4,0.4L62,41.7c0,0.2,0,0.4,0,0.5v0.2c0,0.1,0.1,0.3,0.2,0.4c0.1,0.1,0.2,0.2,0.3,0.3c0.1,0.1,0.2,0.1,0.4,0.1
			c0.1,0,0.3,0,0.4,0l0.3-0.1c0.2-0.1,0.3-0.2,0.4-0.4l0.1-0.2c0.1-0.2,0.1-0.4,0-0.5v-0.2C63.9,41.6,63.9,41.5,63.8,41.4z"/>
	</g>
</g>
</svg>
