<svg id="Layer_1_1_" enable-background="new 0 0 64 64" height="512" viewBox="0 0 64 64" width="512" xmlns="http://www.w3.org/2000/svg"><path d="m32 7v11 15l3 28h17l-2.13-23h-3.87c-1.105 0-2-.895-2-2v-6h-1v-4h5.759l-3.759-19h-8z" fill="#824526"/><path d="m44 36c0 1.105.895 2 2 2h3.87.13v-8h-6z" fill="#824526"/><path d="m29 7v7l3 4v-11z" fill="#824526"/><path d="m20 36v-6h-6v8h.13 3.87c1.105 0 2-.895 2-2z" fill="#824526"/><path d="m29 61 3-28v-15l-3-4v-7h-2-8l-3.759 19h5.759v4h-1v6c0 1.105-.895 2-2 2h-3.87l-2.13 23z" fill="#824526"/><path d="m19 3h8v4h-8z" fill="#2e2e2e"/><path d="m27 3h10v4h-10z" fill="#2e2e2e"/><path d="m37 3h8v4h-8z" fill="#2e2e2e"/><path d="m21 30v-4h-5.759-2.241v4h1 6z" fill="#824526"/><path d="m43 30h1 6 1v-4h-2.241-5.759z" fill="#824526"/><g fill="#6b391f"><path d="m17 40c1.657 0 3-.895 3-2v-2c0 1.105-.895 2-2 2h-3.87l-.185 2z"/><path d="m49.87 38h-3.87c-1.105 0-2-.895-2-2v2c0 1.105 1.194 2 2.667 2h3.389z"/><path d="m32 33 3 28h3.404l-6.404-46v3z"/><path d="m29 61 3-28v-12l-6.013 40z"/><path d="m44 30h6v2h-6z"/><path d="m14 30h6v2h-6z"/></g><path d="m11.261 61.674c.19.207.458.326.739.326h17c.511 0 .94-.385.994-.894l2.006-18.721 2.006 18.721c.054.509.483.894.994.894h17c.281 0 .549-.119.739-.326.19-.208.283-.486.257-.766l-2.084-22.505c.055-.124.088-.259.088-.403v-7c.552 0 1-.448 1-1v-4c0-.552-.448-1-1-1h-1.419l-3.581-18.098v-3.902c0-.552-.448-1-1-1h-26c-.552 0-1 .448-1 1v3.902l-3.581 18.098h-1.419c-.552 0-1 .448-1 1v4c0 .552.448 1 1 1v7c0 .144.033.279.088.403l-2.084 22.505c-.025.28.067.558.257.766zm19.739-46.674-1-1.333v-5.667h1zm19 12v2h-6v-2zm-1 4v6h-3c-.551 0-1-.449-1-1v-5zm-1.458-6h-4.542c-.552 0-1 .448-1 1v4c0 .552.448 1 1 1v5c0 1.654 1.346 3 3 3h2.959l1.944 21h-15.005l-2.898-27.052v-24.948h11.179zm-9.542-21h6v2h-6zm-10 0h8v2h-4-4zm-8 0h6v2h-6zm-6 23h6v2h-6zm5 4v5c0 .551-.449 1-1 1h-3v-6zm-3.959 8h2.959c1.654 0 3-1.346 3-3v-5c.552 0 1-.448 1-1v-4c0-.552-.448-1-1-1h-4.542l3.363-17h8.179v6c0 .216.07.427.2.6l2.8 3.733v14.614l-2.898 27.053h-15.005z"/></svg>