<?xml version="1.0" encoding="utf-8"?>
<!-- Generator: Adobe Illustrator 24.0.0, SVG Export Plug-In . SVG Version: 6.00 Build 0)  -->
<svg version="1.1" id="Layer_1" xmlns="http://www.w3.org/2000/svg" xmlns:xlink="http://www.w3.org/1999/xlink" x="0px" y="0px"
	 viewBox="0 0 512 512" style="enable-background:new 0 0 512 512;" xml:space="preserve">
<style type="text/css">
	.st0{fill-rule:evenodd;clip-rule:evenodd;fill:#904C2A;}
	.st1{fill-rule:evenodd;clip-rule:evenodd;fill:#9E7242;}
</style>
<g>
	<g>
		<path class="st0" d="M202.6,137.2l53.4-32.4L200.9,10l-24.1,20.3l1.7,7.1L202.6,137.2z"/>
		<path class="st0" d="M200.9,10l55.1,94.8L311.1,10c-16.8,8.7-35.8,13.3-55.1,13.3C236.6,23.3,217.6,18.7,200.9,10z"/>
		<path class="st0" d="M311.1,10L256,104.8l53.4,32.4l24.1-99.7l1.7-7.1L311.1,10z"/>
		<path class="st1" d="M333.5,37.5l-24.1,99.7L256,104.8V492l21.1,10L396,482V269l80-50c-21.8-47.7-41.2-90.3-63-138
			c-5.4-11.7-10.8-17.2-22.4-23L333.5,37.5z M296,189h30h30v60l-30,10l-30-10V189z"/>
		<path class="st0" d="M326,189h-30v60l30,10l30-10v-60L326,189z"/>
		<path class="st1" d="M256,492V104.8l-53.4,32.4l-24.1-99.7L121.4,58c-11.5,5.8-17,11.3-22.4,23c-21.8,47.7-41.2,90.3-63,138l80,50
			v213l118.9,20L256,492z"/>
	</g>
	<g>
		<path d="M485.1,214.8l-63-138c-6.2-13.6-13.3-20.9-27-27.8c-0.4-0.2-0.7-0.3-1.1-0.5L345.2,31c0.2-3.2-1-6.3-3.5-8.4L317.6,2.4
			c-2.3-1.9-5.2-2.7-8.2-2.2c-1.3,0.2-2.5,0.7-3.6,1.4c-0.3,0.1-0.6,0.2-0.8,0.4c-14.9,7.5-31.9,11.4-49,11.4s-34-4-49-11.4
			c-0.3-0.1-0.6-0.3-0.8-0.4c-1.1-0.7-2.3-1.2-3.6-1.4c-2.9-0.5-5.9,0.3-8.2,2.2l-24.1,20.3c-2.5,2.1-3.7,5.2-3.5,8.4L118,48.6
			c-0.4,0.1-0.8,0.3-1.1,0.5c-13.7,6.9-20.8,14.2-27,27.8l-63,138c-2.1,4.6-0.5,10,3.8,12.6l75.3,47.1V482c0,4.9,3.5,9.1,8.3,9.9
			l118.9,20c2,0.3,4.1,0.1,5.9-0.8l16.8-8l16.8,8c1.3,0.6,2.8,1,4.3,1c0.6,0,1.1,0,1.7-0.1l118.9-20c4.8-0.8,8.3-5,8.3-9.9V274.5
			l75.3-47.1C485.6,224.8,487.2,219.4,485.1,214.8L485.1,214.8z M324,34l-21.2,87.6l-33.3-20.2l44.2-76L324,34z M288.3,29.3
			L256,84.9l-32.3-55.6c10.5,2.7,21.4,4.1,32.3,4.1S277.8,32,288.3,29.3z M198.2,25.3l44.2,76l-33.3,20.2L188,34L198.2,25.3z
			 M406,250.9v-62c0-5.5-4.5-10-10-10s-10,4.5-10,10v284.6l-107.5,18.1l-12.5-5.9V343.4c0-5.5-4.5-10-10-10s-10,4.5-10,10v142.3
			l-12.5,5.9L126,473.5V189c0-5.5-4.5-10-10-10s-10,4.5-10,10v62l-57.3-35.8l59.4-130c4.2-9.3,8-13.2,17.2-18l46-16.5l21.5,88.9
			c0.8,3.1,2.9,5.7,5.9,6.9c1.2,0.5,2.5,0.8,3.8,0.8c1.8,0,3.6-0.5,5.2-1.5l38.2-23.2v130.8c0,5.5,4.5,10,10,10c5.5,0,10-4.5,10-10
			V122.6l38.2,23.2c1.6,1,3.4,1.5,5.2,1.5c1.3,0,2.6-0.3,3.8-0.8c2.9-1.2,5.1-3.8,5.9-6.9l21.5-88.9l46,16.5c9.2,4.7,13,8.7,17.2,18
			l59.4,130L406,250.9z"/>
		<path d="M356,179h-60c-5.5,0-10,4.5-10,10v60c0,4.3,2.8,8.1,6.8,9.5l30,10c1,0.3,2.1,0.5,3.2,0.5s2.1-0.2,3.2-0.5l30-10
			c4.1-1.4,6.8-5.2,6.8-9.5v-60C366,183.4,361.5,179,356,179L356,179z M346,241.7l-20,6.7l-20-6.7V199h40L346,241.7L346,241.7z"/>
		<path d="M256,288.4L256,288.4c-5.5,0-10,4.5-10,10s4.5,10,10,10c5.5,0,10-4.5,10-10S261.5,288.4,256,288.4z"/>
	</g>
</g>
</svg>
