<svg id="Layer_1_1_" enable-background="new 0 0 64 64" height="512" viewBox="0 0 64 64" width="512" xmlns="http://www.w3.org/2000/svg"><path d="m49 36.009s2.518 7.991 12 7.991v-16s-6.054 8.009-12 8.009z" fill="#904c2a"/><path d="m60 21h-.649c-.227 0-.447.077-.625.219l-1.706 1.365c-1.719 1.375-4.198 1.238-5.754-.319-.811-.81-1.91-1.265-3.056-1.265h-5.21v6l-3.797 3.36c1.186 1.495 4.92 5.648 9.797 5.648 5.946 0 12-8.009 12-8.009v-6c0-.551-.448-.999-1-.999z" fill="#904c2a"/><path d="m49 36.009c-4.878 0-8.611-4.154-9.797-5.648l3.797-3.361v-6h-4c-.552 0-1 .448-1 1v3l-1.157.805-16.371 11.388c-3.463 2.409-7.825 3.134-11.881 1.975-.392-.111-.798-.168-1.205-.168-2.422 0-4.386 1.964-4.386 4.386v4.614h34.634c1.529 0 3.009-.536 4.183-1.514 2.423-2.019 5.943-2.019 8.365 0 1.175.978 2.655 1.514 4.184 1.514h6.634v-4c-9.482 0-12-7.991-12-7.991z" fill="#9e7242"/><path d="m50.183 46.486c-2.423-2.019-5.943-2.019-8.365 0-1.175.978-2.655 1.514-4.184 1.514h-34.634c0 2.209 1.791 4 4 4h1v2h6v-2h4v2h6v-2h4v2h6v-2c2.125 0 5.524-.275 8.084-.816 1.017-.215 1.982-.615 2.869-1.156l.047-.028v4h6v-2h4v2h6v-6h-6.634c-1.529 0-3.009-.536-4.183-1.514z" fill="#242424"/><path d="m43 25-3.797 3.36c.232.292.564.688.98 1.132l2.817-2.492z" fill="#8a633a"/><path d="m50.183 44.486c-2.423-2.019-5.943-2.019-8.365 0-1.175.978-2.655 1.514-4.184 1.514h-34.634v2h34.634c1.529 0 3.009-.536 4.183-1.514 2.423-2.019 5.943-2.019 8.365 0 1.175.978 2.655 1.514 4.184 1.514h6.634v-2h-6.634c-1.529 0-3.009-.536-4.183-1.514z" fill="#8a633a"/><path d="m60 20h-.649c-.453 0-.897.156-1.248.438l-1.708 1.365c-1.321 1.058-3.223.955-4.422-.245-1.005-1.004-2.341-1.558-3.763-1.558h-9.21c-1.103 0-2 .897-2 2v2.478l-17.1 11.895c-3.23 2.248-7.254 2.915-11.034 1.835-.48-.138-.978-.208-1.48-.208-2.97 0-5.386 2.416-5.386 5.386v4.614c0 2.757 2.243 5 5 5v1c0 .552.447 1 1 1h6c.553 0 1-.448 1-1v-1h2v1c0 .552.447 1 1 1h6c.553 0 1-.448 1-1v-1h2v1c0 .552.447 1 1 1h6c.553 0 1-.448 1-1v-1.017c2.089-.066 4.967-.329 7.291-.82.576-.122 1.146-.298 1.709-.532v2.369c0 .552.447 1 1 1h6c.553 0 1-.448 1-1v-1h2v1c0 .552.447 1 1 1h6c.553 0 1-.448 1-1v-6-26c0-1.103-.897-2-2-2zm-21.429 5.821c.269-.187.429-.494.429-.821v-3h3v4.55l-2.339 2.069c-.111-.425-.279-.842-.538-1.226l-.899-1.33zm-4.252 2.958 2.263-1.574.885 1.309c.617.914.376 2.159-.536 2.777l-3.252 2.199zm-2.23 1.551-.542 3.986-3.773-.985zm-5.847 4.669 3.753.98-4.351 2.942zm-5.199 3.015 3.038-2.114-.587 3.847-3.567-1.045c.378-.217.755-.436 1.116-.688zm-3.946 1.942 4.893 1.434-1.629 1.101c-.915.618-2.16.376-2.778-.537l-1.197-1.771c.24-.065.474-.149.711-.227zm42.903 13.044h-4v-1c0-.552-.447-1-1-1h-4c-.553 0-1 .448-1 1v1h-4v-3c0-.361-.219-.681-.534-.857-.313-.177-.723-.157-1.033.032-.818.499-1.679.846-2.556 1.031-2.468.522-5.83.794-7.877.794-.553 0-1 .448-1 1v1h-4v-1c0-.552-.447-1-1-1h-4c-.553 0-1 .448-1 1v1h-4v-1c0-.552-.447-1-1-1h-4c-.553 0-1 .448-1 1v1h-4v-1c0-.552-.447-1-1-1h-1c-1.304 0-2.416-.836-2.829-2h33.464c1.758 0 3.471-.62 4.823-1.746 2.053-1.711 5.031-1.711 7.084 0h.001c1.352 1.126 3.064 1.746 4.822 1.746h5.635zm0-6h-5.635c-1.292 0-2.55-.456-3.543-1.283-2.795-2.329-6.852-2.328-9.645 0-.992.827-2.25 1.283-3.542 1.283h-33.635v-3.614c0-1.867 1.519-3.386 3.386-3.386.315 0 .628.044.931.13 1.956.56 3.966.691 5.928.455l1.683 2.489c.772 1.142 2.035 1.757 3.32 1.757.771 0 1.549-.222 2.233-.684l16.57-11.202c.447-.302.811-.682 1.091-1.107 1.648 1.849 4.938 4.823 9.167 5.127.846 1.927 3.978 7.519 11.691 7.98zm0-4.051c-5.863-.395-8.546-4.138-9.545-6.088 3.855-.698 7.471-3.943 9.545-6.158zm0-15.297c-1.038 1.291-6.171 7.357-11 7.357-3.792 0-6.899-2.865-8.4-4.549l3.063-2.71c.214-.191.337-.463.337-.75v-5h4.21c.888 0 1.722.346 2.349.973 1.919 1.919 4.966 2.089 7.085.393l1.707-1.366h.649z"/></svg>