<svg id="Layer_1_1_" enable-background="new 0 0 64 64" height="512" viewBox="0 0 64 64" width="512" xmlns="http://www.w3.org/2000/svg"><path d="m42 13v-4h-6-8-6v4h1 18z" fill="#3e7cab"/><path d="m23 13h18v3h-18z" fill="#2e5c80"/><path d="m45.249 25.399-2.688-2.15c-.986-.789-1.561-1.985-1.561-3.249h-18c0 1.264-.575 2.46-1.562 3.249l-2.688 2.15c-.474.38-.75.955-.75 1.562v32.039c0 1.105.895 2 2 2h24c1.105 0 2-.895 2-2v-32.039c0-.607-.276-1.182-.751-1.562z" fill="#385e30"/><path d="m36 6v-3h-8v6h8z" fill="#3e7cab"/><path d="m42 18v-2h-1-18-1v4h1 18 1z" fill="#294523"/><path d="m32 47c7 0 0-15 0-15s-7 15 0 15z" fill="#3e7cab"/><path d="m28 7h8v2h-8z" fill="#2e5c80"/><path d="m46 59v-32.039c0-.608-.276-1.182-.751-1.562l-2.688-2.15c-.986-.789-1.561-1.985-1.561-3.249h-18c0 .497-.112.975-.28 1.43l1.988.497c9.575 2.394 16.292 10.997 16.292 20.866v18.207h3c1.105 0 2-.895 2-2z" fill="#2f4f28"/><path d="m43 20v-1c3.859 0 7-3.141 7-7s-3.141-7-7-7h-6v-1h1v-2h-12v2h1v4h-5c-.553 0-1 .447-1 1v4c0 .553.447 1 1 1v1c-.553 0-1 .447-1 1v4c0 .493.362.883.831.966-.187.582-.525 1.109-1.017 1.502l-2.688 2.151c-.716.572-1.126 1.426-1.126 2.342v32.039c0 1.654 1.346 3 3 3h24c1.654 0 3-1.346 3-3v-32.039c0-.916-.41-1.77-1.126-2.343l-2.688-2.15c-.491-.393-.829-.92-1.016-1.502.468-.083.83-.473.83-.966zm-14-16h6v4h-6zm-6 6h5 8 5v2h-18zm17 4v1h-16v-1zm-17 3h18v2h-18zm21.624 9.18c.239.191.376.476.376.781v2.039h-2v2h2v4h-2v2h2v4h-2v2h2v4h-2v2h2v4h-2v2h2v4c0 .552-.448 1-1 1h-24c-.552 0-1-.448-1-1v-32.039c0-.305.137-.59.376-.78l2.687-2.15c.966-.772 1.602-1.844 1.834-3.03h16.206c.232 1.187.868 2.258 1.833 3.03zm-2.624-11.18v-1c.553 0 1-.447 1-1v-4c0-.553-.447-1-1-1h-5v-1h6c2.757 0 5 2.243 5 5s-2.243 5-5 5v-1c0-.553-.447-1-1-1z"/><path d="m32 31c-.389 0-.742.225-.906.577-.512 1.097-4.93 10.831-2.435 14.749.487.764 1.461 1.674 3.341 1.674s2.854-.91 3.341-1.674c2.495-3.918-1.923-13.652-2.435-14.749-.164-.352-.517-.577-.906-.577zm1.654 14.252c-.205.321-.598.748-1.654.748-1.055 0-1.449-.427-1.654-.748-1.197-1.88.156-6.908 1.654-10.711 1.499 3.802 2.853 8.829 1.654 10.711z"/></svg>