<?xml version="1.0" encoding="utf-8"?>
<!-- Generator: Adobe Illustrator 24.2.3, SVG Export Plug-In . SVG Version: 6.00 Build 0)  -->
<svg version="1.1" id="圖層_1" xmlns="http://www.w3.org/2000/svg" xmlns:xlink="http://www.w3.org/1999/xlink" x="0px" y="0px"
	 viewBox="0 0 392.9 319.4" style="enable-background:new 0 0 392.9 319.4;" xml:space="preserve">
<style type="text/css">
	.st0{fill:#FFFFFF;}
	.st1{fill:#2C271F;}
	.st2{clip-path:url(#SVGID_2_);}
	.st3{fill:#494233;stroke:#494233;stroke-miterlimit:10;}
	.st4{fill:#F0EFE8;}
	.st5{fill:#F5C641;stroke:#F5C641;stroke-miterlimit:10;}
	.st6{fill:#494233;}
	.st7{fill:none;stroke:#2C271F;stroke-linecap:round;stroke-linejoin:round;}
</style>
<g id="圖層_2_2_">
	<g id="圖層_1-2_1_">
		<path class="st0" d="M261.8,128.2c4.4-4,6.4-10,9.5-15.1c9.5-15.4,29-21.4,47.1-22.8c19.4-1.5,40,1.4,55.5,13.2
			s23.9,34.1,15.3,51.6c-5.1,10.4-15.2,17.6-26.2,21.3c-10.9,3.7-22.7,4.2-34.3,4c-12.8-0.3-26.1-1.6-36.8-8.7
			c-8.3-5.4-14.2-13.9-18.2-22.9c-1-2.3-2-4.7-4.1-6.1c-1.8-1.2-4-1.3-6.1-1.8c-4.2-0.8-12.2-3.9-12.1-9.1
			C254.9,131.2,258.8,130.9,261.8,128.2z"/>
		<path class="st1" d="M261.9,130c4.4-4.1,6.4-10,9.5-15.1c2.8-4.4,6.4-8.2,10.6-11.3c8.8-6.3,19.5-9.4,30.1-10.8
			c22.5-3.1,49.6-0.3,66.4,16.7c7.4,7.4,12.8,17.6,13.5,28.1c0.8,10.8-4.5,20.8-12.6,27.7c-9.7,8.3-22.3,11.7-34.8,12.8
			c-6.7,0.5-13.5,0.6-20.2,0.3c-6.2-0.2-12.4-1-18.5-2.5s-11.8-4.2-16.8-8c-4.6-3.8-8.6-8.3-11.6-13.4c-1.5-2.6-2.9-5.3-4.1-8
			c-1.1-2.4-2.3-4.8-4.7-6.1c-2.2-1.1-4.9-1.2-7.3-1.9c-2.2-0.6-4.2-1.5-6.1-2.7c-0.9-0.6-1.7-1.2-2.4-2c-0.3-0.3-0.6-0.7-0.8-1.1
			c-0.1-0.2-0.2-0.5-0.3-0.8c0-0.1-0.1-0.6-0.1-0.2l-0.4,1.8C255.1,133.1,258.9,132.6,261.9,130c0.5-0.4,0.3-1.8,0.3-2.3
			c0-0.2-0.1-1.6-0.5-1.3c-2.9,2.5-6.7,2.9-10.4,3.6c-0.4,0.1-0.4,1.6-0.4,1.9c-0.1,2.3,0.7,4.5,2.3,6.1c1.7,1.5,3.6,2.7,5.7,3.5
			c2.2,0.8,4.5,1.4,6.9,1.8c1.5,0.2,3,0.8,4.2,1.7c1.1,1,2,2.3,2.6,3.8c2.6,5.5,5.3,10.9,9.2,15.7c3.8,4.8,8.6,8.7,14.1,11.6
			c11.7,6,25.6,6.5,38.5,6.4c13.4-0.1,27.3-1.8,39-8.9c9.8-5.9,17.1-15,19-26.4c1.7-11-0.6-22.3-6.4-31.8
			c-13-21.6-39.6-28-63.2-27.1c-11.3,0.3-22.9,2.3-33.2,7.2c-4.9,2.3-9.3,5.4-13.2,9.1c-1.9,1.9-3.6,4.1-5.1,6.4
			c-1.6,2.6-2.9,5.4-4.4,8.1c-1.4,2.7-3.2,5.2-5.3,7.3c-0.5,0.4-0.3,1.7-0.3,2.3C261.4,128.9,261.5,130.3,261.9,130z"/>
	</g>
</g>
<g>
	<g>
		<defs>
			
				<rect id="SVGID_1_" x="-164.4" y="52.5" transform="matrix(0.2462 -0.9692 0.9692 0.2462 -163.45 207.1039)" width="431.6" height="312.3"/>
		</defs>
		<clipPath id="SVGID_2_">
			<use xlink:href="#SVGID_1_"  style="overflow:visible;"/>
		</clipPath>
		<g id="圖層_2_3_" class="st2">
			<g id="圖層_1-2_2_">
				<path class="st3" d="M200.1,129c2.8-6.2,13.7-17.1,15-18.2c5-4.6,13-1,19.2-16.1c1.7-3.9,3.6-9.6,1.3-13.8
					c-3.1-5.4-10.6-8.3-16.2-10.2c-4.7-1.4-9.2-3.1-13.6-5.1c-4.4-2.6-8.3-6-11.7-9.9c-6-6.6-11.8-14.2-19.5-18.9
					c-8.5-4.8-17.9-7.6-27.6-8.1c-2.2,0-4.3-0.4-6.4-0.9c-2.4-1-4.6-2.4-6.6-4.2c-2.9-2.5-4.8-5.8-7.8-8.1c-3-2-6.5-3.2-10.1-3.4
					c-1.8-0.1-3.6,0.1-5.3,0.7c-1.5,0.6-2.8,1.5-4,2.6c-1.1,0.7-2,1.6-2.7,2.6c-1.4,2.9-2,6-1.4,9.2c0.5,4.3,1.9,8.6,1.6,12.9
					c-0.2,4.7-2.2,9.1-4.1,13.4c-0.7,1.4-1.1,2.9-1,4.4c0.2,1.1,0.6,2,1.1,2.9c3.7,5.8,10.1,9.4,16.7,10.9
					c5.5,1.2,11.4,4.7,17.1,4.7c5.1,0,10.4,0,15.5-0.2c0.9-0.1,1.9-0.1,2.8,0c5.8,1.4,10.1,10.2,10.9,15.5c0.3,2.7-0.1,5.5,0.7,8.1
					c0.8,2.2,1.9,4.2,3.3,6.1l4,5.5c0.8,1.2,1.7,2.2,2.6,3.3c1.4,1.3,2.9,2.6,4.5,3.6l12.1,8.5c2.5,1.8,5.4,3.6,8.5,3.3
					C199.4,129.9,199.8,129.5,200.1,129z"/>
				<path class="st4" d="M172.7,119c-2.1-1.7-3.9-3.7-5.4-5.9c-1.4-2.4-2.4-4.9-2.9-7.6L160.5,92c-0.5-2.7-1.7-5.2-3.4-7.3
					c-4.1-4.1-10.9-3.1-16.8-2.7c-14.7,0.7-29-5.8-41.1-14.2c-5.8,14.3-14.3,27.4-24.9,38.6c-0.4,0.3-0.7,0.8-1,1.3
					c-0.4,1.3,0.9,2.5,1.8,3.5c5.6,5.3,7.7,13.3,10.7,20.5c5.1,12,13.1,22.5,23.3,30.6c3.9,3.3,8.2,6.1,12.8,8.2
					c3.8,1.6,6.8,4.2,11,5c3.6,0.6,7.3,0.7,11,0.3c9.9-0.7,19.8-2.5,29.4-5.4c2.2-0.7,5.9-1.7,7.1-3.9c0.8-1.7,1.5-3.6,1.7-5.5
					c1.2-4.7,3.2-9.2,5.7-13.3c1.2-2,2.4-3.9,3.7-5.8c0.8-1.3,3.6-3.8,3.6-5.4c0.2-2.7-8.1-6.4-10.3-8
					C180.7,125.6,176.6,122.4,172.7,119z"/>
				<path class="st5" d="M153.5,212.3c-4.4,5.2-10,9.4-14,15c-4.5,6.4-10,12.1-16.1,16.8c-6.9,5.2-14.2,9.7-20.6,15.4
					c-3.4,3-6.6,6.3-10.2,9.2c-9.7,8-21.5,13.2-33.3,17.3c-2.9,1-5.9,1.8-8.9,2.2c-14.9,1.5-27.1-6.2-30.9-21
					c-2.6-10.7-0.8-21.7,0.1-32.7c0.3-4.9,1-9.8,2.1-14.6c1.4-4.8,3.4-9.3,6-13.6c1.8-2.5,1.8-6,2.6-9c0.7-3.3,1.6-6.4,2.5-9.7
					c1.8-6.4,3.9-12.7,6.5-18.8c2.3-5.9,5-11.6,7.8-17.3c1.4-2.8,2.9-5.4,4.4-8.1c1.3-2.3,1.6-4.6,2.3-7.1c1.1-2.9,2.5-5.6,4.2-8.1
					c3-5.3,6.6-10.3,10.7-14.9c0.2-0.3,0.6-0.6,0.9-0.8c1.4-0.6,2.6,1.1,3.1,2.5c2.5,5.9,3.1,11.8,6,17.6
					c5.2,10.1,10.4,20.4,18.5,28.3c9,8.5,20.3,14.3,32.6,16.4c6.3,1.1,12.6,1.6,18.9,1.3c5.7-0.1,12.6-0.2,17.7-2.5
					c1.4-0.8,3.3-1.1,4.6,0c0.9,1.1,1.1,2.6,0.5,3.9c-0.7,1.3-1.6,2.3-2.5,3.4c-5.9,6.8-7.1,16.2-11.7,23.9
					C156.1,209,154.9,210.7,153.5,212.3z"/>
				<path class="st3" d="M65.3,344.5c-5.3,6.2-9.7,13.9-14.7,20.6c-3.1,4.5-6.8,8.5-10.9,12.2c-4,3.3-8.4,6.4-10.3,11.6
					c-0.4,1.2-0.6,2.3-0.8,3.6l-1.3,8c-0.5,3.1-2.3,8.5-5.3,10c-2.1,1.1-4.8,0.5-7.2-0.2c-1.4-0.4-2.7-0.9-4.1-1.3
					c-5.1-2.4-9.5-6.2-12.5-11c-0.5-1.1-0.8-2.1-0.9-3.3c-0.5-3.3-0.4-6.5,0.7-9.7c1.9-5.1,8-9,12.4-11.7c3.9-2.5,7-6.1,8.9-10.4
					c1.5-3.4,2.3-6.9,4.1-10.1c4.4-8.5,9.4-16.8,14.6-24.9c4.8-7.4,8.5-14.9,12.7-22.7c5-9.5,14.3-16.4,23.8-21.4
					c6.5-3.2,12.6-6.8,18.5-10.9c6.4-4.8,12.5-9.7,18.7-14.9c5-4.2,9.6-9,14.3-13.5c2.1-2.1,4.6-3.8,7-5.7c2-1.6,3.3-4.2,5.9-5.1
					c0.1-0.1,0.4-0.1,0.5,0s0.1,0.4,0,0.5c-1,3-2.7,6-3.9,9.1c-1.3,3.4-2.6,6.7-4.2,10.1c-3.6,7.4-8.4,14.6-12.7,21.8
					c-9.5,15.9-20.1,31.1-31.7,45.6c-6.7,8.2-14,15.7-21,23.5C65.7,344.2,65.4,344.3,65.3,344.5z"/>
				<path class="st3" d="M-3.1,318.8c-0.8,0.1-1.6,0.1-2.6,0c2.9-9,8.9-16.5,15.2-23.3c1.3-1.4,8.9-7.8,7.3-9.1
					c-2.3-2-6.9,2.2-8.3,3.7c-2.3,2.4-3.9,5.1-5.1,8.1c-1.6,3.6-3.5,7.2-5.6,10.5c-4.2,6.9-9.1,13.7-12.9,20.7
					c-2,3.8-3.9,7.9-5.7,11.9c-1.7,3.5-2.9,7.2-3.7,11c-1.2,9.1,6.2,15.7,5.2,24.8c-0.3,2.2-0.7,5.4-3.1,5.9
					c-1.3,0.2-2.6,0.2-3.9-0.3c-8.3-2.2-15.2-7.3-22.1-12.5c-4.4-3.2-9.1-7-9.7-12.5c-0.6-5.4,3.3-9.5,5.1-14.4
					c2.3-6.2,3.2-13.3,3.9-19.7c0.2-2.7,0.5-5.4,1.2-8c0.9-3.3,2.7-6.2,3.6-9.4c0.9-2.9,0-5.6,0.5-8.5c1.4-7.3,5-14.8,8.6-21.3
					c7.4-13.4,17.3-25.1,26.5-37.3c7.9-10.5,15.2-21.5,22.3-32.5c0.7-1,1.4-2.4,0.8-3.6c-0.8-1.1-2.3-1.3-3.5-0.6
					c-1.2,0.7-2.4,1.6-3.2,2.8C-1.7,216.3-9.4,229-17.5,241c-1.3,2.3-3.1,4.3-5.2,5.8c-2.7,1.2-5.7,1.7-8.7,1.2
					c-8.4-0.7-16.5-3-24.9-4.5c-8.9-1.5-18-2.4-26.9-2.4c-8.4,0.1-16.4,4.4-23.8,8.2c-8.8,4.4-18.7,8.6-28.2,6
					c-3.6-1.2-7.1-2.8-10.2-4.9c-7.5-4.4-15.4-9.3-19.4-17.2c-1.2-2.5-1.7-6.1,0.7-7.5c1.3-0.6,2.7-0.8,4.1-0.4
					c8.4,0.9,17,0.8,25.4-0.3c10.3-1.6,18.4-9,26.4-15.5c7.2-5.9,15-10.3,22.3-16.1c7.8-6.3,15.6-12.5,23.4-18.7
					c16.8-13.2,39.2-19.2,59.5-24.6c15.2-4.1,34-10,49.9-9.3c0.9,4.8-7.2,15.3-9.4,20c-3.3,6.8-6,13.8-8.4,21
					c-2.1,7.1-3.4,14.4-4.1,21.8c-0.9,7.5-5.4,14.3-7.6,21.4c-4.3,14.3-5.9,29.7-1.4,44.1c1,3.4,2.6,6.7,4.5,9.8
					c2.3,3.4,5.2,6.4,8.6,8.7c1.3,1,2.7,1.8,4.2,2.3c2,0.4,4.1,0.6,6.1,1.1c1.2,0.3,2.2,0.6,3.4,1c1.2,0.3,2.3,0.9,3.1,1.8
					c0.2,0.4,0.3,0.9,0.3,1.4c-0.1,0.3-0.2,0.7-0.5,0.9c-2.3,2.5-5,4.8-7.8,6.8c-7.8,5.7-16.5,9.9-25.8,12.6c-2.9,0.9-6,1.5-9,2
					C1.3,317.9-1,318.6-3.1,318.8z"/>
				<path class="st3" d="M-115,100.7c-1.5-0.3-3-0.6-4.5-0.8c-6.9-1-17-3.2-23.8-2.2c-5.2-0.7-10.6-0.9-15.9-0.6
					c-4.8,0.5-9.5,1.4-14.2,2.6c-8.8,2.1-17.7,4.2-25.8,7.9c-13.2,6-24.1,16.2-32.9,27.7c-4.2,5.3-7.5,10.9-12,15.8
					c-4.7,5.2-9.6,11.4-11.9,18c-2.9,8.4-6.2,17-8.3,25.8c-1.1,4-1.5,8-1.1,12c0.5,3.5,2.2,7.6,5.3,9.7c1.4,0.6,2.8,1,4.3,1.2
					c1.9,0.6,3.8,0.9,5.7,0.8c5.8-0.5,10.9-4.3,13.2-9.6c3.5-7.7,9.7-13.6,15-20.1c6.8-8,12.5-16.1,20.9-22.2
					c9.6-7.1,21-11.3,32-15.4l19.4-7.2c4.7-1.8,9.5-3.5,14.4-4.8c9.6-2.5,19.6-3.1,29.5-3.4c3.5-0.2,7,0,10.5,0.4
					c3.5,0.6,7,1.5,10.2,2.7l17,5.4c7.2,2.3,14.4,4.7,20.7,8.9c2,1.4,4.9,3.8,7.4,3.5c4.6-0.5,1.6-6.3,0-8.3c-2-2.4-4-4.6-6.2-6.7
					c-2.4-2.3-5.2-4-7.9-6.1c-6.8-5.1-12.7-11.5-19.9-16.2c-2.8-1.8-5.8-3.4-8.8-4.9l-16.8-8.8C-104.4,103.4-109.6,101.7-115,100.7z
					"/>
				<path class="st6" d="M-4.7,338.8c0.5,1.1,0.8,2.1,0.9,3.3c0,1.2-0.6,2.2-1.6,2.8c-0.6,0.2-1.3,0.3-2,0.2
					c-3.5-0.3-6.8-1.6-9.4-3.9c1.3-2.2,4.5-13.3,7-13.6C-8,327.6-5.5,336.8-4.7,338.8z"/>
				<path class="st0" d="M19.2,403.9c0.7,0.1,1.4,0.5,1.9,1.1c0.3,0.5,0.3,1.2-0.1,1.5c-0.4,0.2-0.8,0.3-1.3,0.1
					c-0.5-0.1-0.8-0.4-1.2-0.6l-0.8-0.6c-0.3-0.2-0.7-0.5-0.8-0.9c0-0.5,0.4-0.9,0.9-0.9C18.3,403.5,18.8,403.7,19.2,403.9z"/>
				<path class="st0" d="M10.7,400.5c0.3,0.1,0.6,0.6,0.5,1.1l0,0c-0.1,0.3-0.6,0.6-0.9,0.7c-0.4,0-0.8,0-1.2-0.3
					c-0.6-0.2-1-0.6-1.4-1.1c-0.1-0.1-0.2-0.2-0.2-0.4c-0.1-0.4,0.2-0.6,0.6-0.8c0.9-0.2,1.9-0.1,2.7,0.3"/>
				<path class="st0" d="M1.9,393.8c-0.2-0.2-0.3-0.6-0.2-0.9c0.1-0.3,0.6-0.6,1.1-0.6c0.9,0.1,3.1,1.8,2.9,3
					C5.1,397.5,2.3,394.5,1.9,393.8z"/>
				<path class="st0" d="M2.2,386.8c-0.1,0.3,0.1,0.8-0.1,1.2s-0.8,0.2-1.2-0.1c-0.5-0.4-0.7-0.8-0.9-1.3c-0.2-0.5-0.1-1.1,0.3-1.4
					c0.4-0.2,0.7-0.2,0.9,0c0.3,0.1,0.6,0.4,0.8,0.6c0.2,0.1,0.3,0.5,0.2,0.7"/>
				<path class="st0" d="M-27.2,371.1c1.6-0.1,4.9,2.5,2.7,3.9c-0.8,0.6-2,0-2.8-0.5c-0.8-0.6-2.7-1.6-1.4-2.7
					C-28.3,371.4-27.8,371.2-27.2,371.1z"/>
				<path class="st0" d="M-36.6,369.2c1,0.1,2,0.7,2.5,1.7c0.5,0.9-0.3,1.6-1.2,1.4c-0.8-0.1-1.4-0.5-1.9-1.2
					c-0.3-0.6-0.2-1.4,0.4-1.7C-36.8,369.2-36.7,369.2-36.6,369.2z"/>
				<path class="st0" d="M-45.1,363.8c2,0,3.6,1.7,3.5,3.7c0,0.5-0.4,0.8-0.8,0.8l0,0c-0.1,0-0.2-0.1-0.3-0.2l-2.5-1.7
					c-0.3-0.2-0.7-0.5-0.8-0.8c-0.2-0.7,0.3-1.5,1-1.7C-45.2,363.8-45.2,363.8-45.1,363.8z"/>
				<path class="st0" d="M-51.7,357.1c1.5-0.9,3.2,2.9,1.9,3.2c-0.4,0-0.6,0-0.8-0.2c-0.6-0.2-1-0.7-1.5-1.2
					C-52.3,358.2-52.2,357.5-51.7,357.1z"/>
				<path class="st0" d="M-142.2,245.9c0.4-0.5,0.8-0.2,1.2-0.1c0.6,0.2,1,0.5,1.5,0.8c0.6,0.4,1,0.8,1.5,1.2
					c0.3,0.2,0.5,0.7,0.3,1.1c-0.2,0.3-0.7,0.6-1.2,0.6c-0.5-0.1-0.8-0.2-1.3-0.6c-0.5-0.4-0.8-0.6-1.3-1
					C-142.1,247.4-142.8,246.5-142.2,245.9z"/>
				<path class="st0" d="M-151.1,238.9c-0.1-0.6,0-1.2,0.4-1.6c0.1-0.2,0.4-0.2,0.6-0.1c0.2,0.1,0.6,0.2,0.8,0.5
					c0.3,0.2,0.6,0.4,0.9,0.6c0.1,0.1,0.2,0.2,0.2,0.4c0.1,0.4,0.2,0.8,0.1,1.3c0,0.5-0.2,0.8-0.7,0.9c-0.4,0.1-0.8,0-1.2-0.3
					C-150.5,240.1-151,239.5-151.1,238.9z"/>
				<path class="st0" d="M-156.8,229.5c1.6,0.6,3.5,3,2.3,4.7c-0.5,0.7-1.1,0.2-1.5-0.3c-1-0.8-1.6-2.1-1.7-3.4c0-0.5,0.1-1,0.5-1
					C-157.2,229.3-156.9,229.5-156.8,229.5z"/>
				<path class="st1" d="M-9.3,307.3c-7,8.3-12.1,18.2-14.6,28.8c-1.1,5-1.7,10.3-1.4,15.4c0.2,5.4,1,10.6,0,16l4.4-5.8
					c-3-15.9,1.1-32,5-47.5c0.1-0.5-1.8,1.6-2,1.8c-1.1,1.2-1.9,2.4-2.5,3.8c-3.8,13.8-6,28.2-6.6,42.5l4.4-5.8
					c-7.6-16.7-0.1-34.7,9.4-48.9l-3.6,3.8c-4.5,9.2-6.2,19.2-8.1,29.1c-1.6,8.9-3.1,17.9-1.1,26.9c0,0,2.4-2.4,2.5-2.8
					c0.6-0.7,2-2.2,1.9-3.2c-2.5-19.2,0.3-38.7,8.1-56.3c0.6-1.4-1.1,0.6-1.3,0.8c-1.2,1.3-2.1,2.7-2.9,4.2
					c-6.5,14.9-11.7,30.3-15.2,46l4.4-5.8c-2.1-8.1-2.9-16.4-2.7-24.8c0.2-4,0.9-7.9,2-11.8c1-3.7,2.7-7.3,4.9-10.3l-1.4,1.1
					c-3.5,10.1-7.2,20.2-10.8,30.4c-3,8.6-5.9,17.4-5.4,26.7l4.4-5.8c-1.4-16.6,1.7-33,4.3-49.3c0.1-0.5-1.5,1.4-1.7,1.5
					c-1,1.2-1.9,2.4-2.6,3.8c-5.2,9.7-9.1,20.1-11.3,30.9l4.4-5.7c2.1-13.1,5.2-25.9,9.6-38.3l-4.4,5.7l-7.1,35.2l4.4-5.7
					c1.5-11.9,4.3-23.6,8.6-34.8c0.1-0.5-1.4,1.1-1.4,1.1c-1,1.2-1.8,2.3-2.6,3.6c-3.8,6.5-7.2,14.7-6.4,22.5c0.1,1.3,0.5,4,2.4,3.9
					c0.8-0.1,1.5-0.6,2.1-1.3c1.7-1.7,3.2-3.6,4.4-5.7l-3.7,4.2c-1.1,5.2,0.1,11.1,0.9,16.1c1,5.5,2.3,11,3,16.6
					c0,0,2.1-2.2,2.3-2.3c0.6-0.9,2.1-2.3,2.2-3.5c1-11.1,2-22.3,5.5-32.9c2.9-8.6,6.9-17,8.3-25.9c0.1-0.5-1.5,1.4-1.7,1.5
					c-1.1,1.2-1.9,2.4-2.6,3.8c-4.6,10.8-9.3,21.5-14.4,32.1c-1.9,4.1-4,8.5-6,12.2c-0.2,0.2-0.4,0.6-0.5,0.9
					c-0.1,0.3-0.2,0.3-0.4,0.5c0,0,0.5-0.6,0.1-0.2c-0.2,0.3,0.2-0.3,0.2-0.3c0.6-0.8,2-1.8,2.1-2.7c0-0.2,0.1-0.2,0.1-0.2
					c-0.1-0.5-0.2-0.9-0.4-1.4c-0.2-0.9-0.6-1.8-0.7-2.7c-0.4-1.8-0.6-3.5-0.7-5.3c0-1.1,0-2.1,0.3-3.1c0.3-2-3.9,4.5-3.7,4.7
					c0.1,0.1,0.3,0.1,0.5,0.4c1.4,2.1,1.1,5.6,1.1,8c0,0.6,1.8-1.6,2-1.8c0.7-0.9,2.4-2.5,2.5-3.8c2-16.7-0.3-34,5.3-50.2
					c0.1-0.3-1.5,1.4-1.7,1.5c-1.1,1.2-1.9,2.4-2.6,3.8c-3.4,8.2-5,17-4.9,25.9c0,0.5,1.9-1.7,2-1.8c5.2-6.6,9.9-13.4,14.2-20.6
					c1.1-1.9-0.3-0.5-0.9,0.2c-9.5,11.1-16.2,24.4-17.4,39.1l4.4-5.8c-0.9-10.6-1.8-21.5,1.4-31.9c0.1-0.5-0.5,0.1-0.5,0.1
					c-0.6,0.5-1.1,1-1.4,1.6c-3,3.8-5.1,8.1-6.5,12.6c-1.2,4.3-2.1,8.7-3,13.2c-1.8,9.3-3.4,18.6-5.1,27.8c-0.1,0.5,1.1-0.7,1.2-0.8
					c4.4-5.1,6.9-11.3,7.3-18c0-0.6-1.8,1.6-2,1.8c-0.6,0.9-2.5,2.7-2.5,3.8c0,1.2-0.1,5.1,1.9,3.4c2.6-2.2,4.3-5.2,4.8-8.6
					c0-0.6-1.8,1.6-1.9,1.7c-1.1,1.2-1.9,2.4-2.5,3.8c-1,3.5-0.9,7.1,0.2,10.6c0.9-0.9,1.8-1.7,2.5-2.8c0.5-0.6,2.1-2.4,1.9-3.2
					c-1-3.3-1.1-6.9-0.1-10.3l-4.4,5.7c-0.1,1.6-1.2,2.8,1.1,0l2-2.4c-0.6,0.5-0.9-3.8-0.9-3.6l-4.4,5.7c0.1,4.1-1.1,8.2-3.1,11.8
					l3.6-4.2l4.4-24.1c0.6-3.7,1.4-7.5,2.3-11.2c0.4-1.9,1-3.7,1.5-5.7c0.2-1,0.6-2,1-3c0.1-0.5,0.4-0.9,0.5-1.4
					c0.2-0.5,1.1-1.9,0-0.6l-2,1.8c-3.3,10.5-2.4,21.5-1.4,32.2c0,0,2.1-2.2,2.3-2.3c0.6-0.8,2.1-2.3,2.2-3.5
					c0.9-10.6,4.3-21.9,11.3-30l-0.9,0.2c-3,5.1-6.3,10.1-10,14.7l1.9-1.8c-0.1-8.6,1.4-17.2,4.7-25.2l-4.3,5.3
					c-5.6,16.2-3.3,33.5-5.3,50.2l4.4-5.7c0-1.9,0.1-3.6-0.2-5.4c-0.1-0.8-0.2-2.2-0.8-2.8c-0.3-0.4-0.5-0.4-0.9-0.2
					c-1.1,0.7-1.9,1.7-2.5,2.8c-0.7,0.9-1.4,2-1.9,3c-1.1,2.2-0.7,5-0.3,7.4c0.2,1.1,0.4,2.1,0.7,3.3c0.1,0.4,0.4,2.9,0.8,3
					c0.5,0.2,0.5-0.1,0.8-0.3c2-1.8,3.6-4,4.9-6.5c1.2-2.1,2.3-4.2,3.4-6.3c3-6.1,5.9-12.3,8.7-18.6c3.3-7.1,6.4-14.3,9.4-21.4
					l-4.3,5.3c-1.5,9-5.5,17.3-8.3,25.9c-3.7,10.6-4.6,21.8-5.5,32.9l4.4-5.8c-0.7-5.4-1.9-10.8-2.9-16s-2.2-11.1-1-16.4
					c0.1-0.5-1.1,0.8-1.2,0.8c-0.9,1-1.7,2.2-2.5,3.4c-0.7,1,1.9-2.1,1.5-2.1c-0.4,0-0.1,0.2-0.2,0.2c-0.1,0-0.5,0.2-0.7,0.2
					c-0.5,0-0.9-0.2-1.2-0.6c-0.9-1.5-1.2-3.3-1.1-5c0.2-6.5,2.2-13.1,5.6-18.6l-4,4.7c-4.3,11.3-7.1,22.9-8.6,34.8
					c0,0.6,1.8-1.6,2-1.8c1.1-1.2,1.9-2.4,2.5-3.8l7.1-35.2c0.1-0.5-1.8,1.6-1.9,1.8c-1.1,1.2-1.9,2.4-2.5,3.8
					c-4.3,12.4-7.5,25.2-9.6,38.3c-0.1,0.5,1.8-1.6,1.9-1.7c1.1-1.2,1.9-2.4,2.5-3.8c2.1-10.5,5.9-20.7,11-30.2l-4.3,5.3
					c-2.7,16.4-5.7,33-4.4,49.7c0,0,2.1-2.2,2.3-2.3c0.6-0.8,2.3-2.4,2.2-3.5c-0.4-9.2,2.4-18.2,5.4-26.7
					c3.5-10.1,7.2-20.2,10.8-30.4c0.1-0.5-1.4,1.1-1.4,1.1c-6.9,7.6-11.3,17.1-12.8,27.4c-1.3,9.7,0.2,19.5,2.3,29
					c0,0,2.1-2.3,2.3-2.3c0.9-1,1.7-2.2,2.2-3.5c3.4-15.6,8.4-30.8,14.9-45.3l-4.2,5c-8,18-10.8,37.8-8.3,57.4l4.4-6
					c-2-8.8-0.6-17.8,1.1-26.5c1.8-9.7,3.6-19.6,7.8-28.4c0.5-1-0.5-0.1-0.7,0.2c-1,1.2-1.9,2.3-2.6,3.6c-10.2,15-19.2,34.3-11,52.3
					c0.8-0.7,1.5-1.5,2.3-2.3c0.6-0.8,2.1-2.3,2.2-3.5c0.6-14.4,2.8-28.7,6.6-42.5l-4.4,5.7c-4,15.5-8.1,31.7-5,47.8
					c0,0,2.1-2.2,2.3-2.3c0.9-1,1.7-2.2,2.2-3.5c0.6-4.4,0.7-9,0.2-13.4c-0.4-4.8-0.2-9.6,0.6-14.4c1.4-8.7,4.7-17.8,10.3-24.7
					c0.5-0.6,2.7-3,2.5-3.8C-7.4,305-9,307.2-9.3,307.3L-9.3,307.3z"/>
				<path class="st1" d="M-189.7,153.1c-11.7,0.8-20.3,10.9-27.6,19c-9.6,10.6-18.3,21.8-26.2,33.7l2.9-1.5
					c8.8-16.6,20.8-31.2,35.4-42.8l1.6-4.3c-12.7,13.4-25.6,26.4-39.1,39l0.6,1.4c10.7-19.1,22.8-37.9,39.7-52.1l2.2-4.9
					c-16.3,15.4-31.3,32.2-44.4,50.5l2.9-1.8c6.8-22.1,21.7-40.7,41.8-52.1c5.9-3.4,12.2-6.2,18.7-8.4c1.4-0.8,2.5-1.9,3.2-3.3
					c0.1-0.2,1.7-3,0.7-2.7c-24.5,7.5-43.8,25.2-60.1,44.2c-5,5.9-9.9,11.9-14.6,17.9l1.8,0.1c5.4-10.4,11.2-20.9,19.1-29.6
					c8-8.8,18.2-14.7,28.7-20.3l19.3-10.2l3.1-5.7c-5.9,3.8-12.4,6.4-18.6,9.3c-6.4,2.9-12.6,6.4-18.4,10.2
					c-11.8,7.9-22.1,17.8-30.8,29l1.9,0.1c14-20.2,34.2-36.1,56.6-46c1.3-0.8,2.5-1.9,3.2-3.3c0.1-0.2,1.7-2.9,0.7-2.7
					c-14.7,3.8-28.2,10.7-39.9,20.2c-12.2,10.1-23.4,23.5-27.6,39.1c-2.3,8.7-2.7,17.7-3.2,26.7c0,0.9,2-1.1,2-1.1
					c1.1-1.2,1.9-2.4,2.5-3.9c7.3-20.3,20.4-38,37.6-51.2l0.9-3.3c-16.7,21.5-33.3,43.2-44.7,68c-0.4,0.7-0.5,1.5,0.5,1.1
					c1.2-0.8,2.1-1.8,2.8-3.1c14.5-22,28.9-44.1,46.2-64l-1.3-1c-14.7,22-27.3,45.3-37.6,69.5c-0.4,0.9-0.4,1.6,0.7,0.8
					c1.3-1,2.3-2.3,3-3.7c6.8-11.8,11.5-24.8,19.1-36.2c7.8-11.3,19.6-18.9,31.6-24.5c1.3-0.8,2.5-1.9,3.2-3.3
					c0.1-0.2,1.4-3,0.7-2.7c-10.7,5.1-20.8,11.5-29,20.1c-8.5,9-14.4,19.9-19.8,31c-2.9,5.9-5.8,11.9-9,17.7l3.7-2.9
					c9.9-23.3,21.9-45.6,36-66.6c0.2-0.3,1.5-2.1,1-2.7c-0.6-0.6-2.1,1.5-2.2,1.7c-18.1,21-33.4,44.1-48.5,67.2l3.3-2.1
					c10.6-23.2,26.3-43.4,41.9-63.5c0.7-0.8,1.3-1.7,1.6-2.8c0-0.5,0-1.1-0.7-0.5c-20.6,15.8-36.3,37.1-45.2,61.5l4.5-5.1
					c0.7-14.2,1.5-28.9,10.1-40.9c7.6-10.8,18.5-19.2,30.2-25.3c6.9-3.6,14.2-6.3,21.7-8.3l3.9-6c-25.5,11.4-47.3,29.7-63,52.7
					c-0.4,0.5-1.6,2.3-0.9,2.7c0.7,0.4,2.5-2.3,2.7-2.5c8-10.2,17.7-18.9,28.5-25.9c5.5-3.5,11.4-6.6,17.4-9.2
					c6-2.5,11.8-5.3,17.3-8.7c1.4-1,2.5-2.4,3.2-3.9c0.2-0.5,1.2-2.4-0.1-1.8c-6.1,3.2-12.2,6.5-18.2,9.7c-5.8,3-11.4,6.1-16.8,9.7
					c-11.1,7.4-19.8,17.8-27.1,28.9c-4.2,6.4-7.8,13-11.4,19.7c-0.2,0.3-1,1.6-0.4,1.9c0.6,0.2,1.9-1.5,2.1-1.7
					c15.2-19.1,30.9-38.6,52.5-50.7c5.8-3.3,12-6,18.3-7.9l3.9-6c-25.6,8.4-47,27-60.2,50.5c-3.6,6.5-6.5,13.3-8.7,20.4
					c-0.2,0.8,0.2,0.6,0.7,0.5c0.9-0.6,1.7-1.4,2.3-2.3c12.2-16.8,25.8-32.3,41-46.5c1.3-1.1,2.4-2.7,3.1-4.3
					c0.5-1.2,0.1-1.6-0.9-0.7c-19.2,16.3-33,37.5-45.3,59.3c-0.5,0.9-1.1,2.9,0.6,1.4c13.7-13,27.1-26.4,40.2-40.2
					c1.2-1.2,2.1-2.4,2.6-3.9c0.2-1-0.1-1.2-1-0.4c-17,13.7-30.9,30.6-41,50c-0.2,0.5-1.2,2.1,0,1.8c1.2-0.2,2.5-2.4,3-3.2
					c6.8-10.3,14.3-20.1,22.6-29.2c6.8-7.4,14.1-16.1,24.8-16.8c1.2-0.1,2.6-2.4,3.2-3.3C-190.2,155.4-188.6,153-189.7,153.1
					L-189.7,153.1z"/>
				<path class="st7" d="M227.2,86.3c-1.7,2-4.1,3.3-5.5,5.5c-1.3,2.2-1,5.8,2,9c0.3,0.5,0.9,0.8,1.5,1.1c0.3,0.1,0.7,0,0.9-0.3
					c1-1.2,1.4-2.5,1.5-4.1c0.5-4.2,0.7-8.4,0.4-12.6c-2.8,1.9-5.1,4.6-6.3,7.9c-0.8,2-0.8,4.1,0.3,6c1.8-0.1,3.4-1,4.6-2.4
					c2.8-3,5.5-6.1,7.7-9.5c-1.4,1.5-2.7,3-3.9,4.7c-1.9,2.7-3.5,6-1.2,10.4c1.4-5,2.4-10,3-15.1c-2.6,2.1-4.7,4.6-6.2,7.5
					c-1.1,2-1.3,4.3-0.4,6.4c0.1,0.2,0.2,0.5,0.5,0.7c0.3,0.2,0.8,0.2,1.2-0.1c3.5-2.9,4.1-8.4,1.5-14.3c-1.3-0.3-2.6,0.1-3.6,0.9
					c-1.9,1.3-3.4,2.9-4.6,4.8c-0.6,0.9-0.4,2.2,0.5,2.8c0.6,0.5,1.4,0.7,2.2,0.6c2.7-0.1,4-1.9,5-3.8c1-1.6,1.3-3.6,0.9-5.4
					c-2.7,2.6-4.6,6.1-5.4,9.8"/>
				<path class="st7" d="M111.8,32.6c1.8-1.6,4.2-2.5,5.7-4.5c1.4-2,1.6-5.2-0.8-8.5c-0.3-0.5-0.8-0.8-1.3-1.2
					c-0.3-0.1-0.7,0-0.9,0.1c-1.1,0.9-1.7,2.2-1.9,3.6c-1,3.8-1.5,7.7-1.8,11.7c2.8-1.4,5.2-3.7,6.6-6.6c1-1.6,1.1-3.7,0.4-5.5
					c-1.6,0-3.3,0.5-4.5,1.6c-3,2.4-5.7,5.1-8.2,7.9c1.4-1.1,2.8-2.5,4.1-3.9c2-2.2,3.8-5.2,2.2-9.4c-1.8,4.4-3.3,8.9-4.4,13.6
					c2.6-1.6,4.8-3.7,6.5-6.3c1.3-1.7,1.7-3.8,1.1-5.9c-0.1-0.2-0.2-0.5-0.3-0.7c-0.3-0.4-0.8-0.4-1-0.1c-3.5,2.3-4.7,7.3-3,13
					c1.2,0.4,2.3,0.3,3.4-0.4c1.8-1,3.4-2.3,4.7-3.9c0.7-0.8,0.6-2-0.1-2.7l0,0c-0.6-0.5-1.2-0.7-2-0.8c-2.1,0-4,1.1-4.9,3
					c-1.1,1.4-1.6,3.1-1.4,4.9c2.8-2.2,5-5.1,6.1-8.4"/>
				<path class="st1" d="M23.3,395.3c3.3-8.6,7.8-16.7,13.3-24c2.7-3.7,5.5-7.4,8.2-11.1c2.6-3.7,5.8-6.8,9.5-9.3l0.9-3.3l-33,44.5
					l2.7-1.2c5.4-13,12.1-25.5,19.9-37.2l-2.5,0.7l-26.9,43.1l3.4-2.6c3.6-15.4,8.1-32.2,19.1-44.2l-1.2-0.8
					c-7.6,14.1-15.1,28.3-22.6,42.7l3.7-2.9c6.2-13.8,14.2-26.7,23.8-38.2l-0.7-1.8c-7.6,10.1-15.1,20.3-22.4,30.7
					c-0.4,0.5-2,2.5-1.7,3.2c0.3,0.7,1.4-0.4,1.8-0.8c7.9-7.8,11.5-18.4,16.9-27.8c5.3-9,11.7-17.2,19.2-24.5l-1.5-0.1
					c-4.7,9.3-9.8,18.2-15.7,26.8c-5.5,8.1-11.5,16.8-19.1,23l1.2,0.1c3.3-13.2,8.6-25.8,15.3-37.7l-3.7,2.9
					c-6.4,14.4-12.9,28.8-21.6,42l3.3-2.1c3-8.2,7.1-16,12.3-23.2c0.4-0.5,2.1-2.8,1.6-3.4s-2.1,1.4-2.4,1.6l-17,21.5l0.7,1.8
					c8.5-11.3,18.1-21.7,27.7-32.2l-1.5-0.1c-6.3,13.3-14.3,25.8-22.3,38.2l3.4-2.6c2.7-10.5,7.1-20.3,12.8-29.5l-3.4,2.6l-5.4,14.4
					c-0.4,0.9,0.5,0.6,0.9,0.2c1.1-0.8,1.9-1.8,2.6-3l18.7-29.4c0.4-0.5,1.7-2.4,0.7-2.7c-0.9-0.2-2.8,2.8-3.2,3.3l-18.7,29.4
					l3.4-2.6l5.4-14.4c0.4-0.9-0.5-0.6-0.9-0.4c-1.1,0.8-1.9,1.8-2.6,3c-6.6,10.4-11.5,21.7-14.7,33.5c-0.2,0.9,0.3,0.7,0.9,0.2
					c1.1-0.8,1.9-1.8,2.6-3c8.6-13.4,17.1-26.8,23.9-41.1c1-2-0.7-0.9-1.5-0.1c-10.4,11.3-20.9,22.6-30.1,35
					c-0.4,0.5-2.1,2.8-1.6,3.4c0.6,0.6,2.1-1.4,2.2-1.6l17-21.5l-0.7-1.8c-6.2,8.6-11.2,17.8-15,27.7c-0.2,0.7-0.5,1.4,0.5,1.1
					c1.2-0.8,2.1-1.8,2.8-3.1c9.3-14.1,16.3-29.5,23.2-44.9c0.5-0.9,0.4-1.6-0.7-0.8c-1.3,1-2.3,2.3-3,3.7
					c-7.2,12.6-12.6,26.1-16.4,40.2c-0.3,1.2,0.7,0.5,1.2,0.1c9.2-7.5,16.3-17.6,22.9-27.3c6.8-9.8,12.9-20.1,18.2-30.9
					c1-2-0.8-0.8-1.5-0.1c-7.8,7.6-14.8,16.1-20.7,25.4c-2.9,4.5-5.5,9.3-7.8,14.1c-2.2,4.5-4.1,9.3-7.7,12.9l0.1,2.3
					c7.3-10.4,14.8-20.7,22.4-30.7c0.4-0.5,2.1-2.8,1.6-3.4c-0.6-0.6-2.1,1.4-2.4,1.6C30.4,362,21,376.9,13.9,392.8
					c-0.5,0.9-0.4,1.6,0.7,0.8c1.3-1,2.4-2.3,3-3.7c7.3-14.3,15-28.4,22.6-42.7c0.1-0.2,1-1.6,0.5-1.9c-0.5-0.4-1.4,0.8-1.7,1
					c-13.6,14.6-20.1,33.5-24.7,52.7c-0.2,0.9,0.3,0.7,0.9,0.4c1.1-0.8,1.9-1.8,2.5-3l26.9-43.2c0.4-0.5,1.7-2.4,0.7-2.7
					c-0.9-0.2-2.8,2.9-3.2,3.3c-8.5,12.6-15.7,26.1-21.6,40.1c-0.2,0.6-0.6,1.3,0.2,1.2c0.8-0.1,2-1.8,2.5-2.4l33-44.5
					c0.2-0.2,2.6-4.4,0.9-3.3c-4.5,3.1-8.5,7-11.7,11.4c-3.6,4.5-7,9.1-10.4,13.7c-6.7,9.2-12.7,18.9-16.4,29.7
					c-0.5,1.5,1.4-0.1,1.6-0.4C21.9,398.4,22.8,396.9,23.3,395.3L23.3,395.3z"/>
				<path class="st1" d="M-140.3,234.6c12,0.8,20.4-10,29.9-15.2c4.4-2.4,9.2-4.1,13.6-6.3c4.8-2.4,9.1-5.7,12.5-9.7
					c0.6-0.8,2.1-2.4,2.2-3.6s-0.5-0.7-1.2-0.1c-14.3,11.4-31,18.2-48.4,23.4c-0.9,0.2-5.2,5.5-4.2,6c4.9,2.2,10.4,1.8,15.5,0.9
					c5.4-0.9,10.7-2.3,15.7-4.3c10.1-4.1,19.4-10,27.2-17.6c1.2-1,2.1-2.4,2.7-3.9c0.3-1.2-0.1-1.1-1-0.4
					c-4.8,3.5-10.1,6.6-15.6,9.2l-14.6,7.5c-10,5.1-20,10.3-29.9,15.4l-3.1,5.7c14.2-10,28.7-19.4,42.8-29.4l2.2-4.8
					c-10.1,11.1-21.2,21.2-34.4,28.5c-1.3,0.9-2.4,2.2-3,3.6c-0.2,0.3-1.4,2.3-0.5,2.3c9.5-0.2,18.6-3.2,27.2-6.8
					c9.5-4.1,18.5-9.1,27-14.9c4.2-3,8.4-6.2,12.2-9.7c1.2-1.2,2.1-2.4,2.9-3.9c0.2-0.5,0.9-2.2-0.3-1.4c-8.9,6.1-18.2,11.6-27.5,17
					c-9.9,5.7-20.5,12.7-32.2,13.7l-3.9,6c9.8-1.7,19.7-3.7,29.4-6.2c9.6-2.5,19.2-5.6,27.8-10.6c1.3-0.9,2.3-2.2,3-3.6
					c0.1-0.2,1.3-2.7,0.5-2.3c-9.6,3.9-19.3,7.9-28.8,12.4s-18.7,9-27,15.1c-1.2,0.9-2.3,2.2-3,3.6c-0.1,0.2-1.3,2.7-0.5,2.3
					c9-3.3,17.8-7.7,26.9-10.6c4.1-1.5,8.4-2.2,12.9-2.4c5.1,0.1,10.2,0.7,15.2,1.9c1.5,0.3,5.2-5.5,4.4-6
					c-4.6-2.3-9.4-4.5-14.6-4.8c-5-0.1-10.2,0.4-15.1,1.5c-10.3,2-20.4,5.1-30,9.1l-3.1,5.4c7.2-6.6,14.9-13.1,24.3-16.2
					c4.7-1.6,9.7-2,14.4-3.5c4.9-1.7,9.2-5.1,11.9-9.5c0.1-0.1,1.7-3,0.7-2.7c-18,5.6-36.1,10.4-54.4,14.9c-1.3,0.3-2.5,2.3-3.2,3.3
					c-0.2,0.2-1.7,2.9-0.7,2.7c18.3-4.4,36.5-9.3,54.4-14.9l0.7-2.7c0.6-0.8-0.2,0.1-0.5,0.3c-0.5,0.3-0.8,0.6-1.3,0.9
					c-1.1,0.6-2.1,1.1-3.2,1.5c-2.2,0.8-4.5,1.3-6.8,1.7c-4.5,0.8-8.7,2.1-12.8,3.9c-8.1,3.6-15,9.4-21.5,15.3c-1.1,1-2,2.2-2.7,3.5
					c-0.1,0.1-1.1,2.2-0.3,1.9c9.4-4.1,19.3-7.1,29.3-9c4.8-1.1,9.6-1.6,14.5-1.7c5.5,0.1,10.5,2.4,15.3,4.8l4.4-6
					c-4.9-1-9.8-1.7-14.8-1.9c-4.6,0-9,0.8-13.2,2.3c-9.4,2.9-18.2,7.4-27.4,10.8l-3.5,5.8c8.4-6,17.3-11,26.7-15
					c9.3-4.3,18.8-8.3,28.2-12.1l3.5-5.8c-8.5,5-18.2,7.9-27.7,10.3s-19.1,4.5-28.8,6.1c-1.3,0.2-2.5,2.3-3.2,3.3
					c-0.2,0.3-1.7,2.8-0.7,2.7c9.6-0.8,18.2-5.7,26.4-10.4c7.7-4.3,15.3-9,22.9-13.6c3.8-2.4,7.5-4.7,11.2-7.2l2.6-5.3
					c-6.9,6.2-14.4,11.7-22.6,16.3c-8.6,5.1-17.9,9.1-27.5,11.9c-4.7,1.3-9.6,2.2-14.5,2.4l-3.5,5.8c13.9-7.6,25.7-18.7,36.4-30.3
					c1.1-1,1.9-2.3,2.5-3.7c0.2-0.5,0.5-1.7-0.5-1.1c-14.2,10-28.7,19.4-42.8,29.4c-1.3,1-2.5,2.4-3.2,3.9c-0.2,0.6-1.2,2.4,0.1,1.8
					c10.1-5.2,20.4-10.6,30.5-15.8c10.4-5.3,21.3-10.1,30.5-17.2l1.6-4.3c-7.3,7-16.1,12.4-25.6,15.9c-4.7,1.8-9.6,3.1-14.7,4
					s-10.2,1.3-14.9-0.9l-4.2,6c18.1-5.3,35.2-12.8,50.1-24.4l1.1-3.7c-5.9,7-16,9-23.8,13.4c-9.1,5.1-16.7,15.1-28.1,14.3
					c-1.1,0-2.7,2.5-3.2,3.3c-0.2,0.3-1.7,2.7-0.7,2.7L-140.3,234.6z"/>
				<path class="st1" d="M0.1,373.4c-3.7,3.2-6.1,7.5-7.1,12.2c-0.9,4.3,0.9,9,2.8,12.8c1.9,3.6,4.5,6.8,7.7,9.3
					c3.8,3.2,8.1,6.5,13.3,7c4.5,0.4,9-1.6,11.5-5.4c2.2-3.2,3.3-7.2,3-11.1c0-4.6-0.7-9,1-13.3c2.3-5.6,7-9.5,11.1-13.6
					c18.4-18.7,35.4-38.6,50.8-59.8c15.1-20.7,28-42.7,40.7-65.1c6.4-11.1,12.6-22.4,19.1-33.5c6.6-11.4,13.5-22.6,20.5-33.7
					c6.6-10.6,12.1-22,17.9-33.1c2.9-5.6,5.9-11.1,9.4-16.4c3-4.7,6.4-10.9,11.4-13.7c2.4-1.4,4.9-2.1,7.3-3.4
					c1.6-0.9,3.2-2.1,4.5-3.3c2.8-2.5,5.3-5.5,7.5-8.7c3.7-5.6,6.7-13,3.7-19.5c-1.8-3.8-5.3-6.3-9-8.1c-5-2.6-10.6-4-15.8-6.4
					c-7.5-3.6-12.2-10.6-18.1-16.3c-7.7-7.6-16.7-14.3-27.2-17.3c-5.6-1.6-11.4-2.4-16.9-4.1c-4.8-1.6-9.2-4.1-13-7.4
					c-7.3-6.1-16-14.1-26.3-9.3c-4.2,2.3-7.6,5.7-9.5,10c-1.7,3.8-2.5,8.1-2.2,12.4c0.2,4.4,0.8,8.8,0.7,13.1
					c-0.2,4.7-1.2,9.2-3,13.5c-3.8,9.2-8.6,18-14.3,26.1c-5.1,7.8-10.9,15.3-16.2,23c-6.1,8.7-11.3,18.9-20.9,24.1
					c-8.9,4.8-19.5,6-29.3,7.9c-11.1,2.1-22.4,4.3-33.3,7.5c-18.8,5.3-35.5,15.1-51.8,25.8c-7,4.6-13.9,9.4-20.5,14.4
					c-4.4,3.4-8.5,7.1-12.7,10.8c-5.7,5.2-11.8,9.9-18.1,14.2c-5.3,3.5-11.9,7.9-18.6,7.9c-3.3,0.1-6.6-1.7-9.8-2.7
					c-3.1-1-6.9-2.6-10.2-2.5c-3.6,0.3-7,2.1-9.3,5.1c-1.3,1.5-2.3,3.2-2.8,5.1c-0.3,1.7,0.4,3.6,1.6,4.9c1.7,2.5,3.8,4.6,6.1,6.6
					c2.8,2.3,5.5,4.5,8.2,6.8c6,5.2,12.5,10.7,20,13.4c3.6,1.5,7.6,1.7,11.4,1.1c3.8-0.9,7.4-2.1,10.9-3.7
					c10-3.9,20.1-8.7,30.7-11.2c8-2,16.2-0.5,24,1.8c4.1,1.1,7.8,2.8,12,3.8c7.9,2.1,16.2,4,24.4,3.6l0.3-1.4
					c-6.5,11.2-12.6,22.8-17.9,34.7c-4,8.6-7,17.5-9,26.7c-2,8.8-3.5,17.8-6.2,26.5c-0.9,2.7-1.6,5.3-2.5,8.1
					c-1,2.3-1.5,4.8-1.5,7.3c0.3,4.1,2.7,7.9,5.2,10.9c3.7,4.5,7.9,8.5,12.7,11.8c4,2.7,8.8,5.7,13.9,5.5
					c6.8-0.4,11.3-7.3,11.5-13.6c0.2-6.8-2.5-13.2-3.3-19.9c-0.6-5,1.2-10,3.3-14.6c2.8-5.8,5.9-11.5,9-17.2c3.2-6,6.6-12.2,10-18.1
					c3-5.3,6-10.1,11.4-13.1c1.1-0.8,1.9-1.7,2.5-2.9c0.2-0.3,1-1.9-0.1-1.3c-9.3,5.2-14.1,15-19,23.9c-5.5,10-11.2,20-16.2,30.2
					c-2.3,4.3-3.8,8.9-4.3,13.8c0,2.9,0.3,6,1,8.8c0.9,3.4,1.5,6.8,2.1,10.3c0.2,1.5,0.3,3.2,0.2,4.7c0,0.7-0.1,1.4-0.3,2
					c-0.1,0.3-0.2,0.7-0.2,1c0,0.4-0.6,0.8,0,0.4c1.1-0.8-0.6,0.1-0.8,0.3c-0.6,0.3-1.3,0.6-2,0.7c-2.6,0.4-5.1,0.2-7.5-0.9
					c-5.1-2.2-9.7-5.3-13.8-9.1c-3.8-3.2-7.1-7.1-9.6-11.5c-1-1.8-1.8-3.9-2-5.9c-0.2-2.6,0.8-5,1.5-7.3c2.9-9.2,5.3-18.6,7.3-28
					c1.7-9.2,4.4-18.3,7.9-26.9c5.8-13.3,12.3-26.2,19.6-38.7c0.1-0.2,0.8-1.5,0.3-1.4c-8.4,0.3-16.8-1.6-24.8-3.9
					c-3.8-1-7.6-2.6-11.3-3.7c-7.3-2-15.3-3.5-22.7-2.1c-4.9,1.2-9.9,2.8-14.6,4.7c-5.2,1.9-10.2,3.9-15.3,6
					c-7.1,2.8-14.1,6.2-21.8,4.1c-7.7-2-14.4-7.3-20.4-12.4c-2.5-2.1-5-4.4-7.6-6.4c-2.4-1.8-4.6-3.8-6.6-6.1
					c-1.3-1.3-2.3-2.8-3.2-4.4c-0.2-0.8-0.4-1.6-0.4-2.5c-0.1-1.3,1.2,0.1-0.6,0.5c0.5-0.2,0.9-0.6,1.4-0.9c3.2-1.8,6.2-1.4,9.6-0.4
					c4,1.1,7.8,2.5,11.6,3.7c2.3,0.7,4.8,0.8,7.1,0.1c6.7-1.7,12.8-5.8,18.4-9.8c10.4-7.3,19.2-16.4,29.3-24
					c13.8-10.4,28.3-19.8,43.5-28.1c18.5-10,39-14.3,59.5-18.2c9.7-1.8,19.7-3.1,28.6-7.3c9.4-4.4,15.7-13,21.5-21.4
					C72.4,102.6,84.4,87.7,93.4,71c4.1-7.5,8.3-16,9-24.6c0.2-4.4,0-8.8-0.5-13.1c-0.3-4.2-0.5-8.8,1.1-12.6
					c1.9-4.5,8.3-5.8,12.6-5.2c4.3,0.6,8.5,3.4,12.1,6.3c3.7,3,7.1,6.4,11.3,8.9c4.7,2.8,10.3,4,15.7,5.1c5.5,1,10.8,2.7,15.8,5
					c4.6,2.3,9,5.2,13,8.5c6.2,5.1,11.3,11.3,17,17c7.7,7.7,19.5,8,27.9,14.3c5.8,4.3,6.7,11.3,3.9,17.7c-1.2,2.8-3.1,5.3-5.4,7.4
					c-1.1,1-2.2,2-3.5,2.8c-2.5,1.5-5.4,2.3-7.9,3.7c-4.5,2.6-7.8,7.1-10.7,11.3c-3.5,5-6.7,10.1-9.7,15.4
					c-6.1,10.8-11.3,21.9-17.3,32.8c-6,10.8-12.8,20.8-19,31.4c-12.8,21.5-24.8,43.4-37.3,65.1c-12.5,21.9-26.7,42.7-42.5,62.5
					c-7.9,9.7-16.1,19.2-24.6,28.3c-4.3,4.6-8.5,9.1-13,13.5c-4.3,3.9-7.8,8.5-10.6,13.5c-2,3.8-3,8.1-2.9,12.5
					c0.1,1.9,0.2,3.9,0.1,5.8c0,2-0.4,3.8-0.9,5.7c0.1-0.8,0.7-0.7-0.2-0.1c-0.5,0.3-1.1,0.6-1.5,0.7c-1.2,0.3-2.3,0.5-3.5,0.6
					c-2.6,0.1-5.1-0.5-7.4-1.9c-4.2-2.3-8-5.4-11.1-8.9c-2.5-3-4.5-6.4-5.7-10c-0.8-2.1-1.2-4.5-1.1-6.7c0.1-1.8,0.9-4.7,2.2-5.7
					c1.1-0.8,1.9-2,2.4-3.1C1.1,373,0.9,372.7,0.1,373.4L0.1,373.4z"/>
				<path class="st1" d="M51.1,291.4C50.9,291.6,51.4,291.2,51.1,291.4c-0.1,0.1-0.1,0.2-0.6,0.8c-0.7,0.9-1.7,1.7-2.5,2.5
					c-2.1,2.1-4.5,4.1-6.7,6c-4.5,3.9-9.3,7.3-14.5,10.3c-7.2,4.2-15.3,6.7-23.6,7c-2.1,0.1-4.2-0.1-6.3-0.6
					c-0.6-0.2-1.2-0.4-1.9-0.4c-0.9,0.5-1.8,1.1-2.2,2.1c-1.1,1.2-1.6,2.7-1.5,4.2c0.1,2.2,0.4,4.4,0.8,6.6c0.6,2,1.3,3.9,2.4,5.6
					c1,1.7,1.7,3.5,1.7,5.5l-0.1,0.6c-0.4,0.9-0.1,0.7,0.6-0.6c-0.6,0.2-1.2,0.4-1.9,0.7c-1.3,0.2-2.7,0-3.8-0.5
					c-2.3-1.2-4.4-2.9-6-4.9c-0.5-0.5-4.1,3.6-3.3,4.5c2.6,2.8,6.2,6.3,10.6,5.4c3.4-0.7,6.4-4.7,7.2-7.8s-0.8-6-2.2-8.7
					c-0.9-1.8-1.6-3.8-1.9-5.8c-0.2-1.1-0.2-2.2-0.4-3.4c-0.2-0.8-0.2-1.8-0.2-2.7l-1.2,2.1l0.1-0.2l-2,1.8c0.8-0.3,2.6,0.5,3.5,0.6
					c1.4,0.1,2.8,0.3,4.2,0.2c3.3-0.1,6.5-0.4,9.7-1.1c3.3-0.9,6.6-2.1,9.6-3.6c1.9-0.9,3.9-1.7,5.6-2.7
					c7.7-4.6,14.9-10.1,21.3-16.3c3.1-3,6.4-6.2,8.2-10.2c0.5-0.9,0-1.1-0.7-0.5C52.5,289.2,51.6,290.4,51.1,291.4L51.1,291.4z"/>
				<path class="st1" d="M94.7,64.3c6.7,8.3,16,14,26.4,16.2c6.9,1.4,13.9,1.6,20.9,0.9c4.1-0.4,8.2-0.6,11.3,2.5
					c3.1,3.1,4.7,7.3,5.9,11.2c1.9,6.1,2.9,12.3,6.4,17.9c7.1,11.4,19.6,17.6,31.2,23.2c1,0.5,3.9-4.1,3.3-4.5
					c-10.3-5.2-21.3-10.5-28.7-19.7c-1.8-2.4-3.4-5-4.7-7.7c-1.2-3.1-2.2-6.3-3-9.6c-1.2-4.6-2.7-9.6-5.6-13.5
					c-2.9-3.9-6.8-4.8-11.4-4.4c-6.3,0.7-12.7,0.7-19.2,0C116,75,105.5,69,98.1,59.9C97.7,59.4,93.9,63.3,94.7,64.3L94.7,64.3z"/>
				<path class="st1" d="M150.4,216.9c-4.4,4.4-9.1,8.5-13.6,12.8c-8.1,7.6-16.1,15.2-24.5,22.4c-8.9,7.7-18.1,14.9-27.7,21.7
					c-8.6,5.9-17.9,11.7-28.4,13.8c-4.1,1.1-8.4,1.3-12.7,0.5c-3.8-0.9-7.6-2.4-10.9-4.7c-6.4-4.2-12.1-10.5-14.1-18
					c-1-4.3-1.3-8.8-1.2-13.2c0.1-5,0.4-9.9,1.2-14.9c1.5-9.7,3.7-19.2,6.5-28.5c6.9-24.2,14.5-48.5,27-70.5
					c0.4-0.6,0.8-1.5-0.1-1.3c-0.9,0.2-2,2.2-2.5,2.9c-11.5,20.4-19.1,42.7-25.7,65c-5.5,18.8-11.3,38.6-9.6,58.5
					c0.2,4,1.2,7.8,2.9,11.4c1.9,3.5,4.5,6.7,7.5,9.5c5.6,5.1,13.5,9.3,21.4,8.8c10.5-0.4,20.2-5,29-10.4
					c9.9-6.3,19.2-13.2,28.1-20.7c15.1-12.4,29.4-26,43.6-39.4c0.9-0.9,1.9-1.8,2.8-2.8c0.6-0.7,2.1-2.2,2-3.2
					C151.5,215.6,150.8,216.4,150.4,216.9L150.4,216.9z"/>
				<path class="st1" d="M-40.9,158.3c-5.8-5.9-13.9-10.1-21.4-13.3c-20.1-8.4-42.5-9.4-63.8-5.6c-25.8,4.4-51.7,14.2-72.5,30.2
					c-14.9,11.3-26.8,26.1-34.7,43.1c-3.5,7.7-15.3,8.7-22.2,5.4c-7.8-3.6-10.5-12.2-9.4-20.3c0.9-5.8,2.5-11.4,4.8-16.9
					c3-7.4,6.5-14.5,10.7-21.3c9.6-16.3,22.5-30.4,37.9-41.5c8.3-6,17.3-10.5,27-13.7c9.5-3.1,19.5-4.2,29.4-4.8
					c17.7-1.1,35.3,0.2,52.1,5.9c20.3,7,38.1,19.5,54.1,33.7c5.1,4.5,9.9,9.3,14.7,14.1c0.5,0.5,4.1-3.7,3.3-4.5
					c-16.8-17.2-35.5-33.1-57.2-43.2c-16.5-7.5-34.3-11.3-52.3-11c-9.5,0-18.9,0.7-28.3,2.2c-10.3,1.7-20.2,5.2-29.2,10.2
					c-17.8,9.7-32.7,24.3-44.6,40.5c-9.8,13.3-18.4,28.2-23.3,44.2c-1.6,5.1-3.1,10.7-2.6,16.1c0.3,5,2.5,9.7,6.5,12.9
					c3.5,2.6,7.8,4,12.2,3.8c4.4-0.2,8.7-1.7,12.2-4.5c4-3.2,6.2-7.4,8.5-11.9c3.7-7.5,8.4-14.5,14-20.7
					c15.8-17.6,37.3-29.4,59.6-36.6c24.8-8,51.7-12.1,77.2-5.4c11.8,3.1,23.7,8.3,32.9,16.5c0.5,0.4,0.9,0.8,1.3,1.2
					C-43.8,163.1-40.1,159.1-40.9,158.3L-40.9,158.3z"/>
				<path class="st1" d="M184.5,94.3c-1.4,0.1-2.7-1-2.9-2.4c0-0.4,0-0.6,0.1-0.9c0.1-0.8,0.5-1.6,1-2.4c0.5-1.2,1.4-2.1,2.5-2.5
					c0.6-0.1,1.1-0.1,1.6,0c1,0.1,2,0.8,2.4,1.8c0.3,1.3,0,2.7-0.9,3.7C187.5,93.3,186.9,94.5,184.5,94.3z"/>
				<path class="st1" d="M135.4,51.1c0.8,0,1.6,0.4,2.1,1.1c0.6,0.7,0.7,1.6,0.5,2.5c-0.2,0.8-0.6,1.6-1.1,2.3
					c-0.5,1.2-1.4,2-2.6,2.4c-0.6,0.1-1.1,0.1-1.6,0c-1-0.1-2-0.8-2.4-1.8C129.5,55,132.6,51,135.4,51.1z"/>
				<path class="st1" d="M154,83c-2.7-1.8-3.4-5.3-3.6-8.6c-0.1-0.9-0.1-1.9,0.2-2.8c0.2-0.9,1.1-1.5,1.9-1.7c0.5,0,0.9,0,1.4,0.1
					c3.7,1.1,11.5,5.5,12,9.9C166.4,85.4,156.7,85,154,83z"/>
				<path class="st1" d="M229.6,81.4c-1.5,0.2-2.9,0.8-4.1,1.7c-1.4,0.8-2.8,1.7-4.1,2.9c-2.7,2.2-4.9,5-6.3,8.1
					c-2.4,4.9-2.3,10.6,0.5,15.3c0.3,0.5,2-1.7,2.1-1.8c0.4-0.5,1.5-2,1.2-2.6c-2.2-3.7-2.7-8-1.3-11.9c0.4-1.5,1.3-2.8,2.6-3.6
					c1.1-0.8,2.2-1.5,3.4-2.1c0.9-0.7,2.1-1.3,3.4-1.4c0.8,0,2-2,2.4-2.5c0.2-0.2,1.3-2,0.5-2L229.6,81.4z"/>
				<path class="st1" d="M117.6,20.8c0.7,0.9,0.6,2.2,0.5,3.4c0.1,1.3,0.1,2.5-0.1,3.7c0,2.1-0.5,4.1-1.6,5.8
					c-2.1,2.8-6.6,4.2-10.1,4.2c-0.8,0-2,1.8-2.4,2.5c-0.2,0.2-1.3,2-0.6,2c6.1,0,11-3.8,14.4-8.5c1.8-2.4,3-5.3,3.5-8.2
					c0.3-1.6,0.3-3.1,0.2-4.8c-0.1-1.4,0-3.2-0.8-4.3C120.7,16,116.8,19.7,117.6,20.8L117.6,20.8z"/>
				<path class="st1" d="M154,81.4c-2,2.3-3.8,4.9-5.4,7.6c-1.2,2.2-2.4,4.9-1.7,7.5c0.7,2,2,3.7,3.9,4.7c1.6,1.4,3.8,2,5.9,1.7
					c0.5-0.2,0.8-0.5,1.1-0.8c0.5-0.6,1-1.2,1.3-1.7c0.1-0.2,1.2-2.2,0.5-2c-1.9,0.3-3.7-0.2-5.1-1.4c-1.6-1-3-2.3-3.9-3.9
					c-0.7-1.8-0.6-3.7,0.3-5.4c0.1-0.2,0.1-0.3,0.2-0.6s0.4-0.7,0.2-0.3c0.1-0.2,0.4-0.5,0.5-0.7c0.1-0.2,0.2-0.2,0,0l0.2-0.3
					c0.2-0.2,0.4-0.5,0.6-0.8c0.2-0.2,0.5-0.7,0.2-0.2l1.2-1.5c0.5-0.6,1-1.2,1.3-1.7c0.1-0.2,0.6-0.9,0.5-1.3
					C155.5,79.6,154.1,81.4,154,81.4L154,81.4z"/>
				<path class="st1" d="M148,90.3c0.2-0.3,0.4-0.6,0.6-0.8c0.1-0.2,0.4-0.5,0.5-0.7c0.1-0.1,0.1-0.1,0,0l0-0.1
					c-0.2,0.1-0.5,0.2-0.7,0.3c-1.9,0.9-4,0.6-5.7-0.6c-1.2-0.7-2.2-1.8-3-2.8c-0.7-0.8-1-2-0.8-3.2c0.1-0.2,0.1-0.5-0.2-0.5
					c-0.4,0-0.9,0.7-1.1,0.8c-0.9,0.9-1.7,2-2.2,3.2c-0.5,1.4-0.2,3,0.9,4.2c1,1.5,2.4,2.7,4.2,3.4c1.5,0.6,3.1,0.6,4.7,0.1
					c2.2-1,4.1-2.9,5.2-5.1c0.2-0.2,1-1.9-0.1-1.3C149.5,88.1,148.5,89,148,90.3L148,90.3z"/>
				<path class="st1" d="M3.4,373.3c5.5-0.9,9.4-6.6,11.4-11.4c1.5-3.5,3-7,4.6-10.3c5.6-12.2,11.7-23.9,18.6-35.4
					c3.4-5.9,7.4-11.5,12-16.5c0.6-0.7,2.1-2.2,2-3.2c0-1.1-0.8-0.2-1.3,0.3c-9.1,9.4-15.8,21.3-22.1,32.7
					c-5.5,10.2-10.7,20.6-15.4,31.3c-0.6,1.4-1.2,2.8-1.7,4.2c-1,2.1-3,3.6-5.3,3.8c-0.9,0.2-1.9,1.7-2.4,2.5
					C3.8,371.4,2.7,373.4,3.4,373.3L3.4,373.3z"/>
				<path class="st1" d="M-20.5,252.3c7.8-12,15.7-23.9,24.1-35.6c2.7-3.7,5.5-7.5,8.5-11c0.4-0.6,2-2.2,1.7-3
					c-0.2-0.8-1.6,0.9-1.8,1.1C5.9,211,0.6,218.7-4.8,226.5c-5,7.2-9.8,14.5-14.6,21.7c-1,1.5-1.9,3-3,4.5c-0.1,0.2-1.3,2-0.5,2
					S-20.8,252.7-20.5,252.3L-20.5,252.3z"/>
				<path class="st1" d="M157.8,176.4c-13.8,5.8-30,8.4-44.4,3.3c-8-2.9-14-8.7-19.2-15.4C89.1,157.5,85,150,82.1,142
					c-3.5-8.9-5.7-18.3-6.5-27.9c-0.1-0.8-1.7,1-1.8,1.1c-0.5,0.7-1.8,2-1.7,3c1.4,17.2,7.2,33.6,16.9,47.8
					c4.8,6.8,10.8,13.6,18.6,17.1c7,3,14.7,4.3,22.3,3.7c8.7-0.6,17.1-2.6,25.2-5.9c1.1-0.6,1.9-1.5,2.4-2.5
					C157.5,178.3,158.6,176.2,157.8,176.4L157.8,176.4z"/>
				<path class="st1" d="M124.2,157.9c0,0.9-0.1,1.9-0.3,2.8l0-0.4c-0.1,1-0.5,2.1-0.9,3.1c-0.1,0.2-0.1,0.6,0.2,0.5
					c0.4,0,0.8-0.6,1.1-0.8c0.9-0.9,1.7-2,2.2-3.2c0.7-2.1,1.1-4.2,1-6.4c0-0.4-0.5-0.1-0.6,0c-0.5,0.3-0.8,0.7-1.2,1.2
					c-0.5,0.6-1,1.2-1.3,1.7c-0.2,0.3-0.4,0.8-0.5,1.3L124.2,157.9z"/>
				<path class="st1" d="M118.5,156.8l-0.2,0.8l-0.1,0.1c0.1-0.1,0.1-0.2,0.1-0.1c-0.1,0.1-0.1,0.2-0.1,0.3c-0.2,0.6-0.5,1-0.7,1.5
					c-0.2,0.5,0.2-0.5,0,0c-0.1,0.1-0.1,0.2-0.2,0.3l-0.4,0.7c-0.2,0.3,0.4-0.5,0.1-0.1c-0.1,0.1-0.1,0.2-0.2,0.3
					c-0.1,0.1-0.2,0.2-0.2,0.3c-0.4,0.5,0.4-0.6,0.1-0.1c-0.4,0.6-0.7,1-1.1,1.7c-0.1,0.1-0.4,0.7-0.1,0.9c0.2,0.2,0.7-0.3,0.8-0.5
					c0.5-0.5,0.9-0.9,1.3-1.5c1.9-2.7,3.5-5.6,4.6-8.7c0.1-0.2,0.1-0.6-0.2-0.5c-0.5,0.2-0.8,0.5-1.1,0.8
					C119.6,154.5,118.9,155.5,118.5,156.8L118.5,156.8z"/>
				<path class="st1" d="M113.1,148.6c-2.1,1.8-4.1,3.9-5.9,6.2c-0.5,0.6-1,1.2-1.3,1.7c-0.1,0.2-0.5,0.9-0.5,1.3
					c0.1,0.7,1.7-1,1.8-1.1c0.4-0.5,0.7-0.9,1.1-1.4c0.1-0.1,0.2-0.2,0.2-0.3l-0.2,0.3c0.1-0.1,0.1-0.1,0.1-0.2
					c0.1-0.2,0.4-0.5,0.6-0.6s0.4-0.5,0.6-0.6c0.1-0.1,0.1-0.2,0.2-0.3l0.1-0.2l-0.1,0.2c0-0.1,0.1-0.2,0.2-0.3
					c0.1-0.1,0.2-0.2,0.4-0.3c0.2-0.2,0.5-0.5,0.7-0.7c0.5-0.5,0.9-0.9,1.3-1.5c0.4-0.6,0.7-1,1.1-1.7c0.1-0.1,0.4-0.7,0.1-0.9
					c-0.2-0.1-0.7,0.3-0.8,0.5L113.1,148.6z"/>
				<path class="st1" d="M110.3,142.3c-2.1,0.2-4,1.2-5.4,2.8c-0.5,0.6-1,1.2-1.3,1.7c-0.2,0.2-0.4,0.6-0.5,0.8
					c-0.1,0.2-0.2,0.5-0.2,0.7c0,0.2-0.1,0.6,0.2,0.5l0.2-0.1c0.2-0.2,0.6-0.5,0.8-0.7l0.1-0.1c0.1-0.2-0.2,0.3-0.2,0.2
					c0-0.1,0.1-0.1,0.1-0.2c0-0.1,0.1-0.1,0.1-0.2c0.1-0.2-0.2,0.1-0.2,0.1l0.1-0.1c0.4-0.2,0.6-0.5,0.9-0.6l-0.2,0.1
					c0.8-0.3,1.6-0.6,2.5-0.7c0.1-0.1,0.4-0.1,0.5-0.2c0.2-0.1,0.4-0.3,0.6-0.6c0.5-0.6,1-1.2,1.3-1.7c0.4-0.5,0.6-0.9,0.7-1.5
					l0-0.4C110.6,142.3,110.5,142.2,110.3,142.3L110.3,142.3z"/>
			</g>
		</g>
	</g>
</g>
</svg>
