<svg xmlns="http://www.w3.org/2000/svg" viewBox="0 0 94.4 50"><defs><style>.cls-1{fill:#c8d6cb;}.cls-2{fill:#80a383;}.cls-3{fill:#597e65;}</style></defs><title>資產 1</title><g id="圖層_2" data-name="圖層 2"><g id="圖層_1-2" data-name="圖層 1"><path class="cls-1" d="M79.81,20.84a1.36,1.36,0,0,1-1.6.73h0c-.86-.41-1.08-2-2-1.82-1.56,2.34-.89,5.48-1.62,8.19a4,4,0,0,1-1.06,1.93,2,2,0,0,1-2,.42,2.59,2.59,0,0,1-1.26-2A8.13,8.13,0,0,0,69.63,26a1.62,1.62,0,0,0-2-.95c-.45.21-.89.72-1.34.51-.3-.14-.37-.53-.42-.84q-.36-2.73-.71-5.46c-.06-.39-.22-.9-.61-.92a1,1,0,0,0-.53.23l-4.46,3.31a4,4,0,0,1-1.57.84A1.39,1.39,0,0,1,56.48,22a2,2,0,0,1,.18-1.47c.28-.75.58-1.49.87-2.24h0s0-.06.06-.11l1-1.52c.5-.73,1-1.46,1.49-2.15l.5-.67A49,49,0,0,1,63.67,10l.45-.49c.22-.23.43-.46.64-.65a4,4,0,0,1,.42-.41l.2-.18c.2-.16.38-.33.56-.46l.45-.35a6.69,6.69,0,0,1,1.09-.63,3,3,0,0,1,.92-.24C69.82,6.5,71.74,8,73.92,10.5a80.59,80.59,0,0,1,6.17,8.31V19A4,4,0,0,1,79.81,20.84Z"/><path class="cls-2" d="M69.2,43.44H94.4S87.21,29.55,80.09,18.81V19a4,4,0,0,1-.28,1.89,1.36,1.36,0,0,1-1.6.73h0c-.86-.41-1.08-2-2-1.82-1.56,2.34-.89,5.48-1.62,8.19a4,4,0,0,1-1.06,1.93,2,2,0,0,1-2,.42,2.59,2.59,0,0,1-1.26-2A8.13,8.13,0,0,0,69.63,26a1.62,1.62,0,0,0-2-.95c-.45.21-.89.72-1.34.51-.3-.14-.37-.53-.42-.84q-.36-2.73-.71-5.46c-.06-.39-.22-.9-.61-.92a1,1,0,0,0-.53.23l-4.46,3.31a4,4,0,0,1-1.57.84A1.39,1.39,0,0,1,56.48,22a2,2,0,0,1,.18-1.47c.28-.75.58-1.49.87-2.24-.3.48-.62,1-.93,1.47-.17.26-.33.53-.5.8l-.5.82c4.49,7.2,8.69,14.58,12.68,22.06Z"/><path class="cls-3" d="M77.64,29a1,1,0,0,0-.13,2A1,1,0,0,0,77.64,29Z"/><path class="cls-3" d="M84.3,27.53a.91.91,0,0,0-.23-.46l-.19-.17a1,1,0,0,0-.5-.17h-.19a.89.89,0,0,0-.39.06.73.73,0,0,0-.33.19.7.7,0,0,0-.23.31.73.73,0,0,0-.11.38l0,.27a.91.91,0,0,0,.23.46l.19.17a1,1,0,0,0,.5.17h.19a.89.89,0,0,0,.39-.06.84.84,0,0,0,.33-.19.76.76,0,0,0,.23-.31.73.73,0,0,0,.11-.38Z"/><path class="cls-3" d="M83.3,31a1,1,0,0,0-.12,2A1,1,0,0,0,83.3,31Z"/><path class="cls-1" d="M49.41,19.37a1.83,1.83,0,0,1-2.18,1h0c-1.17-.55-1.47-2.71-2.76-2.46-2.12,3.18-1.2,7.44-2.2,11.11a5.29,5.29,0,0,1-1.42,2.6,2.66,2.66,0,0,1-2.78.58,3.52,3.52,0,0,1-1.71-2.67,11.05,11.05,0,0,0-.73-3.2A2.23,2.23,0,0,0,32.92,25c-.61.29-1.21,1-1.82.69-.4-.18-.51-.71-.57-1.14-.32-2.46-.65-4.93-1-7.4-.08-.53-.3-1.22-.83-1.24a1.3,1.3,0,0,0-.71.31L22,20.71a5.16,5.16,0,0,1-2.12,1.14,1.88,1.88,0,0,1-2.08-.92,2.74,2.74,0,0,1,.25-2c.39-1,.79-2,1.18-3h0a.87.87,0,0,0,.08-.14l1.37-2.06c.67-1,1.34-2,2-2.92.22-.3.44-.61.67-.91a66.73,66.73,0,0,1,4.16-5.24c.2-.23.42-.47.61-.67s.59-.61.87-.88a5.86,5.86,0,0,1,.57-.55l.27-.24c.26-.23.51-.45.75-.64l.62-.47A8.91,8.91,0,0,1,32.69.33,3.75,3.75,0,0,1,33.94,0c1.91-.08,4.52,2,7.48,5.34a108.79,108.79,0,0,1,8.35,11.27v.19A5.57,5.57,0,0,1,49.41,19.37Z"/><path class="cls-2" d="M49.77,16.61v.19a5.57,5.57,0,0,1-.36,2.57,1.83,1.83,0,0,1-2.18,1h0c-1.17-.55-1.47-2.71-2.76-2.46-2.12,3.18-1.2,7.44-2.2,11.11a5.29,5.29,0,0,1-1.42,2.6,2.66,2.66,0,0,1-2.78.58,3.52,3.52,0,0,1-1.71-2.67,11.05,11.05,0,0,0-.73-3.2A2.23,2.23,0,0,0,32.92,25c-.61.29-1.21,1-1.82.69-.4-.18-.51-.71-.57-1.14-.32-2.46-.65-4.93-1-7.4-.08-.53-.3-1.22-.83-1.24a1.3,1.3,0,0,0-.71.31L22,20.71a5.16,5.16,0,0,1-2.12,1.14,1.88,1.88,0,0,1-2.08-.92,2.74,2.74,0,0,1,.25-2c.39-1,.79-2,1.18-3l-1.26,2c-.23.34-.45.71-.68,1.08-1.14,1.79-2.26,3.65-3.36,5.5-.28.49-.57,1-.86,1.47-.85,1.45-1.69,2.91-2.5,4.34-.37.65-.74,1.3-1.08,1.94s-.7,1.24-1,1.83c-2.22,4-4.16,7.64-5.61,10.42-.22.4-.4.79-.59,1.16C.82,48.35,0,50,0,50H69.18S59.43,31.17,49.77,16.61Z"/><path class="cls-3" d="M48.14,25.71a.84.84,0,0,0-.29-.27.75.75,0,0,0-.38-.13.85.85,0,0,0-.42,0l-.26.11a1,1,0,0,0-.38.37l-.11.25a1.14,1.14,0,0,0,0,.55l.05.19a.77.77,0,0,0,.19.37.84.84,0,0,0,.29.27.75.75,0,0,0,.38.13.85.85,0,0,0,.42,0l.26-.11a1.12,1.12,0,0,0,.38-.37l.11-.25a1.14,1.14,0,0,0,0-.55l-.05-.19A.77.77,0,0,0,48.14,25.71Z"/><path class="cls-3" d="M53.63,31.55a.86.86,0,0,0-.3-.27l-.24-.11a1,1,0,0,0-.55,0l-.26.1a1.18,1.18,0,0,0-.39.38l-.14.24a1.08,1.08,0,0,0-.11.79.85.85,0,0,0,.18.37.71.71,0,0,0,.3.27l.24.11a1,1,0,0,0,.55,0l.26-.1a1.06,1.06,0,0,0,.38-.38l.15-.23a.89.89,0,0,0,.12-.39.72.72,0,0,0,0-.41A.85.85,0,0,0,53.63,31.55Z"/><path class="cls-3" d="M46.78,30.67a.78.78,0,0,0-.29-.28.85.85,0,0,0-.38-.12.72.72,0,0,0-.41,0l-.26.1a1.09,1.09,0,0,0-.39.38L45,31a.94.94,0,0,0,0,.55l.09.38a.77.77,0,0,0,.19.37,1,1,0,0,0,.67.4.85.85,0,0,0,.42,0l.26-.1a1.15,1.15,0,0,0,.38-.38l.11-.25a1.1,1.1,0,0,0,0-.54L47,31A.73.73,0,0,0,46.78,30.67Z"/><path class="cls-3" d="M44.68,37.42a.81.81,0,0,0-.3-.28,1.23,1.23,0,0,0-.79-.11l-.26.1a1.09,1.09,0,0,0-.39.38l-.1.24a1,1,0,0,0,0,.55l.09.38a.87.87,0,0,0,.19.37.84.84,0,0,0,.29.27.79.79,0,0,0,.38.13.85.85,0,0,0,.42,0l.26-.11a1,1,0,0,0,.38-.37l.11-.25a1.14,1.14,0,0,0,0-.55l-.1-.37A.8.8,0,0,0,44.68,37.42Z"/><path class="cls-3" d="M50.43,37.11a1,1,0,0,0,.51,2A1,1,0,0,0,50.43,37.11Z"/><path class="cls-3" d="M58.68,36.49a.84.84,0,0,0-.29-.27.75.75,0,0,0-.38-.13.85.85,0,0,0-.42,0l-.26.11a1,1,0,0,0-.38.37l-.11.25a1.14,1.14,0,0,0,0,.55l.05.18a.69.69,0,0,0,.19.37.78.78,0,0,0,.29.28,1.17,1.17,0,0,0,.8.12l.26-.11a1.12,1.12,0,0,0,.38-.37l.11-.25a1.14,1.14,0,0,0,0-.55l-.05-.19A.77.77,0,0,0,58.68,36.49Z"/><path class="cls-3" d="M62.7,40.49a.84.84,0,0,0-.29-.27.79.79,0,0,0-.38-.13.85.85,0,0,0-.42,0l-.26.11a1,1,0,0,0-.38.37l-.11.25a1.14,1.14,0,0,0,0,.55l0,.19a.85.85,0,0,0,.18.37,1,1,0,0,0,.3.27.75.75,0,0,0,.38.13.81.81,0,0,0,.41,0l.26-.11a1.15,1.15,0,0,0,.39-.37l.1-.25a.94.94,0,0,0,0-.55l0-.19A.87.87,0,0,0,62.7,40.49Z"/></g></g></svg>