<?xml version="1.0" encoding="utf-8"?>
<!-- Generator: Adobe Illustrator 24.2.3, SVG Export Plug-In . SVG Version: 6.00 Build 0)  -->
<svg version="1.1" id="圖層_1" xmlns="http://www.w3.org/2000/svg" xmlns:xlink="http://www.w3.org/1999/xlink" x="0px" y="0px"
	 viewBox="0 0 198 50" style="enable-background:new 0 0 198 50;" xml:space="preserve">
<style type="text/css">
	.st0{fill:#E2E1D1;}
	.st1{fill:#D2DDD3;}
	.st2{fill:#C8D6CB;}
	.st3{fill:#80A383;}
	.st4{fill:#597E65;}
</style>
<g id="圖層_2_4_">
	<g id="圖層_1-2_3_">
		<path class="st0" d="M118.8,21.4c-0.2,0.4-0.6,0.5-1,0.4l0,0c-0.5-0.2-0.7-1.2-1.2-1.1c-1,1.4-0.5,3.3-1,4.9
			c-0.1,0.4-0.3,0.8-0.7,1.1c-0.3,0.3-0.8,0.4-1.2,0.2c-0.4-0.2-0.7-0.7-0.8-1.2s-0.2-1-0.4-1.4c-0.2-0.5-0.7-0.7-1.2-0.6
			c-0.2,0.1-0.5,0.4-0.8,0.3c-0.2-0.1-0.2-0.3-0.2-0.5c-0.1-1.1-0.3-2.2-0.4-3.3c-0.1-0.2-0.1-0.5-0.4-0.5c-0.1,0-0.2,0.1-0.3,0.1
			l-2.7,2c-0.3,0.2-0.6,0.4-1,0.5s-0.7-0.1-0.9-0.4c-0.1-0.3-0.1-0.6,0.1-0.9c0.2-0.5,0.4-0.9,0.5-1.3l0,0c0,0,0-0.1,0.1-0.1
			l0.6-0.9c0.3-0.4,0.6-0.9,0.9-1.3l0.3-0.4c0.6-0.8,1.2-1.6,1.9-2.3l0.2-0.3c0.1-0.1,0.2-0.3,0.4-0.4c0.1-0.1,0.2-0.2,0.2-0.2
			l0.1-0.1c0.1-0.1,0.2-0.2,0.4-0.3l0.2-0.2c0.2-0.1,0.4-0.3,0.7-0.4c0.2-0.1,0.4-0.1,0.5-0.1c0.8-0.1,2,0.8,3.3,2.3
			c1.3,1.6,2.6,3.2,3.7,5v0.1C119,20.7,118.9,21.1,118.8,21.4z"/>
		<path class="st1" d="M112.4,35h15.1c0,0-4.3-8.3-8.6-14.8v0.1c0.1,0.4,0,0.8-0.2,1.1c-0.2,0.4-0.6,0.5-1,0.4l0,0
			c-0.5-0.2-0.7-1.2-1.2-1.1c-1,1.4-0.5,3.3-1,4.9c-0.1,0.4-0.3,0.8-0.7,1.1c-0.3,0.3-0.8,0.4-1.2,0.2c-0.4-0.2-0.7-0.7-0.8-1.2
			c-0.1-0.5-0.2-1-0.4-1.4c-0.2-0.5-0.7-0.7-1.2-0.6c-0.2,0.1-0.5,0.4-0.8,0.3c-0.2-0.1-0.2-0.3-0.2-0.5c-0.1-1.1-0.3-2.2-0.4-3.3
			c-0.1-0.2-0.1-0.5-0.4-0.5c-0.1,0-0.2,0.1-0.3,0.1l-2.7,2c-0.3,0.2-0.6,0.4-1,0.5s-0.7-0.1-0.9-0.4c-0.1-0.3-0.1-0.6,0.1-0.9
			c0.2-0.5,0.4-0.9,0.5-1.3c-0.2,0.3-0.4,0.6-0.5,0.9c-0.1,0.2-0.2,0.3-0.3,0.5l-0.3,0.5c2.7,4.3,5.2,8.8,7.6,13.3
			C112,35,112.4,35,112.4,35z"/>
		<path class="st0" d="M117.5,26.3c-0.4,0-0.6,0.2-0.7,0.5c0,0.4,0.2,0.6,0.5,0.7s0.6-0.2,0.7-0.5C118.1,26.6,117.9,26.3,117.5,26.3
			z"/>
		<path class="st0" d="M121.5,25.4c0-0.1-0.1-0.2-0.1-0.3l-0.1-0.1c-0.1-0.1-0.2-0.1-0.3-0.1h-0.1c-0.1,0-0.2,0-0.2,0.1
			c-0.1,0-0.1,0.1-0.2,0.1c-0.1,0.1-0.1,0.1-0.1,0.2c-0.1,0.1-0.1,0.1-0.1,0.2v0.2c0,0.1,0.1,0.2,0.1,0.3l0.1,0.1
			c0.1,0.1,0.2,0.1,0.3,0.1h0.1c0.1,0,0.2,0,0.2-0.1c0.1,0,0.1-0.1,0.2-0.1s0.1-0.1,0.1-0.2c0.1-0.1,0.1-0.1,0.1-0.2V25.4z"/>
		<path class="st0" d="M120.9,27.5c-0.4,0-0.6,0.2-0.7,0.5c0,0.4,0.2,0.6,0.5,0.7l0,0c0.4,0,0.6-0.2,0.7-0.5
			C121.5,27.8,121.3,27.5,120.9,27.5z"/>
		<path class="st0" d="M100.6,20.5c-0.2,0.5-0.8,0.8-1.3,0.6l0,0c-0.7-0.3-0.9-1.6-1.7-1.5c-1.3,1.9-0.7,4.4-1.3,6.7
			c-0.1,0.6-0.4,1.1-0.8,1.6c-0.4,0.4-1.1,0.5-1.7,0.4c-0.6-0.4-1-1-1-1.6c-0.1-0.7-0.2-1.3-0.4-1.9c-0.2-0.7-1-1-1.6-0.8
			c-0.4,0.2-0.7,0.6-1.1,0.4c-0.2-0.1-0.3-0.4-0.4-0.7c-0.2-1.5-0.4-2.9-0.6-4.4c-0.1-0.3-0.2-0.7-0.5-0.7c-0.2,0-0.3,0.1-0.4,0.2
			l-3.6,2.7c-0.4,0.3-0.8,0.5-1.3,0.7c-0.5,0.1-1-0.1-1.3-0.5c-0.1-0.4-0.1-0.8,0.1-1.2c0.2-0.6,0.5-1.2,0.7-1.8l0,0l0.1-0.1
			l0.8-1.3c0.4-0.6,0.8-1.2,1.2-1.7c0.1-0.2,0.2-0.4,0.4-0.5c0.8-1.1,1.6-2.2,2.5-3.1c0.1-0.1,0.2-0.3,0.4-0.4
			c0.1-0.1,0.4-0.4,0.5-0.5s0.2-0.2,0.4-0.3l0.2-0.1c0.2-0.1,0.3-0.3,0.5-0.4l0.4-0.3c0.3-0.2,0.6-0.4,0.9-0.5
			c0.1-0.2,0.4-0.3,0.6-0.3c1.1-0.1,2.7,1.2,4.5,3.2c1.8,2.2,3.5,4.4,5,6.8V19C100.9,19.5,100.7,20.1,100.6,20.5z"/>
		<path class="st1" d="M100.8,18.9V19c0.1,0.5,0,1.1-0.2,1.6s-0.8,0.8-1.3,0.6l0,0c-0.7-0.3-0.9-1.6-1.7-1.5
			c-1.3,1.9-0.7,4.4-1.3,6.7c-0.1,0.6-0.4,1.1-0.8,1.6c-0.4,0.4-1.1,0.5-1.7,0.4c-0.6-0.4-1-1-1-1.6c-0.1-0.7-0.2-1.3-0.4-1.9
			c-0.2-0.7-1-1-1.6-0.8c-0.4,0.2-0.7,0.6-1.1,0.4c-0.2-0.1-0.3-0.4-0.4-0.7c-0.2-1.5-0.4-2.9-0.6-4.4c-0.1-0.3-0.2-0.7-0.5-0.7
			c-0.2,0-0.3,0.1-0.4,0.2l-3.6,2.7c-0.4,0.3-0.8,0.5-1.3,0.7c-0.5,0.1-1-0.1-1.3-0.5c-0.1-0.4-0.1-0.8,0.1-1.2
			c0.2-0.6,0.5-1.2,0.7-1.8L81.6,20c-0.1,0.2-0.3,0.4-0.4,0.7c-0.7,1.1-1.4,2.2-2,3.3c-0.2,0.3-0.4,0.6-0.5,0.9
			c-0.5,0.9-1,1.7-1.5,2.6c-0.2,0.4-0.4,0.8-0.7,1.1c-0.2,0.4-0.4,0.7-0.6,1.1c-1.3,2.4-2.5,4.6-3.4,6.2c-0.1,0.2-0.2,0.5-0.4,0.7
			c-0.8,1.6-1.3,2.6-1.3,2.6h41.6C112.4,38.9,106.6,27.6,100.8,18.9z"/>
		<path class="st0" d="M99.8,24.3c-0.1-0.1-0.1-0.1-0.2-0.2S99.5,24,99.4,24s-0.2,0-0.2,0L99,24.1c-0.1,0.1-0.2,0.1-0.2,0.2v0.1
			c0,0.1,0,0.2,0,0.3v0.1c0,0.1,0.1,0.2,0.1,0.2c0.1,0.1,0.1,0.1,0.2,0.2s0.1,0.1,0.2,0.1s0.2,0,0.2,0l0.2-0.1
			c0.1-0.1,0.2-0.1,0.2-0.2l0.1-0.1c0-0.1,0-0.2,0-0.3v-0.1C99.9,24.5,99.8,24.4,99.8,24.3z"/>
		<path class="st0" d="M103.1,27.8c-0.1-0.1-0.1-0.1-0.2-0.2l-0.1-0.1c-0.1-0.1-0.2-0.1-0.3,0l-0.2,0.1c-0.1,0.1-0.2,0.1-0.2,0.2
			l-0.1,0.1c-0.1,0.1-0.1,0.3-0.1,0.5c0,0.1,0.1,0.2,0.1,0.2c0.1,0.1,0.1,0.1,0.2,0.2l0.1,0.1c0.1,0.1,0.2,0.1,0.3,0l0.2-0.1
			c0.1-0.1,0.2-0.1,0.2-0.2l0.1-0.1c0.1-0.1,0.1-0.2,0.1-0.2c0-0.1,0-0.2,0-0.2C103.2,28,103.1,27.9,103.1,27.8z"/>
		<path class="st0" d="M99,27.3c-0.1-0.1-0.1-0.1-0.2-0.2S98.7,27,98.6,27s-0.2,0-0.2,0l-0.2,0.1c-0.1,0.1-0.2,0.1-0.2,0.2v0.2
			c-0.1,0.1-0.1,0.2,0,0.3l0.1,0.2c0,0.1,0.1,0.2,0.1,0.2c0.1,0.1,0.2,0.2,0.4,0.2c0.1,0,0.2,0,0.2,0l0.2-0.1
			c0.1-0.1,0.2-0.1,0.2-0.2l0.1-0.1c0-0.1,0-0.2,0-0.3l-0.1-0.4C99.1,27.5,99.1,27.4,99,27.3z"/>
		<path class="st0" d="M97.7,31.4c-0.1-0.1-0.1-0.1-0.2-0.2c-0.2-0.1-0.3-0.1-0.5-0.1l-0.2,0.1c-0.1,0.1-0.2,0.1-0.2,0.2l-0.1,0.1
			c-0.1,0.1-0.1,0.2,0,0.3l0.1,0.2c0,0.1,0.1,0.2,0.1,0.2c0.1,0.1,0.1,0.1,0.2,0.2c0.1,0.1,0.1,0.1,0.2,0.1s0.2,0,0.2,0l0.2-0.1
			c0.1-0.1,0.2-0.1,0.2-0.2l0.1-0.1c0-0.1,0-0.2,0-0.3l-0.1-0.2C97.8,31.5,97.8,31.4,97.7,31.4z"/>
		<path class="st0" d="M101.2,31.2c-0.4,0.1-0.5,0.4-0.4,0.8c0.1,0.4,0.4,0.5,0.8,0.4s0.5-0.4,0.4-0.8
			C101.8,31.3,101.5,31.1,101.2,31.2z"/>
		<path class="st0" d="M106.1,30.8c-0.1-0.1-0.1-0.1-0.2-0.2s-0.1-0.1-0.2-0.1s-0.2,0-0.2,0l-0.2,0.1c-0.1,0.1-0.2,0.1-0.2,0.2
			l-0.1,0.1c0,0.1,0,0.2,0,0.3v0.1c0,0.1,0.1,0.2,0.1,0.2c0.1,0.1,0.1,0.1,0.2,0.2s0.3,0.1,0.5,0.1l0.2-0.1c0.1-0.1,0.2-0.1,0.2-0.2
			l0.1-0.1c0-0.1,0-0.2,0-0.3V31C106.2,30.9,106.2,30.9,106.1,30.8z"/>
		<path class="st0" d="M108.5,33.2c-0.1-0.1-0.1-0.1-0.2-0.2c-0.1-0.1-0.1-0.1-0.2-0.1s-0.2,0-0.2,0l-0.2,0.1
			c-0.1,0.1-0.2,0.1-0.2,0.2l-0.1,0.1c0,0.1,0,0.2,0,0.3v0.1c0,0.1,0.1,0.2,0.1,0.2c0.1,0.1,0.1,0.1,0.2,0.2
			c0.1,0.1,0.1,0.1,0.2,0.1s0.2,0,0.2,0l0.2-0.1c0.1-0.1,0.2-0.1,0.2-0.2l0.1-0.1c0.1-0.1,0.1-0.2,0-0.3v-0.1
			C108.7,33.3,108.6,33.3,108.5,33.2z"/>
	</g>
</g>
<g id="圖層_2_1_">
	<g id="圖層_1-2">
		<path class="st2" d="M54.7,21.4c-0.2,0.4-0.6,0.5-1,0.4l0,0c-0.5-0.2-0.7-1.2-1.2-1.1c-1,1.4-0.5,3.3-1,4.9
			c-0.1,0.4-0.3,0.8-0.7,1.1c-0.3,0.3-0.8,0.4-1.2,0.2c-0.4-0.2-0.7-0.7-0.8-1.2s-0.2-1-0.4-1.4c-0.2-0.5-0.7-0.7-1.2-0.6
			c-0.2,0.1-0.5,0.4-0.8,0.3c-0.2-0.1-0.2-0.3-0.2-0.5c-0.1-1.1-0.3-2.2-0.4-3.3c-0.1-0.2-0.1-0.5-0.4-0.5c-0.1,0-0.2,0.1-0.3,0.1
			l-2.7,2c-0.3,0.2-0.6,0.4-1,0.5s-0.7-0.1-0.9-0.4c-0.1-0.3-0.1-0.6,0.1-0.9c0.2-0.5,0.4-0.9,0.5-1.3l0,0c0,0,0-0.1,0.1-0.1
			l0.6-0.9c0.3-0.4,0.6-0.9,0.9-1.3L43,17c0.6-0.8,1.2-1.6,1.9-2.3l0.2-0.3c0.1-0.1,0.2-0.3,0.4-0.4c0.1-0.1,0.2-0.2,0.2-0.2
			l0.1-0.1c0.1-0.1,0.2-0.2,0.4-0.3l0.2-0.2c0.2-0.1,0.4-0.3,0.7-0.4c0.2-0.1,0.4-0.1,0.5-0.1c0.8-0.1,2,0.8,3.3,2.3
			c1.3,1.6,2.6,3.2,3.7,5v0.1C54.9,20.7,54.8,21.1,54.7,21.4z"/>
		<path class="st3" d="M48.4,35h15.1c0,0-4.3-8.3-8.6-14.8v0.1c0.1,0.4,0,0.8-0.2,1.1c-0.2,0.4-0.6,0.5-1,0.4l0,0
			c-0.5-0.2-0.7-1.2-1.2-1.1c-1,1.4-0.5,3.3-1,4.9c-0.1,0.4-0.3,0.8-0.7,1.1c-0.3,0.3-0.8,0.4-1.2,0.2c-0.4-0.2-0.7-0.7-0.8-1.2
			s-0.2-1-0.4-1.4c-0.2-0.5-0.7-0.7-1.2-0.6c-0.2,0.1-0.5,0.4-0.8,0.3c-0.2-0.1-0.2-0.3-0.2-0.5c-0.1-1.1-0.3-2.2-0.4-3.3
			c-0.1-0.2-0.1-0.5-0.4-0.5c-0.1,0-0.2,0.1-0.3,0.1l-2.7,2c-0.3,0.2-0.6,0.4-1,0.5s-0.7-0.1-0.9-0.4c-0.1-0.3-0.1-0.6,0.1-0.9
			c0.2-0.5,0.4-0.9,0.5-1.3c-0.2,0.3-0.4,0.6-0.5,0.9c-0.1,0.2-0.2,0.3-0.3,0.5L40,21.6c2.7,4.3,5.2,8.8,7.6,13.3
			C47.9,35,48.4,35,48.4,35z"/>
		<path class="st4" d="M53.4,26.3c-0.4,0-0.6,0.2-0.7,0.5c0,0.4,0.2,0.6,0.5,0.7s0.6-0.2,0.7-0.5C54,26.6,53.8,26.3,53.4,26.3z"/>
		<path class="st4" d="M57.4,25.4c0-0.1-0.1-0.2-0.1-0.3L57.2,25c-0.1-0.1-0.2-0.1-0.3-0.1h-0.1c-0.1,0-0.2,0-0.2,0.1
			c-0.1,0-0.1,0.1-0.2,0.1c-0.1,0.1-0.1,0.1-0.1,0.2c-0.1,0.1-0.1,0.1-0.1,0.2v0.2c0,0.1,0.1,0.2,0.1,0.3l0.1,0.1
			c0.1,0.1,0.2,0.1,0.3,0.1h0.1c0.1,0,0.2,0,0.2-0.1c0.1,0,0.1-0.1,0.2-0.1c0.1-0.1,0.1-0.1,0.1-0.2c0.1-0.1,0.1-0.1,0.1-0.2
			C57.4,25.6,57.4,25.4,57.4,25.4z"/>
		<path class="st4" d="M56.8,27.5c-0.4,0-0.6,0.2-0.7,0.5c0,0.4,0.2,0.6,0.5,0.7l0,0c0.4,0,0.6-0.2,0.7-0.5
			C57.4,27.8,57.2,27.5,56.8,27.5z"/>
		<path class="st2" d="M36.5,20.5c-0.2,0.5-0.8,0.8-1.3,0.6l0,0c-0.7-0.3-0.9-1.6-1.7-1.5c-1.3,1.9-0.7,4.4-1.3,6.7
			c-0.1,0.6-0.4,1.1-0.8,1.6c-0.4,0.4-1.1,0.5-1.7,0.4c-0.6-0.4-1-1-1-1.6c-0.1-0.7-0.2-1.3-0.4-1.9c-0.2-0.7-1-1-1.6-0.8
			c-0.4,0.2-0.7,0.6-1.1,0.4c-0.2-0.1-0.3-0.4-0.4-0.7c-0.2-1.5-0.4-2.9-0.6-4.4c-0.1-0.3-0.2-0.7-0.5-0.7c-0.2,0-0.3,0.1-0.4,0.2
			L20,21.4c-0.4,0.3-0.8,0.5-1.3,0.7c-0.5,0.1-1-0.1-1.3-0.5c-0.1-0.4-0.1-0.8,0.1-1.2c0.2-0.6,0.5-1.2,0.7-1.8l0,0l0.1-0.1l0.8-1.3
			c0.4-0.6,0.8-1.2,1.2-1.7c0.1-0.2,0.2-0.4,0.4-0.5c0.8-1.1,1.6-2.2,2.5-3.1c0.1-0.1,0.2-0.3,0.4-0.4c0.1-0.1,0.4-0.4,0.5-0.5
			s0.2-0.2,0.4-0.3l0.2-0.1c0.2-0.1,0.3-0.3,0.5-0.4l0.4-0.3c0.3-0.2,0.6-0.4,0.9-0.5c0.1-0.2,0.4-0.3,0.6-0.3
			c1.1-0.1,2.7,1.2,4.5,3.2c1.8,2.2,3.5,4.4,5,6.8V19C36.8,19.5,36.6,20.1,36.5,20.5z"/>
		<path class="st3" d="M36.7,18.9V19c0.1,0.5,0,1.1-0.2,1.6s-0.8,0.8-1.3,0.6l0,0c-0.7-0.3-0.9-1.6-1.7-1.5
			c-1.3,1.9-0.7,4.4-1.3,6.7c-0.1,0.6-0.4,1.1-0.8,1.6s-1.1,0.5-1.7,0.4c-0.6-0.4-1-1-1-1.6c-0.1-0.7-0.2-1.3-0.4-1.9
			c-0.2-0.7-1-1-1.6-0.8c-0.4,0.2-0.7,0.6-1.1,0.4c-0.2-0.1-0.3-0.4-0.4-0.7c-0.2-1.5-0.4-2.9-0.6-4.4c-0.1-0.3-0.2-0.7-0.5-0.7
			c-0.2,0-0.3,0.1-0.4,0.2L20,21.4c-0.4,0.3-0.8,0.5-1.3,0.7c-0.5,0.1-1-0.1-1.3-0.5c-0.1-0.4-0.1-0.8,0.1-1.2
			c0.2-0.6,0.5-1.2,0.7-1.8l-0.8,1.2c-0.1,0.2-0.3,0.4-0.4,0.7c-0.7,1.1-1.4,2.2-2,3.3c-0.2,0.3-0.4,0.6-0.5,0.9
			c-0.5,0.9-1,1.7-1.5,2.6c-0.2,0.4-0.4,0.8-0.7,1.1c-0.2,0.4-0.4,0.7-0.6,1.1c-1.3,2.4-2.5,4.6-3.4,6.2c-0.1,0.2-0.2,0.5-0.4,0.7
			C7.1,38,6.6,39,6.6,39h41.6C48.4,38.9,42.5,27.6,36.7,18.9z"/>
		<path class="st4" d="M35.7,24.3c-0.1-0.1-0.1-0.1-0.2-0.2S35.4,24,35.3,24c-0.1,0-0.2,0-0.2,0l-0.2,0.1c-0.1,0.1-0.2,0.1-0.2,0.2
			v0.1c0,0.1,0,0.2,0,0.3v0.1c0,0.1,0.1,0.2,0.1,0.2c0.1,0.1,0.1,0.1,0.2,0.2c0.1,0.1,0.1,0.1,0.2,0.1c0.1,0,0.2,0,0.2,0l0.2-0.1
			c0.1-0.1,0.2-0.1,0.2-0.2l0.1-0.1c0-0.1,0-0.2,0-0.3v-0.1C35.8,24.5,35.7,24.4,35.7,24.3z"/>
		<path class="st4" d="M39,27.8c-0.1-0.1-0.1-0.1-0.2-0.2l-0.1-0.1c-0.1-0.1-0.2-0.1-0.3,0l-0.2,0.1c-0.1,0.1-0.2,0.1-0.2,0.2
			L37.9,28c-0.1,0.1-0.1,0.3-0.1,0.5c0,0.1,0.1,0.2,0.1,0.2c0.1,0.1,0.1,0.1,0.2,0.2l0.1,0.1c0.1,0.1,0.2,0.1,0.3,0l0.2-0.1
			c0.1-0.1,0.2-0.1,0.2-0.2l0.1-0.1c0.1-0.1,0.1-0.2,0.1-0.2c0-0.1,0-0.2,0-0.2C39.1,28,39,27.9,39,27.8z"/>
		<path class="st4" d="M34.9,27.3c-0.1-0.1-0.1-0.1-0.2-0.2C34.6,27,34.6,27,34.5,27c-0.1,0-0.2,0-0.2,0l-0.2,0.1
			c-0.1,0.1-0.2,0.1-0.2,0.2v0.2c-0.1,0.1-0.1,0.2,0,0.3L34,28c0,0.1,0.1,0.2,0.1,0.2c0.1,0.1,0.2,0.2,0.4,0.2c0.1,0,0.2,0,0.2,0
			l0.2-0.1c0.1-0.1,0.2-0.1,0.2-0.2l0.1-0.1c0-0.1,0-0.2,0-0.3L35,27.5C35,27.5,35,27.4,34.9,27.3z"/>
		<path class="st4" d="M33.6,31.4c-0.1-0.1-0.1-0.1-0.2-0.2c-0.2-0.1-0.3-0.1-0.5-0.1l-0.2,0.1c-0.1,0.1-0.2,0.1-0.2,0.2l-0.1,0.1
			c-0.1,0.1-0.1,0.2,0,0.3l0.1,0.2c0,0.1,0.1,0.2,0.1,0.2c0.1,0.1,0.1,0.1,0.2,0.2c0.1,0.1,0.1,0.1,0.2,0.1c0.1,0,0.2,0,0.2,0
			l0.2-0.1c0.1-0.1,0.2-0.1,0.2-0.2l0.1-0.1c0-0.1,0-0.2,0-0.3l-0.1-0.2C33.7,31.5,33.7,31.4,33.6,31.4z"/>
		<path class="st4" d="M37.1,31.2c-0.4,0.1-0.5,0.4-0.4,0.8c0.1,0.4,0.4,0.5,0.8,0.4c0.4-0.1,0.5-0.4,0.4-0.8
			C37.7,31.3,37.4,31.1,37.1,31.2z"/>
		<path class="st4" d="M42,30.8c-0.1-0.1-0.1-0.1-0.2-0.2c-0.1-0.1-0.1-0.1-0.2-0.1c-0.1,0-0.2,0-0.2,0l-0.2,0.1
			c-0.1,0.1-0.2,0.1-0.2,0.2L40.9,31c0,0.1,0,0.2,0,0.3v0.1c0,0.1,0.1,0.2,0.1,0.2c0.1,0.1,0.1,0.1,0.2,0.2c0.1,0.1,0.3,0.1,0.5,0.1
			l0.2-0.1c0.1-0.1,0.2-0.1,0.2-0.2l0.1-0.1c0-0.1,0-0.2,0-0.3v-0.1C42.1,30.9,42.1,30.9,42,30.8z"/>
		<path class="st4" d="M44.4,33.2c-0.1-0.1-0.1-0.1-0.2-0.2c0,0-0.1,0-0.2,0s-0.2,0-0.2,0h-0.2c-0.1,0.1-0.2,0.1-0.2,0.2l-0.1,0.1
			c0,0.1,0,0.2,0,0.3v0.1c0,0.1,0.1,0.2,0.1,0.2c0.1,0.1,0.1,0.1,0.2,0.2c0.1,0.1,0.1,0.1,0.2,0.1c0.1,0,0.2,0,0.2,0l0.2-0.1
			c0.1-0.1,0.2-0.1,0.2-0.2l0.1-0.1c0.1-0.1,0.1-0.2,0-0.3v-0.1C44.6,33.3,44.5,33.3,44.4,33.2z"/>
	</g>
</g>
<g id="圖層_2_3_">
	<g id="圖層_1-2_2_">
		<path class="st0" d="M182.9,21.4c-0.2,0.4-0.6,0.5-1,0.4l0,0c-0.5-0.2-0.7-1.2-1.2-1.1c-1,1.4-0.5,3.3-1,4.9
			c-0.1,0.4-0.3,0.8-0.7,1.1c-0.3,0.3-0.8,0.4-1.2,0.2c-0.4-0.2-0.7-0.7-0.8-1.2s-0.2-1-0.4-1.4c-0.2-0.5-0.7-0.7-1.2-0.6
			c-0.2,0.1-0.5,0.4-0.8,0.3c-0.2-0.1-0.2-0.3-0.2-0.5c-0.1-1.1-0.3-2.2-0.4-3.3c-0.1-0.2-0.1-0.5-0.4-0.5c-0.1,0-0.2,0.1-0.3,0.1
			l-2.7,2c-0.3,0.2-0.6,0.4-1,0.5s-0.7-0.1-0.9-0.4c-0.1-0.3-0.1-0.6,0.1-0.9c0.2-0.5,0.4-0.9,0.5-1.3l0,0c0,0,0-0.1,0.1-0.1
			l0.6-0.9c0.3-0.4,0.6-0.9,0.9-1.3l0.3-0.4c0.6-0.8,1.2-1.6,1.9-2.3l0.2-0.3c0.1-0.1,0.2-0.3,0.4-0.4c0.1-0.1,0.2-0.2,0.2-0.2
			l0.1-0.1c0.1-0.1,0.2-0.2,0.4-0.3l0.2-0.2c0.2-0.1,0.4-0.3,0.7-0.4c0.2-0.1,0.4-0.1,0.5-0.1c0.8-0.1,2,0.8,3.3,2.3
			c1.3,1.6,2.6,3.2,3.7,5v0.1C183.1,20.7,183,21.1,182.9,21.4z"/>
		<path class="st1" d="M176.5,35h15.1c0,0-4.3-8.3-8.6-14.8v0.1c0.1,0.4,0,0.8-0.2,1.1c-0.2,0.4-0.6,0.5-1,0.4l0,0
			c-0.5-0.2-0.7-1.2-1.2-1.1c-1,1.4-0.5,3.3-1,4.9c-0.1,0.4-0.3,0.8-0.7,1.1c-0.3,0.3-0.8,0.4-1.2,0.2c-0.4-0.2-0.7-0.7-0.8-1.2
			s-0.2-1-0.4-1.4c-0.2-0.5-0.7-0.7-1.2-0.6c-0.2,0.1-0.5,0.4-0.8,0.3c-0.2-0.1-0.2-0.3-0.2-0.5c-0.1-1.1-0.3-2.2-0.4-3.3
			c-0.1-0.2-0.1-0.5-0.4-0.5c-0.1,0-0.2,0.1-0.3,0.1l-2.7,2c-0.3,0.2-0.6,0.4-1,0.5s-0.7-0.1-0.9-0.4c-0.1-0.3-0.1-0.6,0.1-0.9
			c0.2-0.5,0.4-0.9,0.5-1.3c-0.2,0.3-0.4,0.6-0.5,0.9c-0.1,0.2-0.2,0.3-0.3,0.5l-0.3,0.5c2.7,4.3,5.2,8.8,7.6,13.3
			C176.1,35,176.5,35,176.5,35z"/>
		<path class="st0" d="M181.6,26.3c-0.4,0-0.6,0.2-0.7,0.5c0,0.4,0.2,0.6,0.5,0.7s0.6-0.2,0.7-0.5C182.2,26.6,182,26.3,181.6,26.3z"
			/>
		<path class="st0" d="M185.6,25.4c0-0.1-0.1-0.2-0.1-0.3l-0.1-0.1c-0.1-0.1-0.2-0.1-0.3-0.1H185c-0.1,0-0.2,0-0.2,0.1
			c-0.1,0-0.1,0.1-0.2,0.1s-0.1,0.1-0.1,0.2c-0.1,0.1-0.1,0.1-0.1,0.2v0.2c0,0.1,0.1,0.2,0.1,0.3l0.1,0.1c0.1,0.1,0.2,0.1,0.3,0.1
			h0.1c0.1,0,0.2,0,0.2-0.1c0.1,0,0.1-0.1,0.2-0.1s0.1-0.1,0.1-0.2c0.1-0.1,0.1-0.1,0.1-0.2L185.6,25.4L185.6,25.4z"/>
		<path class="st0" d="M185,27.5c-0.4,0-0.6,0.2-0.7,0.5c0,0.4,0.2,0.6,0.5,0.7l0,0c0.4,0,0.6-0.2,0.7-0.5
			C185.6,27.8,185.4,27.5,185,27.5z"/>
		<path class="st0" d="M164.7,20.5c-0.2,0.5-0.8,0.8-1.3,0.6l0,0c-0.7-0.3-0.9-1.6-1.7-1.5c-1.3,1.9-0.7,4.4-1.3,6.7
			c-0.1,0.6-0.4,1.1-0.8,1.6c-0.4,0.4-1.1,0.5-1.7,0.4c-0.6-0.4-1-1-1-1.6c-0.1-0.7-0.2-1.3-0.4-1.9c-0.2-0.7-1-1-1.6-0.8
			c-0.4,0.2-0.7,0.6-1.1,0.4c-0.2-0.1-0.3-0.4-0.4-0.7c-0.2-1.5-0.4-2.9-0.6-4.4c-0.1-0.3-0.2-0.7-0.5-0.7c-0.2,0-0.3,0.1-0.4,0.2
			l-3.6,2.7c-0.4,0.3-0.8,0.5-1.3,0.7c-0.5,0.1-1-0.1-1.3-0.5c-0.1-0.4-0.1-0.8,0.1-1.2c0.2-0.6,0.5-1.2,0.7-1.8l0,0l0.1-0.1
			l0.8-1.3c0.4-0.6,0.8-1.2,1.2-1.7c0.1-0.2,0.2-0.4,0.4-0.5c0.8-1.1,1.6-2.2,2.5-3.1c0.1-0.1,0.2-0.3,0.4-0.4
			c0.1-0.1,0.4-0.4,0.5-0.5s0.2-0.2,0.4-0.3l0.2-0.1c0.2-0.1,0.3-0.3,0.5-0.4l0.4-0.3c0.3-0.2,0.6-0.4,0.9-0.5
			c0.1-0.2,0.4-0.3,0.6-0.3c1.1-0.1,2.7,1.2,4.5,3.2c1.8,2.2,3.5,4.4,5,6.8V19C165,19.5,164.8,20.1,164.7,20.5z"/>
		<path class="st1" d="M164.9,18.9V19c0.1,0.5,0,1.1-0.2,1.6s-0.8,0.8-1.3,0.6l0,0c-0.7-0.3-0.9-1.6-1.7-1.5
			c-1.3,1.9-0.7,4.4-1.3,6.7c-0.1,0.6-0.4,1.1-0.8,1.6c-0.4,0.4-1.1,0.5-1.7,0.4c-0.6-0.4-1-1-1-1.6c-0.1-0.7-0.2-1.3-0.4-1.9
			c-0.2-0.7-1-1-1.6-0.8c-0.4,0.2-0.7,0.6-1.1,0.4c-0.2-0.1-0.3-0.4-0.4-0.7c-0.2-1.5-0.4-2.9-0.6-4.4c-0.1-0.3-0.2-0.7-0.5-0.7
			c-0.2,0-0.3,0.1-0.4,0.2l-3.6,2.7c-0.4,0.3-0.8,0.5-1.3,0.7c-0.5,0.1-1-0.1-1.3-0.5c-0.1-0.4-0.1-0.8,0.1-1.2
			c0.2-0.6,0.5-1.2,0.7-1.8l-0.8,1.2c-0.1,0.2-0.3,0.4-0.4,0.7c-0.7,1.1-1.4,2.2-2,3.3c-0.2,0.3-0.4,0.6-0.5,0.9
			c-0.5,0.9-1,1.7-1.5,2.6c-0.2,0.4-0.4,0.8-0.7,1.1c-0.2,0.4-0.4,0.7-0.6,1.1c-1.3,2.4-2.5,4.6-3.4,6.2c-0.1,0.2-0.2,0.5-0.4,0.7
			c-0.8,1.6-1.3,2.6-1.3,2.6h41.6C176.5,38.9,170.7,27.6,164.9,18.9z"/>
		<path class="st0" d="M163.9,24.3c-0.1-0.1-0.1-0.1-0.2-0.2s-0.1-0.1-0.2-0.1c-0.1,0-0.2,0-0.2,0l-0.2,0.1
			c-0.1,0.1-0.2,0.1-0.2,0.2v0.1c0,0.1,0,0.2,0,0.3v0.1c0,0.1,0.1,0.2,0.1,0.2c0.1,0.1,0.1,0.1,0.2,0.2c0.1,0.1,0.1,0.1,0.2,0.1
			c0.1,0,0.2,0,0.2,0l0.2-0.1c0.1-0.1,0.2-0.1,0.2-0.2l0.1-0.1c0-0.1,0-0.2,0-0.3v-0.1C164,24.5,163.9,24.4,163.9,24.3z"/>
		<path class="st0" d="M167.2,27.8c-0.1-0.1-0.1-0.1-0.2-0.2l-0.1-0.1c-0.1-0.1-0.2-0.1-0.3,0l-0.2,0.1c-0.1,0.1-0.2,0.1-0.2,0.2
			l-0.1,0.1c-0.1,0.1-0.1,0.3-0.1,0.5c0,0.1,0.1,0.2,0.1,0.2c0.1,0.1,0.1,0.1,0.2,0.2l0.1,0.1c0.1,0.1,0.2,0.1,0.3,0l0.2-0.1
			c0.1-0.1,0.2-0.1,0.2-0.2l0.1-0.1c0.1-0.1,0.1-0.2,0.1-0.2c0-0.1,0-0.2,0-0.2C167.3,28,167.2,27.9,167.2,27.8z"/>
		<path class="st0" d="M163.1,27.3c-0.1-0.1-0.1-0.1-0.2-0.2c-0.1-0.1-0.1-0.1-0.2-0.1c-0.1,0-0.2,0-0.2,0l-0.2,0.1
			c-0.1,0.1-0.2,0.1-0.2,0.2v0.2c-0.1,0.1-0.1,0.2,0,0.3l0.1,0.2c0,0.1,0.1,0.2,0.1,0.2c0.1,0.1,0.2,0.2,0.4,0.2c0.1,0,0.2,0,0.2,0
			l0.2-0.1c0.1-0.1,0.2-0.1,0.2-0.2l0.1-0.1c0-0.1,0-0.2,0-0.3l-0.1-0.4C163.2,27.5,163.2,27.4,163.1,27.3z"/>
		<path class="st0" d="M161.8,31.4c-0.1-0.1-0.1-0.1-0.2-0.2c-0.2-0.1-0.3-0.1-0.5-0.1l-0.2,0.1c-0.1,0.1-0.2,0.1-0.2,0.2l-0.1,0.1
			c-0.1,0.1-0.1,0.2,0,0.3l0.1,0.2c0,0.1,0.1,0.2,0.1,0.2c0.1,0.1,0.1,0.1,0.2,0.2s0.1,0.1,0.2,0.1c0.1,0,0.2,0,0.2,0l0.2-0.1
			c0.1-0.1,0.2-0.1,0.2-0.2l0.1-0.1c0-0.1,0-0.2,0-0.3l-0.1-0.2C161.9,31.5,161.9,31.4,161.8,31.4z"/>
		<path class="st0" d="M165.3,31.2c-0.4,0.1-0.5,0.4-0.4,0.8c0.1,0.4,0.4,0.5,0.8,0.4c0.4-0.1,0.5-0.4,0.4-0.8
			C165.9,31.3,165.6,31.1,165.3,31.2z"/>
		<path class="st0" d="M170.2,30.8c-0.1-0.1-0.1-0.1-0.2-0.2c-0.1-0.1-0.1-0.1-0.2-0.1c-0.1,0-0.2,0-0.2,0l-0.2,0.1
			c-0.1,0.1-0.2,0.1-0.2,0.2l-0.1,0.1c0,0.1,0,0.2,0,0.3v0.1c0,0.1,0.1,0.2,0.1,0.2c0.1,0.1,0.1,0.1,0.2,0.2
			c0.1,0.1,0.3,0.1,0.5,0.1l0.2-0.1c0.1-0.1,0.2-0.1,0.2-0.2l0.1-0.1c0-0.1,0-0.2,0-0.3V31C170.3,30.9,170.3,30.9,170.2,30.8z"/>
		<path class="st0" d="M172.6,33.2c-0.1-0.1-0.1-0.1-0.2-0.2c-0.1-0.1-0.1-0.1-0.2-0.1c-0.1,0-0.2,0-0.2,0l-0.2,0.1
			c-0.1,0.1-0.2,0.1-0.2,0.2l-0.1,0.1c0,0.1,0,0.2,0,0.3v0.1c0,0.1,0.1,0.2,0.1,0.2c0.1,0.1,0.1,0.1,0.2,0.2
			c0.1,0.1,0.1,0.1,0.2,0.1c0.1,0,0.2,0,0.2,0l0.2-0.1c0.1-0.1,0.2-0.1,0.2-0.2l0.1-0.1c0.1-0.1,0.1-0.2,0-0.3v-0.1
			C172.8,33.3,172.7,33.3,172.6,33.2z"/>
	</g>
</g>
</svg>
