<?xml version="1.0" encoding="utf-8"?>
<!-- Generator: Adobe Illustrator 24.2.3, SVG Export Plug-In . SVG Version: 6.00 Build 0)  -->
<svg version="1.1" id="圖層_1" xmlns="http://www.w3.org/2000/svg" xmlns:xlink="http://www.w3.org/1999/xlink" x="0px" y="0px"
	 viewBox="0 0 430.2 428.7" style="enable-background:new 0 0 430.2 428.7;" xml:space="preserve">
<style type="text/css">
	.st0{fill:#494233;}
	.st1{fill:#2C271F;}
	.st2{fill:#F5C641;}
	.st3{fill:#F0EFE8;}
	.st4{fill:none;stroke:#2C271F;stroke-linecap:round;stroke-linejoin:round;}
	.st5{fill:#FFFFFF;}
</style>
<g id="圖層_2_1_">
	<g id="圖層_1-2">
		<path class="st0" d="M435.6,125.4c-11.6-10.7-25.5,3.1-21.1,14c7.5,18.4,9.6,46.3-11.2,82.2c-7.7,13.1-18.1,25-31.4,32.7
			c-4.1,2.3-8.5,4.3-13,5.6c-2.3,0.7-4.6,1.2-6.9,1.7c-2.2,0.3-4.5,0.4-6.7,1h-0.3c-0.8,0.1-1.4,0.6-1.8,1.2c-0.1,0.4,0,1,0.2,1.4
			c0.8,2.1,2,4.3,4.1,5.2c1.5,0.6,3.2,0.8,4.7,0.7c1.7,0,3.3,0.2,5,0.1c4.2-0.2,8.5-0.7,12.7-1.1c7.3-0.9,14.4-2.3,21.4-4.4
			c11.5-3.4,22.2-9.3,31.3-17.1c6.6-5.8,12.6-12.4,17.8-19.4C468.2,192.6,447.3,136.1,435.6,125.4z"/>
		<path class="st0" d="M309.9,190.1c12.7-3.3,24.8-8.4,36.1-15.2c18.5-11.7,43.8-40.1,32.2-44.2c-10.3-3.5-32.7,22.7-68.8,29.8
			c-4.7,1.3-9.7,1.9-14.7,1.7l-0.7-3.7c-1.2-3.9-2.3-7.7-3.5-11.7c-0.7-2.3-0.9-7.7-3.5-8.5c-1.2-0.3-2.4,0.2-2.9,1.3
			c-0.1,0.7-0.1,1.4,0.2,2.1c0.9,3.3,1.3,4.1,1.3,7.4c0.2,7.6,1.5,9,2.1,11.9c1,5.6,2,7.6,2.2,13.3c0.4,10.8,0.3,27.6-0.9,38.3
			c-0.9,7.9-0.8,6.3-0.8,14.2c0,5.3-4.5,18.2-8,22.1c-2.8,3-11.1,10.7-24.5,3.2c-11.2-6.4-31.8-37.8-37.4-49.5
			c-3.1-6.4-6-12.9-8.6-19.5c-0.9-2.8-1.7-5.5-2.2-8.4l-2.5-9.6c-0.1-1.1-0.7-2.1-1.5-2.9c-0.3,3,1.1,5.8,1.7,8.8
			c0.1,0.3,0,0.7-0.2,0.8c-0.1,0-0.1,0.1-0.2,0.1c-2,0.4-3.5-0.6-5.2-1.3c-12.7-6.1-22.9-15.8-32.3-25.9c-7.1-7.8-13.5-17-21.7-23.6
			c-13.9-11.2-17,7.9,1.1,36.8c19.5,31.2,65.9,55,65.9,55s15.7,74.8,48.6,110c0,0,3.9,8.2,16,29.3c12.1,21.2,15.1,39.6,15.4,48.1
			c0.2,5.1-1.3,11.6,1,16.3c0.7,1.9,2.8,2.9,4.6,2.2c0.1,0,0.2-0.1,0.2-0.1c4.3-1.3,8.5-3.3,12.2-6c7.1-5.4,6.1-13,5.3-21
			c-1.2-13.2-10.4-56,15.9-50.9c26.2,5.2,45.4,20.4,52,33.6c2,4.1,3.6,8.3,6.1,12.1c2.2,3.4,6.4,5.1,10.4,4.2c2.6-0.6,5-2,6.6-4.1
			c0.9-1.2,1.5-2.5,2.1-3.9c1.3-2.5,1.8-5.5,1.4-8.4c-0.4-2.8,0-5.4-1.5-8c-4.3-7.6-25.7-32.9-33.2-42.5
			c-7.5-9.6-14.6-17.9-28.1-45.1c-0.6-1.1-1.1-2.3-1.8-3.4c-1.4-3-3-6.1-4.5-9.2C329.7,241.9,317.4,214.8,309.9,190.1z"/>
		<path class="st1" d="M148.2,128.6c4.2,5.7,7.8,11.7,12.1,17.3c2,2.6,4.1,5.1,6.5,7.4c2.6,2.4,5.6,4.4,7.7,7.4l-0.7-4
			c-8.4-5.5-13.9-14.1-19.2-22.5c-0.1-0.2,0,1.3,0,1.4c0,0.9,0.2,1.7,0.6,2.4c4.6,7.6,10,14.8,16.3,21.1l-0.7-4
			c-10.8-3.7-15.8-14.9-18-25.3l0.2,2.9c2.2,5.8,5.8,10.9,9.5,15.9c3.3,4.6,6.8,9.2,11.7,12.1c0,0-0.1-1.9-0.1-2.1
			c-0.1-0.6-0.1-1.7-0.6-2c-9.7-7.1-17.2-16.7-21.9-27.7c-0.3-0.8-0.2,0.7-0.2,0.8c0.1,1,0.2,1.9,0.6,2.8
			c3.9,9.3,8.6,18.2,14.2,26.5l-0.7-4c-4.4-2.5-8.5-5.6-12.1-9.3c-3.3-3.5-6.7-8.3-7.2-13.1l-0.1,1l5.5,10.8c1.5,3.1,3,6.2,4.9,9.2
			c3.2,5.2,7.3,9.9,11.8,14l-0.7-4c-8.9-7.2-16.8-16.2-23.7-25.3c-0.2-0.2-0.1,1.1-0.1,1.2c0.1,0.9,0.3,1.7,0.6,2.5
			c2.1,6.5,5.2,12.6,9,18.2l-0.6-4c-5-6.5-9.4-13.3-13.1-20.6l0.6,4l12.9,18.2l-0.6-4c-4.7-5.7-8.7-12-12-18.7c-0.1-0.2-0.1,1-0.1,1
			c0.1,0.9,0.2,1.7,0.4,2.4c1.3,4.5,3.5,9.6,7.4,12.5c0.7,0.6,2,1.4,2.8,0.4c0.2-0.6,0.3-1.1,0.2-1.7c-0.1-1.3-0.3-2.5-0.7-3.7
			l0.3,3.1c1.9,2.8,5,4.7,7.6,6.5c2.9,2,6,3.6,8.8,5.7l-0.1-1.8c0-0.8-0.2-1.5-0.6-2.2c-4.6-5.3-9.3-10.5-12.6-16.7
			c-2.5-5-4.6-10.3-8-14.8c-0.1-0.2-0.1,1.1,0,1.2c0.1,0.9,0.2,1.8,0.6,2.5c2.9,6.5,5.6,13.2,8.2,19.8c1,2.6,2,5.3,3,7.9
			c0.1,0.4,0.2,0.8,0.3,1.2c-0.1-0.3,0-0.1,0,0c0-0.7-0.1-1.2-0.3-1.9c0-0.2,0-0.3-0.1-0.3c-0.7-0.4-1.3-0.8-2.1-1.1
			c-0.9-0.6-1.8-1.2-2.6-1.9c-0.6-0.4-1-1-1.4-1.5c-1-1.2,0.2,3.1,0.4,3.1c0.1,0,0.2,0,0.3-0.1c1.5,0.7,3,1.7,4.1,2.9
			c0.2,0.2,0-1.3,0-1.4c0-0.9-0.2-1.8-0.6-2.5c-6.7-8-15.4-14.4-20.3-23.8c-0.1-0.2-0.1,1.1,0,1.2c0,0.9,0.2,1.8,0.6,2.5
			c2.2,5,5.5,9.5,9.6,13.2c0.2,0.2,0-1.4,0-1.4c-0.7-5.1-1.8-10-3.2-15c-0.3-1.1-0.3,0-0.2,0.4c0.9,8.9,4,17.5,10,24.3l-0.7-4
			c-5.2-4.1-10.5-8.4-13.7-14.3c0,0.7,0,1.3,0,2c0.9,5.4,4.2,10,7.4,14.3c3.4,4.7,6.9,9.5,10.4,14.2c0.2,0.2,0.1-0.7,0.1-0.8
			c-0.1-0.8-0.2-1.5-0.4-2.2c-0.7-3.2-2.3-6.1-4.5-8.4c-0.2-0.2,0,1.3,0,1.4c0.1,0.7,0.1,2,0.6,2.5c0.4,0.4,2.3,2.2,2.3,0.6
			c0.1-1.9-0.6-3.7-1.7-5.3c-0.2-0.2,0,1.3,0,1.4c0,0.9,0.2,1.7,0.6,2.4c1.1,2,2.9,3.5,5,4.5c0,0-0.1-1.9-0.1-2.1
			c-0.1-0.4-0.1-1.8-0.6-2c-2-1-3.5-2.4-4.6-4.3l0.6,4c0.7,0.8,0.9,1.9,0.4-0.2l-0.2-2c-0.1,1-2-0.9-2.1-1l0.6,4
			c1.9,1.8,3.3,4,4,6.5l-0.2-3c-3-4.1-6-8.2-8.9-12.4c-1.4-2-3-4-4.3-6.1c-0.7-1-1.3-2.1-2-3.2c-0.7-1-1.2-2.1-1.5-3.2l0.1,2
			c3.3,6,8.6,10.3,13.9,14.3c0,0-0.1-1.7-0.1-1.8c0-0.8-0.2-1.5-0.6-2.2c-4.5-5-8-11.5-8.8-18.3l-0.2,0.4c1,3.6,1.9,7.3,2.3,11V143
			c-4-3.6-7.1-7.9-9.3-12.8l0.4,3.7c4.9,9.4,13.7,15.8,20.3,23.8l-0.6-4c-0.8-0.8-1.5-1.5-2.4-2.2c-0.4-0.3-1.1-0.9-1.7-0.9
			c-1.3,0-0.2,3.3,0,4c0.6,1.4,1.7,2.5,2.9,3.4c1.1,0.8,2.2,1.4,3.4,2.1c0.6,0.3,0.4,0.3,0.7-0.1c0.1-0.8,0-1.5-0.2-2.2
			c-0.1-0.8-0.3-1.5-0.6-2.2c-0.3-1.3-0.9-2.6-1.3-3.9c-1.4-4.1-3.1-8-4.6-12.1c-1.9-4.6-3.7-9.2-5.7-13.7l0.4,3.7
			c3.4,4.5,5.5,9.8,8,14.8c3.2,6.2,7.8,11.5,12.5,16.7l-0.7-4c-2.8-2-5.6-3.6-8.5-5.5c-2.8-1.9-6-3.7-7.8-6.5
			c-0.1-0.2-0.1,0.8-0.1,0.8c0.1,0.8,0.2,1.5,0.4,2.2c-0.6-2.3,0.1-1.1-0.6-0.6c-0.2,0.2-0.6,0.2-0.9,0.1c-1.1-0.3-2-0.9-2.8-1.8
			c-2.9-2.9-4.9-6.5-5.8-10.4l0.3,3.4c3.3,6.7,7.4,13,12.1,18.7c0.2,0.2,0-1.3,0-1.4c0-0.9-0.2-1.7-0.6-2.4l-12.8-18.3
			c-0.1-0.2,0,1.3,0,1.4c0.1,0.9,0.2,1.7,0.6,2.5c3.7,7.3,8.2,14.1,13.1,20.6c0.2,0.2,0-1.3,0-1.4c0-0.9-0.2-1.7-0.6-2.4
			c-3.7-5.5-6.8-11.5-8.9-17.9l0.4,3.7c6.9,9.2,14.9,18.2,23.9,25.5c0,0-0.1-1.7-0.1-1.8c-0.1-0.6-0.1-1.9-0.6-2.2
			c-4.6-4.1-8.6-8.8-11.8-14c-1.8-2.9-3.3-5.8-4.7-8.9l-5.6-11c-0.1-0.2-0.1,1-0.1,1c0.6,6.2,2.9,12,6.6,16.9
			c3.9,4.9,8.9,8.4,14.1,11.6l-0.1-1.8c0-0.8-0.2-1.5-0.6-2.2c-5.5-8.2-10.3-17-14.1-26.1l0.4,3.5c4.6,11.2,12.4,21.1,22.2,28.2
			l-0.7-4.1c-4.9-3-8.4-7.5-11.6-12c-3.5-4.9-7.2-9.8-9.4-15.5c-0.2-0.6-0.2,0.1-0.2,0.3c0.1,0.9,0.2,1.7,0.4,2.4
			c2.4,10.9,7.3,23.2,18.7,27.1c0-0.6,0-1.2-0.1-1.8s-0.1-1.8-0.6-2.1c-6.3-6.4-11.8-13.5-16.3-21.2l0.6,4
			c5.3,8.5,10.8,17.1,19.4,22.7l-0.1-1.8c0-0.8-0.2-1.5-0.6-2.2c-2.1-3-5.1-5-7.7-7.3c-2.3-2.3-4.5-4.7-6.5-7.4
			c-4.3-5.6-7.9-11.7-12.1-17.3c-0.2-0.2,0,1.3,0,1.4C147.6,126.9,147.8,127.8,148.2,128.6z"/>
		<path class="st1" d="M360.3,138.3c-12.7,12.1-26.8,22.5-42.2,30.9c-0.8,0.4,0.3,4.2,0.7,4.1c6.8-2.8,13.5-6.1,19.8-9.8
			c7.1-4,13.9-8.3,20.5-13c2.8-2,5.4-4.2,7.9-6.5l-0.9-3.9c-5.2,6.5-11.1,12.5-17.8,17.5c-5.8,4.7-12.4,9.4-19.5,12.1
			c-0.8,0.3,0.3,4.2,0.7,4.1c12.4-4.5,24.9-9.4,34.5-18.7l-0.9-3.9c-5.3,7.1-12.8,12.2-21.3,14.8c-0.7,0.2,0.1,4.2,0.7,4.1
			c10.7-1.4,19.6-8.8,24.1-18.4c0.2-0.4-0.1-4.2-0.8-4l-22.2,6.3c-7.5,2.1-14.9,4.5-22.5,5.5l0.7,4.1c2.6-1.7,5.4-3.2,8.4-4.3
			c2.9-1.2,5.6-2.8,8.2-4.4c5.6-3.5,10.9-7.5,16.9-10.6c0.9-0.4-0.4-4.2-0.7-4.1c-6,3.1-11.2,7.1-16.9,10.6c-2.5,1.7-5.3,3.1-8,4.3
			c-3,1.2-5.8,2.6-8.6,4.4c-0.7,0.4,0,4.2,0.7,4.1c7.6-1.1,15.1-3.4,22.5-5.5l22.2-6.3l-0.8-4c-4.4,9.6-13.3,16.9-23.9,18.2l0.7,4.1
			c8.6-2.5,16.2-7.7,21.5-15c0.4-0.6,0-2-0.1-2.5c0-0.2-0.4-1.7-0.8-1.3c-9.5,9.3-22.1,14-34.3,18.5l0.7,4.1
			c7.3-2.9,13.8-7.5,19.8-12.5c6.5-5.2,12.5-11,17.5-17.5c0.4-0.6,0-2-0.1-2.5c0-0.2-0.4-1.8-0.8-1.3c-4.9,4.7-10.7,8.6-16.4,12.2
			c-6.9,4.4-14,8.5-21.3,12.1c-3.4,1.8-6.8,3.3-10.4,4.7l0.7,4.1c15.4-8.5,29.7-18.9,42.5-31.1c0.4-0.4,0-2.1-0.1-2.5
			C361.1,139.3,360.8,137.8,360.3,138.3L360.3,138.3z"/>
		<path class="st1" d="M310.8,399c-2-3-1.7-6.4-1.1-9.9c0.6-3.3,0.9-6.7,1-10.1c0-6.5-1.9-13,0.4-19.2l-1-3.6
			c-2.2,13.6-0.7,27.1,2.2,40.5l0.1-2.6c-2.4-2-4.2-4.7-5.1-7.7c-1.2-3.1-2-6.4-2.4-9.6c-0.9-6.8-0.4-13.7,1.4-20.3l-1.1-3.4
			c-1.2,8-0.4,16.5-0.1,24.7c0.3,8.2,0.3,16,0.7,24c0,0.9,0.1,1.7,0.4,2.5c0.1,0.2,0.6,0.9,0.6,0.2c1.2-12,2.2-24,3.5-36.2
			c0.1-0.9,0-1.8-0.2-2.5c0-0.1-0.6-1.5-0.8-1.1c-3.5,10.4-6.2,21.2-6.2,32.1l0.4-0.4c-3.6-6.9-4.5-15.1-4.7-22.8
			c-0.3-8,0.4-16.2,2.2-24l-1.1-3.1c-0.8,7.7-1,15.4-1.2,23.2c-0.2,8.9-0.7,18.5,3,26.8c0.2,0.6,0.4,0.7,0.7,0.1
			c0.1-0.9,0-1.8-0.3-2.6c-2.2-6.2-4.1-12.5-5.7-18.7c-1.7-6.4-3-12.7-2.9-19.2l-1.1-1.9c0.8,6.9,1.5,13.9,2.1,20.8
			c0.4,6.9,0.8,14.1-0.1,21l1,1.7c-1.1-6.8-1.3-13.8-2.6-20.6c-0.6-3.2-1.5-6.3-3-9.3c-1.9-3.4-4.2-6.6-6.8-9.6l0.4,4
			c2.8,1.8,5.2,3.9,7.2,6.4c1.8,2.8,3.1,5.8,4.1,9c2.2,6.6,3.7,13.6,4.4,20.5c0,0.8,0.2,1.4,0.6,2.1c0.2,0.2,0.4,0.7,0.6,0.1
			c1.5-6.4,2.8-12.9,2.2-19.5c-0.3-3.3-1.1-6.7-2.2-9.9c-1-3.1-1.8-6-0.1-8.9l-0.8-1.3c2.6,13,5.8,25.9,9.4,38.7
			c0.1,0.4,0.3,1.2,0.8,0.7c0.3-0.7-0.1-2.2-0.3-2.9c-3.4-12.5-6.5-25-9.2-37.8c0-0.1-0.6-1.8-0.8-1.3c-3.1,6,0.2,12.6,1.7,18.4
			c1.5,6.6-0.1,13.9-1.7,20.4l1.1,2.2c-0.8-8-2.5-16-5.1-23.7c-1-3.5-2.5-6.8-4.4-10c-2-3-4.9-5.1-7.7-7.2c-0.4-0.3-0.3,1.3-0.3,1.5
			c0,0.9,0.3,1.8,0.8,2.4c2.4,2.6,4.5,5.6,6.3,8.8c1.3,2.5,2.1,5.3,2.5,8.2c1.1,6.2,1.3,12.5,2.3,18.6c0,0.2,0.9,2.8,1,1.7
			c0.8-7.3,0.9-14.8,0.2-22.1c-0.6-7.5-1.3-14.9-2.2-22.3c-0.1-0.6-0.1-1.9-0.7-2.2c-0.4-0.3-0.4-0.1-0.4,0.4
			c-0.2,7.4,1.3,14.8,3,21.8c1.7,7.1,3.9,14.1,6.3,21l0.2-2.5c-1.9-4.3-2.1-9-2.1-13.8c0-3.2,0.1-6.5,0.1-9.7
			c0.2-6.9,0.4-13.9,1.1-20.8c0-0.9-0.1-1.9-0.4-2.6c-0.1-0.3-0.4-1.2-0.7-0.4c-1.7,6.8-2.4,13.8-2.4,20.7
			c-0.1,7.6,0.7,15.2,2.3,22.7c0.9,3.6,2.1,7.2,3.7,10.6c0.3,0.6,0.6-0.1,0.4-0.4c0-10.6,2.5-21.1,6-31l-1-3.6
			c-1.2,12-2.2,24-3.5,36.2l1.1,2.6c-0.2-7.7-0.4-15.4-0.7-23c-0.1-3.7-0.2-7.5-0.3-11.2c-0.2-4.3-0.1-8.6,0.4-12.9
			c0.1-1,0-1.9-0.3-2.9c0-0.3-0.6-1.4-0.8-0.7c-2.1,7.9-2.4,16.2-1.1,24.4c0.7,4,1.7,7.9,3.1,11.8c1.2,3.4,2.9,6.7,5.8,8.9
			c0.6,0.3,0.1-2.4,0.1-2.6c-2.5-11.9-3.7-23.7-1.8-35.8c0.1-0.9,0-1.8-0.2-2.5c0-0.1-0.6-1.5-0.8-1.1c-1.2,3.5-1.8,7.3-1.4,10.9
			c0.2,4,0.9,7.8,0.7,11.8c-0.2,4.2-1.3,8.3-1.3,12.6c-0.1,4,0.9,7.9,2.9,11.5c0.4,0.8,0.4-0.6,0.4-0.9c0-1-0.2-1.9-0.7-2.8
			L310.8,399z"/>
		<path class="st1" d="M402.3,358.7c-3.2-1.2-6.2-3.2-8.5-5.8c-2.8-3.1-4.1-7.3-6.4-10.7c-3.9-5.7-10-10-12-16.9l-0.1,2.9
			c6,11.4,14.6,20.7,24.1,29.1l-0.6-4c-3.6,0-6.7-1.8-9.7-3.7c-2.9-2-5.6-4.2-8-6.7c-5-5.1-8.9-11-11.6-17.6v3.3
			c3.3,6.4,8.4,12,12.8,17.5c4.4,5.5,8.8,10.9,13.2,16.4c2.2,2.8,4.3,5.4,6.5,8.2c0.3,0.4,0.3-1.2,0.3-1.2c0-0.9-0.2-1.8-0.7-2.5
			c-7.1-11.9-15.2-23-22.3-35c-0.3-0.6-0.4,0.1-0.4,0.4c0,0.9,0.1,1.7,0.3,2.5c3.6,11.1,9.2,21.7,16.1,31.2l-0.3-3.7
			c-5.8-2.9-10.9-7.6-15.3-12.4c-5.1-5.5-9.7-11.5-13.6-17.9c-1.9-3-3.5-6.2-5-9.4v3.3c3.9,6.4,8.2,12.7,12.6,18.7
			c4.6,6.5,9.3,13.9,16.3,17.9c0.6,0.3,0.3-1.3,0.3-1.5c-0.1-0.6-0.2-2.1-0.8-2.4c-5.5-3.7-11-7.7-16.2-12
			c-5.2-4.3-10.5-8.9-14.3-14.4l0.3,3.7c5.3,5.7,10.5,11.6,15.5,17.6c5,6.1,9.9,12.2,13.8,19.1l-0.3-3.7
			c-5.5-5.4-10.1-11.7-15.5-17.2c-2.2-2.4-4.9-4.5-7.8-6.1c-3.4-1.5-6.9-2.6-10.6-3.4l0.7,4.1c3.5-0.1,7.1-0.1,10.4,1.2
			c3.2,1.4,6.3,3.2,9,5.4c5.7,4.1,11,8.8,15.8,14c0.3,0.3,0.3-1,0.3-1c0-0.9-0.2-1.7-0.6-2.4c-2.3-5.5-5-11-8.8-15.7
			c-2-2.3-4.3-4.3-6.8-6.1c-2.4-1.8-6.2-4.2-6.6-7.3l-0.2,2.1c9.6,8.6,19.4,16.9,29.7,24.8c0.4,0.3,0.3-1.4,0.3-1.5
			c-0.1-0.7-0.2-2-0.8-2.4c-10.1-7.9-20.1-16.2-29.7-24.8c-0.4-0.3-0.2,2-0.2,2.1c0.6,3.2,2.1,6.2,4.5,8.4c2.5,2.3,5.6,4.1,8.2,6.5
			c4.9,4.6,7.8,10.9,10.5,17l-0.1-3.5c-4.9-5.3-10.4-10.1-16.2-14.3c-2.6-2.1-5.6-3.9-8.7-5.2c-3.3-1.3-6.9-1.3-10.5-1.2
			c-0.6,0-0.1,3.9,0.7,4.1c3.7,0.8,7.4,2,10.9,3.6c2.8,1.7,5.3,3.6,7.5,6.1c5.3,5.5,9.8,11.6,15.3,17c0.4,0.3,0.3-1.2,0.3-1.2
			c0-0.9-0.2-1.8-0.7-2.5c-3.7-6.8-8.8-13.1-13.9-19.2c-5-6.1-10.4-12.1-15.8-18c-0.3-0.4-0.3,1.2-0.3,1.2c0,0.9,0.2,1.8,0.7,2.5
			c4,5.5,9,10.1,14.3,14.6c5.2,4.3,10.9,8.4,16.5,12.4l-0.4-4c-7.1-4-11.7-11.4-16.2-17.9c-4.3-6.1-8.5-12.1-12.4-18.4
			c-0.4-0.7-0.4,0.3-0.4,0.7c0,0.9,0.1,1.9,0.4,2.6c2.8,6.3,6.3,12.2,10.5,17.8c4.4,6.2,9.5,11.8,15.1,16.8c2.6,2.4,5.7,4.4,8.9,6.1
			c0.6,0.3,0-3.3-0.3-3.7c-6.7-9-12-19.1-15.5-29.8l-0.1,2.9c7.1,11.9,15.2,23,22.3,35l-0.3-3.7c-5.2-6.6-10.5-13.1-15.8-19.6
			c-2.6-3.2-5.2-6.4-7.7-9.7c-3.3-3.9-6.2-8-8.7-12.5c-0.3-0.7-0.4,0.4-0.4,0.7c0,0.9,0.1,1.9,0.4,2.6c2.8,6.8,6.7,13,11.9,18.3
			c2.5,2.6,5.4,5,8.4,7.1c3,2,6.3,3.7,9.9,3.9c0.7,0-0.2-3.6-0.6-4c-9.5-8.4-18-17.5-23.8-28.8c-0.3-0.6-0.4,0.1-0.4,0.4
			c0,0.9,0.1,1.7,0.3,2.4c1.1,3.4,2.9,6.7,5.2,9.5c2.4,3,5.3,5.6,7.4,8.8c2.3,3.5,3.7,7.7,6.5,10.9c2.4,2.8,5.5,4.7,8.9,6.1
			c0.3,0.1,0.1-2,0.1-2.1C403.1,360.3,403,359,402.3,358.7L402.3,358.7z"/>
		<path class="st1" d="M421.6,197.8c6-6.1,5.6-15.4,5.4-23.4c-0.2-10.5-1.3-21-3.4-31.2l-0.7,1.2c4.2,13.5,5.3,27.8,3.2,41.7
			l1.1,3.1c0-13.9,0.3-27.8,1.1-41.6l-0.8-0.3c4.4,15.9,7.7,32.2,5.8,48.7l1.1,3.1c1-16.5,0.2-33.1-2.2-49.4l-0.3,1.9
			c8.5,15.7,10,34.1,4.4,50.9c-1.5,4.9-3.6,9.5-6.2,13.9c-0.2,0.9-0.2,1.8,0.1,2.5c0,0.2,0.6,1.8,0.8,1.3
			c9.8-16.3,11.4-35.6,10.3-54.1c-0.3-5.8-0.9-11.6-1.4-17.4l-0.8,0.7c2.5,8.4,5,17,5.3,25.8c0.3,9.4-2.4,18.1-5.5,26.8l-5.3,15
			l1,3.6c1.3-5.3,3.9-10.1,6-15.2c2-4.7,3.5-9.6,4.7-14.4c2.3-9.9,2.9-20.1,1.8-30.2l-1-0.4c3.3,18.6,0.2,38-7.4,55.4
			c-0.2,0.9-0.1,1.8,0.1,2.5c0,0.2,0.6,1.8,0.8,1.3c6.3-9.4,10.3-20,11.8-31.2c1.4-11.5,0.4-24.1-5.6-34.2
			c-3.4-5.7-8.2-10.7-12.8-15.5c-0.3-0.3-0.3,1-0.3,1c0,0.9,0.2,1.7,0.6,2.4c7.2,15,9.5,31.8,6.7,48.2l1.1,2.2
			c-2.2-20.1-4.6-40.2-11.8-59.3c-0.1-0.3-0.3-0.7-0.6-0.3s0,1.5,0.1,1.9c3.9,19.3,7.6,38.7,8.7,58.3l1,0.9
			c-3.6-19.4-9.3-38.4-16.7-56.7c-0.2-0.6-0.3-0.7-0.6-0.2c-0.2,0.4,0.1,1.8,0.2,2.3c2.1,7.9,5.2,15.4,7.5,23.3
			c2.2,7.5,2.6,15.5,1,23.3c-1,4.6-2.4,9.2-4.2,13.5c-0.2,0.9-0.1,1.8,0.1,2.5c0,0.1,0.7,1.8,0.8,1.3c3.2-7.9,5.5-16.4,5.5-25
			c0-8.9-2.5-17.4-5.4-25.7c-1.7-4.7-3.4-9.5-4.7-14.3l-0.4,2.1c7.1,17.3,12.4,35.3,15.9,53.7c0.1,0.3,0.2,1.8,0.7,1.9
			c0.4,0.1,0.3-0.8,0.3-1c-1.1-20.4-5.1-40.5-8.9-60.4l-0.6,1.5c6.6,17.8,8.7,36.7,10.8,55.4c0,0.8,0.2,1.4,0.6,2.1
			c0.1,0.2,0.4,0.7,0.6,0.1c3.1-18.5,0.4-37.6-7.6-54.6l0.1,3.5c7.6,8,15.4,16.4,17,27.8c1.2,10.1-0.1,20.4-3.7,29.9
			c-2,5.4-4.6,10.6-7.8,15.3l0.9,3.9c8.2-18.6,10.7-39.3,7.3-59.3c0-0.3-0.3-1.9-0.8-2c-0.4,0-0.2,1.3-0.2,1.5
			c1.1,9.8,0.3,19.6-2.1,29.1c-1.2,4.9-3,9.7-5,14.3c-2.2,4.5-4,9.3-5.4,14c-0.1,0.9,0,1.8,0.2,2.5c0,0.1,0.6,1.5,0.8,1.1l5.3-14.8
			c1.8-4.5,3.2-9.2,4.4-13.9c2.3-9.5,1.7-19.3-0.2-28.8c-1.2-5.5-2.6-10.9-4.3-16.3c0-0.2-0.3-1.1-0.7-0.9c-0.3,0.2-0.1,1.3-0.1,1.5
			c1.8,18.4,3.4,37.4-2.5,55.2c-1.5,4.6-3.6,9.2-6.2,13.3l0.9,3.9c9.8-17.4,12.2-37.9,6.8-57.1c-1.4-5.3-3.5-10.4-6.3-15.1
			c-0.6-1-0.3,1.7-0.3,1.9c2.2,15.3,2.9,31,2,46.4c0,0.9,0.1,1.9,0.4,2.6c0,0.2,0.6,1.2,0.7,0.4c2.1-18.4-1.7-36.7-6.5-54.4
			c-0.2-0.7-0.7-1.4-0.8-0.3c-0.8,13.9-1.1,27.8-1.1,41.7c0,0.9,0.1,1.8,0.4,2.6c0,0.2,0.6,1.2,0.7,0.4c2.3-15.9,1-32.1-3.9-47.3
			c0-0.2-0.3-1.2-0.7-0.9c-0.3,0.3-0.1,1.7,0,2c1.9,9.5,2.9,19,3.1,28.7c0.2,7.6,0.4,16.1-5.2,21.9c-0.4,0.4,0,2,0.1,2.5
			C420.9,196.7,421.2,198.3,421.6,197.8L421.6,197.8z"/>
		<path class="st2" d="M288.1,166.1c0.4,9.3,0.3,18.4-0.2,27.7c-0.6,5.3-1.5,10.6-1.8,16c-0.1,2.9,0,5.7-0.1,8.6
			c-0.4,7.9-3.1,15.4-6.3,22.6c-0.8,1.8-1.7,3.4-2.8,5c-5.5,7.4-14.2,9.6-22.4,4.9c-5.8-3.4-10.1-9-14.6-14.2
			c-2.1-2.3-4-4.7-5.6-7.3c-1.5-2.6-2.8-5.6-3.5-8.6c-0.4-1.9-1.9-3.5-3-5.1c-1-1.7-2.2-3.5-3.3-5.3c-2.1-3.6-4-7.3-5.7-11.1
			c-1.7-3.6-3.1-7.3-4.4-11.1c-2.2-6.3-3.4-13.1-7.6-18.6c-1.2-1.3-2.1-2.8-2.8-4.4c-0.6-1.9,0.6-4,2.4-4.5c0.8-0.2,1.5-0.2,2.3,0.1
			c3.6,1.4,6.6,3.7,10.4,4.9c6.7,2.1,13.6,4.1,20.5,4c7.6-0.3,15-3,21.1-7.6c3.2-2.3,6.1-5.1,8.6-8c4.2-4.9,6.5-11.2,12-14.8
			c0.7-0.4,1.4-0.8,2.1-0.3c0.4,0.3,0.7,0.9,0.7,1.4c0.8,6,0.9,12,2.3,17.9c0.8,2.5,1.4,5.2,1.9,7.9
			C288.1,166,288.1,166.1,288.1,166.1z"/>
		<path class="st3" d="M256,106.6c-2,0.2-4,0.2-6-0.1c-2-0.4-3.9-1.2-5.6-2.3l-9.3-4.9c-1.7-1.1-3.6-1.8-5.6-1.9
			c-4.3,0-7.2,4.3-10,7.6c-7.1,8.3-18,12.7-28.6,14.9c4.6,10.5,7.4,21.7,8,33.1c0,0.4,0,0.8,0.2,1.2c0.6,0.9,1.8,0.8,2.9,0.8
			c5.7-0.3,13.2,4.2,18.6,6.3c9,3.4,11.8,7.7,21.3,6.4c3.6-0.6,8,0.3,11.5-1.1c2.8-1.2,5.7-1.5,8.4-3.4c2.2-1.7,4.1-3.5,5.8-5.7
			c4.7-5.7,13.2-18.3,16.7-24.9c0.9-1.5,2.1-4,1.5-5.7c-0.6-1.4-1-3-1.3-4.5c-0.8-3.6-1.8-7.2-3-10.7c-0.4-1.7-2.1-3-2.4-4.6
			c-0.4-1.3-1.1-2.4-2-3.4c-1.3-1.4-7.6,1-9.6,1.4C263.6,105.8,259.8,106.3,256,106.6z"/>
		<path class="st0" d="M273.9,96.4c-1.8-4.5-2.1-15.5-2.1-16.8c0-4.9,6-7.2,1.1-18c-1.2-2.9-3.2-6.6-6.5-7.5
			c-4.4-1.1-9.6,1.4-13.3,3.4c-3,1.8-6.2,3.3-9.4,4.5c-3.5,1-7.2,1.4-10.9,1.2c-6.4-0.2-13.3-0.9-19.4,0.9
			c-6.7,2-12.8,5.5-17.9,10.3c-1.1,1.1-2.3,2.1-3.6,2.9c-1.8,0.8-3.5,1.2-5.4,1.3c-2.6,0.2-5.4-0.3-8,0.1c-2.5,0.6-4.9,1.8-6.8,3.5
			c-1,0.9-1.8,1.9-2.2,3.1c-0.4,1.1-0.6,2.2-0.6,3.3c-0.2,0.9-0.2,1.9,0,2.8c0.8,2.1,2.2,4,4.1,5.3c2.4,1.9,5.3,3.3,7.5,5.5
			c2.3,2.4,3.6,5.6,5,8.7c0.3,1,1,1.9,1.8,2.6c0.7,0.4,1.3,0.7,2.1,0.8c4.7,1,9.9-0.7,13.9-3.3c3.3-2.2,8.2-3.5,10.9-6.5
			c2.5-2.6,5.2-5.4,7.5-8.2c0.4-0.6,0.9-1,1.4-1.3c3.5-2.3,10.4-0.2,13.5,2c1.5,1.1,2.9,2.8,4.5,3.6c1.5,0.7,3.2,1.1,4.9,1.2
			l4.9,0.7c1,0.2,2,0.2,3.1,0.2c1.4,0,2.8-0.2,4.1-0.6l10.5-2.2c2.2-0.4,4.5-1,5.8-2.8C274.1,97.2,274,96.8,273.9,96.4z"/>
		<path class="st4" d="M266.2,61.4c0.1,1.9-0.3,4,0.2,5.7c0.6,1.9,2.6,3.5,5.8,3.5c0.4,0,1,0,1.3-0.2c0.2-0.1,0.3-0.4,0.3-0.7
			c-0.1-1.1-0.7-2.1-1.4-2.9c-2-2.4-4.2-4.6-6.6-6.7c-0.4,2.5-0.1,5.1,1,7.4c0.6,1.4,1.9,2.5,3.3,2.9c0.9-1,1.2-2.3,1.1-3.6
			c-0.1-3.1-0.6-6.1-1.1-9c0.1,1.5,0.2,3,0.6,4.5c0.4,2.4,1.5,5,5,6c-2-3.3-4.2-6.4-6.6-9.4c-0.2,2.4,0.1,4.9,0.9,7.2
			c0.4,1.7,1.7,2.9,3.2,3.5c0.2,0.1,0.4,0.1,0.7,0.1c0.3,0,0.6-0.3,0.6-0.7c0.2-3.4-2.4-6.5-6.9-8.2c-0.8,0.6-1.3,1.4-1.3,2.3
			c-0.2,1.7-0.2,3.3,0.2,5c0.2,0.8,1,1.3,1.8,1.2l0,0c0.6-0.1,1.1-0.4,1.4-0.9c1.3-1.5,1-3.1,0.4-4.5c-0.3-1.3-1.2-2.5-2.4-3.2
			c0,2.9,0.9,5.6,2.5,7.9"/>
		<path class="st4" d="M180.3,94.5c0.1-1.8,0.8-3.5,0.4-5.3c-0.3-1.8-2-3.5-5.1-4c-0.4-0.1-0.9,0-1.3,0.1c-0.2,0.1-0.3,0.3-0.3,0.6
			c0,1,0.3,2,1,2.8c1.5,2.4,3.4,4.7,5.4,6.9c0.7-2.3,0.7-4.7-0.1-6.9c-0.4-1.4-1.4-2.5-2.8-3c-0.9,0.9-1.4,2.1-1.4,3.3
			c-0.2,2.9-0.2,5.6,0.1,8.5c0.1-1.4,0.1-2.8,0-4.2c-0.2-2.2-0.9-4.7-4-6.1c1.4,3.2,3.2,6.3,5.1,9.3c0.6-2.2,0.4-4.5,0-6.7
			c-0.2-1.5-1.2-2.9-2.5-3.6c-0.2-0.1-0.3-0.1-0.6-0.1c-0.3,0-0.6,0.2-0.7,0.6c-0.6,3.1,1.5,6.3,5.5,8.3c0.8-0.4,1.3-1.2,1.5-2
			c0.4-1.4,0.6-3,0.3-4.5c-0.1-0.8-0.8-1.3-1.5-1.3l0,0c-0.6,0-1,0.2-1.4,0.7c-1.1,1.1-1.4,2.8-1,4.2c0.2,1.3,0.9,2.4,1.9,3.2
			c0.3-2.6-0.2-5.3-1.4-7.6"/>
		<path class="st5" d="M407.1,373.2c0.3-0.4,0.6-1,1.1-1.2c0.3-0.2,0.9-0.1,1.1,0.3c0.1,0.3,0.1,0.7-0.1,1c-0.2,0.3-0.3,0.6-0.7,0.8
			l-0.6,0.6c-0.2,0.2-0.4,0.4-0.8,0.4c-0.3-0.1-0.6-0.4-0.6-0.8C406.8,373.8,406.9,373.5,407.1,373.2z"/>
		<path class="st5" d="M403.3,378.8c0.2-0.2,0.6-0.3,0.8-0.1c0.2,0.2,0.3,0.4,0.3,0.8c0,0.3-0.1,0.6-0.3,0.8c-0.2,0.3-0.6,0.7-1,0.9
			c-0.1,0.1-0.2,0.1-0.3,0.1c-0.2,0-0.4-0.2-0.4-0.6c0-0.7,0.2-1.3,0.6-1.9"/>
		<path class="st5" d="M397.3,384.3c-0.2,0.1-0.4,0.1-0.7,0c-0.2-0.2-0.3-0.4-0.2-0.8c0.2-0.7,1.8-2,2.5-1.7
			C400.4,382.5,397.8,384.1,397.3,384.3z"/>
		<path class="st5" d="M392.2,383c0.2,0.1,0.7,0,0.9,0.2c0.2,0.2,0,0.7-0.2,0.9c-0.3,0.2-0.7,0.3-1.1,0.4c-0.3,0.1-0.8,0-1-0.3
			c-0.1-0.2,0-0.6,0.1-0.7c0.1-0.2,0.3-0.3,0.6-0.4c0.2-0.1,0.4-0.2,0.6-0.1"/>
		<path class="st5" d="M311.9,405.5c0.3-0.4,0.8-0.8,1.3-0.9c0.4-0.1,0.9,0.1,1,0.6c0,0.3-0.1,0.7-0.3,0.9c-0.2,0.2-0.6,0.4-0.8,0.6
			l-0.7,0.3c-0.2,0.2-0.6,0.2-0.9,0.1c-0.3-0.2-0.4-0.6-0.3-0.9C311.4,405.9,311.6,405.7,311.9,405.5z"/>
		<path class="st5" d="M306.7,409.9c0.2-0.2,0.6-0.1,0.8,0.1s0.2,0.6,0.1,0.9c-0.1,0.2-0.3,0.6-0.6,0.7c-0.3,0.3-0.8,0.4-1.2,0.7
			c-0.1,0-0.2,0.1-0.3,0.1c-0.2-0.1-0.3-0.3-0.3-0.7c0.1-0.7,0.6-1.2,1.1-1.7"/>
		<path class="st5" d="M298.5,414.7c-0.2,0.1-0.6,0-0.7-0.1c-0.2-0.2-0.2-0.6,0-0.8c0.4-0.6,2.2-1.4,2.9-0.9
			C301.9,414,299,414.7,298.5,414.7z"/>
		<path class="st5" d="M294.8,410.9c0.2,0.2,0.7,0.2,0.8,0.4c0.1,0.2-0.1,0.7-0.4,0.8c-0.3,0.1-0.8,0.1-1.1,0.1
			c-0.3-0.1-0.8-0.2-0.8-0.6c0-0.2,0.1-0.6,0.3-0.7c0.2-0.1,0.4-0.2,0.7-0.3c0.2,0,0.4-0.1,0.6,0.1"/>
		<path class="st1" d="M294.4,153.6c-1.7-5.3-3.2-10.6-4.7-15.9s-2.9-10.7-4.6-16c-2.1-6.2-4.4-12.2-6.3-18.4
			c-1.9-5.8-3.9-12-4.5-18.2c-0.3-3.1,0.9-5.5,1.8-8.4c0.6-1.9,0.9-3.7,0.8-5.7c0.1-4.1-0.7-8-2.2-11.8c-1.3-3.1-3.3-6.1-6.5-7.4
			c-4.3-1.9-9,0.1-13.1,2c-4.6,2.2-9.2,5-14.6,5c-4,0-7.9-0.2-11.9,0c-5.6,0.2-11.1,1.2-16.3,3.1c-5.5,2.1-10,6-15.1,8.9
			c-2.3,1.4-5,2.4-7.7,3.1c-2.4,0.4-5,0.7-7.5,1c-4.9,0.6-10,1.8-12.9,6.2c-2.8,4.2-2.2,9.9,0,14.2c2,3.9,5.6,6.5,8.9,9.3
			c1.9,1.4,3.5,3,5,4.7c1.4,1.9,2.6,3.9,3.6,6.1c2.1,4.5,3.9,9.2,5.1,14c2.5,9.3,4.1,18.7,6.1,28.2c0.6,2.8,1.3,5.6,1.9,8.4
			c0,0.3,0.3,2,0.8,2c0.4-0.1,0.1-1.9,0.1-2.1c-1-5-2.2-9.8-3.1-14.7c-0.9-4.6-1.8-9.3-2.8-13.9c-2.1-9.5-4.5-19.3-9.4-27.8
			c-2.2-3.7-5.2-6.9-8.7-9.6c-1.8-1.3-3.3-2.8-4.9-4.3c-1.3-1.3-2.8-3.1-3.2-5.1c-0.4-2.4,1.1-5.3,2.8-7.1c1.8-1.8,4-3,6.4-3.5
			c4.7-1.3,9.8-1,14.6-2.3c5.5-1.5,9.9-5.5,14.7-8.4c4.9-2.9,10.3-4.7,15.8-5.5c4.6-0.7,9.4-0.9,14.1-0.8c1.5,0,3.2,0.1,4.7,0.1
			c2.4-0.1,4.9-0.7,7.2-1.7c7.2-2.9,17.5-10.6,24-2.3c1.9,2.5,3,5.6,3,8.7c0.1,1.9-0.2,3.9-0.8,5.6c-0.8,2.5-1.8,4.7-1.9,7.4
			c-0.1,5.8,1.5,11.9,3.1,17.5c1.7,6.1,3.7,12,5.8,17.9c2.1,5.8,4.2,11.9,5.8,18c1.2,4.6,2.5,9.3,3.9,13.9c0.8,2.6,1.5,5.2,2.3,7.8
			c0.1,0.4,0.3,1.2,0.8,0.7C295.2,155.8,294.6,154.2,294.4,153.6L294.4,153.6z"/>
		<path class="st1" d="M188,117.8c7.7,0.7,15.3-1.4,21.7-5.7c4.2-3,7.8-6.5,10.9-10.6c1.9-2.3,3.6-4.6,6.9-4.7
			c3.2-0.2,6.2,1.2,8.8,2.4c4.2,2,7.8,4.5,12.5,5.6c9.6,2.1,19.2-1.4,28.1-4.7c0.8-0.3-0.2-4.2-0.7-4.1c-7.8,2.9-16.2,6-24.7,5.3
			c-2.1-0.2-4.3-0.7-6.3-1.3c-2.3-0.9-4.6-2-6.7-3.3c-3-1.9-6.4-3.2-9.8-3.7c-3.5-0.4-6,1.1-8,3.7c-2.8,3.6-6,7.1-9.5,10
			c-6.7,5.3-15.2,7.9-23.8,7.3C187,113.6,187.1,117.7,188,117.8L188,117.8z"/>
		<path class="st1" d="M289.4,174.1c0.1,3.6-0.1,7.3-0.1,10.9c0,6.6-0.1,13.2-0.4,19.8c-0.3,6.7-0.9,13.5-1.9,20.1
			c-1,6.3-2.2,12.8-5.7,18.3c-1.2,2.3-3.1,4.3-5.2,5.8c-2,1.2-4.1,2.1-6.4,2.6c-4.4,1-9.5,0.9-13.5-1.3c-4.6-2.6-8.6-7.2-11.9-11.4
			c-3.6-4.6-6.8-9.6-9.8-14.7c-7.5-12.8-14.9-25.9-19.2-40.1c-0.1-0.4-0.3-1.2-0.8-0.7c-0.3,0.7,0.1,2.2,0.3,2.9
			c4.1,13.3,10.6,25.8,17.5,37.8c5.7,10.1,11.9,20.6,21.1,28c1.8,1.5,4,2.8,6.2,3.5c2.3,0.7,4.7,0.9,7.1,0.7c4.5-0.3,9.4-2,12.5-5.4
			c4.2-4.7,6.2-10.9,7.5-16.9c1.3-6.7,2.2-13.6,2.6-20.4c0.6-8.2,0.8-16.2,0.8-24.4c0-4.4,0.2-8.7,0.1-13.1c0-0.7-0.1-2.3-0.7-2.8
			C289,173.1,289.3,173.6,289.4,174.1L289.4,174.1z"/>
		<path class="st1" d="M348.5,267.4c6.1-0.1,12.2-2.2,17.8-4.6c14.6-6.4,26.5-18,35.2-31.1c10.5-15.8,18.2-34.2,20.2-53.1
			c1.4-13.6-0.3-27.2-5.3-39.9c-2.2-5.6,3.1-12.2,8.2-14.3c5.8-2.3,11.7,0.6,15.4,5.2c2.6,3.4,4.7,7.1,6.5,11
			c2.4,5.3,4.4,10.8,5.8,16.3c3.7,13.2,4.7,27,3,40.7c-1,7.3-3.1,14.4-6.3,21.2c-3.3,6.4-7.3,12.4-12,17.8
			c-8.3,9.9-17.8,18.6-29.2,24.6c-13.8,7.2-29.3,10.4-44.8,11.6c-5,0.4-9.9,0.7-14.9,0.8c-0.4,0-0.1,4.1,0.7,4.1
			c17.3-0.3,35.1-2.1,51.3-8.6c12.1-5,23.2-12.5,32.1-22.2c4.7-5,9.2-10.3,13.1-16c4.2-6.3,7.3-13.2,9.3-20.5
			c3.9-14.2,3.5-29.4,1-43.9c-2.1-11.9-5.7-23.9-11.6-34.5c-1.9-3.4-4.1-6.9-7.2-9.4c-2.8-2.3-6.3-3.4-9.9-3.1
			c-3.2,0.4-6.1,2.1-8.2,4.4c-2.2,2.4-3.5,5.4-3.7,8.7c-0.3,3.6,0.7,6.9,2,10.4c2.1,5.6,3.4,11.6,4,17.6
			c1.5,17.2-3.2,34.6-10.6,50.1c-8.2,17.1-19.5,33.2-35.7,43.4c-7.5,4.6-16.3,8.5-25.3,9.2c-0.4,0.1-0.9,0.1-1.3,0.1
			S347.6,267.4,348.5,267.4L348.5,267.4z"/>
		<path class="st1" d="M248.8,85.4c-0.4,0.4-1,0.7-1.5,0.8c-0.7,0-1.2-0.3-1.5-0.9c-0.3-0.6-0.7-1.1-0.8-1.8c-0.3-0.8-0.3-1.8,0-2.6
			c0.2-0.3,0.4-0.7,0.8-0.9c0.6-0.4,1.4-0.6,2.1-0.3c0.9,0.6,1.4,1.3,1.5,2.3C249.7,83.4,250.1,84.3,248.8,85.4z"/>
		<path class="st1" d="M201.4,89.7c0.4-0.4,1-0.7,1.7-0.7c0.7,0.1,1.2,0.4,1.5,1c0.3,0.6,0.6,1.1,0.8,1.8c0.3,0.9,0.3,1.8,0,2.6
			c-0.2,0.3-0.6,0.7-0.9,0.9c-0.6,0.4-1.4,0.6-2.1,0.3C200.5,94.7,200,91.2,201.4,89.7z"/>
		<path class="st1" d="M227.6,95.8c-2.3,0.4-4.5-0.9-6.4-2.3c-0.6-0.4-1-0.9-1.3-1.4s-0.3-1.3,0.1-1.9c0.2-0.2,0.4-0.4,0.8-0.6
			c2.4-1.4,8.6-3.3,11.2-1.4C235.2,90.4,230,95.4,227.6,95.8z"/>
		<path class="st1" d="M264.6,55.1c-0.7,0.9-1.1,2-1.2,3c-0.3,1.2-0.6,2.4-0.7,3.6c-0.2,2.5,0.2,5.1,1.1,7.4
			c1.3,3.7,4.5,6.5,8.4,7.4c0.3,0.1,0.1-2,0.1-2.1c-0.1-0.4-0.2-1.9-0.8-2c-3-0.7-5.5-2.5-6.9-5.2c-0.6-0.9-0.8-2-0.6-3.1
			c0.1-0.9,0.3-1.9,0.6-2.8c0.1-0.9,0.4-1.8,1-2.4c0.4-0.4,0-2.1-0.1-2.5C265.4,56.2,265.1,54.8,264.6,55.1L264.6,55.1z"/>
		<path class="st1" d="M176.6,83.8c0.8,0.1,1.4,0.9,2.1,1.4c0.7,0.6,1.3,1.2,2,1.9c1.1,1,1.9,2.3,2.2,3.7c0.4,2.4-1.1,5.5-2.9,7.4
			c-0.4,0.4,0,2,0.1,2.5c0,0.2,0.4,1.8,0.8,1.3c3.1-3.2,3.5-7.7,2.6-11.9c-0.4-2.2-1.3-4.3-2.6-6.1c-0.8-0.9-1.5-1.8-2.4-2.5
			c-0.8-0.7-1.7-1.7-2.6-1.8C175.6,79.8,175.6,83.8,176.6,83.8L176.6,83.8z"/>
		<path class="st1" d="M226.8,95c0.2,2.3,0.7,4.5,1.3,6.7c0.6,1.7,1.4,3.7,3.1,4.6c1.4,0.7,3,0.8,4.5,0.3c1.5-0.2,3-1,3.9-2.3
			c0.1-0.3,0.1-0.7,0.1-1c0-0.6-0.1-1.1-0.2-1.5c0-0.2-0.6-1.8-0.8-1.3c-0.8,1.1-2,1.9-3.3,2.1c-1.3,0.3-2.8,0.4-4.1,0.1
			c-1.3-0.4-2.3-1.5-2.8-2.9c-0.1-0.1-0.1-0.3-0.1-0.4c0,0-0.2-0.6,0-0.2c0-0.2-0.1-0.3-0.1-0.6s0-0.2,0,0c0-0.1,0-0.2,0-0.3
			c0-0.1-0.1-0.4-0.1-0.7c0-0.2-0.1-0.7,0-0.2c-0.1-0.4-0.1-0.9-0.2-1.3c0-0.6-0.1-1.1-0.2-1.5c0-0.2-0.2-0.8-0.4-0.9
			C226.6,93.2,226.7,94.8,226.8,95L226.8,95z"/>
		<path class="st1" d="M228.4,102.7c-0.1-0.4,0-1-0.2-1.4c0-0.2,0,0.1,0,0c0,0.2-0.1,0.3-0.1,0.6c-0.1,0.4-0.3,0.9-0.7,1.2
			c-0.7,0.8-1.5,1.3-2.5,1.5c-1,0.2-2,0.3-3,0.1c-0.8-0.1-1.5-0.6-2-1.3c0-0.2-0.2-0.3-0.3-0.1c-0.1,0.1-0.1,0.8-0.1,1
			c0,1,0.2,1.9,0.7,2.8c0.6,1,1.5,1.5,2.6,1.7c1.3,0.2,2.6,0,3.9-0.4c1.1-0.4,2-1.3,2.4-2.4c0.6-1.8,0.6-3.6-0.1-5.4
			c0-0.2-0.6-1.4-0.8-0.7C228,100.7,228.1,101.7,228.4,102.7L228.4,102.7z"/>
		<path class="st1" d="M278.7,140.5c-3.9,10.1-10.6,20.1-20.5,25c-5.6,2.9-11.8,3.1-18,2.4c-6.2-0.8-12.1-2.3-17.8-4.9
			c-6.4-2.6-12.4-6.2-17.8-10.5c-0.4-0.3-0.3,1.4-0.3,1.5c0.1,0.7,0.2,2,0.8,2.4c9.6,7.7,21.1,12.9,33.3,15c6.2,1,12.8,1.2,18.6-1.1
			c5.2-2.2,9.7-5.6,13.2-9.9c4-4.9,7.2-10.4,9.4-16.2c0.2-0.9,0.1-1.8-0.1-2.5C279.5,141.6,278.9,140.1,278.7,140.5L278.7,140.5z"/>
		<path class="st1" d="M252.2,149.1c0.6,0.4,1,1,1.4,1.5l-0.1-0.2c0.4,0.7,0.9,1.3,1.3,2c0,0.2,0.2,0.3,0.3,0.1
			c0.1-0.3,0.1-0.7,0.1-1c0-1-0.2-1.9-0.7-2.8c-0.8-1.4-1.7-2.6-2.9-3.7c-0.2-0.2-0.3,0.1-0.3,0.2c-0.1,0.4-0.1,0.9,0,1.2
			c0,0.6,0.1,1.1,0.3,1.5C251.7,148.5,251.9,148.8,252.2,149.1L252.2,149.1z"/>
		<path class="st1" d="M248.7,151.4l0.3,0.6v0.1c0-0.1-0.1-0.1,0-0.1c0,0.1,0.1,0.2,0.1,0.2c0.2,0.3,0.3,0.8,0.4,1.1
			c0.1,0.4-0.1-0.3,0,0c0,0.1,0,0.2,0,0.3l0.2,0.6c0.1,0.3-0.1-0.4,0-0.1c0,0.1,0,0.2,0,0.3s0,0.2,0.1,0.3c0.1,0.4-0.1-0.4,0-0.1
			c0.1,0.4,0.2,1,0.4,1.4c0,0.1,0.2,0.6,0.4,0.6s0.2-0.6,0.2-0.7c0-0.4,0-1-0.1-1.4c-0.4-2.3-1.2-4.6-2.3-6.7c0-0.1-0.2-0.3-0.3-0.1
			s-0.1,0.8-0.1,1C248.1,149.6,248.3,150.6,248.7,151.4L248.7,151.4z"/>
		<path class="st1" d="M241.7,150.2c-0.1,2.1,0,4.2,0.3,6.3c0,0.6,0.1,1.1,0.3,1.5c0,0.2,0.2,0.8,0.4,0.9c0.4,0.3,0.3-1.4,0.3-1.5
			c-0.1-0.4-0.1-0.9-0.1-1.3c0-0.1,0-0.2-0.1-0.3v0.3c0-0.1,0-0.1,0-0.2v-0.7c0-0.2-0.1-0.4,0-0.7c0-0.2,0-0.2,0-0.3v-0.2v0.2
			c0-0.4,0-0.9,0-1.3c0-0.4,0-1-0.1-1.4c-0.1-0.4-0.2-1-0.4-1.4c0-0.1-0.2-0.6-0.4-0.6S241.7,150.1,241.7,150.2L241.7,150.2z"/>
		<path class="st1" d="M237,148.4c-0.9,1.2-1.3,2.8-1.2,4.3c0,0.6,0.1,1.1,0.2,1.5c0,0.2,0.1,0.4,0.2,0.7c0.1,0.2,0.1,0.3,0.2,0.6
			c0.1,0.1,0.2,0.3,0.3,0.1l0.1-0.2c0-0.2,0-0.6,0-0.8v-0.1c0-0.2,0,0.3,0,0.2v-0.2c0-0.1,0-0.1,0-0.2v0.2v-0.1
			c0-0.2,0.1-0.6,0.2-0.8l-0.1,0.2c0.2-0.6,0.4-1.1,0.9-1.7c0.1-0.1,0.1-0.2,0.1-0.4c0-0.2,0-0.4,0-0.6c0-0.6-0.1-1.1-0.3-1.5
			c-0.1-0.4-0.2-0.8-0.4-1.2H237c0-0.1-0.1-0.1-0.1,0c0,0,0,0-0.1,0.1L237,148.4z"/>
		<path class="st1" d="M214,170.2c-18.5-2.6-33.7-14.3-46.3-27.5c-5.6-5.8-10.8-12-16.1-18.1c-4-4.5-8.2-9.8-13.5-12.8
			c-1.8-1-4.2-1.9-6.1-0.8c-1.9,1.1-2.5,3.4-2.8,5.5c-0.3,3.7,0,7.5,1,11.1c1.2,5,2.9,9.7,5.1,14.3c4.6,10.3,10.8,19.6,18.4,27.9
			c7.1,7.5,14.7,14.4,22.9,20.6c10.6,8.2,21.8,15.3,33.5,21.6l0.6,0.3l-0.6-1.3c2.6,12.1,6,24.1,9.9,35.9
			c7.3,22.6,16.4,45.3,30,65.1c1.7,2.3,3.3,4.6,5.1,6.9c0.9,1.1,1.8,2.2,2.6,3.3c0.9,1.1,2.2,2.2,2.8,3c0.8,1.2,1.3,2.5,2,3.7
			c2.1,4,4.2,7.8,6.3,11.8c4,7.2,8.3,14.2,11.9,21.5c5.8,11.6,10.3,24.3,11.5,37.2c0.6,6.3-0.9,12.6,0.6,18.9c0.6,2.5,1.8,6.3,5,6.3
			c1.8-0.2,3.4-0.7,5-1.5c1.9-0.8,3.7-1.5,5.5-2.5c3-1.4,5.5-3.7,7.4-6.5c1.4-2.5,2.2-5.3,2.3-8.2c0.1-4.9-0.2-9.8-0.9-14.6
			c-1-8.2-2.2-16.3-2.1-24.5c0.1-6.9,0.8-16.5,7.3-20.8c3.3-2.2,7.4-2.3,11.1-1.7c7.5,1.4,14.8,3.7,21.6,6.9
			c10.9,5.1,21.8,12.5,28.9,22.4c3.4,4.9,5.5,10.6,8.4,15.8c1.7,3,3.9,6.7,7.8,6.2c5.6-0.8,10.3-6.3,12.6-11c2.6-5.5,3-12.4,0-17.8
			c-2.1-3.5-4.4-6.8-6.9-9.9c-3.4-4.5-7.1-8.9-10.6-13.3c-12-14.9-24.7-29.2-34.3-45.9c-8-13.7-14.9-28.1-21.7-42.5
			c-7.3-15.3-14.3-30.9-20.4-46.8c-2.9-7.4-5.4-14.8-7.7-22.4l0.1,3.2c4.9-1.2,9.7-2.8,14.3-4.5c9.3-3.4,18.2-7.9,26.2-13.6
			c6.4-4.6,12.4-9.7,17.8-15.4c4.9-5.1,9.6-10.5,12.9-16.7c2-3.9,3.5-9.3,0.8-13.2c-2.2-3.2-6.7-2.2-9.7-1
			c-5.4,2.1-10.4,5.5-15.2,8.5c-6.8,4.3-13.8,8.3-21,11.9c-8.6,4.2-17.6,7.4-26.9,9.4c-5.4,1.1-10.7,2.3-16.2,1.8
			c-1.9-0.2-3.7-0.7-5.4-1.4c-0.6-0.2-0.3,1.3-0.3,1.5c0.1,0.4,0.2,2.2,0.8,2.4c6,2.8,13.1,1.8,19.3,0.3c6.9-1.4,13.8-3.4,20.4-6
			c7.7-3.1,15.2-6.8,22.4-11.2c5.6-3.3,11.1-6.9,16.9-10.3c3.4-2,7.6-4.5,11.8-4.2c0.8,0,1.5,0.2,2.3,0.7c0.7,0.3,1,1,1.5,1.4
			c0.6,0.3-0.3-0.7-0.1-0.8c0,0-0.1,1.1-0.1,1.2c-0.2,1.1-0.7,2.2-1.1,3.3c-2.5,5.8-6.8,10.9-11.1,15.5c-5.3,5.8-11,11.1-17.2,15.9
			c-12.5,9.5-27.5,16.1-42.6,20l-1,0.2c-0.7,0.1,0,2.8,0.1,3.1c6.7,21.8,15.8,42.9,25.4,63.5c4.7,10.1,9.7,20.3,14.7,30.3
			c4.3,8.5,8.7,16.9,13.8,24.9c6.2,9.8,13.5,18.9,20.8,27.9c5.1,6.3,10.3,12.5,15.2,18.7c4.2,5,8,10.1,11.7,15.5
			c0.9,1.2,1.4,2.6,1.4,4.1c-0.1,2.2-0.6,4.4-1.5,6.4c-1.8,4.2-4.9,7.8-8.7,10.1c-2.1,1.2-5,2.3-7.3,1c-2.5-1.5-3.9-4.7-5.1-7.2
			c-1.9-3.9-3.5-7.8-5.7-11.5c-1.9-3-4-5.7-6.4-8.2c-6.1-6.2-13-11.2-20.7-15.1c-4.3-2.2-8.8-4.1-13.5-5.6c-4.5-1.7-9.3-2.8-14-3.4
			c-5-0.4-9.6,1.1-12.5,5.3s-3.9,9.9-4.2,15.1c-0.3,6.2-0.1,12.4,0.7,18.5c0.6,5,1.3,9.8,1.8,14.8c0.4,3.9,0.9,7.9,0.2,11.7
			c-0.9,4.9-4,8.2-8,10.6c-2.3,1.3-4.7,2.4-7.3,3.4c-1.9,0.7-4.5,2-6.3,0.6c-2-1.8-1.8-5.1-1.8-7.4c0.1-2.4,0.3-5.1,0.3-7.6
			c-0.2-6.8-1.3-13.7-3.2-20.3c-2.6-10-6.5-19.8-11.5-29c-4.5-8.5-9.5-16.8-14-25.1c-1.1-2-2.2-4-3.2-6.1c-0.2-0.6-0.6-1-0.8-1.5
			c0-0.1-0.1-0.3-0.2-0.4c-0.2-0.3,0.1,0.2,0,0c-0.8-1-1.5-2-2.4-3c-1.3-1.4-2.5-3-3.7-4.5c-2.5-3.2-4.9-6.6-7.1-10
			c-9-14.1-16-29.6-21.7-45.2c-4.6-12.5-8.6-25-11.9-37.8c-0.9-3.4-1.8-6.7-2.4-10.1c-0.1-0.6-0.2-1.2-0.3-1.8
			c-0.1-0.9-0.7-1.5-1.4-1.9c-10-5.4-19.6-11.5-28.8-18.2c-14.3-10.4-28.3-22.5-37.9-37.6c-5.2-8.3-10.3-17.4-12-27.1
			c-0.6-3.3-1.1-9.9,3.6-10.5c2.2-0.2,4.4,1.1,6.2,2.3c2,1.5,3.9,3.2,5.6,5c4.3,4.4,8.4,9.3,12.4,14c10.1,11.7,21,23.2,34.5,30.8
			c6.7,3.9,14.1,6.4,21.8,7.6C215,174.3,215,170.4,214,170.2L214,170.2z"/>
	</g>
</g>
<g id="圖層_2_2_">
	<g id="圖層_1-2_1_">
		<path class="st5" d="M142.4,69.4c0.1,5.2-7.9,8.3-12.1,9.1c-2.1,0.4-4.3,0.6-6.1,1.8c-2.1,1.4-3.1,3.8-4.1,6.1
			c-4,9-10,17.5-18.2,22.9c-10.7,7-24,8.4-36.8,8.7c-11.5,0.2-23.3-0.3-34.3-4S9.7,103.1,4.6,92.7c-8.5-17.5-0.2-39.9,15.3-51.6
			s36.2-14.7,55.6-13.2c18.1,1.4,37.6,7.4,47.1,22.8c3.1,5.1,5.1,11.1,9.5,15.1C134.9,68.5,138.9,68.8,142.4,69.4z"/>
		<path class="st1" d="M132.4,66.3c0-0.6,0.2-1.9-0.3-2.3c-2.2-2.1-4-4.6-5.3-7.3c-1.5-2.7-2.7-5.5-4.4-8.1
			c-1.5-2.3-3.2-4.5-5.1-6.4c-3.8-3.8-8.3-6.9-13.2-9.1c-10.2-4.9-21.8-6.9-33.2-7.3c-23.6-0.9-50.2,5.5-63.2,27.1
			c-5.8,9.5-8.1,20.7-6.4,31.8c1.9,11.4,9.2,20.5,19,26.4c11.7,7.1,25.6,8.8,39,8.8c12.9,0.1,26.7-0.4,38.5-6.4
			c5.5-2.8,10.3-6.7,14.1-11.5c3.9-4.8,6.5-10.2,9.2-15.7c0.6-1.4,1.5-2.7,2.7-3.8c1.2-0.9,2.7-1.5,4.2-1.7c2.4-0.4,4.7-1,6.9-1.8
			c2.1-0.8,4-2,5.7-3.5c1.6-1.6,2.4-3.9,2.3-6.1c0-0.2,0-1.8-0.4-1.9c-3.7-0.6-7.4-1-10.4-3.6c-0.4-0.3-0.5,1.1-0.5,1.3
			c0,0.5-0.2,1.9,0.3,2.3c3,2.6,6.8,3.1,10.6,3.7l-0.4-1.8c0-0.4-0.1,0.1-0.1,0.2c-0.1,0.2-0.2,0.5-0.3,0.8
			c-0.2,0.4-0.5,0.8-0.8,1.1c-0.7,0.8-1.5,1.4-2.4,2c-1.9,1.2-4,2.1-6.1,2.7c-2.4,0.7-5.1,0.7-7.3,1.9c-2.4,1.2-3.6,3.7-4.7,6.1
			c-1.2,2.7-2.6,5.4-4.1,8c-3,5.1-6.9,9.7-11.6,13.4c-5,3.8-10.7,6.5-16.8,8c-6,1.5-12.2,2.3-18.5,2.5c-6.7,0.3-13.5,0.3-20.2-0.3
			c-12.6-1.1-25.2-4.6-34.9-12.8C6.2,96,0.9,86,1.7,75.2c0.8-10.5,6.2-20.7,13.5-28.1C32,30.2,59.1,27.4,81.6,30.4
			c10.6,1.4,21.4,4.5,30.1,10.8c4.2,3,7.9,6.8,10.6,11.3c3.1,5.1,5.1,10.9,9.5,15.1C132.2,67.9,132.4,66.5,132.4,66.3z"/>
	</g>
</g>
</svg>
