<svg xmlns="http://www.w3.org/2000/svg" viewBox="0 0 634.19 492.16"><defs><style>.cls-1{fill:#484235;}.cls-2{fill:#2b2720;}.cls-3{fill:#e4c15d;}.cls-4{fill:#eeede7;}.cls-5{fill:#fff;}.cls-6{fill:#898989;}.cls-7{fill:#fbdab9;}.cls-8{fill:#2b271f;}</style></defs><g id="圖層_2" data-name="圖層 2"><g id="圖層_1-2" data-name="圖層 1"><path class="cls-1" d="M14.11,174.26C25.8,157.32,47.44,170.74,45,186c-4.14,25.68,1.15,61.76,38.12,101.37,13.59,14.58,30.3,26.73,49.52,32.56a81,81,0,0,0,18.19,3.42,75,75,0,0,0,9.36.05c2.92-.15,5.83-.8,8.78-.69l.39,0a3,3,0,0,1,2.56,1.1,3,3,0,0,1,.17,1.83c-.38,2.93-1.33,6-3.61,7.84a13.47,13.47,0,0,1-5.9,2.19c-2.11.43-4.12,1.21-6.24,1.52-5.46.9-10.93,1.66-16.46,2.2a169,169,0,0,1-28.63.54,113.22,113.22,0,0,1-44.85-12.64,161.61,161.61,0,0,1-28.3-19.61C-7.8,269.31,2.42,191.17,14.11,174.26Z"/><path class="cls-2" d="M53.06,262.47c-9.4-6.05-11.59-18-13.68-28.16a239.42,239.42,0,0,1-4.74-40.82l1.18,1.31a123.13,123.13,0,0,0,8,54.06l-.51,4.27q-6-26.58-13.44-52.79l.9-.6c-1,21.47-.54,43.36,6.62,63.86l-.51,4.28a313.67,313.67,0,0,1-11.49-63.6l1,2.28C20,229,23.63,252.76,35.48,272.74a96.66,96.66,0,0,0,11.89,15.91c.67.73.59,2.4.58,3.31,0,.22-.16,2.41-.64,1.91-17.17-18-24.74-42-28.76-66-1.25-7.5-2.22-15-3.19-22.57l1.12.59c-.89,11.44-1.47,23.1.72,34.41,2.29,12.07,8.35,22.31,14.85,32.55q5.58,8.73,11.15,17.56L43,295.38c-3.24-6.36-7.78-11.9-11.9-17.67a121.48,121.48,0,0,1-10.28-17.1,115.3,115.3,0,0,1-11-38l1.13-.78c1.24,24.76,10.73,48.53,25.46,68.42a5.75,5.75,0,0,1,.57,3.29c0,.24-.13,2.4-.63,1.93a95.53,95.53,0,0,1-24-36.31c-5.16-14.26-7.54-30.6-2.67-45.26,2.77-8.37,7.32-16,11.84-23.52.34-.58.73,1.2.73,1.2a8.38,8.38,0,0,1,.07,3.27,104.91,104.91,0,0,0,5.45,63.31l-.72,3c-3-26.2-5.79-52.69-2.21-79,.08-.52.19-.92.62-.59s.48,2,.5,2.45c.73,25.69,1.44,51.51,5.76,76.91l-1,1.41a385.72,385.72,0,0,1,4.88-76.95c.11-.71.23-.94.7-.46s.44,2.33.43,3c-.39,10.67-2.21,21.22-2.83,31.88a62.14,62.14,0,0,0,5.45,29.9,101.56,101.56,0,0,0,9.33,16,6,6,0,0,1,.57,3.3c0,.2-.27,2.45-.63,1.92-6.47-9.24-11.82-19.27-14.32-30.32-2.57-11.33-1.84-22.86-.6-34.32.67-6.55,1.58-13.1,1.81-19.69l1.13,2.57a366.61,366.61,0,0,0-4.87,73.24c0,.45.21,2.3-.3,2.62s-.69-1-.74-1.2c-4.46-26.31-5.3-53-6.06-79.63l1.1,1.86c-3.35,24.53-.54,49.28,2.25,73.71a6.68,6.68,0,0,1-.08,2.85c-.13.36-.35.95-.64.24a120.26,120.26,0,0,1-6.12-71.78l.81,4.48C14.52,208,7,220.94,8.32,236c1.2,13.16,6.31,26,13.51,37a98.15,98.15,0,0,0,14.46,17.3l-.06,5.22A135.62,135.62,0,0,1,9.67,221.92c0-.37-.18-2.54.38-2.67s.72,1.61.75,1.89A106.32,106.32,0,0,0,22,257.63a122.35,122.35,0,0,0,10.48,16.75c3.88,5.29,7.89,10.48,10.88,16.34a7.26,7.26,0,0,1,.41,3.36c0,.16-.28,2.12-.62,1.6l-11-17.28A173.48,173.48,0,0,1,22.51,262c-5.64-11.43-7.71-24.09-8-36.73-.17-7.36.26-14.71.79-22.07,0-.32.07-1.39.54-1.32s.55,1.67.58,1.91c3.08,24,6.45,48.63,19.29,69.64a89.1,89.1,0,0,0,11.65,15.2l-.06,5.22a97.68,97.68,0,0,1-25.26-70.82A92.57,92.57,0,0,1,25.59,202c.4-1.4,1,2.05,1,2.28a295.59,295.59,0,0,0,11,59.79,8.68,8.68,0,0,1,.22,3.55c0,.3-.38,1.74-.73.74-8-22.86-8.56-47.29-7.41-71.23,0-.86.48-2,.91-.59Q38,222.68,44,249.28a9.43,9.43,0,0,1,.17,3.55c0,.32-.35,1.72-.73.74a140.63,140.63,0,0,1-8.78-61.4c0-.31.1-1.59.62-1.28s.55,2.08.56,2.58a221.72,221.72,0,0,0,4.31,37.4c2,9.7,4,20.67,13,26.39.7.45.59,2.59.58,3.3,0,.31,0,2.31-.64,1.92Z"/><path class="cls-2" d="M165.59,325.1a39.87,39.87,0,0,1-7.07.7A77.64,77.64,0,0,1,140,324c-22.1-4.7-41.46-17.76-56.91-33.91-17-17.83-31.59-39.22-38-63.29a102.23,102.23,0,0,1-2.67-13.65A89.19,89.19,0,0,1,41.81,201a87.92,87.92,0,0,1,.85-11c.66-4.67.91-9.32-.88-13.8-3-7.46-11-13.05-19.2-11.89-7.21,1-12,6.92-14.77,13.22a82.89,82.89,0,0,0-5,17.26A152.6,152.6,0,0,0,.12,218.69c-.66,18.6,1.47,37.54,7.73,55.13A101.11,101.11,0,0,0,21,299.15c5.75,7.94,12.85,14.39,20.51,20.43C55.06,330.28,70,339.26,86.7,344c20.12,5.72,41.41,5.3,62,2.45,6.58-.91,13.12-2.08,19.63-3.42,1-.22.51-5.11,0-5-22.23,4.58-45.43,7.43-68,3.93a116.58,116.58,0,0,1-47.6-19.22A162,162,0,0,1,31.42,306a88.9,88.9,0,0,1-17.14-23c-8.5-16.21-12.41-34.59-13.09-52.77a145.37,145.37,0,0,1,1-23.52,106.86,106.86,0,0,1,4-19.08c1.65-5.18,3.74-10.34,7.81-14.11,6.55-6.06,16.29-5.34,22.67.6,2.75,2.56,5,6.11,5.4,9.93,0-.29,0,.51,0,.08,0,0,0,.85,0,.42a7.64,7.64,0,0,1-.12,1.06c-.14,1-.29,1.92-.42,2.89-.26,2-.46,4.06-.61,6.09a109.81,109.81,0,0,0,1.39,26.61c3.88,22.29,14.81,42.74,28.79,60.32,15.29,19.23,34.4,36.23,57.92,44.42,11,3.82,23.23,6,34.87,4.41.55-.07,1.11-.15,1.65-.27,1-.23.5-5.11,0-5Z"/><path class="cls-1" d="M184.32,199.14s-25.22,2.28-51-4.2c-27.75-7-70.84-32-58.1-41.7,11.31-8.73,49.93,14.78,97.64,8.8,0,0,10.47-.38,18.93-4l-.71-4.86c-.13-5.3-.24-10.61-.43-15.92-.1-3.13-2-10,.9-12.06a3,3,0,0,1,4.12.54,5.4,5.4,0,0,1,.62,2.68c.29,4.47.07,5.51,1.3,9.67,2.8,9.49,1.74,11.87,2.3,15.69,1.08,7.39.66,10.33,2.72,17.51,3.88,13.52,10.83,34.32,16.79,47.07,4.41,9.4,3.52,7.57,6.79,17.4,2.19,6.56,13,20.74,19.09,24.09,4.66,2.57,18.25,8.65,31.66-6.05,11.4-12.49,23.92-60,26.06-76.76q1.77-13.84,2.67-27.77c.24-3.68-.51-7.62-.76-11.33l-.9-13c-.08-1.43-.14-3,.71-4.15,1.61,3.58,1,7.71,1.49,11.6a1,1,0,0,0,.23.63.91.91,0,0,0,.73.15c5.87-1.33,13.81-8.11,16.74-13.08,5.2-8.8,3.74-15.72,1.79-24.22C322.2,80.5,305.1,69.2,302.17,53.69c-.27-1.44-.37-3.08.54-4.22A5.22,5.22,0,0,1,305.26,48c11.56-3.79,23.46,1.25,32.55,9.33s38.52,53.5,14.48,87.78c-3.48,5-5.71,10.54-9.32,15.42-5.74,7.74-14.68,11.3-21.06,18.53-.9,1-7.83,7-7.68,8.34,0,0,11.18,99.16-15.34,156.51,0,0-1.46,11.64-7.87,42.89s-2.6,55.35.47,65.95c1.84,6.38,6.32,13.91,5.48,20.73-.38,2.94-2.07,4.55-5.09,4.57-5.54,0-12.21-.52-17.53-2.34-11-3.78-12.81-13.68-15.15-23.78-3.95-16.93-10-73.83-40.55-56.62s-48.14,43.93-50.8,63c-.82,5.81-1.23,11.79-2.62,17.51-1.25,5.24-5.74,8.64-11.12,9.38a14.34,14.34,0,0,1-9.88-2.3A23.9,23.9,0,0,1,140,479c-2.58-2.88-4.55-5.92-5.14-9.78-.53-3.67-2.19-6.7-1.45-10.61,2.16-11.21,18.42-51.3,23.87-66.26s10.72-28.08,16.4-67.49c.24-1.63.48-3.29.7-4.95.63-4.33,1.25-8.74,1.84-13.19C180.94,271.6,185.05,232.87,184.32,199.14Z"/><path class="cls-2" d="M100.51,155.53a260.47,260.47,0,0,0,65,21.09c1.12.2,1.36,5.38.78,5.35a207,207,0,0,1-28.69-4,275.93,275.93,0,0,1-30.75-7.71,87.32,87.32,0,0,1-12.49-4.87l-.44-5.2a139,139,0,0,0,29.2,14.58c9.29,3.47,19.15,6.54,29.13,7.08,1.12.06,1.39,5.36.78,5.34-17.17-.58-34.75-1.43-50.46-9.14l-.45-5.2a53.18,53.18,0,0,0,32.47,9.56c.91,0,1.63,5.18.78,5.35-13.76,2.66-28-2.83-37.43-13-.46-.48-1.59-5.23-.62-5.27l30.12-1.37c10-.46,20.29-.52,30.26-2.34l.78,5.34a65.06,65.06,0,0,0-12.17-1.91,79.72,79.72,0,0,1-12-2.12c-8.39-2.07-16.62-4.84-25.16-6.2-1.25-.2-1.19-5.42-.79-5.36,8.58,1.38,16.78,4.14,25.17,6.21a77.84,77.84,0,0,0,11.74,2.1,66.07,66.07,0,0,1,12.42,1.94c.92.25,1.66,5.18.78,5.34-10,1.82-20.16,1.94-30.26,2.35L98.12,174.8l-.61-5.28c9.42,10.07,23.41,15.45,37.09,12.76l.78,5.35a53.78,53.78,0,0,1-32.8-9.71c-.75-.51-.83-2.42-.9-3.23,0-.32-.19-2.29.45-2,15.58,7.64,33.11,8.42,50.14,9l.78,5.34c-10.19-.53-20.21-3.7-29.67-7.27a140.81,140.81,0,0,1-29-14.5c-.75-.51-.83-2.44-.89-3.24,0-.32-.2-2.29.45-2,7.94,4,16.8,6.3,25.37,8.48a316.86,316.86,0,0,0,31.43,6.37c4.89.73,9.84,1.35,14.79,1.61l.78,5.35A261.8,261.8,0,0,1,101,160.68c-.74-.35-.84-2.55-.9-3.23,0-.33-.2-2.28.45-2Z"/><path class="cls-2" d="M268.71,458.84c1.17-4.59-.6-8.68-2.6-12.76A94.45,94.45,0,0,1,260.68,434c-2.63-8-3-16.82-8.47-23.67l-.26-5c8.3,16,12,33.37,13.84,51.15l-1.2-3.19c2.38-3.48,3-7.52,3.2-11.7a60.32,60.32,0,0,0-.9-13,67.29,67.29,0,0,0-10-24.65l-.09-4.7c4.86,9.54,7.32,20.33,10.37,30.55q4.51,15.07,9,30.15a8.72,8.72,0,0,1,.38,3.25c0,.35-.29,1.32-.65.53-6.56-14.4-12.64-29-19.19-43.38A9.21,9.21,0,0,1,256,417c0-.16.1-2.14.48-1.65,8.54,11.41,16.3,23.74,20.76,37.39l-.77-.31c1.61-10.1-.6-20.67-3.43-30.35a114.55,114.55,0,0,0-12.66-29l.1-4.3c4.1,9.24,7.57,18.79,11,28.31,3.91,11,8.45,22.65,7.28,34.53-.08.83-.27,1.05-.74.32a7.1,7.1,0,0,1-.66-3.42c.13-8.55,0-17.11-.57-25.63-.6-8.36-1.47-17-4.27-24.95l.61-2.74c1.88,8.93,3.72,17.88,5.93,26.72s4.74,17.79,8.74,26l-.54,2.44c-1.45-8.88-4.05-17.66-5.11-26.64a47.94,47.94,0,0,1-.05-12.72c.76-5.07,2.65-9.91,4.51-14.67l1.07,5.12c-2.48,3.39-5.07,6.8-6.3,10.88s-1.34,8.55-1.37,12.83a123.73,123.73,0,0,0,2.87,27.33,6.65,6.65,0,0,1,.19,2.84c-.11.41-.23.92-.62.3-4.53-7.3-8.67-14.9-10.66-23.34a59.19,59.19,0,0,1-1.38-13.14c0-4.22-.28-8-3.5-11.17l.44-2q3,25.83,4.25,51.93c0,.64,0,1.69-.67,1.11s-.7-2.8-.74-3.63q-1.23-25.38-4.16-50.62c0-.12-.07-2.48.44-2,6.29,6.07,4.84,15.7,5.47,23.54.76,8.91,5.79,17.19,10.41,24.62l-.42,3.15a142.1,142.1,0,0,1-3.38-31.45c0-4.72.07-9.61,1.32-14.2s3.93-8.33,6.67-12.09c.46-.61,1,1.6,1,1.76a6.28,6.28,0,0,1,.08,3.36A67.29,67.29,0,0,0,283.34,415a35.83,35.83,0,0,0,.28,11.13c1.23,8.09,3.44,16,4.75,24.09,0,.26.08,3.71-.54,2.43-4.22-8.65-6.92-18-9.3-27.3s-4.41-19-6.41-28.54c-.15-.66-.6-2.4-.18-3.06s.54-.36.78.31c3.22,9.07,4.44,18.83,5.16,28.39s.91,19.07.78,28.65L277.25,448c.62-6.16-1.15-12.08-3.05-17.89-1.31-4-2.72-8-4.16-12-3.08-8.55-6.22-17.1-9.91-25.41a8.23,8.23,0,0,1-.52-3.51c0-.4.13-1.65.66-.8a116.06,116.06,0,0,1,11.45,24.78,121.31,121.31,0,0,1,6.37,29.09,61.12,61.12,0,0,1-.37,14.68c-.13.84-.65.1-.78-.31-4.29-13.13-11.8-25.06-20-36.06l-.26-5c6.55,14.39,12.63,29,19.19,43.38l-.27,3.78q-4.37-14.46-8.67-28.94l-4.21-14A95.25,95.25,0,0,0,256.86,404a8.26,8.26,0,0,1-.74-3.63c0-.41.05-2,.65-1.1A77.26,77.26,0,0,1,268.2,429a78.74,78.74,0,0,1,1,15.94c-.16,4.67-.83,9.52-3.52,13.46-.47.68-1.19-2.93-1.22-3.18-1.67-15.75-5.05-31-12.41-45.18a8.22,8.22,0,0,1-.73-3.31c0-.16.07-2.13.47-1.64a35.36,35.36,0,0,1,6.19,13c1.35,5,2.13,10.13,4.05,14.94,2.05,5.11,5.1,9.76,6.82,15,1.59,4.82,2.43,10.3,1.15,15.32-.28,1.06-.86-.53-.95-.87a7.58,7.58,0,0,1-.32-3.69Z"/><path class="cls-2" d="M138.56,446.27a28.14,28.14,0,0,0,8.17-10.66c2.08-5,2.07-10.7,3.49-15.85,2.42-8.7,8.29-16.59,8-25.91l1.34,3.54c-2.71,16.57-9.51,31.66-18,46.09l-.93-5.23c4.45-1.52,7.65-5,10.45-8.6a69.65,69.65,0,0,0,14.47-38.28l1.33,4.09c-1.6,9.33-5.42,18.21-8.74,27-3.2,8.55-6.45,17.17-9.66,25.77-1.58,4.27-3.17,8.55-4.72,12.82-.24.64-.93-1.45-.93-1.45a7.85,7.85,0,0,1-.24-3.37c3.83-17.66,9.5-34.86,13.33-52.49.18-.83.61-.09.78.31a8.47,8.47,0,0,1,.57,3.23A144.22,144.22,0,0,1,150,452.64l-1.16-4.82c6.14-5.95,10.4-13.83,14-21.54a145.45,145.45,0,0,0,9.56-27.68,89.22,89.22,0,0,0,2.3-13.68L176,389c-2.16,9.58-5,19.05-7.88,28.44-3,9.94-5.78,21.06-12.95,28.91-.52.56-1-1.54-1-1.76-.17-.77-.62-2.63-.07-3.36,5.33-7,10.47-14.11,15.18-21.54s9.32-15.31,11.92-23.78l1.17,4.82q-6.39,14-12,28.22c-3.75,9.53-7.43,19.28-9.34,29.35l-1.17-4.81c4.65-9,7.77-18.68,12.22-27.77A38.2,38.2,0,0,1,179.24,415,67.57,67.57,0,0,1,191,406.36l.78,5.34c-4.39,1.33-8.8,2.75-12.4,5.72s-6.31,6.67-9,10.32a131.75,131.75,0,0,0-13.89,23.91c-.27.61-.85-1.14-.84-1.13a8.77,8.77,0,0,1-.38-3.26c.68-7.8,1.67-15.7,4.58-23a48.41,48.41,0,0,1,6-10.34c2.25-3.12,5.95-7.69,5.26-11.84l1.13,2.48q-12.61,21.88-26.67,42.9c-.42.63-1-1.6-1-1.76-.17-.83-.6-2.55-.07-3.35q14.06-21,26.67-42.91c.38-.65,1.11,2.4,1.12,2.47a18.63,18.63,0,0,1-2.16,12.3c-2.22,4-5.35,7.34-7.43,11.38-4.08,7.79-5.25,16.7-6,25.34l-1.22-4.38a131.5,131.5,0,0,1,14.26-24.43,55.54,55.54,0,0,1,8.8-10c3.61-3,8-4.42,12.49-5.75.65-.21,1.72,4.8.78,5.34-4.23,2.64-8.55,5.34-12,9a39.58,39.58,0,0,0-6.84,10.58c-4.31,9-7.41,18.43-12,27.28-.32.62-.91-1.41-.92-1.45a8.17,8.17,0,0,1-.25-3.37c1.91-10.09,5.64-19.89,9.35-29.43,3.76-9.7,7.86-19.27,12.21-28.73.29-.63.91,1.43.91,1.45a7.18,7.18,0,0,1,.26,3.38c-2.62,8.46-7.12,16.37-11.83,23.86s-10,14.91-15.48,22l-1.08-5.11c7.14-7.85,9.85-18.89,12.89-28.8,2.82-9.24,5.6-18.54,7.73-28,.23-1,.75.25.87.58a9.15,9.15,0,0,1,.51,3.52,114.66,114.66,0,0,1-5.72,26.27,131.15,131.15,0,0,1-11.92,26.93A55.1,55.1,0,0,1,150,452.85c-.61.59-1.39-4.17-1.17-4.83A138.21,138.21,0,0,0,156,404.69l1.31,3.57c-3.82,17.65-9.49,34.85-13.33,52.48l-1.17-4.81c3.73-10.33,7.63-20.58,11.49-30.86q2.85-7.59,5.65-15.2c2.28-6.21,4.66-12.46,5.78-19,.18-1,.76.3.86.58a9,9,0,0,1,.47,3.52,73.6,73.6,0,0,1-7.22,27.57,69.41,69.41,0,0,1-7.57,12.16c-2.87,3.71-6.2,7.29-10.74,8.84-.83.28-1.27-4.63-.93-5.23,8.37-14.22,15.13-29.09,17.81-45.48.13-.86.63,0,.77.32a9.12,9.12,0,0,1,.56,3.23,34.78,34.78,0,0,1-2.62,13.85c-1.87,4.67-4.25,9.15-5.55,14.07-1.47,5.26-1.52,11.07-3.6,16.19a29,29,0,0,1-8.58,11.09c-.35.28-.95-2.4-1-2.6-.1-.68-.43-2.24.2-2.76Z"/><path class="cls-3" d="M201.58,160.42c1.31,5.8,8.92,28.26,11.6,34.25,2.88,6.4,6.34,12.55,8.8,19.12,1.33,3.52,2.35,7.15,3.73,10.63,3.8,9.6,10.18,17.94,17.12,25.49a34.39,34.39,0,0,0,5.49,5.09c9.91,6.94,21.55,6.11,29.77-3.14,5.89-6.65,8.85-15.45,12.19-23.7a72.2,72.2,0,0,0,4-11.33c.66-3.9,1.31-8.15.86-12.13-.29-2.51.94-5.09,1.58-7.51.68-2.63,1.31-5.27,1.87-7.93a162.29,162.29,0,0,0,2.55-16.12,147.16,147.16,0,0,0,.94-15.56c.12-8.83-1.09-17.7,1.79-26.28.7-2.12,1.7-4.29,1.55-6.61-.25-3.82-4.61-6.18-7.68-3.59-3.94,3.32-6.67,7.38-10.91,10.37-7.48,5.25-15.11,10.58-23.82,13.21-9.53,2.88-19.78,2.17-29.22-.9a68.5,68.5,0,0,1-14-6.43C212.63,133,207.18,126.06,199,124c-.93-.24-2.07-.33-2.67.46a2.57,2.57,0,0,0-.18,2c1.49,7.72,3.83,15.31,4.46,23.16.28,3.52.21,7.09,1,10.55C201.54,160.24,201.56,160.35,201.58,160.42Z"/><path class="cls-4" d="M217.08,73.53a25.24,25.24,0,0,0,7.37-2.48,27.67,27.67,0,0,0,6.06-5.15L240,56.1c1.83-1.88,3.76-3.85,6.26-4.65,5.38-1.79,10.69,2.34,15.53,5.27,12.2,7.43,27.39,8.35,41.61,6.79A123.52,123.52,0,0,0,307,107.9a3.55,3.55,0,0,1,.17,1.55c-.28,1.33-1.88,1.79-3.19,2.14-7.27,1.94-14.77,10.67-20.59,15.43-9.73,8-11.42,14.41-23.79,16.62-4.77.85-9.78,3.75-14.67,3.31-4-.36-7.75.42-11.7-.79a39.49,39.49,0,0,1-9.53-4.75c-8.19-5.18-24-17.36-30.83-24.2-1.62-1.63-4.24-4.06-4.3-6.53a57,57,0,0,0-.26-6.13c-.83-5.7-.51-9.76-.66-14.46-.07-2.23,1.36-4.55,1.14-6.76a11.49,11.49,0,0,1,1.05-5.13c1.08-2.34,9.85-1.79,12.44-2.12Q209.73,75.15,217.08,73.53Z"/><path class="cls-1" d="M190.65,68.1c.4-6.31-3.79-20.22-4.29-21.7-2-6-10.31-6.51-8.73-21.82.42-4,1.28-9.55,5-11.94,5-3.15,12.51-2.14,18-1.2,4.5.77,8.92,1.81,13.49,1.82,4.82,0,9.52-1.39,14-2.95,7.84-2.77,16.13-6.4,24.48-6.87,9-.48,18.13,1.84,26.39,5.47A25.05,25.05,0,0,0,284.78,11a18.69,18.69,0,0,0,7.29-.55c3.43-.79,6.55-2.65,10.05-3.15s6.62.4,9.88,1.59a11.27,11.27,0,0,1,4,3,11.51,11.51,0,0,1,2.15,3.93c.44,1.18,1.11,2.08,1.12,3.37a14.94,14.94,0,0,1-2.92,8.28c-2.29,3.37-5.28,6.25-7,9.91-1.91,4-2.18,8.49-2.62,12.87,0,4.53-2.41,8.26-5.87,11a16,16,0,0,1-5.31,3.15,15.62,15.62,0,0,1-3.61.42c-4.32.17-8.71.28-12.87-.89-9.31-2.62-16.12-11.28-25.57-13.35a20,20,0,0,0-12.61,1.43c-4.08,1.91-4.31,5.37-7.35,8.22A18.25,18.25,0,0,1,228,63.67l-5.78,2.87a28.35,28.35,0,0,1-3.68,1.55,29.08,29.08,0,0,1-5.33,1l-13.91,1.61c-2.88.33-6.06.59-8.43-1.07A4.51,4.51,0,0,1,190.65,68.1Z"/><path class="cls-2" d="M180.21,36.58a1.68,1.68,0,0,1-1-.7,1.58,1.58,0,0,1-1.15-1,3.15,3.15,0,0,1-.23-.65c-.2.16-.4.31-.62.46a.74.74,0,0,1-.82,0,.76.76,0,0,1-.3-.77A109.86,109.86,0,0,1,179.29,23l-.6-4.05a.75.75,0,0,1,.5-.77.73.73,0,0,1,.91.47c.12.42.22.83.33,1.23l.12-.33a.71.71,0,0,1,.38-.4.73.73,0,0,1,.95.36,21,21,0,0,1,.84,2.16,6.87,6.87,0,0,1,.55-.66.69.69,0,0,1,1.07,0c.3-.44.55-.87.82-1.3a.72.72,0,0,1,.64-.34.71.71,0,0,1,.61.38A17.06,17.06,0,0,1,188.33,26a16.49,16.49,0,0,1,.89,4.27,2.69,2.69,0,0,1-1.9,2.86,8.75,8.75,0,0,1-.87,1A7.68,7.68,0,0,1,185,35.26a.66.66,0,0,1-.36.11,12.49,12.49,0,0,1-2.11,1,6.59,6.59,0,0,1-1.06.27A3,3,0,0,1,180.21,36.58Zm3-2.09a6.31,6.31,0,0,1-.7-.76,7.83,7.83,0,0,1-1.26,1.43h0A3.69,3.69,0,0,0,182,35c.42-.14.8-.3,1.17-.46Zm2.16-1.43a5.85,5.85,0,0,1-.83-.3.69.69,0,0,1-.77.25h0a5.19,5.19,0,0,0,.77.71c.29-.21.56-.43.83-.66Zm-3.71-.74a10,10,0,0,1-.52-1.38l-.15.34a7.75,7.75,0,0,0-.66,2.77,5.76,5.76,0,0,0,1.33-1.73Zm1.7-.3a.66.66,0,0,0-.07.3v.06a.63.63,0,0,1,0-.19l0-.12Zm3.6-5.51c-.19-.61-.44-1.23-.67-1.81a1,1,0,0,1-.16-.33A4.17,4.17,0,0,0,185,22.91a19.16,19.16,0,0,1,0,8.49,2.68,2.68,0,0,0,1.26.38,7.45,7.45,0,0,0,.6-2.17,15.54,15.54,0,0,0,.09-3.05Zm-3.3-1.09a21.92,21.92,0,0,1,.19,3.71c0,.38,0,.76-.09,1.16h0a17.22,17.22,0,0,0,.15-5.36ZM180,27.51a9.55,9.55,0,0,0-1,3.3,7.64,7.64,0,0,0,1-3.29Zm1.39-2.22.05.35a2.09,2.09,0,0,0,0-.43Zm.25-2.45a7.5,7.5,0,0,1-.32-1.06c-.09.24-.31.45-.27.73l.13.83.46-.49Z"/><path class="cls-2" d="M311.72,29.63c-.14-.32-.26-.64-.38-1l0,.17a.72.72,0,0,1-.6.53h0A.72.72,0,0,1,310,29c-.35-.59-.67-1.2-1-1.82a6.64,6.64,0,0,1-.38.6.72.72,0,0,1-.66.29.64.64,0,0,1-.35-.14l-.55,1.22a.72.72,0,0,1-.6.42.76.76,0,0,1-.65-.31,15.69,15.69,0,0,1-2.44-5.51,15,15,0,0,1-1.28-3.85A2.52,2.52,0,0,1,303.54,17c.21-.33.43-.65.67-1a7.12,7.12,0,0,1,1.24-1.33.71.71,0,0,1,.33-.15,10.74,10.74,0,0,1,1.86-1.13,3.48,3.48,0,0,1,2.05-.45,1.56,1.56,0,0,1,1,.61,1.57,1.57,0,0,1,1.13.85c.1.17.18.34.26.51.15-.16.3-.3.47-.45a.69.69,0,0,1,.57-.18.71.71,0,0,1,.62.79,100.13,100.13,0,0,1-1.71,10.35c.35,1.22.67,2.45,1,3.69a.73.73,0,0,1-.47.87l-.13,0A.73.73,0,0,1,311.72,29.63Zm-1.47-4.14c-.1.13-.2.27-.3.39.12.27.23.52.36.79q.06-.29.12-.54Zm-5.54-7.3a6.84,6.84,0,0,0-.29,2.06,14,14,0,0,0,.25,2.81c.24.54.52,1.07.82,1.62l.17.28a4.58,4.58,0,0,0,1,1.12,17.75,17.75,0,0,1-.86-7.65A2.41,2.41,0,0,0,304.71,18.19Zm2.47,2.53a16.34,16.34,0,0,0,.43,3.34l.11-.3A19.55,19.55,0,0,1,307.18,20.72Zm3.77.37a8.93,8.93,0,0,0,.44-2.56A6.74,6.74,0,0,0,311,21.09Zm-2-3.95a8.88,8.88,0,0,1,.55,1.06l.06-.18a7.7,7.7,0,0,0,.34-2.48A5.18,5.18,0,0,0,308.91,17.14Zm-2.24-.47a4.51,4.51,0,0,0-.61-.44q-.31.29-.6.6a3.23,3.23,0,0,1,.63.16.72.72,0,0,1,.49-.32Zm1.6-1.87c-.33.16-.64.33-.94.51a5.3,5.3,0,0,1,.63.54,6.27,6.27,0,0,1,.82-1.27A3.27,3.27,0,0,0,308.27,14.8Z"/><path class="cls-5" d="M126,461.07c-.55-.48-1-1.09-1.77-1.17-.56,0-1.16.1-1.25.78a1.45,1.45,0,0,0,.41,1.15,3.87,3.87,0,0,0,1.07.74l.87.51a1.39,1.39,0,0,0,1.13.27,1,1,0,0,0,.44-1.19A2.8,2.8,0,0,0,126,461.07Z"/><path class="cls-5" d="M132.57,466.92a.75.75,0,0,0-1,.09,1.14,1.14,0,0,0-.17,1.11,2.2,2.2,0,0,0,.71.94,4.15,4.15,0,0,0,1.51.8.94.94,0,0,0,.44.05.78.78,0,0,0,.44-.82,3.55,3.55,0,0,0-1.4-2.16"/><path class="cls-5" d="M142.2,471.77a1.12,1.12,0,0,0,.92-.18.84.84,0,0,0,0-1.06c-.51-.73-2.91-1.88-3.76-1.21C137.7,470.62,141.42,471.69,142.2,471.77Z"/><path class="cls-5" d="M148.14,468.41c-.3.25-.8.25-.95.59s.18.83.58,1a2.78,2.78,0,0,0,1.48.16,1.21,1.21,0,0,0,1.09-.79,1,1,0,0,0-.38-.86,2.54,2.54,0,0,0-.88-.41c-.24-.09-.56-.16-.71.06"/><path class="cls-5" d="M270.05,467.32a3.15,3.15,0,0,0-2.09-.52c-.54.13-1,.52-.93,1.15a1.47,1.47,0,0,0,.77,1,3.91,3.91,0,0,0,1.22.36l1,.19a1.35,1.35,0,0,0,1.16-.11,1,1,0,0,0,0-1.26A2.81,2.81,0,0,0,270.05,467.32Z"/><path class="cls-5" d="M278.16,470.7a.78.78,0,0,0-1,.42,1.09,1.09,0,0,0,.16,1.1,2.2,2.2,0,0,0,1,.65,4.53,4.53,0,0,0,1.67.3.78.78,0,0,0,.42-.11.72.72,0,0,0,.14-.91,3.52,3.52,0,0,0-2-1.6"/><path class="cls-5" d="M290.47,473.37a1.12,1.12,0,0,0,.82-.47.82.82,0,0,0-.32-1c-.72-.52-3.36-.83-4,.07C285.85,473.74,289.71,473.54,290.47,473.37Z"/><path class="cls-5" d="M293.37,467c-.21.34-.69.5-.74.89s.45.72.88.75a2.72,2.72,0,0,0,1.45-.33,1.21,1.21,0,0,0,.77-1.13,1,1,0,0,0-.64-.68,2.6,2.6,0,0,0-1-.1c-.26,0-.59.08-.66.28"/><path class="cls-2" d="M189.37,148.83c-.17-7-.31-14-.6-21.05-.28-6.85-.8-13.65-.8-20.5,0-16.19,1.13-32.45-.84-48.57a48.47,48.47,0,0,0-2.23-11c-1.27-3.39-3.76-5.8-5.75-8.75a25.25,25.25,0,0,1-4-12.52,16.47,16.47,0,0,1,.07-2.27,16.64,16.64,0,0,1,.56-2.81,13.32,13.32,0,0,1,3.08-5.42c4-4.21,10.26-4.19,15.65-3.65,7,.7,14.25,2.71,21.21.72,4.38-1.25,8.61-3,13-4.35a79.32,79.32,0,0,1,20-3.61,48.65,48.65,0,0,1,11.11.8c3.6.69,7.1,1.8,10.62,2.78a51.43,51.43,0,0,0,10.77,2.1A38.33,38.33,0,0,0,291.46,9.6c6.54-1.38,13.79-3.42,20.17-.36a13.48,13.48,0,0,1,6.57,6.9,8.65,8.65,0,0,1-.15,6.89c-2.11,5.66-6.2,10.32-9,15.64-2.87,5.49-3.77,11.71-4.31,17.81a137.13,137.13,0,0,0,0,20.37c.77,12.58,2.84,25,4.17,37.52.38,3.6.64,7.21,1.08,10.8.06.55.19,1.61.75.9s.29-2.63.19-3.42c-.78-6.57-1.3-13.17-2.16-19.73s-1.69-12.9-2.33-19.37a167.48,167.48,0,0,1-.92-19.9c.12-5.87.54-12.3,2.78-17.8,2.33-5.73,6.49-10.47,9.22-16s3.72-13.06.86-18.89c-3.12-6.36-9.76-8.78-16.52-8.23-7,.56-13.63,3.4-20.67,3-7.57-.45-14.61-3.68-22-5a58.33,58.33,0,0,0-21.91.75,130.9,130.9,0,0,0-17,5,45.79,45.79,0,0,1-5.79,1.84,33.29,33.29,0,0,1-10.82.14c-6.55-.78-14-2.82-20.44-.37-4.22,1.61-6.87,5.25-8.08,9.49a34.42,34.42,0,0,0-.28,15.8,32.67,32.67,0,0,0,2.06,6.68,37,37,0,0,0,5,7.61,21.17,21.17,0,0,1,3.84,10.08c.6,3.94,1,7.9,1.2,11.88.46,8.18.28,16.39.12,24.58-.16,8.35-.3,16.7.12,25,.31,6.31.69,12.59.85,18.91.1,3.55.18,7.11.27,10.67,0,.35,0,2.5.55,2.5s.55-2.28.55-2.5Z"/><path class="cls-2" d="M305.13,61.33a44.11,44.11,0,0,1-30.39-.19c-6.29-2.33-11.78-5.94-17.14-9.88a20.45,20.45,0,0,0-4.38-2.61,9.35,9.35,0,0,0-6.63,0c-4,1.38-7.54,4.33-10.63,7.19-2.32,2.16-4.42,4.55-6.92,6.51a33.83,33.83,0,0,1-7,4.24c-11.05,5-23.59,3.81-35.31,2.79-.68-.06-.93,4.92,0,5,10.45.91,21.37,1.92,31.54-1.35a35.6,35.6,0,0,0,13.82-8.25c3.8-3.67,7.47-7.67,12.23-10.14a11.21,11.21,0,0,1,7.5-1.42,13.63,13.63,0,0,1,4.68,2.3c1.91,1.31,3.71,2.75,5.63,4a62,62,0,0,0,9.58,5.36,44.59,44.59,0,0,0,33.43,1.43c1.14-.41.29-5.11,0-5Z"/><path class="cls-2" d="M202.11,174.53c1.44,4.79,3.22,9.47,4.79,14.21,2.83,8.54,5.75,17,9,25.42a250.48,250.48,0,0,0,11.17,25.13c3.82,7.33,8.19,14.6,14.68,19.87a23.12,23.12,0,0,0,8.48,4.78,25.67,25.67,0,0,0,9.2.66c5.9-.58,12.2-2.87,16.27-7.35a42.58,42.58,0,0,0,5.83-9,85.25,85.25,0,0,0,4.68-10.69,175.9,175.9,0,0,0,6.25-22.77c3.82-17.59,7.15-35.39,7.57-53.44.06-2.31.05-4.62,0-6.94,0-.35,0-2.5-.55-2.5s-.55,2.28-.55,2.5c.41,17.67-2.71,35.14-6.29,52.36-3.07,14.74-6.48,30.19-15.07,42.83a20.52,20.52,0,0,1-6.38,6.27,27.23,27.23,0,0,1-8.48,3.24c-5.78,1.22-12.45,1-17.49-2.4-6.78-4.53-11.5-10.9-15.51-17.9a200.77,200.77,0,0,1-11.3-24c-5.58-13.71-10.2-27.8-14.89-41.83-.3-.9-.6-1.81-.88-2.72s-.72.67-.75.9a8.22,8.22,0,0,0,.2,3.42Z"/><path class="cls-2" d="M216.77,44a2.82,2.82,0,0,0,2.21.26,2.78,2.78,0,0,0,1.6-1.78,7.27,7.27,0,0,0,.26-2.46,4.51,4.51,0,0,0-1-3.26,3.23,3.23,0,0,0-1.37-.72,3,3,0,0,0-2.77.36c-1,.81-1,2.26-.89,3.51C214.91,41.86,214.84,43,216.77,44Z"/><path class="cls-2" d="M277.52,29.9a2.68,2.68,0,0,0-2.28-.08,2.79,2.79,0,0,0-1.55,1.83,7.24,7.24,0,0,0-.19,2.46,4.43,4.43,0,0,0,1.1,3.23A3.25,3.25,0,0,0,276,38a3,3,0,0,0,2.75-.44C280.71,35.84,279.87,31.13,277.52,29.9Z"/><path class="cls-2" d="M248.28,52.43c3.07-.13,5.51-2.56,7.31-5a6.12,6.12,0,0,0,1.2-2.3,2.39,2.39,0,0,0-.68-2.38,3.37,3.37,0,0,0-1.19-.53c-3.55-1-12-1.42-14.68,1.82C237,48,245,52.57,248.28,52.43Z"/><path class="cls-2" d="M185.08,18c1,.46,1.58,1.7,2.15,2.58A27.45,27.45,0,0,1,189,23.72a8.31,8.31,0,0,1,1.13,4.7,13.37,13.37,0,0,1-6.42,9.13c-.64.37-.55,1.86-.55,2.5,0,.16.22,2.69.55,2.5,4.74-2.76,7.14-7.79,7.53-13.14a20.38,20.38,0,0,0-1.24-9,26.79,26.79,0,0,0-2.17-4.1c-.74-1.19-1.46-2.69-2.79-3.31-.42-.2-.55,2.3-.55,2.5,0,.57-.11,2.19.55,2.5Z"/><path class="cls-2" d="M305.65,7.29c-1.26.65-1.88,2.05-2.56,3.23A26.25,26.25,0,0,0,301,14.88a21.06,21.06,0,0,0-1,9.19c.52,5.28,3.16,10.18,7.94,12.73.39.21.55-2.32.55-2.5,0-.61.11-2.15-.55-2.5a13.59,13.59,0,0,1-6.81-8.95,7.46,7.46,0,0,1,.74-4.46,26.74,26.74,0,0,1,1.66-3.24c.55-.94,1.14-2.33,2.16-2.86.64-.33.55-1.89.55-2.5,0-.17-.19-2.69-.55-2.5Z"/><path class="cls-2" d="M248.05,53c.13,1.07.26,2.1.32,3,0,.09,0,.9,0,.54,0,.27,0,.54,0,.8,0-.4,0,.39,0,.41a4,4,0,0,1,0,.46,5.42,5.42,0,0,1-2.63,4.13,10.21,10.21,0,0,1-4.93,1.07c-1.72,0-3.61-.24-4.86-1.54-.48-.51-.67,1.59-.68,1.74a11.29,11.29,0,0,0,.06,1.93,2.24,2.24,0,0,0,.33,1.15c1.44,1.5,3.59,1.77,5.57,1.71a9,9,0,0,0,5.65-1.83c2-1.69,2.36-4.67,2.57-7.09a44,44,0,0,0-.42-9c0-.3-.35-1.86-.75-.9a7.33,7.33,0,0,0-.2,3.42Z"/><path class="cls-2" d="M248.22,59.28a8.79,8.79,0,0,0,1.41,6.06,5.9,5.9,0,0,0,3.88,2.24,9.52,9.52,0,0,0,4.91-.7,4.41,4.41,0,0,0,2.91-3.25,8.45,8.45,0,0,0,0-3.54c0-.18-.13-.73-.39-.73s-.36.6-.39.73c0-.18,0,.12-.06.17a1.58,1.58,0,0,1-.15.24,3.59,3.59,0,0,1-.57.6,5.27,5.27,0,0,1-1.44.82,10.17,10.17,0,0,1-4,.73,5.68,5.68,0,0,1-3.49-1.16,6.22,6.22,0,0,1-1.22-1.34,3.69,3.69,0,0,1-.33-.62c0-.05-.16-.34-.08-.18l0-.17a6.21,6.21,0,0,1,.08,1.43,10.38,10.38,0,0,0-.05-1.93c0-.2-.11-1-.33-1.14-.54-.42-.67,1.6-.68,1.74Z"/><path class="cls-2" d="M202.28,129.85c9,11.13,21.66,20.77,36.13,22.93,8.32,1.25,16.31-1.18,23.8-4.68a84.72,84.72,0,0,0,19.7-13,97,97,0,0,0,18-20.45,5.52,5.52,0,0,0,.38-3.07c0-.19-.35-2.25-.68-1.75A96.46,96.46,0,0,1,284,128.05a87.35,87.35,0,0,1-19.19,13.75c-7.11,3.68-15.16,6.78-23.28,6.31A44.83,44.83,0,0,1,220.36,141,75.86,75.86,0,0,1,202.57,125c-.44-.55-.67,1.62-.67,1.74-.06.83-.2,2.36.38,3.08Z"/><path class="cls-2" d="M238.1,119.6a20.77,20.77,0,0,0-2.19,6.7,9.57,9.57,0,0,0,0,1.93,4.75,4.75,0,0,0,.25,1.49c.07.16.21.49.42.25a2.32,2.32,0,0,0,.33-1.15l0-.19c0,.34-.07.41,0,.2l.06-.29q.06-.34.15-.69c0-.13.07-.26.1-.39l0-.09c0-.17,0-.13,0,.1.05,0,.08-.27.1-.34s.07-.22.11-.33c.15-.44.31-.88.5-1.3.09-.21.19-.42.29-.63s.08-.18.13-.27.06-.12,0,0l.09-.17a3.1,3.1,0,0,0,.33-1.15,9.59,9.59,0,0,0,.06-1.93,4.66,4.66,0,0,0-.25-1.49c-.06-.11-.27-.55-.43-.25Z"/><path class="cls-2" d="M243.05,122.08a32.75,32.75,0,0,0-.27,10c0,.25.1.94.33,1.15s.35-.06.42-.25a5.14,5.14,0,0,0,.26-1.5,11.32,11.32,0,0,0-.06-1.93c0-.13,0-.26,0-.4s0-.64,0,.06c0-.27,0-.55-.05-.82s0-.27,0-.4c0,.15,0,.6,0,.19s0-.55,0-.82,0,.63,0,.19c0-.13,0-.27,0-.4l0-.4c0-.5-.06.55,0,.06,0-.27.06-.54.1-.81,0-.11,0-.22.05-.33.08-.51-.06.31,0-.09a8.74,8.74,0,0,0,0-3.53c-.05-.19-.13-.74-.39-.74s-.37.61-.39.74Z"/><path class="cls-2" d="M251.82,125.78c.21.55.41,1.11.6,1.67.08.24.15.49.23.73s.1.32.14.49c-.07-.27,0,0,0,.09.3,1.11.55,2.23.75,3.35,0,.1.15.74.39.74s.37-.64.39-.74a9.12,9.12,0,0,0,0-3.53,40,40,0,0,0-2-7.12c-.08-.19-.21-.45-.43-.25a2.49,2.49,0,0,0-.32,1.15,9.59,9.59,0,0,0-.06,1.93,5.35,5.35,0,0,0,.25,1.49Z"/><path class="cls-2" d="M257.57,122.71l.1.06-.15-.09a6.26,6.26,0,0,1,2.17,2.37l-.14-.25a3.68,3.68,0,0,1,.26.57,2,2,0,0,1,.1.26c0,.14.17.58,0,0,0,.1.14.74.39.74s.37-.64.39-.74a8.67,8.67,0,0,0,.16-1.76,7.43,7.43,0,0,0-.16-1.77,8.09,8.09,0,0,0-1.26-2.73,6.29,6.29,0,0,0-1.87-1.65c-.19-.11-.4.78-.39.74a9.82,9.82,0,0,0,0,3.53l.12.39a.42.42,0,0,0,.27.34Z"/><path class="cls-6" d="M296.19,37.08l3.58,2c.9.49,2.23.94,2.43,2,.5,2.69.95,5.39,1.42,8.08,0,.1.15.73.39.73s.36-.63.39-.73a9.52,9.52,0,0,0,0-3.53l-.77-4.37c-.26-1.45-.41-3-.81-4.39a2.79,2.79,0,0,0-.9-1.55,12.08,12.08,0,0,0-1.71-1l-4-2.2c-.38-.21-.55,2.31-.55,2.5,0,.62-.11,2.14.55,2.5Z"/><path class="cls-1" d="M321.83,47.89a17.31,17.31,0,0,0-13-2c-7.07,1.91-10.14,1.44-10,5.42s4.75,10.74,7.58,14.51,10.72,4.1,10.72,4.1Z"/><path class="cls-2" d="M295.3,140.38c10.75-4.41,22.68-10.62,28.15-21.46,4-7.84,3.56-17.33.87-25.5S316.78,78,311.84,71.09c-4-5.59-9-11.12-11.76-17.48-.23-.54-.44-1.08-.62-1.64s-.11-.72-.11-.3a6,6,0,0,1-.05.95.83.83,0,0,1,.1-.27,4.92,4.92,0,0,1,.73-1c2.4-2.41,7-3,10.19-3.07,10.6-.13,20.7,6,28.32,12.9a71.47,71.47,0,0,1,21,33.75c4,14.33,2.23,29.14-3.79,42.64-7.93,17.78-22.6,33.25-39.1,43.47-.29.18-.58.36-.88.53-.89.51-.57,2.94-.48,3.76,0,.32.07.64.11,1s.07.72.1,1.07,0,.48.07.72,0,.27,0,.4c.06.61,0-.31,0,.19q.47,5.11.81,10.25,1.17,17.51,1.19,35.07c0,31.35-2.17,63.75-11.91,93.75-1.22,3.74-2.57,7.45-4.08,11.09-.77,1.83-1.89,3.68-2.21,5.65-.41,2.44-.73,4.9-1.13,7.34-1.12,6.72-2.37,13.42-3.67,20.11-2,10.47-4.45,20.89-5.71,31.5-2,16.53-1.89,33.63,1.5,50a72.51,72.51,0,0,0,2,7.8c1.55,4.72,4,9.23,4.86,14.15.43,2.33.09,4.69-2.37,5.64-1.94.75-4.46.38-6.49.28a46.33,46.33,0,0,1-14.76-2.67c-8.11-3.2-11.28-10.85-13.22-18.77-1.16-4.76-2.12-9.56-3-14.37-2.13-11.06-4.4-22.25-8.64-32.73-3.33-8.22-8.82-18.56-18.63-19.89-5.95-.81-11.33,2.1-16.25,5.07A125.31,125.31,0,0,0,191.64,415c-11,10.59-20.63,23.66-25.24,38.36-2.22,7.06-2.69,14.45-3.78,21.73-.65,4.31-1.35,10.62-6.48,11.79-7,1.59-15-3.13-19.76-7.83-3-2.92-5.6-6.63-6.54-10.75-.55-2.42.26-4.77.93-7.09,3.91-13.44,9.24-26.52,14.25-39.57,4.19-10.9,8.44-21.77,12.34-32.78a254.39,254.39,0,0,0,9.72-36.33c4-20.38,6.6-41,9.14-61.64,2.65-21.52,4.8-43.12,5.74-64.79.44-9.95.62-19.92.4-29.89,0-.26,0-2.55-.55-2.5a146.24,146.24,0,0,1-18.25.28,156.33,156.33,0,0,1-37.32-5.42,157,157,0,0,1-26.93-10.69c-8.2-4.08-16.33-8.72-23.39-14.6a35.42,35.42,0,0,1-6.81-7.08c-.66-1-1-2.24-1.59-3.16-.39-.57.14.7-.07.83.17-.11.4-.9.55-1.12,2.84-4.2,9.47-3.59,13.79-3,8,1,15.93,3.29,23.8,5.16a251.14,251.14,0,0,0,31.86,5.75,152.65,152.65,0,0,0,18.27.83c5-.09,9.85-.65,14.79-1,7.21-.55,14.69-1.71,21.18-5.06a22.75,22.75,0,0,0,5-3.48c.62-.57.44-2.33.39-3.08,0-.24-.2-2.19-.68-1.74-6.23,5.77-15.84,7.49-24,8.22-10.26.92-20.39,1.52-30.69.73a228,228,0,0,1-33.84-5.61c-8.46-2-16.89-4.43-25.51-5.62-4.58-.63-11-1.26-14.36,2.77-3.54,4.27-1.22,11,1.83,14.84,5.1,6.35,12.49,11,19.42,15.05A170.16,170.16,0,0,0,117,190.55c20,7.34,42.13,9.64,63.36,8.27.47,0,1-.06,1.42-.11l-.55-2.5c.94,43.52-4.82,87.12-11.14,130.09-2.41,16.4-5.28,32.85-10.16,48.72-3.07,10-6.84,19.79-10.59,29.55-5.42,14.14-11,28.23-16,42.54A108.08,108.08,0,0,0,128.9,462a24.17,24.17,0,0,0,7.18,21.84c4.83,4.76,12.53,9.29,19.61,8.1,4.83-.82,6.26-5.79,7.12-10,1.53-7.43,1.61-15.15,3.61-22.49a72.83,72.83,0,0,1,9.08-19.75c9.86-15.53,24-28.32,39.77-37.61,4.81-2.83,10.19-5.3,15.91-4.14,4.61.94,8.25,4.1,11,7.77,6.81,9,9.74,20.92,12.17,31.77s3.61,22.2,7.37,32.65a24.25,24.25,0,0,0,5.64,9.37c3.15,3.05,7.25,4.61,11.47,5.52a49.29,49.29,0,0,0,14.57,1.25c4.19-.41,5.11-4.29,5.27-7.89.38-9-4.48-16.58-6.59-25a111.4,111.4,0,0,1-2.9-19.32,152.69,152.69,0,0,1,.92-29.38c1.37-10.93,3.95-21.7,6-32.52,1.19-6.26,2.34-12.53,3.37-18.82.34-2.08.34-4.57,1-6.57.09-.28-.06.56,0,.33.37-.84.75-1.67,1.11-2.5q1.2-2.81,2.28-5.66c1.38-3.65,2.61-7.34,3.72-11.08a221.18,221.18,0,0,0,5.59-23.71,356.5,356.5,0,0,0,5.14-48.58,511.62,511.62,0,0,0-1.68-69.26c-.11-1.19-.22-2.39-.36-3.59l-.47,3.77a91.85,91.85,0,0,0,12.87-9.29A104.5,104.5,0,0,0,352.2,150c14.84-25.45,14.37-57.82-2.86-82-6.91-9.69-16.42-18.33-27.68-22.57a29.19,29.19,0,0,0-14-2c-2.77.37-6.86,1.28-8.47,3.85-1.5,2.38-1.15,6.05-.42,8.63a28.8,28.8,0,0,0,4,7.72C307.32,70.58,312.63,77,317,84c4.11,6.56,8.87,15,8.16,23-.94,10.65-10.51,18.39-19.15,23.25a97.9,97.9,0,0,1-10.75,5.11c-1.16.48-.22,5.09,0,5Z"/><path class="cls-6" d="M281,48.71A20.38,20.38,0,0,1,259,41.26c-2.11-2.75-3.88-6.41-4-9.77,0-.51,0,.58,0-.29,0,.36,0-.21,0-.29s0-.57.11-.9a12.46,12.46,0,0,1,.75-2.55,12.92,12.92,0,0,1,2.48-3.95c4.47-4.82,11.87-6.67,18.24-6.59,6.88.08,14,2.73,17.56,9a10.16,10.16,0,0,1,1.62,5.72,17.54,17.54,0,0,1-2.65,7.11,22.75,22.75,0,0,1-12.06,10c-1.11.35-.35,5.11,0,5,10.59-3.35,17-15,15.66-25.75a17.55,17.55,0,0,0-6-11.35,21,21,0,0,0-10.24-4.38c-7.16-1.1-15.58.49-21.18,5.3-6.62,5.67-6.66,16.77-3.21,24.16,4.41,9.43,14.77,15.05,25,12C282.11,53.38,281.39,48.6,281,48.71Z"/><path class="cls-6" d="M224.77,53.72a20.48,20.48,0,0,1-23.38-5.2c-2.57-2.8-4.75-6.5-5.08-10.35a4.12,4.12,0,0,1,0-.46c0-.14,0-.57.07-.83a12.17,12.17,0,0,1,.74-2.72,12.45,12.45,0,0,1,2.23-3.61c4.34-5,11.42-7.5,17.88-7.9,7-.43,14.18,1.92,18,8.14A11.06,11.06,0,0,1,237,36.35,16.37,16.37,0,0,1,235.12,43a22.29,22.29,0,0,1-10.35,10.69c-.65.3-.55,1.93-.55,2.5,0,.18.15,2.69.55,2.5,9.53-4.38,14.52-15.86,13.09-25.94a17.13,17.13,0,0,0-6.27-11.19,19.61,19.61,0,0,0-10.41-3.89c-7.29-.66-15.48,1.71-20.9,6.74-6.5,6-6.37,17-2.37,24.44,5.15,9.51,16.78,14.26,26.86,9.84.64-.28.55-1.93.55-2.5C225.32,56,225.17,53.55,224.77,53.72Z"/><path class="cls-6" d="M254.62,31.64a22.16,22.16,0,0,0-8.86-.92,40.53,40.53,0,0,0-8,1.92c-.65.21-.55,2-.55,2.5,0,.21.09,2.65.55,2.5a40.53,40.53,0,0,1,8-1.92,22.16,22.16,0,0,1,8.86.92c.49.15.55-2.27.55-2.5,0-.49.11-2.3-.55-2.5Z"/><path class="cls-6" d="M195.88,39.19l-3.77,2.52a10.48,10.48,0,0,0-1.59,1.14,4,4,0,0,0-.87,2.26c-.22,1.54-.29,3.12-.42,4.67l-.39,4.56a8.89,8.89,0,0,0,.06,1.93c0,.21.1,1,.33,1.15.54.42.66-1.6.67-1.75.23-2.65.4-5.31.68-8,0-.18,0-.17,0,0s-.06.33,0,.14.4-.4.57-.53c.5-.37,1-.69,1.55-1l3.43-2.3c.22-.14.31-1,.33-1.14a10.38,10.38,0,0,0,.06-1.93c0-.31-.13-2.12-.68-1.75Z"/><path class="cls-2" d="M314.11,64.53c4.34,8.12,9.37,15.85,13.6,24a72.85,72.85,0,0,1,5.1,11.8c1.38,4.46,2,9.14,4.3,13.26l-4.38-3C331.07,97.5,323.92,86.13,317,75.23c-.18-.29,1.62.71,1.76.8a9.38,9.38,0,0,1,2.59,2.1,150.23,150.23,0,0,1,15.76,31.16l-4.38-3c1.66-14.84-8.66-26.91-19.58-35.49l3.24,1.82c5.62,5.9,9.54,13,13.41,20.15,3.54,6.49,6.94,13.22,7.67,20.68,0,0-2.18-1.18-2.37-1.32-.54-.38-1.9-1.09-2-1.81a85.94,85.94,0,0,0-20.39-41.42c-.68-.76.88.15,1.05.26a13,13,0,0,1,2.95,2.22,197.42,197.42,0,0,1,23.25,31.72l-4.38-3a73,73,0,0,0-4.07-19.5C329.18,74.73,325.49,68,320,64.67l1.2.45,9.67,12.56c2.76,3.58,5.67,7.07,8.07,10.9a83.91,83.91,0,0,1,9.78,21.77l-4.36-3c-3.48-14.63-9.63-28.94-16.5-42.28-.16-.31,1.41.59,1.49.63a17.69,17.69,0,0,1,2.67,2,94.21,94.21,0,0,1,16.42,21l-4.34-2.89a178.7,178.7,0,0,0-17-27.14l4.34,2.88,14.28,25.37-4.34-2.89a123.31,123.31,0,0,0-15.36-24.7c-.23-.29,1.21.44,1.21.44a19.17,19.17,0,0,1,2.63,1.94c4.61,4,9.35,9.56,10.52,15.77.21,1.08.51,3.16-.94,3.48a3.35,3.35,0,0,1-2.12-.62,24.71,24.71,0,0,1-4.11-2.85l3.46,2c2.15,3.73,2.7,8.49,3.27,12.65.66,4.51,1,9.09,1.83,13.57,0,0-2-1.06-2.08-1.12-.63-.46-2-1.13-2.32-1.91-3.53-8.33-7.12-16.78-12.6-24-4.42-5.86-9.47-11.29-12.89-17.76-.17-.32,1.4.57,1.47.62a12.25,12.25,0,0,1,2.69,2.06q9.24,10.62,18.91,20.9c2.54,2.7,5.07,5.42,7.75,8,.38.36.81.69,1.17,1.06-.32-.32-.12-.08,0,0a10.43,10.43,0,0,1-2-1.42,2.18,2.18,0,0,0-.43-.22,19.83,19.83,0,0,1-.2-3.18,26.82,26.82,0,0,0-.7-4.18,18.6,18.6,0,0,0-1-2.6c-.81-1.89,3.45,2,3.39,2.25s-.22.21-.26.37c-.34,2.21.53,4.43,1.21,6.42.13.38-1.62-.71-1.75-.79-.72-.51-2.2-1.24-2.59-2.1-5.69-12.38-8.31-26.29-16.65-37.33-.19-.24,1.38.56,1.47.62a12.25,12.25,0,0,1,2.69,2.06,53.81,53.81,0,0,1,10.26,18.68c.11.36-1.69-.75-1.76-.79a146.48,146.48,0,0,1-15.89-12.16c-1.18-1,.12-.42.72-.07,10,6.08,18.38,14.55,22.9,25.48l-4.37-3c-2-8.45-4-17.06-9.15-24.24,0,0,2,1,2.35,1.2,6,4.15,9.38,10.63,12.79,16.87,3.69,6.74,7.31,13.52,11,20.28.18.32-.91-.29-1-.33a18.14,18.14,0,0,1-2.45-1.74,21.9,21.9,0,0,1-7.27-10.08c-.13-.39,1.62.71,1.75.8.65.47,2.29,1.27,2.59,2.09.35,1,1.39,3.95-.69,3a10.73,10.73,0,0,1-5.24-5c-.16-.35,1.63.71,1.75.79a9.38,9.38,0,0,1,2.59,2.1,14.78,14.78,0,0,1,2.54,8.2c0,.07-2.19-1.21-2.37-1.33-.44-.31-2-1.17-2-1.81a14.29,14.29,0,0,0-2.46-8l4.33,2.89c.56,1.19,1.73,2-.54.43l-2.25-1.33c1.17.43.11-2.78,0-3l4.36,2.87A18,18,0,0,0,355,94.75l-3.46-2-9.47-17.52c-1.54-2.85-3.08-5.71-4.75-8.49-.83-1.4-1.71-2.78-2.61-4.11A14.13,14.13,0,0,0,331.77,59l2.34,1.2c5.15,7.24,7.24,16,9.21,24.48,0,0-2-1-2.08-1.13-.63-.45-2-1.12-2.32-1.91-3.38-8.14-9-16-16.64-20.58L323,61a105.19,105.19,0,0,0,11.7,9l-1.76-.79A52.11,52.11,0,0,0,323,50.88l4.16,2.67c8.34,11,10.95,25,16.65,37.33L339.51,88a28.33,28.33,0,0,1-1.18-4.14,4.75,4.75,0,0,1-.11-2.45c.69-1.54,4,1.63,4.67,2.21C344.37,85,344.84,87,345.22,89a32.08,32.08,0,0,1,.57,5.17c0,.85.14.79-.49.69a7.35,7.35,0,0,1-2.5-1.5,25.91,25.91,0,0,1-2.35-1.86c-1.35-1.17-2.62-2.44-3.88-3.71Q330.65,81.68,325,75.43c-4.36-4.76-8.68-9.56-12.91-14.43l4.16,2.68c3.4,6.49,8.49,12,12.9,17.76,5.47,7.27,9.06,15.72,12.59,24l-4.38-3c-.79-4.33-1.14-8.74-1.74-13.08s-1.12-9.12-3.31-12.93c-.19-.32.91.28,1,.33a18,18,0,0,1,2.44,1.74c-2.43-2-1.35-.43-.34-.91a1.34,1.34,0,0,0,.67-.93,7.46,7.46,0,0,0-.52-4.19,30.67,30.67,0,0,0-9-12.77l3.86,2.38a124.36,124.36,0,0,1,15.31,24.71c.16.35-1.63-.72-1.75-.79a8.28,8.28,0,0,1-2.6-2.1L327.06,58.56c-.17-.32,1.63.72,1.76.79a10.47,10.47,0,0,1,2.58,2.1,177.17,177.17,0,0,1,17,27.15c.18.33-1.62-.72-1.74-.8A8.24,8.24,0,0,1,344,85.7,91.87,91.87,0,0,0,328,65.16l4.19,2.73c6.93,13.43,13.07,27.79,16.56,42.51,0,0-2-1-2.07-1.11-.56-.4-2.1-1.19-2.33-1.91a83.55,83.55,0,0,0-9.84-21.89c-2.33-3.73-5.16-7.13-7.84-10.6L316.74,62c-.23-.29,1.21.45,1.2.44a41.4,41.4,0,0,1,16.22,17.33c3.47,7.21,4.9,15.26,5.61,23.17,0,0-2-1.07-2.08-1.12a7.7,7.7,0,0,1-2.33-1.91,194.9,194.9,0,0,0-22.88-31.29l4,2.46a87.36,87.36,0,0,1,20.8,42.12l-4.44-3.15c-.72-7.39-4.11-14-7.57-20.42-3.77-6.92-7.56-14-13-19.71-.57-.6.3-.18.56,0a16.1,16.1,0,0,1,2.69,1.86c11.54,9,23.25,21.59,21.48,37.45a12.63,12.63,0,0,1-2.08-1.12c-.61-.43-2-1.15-2.32-1.91A149.64,149.64,0,0,0,316.8,75.06L321.15,78c7,11,14.15,22.41,15.83,35.59,0,0-2-1.06-2.07-1.11a7.54,7.54,0,0,1-2.32-1.91c-2.33-4.11-2.92-8.8-4.3-13.26a73.74,73.74,0,0,0-5.1-11.8c-4.25-8.18-9.28-15.91-13.6-24-.18-.33,1.63.71,1.74.79a7.8,7.8,0,0,1,2.59,2.11Z"/><path class="cls-7" d="M121.1,201.87,3.84,4.86C3.31,4,2.89,3,2,3.52L1.15,4c-.93.53-.63,1.18-.1,2.11L112.77,204.79a4.14,4.14,0,0,0,5.39,1.69l1.8-.86A2.65,2.65,0,0,0,121.1,201.87Z"/><path class="cls-2" d="M121.25,199.46l-3.33-5.59-9-15.15L95.68,156.51l-16.09-27L62.11,100.1,44.73,70.89l-16-26.84L15.68,22.1,7,7.47,4.67,3.6C4.18,2.77,3.34.89,2.44.89A3.21,3.21,0,0,0,1,1.58C0,2.29,0,3.76,0,4.89A7.16,7.16,0,0,0,.91,8.53l.32.56L3,12.29,10.73,26,22.86,47.57l15,26.68L54.5,103.82l16.81,29.91L86.87,161.4l13,23.16,9,16.08c1.22,2.17,2.38,4.39,3.66,6.52a4.38,4.38,0,0,0,5.69,1.75c1.17-.52,2.49-1,3.1-2.19a8.77,8.77,0,0,0,0-7c-.46-.9-.7.53-.75.9a6.62,6.62,0,0,0,.2,3.42c.55,1.08-.12-1.84.14-1.91,0,0-.31.45-.38.52a2.87,2.87,0,0,1-.84.58c-.5.26-1,.51-1.55.74a4.06,4.06,0,0,1-5-1.16,7.54,7.54,0,0,1-.47-.77c-.53-.92-1-1.85-1.57-2.77l-7.28-13L92.24,165.6,77.57,139.51,61.16,110.32,44.47,80.66l-15.72-28L15.46,29.06,5.89,12c-1.51-2.67-3-5.34-4.52-8a3.35,3.35,0,0,1-.43-.87l.14,2.43,0-.25L.84,6.8A2.75,2.75,0,0,1,2.3,5.89C3,5.8,3.39,6.75,3.7,7.28l.07.12c.15.25.3.51.46.76L6.3,11.65l8.18,13.74L26.93,46.31,42.36,72.24l17,28.49,17.2,28.89,16.14,27.11,13.61,22.88,9.81,16.48c1.55,2.6,3,5.37,4.68,7.85l.2.34c.34.58.67-1.66.67-1.75A5.64,5.64,0,0,0,121.25,199.46Z"/><path class="cls-5" d="M399.14,112c8.14,7.42,11.74,18.44,17.52,27.82,17.52,28.45,53.52,39.53,86.84,42.06,35.78,2.72,73.88-2.55,102.45-24.28s35.73-63.69,18.56-95.2C599,15.48,544,15.13,522.69,15.58c-23.58.49-48.25,3-67.94,16-15.27,10.06-26.21,25.66-33.69,42.34-1.88,4.2-3.78,8.74-7.62,11.28-3.26,2.16-7.36,2.47-11.19,3.26-7.83,1.62-22.56,7.3-22.39,16.88C386.45,106.43,393.69,107,399.14,112Z"/><path class="cls-8" d="M399,113.8c8.94,8.25,12.41,20.38,19.09,30.25a75.4,75.4,0,0,0,23.29,21.79c18.84,11.57,41.28,16.42,63.11,18,24.57,1.76,50-.16,73.16-8.9a106.49,106.49,0,0,0,30.85-17.49,70.19,70.19,0,0,0,18.58-24.72,83.34,83.34,0,0,0,2.33-61.38c-6.75-18.88-20.76-34.56-38.3-44.09-14.57-7.92-31.06-11.72-47.49-13-6.09-.48-12.2-.62-18.31-.54a221.44,221.44,0,0,0-33.93,2.59c-12.27,2.05-24.36,5.78-35,12.36-10.44,6.46-19,15.55-25.76,25.73a124.11,124.11,0,0,0-8.79,15.73c-2.51,5.34-4.56,11.78-10.43,14.3-2.91,1.25-6.11,1.55-9.18,2.19a46.88,46.88,0,0,0-5.85,1.62,36.38,36.38,0,0,0-11.87,6.34,13.64,13.64,0,0,0-5.08,10.79c0,.3-.05,1.8.41,1.88,6.75,1.13,13.85,1.86,19.17,6.61.39.35.5-1.17.51-1.31,0-.52.17-1.9-.29-2.31-5.4-4.81-12.54-5.59-19.39-6.74l.42,1.87c0-3.87,4.2-7.24,7.11-9.13a43.41,43.41,0,0,1,12.22-5.24c5.08-1.38,11-1.28,15.15-4.88,4.36-3.75,6.11-9.94,8.57-14.94a103.35,103.35,0,0,1,20.59-29,79.45,79.45,0,0,1,31.56-18.4c12-3.77,24.55-5.29,37-5.94,7.22-.38,14.46-.55,21.69-.35,15.12.4,30.35,2.6,44.57,7.92,17.69,6.62,33,18.31,43.05,34.42a74.08,74.08,0,0,1,8.78,58.88,71.68,71.68,0,0,1-14,26.8c-7.26,8.66-16.77,15.21-26.78,20.33-21.5,11-46,14.91-70,14.84-22.26-.06-45.16-3.07-65.73-12a88.51,88.51,0,0,1-26.42-17.13,69.62,69.62,0,0,1-10.19-12.33c-3.17-4.9-5.6-10.22-8.36-15.35s-5.73-9.82-9.93-13.7c-.39-.36-.5,1.17-.51,1.31C398.71,112,398.57,113.37,399,113.8Z"/></g></g></svg>