<?xml version="1.0" encoding="utf-8"?>
<!-- Generator: Adobe Illustrator 24.2.3, SVG Export Plug-In . SVG Version: 6.00 Build 0)  -->
<svg version="1.1" id="圖層_1" xmlns="http://www.w3.org/2000/svg" xmlns:xlink="http://www.w3.org/1999/xlink" x="0px" y="0px"
	 viewBox="0 0 94.4 50" style="enable-background:new 0 0 94.4 50;" xml:space="preserve">
<style type="text/css">
	.st0{fill:#E2E1D1;}
	.st1{fill:#D2DDD3;}
</style>
<g id="圖層_2_1_">
	<g id="圖層_1-2">
		<path class="st0" d="M79.8,20.8c-0.3,0.6-1,0.9-1.6,0.7l0,0c-0.9-0.4-1.1-2-2-1.8c-1.6,2.3-0.9,5.5-1.6,8.2
			c-0.2,0.7-0.5,1.4-1.1,1.9c-0.5,0.5-1.3,0.7-2,0.4c-0.7-0.4-1.2-1.2-1.3-2c-0.1-0.8-0.3-1.6-0.6-2.3c-0.3-0.8-1.2-1.2-2-1
			c-0.4,0.2-0.9,0.7-1.3,0.5c-0.3-0.1-0.4-0.5-0.4-0.8c-0.2-1.8-0.5-3.6-0.7-5.5c-0.1-0.4-0.2-0.9-0.6-0.9c-0.2,0-0.4,0.1-0.5,0.2
			l-4.5,3.3c-0.5,0.4-1,0.7-1.6,0.8c-0.6,0.1-1.2-0.2-1.5-0.7c-0.1-0.5-0.1-1,0.2-1.5c0.3-0.8,0.6-1.5,0.9-2.2l0,0
			c0,0,0-0.1,0.1-0.1l1-1.5c0.5-0.7,1-1.5,1.5-2.1l0.5-0.7c1-1.3,2-2.6,3.1-3.8l0.4-0.5c0.2-0.2,0.4-0.5,0.6-0.6
			c0.1-0.1,0.3-0.3,0.4-0.4l0.2-0.2c0.2-0.2,0.4-0.3,0.6-0.5l0.4-0.3c0.3-0.2,0.7-0.5,1.1-0.6c0.3-0.1,0.6-0.2,0.9-0.2
			c1.4-0.1,3.3,1.4,5.5,3.9c2.2,2.6,4.3,5.4,6.2,8.3V19C80.1,19.6,80,20.3,79.8,20.8z"/>
		<path class="st1" d="M69.2,43.4h25.2c0,0-7.2-13.9-14.3-24.6V19c0.1,0.6,0,1.3-0.3,1.9c-0.3,0.6-1,0.9-1.6,0.7l0,0
			c-0.9-0.4-1.1-2-2-1.8c-1.6,2.3-0.9,5.5-1.6,8.2c-0.2,0.7-0.5,1.4-1.1,1.9c-0.5,0.5-1.3,0.7-2,0.4c-0.7-0.4-1.2-1.2-1.3-2
			c-0.1-0.8-0.3-1.6-0.6-2.3c-0.3-0.8-1.2-1.2-2-1c-0.4,0.2-0.9,0.7-1.3,0.5c-0.3-0.1-0.4-0.5-0.4-0.8c-0.2-1.8-0.5-3.6-0.7-5.5
			c-0.1-0.4-0.2-0.9-0.6-0.9c-0.2,0-0.4,0.1-0.5,0.2l-4.5,3.3c-0.5,0.4-1,0.7-1.6,0.8c-0.6,0.1-1.2-0.2-1.5-0.7
			c-0.1-0.5-0.1-1,0.2-1.5c0.3-0.8,0.6-1.5,0.9-2.2c-0.3,0.5-0.6,1-0.9,1.5c-0.2,0.3-0.3,0.5-0.5,0.8l-0.5,0.8
			c4.5,7.2,8.7,14.6,12.7,22.1H69.2z"/>
		<path class="st0" d="M77.6,29c-0.6,0-1,0.4-1.1,0.9c0,0.6,0.4,1,0.9,1.1s1-0.4,1.1-0.9C78.6,29.5,78.2,29,77.6,29z"/>
		<path class="st0" d="M84.3,27.5c0-0.2-0.1-0.3-0.2-0.5l-0.2-0.2c-0.1-0.1-0.3-0.2-0.5-0.2h-0.2c-0.1,0-0.3,0-0.4,0.1
			c-0.1,0-0.2,0.1-0.3,0.2c-0.1,0.1-0.2,0.2-0.2,0.3c-0.1,0.1-0.1,0.2-0.1,0.4v0.3c0,0.2,0.1,0.3,0.2,0.5l0.2,0.2
			c0.1,0.1,0.3,0.2,0.5,0.2h0.2c0.1,0,0.3,0,0.4-0.1c0.1,0,0.2-0.1,0.3-0.2c0.1-0.1,0.2-0.2,0.2-0.3c0.1-0.1,0.1-0.2,0.1-0.4V27.5z"
			/>
		<path class="st0" d="M83.3,31c-0.6,0-1,0.4-1.1,0.9c0,0.6,0.4,1,0.9,1.1l0,0c0.6,0,1-0.4,1.1-0.9C84.3,31.5,83.9,31,83.3,31z"/>
		<path class="st0" d="M49.4,19.4c-0.4,0.8-1.3,1.3-2.2,1l0,0c-1.2-0.5-1.5-2.7-2.8-2.5c-2.1,3.2-1.2,7.4-2.2,11.1
			c-0.2,1-0.7,1.9-1.4,2.6c-0.7,0.7-1.8,0.9-2.8,0.6c-1-0.6-1.6-1.6-1.7-2.7c-0.1-1.1-0.3-2.2-0.7-3.2c-0.4-1.1-1.6-1.7-2.7-1.3
			c-0.6,0.3-1.2,1-1.8,0.7c-0.4-0.2-0.5-0.7-0.6-1.1c-0.3-2.5-0.6-4.9-1-7.4c-0.1-0.5-0.3-1.2-0.8-1.2c-0.3,0-0.5,0.1-0.7,0.3
			l-6,4.5c-0.6,0.5-1.3,0.9-2.1,1.1c-0.8,0.2-1.7-0.2-2.1-0.9c-0.2-0.7-0.1-1.4,0.2-2c0.4-1,0.8-2,1.2-3l0,0c0,0,0.1-0.1,0.1-0.1
			l1.4-2.1c0.7-1,1.3-2,2-2.9c0.2-0.3,0.4-0.6,0.7-0.9c1.3-1.8,2.7-3.6,4.2-5.2c0.2-0.2,0.4-0.5,0.6-0.7s0.6-0.6,0.9-0.9
			c0.2-0.2,0.4-0.4,0.6-0.5l0.3-0.2c0.3-0.2,0.5-0.5,0.8-0.6l0.6-0.5c0.5-0.3,1-0.6,1.5-0.9C33.1,0.1,33.5,0,33.9,0
			c1.9-0.1,4.5,2,7.5,5.3c3,3.6,5.8,7.3,8.3,11.3v0.2C49.9,17.7,49.7,18.6,49.4,19.4z"/>
		<path class="st1" d="M49.8,16.6v0.2c0.1,0.9,0,1.8-0.4,2.6c-0.4,0.8-1.3,1.3-2.2,1l0,0c-1.2-0.5-1.5-2.7-2.8-2.5
			c-2.1,3.2-1.2,7.4-2.2,11.1c-0.2,1-0.7,1.9-1.4,2.6c-0.7,0.7-1.8,0.9-2.8,0.6c-1-0.6-1.6-1.6-1.7-2.7c-0.1-1.1-0.3-2.2-0.7-3.2
			c-0.4-1.1-1.6-1.7-2.7-1.3c-0.6,0.3-1.2,1-1.8,0.7c-0.4-0.2-0.5-0.7-0.6-1.1c-0.3-2.5-0.6-4.9-1-7.4c-0.1-0.5-0.3-1.2-0.8-1.2
			c-0.3,0-0.5,0.1-0.7,0.3l-6,4.5c-0.6,0.5-1.3,0.9-2.1,1.1c-0.8,0.2-1.7-0.2-2.1-0.9c-0.2-0.7-0.1-1.4,0.2-2c0.4-1,0.8-2,1.2-3
			l-1.3,2c-0.2,0.3-0.5,0.7-0.7,1.1c-1.1,1.8-2.3,3.6-3.4,5.5c-0.3,0.5-0.6,1-0.9,1.5c-0.9,1.5-1.7,2.9-2.5,4.3
			c-0.4,0.6-0.7,1.3-1.1,1.9c-0.3,0.6-0.7,1.2-1,1.8c-2.2,4-4.2,7.6-5.6,10.4c-0.2,0.4-0.4,0.8-0.6,1.2C0.8,48.3,0,50,0,50h69.2
			C69.2,50,59.4,31.2,49.8,16.6z"/>
		<path class="st0" d="M48.1,25.7c-0.1-0.1-0.2-0.2-0.3-0.3c-0.1-0.1-0.2-0.1-0.4-0.1c-0.1,0-0.3,0-0.4,0l-0.3,0.1
			c-0.2,0.1-0.3,0.2-0.4,0.4L46.3,26c0,0.2,0,0.4,0,0.5l0,0.2c0,0.1,0.1,0.3,0.2,0.4c0.1,0.1,0.2,0.2,0.3,0.3
			c0.1,0.1,0.2,0.1,0.4,0.1c0.1,0,0.3,0,0.4,0l0.3-0.1c0.2-0.1,0.3-0.2,0.4-0.4l0.1-0.2c0-0.2,0-0.4,0-0.5l0-0.2
			C48.3,25.9,48.2,25.8,48.1,25.7z"/>
		<path class="st0" d="M53.6,31.5c-0.1-0.1-0.2-0.2-0.3-0.3l-0.2-0.1c-0.2-0.1-0.4-0.1-0.5,0l-0.3,0.1c-0.2,0.1-0.3,0.2-0.4,0.4
			l-0.1,0.2c-0.1,0.2-0.2,0.5-0.1,0.8c0,0.1,0.1,0.3,0.2,0.4c0.1,0.1,0.2,0.2,0.3,0.3l0.2,0.1c0.2,0.1,0.4,0.1,0.5,0l0.3-0.1
			c0.2-0.1,0.3-0.2,0.4-0.4l0.2-0.2c0.1-0.1,0.1-0.3,0.1-0.4c0-0.1,0-0.3,0-0.4C53.8,31.8,53.7,31.7,53.6,31.5z"/>
		<path class="st0" d="M46.8,30.7c-0.1-0.1-0.2-0.2-0.3-0.3c-0.1-0.1-0.2-0.1-0.4-0.1c-0.1,0-0.3,0-0.4,0l-0.3,0.1
			c-0.2,0.1-0.3,0.2-0.4,0.4l0,0.3c-0.1,0.2-0.1,0.4,0,0.5l0.1,0.4c0,0.1,0.1,0.3,0.2,0.4c0.2,0.2,0.4,0.4,0.7,0.4
			c0.1,0,0.3,0,0.4,0l0.3-0.1c0.2-0.1,0.3-0.2,0.4-0.4l0.1-0.2c0-0.2,0-0.4,0-0.5L47,31C47,30.9,46.9,30.8,46.8,30.7z"/>
		<path class="st0" d="M44.7,37.4c-0.1-0.1-0.2-0.2-0.3-0.3C44.1,37,43.9,37,43.6,37l-0.3,0.1c-0.2,0.1-0.3,0.2-0.4,0.4l-0.1,0.2
			c-0.1,0.2-0.1,0.4,0,0.5l0.1,0.4c0,0.1,0.1,0.3,0.2,0.4c0.1,0.1,0.2,0.2,0.3,0.3c0.1,0.1,0.2,0.1,0.4,0.1c0.1,0,0.3,0,0.4,0
			l0.3-0.1c0.2-0.1,0.3-0.2,0.4-0.4l0.1-0.2c0-0.2,0-0.4,0-0.5l-0.1-0.4C44.8,37.7,44.8,37.5,44.7,37.4z"/>
		<path class="st0" d="M50.4,37.1c-0.6,0.1-0.9,0.7-0.7,1.3c0.1,0.6,0.7,0.9,1.3,0.7s0.9-0.7,0.7-1.3C51.5,37.3,51,37,50.4,37.1z"/>
		<path class="st0" d="M58.7,36.5c-0.1-0.1-0.2-0.2-0.3-0.3c-0.1-0.1-0.2-0.1-0.4-0.1c-0.1,0-0.3,0-0.4,0l-0.3,0.1
			c-0.2,0.1-0.3,0.2-0.4,0.4l-0.1,0.2c0,0.2,0,0.4,0,0.5l0,0.2c0,0.1,0.1,0.3,0.2,0.4c0.1,0.1,0.2,0.2,0.3,0.3
			c0.2,0.1,0.5,0.2,0.8,0.1l0.3-0.1c0.2-0.1,0.3-0.2,0.4-0.4l0.1-0.2c0-0.2,0-0.4,0-0.5l0-0.2C58.8,36.7,58.8,36.6,58.7,36.5z"/>
		<path class="st0" d="M62.7,40.5c-0.1-0.1-0.2-0.2-0.3-0.3c-0.1-0.1-0.2-0.1-0.4-0.1c-0.1,0-0.3,0-0.4,0l-0.3,0.1
			c-0.2,0.1-0.3,0.2-0.4,0.4l-0.1,0.2c0,0.2,0,0.4,0,0.5v0.2c0,0.1,0.1,0.3,0.2,0.4c0.1,0.1,0.2,0.2,0.3,0.3
			c0.1,0.1,0.2,0.1,0.4,0.1c0.1,0,0.3,0,0.4,0l0.3-0.1c0.2-0.1,0.3-0.2,0.4-0.4l0.1-0.2c0.1-0.2,0.1-0.4,0-0.5v-0.2
			C62.9,40.7,62.8,40.6,62.7,40.5z"/>
	</g>
</g>
</svg>
