<svg id="Capa_1" enable-background="new 0 0 512 512" height="512" viewBox="0 0 512 512" width="512" xmlns="http://www.w3.org/2000/svg"><g><path d="m138.486 337.159c42.557 0 91.945-8.746 122.496-22.538 14.028-6.333 20.024-23.051 13.114-36.804-29.383-58.482-110.569-171.608-135.61-171.608s-106.226 113.126-135.61 171.608c-6.91 13.753-.914 30.471 13.114 36.804 30.551 13.792 79.939 22.538 122.496 22.538z" fill="#6fcd90"/><path d="m138.486 337.159c42.557 0 91.945-8.746 122.496-22.538 14.028-6.333 20.024-23.051 13.114-36.804-16.415-32.671-48.995-82.39-78.924-119.918-4.061 3.914-8.045 7.997-11.958 12.138-17.128 18.125-37.384 43.04-58.578 72.054-6.568 8.992-9.255 19.638-8.221 29.936-14.098 20.342-27.387 40.85-38.855 59.876 20.076 3.379 41.231 5.256 60.926 5.256z" fill="#4dc176"/><path d="m373.514 288.508c-42.557 0-91.945-8.746-122.496-22.538-14.028-6.333-20.024-23.051-13.114-36.804 29.383-58.482 110.569-171.608 135.61-171.608s106.226 113.126 135.61 171.608c6.91 13.753.914 30.471-13.114 36.804-30.551 13.792-79.939 22.538-122.496 22.538z" fill="#6fcd90"/><path d="m405.778 286.973c-2.594-3.861-5.221-7.734-7.894-11.615.313-11.646-3.2-23.207-10.331-32.977-21.315-29.2-41.637-54.216-58.768-72.344-10.92-11.557-22.387-22.674-34.573-30.863-22.571 31.361-43.992 65.477-56.309 89.992-6.91 13.753-.915 30.471 13.114 36.804 30.551 13.792 79.939 22.538 122.496 22.538 10.47 0 21.352-.532 32.265-1.535z" fill="#4dc176"/><path d="m224.385 204.859c7.773-.388 12.015-9.235 7.534-15.598-19.802-28.117-40.983-54.837-58.288-72.033-15.096-15.002-25.935-21.692-35.145-21.692-9.209 0-20.048 6.69-35.145 21.692-17.939 17.827-40.069 45.921-60.504 75.194-5.55 7.951-2.131 18.988 6.908 22.497 57.996 22.513 122.281-7.443 174.64-10.06z" fill="#cde9fa"/><path d="m183.214 170.037c-12.344 13.062-26.316 29.664-41.089 48.772 28.835-5.027 56.942-12.684 82.26-13.95 7.773-.389 12.015-9.235 7.534-15.598-9.504-13.495-19.323-26.654-28.881-38.607-6.82 5.976-13.417 12.602-19.824 19.383z" fill="#a2ddfd"/><path d="m256 465.115c54.846 0 118.494-11.271 157.867-29.046 18.079-8.161 25.806-29.707 16.9-47.431-37.868-75.369-142.496-221.159-174.767-221.159s-136.899 145.79-174.767 221.159c-8.905 17.724-1.179 39.27 16.9 47.431 39.373 17.775 103.022 29.046 157.867 29.046z" fill="#8de1ce"/><path d="m98.133 436.069c35.424 15.992 90.495 26.714 141.129 28.705-80.186-37.909-57.014-135.307-34.249-186.3v-70.683c-43.407 48.747-98.486 130.502-123.78 180.847-8.905 17.725-1.178 39.27 16.9 47.431z" fill="#6fcd90"/><path d="m354.919 294.19c12.172-6.618 15.841-22.397 7.673-33.587-19.521-26.742-39.319-51.404-56.268-69.339-15.16-16.043-34.581-34.458-50.324-34.458s-35.164 18.415-50.324 34.458c-16.968 17.956-36.675 42.487-56.084 69.057-5.565 7.619-1.022 18.382 8.305 19.805 55.451 8.458 129.98 50.513 197.022 14.064z" fill="#cde9fa"/><path d="m453.682 153.806c8.952-3.966 11.899-15.222 6.153-23.15-17.672-24.38-35.929-46.928-51.176-62.079-15.096-15.002-25.936-21.692-35.145-21.692-9.21 0-20.048 6.69-35.145 21.692-11.033 10.964-23.651 25.816-36.484 42.433-4.549 5.89-1.841 14.565 5.275 16.745 39.08 11.969 92.392 50.033 146.522 26.051z" fill="#cde9fa"/><g><g><ellipse cx="174.042" cy="398.46" fill="#fff" rx="30.241" ry="24.082"/><ellipse cx="337.958" cy="398.46" fill="#fff" rx="30.241" ry="24.082"/><path d="m256 372.873c-11.997 0-22.681-8.062-29.401 1.88-6.816 10.085 8.45 25.723 29.401 25.723s36.217-15.638 29.401-25.723c-6.72-9.942-17.404-1.88-29.401-1.88z" fill="#565e75"/></g><g fill="#565e75"><path d="m191.667 381.113c-7.284 0-14.209-3.154-19.001-8.653-2.721-3.123-2.396-7.86.727-10.582 3.122-2.721 7.86-2.395 10.581.727 1.943 2.229 4.747 3.508 7.692 3.508 2.946 0 5.75-1.279 7.693-3.508 2.722-3.123 7.459-3.447 10.582-.727 3.123 2.722 3.448 7.459.727 10.582-4.792 5.499-11.718 8.653-19.001 8.653z"/><path d="m320.334 381.113c-7.284 0-14.209-3.154-19.001-8.653-2.721-3.123-2.396-7.86.727-10.582 3.122-2.721 7.86-2.395 10.582.727 1.943 2.229 4.747 3.508 7.692 3.508 2.946 0 5.749-1.278 7.692-3.508 2.721-3.123 7.457-3.448 10.582-.727 3.123 2.721 3.448 7.458.727 10.582-4.792 5.499-11.718 8.653-19.001 8.653z"/></g></g></g></svg>