<svg xmlns="http://www.w3.org/2000/svg" viewBox="0 0 284.41 339.3"><defs><style>.cls-1{fill:#494233;}.cls-2{fill:#2c271f;}.cls-3{fill:#f5c641;}.cls-4{fill:#f0efe8;}.cls-5{fill:none;stroke:#2c271f;stroke-linecap:round;stroke-linejoin:round;}.cls-6{fill:#fff;}</style></defs><title>資產 2</title><g id="圖層_2" data-name="圖層 2"><g id="圖層_1-2" data-name="圖層 1"><path class="cls-1" d="M273.31,93.32c-8.69-11.33-23.22-1.27-21,9.22,3.77,17.66,1.35,42.84-22.87,71.58-8.91,10.57-20.07,19.57-33.18,24.31a56.45,56.45,0,0,1-12.49,3,52,52,0,0,1-6.48.36c-2,0-4.07-.35-6.12-.17l-.26,0a2.06,2.06,0,0,0-1.74.86,2,2,0,0,0-.05,1.27c.36,2,1.12,4.12,2.8,5.3a9.18,9.18,0,0,0,4.15,1.32c1.48.22,2.91.67,4.38.84,3.82.44,7.65.77,11.49,1a117.55,117.55,0,0,0,19.85-.62,78.63,78.63,0,0,0,30.67-10.32,112.72,112.72,0,0,0,18.92-14.58C291.79,158.44,282,104.64,273.31,93.32Z"/><path class="cls-1" d="M150.84,131.44a119.75,119.75,0,0,0,34.56-8c18.35-7.59,45.43-29.05,35.7-34.47-8.64-4.81-32.79,15.17-66.15,15.86a43,43,0,0,1-13.4-.83v-3.41c-.44-3.66-.89-7.31-1.3-11-.25-2.15.38-7-1.83-8.18a2.1,2.1,0,0,0-2.79.78,3.69,3.69,0,0,0-.16,1.9c.25,3.1.51,3.8.08,6.78-1,6.8,0,8.33,0,11,0,5.18.59,7.15-.11,12.29-1.3,9.68-4,24.65-6.8,34-2.07,6.9-1.65,5.54-2.91,12.63-.84,4.73-6.87,15.55-10.69,18.46-2.93,2.23-11.65,7.77-22.34-1-9.08-7.43-22.45-38.78-25.6-50.08q-2.61-9.33-4.62-18.8a60.07,60.07,0,0,1-.62-7.85l-.72-9a4.3,4.3,0,0,0-.9-2.78c-.74,2.61.08,5.39.15,8.11a.51.51,0,0,1-.58.64c-1.8.12-3.07-1.06-4.47-2C45,89.14,37.27,78.85,30.56,68.29,25.43,60.23,21.22,51,14.89,43.8,4.2,31.61-1.52,48.25,10.11,76.9c12.53,30.88,50.32,59.5,50.32,59.5s2.29,69.19,26.26,105.9c0,0,2.17,7.85,9.71,28.66s7.35,37.74,6.31,45.33c-.62,4.56-2.95,10.18-1.68,14.78a3.26,3.26,0,0,0,4,2.63,38.85,38.85,0,0,0,11.82-3.38c7.14-3.69,7.42-10.67,8-17.84,1-12-.53-51.7,22.14-43s37.44,25.33,41.21,38.15c1.15,3.91,2,8,3.56,11.76a8.87,8.87,0,0,0,8.58,5.33,10,10,0,0,0,6.55-2.58,16.42,16.42,0,0,0,2.52-3.11,13,13,0,0,0,2.55-7.23c0-2.58.83-4.83-.07-7.43-2.61-7.48-17.8-33.37-23.05-43.1s-10.18-18.2-18.05-44.68c-.34-1.1-.67-2.22-1-3.33-.86-2.91-1.73-5.87-2.58-8.87C160.41,180.84,153.7,154.66,150.84,131.44Z"/><path class="cls-2" d="M16,51.18c2.85,5.73,5.2,11.69,8.11,17.37a50,50,0,0,0,4.63,7.61c2,2.57,4.36,4.8,5.76,7.76l0-3.68C27.83,74,24.27,65.42,20.91,57.11c-.09-.23-.25,1.2-.26,1.31a6.35,6.35,0,0,0,.15,2.3A103.51,103.51,0,0,0,32.08,82.13l.05-3.68C23.07,73.41,20.4,62.73,20,53.1l-.29,2.57c1.08,5.55,3.55,10.63,6,15.68C27.92,76,30.35,80.59,34.28,84c0,0,.2-1.71.2-1.88,0-.46.15-1.51-.2-1.87A59.69,59.69,0,0,1,19.06,52.07c-.16-.72-.28.56-.28.67a9.22,9.22,0,0,0,.07,2.57,135.9,135.9,0,0,0,8.59,25.9l0-3.68a50.21,50.21,0,0,1-9.38-10.15c-2.4-3.62-4.72-8.41-4.39-12.86l-.23.86L16.71,65.9c.91,3,1.72,6,2.92,8.94A57.73,57.73,0,0,0,28,89.18l.05-3.68c-6.87-7.84-12.49-17.07-17.26-26.32-.12-.22-.24,1-.25,1.09a11.49,11.49,0,0,0,.09,2.34,65.32,65.32,0,0,0,5.25,17.71L16,76.71A124.63,124.63,0,0,1,7.46,56.2l-.11,3.62L16,78.09l.11-3.61a85.73,85.73,0,0,1-7.8-18.63c-.07-.24-.23.87-.23.87a12.3,12.3,0,0,0,0,2.27c.44,4.23,1.65,9.13,4.69,12.29.53.55,1.58,1.55,2.35.86a2.39,2.39,0,0,0,.5-1.44,17.06,17.06,0,0,0,0-3.5L15.42,70c1.24,2.72,3.71,5,5.83,7,2.29,2.18,4.74,4.22,7,6.49,0,0,.2-1.55.2-1.63a4.55,4.55,0,0,0-.14-2.05C25,74.39,21.63,69,19.72,63c-1.53-4.83-2.57-9.9-4.88-14.44-.11-.22-.24,1-.24,1.09a8.73,8.73,0,0,0,.08,2.34Q17,61.45,18.9,71.05c.51,2.51,1,5,1.38,7.58,0,.36.06.73.12,1.09,0-.31,0-.1,0,0a7.42,7.42,0,0,0,0-1.7c0-.18.06-.31,0-.34a12.87,12.87,0,0,0-1.71-1.35,18.3,18.3,0,0,1-2.06-2.07,13.23,13.23,0,0,1-1.07-1.61c-.74-1.23-.23,2.76-.09,2.82s.21,0,.32,0A9.73,9.73,0,0,1,19,78.71c.16.23.25-1.21.25-1.31a5.14,5.14,0,0,0-.14-2.31C14.4,66.9,7.59,59.82,4.7,50.66c-.06-.2-.24,1-.24,1.09a8,8,0,0,0,.08,2.34A37,37,0,0,0,11,67.41c.16.21.25-1.26.25-1.31a100.53,100.53,0,0,0-.48-13.88c-.11-1.08-.29-.1-.32.38-.6,8.11.84,16.24,5.19,23.2l.06-3.69c-4-4.5-8-9.14-10-14.92A17.6,17.6,0,0,0,5.39,59c-.06,5,2.23,9.58,4.39,14,2.33,4.79,4.7,9.56,7,14.34.12.24.22-.62.22-.67a13.12,13.12,0,0,0,0-2.08,15.23,15.23,0,0,0-2.78-8.16c-.17-.23-.25,1.2-.25,1.3,0,.56-.21,1.81.14,2.31s1.67,2.37,2,.83a7.45,7.45,0,0,0-.68-5c-.14-.23-.25,1.21-.26,1.31a6.4,6.4,0,0,0,.15,2.31A10.36,10.36,0,0,0,19,84.29s.2-1.72.21-1.88c0-.37.15-1.61-.21-1.87a10,10,0,0,1-3.5-4.6l-.11,3.62c.45.79.45,1.8.46-.13L16,77.62c-.22.84-1.61-1.06-1.68-1.16l-.11,3.61a12.57,12.57,0,0,1,2.53,6.44l.23-2.75q-3-6.2-6.1-12.4c-1-2-2-4-2.89-6.1-.45-1-.88-2.07-1.27-3.13A9.71,9.71,0,0,1,5.8,59l-.26,1.81c2,5.83,6.11,10.51,10.14,15,0,0,.2-1.53.2-1.62a4.59,4.59,0,0,0-.15-2.06c-3.25-5.18-5.4-11.51-5-17.69l-.32.38a74.4,74.4,0,0,1,.38,10.23l.25-1.31A36.1,36.1,0,0,1,4.75,50.85l-.16,3.43C7.48,63.44,14.29,70.51,19,78.71l.11-3.62a19,19,0,0,0-1.86-2.33c-.34-.34-.85-1-1.35-1.05-1.15-.23-.7,2.94-.62,3.52a6.47,6.47,0,0,0,2.07,3.47,22.91,22.91,0,0,0,2.71,2.4c.47.35.38.39.58,0a5,5,0,0,0,.15-2,18.17,18.17,0,0,0-.1-2.09c-.12-1.24-.33-2.47-.54-3.69-.66-3.86-1.47-7.69-2.29-11.52-.94-4.38-1.92-8.75-3-13.1l-.16,3.43c2.31,4.54,3.35,9.61,4.88,14.44,1.91,6,5.25,11.44,8.54,16.78l.05-3.68c-2.13-2.19-4.49-4.16-6.7-6.26s-4.71-4.3-6-7.07c-.11-.23-.22.63-.22.67a12,12,0,0,0,0,2.08c-.16-2.18.31-.93-.37-.55a1,1,0,0,1-.8,0,5.15,5.15,0,0,1-2.16-2,21.29,21.29,0,0,1-3.6-10.22l-.2,3.13A85.45,85.45,0,0,0,16,78.09c.13.23.25-1.21.25-1.31a5.73,5.73,0,0,0-.14-2.3L7.46,56.2c-.11-.23-.25,1.21-.25,1.31a7.15,7.15,0,0,0,.14,2.31,124.53,124.53,0,0,0,8.53,20.5c.12.23.25-1.21.25-1.31a5.57,5.57,0,0,0-.14-2.3,63.79,63.79,0,0,1-5.15-17.34l-.16,3.43c4.8,9.3,10.46,18.56,17.37,26.45,0,0,.21-1.53.21-1.62,0-.48.17-1.67-.15-2.06a57.79,57.79,0,0,1-8.37-14.35,91.33,91.33,0,0,1-2.85-8.71L13.6,51.76c-.08-.24-.24.87-.24.86a28.78,28.78,0,0,0,3.28,16.14c2.68,4.89,6.66,8.91,10.85,12.52,0,0,.21-1.57.21-1.63a5.29,5.29,0,0,0-.15-2.06,134.11,134.11,0,0,1-8.49-25.52l-.21,3.24A60.51,60.51,0,0,0,34.28,84V80.26c-3.89-3.38-6.28-8-8.5-12.53-2.4-4.91-4.86-9.89-5.91-15.3-.11-.56-.22.1-.25.29a11.58,11.58,0,0,0,0,2.28c.48,10.16,2.87,21.82,12.54,27.2a9,9,0,0,0,.2-1.63c0-.51.17-1.6-.14-2A104,104,0,0,1,20.91,57.11l-.11,3.61c3.39,8.38,7,17,13.75,23.27,0,0,.21-1.56.21-1.62a5.08,5.08,0,0,0-.15-2.06c-1.4-3-3.8-5.19-5.77-7.76a50.76,50.76,0,0,1-4.62-7.61C21.3,59.25,19,53.29,16.11,47.57c-.12-.23-.25,1.21-.25,1.31a5.24,5.24,0,0,0,.14,2.3Z"/><path class="cls-2" d="M204,93.07a180.64,180.64,0,0,1-42.52,21c-.75.25-.4,3.83,0,3.75a143.94,143.94,0,0,0,19.29-5.65,188.49,188.49,0,0,0,20.33-8.39,59.77,59.77,0,0,0,8.09-4.6l-.22-3.61a96.3,96.3,0,0,1-18.57,12.93c-6,3.32-12.5,6.41-19.29,7.78-.76.16-.41,3.83,0,3.75,11.74-2.12,23.72-4.48,33.73-11.35l-.22-3.61a36.91,36.91,0,0,1-21.33,9.83c-.63.06-.6,3.72,0,3.75,9.73.43,18.92-4.76,24.4-12.66.26-.38.56-3.75-.11-3.68l-20.8,2.12c-7,.71-14,1.68-21,1.43v3.75a44.61,44.61,0,0,1,8.16-2.54,54.1,54.1,0,0,0,8-2.66c5.58-2.26,10.93-5,16.68-6.78.84-.27.27-3.84,0-3.75-5.75,1.8-11.1,4.52-16.68,6.78a53.16,53.16,0,0,1-7.85,2.62,46.34,46.34,0,0,0-8.32,2.58c-.61.27-.62,3.73,0,3.75,7,.25,14-.72,21-1.43l20.8-2.12-.11-3.69c-5.45,7.86-14.51,13-24.18,12.53v3.75a37.33,37.33,0,0,0,21.55-10c.46-.42.33-1.74.29-2.3,0-.23-.1-1.59-.51-1.31-9.92,6.8-21.88,9.11-33.51,11.21V120c6.91-1.4,13.51-4.57,19.64-8a96.66,96.66,0,0,0,18.44-12.88c.47-.42.33-1.75.29-2.3,0-.22-.1-1.6-.51-1.31-5.05,3.53-10.9,6-16.56,8.38a221.2,221.2,0,0,1-20.94,7.53c-3.29,1-6.62,1.91-10,2.59v3.75a181.64,181.64,0,0,0,42.74-21.14c.47-.31.32-1.83.29-2.3,0-.23-.1-1.59-.51-1.31Z"/><path class="cls-2" d="M119,318.21c-1.26-3-.45-6,.51-9a65.06,65.06,0,0,0,2.51-8.85c1-5.78.4-11.86,3.44-17.11l-.32-3.43c-4.1,11.8-4.86,24.11-4.37,36.51l.51-2.31a15,15,0,0,1-3.37-7.71,41.43,41.43,0,0,1-.69-9,46.63,46.63,0,0,1,4.41-17.93l-.42-3.24c-2.37,7-3,14.69-4,22S115,312.5,114,319.7A5.78,5.78,0,0,0,114,322c.06.24.33.89.5.3,3-10.54,5.76-21.17,8.82-31.71a6.35,6.35,0,0,0,.17-2.34c0-.12-.29-1.46-.49-1.09-4.72,8.69-8.81,17.94-10.5,27.74l.5-.3c-2.12-6.76-1.67-14.25-.69-21.18a79.63,79.63,0,0,1,5.77-21.16l-.5-2.94c-1.88,6.75-3.31,13.65-4.67,20.53-1.58,7.94-3.53,16.4-1.53,24.44.14.56.29.67.54.15a5,5,0,0,0,.11-2.42c-1-5.86-1.74-11.74-2.18-17.66s-.72-11.81.42-17.55L109.6,275c-.39,6.32-.75,12.64-1.41,18.94s-1.46,12.69-3.39,18.74l.62,1.62c.11-6.28,1-12.53.83-18.81a33.15,33.15,0,0,0-1.21-8.7,47.32,47.32,0,0,0-4.56-9.62l-.22,3.61a26.15,26.15,0,0,1,5.42,6.84,31.61,31.61,0,0,1,2.22,8.67,86.05,86.05,0,0,1,.76,19,4.66,4.66,0,0,0,.14,2c.13.27.26.62.46.15,2.38-5.47,4.46-11.12,5-17.1a41.29,41.29,0,0,0-.38-9.16c-.39-2.91-.61-5.57,1.29-8l-.51-1.31q.56,18.06,2.31,36.07c0,.44.14,1.16.56.67s.2-2,.15-2.57q-1.69-17.53-2.22-35.17c0-.08-.21-1.7-.51-1.31-3.71,4.79-1.74,11.26-1.41,16.71.37,6.2-2.25,12.38-4.67,17.95l.6,2.12a98.71,98.71,0,0,0-.84-21.93,37.8,37.8,0,0,0-2.34-9.62c-1.31-3-3.53-5.32-5.79-7.61-.37-.38-.5,1.18-.51,1.3a4.33,4.33,0,0,0,.29,2.31,46.12,46.12,0,0,1,4.23,8.82,24.61,24.61,0,0,1,1,7.69c0,5.67-.76,11.33-.85,17,0,.18.32,2.55.62,1.61a99.5,99.5,0,0,0,3.64-19.68c.71-6.73,1.12-13.48,1.54-20.24,0-.46.16-1.7-.19-2.11s-.4-.2-.5.29c-1.3,6.55-1.16,13.37-.72,20s1.29,13.21,2.35,19.75l.64-2.27c-1-4.18-.42-8.41.3-12.59.5-2.89,1.07-5.77,1.65-8.64,1.26-6.18,2.56-12.37,4.26-18.44a5.52,5.52,0,0,0,0-2.46c-.06-.28-.25-1.13-.53-.49a80.93,80.93,0,0,0-5.37,18.17,84.8,84.8,0,0,0-1.45,20.61,42.16,42.16,0,0,0,1.73,10c.18.56.46,0,.5-.29,1.63-9.45,5.58-18.39,10.14-26.77l-.32-3.43c-3,10.54-5.76,21.17-8.82,31.71l.57,2.57q1.53-10.38,3-20.74c.49-3.35,1-6.71,1.48-10.06a66,66,0,0,1,2.39-11.48,5.73,5.73,0,0,0,.15-2.57c0-.28-.24-1.37-.57-.67a53.77,53.77,0,0,0-4.82,21.59,55.22,55.22,0,0,0,.89,11c.59,3.2,1.53,6.46,3.78,8.9.39.41.52-2.14.51-2.31-.43-11,.36-21.81,4-32.27a5.6,5.6,0,0,0,.16-2.34c0-.12-.26-1.46-.48-1.08a24.42,24.42,0,0,0-3,9.54c-.42,3.56-.44,7.17-1.28,10.66-.9,3.72-2.52,7.22-3.17,11a19.36,19.36,0,0,0,.75,10.64c.3.72.53-.45.56-.68a5.17,5.17,0,0,0-.15-2.56Z"/><path class="cls-2" d="M207.05,296.5a19.57,19.57,0,0,1-6.67-6.5c-1.93-3.19-2.5-7.13-4-10.53-2.53-5.73-7.35-10.56-8.11-17l-.57,2.56c3.52,11.11,9.73,20.79,17,29.81l.11-3.68c-3.21-.6-5.75-2.65-8.05-4.85a47.55,47.55,0,0,1-6.18-7.26A48.24,48.24,0,0,1,183,261.5l-.5,2.95c2,6.22,5.58,12,8.72,17.68s6.15,11.15,9.22,16.72c1.52,2.78,3,5.55,4.53,8.33.23.43.49-1.08.49-1.08a5.44,5.44,0,0,0-.17-2.34c-4.4-11.74-10-23-14.43-34.71-.21-.55-.43,0-.5.29a5.83,5.83,0,0,0-.06,2.28A100.21,100.21,0,0,0,199.85,302l.31-3.43c-4.8-3.5-8.53-8.45-11.75-13.38a101.57,101.57,0,0,1-9.35-18.05,62.4,62.4,0,0,1-2.95-9.17l-.5,2.95c2.45,6.36,5.35,12.58,8.27,18.74,3.09,6.51,6.09,13.85,11.79,18.54.4.33.49-1.15.5-1.31,0-.54.17-1.86-.29-2.31-4.36-4.25-8.6-8.64-12.58-13.27s-7.94-9.57-10.58-15.12l-.32,3.42c3.86,5.95,7.58,12,11.09,18.17s7,12.49,9.36,19.22l.31-3.43c-4.08-5.72-7.2-12-11.17-17.84a26.33,26.33,0,0,0-6-6.63,45.84,45.84,0,0,0-8.89-4.71v3.75c3.15.47,6.32,1,9.09,2.67a38.26,38.26,0,0,1,7.2,6.19,91.1,91.1,0,0,1,11.94,15c.24.39.46-.87.46-.86a6.24,6.24,0,0,0-.06-2.28c-1.25-5.29-2.73-10.61-5.47-15.34a32.84,32.84,0,0,0-5.14-6.5c-1.86-1.91-4.83-4.68-4.8-7.59l-.52,1.81Q190.62,285,202.38,298c.35.4.5-1.2.5-1.3,0-.59.16-1.82-.28-2.31q-11.76-13-22.62-26.78c-.33-.41-.53,1.76-.53,1.81a13,13,0,0,0,2.72,8.22c1.93,2.5,4.41,4.5,6.27,7.07,3.58,4.94,5.28,10.93,6.66,16.79l.41-3.13a91,91,0,0,0-12.25-15.33,37.93,37.93,0,0,0-7-6c-2.8-1.68-6-2.23-9.15-2.7-.47-.08-.68,3.45,0,3.75a42.17,42.17,0,0,1,9.16,4.94,27.44,27.44,0,0,1,5.76,6.58c3.86,5.72,7,11.91,11,17.52.29.4.49-1.05.49-1.08a5.59,5.59,0,0,0-.17-2.34c-2.32-6.74-5.86-13.09-9.37-19.27s-7.34-12.44-11.27-18.49c-.26-.41-.48,1.06-.48,1.08a4.75,4.75,0,0,0,.17,2.34c2.64,5.58,6.52,10.53,10.51,15.2s8.39,9.23,12.85,13.58l.21-3.62c-5.68-4.67-8.66-12-11.73-18.48-2.87-6.06-5.71-12.16-8.12-18.42-.26-.66-.49.25-.53.48a6,6,0,0,0,0,2.47,79.29,79.29,0,0,0,6.56,17.46A90.6,90.6,0,0,0,193,295.39a38.9,38.9,0,0,0,7,6.79c.48.35.54-3,.32-3.42a96.09,96.09,0,0,1-9.28-29l-.56,2.57c4.4,11.73,10,23,14.43,34.71l.31-3.43c-3.59-6.71-7.31-13.36-11-20q-2.73-4.92-5.41-9.87a76.17,76.17,0,0,1-5.88-12.46c-.23-.69-.49.28-.53.48a6.18,6.18,0,0,0,0,2.46,50.89,50.89,0,0,0,7.73,18.2,48.5,48.5,0,0,0,6.41,7.6c2.35,2.25,5,4.37,8.27,5,.59.11.41-3.31.1-3.68-7.17-8.92-13.3-18.45-16.78-29.43-.19-.59-.44.05-.5.29a6.41,6.41,0,0,0-.07,2.27,24.18,24.18,0,0,0,3.2,9.25c1.73,3,3.8,5.87,5.22,9.08,1.54,3.49,2.16,7.46,4.1,10.76a20,20,0,0,0,7,6.78c.28.16.42-1.74.42-1.87,0-.48.08-1.59-.42-1.88Z"/><path class="cls-2" d="M249.38,155.81c6.3-4.52,7.4-12.89,8.5-20a165,165,0,0,0,1.87-28.44l-.77.94a85.56,85.56,0,0,1-3.69,37.75l.5,2.94q3.21-18.63,7.49-37l-.65-.38c1.46,14.84,1.88,30-2.37,44.48l.5,2.95a217.86,217.86,0,0,0,5.76-44.48l-.62,1.62a58.26,58.26,0,0,1-4,46.18,67.39,67.39,0,0,1-7.69,11.47,3.74,3.74,0,0,0-.28,2.3c0,.16.19,1.67.5,1.31,11.28-13.05,15.7-30,17.64-46.72.61-5.24,1-10.5,1.43-15.76l-.75.45c1,7.9,1.82,15.94.72,23.87-1.17,8.45-5,15.76-9.16,23.08l-7.12,12.55.32,3.42c2-4.52,5-8.51,7.66-12.66a84.06,84.06,0,0,0,6.53-12.2,80,80,0,0,0,6.3-26.72l-.81-.5c0,17.2-5.75,34-15.25,48.29a4,4,0,0,0-.28,2.3c0,.17.17,1.66.5,1.31a66.16,66.16,0,0,0,15.39-26c3.09-10.06,4.14-21.47.28-31.46-2.2-5.7-5.63-10.83-9-15.89-.26-.38-.47.86-.47.86a5.78,5.78,0,0,0,.07,2.27A72.71,72.71,0,0,1,266.88,152l.61,2.12c1.15-18.27,2.18-36.71-1.22-54.81-.07-.36-.16-.63-.45-.39s-.26,1.4-.25,1.72c.39,17.83.78,35.74-1.33,53.49l.77.95A267.77,267.77,0,0,0,259,101.88c-.11-.48-.2-.65-.5-.29s-.23,1.63-.19,2.12c.63,7.38,2.26,14.62,3.06,22a43.08,43.08,0,0,1-2.74,20.92,70.14,70.14,0,0,1-5.9,11.38,4.13,4.13,0,0,0-.29,2.31c0,.14.27,1.69.51,1.31,4.15-6.63,7.52-13.77,8.86-21.52,1.38-7.95.48-15.91-.77-23.81-.71-4.51-1.55-9-1.94-13.58l-.69,1.82A254,254,0,0,1,264.19,155c0,.31-.07,1.6.3,1.81s.44-.66.47-.86c2.18-18.39,1.83-36.92,1.43-55.39l-.7,1.32c3.17,16.88,2.08,34.13,1,51.16a4.66,4.66,0,0,0,.15,2c.11.24.28.65.46.15A83.5,83.5,0,0,0,269,105.25l-.4,3.14c5.56,8.36,11.24,17.07,10.82,27.52A57.18,57.18,0,0,1,271.38,162,68.07,68.07,0,0,1,262,174.5l.22,3.61A94.06,94.06,0,0,0,278,126.21c0-.26,0-1.76-.36-1.84s-.44,1.14-.46,1.34a73.33,73.33,0,0,1-6.46,25.69,85.27,85.27,0,0,1-6.67,12,82.25,82.25,0,0,0-7,11.7,5,5,0,0,0-.17,2.34c0,.11.27,1.46.48,1.08l7-12.33a123.78,123.78,0,0,0,6.11-11.7c3.51-8.11,4.5-16.95,4.26-25.73a152.57,152.57,0,0,0-1.32-15.24c0-.22-.1-1-.41-.9s-.33,1.18-.35,1.35c-1.29,16.71-2.8,33.92-10.94,48.93a61.65,61.65,0,0,1-7.55,10.93l.22,3.61a67.8,67.8,0,0,0,15.06-50,64.47,64.47,0,0,0-3.2-14.51c-.32-1-.61,1.46-.62,1.62a204.71,204.71,0,0,1-5.51,41.82,6,6,0,0,0,0,2.47c0,.2.32,1.19.53.48,4.73-16.12,4.29-33.06,2.66-49.62-.06-.59-.41-1.41-.65-.38q-4.28,18.42-7.48,37.06a6.57,6.57,0,0,0,0,2.46c0,.22.3,1.18.53.49a97.37,97.37,0,0,0,4-42.88c0-.21-.11-1.09-.46-.86s-.31,1.46-.31,1.81a153.7,153.7,0,0,1-1.68,26.07c-1,6.78-2.08,14.45-8.08,18.75-.47.34-.32,1.82-.29,2.31,0,.22.11,1.6.51,1.31Z"/><path class="cls-3" d="M135.07,106.58a244.75,244.75,0,0,1-4.53,24.68c-1.32,4.69-3.08,9.25-4.12,14-.55,2.54-.89,5.13-1.49,7.67-1.64,7-5.18,13.33-9.19,19.22a24,24,0,0,1-3.26,4c-6.11,5.76-14.18,6.36-20.75.83-4.71-4-7.61-9.68-10.75-15a50.39,50.39,0,0,1-3.88-7.38,31,31,0,0,1-1.81-8.24c-.05-1.75-1.15-3.4-1.83-5s-1.43-3.48-2.08-5.25q-1.95-5.32-3.37-10.81c-.9-3.49-1.64-7-2.21-10.59-1-6-1-12.26-3.87-17.86a12.47,12.47,0,0,1-1.73-4.38,3.29,3.29,0,0,1,4.91-3.25c3,1.89,5.33,4.4,8.54,6C79.31,98.12,85.08,101,91.33,102a34,34,0,0,0,20-3.55,47.5,47.5,0,0,0,8.93-5.81c4.5-3.68,7.54-9,13-11.29.62-.26,1.42-.43,1.88,0a1.81,1.81,0,0,1,.33,1.39c-.25,5.46-1.09,10.9-.73,16.35a56.43,56.43,0,0,1,.4,7.34A.76.76,0,0,1,135.07,106.58Z"/><path class="cls-4" d="M115.7,48.49a18,18,0,0,1-5.31-1,19.23,19.23,0,0,1-4.66-2.93l-7.5-5.77a11.18,11.18,0,0,0-4.76-2.56c-3.88-.66-7.11,2.68-10.14,5.18-7.65,6.32-18,8.48-27.88,8.83a86.15,86.15,0,0,1,2,30.85,2.31,2.31,0,0,0,0,1.08c.32.88,1.47,1,2.41,1.15,5.18.6,11.21,5.84,15.68,8.53,7.49,4.49,9.29,8.74,18,9,3.37.1,7.1,1.58,10.39.79,2.68-.64,5.37-.49,8-1.72A27.12,27.12,0,0,0,118,95.73c5.1-4.38,14.71-14.32,18.73-19.71,1-1.28,2.51-3.21,2.3-4.91a37.67,37.67,0,0,1-.44-4.23,75.73,75.73,0,0,0-1-10c-.17-1.54-1.39-3-1.46-4.53A7.82,7.82,0,0,0,134.86,49c-1-1.5-6.93-.25-8.75-.21C122.64,48.82,119.16,48.74,115.7,48.49Z"/><path class="cls-1" d="M133.3,42.1c-.91-4.29.57-14.26.76-15.33.79-4.32,6.42-5.5,3.8-15.85-.68-2.72-1.84-6.43-4.66-7.69-3.73-1.67-8.8-.22-12.45,1a56.77,56.77,0,0,1-9.09,2.61,29,29,0,0,1-9.91-.61C96.08,5.08,90,3.4,84.25,3.94a40.6,40.6,0,0,0-17.57,6.4,17.06,17.06,0,0,1-3.74,2,13.29,13.29,0,0,1-5.07.35c-2.43-.19-4.76-1.16-7.22-1.15A13.25,13.25,0,0,0,44,13.66a7.92,7.92,0,0,0-2.46,2.43A8.08,8.08,0,0,0,40.51,19a6.81,6.81,0,0,0-.43,2.43,10.22,10.22,0,0,0,2.84,5.39c1.9,2.07,4.25,3.76,5.83,6.1,1.7,2.53,2.35,5.6,3.08,8.57A5.76,5.76,0,0,0,53,44.13a4.68,4.68,0,0,0,1.73,1.06c4.11,1.61,9,1,12.92-.77,3.33-1.48,7.81-1.93,10.75-4.14,2.65-2,5.45-4,8-6.16a6,6,0,0,1,1.48-1c3.54-1.53,9.27,1.39,11.7,3.91,1.23,1.27,2.11,2.89,3.51,4a12.89,12.89,0,0,0,4.11,1.87l4.25,1.35a18.1,18.1,0,0,0,2.69.72,18.8,18.8,0,0,0,3.75.13l9.72-.29c2-.06,4.23-.19,5.69-1.58A3.3,3.3,0,0,0,133.3,42.1Z"/><path class="cls-5" d="M131.84,9.69c-.16,1.72-.94,3.44-.73,5.16s1.78,3.58,4.69,4.12a2.19,2.19,0,0,0,1.25,0,.67.67,0,0,0,.41-.53,4.21,4.21,0,0,0-.8-2.79,45.88,45.88,0,0,0-4.85-7,11,11,0,0,0-.25,6.77,4.46,4.46,0,0,0,2.53,3.11,4.42,4.42,0,0,0,1.54-3.12,53.16,53.16,0,0,0,.4-8.26,26.71,26.71,0,0,0-.22,4.09c.06,2.22.59,4.66,3.51,6.14A75.53,75.53,0,0,0,134.87,8a14.47,14.47,0,0,0-.31,6.57,5,5,0,0,0,2.32,3.67,1,1,0,0,0,.54.18.61.61,0,0,0,.62-.49c.74-3-1.12-6.19-4.9-8.36a2.86,2.86,0,0,0-1.59,1.89,11.35,11.35,0,0,0-.58,4.45,1.37,1.37,0,0,0,1.42,1.33,2.19,2.19,0,0,0,1.43-.52c1.4-1.15,1.38-2.65,1.15-4a4.9,4.9,0,0,0-1.69-3.27,12.92,12.92,0,0,0,1,7.49"/><path class="cls-5" d="M50,25.83c.34-1.57,1.25-3.07,1.24-4.68s-1.25-3.48-3.87-4.3a2.15,2.15,0,0,0-1.16-.11.66.66,0,0,0-.43.45,3.92,3.92,0,0,0,.43,2.66,42.65,42.65,0,0,0,3.71,7,10.28,10.28,0,0,0,1-6.21,4.17,4.17,0,0,0-2-3.14,4.13,4.13,0,0,0-1.77,2.71,48.49,48.49,0,0,0-1.26,7.56A24.9,24.9,0,0,0,46.5,24c.19-2,0-4.35-2.56-6A70,70,0,0,0,47,27.08a13.39,13.39,0,0,0,1-6,4.63,4.63,0,0,0-1.74-3.64,1,1,0,0,0-.47-.23.59.59,0,0,0-.64.39c-1,2.7.37,5.83,3.61,8.24a2.66,2.66,0,0,0,1.67-1.58,10.48,10.48,0,0,0,1-4,1.27,1.27,0,0,0-1.17-1.38,2,2,0,0,0-1.37.33,3.58,3.58,0,0,0-1.49,3.58,4.47,4.47,0,0,0,1.2,3.2,12,12,0,0,0-.1-7"/><path class="cls-6" d="M209,310.22c.35-.37.63-.82,1.16-.91a.72.72,0,0,1,.91.45,1,1,0,0,1-.22.83,3.11,3.11,0,0,1-.67.58l-.56.39a1,1,0,0,1-.77.26.67.67,0,0,1-.38-.79A2,2,0,0,1,209,310.22Z"/><path class="cls-6" d="M204.82,314.66a.54.54,0,0,1,.74,0,.8.8,0,0,1,.18.76,1.58,1.58,0,0,1-.43.68,3,3,0,0,1-1,.64.54.54,0,0,1-.3.06c-.23,0-.34-.31-.35-.54a2.46,2.46,0,0,1,.83-1.58"/><path class="cls-6" d="M198.46,318.6a.78.78,0,0,1-.64-.08.56.56,0,0,1-.08-.72c.3-.54,1.9-1.48,2.52-1.08C201.5,317.53,199,318.49,198.46,318.6Z"/><path class="cls-6" d="M194.15,316.63c.22.15.57.12.72.35s-.08.59-.35.73a1.87,1.87,0,0,1-1,.19c-.33,0-.71-.15-.8-.47a.65.65,0,0,1,.21-.62,1.77,1.77,0,0,1,.58-.34c.17-.07.38-.13.5,0"/><path class="cls-6" d="M118.92,324.17a2.18,2.18,0,0,1,1.36-.57c.39,0,.77.25.75.68a1,1,0,0,1-.43.74,3.24,3.24,0,0,1-.8.37l-.65.23a.93.93,0,0,1-.81,0,.66.66,0,0,1-.15-.86A1.79,1.79,0,0,1,118.92,324.17Z"/><path class="cls-6" d="M113.67,327.3a.54.54,0,0,1,.71.19.78.78,0,0,1,0,.78,1.54,1.54,0,0,1-.6.53,2.87,2.87,0,0,1-1.14.36.61.61,0,0,1-.3,0,.52.52,0,0,1-.19-.61,2.49,2.49,0,0,1,1.22-1.3"/><path class="cls-6" d="M105.48,330.37a.76.76,0,0,1-.6-.24.59.59,0,0,1,.12-.73c.44-.43,2.23-.91,2.72-.35C108.7,330.16,106,330.41,105.48,330.37Z"/><path class="cls-6" d="M102.86,326.31c.18.21.52.27.6.53s-.24.55-.53.61a1.91,1.91,0,0,1-1-.09c-.32-.11-.65-.34-.64-.67a.67.67,0,0,1,.36-.54,2.07,2.07,0,0,1,.66-.17c.18,0,.4,0,.48.14"/><path class="cls-2" d="M142.7,96.44c-.6-5-1.23-9.93-1.74-14.9s-.91-10.05-1.66-15.05c-.88-5.8-2-11.58-2.77-17.39-.79-5.55-1.59-11.36-1.16-17,.21-2.79,1.62-4.82,2.88-7.22a17.94,17.94,0,0,0,1.63-5A27.42,27.42,0,0,0,139.79,9c-.66-2.93-2-5.91-4.63-7.59-3.59-2.32-8.12-1.32-12-.25-4.51,1.24-9,3-13.79,2.18-3.55-.59-7.05-1.4-10.63-1.84a48.34,48.34,0,0,0-15.09.23c-5.3,1-9.9,3.71-14.9,5.57a22.05,22.05,0,0,1-7.34,1.51c-2.28,0-4.54-.2-6.81-.32-4.4-.24-9.25,0-12.46,3.47-3.07,3.3-3.51,8.56-2.26,12.73,1.14,3.79,4,6.71,6.51,9.63a31.4,31.4,0,0,1,3.74,5,27.24,27.24,0,0,1,2.29,5.94,73.11,73.11,0,0,1,2.33,13.29c.83,8.69.66,17.42,1,26.14.09,2.6.29,5.2.36,7.81,0,.26,0,1.87.41,1.87s.42-1.7.42-1.87c-.13-4.55-.43-9.09-.5-13.64-.07-4.28-.13-8.57-.31-12.85-.36-8.81-1-17.93-4-26.3a30,30,0,0,0-6.27-9.92,45.86,45.86,0,0,1-3.68-4.56c-.93-1.38-2-3.23-2.06-5,0-2.25,1.84-4.58,3.55-5.84a12.25,12.25,0,0,1,6.24-2.18c4.44-.42,8.89.66,13.32.2,5.13-.54,9.7-3.33,14.41-5.2a38.09,38.09,0,0,1,15-2.47,75.06,75.06,0,0,1,12.68,1.52c1.42.27,2.84.58,4.27.81a18.42,18.42,0,0,0,6.66-.31c6.9-1.46,17.29-6.77,21.81,1.65a13.63,13.63,0,0,1,1.33,8.28,14.59,14.59,0,0,1-1.55,4.91c-1.11,2.09-2.37,4-2.85,6.32-1.06,5.2-.5,10.89,0,16.13.55,5.67,1.48,11.28,2.41,16.89s1.89,11.27,2.39,17c.38,4.34.8,8.67,1.32,13q.43,3.69.89,7.38c.06.44.14,1.17.57.67s.21-2,.14-2.56Z"/><path class="cls-2" d="M53.26,47.76A30.47,30.47,0,0,0,73.52,46a45.34,45.34,0,0,0,11.39-7.75c2-1.8,4-3.52,6.93-3.17s5.32,2,7.52,3.58c3.39,2.46,6.28,5.31,10.22,6.92,8.25,3.36,17.38,1.68,25.83.15.76-.13.42-3.82,0-3.75-7.49,1.36-15.39,2.83-22.9.83a24,24,0,0,1-5.42-2.18,38,38,0,0,1-5.49-4,25.46,25.46,0,0,0-8.19-4.92c-3.06-.94-5.46.11-7.77,2.11a55.86,55.86,0,0,1-10,7.44A30.81,30.81,0,0,1,53.26,44c-.32-.08-.82,3.55,0,3.75Z"/><path class="cls-2" d="M135.05,113.93c-.48,3.26-1.2,6.5-1.77,9.75-1.05,5.9-2.15,11.79-3.47,17.65A180.3,180.3,0,0,1,125,159c-1.85,5.49-4,11.07-7.94,15.45a15.91,15.91,0,0,1-5.53,4.39,17.72,17.72,0,0,1-6.09,1.35c-4.07.22-8.63-.67-11.83-3.33-3.75-3.13-6.55-7.74-8.86-12a117.2,117.2,0,0,1-6.44-14.66c-4.73-12.59-9.2-25.47-10.85-38.87-.06-.45-.14-1.18-.57-.68s-.21,2-.14,2.57c1.55,12.58,5.45,24.67,9.78,36.53C80.11,159.67,84,170,91,178.06a16.05,16.05,0,0,0,5,4.11,18.22,18.22,0,0,0,6.23,1.7c4.09.4,8.73-.29,12-2.91,4.48-3.54,7.24-8.75,9.34-13.94a135.48,135.48,0,0,0,5.53-17.85c1.79-7.16,3.25-14.4,4.5-21.66.67-3.9,1.53-7.78,2.11-11.69.09-.61.28-2.06-.15-2.56s-.5.21-.57.67Z"/><path class="cls-2" d="M173.28,206.55c5.38.88,11.32-.06,16.54-1.34,14.05-3.45,26.41-11.89,36.27-22.29,11.8-12.45,21.59-27.7,26.3-44.29a77.51,77.51,0,0,0,1.52-36.51c-1.1-5.37,4.7-10.49,9.49-11.49,5.58-1.16,10.35,2.31,13,7a46.63,46.63,0,0,1,4.07,10.84A95.25,95.25,0,0,1,283.15,124a91.32,91.32,0,0,1-3.72,36.77,66.6,66.6,0,0,1-8.92,17.92,79.17,79.17,0,0,1-13.53,14c-8.89,7.56-18.78,13.86-30,17.43-13.45,4.29-27.8,4.63-41.76,3.38-4.49-.4-8.95-1-13.41-1.66-.43-.06-.75,3.64,0,3.75,15.52,2.4,31.63,3.56,47.13.37a81,81,0,0,0,32.08-14.75A116.11,116.11,0,0,0,265.21,189a62.21,62.21,0,0,0,11.46-16.87c5.66-12.11,7.79-25.72,7.74-39,0-11-1.39-22.23-5-32.61-1.16-3.34-2.58-6.83-4.94-9.52a12,12,0,0,0-8.35-4.3,12.15,12.15,0,0,0-7.94,2.71,13.59,13.59,0,0,0-4.74,7.16c-.87,3.22-.45,6.34.15,9.55a60.65,60.65,0,0,1,.78,16.36c-1.34,15.64-8.27,30.38-17.24,43.05-9.92,14-22.6,26.65-38.73,33.18-7.47,3-15.86,5-24,4.26-.39,0-.77-.07-1.15-.13s-.76,3.63,0,3.75Z"/><path class="cls-2" d="M112.69,28.37a2,2,0,0,1-1.49.4,1.94,1.94,0,0,1-1.28-1.06,5,5,0,0,1-.42-1.66,3.07,3.07,0,0,1,.37-2.33,2.19,2.19,0,0,1,.86-.64,2.11,2.11,0,0,1,1.94,0,2.89,2.89,0,0,1,1,2.31C113.74,26.71,113.91,27.52,112.69,28.37Z"/><path class="cls-2" d="M69.65,24.8a1.84,1.84,0,0,1,1.55-.29,2,2,0,0,1,1.25,1.1,5.21,5.21,0,0,1,.38,1.67,3.1,3.1,0,0,1-.43,2.32,2.25,2.25,0,0,1-.88.61,2.11,2.11,0,0,1-1.94,0C68.06,29.19,68.16,25.88,69.65,24.8Z"/><path class="cls-2" d="M92,34.4c-2.13.06-3.94-1.49-5.31-3.11a4.34,4.34,0,0,1-.94-1.53,1.67,1.67,0,0,1,.35-1.68,2.31,2.31,0,0,1,.79-.42c2.4-.86,8.22-1.59,10.23.51C99.6,30.75,94.3,34.32,92,34.4Z"/><path class="cls-2" d="M131.43,3.84a5.58,5.58,0,0,0-1.53,2.52,19.42,19.42,0,0,0-1.11,3.13,15.6,15.6,0,0,0-.17,6.8,10.57,10.57,0,0,0,6.29,7.93c.33.14.41-1.72.41-1.87,0-.41.08-1.68-.41-1.88a9.62,9.62,0,0,1-5.43-5.76,3.92,3.92,0,0,1,0-2.86,18.76,18.76,0,0,1,.93-2.39,4.33,4.33,0,0,1,1.27-2c.47-.31.31-1.83.28-2.31,0-.23-.09-1.58-.5-1.3Z"/><path class="cls-2" d="M48.36,15.71c.71.25,1.18,1,1.64,1.56a23.2,23.2,0,0,1,1.45,2,7.39,7.39,0,0,1,1.4,3.68c0,2.26-1.84,4.76-3.68,6.13-.47.34-.32,1.8-.29,2.3,0,.22.1,1.61.51,1.31,3.22-2.37,4.36-6.38,4.27-10.24a12.87,12.87,0,0,0-1.41-5.81A18.45,18.45,0,0,0,50.49,14c-.59-.74-1.19-1.7-2.13-2-.22-.07-.86,3.46,0,3.75Z"/><path class="cls-2" d="M91.41,33.46a31.9,31.9,0,0,0,.12,6.18c.24,1.61.65,3.58,2,4.62a6,6,0,0,0,4,1,5,5,0,0,0,3.84-1.46,2,2,0,0,0,.25-.86,7.71,7.71,0,0,0,0-1.44c0-.16-.21-1.68-.51-1.31a4.5,4.5,0,0,1-3.27,1.31,7,7,0,0,1-3.62-.57,4,4,0,0,1-2-3,2.25,2.25,0,0,1-.07-.4s-.06-.54,0-.24c0-.18,0-.35,0-.53s0-.23,0,0c0-.09,0-.18,0-.27s0-.41,0-.61,0-.6,0-.21c0-.41,0-.82,0-1.23a6.92,6.92,0,0,0,0-1.44c0-.16-.08-.74-.24-.87-.41-.31-.51,1.2-.51,1.31Z"/><path class="cls-2" d="M91.71,40.56c-.06-.41.12-.91,0-1.3,0-.17,0,.12,0,0a2.14,2.14,0,0,1-.2.47,3.7,3.7,0,0,1-.76,1,4,4,0,0,1-2.47,1,7.16,7.16,0,0,1-2.72-.35A2.31,2.31,0,0,1,84,39.93c0-.18-.16-.31-.32-.19s-.23.71-.24.86a6.36,6.36,0,0,0,.14,2.57,3,3,0,0,0,2.1,1.88,6.59,6.59,0,0,0,3.52.2,4.14,4.14,0,0,0,2.51-1.78,7.14,7.14,0,0,0,.76-4.81c0-.22-.26-1.4-.56-.67a5.33,5.33,0,0,0-.15,2.57Z"/><path class="cls-2" d="M130.77,82.28c-5,8.46-12.59,16.25-22.19,19.18-5.48,1.67-11,.89-16.45-.69A57.77,57.77,0,0,1,77,93.69,67.94,67.94,0,0,1,62.76,81.6c-.35-.4-.5,1.21-.51,1.31,0,.59-.15,1.8.29,2.31a65.54,65.54,0,0,0,27.37,18.6c5.33,1.83,11.22,3.12,16.82,1.88a31.55,31.55,0,0,0,13.36-6.84,52.16,52.16,0,0,0,10.9-13,4.31,4.31,0,0,0,.29-2.31c0-.14-.29-1.68-.51-1.31Z"/><path class="cls-2" d="M105.68,85.77a11.73,11.73,0,0,1,1,1.61l-.1-.19a12.47,12.47,0,0,1,.82,2c0,.16.17.34.32.19a1.78,1.78,0,0,0,.25-.86,6.37,6.37,0,0,0-.15-2.57,12.63,12.63,0,0,0-1.93-3.8c-.14-.2-.28.09-.32.18a3.93,3.93,0,0,0-.19,1.12,7.82,7.82,0,0,0,0,1.45,1.94,1.94,0,0,0,.24.86Z"/><path class="cls-2" d="M102.21,87.36l.18.56a.56.56,0,0,0,0,.12c0-.13-.05-.16,0-.07a2,2,0,0,1,.07.26c.1.36.17.73.24,1.1s0-.35,0,0c0,.08,0,.17,0,.26l.06.54c0,.33,0-.39,0-.08a2.45,2.45,0,0,1,0,.27c0,.1,0,.21,0,.31,0,.43,0-.44,0-.09a6.59,6.59,0,0,0,.13,1.33c0,.07.11.55.29.55s.27-.46.29-.55a5.93,5.93,0,0,0,.12-1.33,21.11,21.11,0,0,0-1-6.4c0-.15-.16-.33-.32-.19s-.22.68-.25.87a6,6,0,0,0,.15,2.56Z"/><path class="cls-2" d="M96.17,85.13a30.54,30.54,0,0,0-.71,5.62,10,10,0,0,0,0,1.45c0,.19.08.7.25.86.37.36.51-1.24.51-1.31,0-.39,0-.77.06-1.16,0-.11,0-.22,0-.33l0,.26c0-.06,0-.12,0-.18l.06-.56c0-.18,0-.36.08-.55s0-.18,0-.27l0-.19,0,.2c.06-.4.15-.79.23-1.18a5.94,5.94,0,0,0,.13-1.33,5.41,5.41,0,0,0-.13-1.33c0-.13-.09-.55-.29-.55s-.27.46-.29.55Z"/><path class="cls-2" d="M92.26,82.86a5.46,5.46,0,0,0-1.75,3.64,7.68,7.68,0,0,0-.05,1.44,4.48,4.48,0,0,0,.08.64,2.77,2.77,0,0,0,.11.48c.06.12.16.37.32.19l.1-.19a3.82,3.82,0,0,0,.15-.67V88.3c0-.18,0,.28,0,.25l0-.17c0-.06,0-.12,0-.18l-.05.17a.36.36,0,0,0,0-.11,4.32,4.32,0,0,1,.28-.67l-.1.19a4.13,4.13,0,0,1,1-1.3.79.79,0,0,0,.14-.34,2.29,2.29,0,0,0,.11-.52,7.79,7.79,0,0,0,0-1.45,3.56,3.56,0,0,0-.19-1.12l-.1-.19a.12.12,0,0,0-.22,0Z"/><path class="cls-2" d="M68.29,98.69c-16.12-5.24-27.86-18.11-37.1-31.77-4.1-6.07-7.77-12.41-11.56-18.68-2.81-4.65-5.7-10.08-10-13.51-1.46-1.15-3.46-2.31-5.35-1.62S1.45,35.8.93,37.56A30.35,30.35,0,0,0,.07,47.65a67.32,67.32,0,0,0,2.26,13.6A98.36,98.36,0,0,0,14.39,89.07a154.88,154.88,0,0,0,17.25,22,220.34,220.34,0,0,0,26.6,24.59l.48.37-.29-1.31a316.25,316.25,0,0,0,3.22,33.66c3,21.37,7.62,43.09,16.6,62.83q1.6,3.52,3.43,6.95c.61,1.13,1.24,2.26,1.89,3.37s1.6,2.35,2,3.14a34.16,34.16,0,0,1,1.14,3.69c1.21,3.85,2.5,7.67,3.81,11.49,2.42,7,5.18,14,7.32,21.09,3.37,11.2,5.38,23.23,4.44,35-.46,5.71-2.74,11.14-2.41,16.94.13,2.37.59,5.87,3.46,6.36a13.71,13.71,0,0,0,4.66-.56,42.52,42.52,0,0,0,5.32-1.41,17.39,17.39,0,0,0,7.65-4.63,16.08,16.08,0,0,0,3.32-6.92,71,71,0,0,0,1.45-13.18c.36-7.43.56-14.9,1.94-22.23,1.17-6.23,3.3-14.69,9.74-17.52,3.28-1.44,7-.91,10.21.29a83.2,83.2,0,0,1,18.24,9.54c9,6.23,17.56,14.5,22.32,24.55,2.33,4.91,3.26,10.32,5,15.44,1,2.91,2.4,6.62,6,6.72,5.11.14,10.13-4,12.94-7.87,3.23-4.48,4.61-10.52,2.81-15.85a72.15,72.15,0,0,0-4.68-10c-2.39-4.57-4.88-9.1-7.4-13.61-8.44-15.15-17.46-30-23.5-46.32-5-13.51-8.88-27.45-12.74-41.31-4.14-14.87-7.95-29.84-10.91-45-1.37-7-2.55-14.1-3.43-21.22L151.9,131a104.93,104.93,0,0,0,13.56-1.83,104.75,104.75,0,0,0,25.6-8,115.27,115.27,0,0,0,18.26-11c5.09-3.73,10.22-7.86,14.09-12.9,2.4-3.14,4.62-7.75,2.78-11.71-1.47-3.17-5.66-3-8.52-2.4-5.15,1-10.07,3.29-14.91,5.24a212,212,0,0,1-20.6,7.35,105.68,105.68,0,0,1-25.52,4.13c-5,.17-9.91.43-14.79-1a15.73,15.73,0,0,1-4.65-2.1c-.43-.29-.5,1.12-.51,1.31,0,.44-.18,2,.29,2.31,4.86,3.34,11.48,3.63,17.19,3.35a124.4,124.4,0,0,0,19.15-2.11,141,141,0,0,0,21.76-6.51c5.57-2.1,11-4.51,16.64-6.5,3.36-1.19,7.54-2.81,11.16-1.87a5.21,5.21,0,0,1,1.93.92c.55.43.7,1.08,1.14,1.51s-.23-.69,0-.7c0,0-.3,1-.33,1.08a14.33,14.33,0,0,1-1.49,2.75c-3.22,4.77-7.84,8.67-12.34,12.17A117.75,117.75,0,0,1,193.92,116c-12.58,6.54-27,10.07-41.11,11.2l-.91.06c-.61,0-.4,2.49-.36,2.82,2.56,20.54,7.36,40.76,12.76,60.71q4,14.74,8.41,29.37c2.48,8.25,5.16,16.47,8.41,24.46,4,9.76,9.11,19,14.27,28.14,3.58,6.38,7.19,12.74,10.7,19.17a155,155,0,0,1,8,15.75,6.92,6.92,0,0,1,.68,3.92,15.32,15.32,0,0,1-2.37,5.52,19.51,19.51,0,0,1-9.39,7.7c-2.08.75-4.77,1.32-6.61-.27-2-1.74-2.71-4.83-3.44-7.24-1.11-3.7-1.93-7.53-3.35-11.12a45,45,0,0,0-4.42-8.31A69.58,69.58,0,0,0,169,281.11,84.4,84.4,0,0,0,157.9,274a60.37,60.37,0,0,0-12-5.26c-4.34-1.21-8.78-.55-12,2.73s-5,8.31-6.09,12.85A99.4,99.4,0,0,0,125.48,301c-.32,4.48-.39,9-.72,13.45-.25,3.51-.41,7.19-1.64,10.52-1.55,4.15-4.83,6.67-8.88,8.2a41.29,41.29,0,0,1-7,1.89c-1.79.34-4.32,1.12-5.7-.54-1.55-1.86-.81-4.78-.37-6.9s1.09-4.51,1.45-6.8a79.24,79.24,0,0,0,.3-18.66,119.94,119.94,0,0,0-5.72-27.68c-2.74-8.27-5.87-16.41-8.6-24.68q-1-2.94-1.88-5.89c-.16-.49-.31-1-.45-1.49,0-.15-.09-.3-.13-.44-.1-.32.08.22,0,0a21,21,0,0,0-1.73-3c-.92-1.51-1.79-3.06-2.63-4.62-1.75-3.29-3.32-6.67-4.76-10.1-5.87-14-9.62-28.86-12.39-43.76a351.93,351.93,0,0,1-4.73-35.7c-.26-3.15-.48-6.3-.63-9.45,0-.54,0-1.08-.07-1.61a1.91,1.91,0,0,0-1-1.88A223.67,223.67,0,0,1,35.3,111.12c-11.17-11.54-21.84-24.55-28-39.54C4,63.43.9,54.38.83,45.47c0-3,.57-9.08,4.85-8.81,2,.13,3.78,1.63,5.15,3A37.51,37.51,0,0,1,15.06,45c3.18,4.65,6,9.58,8.87,14.4,7.21,12,15.11,23.94,26,32.86a56.72,56.72,0,0,0,18.32,10.19c.24.07.85-3.48,0-3.75Z"/></g></g></svg>