<svg xmlns="http://www.w3.org/2000/svg" viewBox="0 0 383.53 489.6"><defs><style>.cls-1{fill:#484235;}.cls-2{fill:#2b2720;}.cls-3{fill:#e4c15d;}.cls-4{fill:#eeede7;}.cls-5{fill:#fff;}.cls-6{fill:#898989;}.cls-7{fill:#b5b5b6;}.cls-8{fill:#f7f8f8;}</style></defs><g id="圖層_2" data-name="圖層 2"><g id="圖層_1-2" data-name="圖層 1"><path class="cls-1" d="M366.7,134.64c-12.52-16.33-33.46-1.84-30.24,13.28,5.42,25.45,1.94,61.75-33,103.16-12.84,15.24-28.92,28.21-47.82,35a80.9,80.9,0,0,1-18,4.32,71.14,71.14,0,0,1-9.34.52c-2.93,0-5.87-.51-8.81-.25h-.39a3,3,0,0,0-2.5,1.23,2.94,2.94,0,0,0-.08,1.83c.53,2.91,1.63,5.94,4,7.65a13.32,13.32,0,0,0,6,1.9c2.13.32,4.18,1,6.31,1.2,5.5.63,11,1.11,16.55,1.37A167.89,167.89,0,0,0,278,305a113.13,113.13,0,0,0,44.16-14.87,162,162,0,0,0,27.28-21C393.34,228.48,379.22,151,366.7,134.64Z"/><path class="cls-1" d="M190.16,189.56S215.44,188.16,240,178c26.45-10.93,65.47-41.88,51.45-49.67-12.46-7-47.26,21.85-95.34,22.85,0,0-10.41,1.14-19.3-1.2v-4.91c-.64-5.27-1.3-10.54-1.89-15.82-.35-3.11.56-10.16-2.63-11.8a3,3,0,0,0-4,1.13,5.44,5.44,0,0,0-.23,2.74c.36,4.47.73,5.47.12,9.76-1.4,9.8,0,12,0,15.86,0,7.47.84,10.31-.16,17.72-1.88,13.94-5.75,35.52-9.8,49-3,9.94-2.39,8-4.2,18.2-1.21,6.81-9.9,22.41-15.4,26.6-4.24,3.22-16.8,11.2-32.2-1.4C93.3,246.37,74,201.19,69.49,184.9q-3.75-13.44-6.66-27.09c-.77-3.6-.6-7.61-.89-11.32l-1-13c-.12-1.43-.29-3-1.3-4-1.07,3.77.11,7.77.21,11.69a1,1,0,0,1-.14.66.91.91,0,0,1-.7.25c-6-.46-14.84-6-18.46-10.51-6.42-8-6-15-5.28-23.71,1.28-15.73,16.56-29.39,17.21-45.15.06-1.47-.07-3.11-1.15-4.11a5.16,5.16,0,0,0-2.73-1.09c-12-2.08-23,4.63-30.86,13.95S-12.62,130,16.13,160.42c4.16,4.41,7.18,9.6,11.46,13.9,6.79,6.84,16.16,9.06,23.51,15.29,1,.88,8.76,5.77,8.81,7.14,0,0,3.3,99.73,37.84,152.63,0,0,3.14,11.31,14,41.3s10.59,54.39,9.09,65.33c-.9,6.58-4.24,14.67-2.42,21.3.8,2.85,2.7,4.2,5.7,3.78,5.48-.75,12-2.28,17-4.85,10.29-5.32,10.7-15.39,11.55-25.72,1.46-17.33-.75-74.51,31.92-61.9s54,36.5,59.39,55c1.66,5.63,2.93,11.49,5.13,16.95,2,5,6.93,7.72,12.36,7.67a14.3,14.3,0,0,0,9.44-3.71,23.48,23.48,0,0,0,3.64-4.48c2.14-3.22,3.65-6.52,3.67-10.42,0-3.71,1.2-6.95-.1-10.71-3.76-10.78-25.65-48.09-33.21-62.11s-14.67-26.23-26-64.4c-.48-1.58-.95-3.19-1.41-4.8-1.25-4.19-2.5-8.46-3.73-12.78C204,260.77,194.32,223,190.16,189.56Z"/><path class="cls-2" d="M266.77,134.27a260.26,260.26,0,0,1-61.28,30.29c-1.08.36-.57,5.52,0,5.4a204.3,204.3,0,0,0,27.8-8.14,272.75,272.75,0,0,0,29.31-12.08,87.09,87.09,0,0,0,11.66-6.63l-.32-5.21a138.58,138.58,0,0,1-26.78,18.66c-8.69,4.78-18,9.24-27.8,11.22-1.1.22-.6,5.51,0,5.4,16.91-3.06,34.18-6.45,48.61-16.35l-.31-5.21a53.16,53.16,0,0,1-30.74,14.16c-.91.09-.87,5.36,0,5.4,14,.64,27.26-6.85,35.16-18.24.38-.54.81-5.4-.15-5.3l-30,3c-10,1-20.16,2.43-30.28,2.07v5.4a66,66,0,0,1,11.76-3.66A79.75,79.75,0,0,0,235,150.62c8-3.26,15.74-7.19,24-9.78,1.2-.38.39-5.53,0-5.41-8.29,2.6-16,6.52-24,9.78A76.72,76.72,0,0,1,223.64,149a67.78,67.78,0,0,0-12,3.72c-.88.38-.9,5.37,0,5.4,10.12.36,20.23-1,30.28-2.06l30-3.06-.16-5.31c-7.86,11.33-20.92,18.68-34.85,18v5.4a53.72,53.72,0,0,0,31-14.35c.67-.62.47-2.52.42-3.33,0-.32-.14-2.29-.73-1.88-14.31,9.81-31.54,13.12-48.3,16.16v5.4c10-2,19.46-6.59,28.3-11.49A140.19,140.19,0,0,0,274.24,143c.66-.61.46-2.53.41-3.33,0-.32-.14-2.3-.73-1.88-7.28,5.08-15.71,8.67-23.88,12.07a314.26,314.26,0,0,1-30.17,10.85c-4.74,1.43-9.54,2.76-14.4,3.74v5.4a261,261,0,0,0,61.59-30.46c.68-.45.46-2.64.42-3.32,0-.33-.13-2.29-.73-1.89Z"/><path class="cls-2" d="M144.26,458.74c-1.82-4.37-.66-8.67.73-13A95.34,95.34,0,0,0,148.61,433c1.43-8.33.57-17.08,4.95-24.65l-.46-4.94c-5.9,17-7,34.75-6.29,52.61l.73-3.33c-2.86-3.09-4.1-7-4.86-11.11a59.62,59.62,0,0,1-1-13A67.19,67.19,0,0,1,148,402.7l-.6-4.66c-3.42,10.14-4.29,21.18-5.83,31.73q-2.3,15.57-4.58,31.14a8.56,8.56,0,0,0,.09,3.27c.09.34.48,1.27.72.43,4.41-15.19,8.31-30.52,12.71-45.7a9.16,9.16,0,0,0,.25-3.38c0-.16-.41-2.1-.71-1.56-6.8,12.52-12.69,25.85-15.13,40l.72-.42c-3.06-9.76-2.4-20.54-1-30.53a114.26,114.26,0,0,1,8.33-30.5l-.72-4.24c-2.72,9.73-4.77,19.68-6.74,29.59-2.27,11.45-5.08,23.64-2.2,35.22.2.81.42,1,.78.21a7.07,7.07,0,0,0,.15-3.48c-1.36-8.44-2.5-16.92-3.14-25.44-.62-8.36-1-17,.61-25.3l-1-2.63c-.57,9.11-1.09,18.23-2,27.3s-2.11,18.29-4.88,27l.89,2.34c.15-9,1.45-18.06,1.2-27.1a47.93,47.93,0,0,0-1.8-12.59c-1.48-4.91-4-9.43-6.58-13.87l-.32,5.22c2.94,3,6,6,7.81,9.86s2.56,8.26,3.21,12.49a123.73,123.73,0,0,1,1.12,27.46,6.63,6.63,0,0,0,.22,2.84c.17.39.36.88.66.21,3.43-7.88,6.42-16,7.17-24.64a59.52,59.52,0,0,0-.54-13.2c-.57-4.19-.89-8,1.85-11.56l-.73-1.89q.78,26,3.32,52c.06.64.21,1.68.82,1s.29-2.87.21-3.7q-2.46-25.28-3.21-50.69c0-.12-.29-2.46-.73-1.89-5.34,6.91-2.51,16.23-2,24.08.54,8.93-3.24,17.85-6.73,25.87l.87,3.06a142.3,142.3,0,0,0-1.21-31.61c-.71-4.67-1.46-9.5-3.37-13.86s-5.09-7.67-8.35-11c-.54-.53-.72,1.72-.73,1.89a6.21,6.21,0,0,0,.41,3.33,68.08,68.08,0,0,1,6.11,12.7,36,36,0,0,1,1.34,11.06c0,8.18-1.09,16.33-1.22,24.52,0,.26.46,3.68.89,2.33,2.92-9.17,4.24-18.82,5.25-28.36,1-9.7,1.61-19.44,2.21-29.17.05-.67.24-2.46-.27-3.05s-.58-.28-.72.42c-1.88,9.44-1.67,19.27-1,28.83s1.86,19,3.38,28.46l.94-3.28c-1.5-6-.61-12.12.43-18.14.72-4.16,1.53-8.31,2.38-12.46,1.81-8.9,3.68-17.82,6.13-26.57a8.18,8.18,0,0,0,0-3.55c-.08-.39-.36-1.62-.77-.7A116.34,116.34,0,0,0,134.67,414a121.88,121.88,0,0,0-2.09,29.71,61.19,61.19,0,0,0,2.5,14.47c.25.81.65,0,.72-.42,2.35-13.62,8-26.51,14.61-38.58l-.46-4.94c-4.4,15.19-8.3,30.51-12.71,45.7l.82,3.7q2.22-14.94,4.39-29.89l2.13-14.49A95.57,95.57,0,0,1,148,402.72a8.5,8.5,0,0,0,.21-3.69c-.06-.41-.35-2-.81-1a77.42,77.42,0,0,0-7,31.11,78.67,78.67,0,0,0,1.29,15.92c.84,4.6,2.2,9.3,5.44,12.81.56.61.75-3.07.74-3.32-.63-15.83.51-31.44,5.74-46.5a8.36,8.36,0,0,0,.24-3.38c0-.16-.38-2.1-.7-1.56A35.33,35.33,0,0,0,149,416.86c-.62,5.13-.64,10.33-1.85,15.37-1.29,5.36-3.63,10.4-4.57,15.85-.88,5-.91,10.54,1.08,15.33.43,1,.77-.65.81-1a7.73,7.73,0,0,0-.21-3.7Z"/><path class="cls-2" d="M271.22,427.46a28.12,28.12,0,0,1-9.63-9.37c-2.77-4.6-3.59-10.28-5.75-15.17-3.65-8.26-10.6-15.22-11.7-24.48l-.82,3.7c5.08,16,14,29.95,24.48,43l.16-5.31c-4.62-.86-8.29-3.81-11.59-7a69.68,69.68,0,0,1-19.86-35.78l-.72,4.24c2.93,9,8,17.24,12.56,25.49,4.41,8,8.87,16.06,13.29,24.1,2.19,4,4.38,8,6.53,12,.33.6.71-1.57.71-1.57a7.86,7.86,0,0,0-.25-3.37c-6.35-16.91-14.45-33.11-20.79-50-.3-.8-.62,0-.73.42a8.57,8.57,0,0,0-.09,3.27,144.37,144.37,0,0,0,13.81,43.79l.45-4.94c-6.93-5-12.29-12.18-16.94-19.29a145.27,145.27,0,0,1-13.47-26A88.39,88.39,0,0,1,226.62,372l-.72,4.25c3.53,9.17,7.7,18.13,11.92,27,4.45,9.39,8.77,20,17,26.73.59.48.72-1.66.73-1.89.06-.78.24-2.69-.41-3.33-6.29-6.13-12.41-12.45-18.14-19.12s-11.44-13.8-15.24-21.8l-.46,4.94q8.34,12.87,16,26.18c5.09,8.88,10.14,18,13.49,27.69l.46-4.93c-5.9-8.25-10.39-17.36-16.11-25.71a38.51,38.51,0,0,0-8.7-9.57,67.34,67.34,0,0,0-12.87-6.86V401c4.54.68,9.11,1.44,13.1,3.86s7.21,5.69,10.38,8.91a132,132,0,0,1,17.21,21.65c.35.56.67-1.25.67-1.24a9,9,0,0,0-.1-3.28c-1.8-7.62-3.93-15.29-7.87-22.11a48.16,48.16,0,0,0-7.41-9.36c-2.68-2.76-7-6.75-6.92-10.95l-.76,2.61q15.66,19.83,32.6,38.59c.51.56.73-1.73.74-1.89.05-.84.22-2.61-.42-3.32q-17-18.75-32.6-38.6c-.47-.59-.75,2.54-.75,2.61a18.59,18.59,0,0,0,3.92,11.85c2.77,3.61,6.35,6.49,9,10.19,5.16,7.12,7.61,15.76,9.6,24.2l.58-4.51a131.41,131.41,0,0,0-17.65-22.1c-3.12-3.13-6.36-6.33-10.16-8.62-4-2.42-8.6-3.21-13.19-3.89-.67-.11-1,5,0,5.4,4.57,2,9.24,4.05,13.21,7.13a40.37,40.37,0,0,1,8.3,9.48c5.56,8.24,10,17.16,15.8,25.26.41.57.7-1.53.7-1.57a8.35,8.35,0,0,0-.24-3.37c-3.35-9.71-8.46-18.86-13.51-27.76-5.13-9.06-10.57-17.93-16.24-26.66-.38-.59-.7,1.54-.7,1.56a7.17,7.17,0,0,0,.24,3.38c3.82,8,9.41,15.17,15.16,21.9s12.08,13.3,18.51,19.57l.32-5.22c-8.2-6.73-12.48-17.26-16.92-26.63-4.13-8.73-8.23-17.53-11.7-26.55-.37-1-.7.35-.77.7a8.84,8.84,0,0,0,0,3.55,114.73,114.73,0,0,0,9.46,25.17,131.19,131.19,0,0,0,15.7,24.92,54.58,54.58,0,0,0,10,9.8c.69.5.77-4.32.46-4.94a138.12,138.12,0,0,1-13.38-41.84l-.78,3.72c6.34,16.91,14.44,33.11,20.79,50l.46-4.93c-5.18-9.68-10.53-19.26-15.83-28.87q-3.93-7.1-7.8-14.22c-3.15-5.82-6.41-11.65-8.47-18-.33-1-.71.4-.77.7a9,9,0,0,0,.05,3.55A73.3,73.3,0,0,0,246.72,407,69.13,69.13,0,0,0,256,418c3.38,3.25,7.19,6.31,11.91,7.19.86.15.59-4.77.16-5.31-10.34-12.86-19.18-26.59-24.2-42.42-.26-.84-.63.08-.72.42a9,9,0,0,0-.09,3.28,34.94,34.94,0,0,0,4.6,13.33c2.53,4.35,5.53,8.43,7.53,13.11,2.22,5,3.11,10.74,5.91,15.5a28.75,28.75,0,0,0,10.09,9.73c.39.23.59-2.51.59-2.71,0-.69.11-2.28-.59-2.7Z"/><path class="cls-2" d="M332.22,224.69c9.08-6.51,10.67-18.57,12.25-28.81a239.36,239.36,0,0,0,2.69-41l-1.11,1.36a123.27,123.27,0,0,1-5.31,54.4l.72,4.24q4.62-26.85,10.78-53.4l-.93-.55c2.1,21.39,2.71,43.28-3.41,64.11l.72,4.25a313.9,313.9,0,0,0,8.29-64.1l-.89,2.33c7.58,22.08,5.11,46-5.73,66.55a96.47,96.47,0,0,1-11.08,16.49c-.63.76-.47,2.42-.41,3.33,0,.22.28,2.4.73,1.88,16.25-18.8,22.61-43.16,25.42-67.34.88-7.55,1.47-15.13,2.06-22.7l-1.09.64c1.46,11.38,2.63,23,1,34.41-1.68,12.17-7.22,22.7-13.2,33.25q-5.13,9-10.25,18.09l.45,4.94c2.92-6.52,7.18-12.28,11-18.25a120.28,120.28,0,0,0,9.42-17.59,115.41,115.41,0,0,0,9.08-38.51l-1.17-.72c0,24.79-8.29,49-22,69.6a5.83,5.83,0,0,0-.41,3.32c0,.24.25,2.39.73,1.89a95.44,95.44,0,0,0,22.18-37.46c4.44-14.5,6-30.94.4-45.34-3.18-8.22-8.11-15.61-13-22.9-.37-.56-.67,1.24-.67,1.24a8.18,8.18,0,0,0,.09,3.27,105,105,0,0,1-2.27,63.5l.87,3c1.66-26.32,3.15-52.91-1.75-79-.1-.52-.23-.91-.65-.56s-.38,2-.37,2.47c.56,25.7,1.14,51.52-1.9,77.1l1.11,1.36a386.4,386.4,0,0,0-8.73-76.61c-.15-.7-.28-.93-.72-.42s-.33,2.35-.28,3c.92,10.64,3.27,21.09,4.42,31.7a62.14,62.14,0,0,1-3.95,30.14,101,101,0,0,1-8.51,16.42,6,6,0,0,0-.41,3.32c0,.2.39,2.43.73,1.89,6-9.56,10.84-19.84,12.78-31,2-11.45.69-22.93-1.12-34.31-1-6.51-2.23-13-2.79-19.57l-1,2.62a367.24,367.24,0,0,1,8.53,72.9c0,.45-.1,2.31.43,2.61s.64-1,.68-1.24c3.14-26.5,2.64-53.21,2.06-79.83l-1,1.91c4.57,24.33,3,49.19,1.44,73.73a6.81,6.81,0,0,0,.22,2.84c.15.35.4.93.66.21a120.3,120.3,0,0,0,2.51-72l-.58,4.52c8,12.05,16.2,24.6,15.59,39.67-.53,13.2-5,26.28-11.63,37.64a98.85,98.85,0,0,1-13.58,18l.32,5.21A135.57,135.57,0,0,0,373.52,182c0-.37.06-2.54-.51-2.65s-.64,1.65-.65,1.93a106.34,106.34,0,0,1-9.32,37,121.85,121.85,0,0,1-9.63,17.26c-3.61,5.47-7.36,10.86-10.05,16.86a7.18,7.18,0,0,0-.24,3.38c0,.16.39,2.1.7,1.56l10.08-17.8a173.91,173.91,0,0,0,8.81-16.85c5.06-11.69,6.49-24.44,6.14-37.08-.2-7.36-1-14.68-1.9-22,0-.32-.14-1.39-.6-1.29s-.47,1.69-.49,1.93c-1.87,24.09-4,48.89-15.77,70.52a89,89,0,0,1-10.88,15.77l.32,5.21a97.69,97.69,0,0,0,21.69-72,93.51,93.51,0,0,0-4.6-20.9c-.47-1.37-.89,2.1-.89,2.33a296.45,296.45,0,0,1-8,60.27,8.67,8.67,0,0,0,0,3.55c.06.3.47,1.72.77.7,6.82-23.23,6.18-47.65,3.83-71.51-.08-.85-.58-2-.93-.54q-6.18,26.54-10.78,53.4a9.63,9.63,0,0,0,0,3.55c.07.32.44,1.7.77.7a140.5,140.5,0,0,0,5.69-61.76c0-.31-.17-1.58-.68-1.25s-.44,2.11-.43,2.61a222.78,222.78,0,0,1-2.43,37.57c-1.47,9.78-3,20.84-11.64,27-.68.49-.46,2.62-.42,3.33,0,.31.15,2.3.74,1.88Z"/><path class="cls-3" d="M167.47,153.75c-.46,5.93-4.73,29.25-6.52,35.57-1.92,6.75-4.45,13.33-5.94,20.19-.8,3.67-1.29,7.41-2.15,11.06-2.37,10.05-7.47,19.22-13.25,27.7a34.24,34.24,0,0,1-4.69,5.83c-8.8,8.3-20.44,9.16-29.91,1.2-6.79-5.72-11-14-15.49-21.68A70.94,70.94,0,0,1,83.93,223c-1.22-3.76-2.48-7.87-2.61-11.87-.08-2.53-1.67-4.9-2.65-7.21q-1.59-3.75-3-7.57a162.41,162.41,0,0,1-4.86-15.58,142,142,0,0,1-3.18-15.26c-1.4-8.72-1.49-17.67-5.58-25.74-1-2-2.3-4-2.49-6.32-.31-3.82,3.67-6.78,7.08-4.67,4.38,2.72,7.67,6.34,12.3,8.68,8.16,4.12,16.48,8.29,25.48,9.63,9.85,1.47,19.88-.72,28.78-5.12a67.9,67.9,0,0,0,12.89-8.39c6.48-5.31,10.86-13,18.69-16.28.89-.37,2-.62,2.71.07a2.56,2.56,0,0,1,.47,2c-.35,7.86-1.57,15.71-1.05,23.56.23,3.53.81,7.05.58,10.58C167.48,153.56,167.48,153.67,167.47,153.75Z"/><path class="cls-4" d="M139.55,70a25.21,25.21,0,0,1-7.65-1.39,27.27,27.27,0,0,1-6.74-4.22l-10.81-8.32c-2.08-1.6-4.28-3.26-6.87-3.69-5.58-1-10.24,3.86-14.6,7.46C81.88,69,67,72.09,52.69,72.6a123.7,123.7,0,0,1,2.85,44.45,3.57,3.57,0,0,0,.05,1.56c.47,1.27,2.12,1.5,3.47,1.65,7.47.87,16.16,8.42,22.61,12.29,10.78,6.48,13.38,12.6,25.94,13,4.85.15,10.22,2.29,15,1.15,3.86-.93,7.73-.71,11.46-2.48a39.33,39.33,0,0,0,8.74-6.08c7.35-6.31,21.2-20.64,27-28.41,1.37-1.84,3.61-4.63,3.31-7.08a56.53,56.53,0,0,1-.63-6.1c0-5.76-.91-9.73-1.44-14.41-.25-2.21-2-4.3-2.11-6.52a11.34,11.34,0,0,0-1.78-4.92c-1.41-2.16-10-.35-12.61-.3Q147.05,70.57,139.55,70Z"/><path class="cls-1" d="M164.92,60.82c-1.31-6.19.82-20.56,1.1-22.1,1.13-6.23,9.26-7.93,5.48-22.85-1-3.91-2.65-9.26-6.72-11.08-5.38-2.4-12.69-.31-17.95,1.41-4.34,1.41-8.57,3.08-13.09,3.76-4.76.71-9.62,0-14.3-.89-8.16-1.61-16.88-4-25.21-3.26-9,.84-17.68,4.45-25.32,9.24a24.76,24.76,0,0,1-5.4,2.87,18.55,18.55,0,0,1-7.3.51c-3.5-.28-6.86-1.67-10.4-1.66s-6.49,1.35-9.54,3a11,11,0,0,0-5.11,7.71c-.26,1.24-.8,2.22-.62,3.5a14.88,14.88,0,0,0,4.09,7.77c2.75,3,6.13,5.42,8.4,8.79,2.46,3.65,3.39,8.08,4.45,12.35a8.05,8.05,0,0,0,1.68,3.85,6.57,6.57,0,0,0,2.51,1.53c5.92,2.31,12.91,1.43,18.6-1.11,4.8-2.14,11.27-2.78,15.5-6,3.82-2.88,7.86-5.74,11.53-8.88a9.37,9.37,0,0,1,2.14-1.5c5.1-2.21,13.35,2,16.86,5.64,1.77,1.84,3,4.16,5,5.73a18.11,18.11,0,0,0,5.93,2.7l6.13,2a25.87,25.87,0,0,0,3.87,1,27.94,27.94,0,0,0,5.41.19l14-.42c2.9-.09,6.08-.29,8.19-2.28A5.16,5.16,0,0,0,164.92,60.82Z"/><path class="cls-2" d="M169.48,28.3a5.68,5.68,0,0,1-1.09-.11,11.56,11.56,0,0,1-2.23-.63.66.66,0,0,1-.37-.06,7.13,7.13,0,0,1-1.65-1,7.15,7.15,0,0,1-1-.82,2.67,2.67,0,0,1-2.29-2.55,16.31,16.31,0,0,1,.26-4.35,17,17,0,0,1,1-6.4.73.73,0,0,1,1.23-.22c.33.39.64.78,1,1.17a.72.72,0,0,1,.35-.29.76.76,0,0,1,.71.12c.22.18.44.38.64.58a20,20,0,0,1,.52-2.26.72.72,0,0,1,1.32-.15l.17.31c0-.42.09-.84.15-1.27a.72.72,0,0,1,1.43.09v4.1a113.39,113.39,0,0,1,4.7,10.36.76.76,0,0,1-.19.8.71.71,0,0,1-.81.11c-.24-.12-.46-.24-.68-.37a3,3,0,0,1-.13.68,1.61,1.61,0,0,1-1,1.15,1.62,1.62,0,0,1-.84.83A2.72,2.72,0,0,1,169.48,28.3Zm-2-1.82c.39.11.79.21,1.23.29a3.66,3.66,0,0,0,.81.09h0A7.5,7.5,0,0,1,168,25.63a5.54,5.54,0,0,1-.58.85Zm-2.34-1.1a8.29,8.29,0,0,0,.91.53,4.33,4.33,0,0,0,.66-.81h0a.69.69,0,0,1-.8-.14,4.13,4.13,0,0,1-.77.42Zm3.56-1.27a5.54,5.54,0,0,0,1.57,1.52A8,8,0,0,0,169.16,23l-.19-.31a10,10,0,0,1-.32,1.44Zm-1.72,0,0,.11a.7.7,0,0,1,.06.19v-.06a1,1,0,0,0-.11-.29Zm-4.36-4.93a14.4,14.4,0,0,0,.53,3,7.31,7.31,0,0,0,.91,2.06,2.52,2.52,0,0,0,1.19-.56A19.18,19.18,0,0,1,164,15.29a4.2,4.2,0,0,0-.88,1.6,1.3,1.3,0,0,1-.11.35c-.15.61-.3,1.26-.4,1.89Zm2.78-2.06a17,17,0,0,0,.93,5.29h0c-.11-.39-.19-.77-.26-1.14a21.77,21.77,0,0,1-.35-3.7Zm4.23,2A7.64,7.64,0,0,0,171,22.24a9.61,9.61,0,0,0-1.45-3.13Zm-1.8-2.07a1.84,1.84,0,0,0,.1.42v-.35Zm-.5-2.31.53.42v-.84c0-.28-.25-.46-.37-.69a8.58,8.58,0,0,1-.16,1.1Z"/><path class="cls-2" d="M38.9,40.83h-.13a.73.73,0,0,1-.59-.79c.14-1.27.28-2.54.45-3.79a94.49,94.49,0,0,1-3.19-10,.71.71,0,0,1,.5-.87.72.72,0,0,1,.59.1c.19.12.36.24.53.37a2.85,2.85,0,0,1,.18-.54,1.56,1.56,0,0,1,1-1,1.53,1.53,0,0,1,.92-.75,3.56,3.56,0,0,1,2.09.14,12.13,12.13,0,0,1,2,.85.88.88,0,0,1,.35.1A7.48,7.48,0,0,1,45,25.79c.28.27.55.56.8.85a2.54,2.54,0,0,1,1.85,2.65,15.48,15.48,0,0,1-.71,4,15.67,15.67,0,0,1-1.62,5.8.73.73,0,0,1-.6.4.7.7,0,0,1-.65-.32L43.37,38a.65.65,0,0,1-.33.19.71.71,0,0,1-.69-.19c-.17-.18-.33-.36-.47-.54-.2.65-.43,1.3-.69,1.94a.73.73,0,0,1-.67.44h0a.72.72,0,0,1-.67-.44l-.06-.16c-.07.33-.15.67-.24,1A.7.7,0,0,1,38.9,40.83Zm1.42-4.2c.07.17.13.34.2.52.09-.28.16-.55.24-.83L40.41,36Zm3.44-8.28A17.67,17.67,0,0,1,44,36a4.16,4.16,0,0,0,.86-1.25l.13-.31c.22-.58.42-1.15.58-1.72A14,14,0,0,0,45.42,30a6.76,6.76,0,0,0-.59-2A2.53,2.53,0,0,0,43.76,28.35Zm-1.1,5.55.15.28a15.83,15.83,0,0,0-.06-3.37A19.87,19.87,0,0,1,42.66,33.9Zm-4.39-4.65a9,9,0,0,0,.81,2.47A7.25,7.25,0,0,0,38.27,29.25Zm1.08-3.18a7.77,7.77,0,0,0,.7,2.41l.08.17a11.6,11.6,0,0,1,.39-1.13A5.61,5.61,0,0,0,39.35,26.07Zm3.41.65a.77.77,0,0,1,.53.24,5.39,5.39,0,0,1,.6-.25c-.22-.18-.44-.34-.68-.5-.19.17-.37.34-.54.52ZM40.28,25a7.16,7.16,0,0,1,1,1.13,7.72,7.72,0,0,1,.54-.62c-.32-.13-.65-.26-1-.37A5.36,5.36,0,0,0,40.28,25Z"/><path class="cls-5" d="M274.07,447.23c.5-.53.91-1.18,1.66-1.32.55-.09,1.16,0,1.31.66a1.41,1.41,0,0,1-.31,1.19,4.17,4.17,0,0,1-1,.83l-.82.58a1.37,1.37,0,0,1-1.1.37.93.93,0,0,1-.54-1.15A2.89,2.89,0,0,1,274.07,447.23Z"/><path class="cls-5" d="M268,453.63a.75.75,0,0,1,1.06,0,1.15,1.15,0,0,1,.26,1.09,2.26,2.26,0,0,1-.62,1,4.15,4.15,0,0,1-1.44.93.81.81,0,0,1-.43.08c-.33-.06-.5-.44-.51-.78a3.53,3.53,0,0,1,1.2-2.27"/><path class="cls-5" d="M258.83,459.3a1.09,1.09,0,0,1-.93-.1.82.82,0,0,1-.11-1.05c.44-.77,2.73-2.13,3.64-1.54C263.21,457.76,259.6,459.15,258.83,459.3Z"/><path class="cls-5" d="M252.62,456.47c.32.22.82.18,1,.51s-.11.84-.5,1a2.74,2.74,0,0,1-1.46.29,1.17,1.17,0,0,1-1.15-.69,1,1,0,0,1,.3-.89,2.94,2.94,0,0,1,.84-.49c.24-.11.55-.2.72,0"/><path class="cls-5" d="M144.16,467.33a3.28,3.28,0,0,1,2-.82c.55.05,1.1.36,1.08,1a1.45,1.45,0,0,1-.62,1.07,3.78,3.78,0,0,1-1.15.54l-.94.33a1.37,1.37,0,0,1-1.17.06,1,1,0,0,1-.21-1.25A2.74,2.74,0,0,1,144.16,467.33Z"/><path class="cls-5" d="M136.63,471.85a.79.79,0,0,1,1,.27,1.12,1.12,0,0,1,0,1.12,2.17,2.17,0,0,1-.87.78,4.4,4.4,0,0,1-1.6.54.74.74,0,0,1-.44-.05.71.71,0,0,1-.27-.88,3.57,3.57,0,0,1,1.76-1.87"/><path class="cls-5" d="M124.83,476.27a1,1,0,0,1-.87-.35.82.82,0,0,1,.17-1c.64-.62,3.21-1.31,3.92-.5C129.46,476,125.61,476.33,124.83,476.27Z"/><path class="cls-5" d="M121.05,470.42c.25.3.75.39.86.77s-.34.78-.76.87a2.61,2.61,0,0,1-1.49-.12c-.45-.16-.92-.5-.92-1a1,1,0,0,1,.53-.77,3,3,0,0,1,.94-.24c.26,0,.59,0,.69.19"/><path class="cls-2" d="M104.55,48.37a44.86,44.86,0,0,0,.17,8.9c.35,2.33.94,5.16,2.94,6.66a8.79,8.79,0,0,0,5.7,1.45c2-.08,4.19-.49,5.53-2.11a2.82,2.82,0,0,0,.35-1.24,10.42,10.42,0,0,0,.06-2.09c0-.21-.29-2.41-.73-1.88-1.15,1.39-3,1.76-4.71,1.88a9.66,9.66,0,0,1-5.22-.81,5.74,5.74,0,0,1-2.83-4.27,3.39,3.39,0,0,1-.1-.57c0-.08-.08-.78,0-.35v-.76h0V51.56a13.33,13.33,0,0,1,.08-1.78,12.06,12.06,0,0,0-.06-2.08,2.61,2.61,0,0,0-.35-1.24c-.59-.45-.73,1.73-.73,1.89Z"/><path class="cls-2" d="M178.89,139.17c-.86-7-1.75-14.07-2.47-21.12-.75-7.3-1.31-14.59-2.41-21.87-1.25-8.28-2.77-16.51-4-24.8-1.13-7.92-2.1-16-1.82-24a17.34,17.34,0,0,1,1-5.72,37.85,37.85,0,0,1,2.68-5,25.84,25.84,0,0,0,2.78-7.51,38.83,38.83,0,0,0,0-16c-.94-4.3-2.95-8.67-6.79-11.1C162.74-1.31,156.2.16,150.67,1.7c-6.54,1.81-13.09,4.27-20,3.1-5.12-.86-10.18-2-15.34-2.65a70.06,70.06,0,0,0-21.44.31c-7.63,1.43-14.25,5.25-21.43,8A32.4,32.4,0,0,1,62,12.72c-3.29.1-6.58-.24-9.86-.43-6.41-.38-13.5-.12-18.25,4.84S28.62,30,30.81,36.19c2,5.53,6.37,9.74,10.07,14.12a35.24,35.24,0,0,1,5,7.27,47.94,47.94,0,0,1,2.95,8.33,110.46,110.46,0,0,1,3.18,19c1.14,12.46.91,25,1.35,37.47.12,3.69.41,7.37.51,11.06,0,.35,0,2.5.55,2.5s.56-2.27.55-2.5c-.17-6.59-.6-12.9-.71-19.38s-.19-12.69-.46-19c-.54-12.81-1.54-26.15-6-38.3A31.94,31.94,0,0,0,44,49.13a85.68,85.68,0,0,0-5.55-6.77,52.6,52.6,0,0,1-5.26-6.74C32,33.74,30.69,31.28,30.74,29c.07-3.12,2.38-6.32,4.71-8.19a17.18,17.18,0,0,1,8.92-3.44c6.42-.74,12.84.82,19.26.28,7.53-.63,14.22-4.7,21.1-7.47a54.86,54.86,0,0,1,21.52-3.67,108.73,108.73,0,0,1,18.51,2.17c2.07.4,4.13.85,6.21,1.19a25.91,25.91,0,0,0,9.37-.35c10-2,25.06-9.93,31.77,2.13a18.66,18.66,0,0,1,2,5.94c.08.47.16,1.07.19,1.47,0,.11,0,.46.05.66s0,.83,0,.58a19,19,0,0,1-.11,2.86,24,24,0,0,1-1.44,6.09c-1.31,3.4-3.73,6.18-4.71,9.73a42.55,42.55,0,0,0-1,11.81c0,4.23.32,8.45.72,12.66.78,8.15,2.13,16.23,3.47,24.3S174,103.84,174.72,112c.59,6.39,1.18,12.76,1.94,19.13q.63,5.29,1.28,10.6c.07.54.2,1.61.75.89s.3-2.63.2-3.42Z"/><path class="cls-2" d="M49.76,68.57A43.92,43.92,0,0,0,79.05,66,65.68,65.68,0,0,0,95.53,54.79c2.89-2.6,5.85-5.06,10-4.52s7.75,2.94,11,5.28c2.5,1.83,4.75,4,7.25,5.77a35.06,35.06,0,0,0,7.53,4.17c11.87,4.76,25,2.36,37.12.16,1-.19.55-5.1,0-5-10.83,2-22.25,4.09-33.11,1.18a34.53,34.53,0,0,1-7.93-3.21,57.27,57.27,0,0,1-7.87-5.81C116,50,112.07,47.08,107.7,45.75a9.8,9.8,0,0,0-7.07.23,18.08,18.08,0,0,0-4.16,2.88c-4.59,4-9.16,7.89-14.58,10.76a44.39,44.39,0,0,1-32.13,4c-.43-.11-1.1,4.72,0,5Z"/><path class="cls-2" d="M167.93,164.43c-.3,2-.77,4.42-1.2,6.68-.46,2.49-.94,5-1.39,7.49-1.53,8.61-3.12,17.19-5.06,25.72A253.75,253.75,0,0,1,153,230.57c-2.65,7.73-5.84,15.49-11.38,21.63a22.61,22.61,0,0,1-7.87,6.13,25.86,25.86,0,0,1-8.8,1.91c-5.89.28-12.5-1-17.1-4.93a44.73,44.73,0,0,1-6.9-7.95,88,88,0,0,1-6-9.7,170.12,170.12,0,0,1-9.11-20.86c-6-16.12-11.8-32.53-14.7-49.56-.37-2.17-.68-4.35-.95-6.54-.07-.54-.2-1.61-.75-.89s-.29,2.63-.2,3.42c2.22,18.1,7.85,35.5,14.08,52.57,5.19,14.23,10.74,29.08,20.77,40.7a23.78,23.78,0,0,0,7.17,6,25.85,25.85,0,0,0,9,2.56c5.91.63,12.53-.33,17.38-4,6.45-4.87,10.46-12.4,13.47-19.71a191,191,0,0,0,8.16-26.16c3.73-14.87,6.36-30,9.05-45.09.19-1.06.38-2.13.54-3.19.13-.9.34-2.64-.2-3.42s-.68.39-.75.89Z"/><path class="cls-2" d="M223.09,297.88a37,37,0,0,0,6.57.35,75.93,75.93,0,0,0,17.36-2.3c20.46-5,38.42-17.39,52.72-32.59a176.91,176.91,0,0,0,24.77-33.5,135.47,135.47,0,0,0,13.1-31.08,113.74,113.74,0,0,0,4.05-28.6,108.43,108.43,0,0,0-.62-12.87c-.2-1.94-.47-3.87-.79-5.79s-.84-3.76-1-5.46a4.82,4.82,0,0,1,.07-1.71,14.87,14.87,0,0,1,.81-2.79,18,18,0,0,1,3.35-5.31,18.19,18.19,0,0,1,10.93-5.95c7.91-1.07,14.32,4.21,17.86,10.84a71.94,71.94,0,0,1,5.8,15.9,138.22,138.22,0,0,1,3.78,22.27c1.55,17.6.2,35.85-5.46,53a95.81,95.81,0,0,1-12.86,25.77c-5.53,7.75-12.46,14.2-19.69,20.33-12.82,10.86-27.07,19.92-43.17,25-19.52,6.22-40.35,6.69-60.6,4.85-6.37-.58-12.71-1.39-19-2.37-.57-.09-1,4.84,0,5,22.41,3.46,45.69,5.14,68.06.53a116.67,116.67,0,0,0,46-21.09,170,170,0,0,0,20.32-17.48,89.13,89.13,0,0,0,16.83-24.55c8.21-17.46,11.31-37.07,11.25-56.24,0-15.83-2-32.14-7.25-47.14-1.71-4.91-3.82-10-7.37-13.93a17,17,0,0,0-12.33-5.9,17.88,17.88,0,0,0-11.42,4.35,19.6,19.6,0,0,0-6.51,10.75,25,25,0,0,0-.39,8c.21,1.93.72,3.92,1,5.78a86.11,86.11,0,0,1,.85,23.54c-2.21,22.61-12.24,43.78-25.32,62.08-14.34,20.06-32.61,38.1-55.81,47.4-10.68,4.29-22.67,7-34.25,6-.56-.05-1.13-.1-1.68-.19s-1,4.83,0,5Z"/><path class="cls-2" d="M135.58,40.77a2.85,2.85,0,0,1-2.15.58,2.8,2.8,0,0,1-1.84-1.54,7.26,7.26,0,0,1-.61-2.39,4.44,4.44,0,0,1,.53-3.37,3.36,3.36,0,0,1,1.25-.92,3,3,0,0,1,2.79,0c1.07.66,1.28,2.1,1.39,3.35C137.11,38.38,137.35,39.53,135.58,40.77Z"/><path class="cls-2" d="M73.43,35.61a2.69,2.69,0,0,1,2.24-.42,2.79,2.79,0,0,1,1.8,1.59A7.06,7.06,0,0,1,78,39.19a4.49,4.49,0,0,1-.62,3.35,3.34,3.34,0,0,1-1.28.88,3,3,0,0,1-2.79,0C71.13,41.94,71.28,37.16,73.43,35.61Z"/><path class="cls-2" d="M105.72,49.47c-3.07.1-5.68-2.15-7.66-4.49a6.26,6.26,0,0,1-1.37-2.2,2.44,2.44,0,0,1,.51-2.43,3.07,3.07,0,0,1,1.14-.61c3.47-1.24,11.88-2.3,14.78.74C116.68,44.2,109,49.37,105.72,49.47Z"/><path class="cls-2" d="M162.66,5.53c-1.14.76-1.66,2.43-2.2,3.63a28.51,28.51,0,0,0-1.59,4.49,21.85,21.85,0,0,0-.24,9.52,15.21,15.21,0,0,0,9.05,11.4c.21.08,1.17-4.53,0-5a13.93,13.93,0,0,1-7.87-8.35,6.66,6.66,0,0,1-.05-4.47,28.64,28.64,0,0,1,1.35-3.47c.47-1,.85-2.27,1.84-2.92.63-.42.43-2.45.39-3.08,0-.31-.13-2.11-.68-1.75Z"/><path class="cls-2" d="M42.69,22.28c1,.36,1.71,1.44,2.37,2.26a34.1,34.1,0,0,1,2.1,2.84,10.61,10.61,0,0,1,2.05,5.49c-.05,3.54-2.62,7.06-5.35,9.07-.63.46-.43,2.41-.38,3.08,0,.29.14,2.14.67,1.74,4.58-3.37,6.27-9.06,6.14-14.55a17.92,17.92,0,0,0-2-8.23,25.2,25.2,0,0,0-2.55-3.77c-.84-1.07-1.71-2.47-3.05-2.93-.3-.1-1.15,4.61,0,5Z"/><path class="cls-2" d="M104.9,48.18a44.22,44.22,0,0,0,.17,8.76c.34,2.3.93,5.09,2.91,6.57A8.83,8.83,0,0,0,113.69,65c2-.08,4.18-.49,5.52-2.11a2.47,2.47,0,0,0,.33-1.15,9.47,9.47,0,0,0,0-1.92c0-.2-.27-2.24-.67-1.75a6.45,6.45,0,0,1-4.73,1.9,10.06,10.06,0,0,1-5.23-.81,5.9,5.9,0,0,1-2.87-4.35c0-.21-.08-.4-.11-.61,0-.06-.08-.71,0-.4,0-.25,0-.51-.05-.76s0-.34,0-.09V51.64c0-.09,0-.81,0-.36,0-.59.05-1.18.08-1.77a10.36,10.36,0,0,0-.06-1.93c0-.21-.1-1-.33-1.15-.54-.41-.67,1.6-.67,1.75Z"/><path class="cls-2" d="M105.33,58.26a5.53,5.53,0,0,1,0-.91,2.54,2.54,0,0,1,0-.73c0-.14,0-.11,0,.08l0-.07a5.46,5.46,0,0,1-.3.7,6.13,6.13,0,0,1-1.1,1.38,5.75,5.75,0,0,1-3.58,1.41,10.34,10.34,0,0,1-3.94-.5,3.38,3.38,0,0,1-2.37-2c-.07-.24-.21-.41-.42-.25s-.31,1-.33,1.15A8.57,8.57,0,0,0,93.5,62a4.24,4.24,0,0,0,3,2.68,9.54,9.54,0,0,0,5.08.3,6,6,0,0,0,3.61-2.56,9.92,9.92,0,0,0,1.08-6.64c0-.3-.36-1.87-.76-.9a7.2,7.2,0,0,0-.19,3.42Z"/><path class="cls-2" d="M161.71,118.83c-7.24,12.21-18.18,23.45-32,27.69-7.82,2.39-15.78,1.32-23.52-.91a83,83,0,0,1-21.91-10.14,97.43,97.43,0,0,1-20.78-17.63c-.46-.53-.67,1.61-.68,1.75,0,.8-.21,2.39.38,3.07a97.07,97.07,0,0,0,18.61,16.19,88.1,88.1,0,0,0,21.07,10.72c7.68,2.61,16.14,4.45,24.19,2.65a45.57,45.57,0,0,0,19.21-9.84A75.1,75.1,0,0,0,162,123.65a5.76,5.76,0,0,0,.39-3.08c0-.18-.38-2.25-.68-1.74Z"/><path class="cls-2" d="M125.48,123.46a17,17,0,0,1,1.45,2.32l-.13-.25a18.33,18.33,0,0,1,1.19,2.91c.07.2.22.44.43.25a2.49,2.49,0,0,0,.32-1.15,8.39,8.39,0,0,0-.19-3.42,18.29,18.29,0,0,0-2.78-5.48c-.19-.25-.37.13-.42.25a4.83,4.83,0,0,0-.26,1.5,10.25,10.25,0,0,0,.06,1.92,2.4,2.4,0,0,0,.33,1.15Z"/><path class="cls-2" d="M120.48,125.78c.09.27.17.53.25.8l.06.19c-.05-.16-.05-.19,0-.08s.06.25.1.38c.13.52.24,1.05.34,1.58s-.07-.44,0,0l.06.39.09.78c0,.46,0-.51,0-.08l0,.39c0,.16,0,.31,0,.46,0,.59,0-.56,0-.08a8.7,8.7,0,0,0,.16,1.77c0,.1.15.73.39.73s.36-.6.39-.73a8,8,0,0,0,.16-1.77,30,30,0,0,0-1.47-9.06c-.06-.2-.21-.44-.42-.25s-.3.9-.33,1.15a8.05,8.05,0,0,0,.2,3.42Z"/><path class="cls-2" d="M111.76,122.89a44.21,44.21,0,0,0-1,8,11.21,11.21,0,0,0,.06,1.92,2.39,2.39,0,0,0,.33,1.15c.49.47.67-1.66.67-1.74,0-.57,0-1.13.09-1.69,0-.15,0-.31,0-.46l0,.32,0-.26c0-.27.06-.54.09-.81s.07-.53.11-.79l.06-.4c0-.09,0-.18,0-.27l0,.24a5.76,5.76,0,0,1,.15-.79c.06-.3.12-.61.19-.91a8.16,8.16,0,0,0,.16-1.77,7.53,7.53,0,0,0-.16-1.77c0-.18-.13-.73-.39-.73s-.36.6-.39.73Z"/><path class="cls-2" d="M106.1,119.67a7.69,7.69,0,0,0-2.51,5.14,10.41,10.41,0,0,0-.06,1.93,7.89,7.89,0,0,0,.1.85,2.94,2.94,0,0,0,.16.65c.07.16.21.49.42.25l.13-.25a4.16,4.16,0,0,0,.2-.9.59.59,0,0,1,0-.13c0-.24-.07.34-.06.32s0-.17,0-.25l.06-.25c0-.2-.06.2-.06.21s0-.11,0-.16a6.71,6.71,0,0,1,.4-1l-.13.25a6,6,0,0,1,1.52-1.88,1.49,1.49,0,0,0,.19-.45,3.34,3.34,0,0,0,.14-.7,9.58,9.58,0,0,0,0-1.93,4.4,4.4,0,0,0-.25-1.49l-.13-.25c-.1-.12-.2-.12-.29,0Z"/><path class="cls-6" d="M55.48,40.53l-3.62,2.73a10.42,10.42,0,0,0-1.52,1.22,4.07,4.07,0,0,0-.8,2.29c-.21,1.71-.16,3.47-.21,5.2L49.2,56.7c0,.4-.06,2.43.55,2.5s.54-2.33.55-2.5l.11-4.06.06-1.89,0-1.08v-.54c0-.3,0-.36,0-.18.28.12-.44,1.06,0,.42a3.65,3.65,0,0,1,.58-.53c.47-.37,1-.72,1.43-1.08l3.2-2.41c.22-.17.3-1,.32-1.15a8.91,8.91,0,0,0,.06-1.93c0-.28-.15-2.14-.68-1.74Z"/><path class="cls-1" d="M32.19,59.82a17.31,17.31,0,0,1,12.59-3.91c7.28.87,10.25,0,10.71,3.91s-3.15,11.32-5.4,15.47-10,5.6-10,5.6Z"/><path class="cls-2" d="M71.47,142.52c-11.41-2.84-24.61-7.39-31.23-17.89-4.47-7.07-3.71-14.72-1.22-22.35C41.7,94,45.91,86.43,49.92,78.79c3-5.66,6.59-11.81,6.21-18.44-.13-2.28-.69-4.48-2.85-5.59-3.81-1.95-8.78-1.68-12.81-.67C28.93,57,19.41,66.29,12.89,75.84a75.63,75.63,0,0,0-.43,83.82c10.57,15.83,26.9,28.55,44.34,36.1l1,.42-.53-1.84a450.34,450.34,0,0,0,4.61,48.35c4.36,30.76,10.94,62,23.78,90.44q2.4,5.31,5.16,10.48c1.74,3.24,3.81,6.29,5.59,9.5-.15-.29.11.1.22.4s.17.59.25.88q.57,1.91,1.17,3.81c1.75,5.61,3.62,11.17,5.53,16.73C107,385,111,394.85,114,405c5,16.32,7.88,33.83,6.57,50.92-.64,8.27-4,16.17-3.5,24.54.2,3.29.8,8.16,4.7,9,2.08.45,4.6-.3,6.64-.7a63.39,63.39,0,0,0,7.69-2c4.22-1.42,8.4-3.38,11.38-6.79a23.1,23.1,0,0,0,4.77-9.94c1.49-6.1,1.77-12.54,2.07-18.79.53-10.81.82-21.68,2.82-32.35,1.7-9,4.79-21.27,14.11-25.37,4.74-2.08,10-1.31,14.75.43a120.45,120.45,0,0,1,26.61,14c13,9,25.27,21,32.08,35.5,3.3,7,4.64,14.76,7.11,22.09,1.46,4.34,3.58,9.71,9,9.67,7.3-.05,14.31-5.74,18.36-11.36,4.64-6.43,6.63-15.09,4-22.73-1.71-4.9-4.3-9.56-6.69-14.14-3.53-6.77-7.22-13.46-10.94-20.13-12.15-21.78-25.07-43.12-33.74-66.59-7.2-19.47-12.79-39.55-18.35-59.53-6-21.47-11.48-43.09-15.75-65-2-10.18-3.69-20.41-5-30.7l-.48,3.77a152,152,0,0,0,19.24-2.58c12.69-2.4,25.35-6,37.05-11.51A164.82,164.82,0,0,0,274.72,159c7.39-5.38,14.79-11.32,20.46-18.55,3.51-4.48,6.87-10.93,4.38-16.72-2-4.66-8.07-4.46-12.2-3.65-7.41,1.46-14.5,4.7-21.47,7.5a309,309,0,0,1-29.67,10.63,154.1,154.1,0,0,1-37.16,6.05c-7.2.25-14.32.62-21.35-1.4a22.78,22.78,0,0,1-6.74-3c-.41-.28-1.26,4.16-.29,4.82,7,4.82,16.57,5.24,24.81,4.84a181.36,181.36,0,0,0,28-3.11,206.89,206.89,0,0,0,31.36-9.44c8.08-3.06,16-6.56,24.15-9.43,4.79-1.68,10.81-4,15.95-2.5a7.31,7.31,0,0,1,2.77,1.42,5.61,5.61,0,0,1,1,1.11,10.91,10.91,0,0,0,.48,1.06c-.22-.09.26-1.07-.06-.59a10.76,10.76,0,0,0-.58,1.74,22.11,22.11,0,0,1-2.17,3.85c-4.75,6.93-11.49,12.58-18.08,17.68a169.34,169.34,0,0,1-25.72,16.46c-18.08,9.36-38.83,14.42-59.09,16l-1.29.1c-.81,0-.53,3.31-.47,3.76,5.3,42.64,17,84.35,29.19,125.46,4.82,16.28,10,32.55,17,48,4.19,9.24,9.1,18.15,14,27,7.24,13,14.67,25.88,21.69,39,2.82,5.27,5.67,10.57,8,16.08,1.25,2.94,1.84,5.47.87,8.64a27,27,0,0,1-6.65,10.73,26.21,26.21,0,0,1-10.69,6.85c-2.2.69-4.79,1.24-7,.38s-3.45-2.89-4.37-4.89a69.94,69.94,0,0,1-3.39-10.22c-2-7-3.91-13.8-7.55-20.2A86.68,86.68,0,0,0,229,416.55,114.61,114.61,0,0,0,208.19,400c-7.56-4.73-16-9.41-24.62-11.83-4.54-1.26-9.43-1.31-13.62,1.06-3.87,2.18-6.51,5.84-8.47,9.75-5,10-6.29,21.93-7.18,33-.87,10.71-.43,21.74-2.32,32.34a22,22,0,0,1-4.75,10.88c-3.07,3.51-7.41,5.44-11.77,6.83a64.41,64.41,0,0,1-7.36,1.85c-2,.38-4.51,1.13-6.53.56-5.27-1.48-3.12-9.32-2.29-13A101.72,101.72,0,0,0,122,451.43a147.47,147.47,0,0,0-1.33-23.19A174.16,174.16,0,0,0,114,398.73c-3.11-9.83-6.88-19.46-10.22-29.21-1.82-5.31-3.61-10.63-5.28-16-.37-1.19-.73-2.38-1.09-3.57,0-.18-.35-1.08-.12-.43a8.32,8.32,0,0,0-.43-1c-1.7-3.23-3.87-6.25-5.61-9.48s-3.46-6.75-5-10.21a224.88,224.88,0,0,1-8.5-22,352.13,352.13,0,0,1-11.55-46.14,493.54,493.54,0,0,1-7.69-64.23c-.06-1.14-.12-2.27-.15-3.41,0-.42,0-1.63-.53-1.83A87.63,87.63,0,0,1,45,184.59a107.33,107.33,0,0,1-25.37-20.84c-9.24-10.5-16.08-23.36-18-37.31-2.11-14.92,2-30.27,9.81-43,6.18-10,15.24-19.68,26.61-23.62a22.21,22.21,0,0,1,13.36-.78,6.16,6.16,0,0,1,3.14,1.67,4.45,4.45,0,0,1,.52.84c.17.32.05.31.05-.24,0-.22,0-.16-.07.28a15.83,15.83,0,0,1-.43,1.64A37.41,37.41,0,0,1,53,67.31c-1.5,3.32-3.25,6.53-5,9.75-3.92,7.42-7.85,14.94-10.19,23s-3.16,17.32,0,25.28c3.89,9.69,13.44,15.35,22.8,18.86a97.05,97.05,0,0,0,10.82,3.29c.43.11,1.08-4.73,0-5Z"/><path class="cls-6" d="M73.06,59.69C82.17,61,90.55,56,94.63,47.88A26.25,26.25,0,0,0,97.2,34.51c-.25-4.18-1.5-8.45-4.4-11.58-4.93-5.34-13.71-6.36-20.51-5.31C64.39,18.84,57.23,23.46,55,31.47a22.16,22.16,0,0,0,3.14,18.36c3.42,4.91,8.9,8.89,14.88,9.86.56.1,1-4.83,0-5A22.38,22.38,0,0,1,60.5,47.54C57.81,44.61,54.65,40,55.62,35.8,57.27,28.63,64,24.32,70.78,22.9c6.36-1.34,14.12-.8,19.6,3a13.92,13.92,0,0,1,5.42,7.87,12.53,12.53,0,0,1,.34,2.06,5.34,5.34,0,0,1,0,.68c0,.16,0,.51-.08.88a18.58,18.58,0,0,1-1.42,5A20.46,20.46,0,0,1,73.06,54.69C72.47,54.61,72.07,59.55,73.06,59.69Z"/><path class="cls-6" d="M129.44,56.51c9.09,2.5,18.44-1.76,23.28-9.71a24.65,24.65,0,0,0,3.48-12.9c0-4.29-1-8.89-3.82-12.25-4.64-5.46-13-7.36-19.86-7-7.82.42-15.35,4.31-18.16,12-4.31,11.73,3.09,26.35,15.08,29.87.36.11,1.12-4.67,0-5a22.22,22.22,0,0,1-11.34-8.39c-2.44-3.31-4.72-7.76-3.28-11.9C117.24,24.27,124,20.56,131,19.79c6.48-.71,14,.64,19.16,4.81A13.23,13.23,0,0,1,155,32.71a6.93,6.93,0,0,1,.09.78c0,.51,0,.26,0,.14s0,.86,0,.42a11.68,11.68,0,0,1-.3,2.14,19.18,19.18,0,0,1-2.08,5.3c-4.71,8.18-14.07,12.55-23.28,10C129,51.4,128.33,56.21,129.44,56.51Z"/><path class="cls-6" d="M96.7,39a22.15,22.15,0,0,1,8.64-2.19,40.8,40.8,0,0,1,8.17.75c.54.09.55-2.22.55-2.5s.08-2.4-.55-2.5a40.8,40.8,0,0,0-8.17-.75A22.15,22.15,0,0,0,96.7,34c-.65.31-.55,1.92-.55,2.5,0,.18.16,2.69.55,2.5Z"/><path class="cls-6" d="M155.76,37.88l3.63,1.73c.9.43,2.35.84,2.63,1.85.72,2.63,1.25,5.33,1.87,8,0,.1.15.73.39.73s.37-.63.39-.73a8.4,8.4,0,0,0,0-3.53l-1-4.31c-.35-1.48-.61-3-1.07-4.45a2.54,2.54,0,0,0-1-1.46,15.75,15.75,0,0,0-1.74-.88l-4.07-1.94c-.41-.19-.55,2.31-.55,2.5a8.1,8.1,0,0,0,.16,1.77c.06.27.12.61.39.73Z"/><path class="cls-2" d="M42.24,75.16c-3.12,8.67-7,17-10,25.74a72,72,0,0,0-3.34,12.41c-.72,4.61-.65,9.33-2.33,13.74l3.89-3.62C30.23,110.24,35.66,98,41,86.17c.14-.32-1.5.94-1.62,1a9.41,9.41,0,0,0-2.26,2.45A150.56,150.56,0,0,0,26,122.78l3.9-3.62c-3.8-14.45,4.67-27.88,14.24-37.95l-3,2.27c-4.71,6.65-7.55,14.28-10.35,21.88-2.56,6.93-4.95,14.08-4.59,21.57,0,0,2-1.48,2.15-1.65.48-.45,1.72-1.35,1.75-2.08A86,86,0,0,1,44.32,79.26c.57-.85-.84.27-1,.41a12.86,12.86,0,0,0-2.59,2.62A196.81,196.81,0,0,0,22.32,117l3.89-3.61a72.47,72.47,0,0,1,1.21-19.88c1.38-6.1,4.07-13.3,9-17.39l-1.12.62L27.57,90.61c-2.21,3.94-4.58,7.81-6.41,12a83.78,83.78,0,0,0-6.53,23l3.89-3.61c1.32-15,5.33-30,10.2-44.21.12-.34-1.31.77-1.38.83A18.55,18.55,0,0,0,25,81a94.17,94.17,0,0,0-13.2,23.12l3.87-3.49A179.3,179.3,0,0,1,28.51,71.27l-3.88,3.49L14.18,101.93l3.88-3.5A122.64,122.64,0,0,1,29.68,71.77c.18-.31-1.13.61-1.13.61a18.76,18.76,0,0,0-2.33,2.3c-4,4.67-7.86,10.82-8.13,17.13,0,1.1,0,3.2,1.44,3.3a3.33,3.33,0,0,0,2-.91,25.23,25.23,0,0,0,3.66-3.42l-3.12,2.53c-1.6,4-1.45,8.79-1.41,13,0,4.56.33,9.14.15,13.7,0,0,1.82-1.34,1.9-1.42.56-.54,1.78-1.4,2-2.23,2.29-8.74,4.61-17.63,9-25.61C37.24,84.3,41.45,78.2,43.9,71.3c.12-.34-1.31.76-1.37.82a12.63,12.63,0,0,0-2.36,2.43Q32.57,86.4,24.48,98c-2.11,3-4.23,6.09-6.51,9-.33.41-.7.79-1,1.22.27-.37.1-.1,0,0a10.18,10.18,0,0,0,1.77-1.7,2.63,2.63,0,0,1,.4-.28,19.74,19.74,0,0,0-.26-3.17A26.09,26.09,0,0,1,19,98.81a18.12,18.12,0,0,1,.61-2.72c.53-2-3.12,2.53-3,2.72s.25.18.31.33c.66,2.13.12,4.45-.26,6.52-.08.39,1.5-.94,1.61-1,.64-.61,2-1.55,2.26-2.46C24.31,89.1,24.88,75,31.54,62.83c.15-.27-1.28.76-1.37.82a12.35,12.35,0,0,0-2.36,2.43,53.63,53.63,0,0,0-7.44,20c-.06.37,1.55-1,1.62-1A145.29,145.29,0,0,0,36,70.68c1-1.2-.18-.4-.72,0-9,7.47-16.08,17.06-19,28.52l3.89-3.61c.71-8.64,1.53-17.47,5.54-25.31,0,0-1.87,1.28-2.15,1.53-5.3,5-7.74,11.87-10.21,18.54-2.67,7.21-5.28,14.44-7.92,21.66-.13.34.87-.42.94-.47a19.21,19.21,0,0,0,2.16-2.07,22,22,0,0,0,5.74-11c.07-.4-1.5.93-1.61,1-.58.56-2.09,1.59-2.26,2.44-.21,1.06-.81,4.11,1.11,2.89A10.75,10.75,0,0,0,16,99.19c.11-.38-1.51.94-1.62,1a9.58,9.58,0,0,0-2.26,2.45,14.77,14.77,0,0,0-1.32,8.48c0,.08,2-1.51,2.15-1.65.39-.38,1.83-1.46,1.75-2.09A14.3,14.3,0,0,1,16,99.19l-3.88,3.48c-.37,1.26-1.41,2.27.6.36l2-1.65c-1.1.6-.51-2.73-.47-2.91l-3.9,3.47a18,18,0,0,1-4.18,9l3.12-2.52,6.84-18.71c1.11-3,2.22-6.09,3.46-9.09.63-1.5,1.29-3,2-4.44a13.76,13.76,0,0,1,2.37-4l-2.14,1.53C17.77,81.64,17,90.57,16.24,99.29c0,0,1.81-1.33,1.9-1.42.56-.54,1.8-1.4,2-2.23,2.16-8.54,6.62-17.09,13.49-22.77l-.72,0A105.88,105.88,0,0,1,22.65,83.49l1.62-1A52.31,52.31,0,0,1,31.43,63L27.7,66.2c-6.65,12.14-7.22,26.29-11.07,39.35l3.87-3.49a27.9,27.9,0,0,0,.57-4.27,4.69,4.69,0,0,0-.25-2.44c-.9-1.42-3.75,2.2-4.29,2.86-1.27,1.57-1.44,3.67-1.54,5.62a32.39,32.39,0,0,0,.19,5.21c.1.84,0,.8.58.6A7.18,7.18,0,0,0,18,107.8a28.36,28.36,0,0,0,2.06-2.18c1.16-1.36,2.24-2.79,3.3-4.23,3.32-4.57,6.54-9.2,9.71-13.87q5.43-8,10.68-16.14L40,74.63c-2.43,6.92-6.67,13.06-10.19,19.44-4.37,8-6.69,16.87-9,25.62l3.9-3.62c.16-4.4-.14-8.81-.18-13.19S24.38,93.69,26,89.6c.14-.34-.86.41-.94.47a18.54,18.54,0,0,0-2.17,2.08c2.12-2.36,1.28-.62.21-1a1.34,1.34,0,0,1-.8-.83c-.59-1.22-.32-3-.09-4.22a30.69,30.69,0,0,1,7.06-13.94l-3.46,2.92a124,124,0,0,0-11.58,26.66c-.11.37,1.5-.94,1.62-1a8.15,8.15,0,0,0,2.26-2.45L28.56,71.14c.13-.35-1.51.94-1.62,1a10.29,10.29,0,0,0-2.26,2.44,178.13,178.13,0,0,0-12.84,29.32c-.13.36,1.51-.94,1.61-1a8.23,8.23,0,0,0,2.26-2.44A92,92,0,0,1,28.63,77.79l-3.75,3.32C20,95.39,16,110.5,14.65,125.57c0,0,1.8-1.32,1.9-1.41.49-.47,1.9-1.48,2-2.23a83.55,83.55,0,0,1,6.57-23.07,131,131,0,0,1,6.22-11.63l7.92-14.15c.18-.32-1.14.62-1.13.62A41.32,41.32,0,0,0,24.61,93.19C22.23,100.82,22,109,22.42,116.93l1.9-1.41a7.69,7.69,0,0,0,2-2.23A194.5,194.5,0,0,1,44.45,79l-3.58,3a87.4,87.4,0,0,0-14.47,44.7L30.33,123c-.35-7.42,2-14.48,4.53-21.3,2.73-7.4,5.47-14.92,10.06-21.4.47-.68-.33-.14-.56,0A15.8,15.8,0,0,0,42,82.52c-10.11,10.63-19.87,24.74-15.83,40.17a13,13,0,0,0,1.89-1.4c.55-.52,1.84-1.44,2-2.23A149.43,149.43,0,0,1,41.1,86l-3.88,3.49C31.88,101.35,26.46,113.69,26.7,127l1.9-1.41a7.69,7.69,0,0,0,2-2.23c1.7-4.39,1.61-9.12,2.33-13.73a72.07,72.07,0,0,1,3.34-12.42c3-8.71,6.88-17.08,10-25.74.14-.35-1.5,1-1.6,1A7.85,7.85,0,0,0,42.39,75Z"/><path class="cls-7" d="M336.46,72.51,340,84l-15,60.79c-45-12.26-103.93-22.5-103.93-22.5l13.73-59.89,7.82-7.06L287.3,77.05Z"/><path class="cls-8" d="M288.57,71.75s-15.33-9.87-46-16.42L230.75,112s19.62,2.63,44.1,16.6Z"/><path class="cls-8" d="M288.57,71.75s17.49-6.92,47.89.76l-15.55,58.15s-17-5.61-46.06-2Z"/><path class="cls-2" d="M336.46,71.26a109.15,109.15,0,0,0-31.31-3.54,61.85,61.85,0,0,0-15.36,2.37,6.19,6.19,0,0,1-1.1.37c-.24,0,.1.08-.22,0a24.74,24.74,0,0,1-3.08-1.74,130.54,130.54,0,0,0-17.79-7.64q-7.29-2.56-14.77-4.53-4.4-1.17-8.84-2.14c-.6-.13-1.14-.39-1.65-.11a6.8,6.8,0,0,0-1.06.95c-2.08,1.88-4.21,3.72-6.25,5.65a3,3,0,0,0-.72,1.74l-6.89,30.05L221,120.89l-.11.51c-.07.31-.28,2,.19,2.13,7.56,1.32,15.09,2.74,22.62,4.2,16.89,3.26,33.75,6.76,50.51,10.63,10.31,2.37,20.59,4.89,30.8,7.67.11,0,.19-.36.19-.37l6.92-28,8-32.32c.45-1.83-.23-3.43-.76-5.16l-2.71-8.78c-.16-.52-.36.34-.38.45a4,4,0,0,0,.1,1.71l3.54,11.48-.05-2-5.1,20.61-8.09,32.68-1.86,7.49.2-.36c-18.11-4.92-36.42-9.09-54.78-12.95q-20.67-4.35-41.45-8.16c-2.56-.47-5.13-.94-7.7-1.39l.2,2.14,5.45-23.78,7.56-33a25.82,25.82,0,0,0,.68-3,.94.94,0,0,1,0-.16c-.27.63.15.08.34-.1l2.9-2.61,3.36-3a5.14,5.14,0,0,1,.95-.86c.64-.27,2.1.37,2.87.54q8.3,1.88,16.42,4.43a148.28,148.28,0,0,1,20.95,8.22c1.63.8,3.23,1.63,4.8,2.54.41.23.77.57,1.2.55a5.55,5.55,0,0,0,1.17-.39c.74-.22,1.49-.42,2.24-.6A60.81,60.81,0,0,1,300,70.62a97.13,97.13,0,0,1,27.49,1.2c3,.54,6,1.19,9,1.94C336.67,73.81,337,71.39,336.46,71.26Z"/><path class="cls-2" d="M324.05,69.16,320.9,82.47l-.46,1.91c0,.2-.09,2.26.2,2.14l1.75-.72,1.23-.5c.1,0,.58-.21.47-.24.16,0,.38.38.5.49l1,1L327,87.86c.17.16.24-.24.26-.32l3.65-13.43.53-1.93c.08-.32.27-2-.2-2.14-2.31-.49-4.61-.9-6.94-1.24-.3,0-.5,2.43,0,2.5,2.33.34,4.63.75,6.94,1.24L331,70.41l-3.65,13.42-.52,1.94.26-.32-2.87-2.81-.07,0L320.64,84l.19,2.13L324,72.85l.45-1.92a3.92,3.92,0,0,0,0-1.77C324.33,68.76,324.16,68.7,324.05,69.16Z"/><path class="cls-2" d="M240,56.63l-4.23,19.2L229,106.44l-1.56,7c-.06.3-.27,2.06.2,2.13a169.2,169.2,0,0,1,35.25,9.2,55.07,55.07,0,0,1,11.8,6.06c.19.13.62-2.07.14-2.41-6.54-4.65-14.47-7.34-22.1-9.6a209.23,209.23,0,0,0-20.81-5c-1.42-.27-2.85-.53-4.28-.76l.19,2.14,4.23-19.2,6.74-30.61,1.55-7a3.23,3.23,0,0,0,0-1.77c-.14-.34-.27-.52-.38,0Z"/><path class="cls-2" d="M237,59.27l-4.22,19.41-6.73,31-1.55,7.14c-.06.28-.27,2.09.19,2.14,4.24.38,8.46,1,12.66,1.64a147,147,0,0,1,24.78,5.81,47.31,47.31,0,0,1,12.08,5.78c.19.13.62-2.07.14-2.41-6.64-4.71-15-7-22.79-8.89a200.46,200.46,0,0,0-22.3-3.93c-1.52-.19-3-.37-4.57-.5l.2,2.13,4.21-19.41,6.73-31L237.43,61a3.43,3.43,0,0,0,0-1.77c-.14-.34-.28-.52-.39,0Z"/><path class="cls-2" d="M234.91,61.19l-4.22,19.87L224,112.68l-1.53,7.2c-.05.26-.25,2.13.2,2.14,4,.07,8,.42,12,.84a138.5,138.5,0,0,1,25.14,4.83,71,71,0,0,1,14.22,5.82s.6-2.17,0-2.5c-8-4.44-17-6.94-25.9-8.66a166.94,166.94,0,0,0-21.25-2.65c-1.39-.08-2.78-.16-4.16-.18l.19,2.13,4.23-19.87,6.72-31.62L235.3,63a3.32,3.32,0,0,0,0-1.77c-.14-.34-.27-.52-.39,0Z"/><path class="cls-2" d="M288.38,70.87l-4.65,19.25-7.37,30.57-1.7,7a3.32,3.32,0,0,0,0,1.77c.14.35.26.51.39,0l4.64-19.25,7.38-30.57,1.7-7a3.32,3.32,0,0,0,0-1.77c-.15-.35-.27-.51-.39,0Z"/><path class="cls-2" d="M337.09,74.31l-4.44,20.12-7.11,32.2L323.91,134l.2-.37a170.65,170.65,0,0,0-36.44-5.92,56.17,56.17,0,0,0-12.89.71c-.51.1-.27,2.55,0,2.5,7.88-1.52,16.22-.73,24.11.3,7.09.92,14.12,2.27,21.07,3.89,1.39.33,2.77.66,4.15,1,.11,0,.19-.35.19-.37l4.44-20.12,7.12-32.2,1.62-7.36a3.39,3.39,0,0,0,0-1.76c-.14-.35-.27-.53-.39,0Z"/><path class="cls-2" d="M338.52,78.94,334,99l-7.17,31.93-1.64,7.29.19-.37c-4.09-1.38-8.26-2.56-12.44-3.66a150.15,150.15,0,0,0-25.47-4.82,48,48,0,0,0-13.17.34c-.51.1-.27,2.55,0,2.5,8-1.55,16.65-.21,24.6,1.27A210.2,210.2,0,0,1,321,139c1.47.44,2.94.89,4.39,1.38.11,0,.2-.36.2-.36l4.5-20L337.27,88l1.64-7.29a3.43,3.43,0,0,0,0-1.77c-.14-.35-.27-.52-.39,0Z"/><path class="cls-2" d="M339.42,81.86l-4.59,20.32-7.32,32.34-1.66,7.38.19-.37c-3.75-1.56-7.61-2.88-11.48-4.11a145.16,145.16,0,0,0-25.1-5.85,73.27,73.27,0,0,0-15.52-.56c-.45,0-.35,2.52,0,2.5,9.18-.75,18.48.68,27.41,2.76a173.5,173.5,0,0,1,20.7,6.22c1.34.49,2.68,1,4,1.54.11,0,.2-.37.2-.37l4.59-20.32L338.14,91l1.67-7.38a3.39,3.39,0,0,0,0-1.76c-.14-.35-.27-.52-.39,0Z"/></g></g></svg>