<?xml version="1.0" encoding="utf-8"?>
<!-- Generator: Adobe Illustrator 24.2.3, SVG Export Plug-In . SVG Version: 6.00 Build 0)  -->
<svg version="1.1" id="圖層_1" xmlns="http://www.w3.org/2000/svg" xmlns:xlink="http://www.w3.org/1999/xlink" x="0px" y="0px"
	 viewBox="0 0 98.7 54.4" style="enable-background:new 0 0 98.7 54.4;" xml:space="preserve">
<style type="text/css">
	.st0{fill:#E2E1D1;stroke:#90AB8D;stroke-width:0.5;stroke-miterlimit:10;}
	.st1{fill:#D2DDD3;stroke:#90AB8D;stroke-width:0.5;stroke-miterlimit:10;}
</style>
<g id="圖層_2_1_">
	<g id="圖層_1-2">
		<path class="st0" d="M82,23.2c-0.3,0.6-1,0.9-1.6,0.7l0,0c-0.9-0.4-1.1-2-2-1.8c-1.6,2.3-0.9,5.5-1.6,8.2
			c-0.2,0.7-0.5,1.4-1.1,1.9c-0.5,0.5-1.3,0.7-2,0.4c-0.7-0.4-1.2-1.2-1.3-2c-0.1-0.8-0.3-1.6-0.6-2.3c-0.3-0.8-1.2-1.2-2-1
			c-0.4,0.2-0.9,0.7-1.3,0.5c-0.3-0.1-0.4-0.5-0.4-0.8c-0.2-1.8-0.5-3.6-0.7-5.5c-0.1-0.4-0.2-0.9-0.6-0.9c-0.2,0-0.4,0.1-0.5,0.2
			l-4.5,3.3c-0.5,0.4-1,0.7-1.6,0.8c-0.6,0.1-1.2-0.2-1.5-0.7c-0.1-0.5-0.1-1,0.2-1.5c0.3-0.8,0.6-1.5,0.9-2.2l0,0
			c0,0,0-0.1,0.1-0.1l1-1.5c0.5-0.7,1-1.5,1.5-2.1l0.5-0.7c1-1.3,2-2.6,3.1-3.8l0.4-0.5c0.2-0.2,0.4-0.5,0.6-0.6
			c0.1-0.1,0.3-0.3,0.4-0.4l0.2-0.2c0.2-0.2,0.4-0.3,0.6-0.5l0.4-0.3c0.3-0.2,0.7-0.5,1.1-0.6C70,9.1,70.3,9,70.6,9
			c1.4-0.1,3.3,1.4,5.5,3.9c2.2,2.6,4.3,5.4,6.2,8.3v0.2C82.3,22,82.2,22.7,82,23.2z"/>
		<path class="st1" d="M71.4,45.8h25.2c0,0-7.2-13.9-14.3-24.6v0.2c0.1,0.6,0,1.3-0.3,1.9s-1,0.9-1.6,0.7l0,0c-0.9-0.4-1.1-2-2-1.8
			c-1.6,2.3-0.9,5.5-1.6,8.2c-0.2,0.7-0.5,1.4-1.1,1.9c-0.5,0.5-1.3,0.7-2,0.4c-0.7-0.4-1.2-1.2-1.3-2c-0.1-0.8-0.3-1.6-0.6-2.3
			c-0.3-0.8-1.2-1.2-2-1c-0.4,0.2-0.9,0.7-1.3,0.5c-0.3-0.1-0.4-0.5-0.4-0.8c-0.2-1.8-0.5-3.6-0.7-5.5c-0.1-0.4-0.2-0.9-0.6-0.9
			c-0.2,0-0.4,0.1-0.5,0.2l-4.5,3.3c-0.5,0.4-1,0.7-1.6,0.8c-0.6,0.1-1.2-0.2-1.5-0.7c-0.1-0.5-0.1-1,0.2-1.5
			c0.3-0.8,0.6-1.5,0.9-2.2c-0.3,0.5-0.6,1-0.9,1.5c-0.2,0.3-0.3,0.5-0.5,0.8l-0.5,0.8c4.5,7.2,8.7,14.6,12.7,22.1
			C70.6,45.8,71.4,45.8,71.4,45.8z"/>
		<path class="st0" d="M79.8,31.4c-0.6,0-1,0.4-1.1,0.9c0,0.6,0.4,1,0.9,1.1c0.5,0.1,1-0.4,1.1-0.9C80.8,31.9,80.4,31.4,79.8,31.4z"
			/>
		<path class="st0" d="M86.5,29.9c0-0.2-0.1-0.3-0.2-0.5l-0.2-0.2C86,29.1,85.8,29,85.6,29h-0.2c-0.1,0-0.3,0-0.4,0.1
			c-0.1,0-0.2,0.1-0.3,0.2c-0.1,0.1-0.2,0.2-0.2,0.3c-0.1,0.1-0.1,0.2-0.1,0.4v0.3c0,0.2,0.1,0.3,0.2,0.5l0.2,0.2
			c0.1,0.1,0.3,0.2,0.5,0.2h0.2c0.1,0,0.3,0,0.4-0.1c0.1,0,0.2-0.1,0.3-0.2c0.1-0.1,0.2-0.2,0.2-0.3c0.1-0.1,0.1-0.2,0.1-0.4V29.9z"
			/>
		<path class="st0" d="M85.5,33.4c-0.6,0-1,0.4-1.1,0.9c0,0.6,0.4,1,0.9,1.1l0,0c0.6,0,1-0.4,1.1-0.9C86.5,33.9,86.1,33.4,85.5,33.4
			z"/>
		<path class="st0" d="M51.6,21.8c-0.4,0.8-1.3,1.3-2.2,1l0,0c-1.2-0.5-1.5-2.7-2.8-2.5c-2.1,3.2-1.2,7.4-2.2,11.1
			c-0.2,1-0.7,1.9-1.4,2.6c-0.7,0.7-1.8,0.9-2.8,0.6c-1-0.6-1.6-1.6-1.7-2.7c-0.1-1.1-0.3-2.2-0.7-3.2c-0.4-1.1-1.6-1.7-2.7-1.3
			c-0.6,0.3-1.2,1-1.8,0.7c-0.4-0.2-0.5-0.7-0.6-1.1c-0.3-2.5-0.6-4.9-1-7.4c-0.1-0.5-0.3-1.2-0.8-1.2c-0.3,0-0.5,0.1-0.7,0.3
			l-6,4.5c-0.6,0.5-1.3,0.9-2.1,1.1c-0.8,0.2-1.7-0.2-2.1-0.9c-0.2-0.7-0.1-1.4,0.2-2c0.4-1,0.8-2,1.2-3l0,0l0.1-0.1l1.4-2.1
			c0.7-1,1.3-2,2-2.9c0.2-0.3,0.4-0.6,0.7-0.9c1.3-1.8,2.7-3.6,4.2-5.2C30,7,30.2,6.7,30.4,6.5s0.6-0.6,0.9-0.9
			c0.2-0.2,0.4-0.4,0.6-0.5l0.3-0.2c0.3-0.2,0.5-0.5,0.8-0.6l0.6-0.5C34.1,3.5,34.5,3,35,2.7c0.2-0.4,0.7-0.3,1.1-0.3
			c1.9-0.1,4.5,2,7.5,5.3c3,3.6,5.8,7.3,8.3,11.3v0.2C52.1,20.1,51.9,21,51.6,21.8z"/>
		<path class="st1" d="M52,19v0.2c0.1,0.9,0,1.8-0.4,2.6c-0.4,0.8-1.3,1.3-2.2,1l0,0c-1.2-0.5-1.5-2.7-2.8-2.5
			c-2.1,3.2-1.2,7.4-2.2,11.1c-0.2,1-0.7,1.9-1.4,2.6s-1.8,0.9-2.8,0.6c-1-0.6-1.6-1.6-1.7-2.7c-0.1-1.1-0.3-2.2-0.7-3.2
			c-0.4-1.1-1.6-1.7-2.7-1.3c-0.6,0.3-1.2,1-1.8,0.7c-0.4-0.2-0.5-0.7-0.6-1.1c-0.3-2.5-0.6-4.9-1-7.4c-0.1-0.5-0.3-1.2-0.8-1.2
			c-0.3,0-0.5,0.1-0.7,0.3l-6,4.5c-0.6,0.5-1.3,0.9-2.1,1.1c-0.8,0.2-1.7-0.2-2.1-0.9c-0.2-0.7-0.1-1.4,0.2-2c0.4-1,0.8-2,1.2-3
			l-1.3,2c-0.2,0.3-0.5,0.7-0.7,1.1c-1.1,1.8-2.3,3.6-3.4,5.5c-0.3,0.5-0.6,1-0.9,1.5c-0.9,1.5-1.7,2.9-2.5,4.3
			c-0.4,0.6-0.7,1.3-1.1,1.9c-0.3,0.6-0.7,1.2-1,1.8c-2.2,4-4.2,7.6-5.6,10.4c-0.2,0.4-0.4,0.8-0.6,1.2c-1.3,2.6-2.1,4.3-2.1,4.3
			h69.2C71.4,52.4,61.6,33.6,52,19z"/>
		<path class="st0" d="M50.3,28.1c-0.1-0.1-0.2-0.2-0.3-0.3c-0.1-0.1-0.2-0.1-0.4-0.1c-0.1,0-0.3,0-0.4,0l-0.3,0.1
			c-0.2,0.1-0.3,0.2-0.4,0.4l0,0.2c0,0.2,0,0.4,0,0.5v0.2c0,0.1,0.1,0.3,0.2,0.4c0.1,0.1,0.2,0.2,0.3,0.3c0.1,0.1,0.2,0.1,0.4,0.1
			c0.1,0,0.3,0,0.4,0l0.3-0.1c0.2-0.1,0.3-0.2,0.4-0.4l0.1-0.2c0-0.2,0-0.4,0-0.5v-0.2C50.5,28.3,50.4,28.2,50.3,28.1z"/>
		<path class="st0" d="M55.8,33.9c-0.1-0.1-0.2-0.2-0.3-0.3l-0.2-0.1c-0.2-0.1-0.4-0.1-0.5,0l-0.3,0.1c-0.2,0.1-0.3,0.2-0.4,0.4
			L54,34.2c-0.1,0.2-0.2,0.5-0.1,0.8c0,0.1,0.1,0.3,0.2,0.4c0.1,0.1,0.2,0.2,0.3,0.3l0.2,0.1c0.2,0.1,0.4,0.1,0.5,0l0.3-0.1
			c0.2-0.1,0.3-0.2,0.4-0.4l0.2-0.2c0.1-0.1,0.1-0.3,0.1-0.4c0-0.1,0-0.3,0-0.4C56,34.2,55.9,34.1,55.8,33.9z"/>
		<path class="st0" d="M49,33.1c-0.1-0.1-0.2-0.2-0.3-0.3s-0.2-0.1-0.4-0.1c-0.1,0-0.3,0-0.4,0l-0.3,0.1c-0.2,0.1-0.3,0.2-0.4,0.4
			v0.3c-0.1,0.2-0.1,0.4,0,0.5l0.1,0.4c0,0.1,0.1,0.3,0.2,0.4c0.2,0.2,0.4,0.4,0.7,0.4c0.1,0,0.3,0,0.4,0l0.3-0.1
			c0.2-0.1,0.3-0.2,0.4-0.4l0.1-0.2c0-0.2,0-0.4,0-0.5l-0.2-0.6C49.2,33.3,49.1,33.2,49,33.1z"/>
		<path class="st0" d="M46.9,39.8c-0.1-0.1-0.2-0.2-0.3-0.3c-0.3-0.1-0.5-0.1-0.8-0.1l-0.3,0.1c-0.2,0.1-0.3,0.2-0.4,0.4L45,40.1
			c-0.1,0.2-0.1,0.4,0,0.5l0.1,0.4c0,0.1,0.1,0.3,0.2,0.4c0.1,0.1,0.2,0.2,0.3,0.3s0.2,0.1,0.4,0.1c0.1,0,0.3,0,0.4,0l0.3-0.1
			c0.2-0.1,0.3-0.2,0.4-0.4l0.1-0.2c0-0.2,0-0.4,0-0.5l-0.1-0.4C47,40.1,47,39.9,46.9,39.8z"/>
		<path class="st0" d="M52.6,39.5c-0.6,0.1-0.9,0.7-0.7,1.3c0.1,0.6,0.7,0.9,1.3,0.7s0.9-0.7,0.7-1.3C53.7,39.7,53.2,39.4,52.6,39.5
			z"/>
		<path class="st0" d="M60.9,38.9c-0.1-0.1-0.2-0.2-0.3-0.3s-0.2-0.1-0.4-0.1c-0.1,0-0.3,0-0.4,0l-0.3,0.1c-0.2,0.1-0.3,0.2-0.4,0.4
			L59,39.2c0,0.2,0,0.4,0,0.5v0.2c0,0.1,0.1,0.3,0.2,0.4c0.1,0.1,0.2,0.2,0.3,0.3c0.2,0.1,0.5,0.2,0.8,0.1l0.3-0.1
			c0.2-0.1,0.3-0.2,0.4-0.4l0.1-0.2c0-0.2,0-0.4,0-0.5v-0.2C61,39.1,61,39,60.9,38.9z"/>
		<path class="st0" d="M64.9,42.9c-0.1-0.1-0.2-0.2-0.3-0.3s-0.2-0.1-0.4-0.1c-0.1,0-0.3,0-0.4,0l-0.3,0.1c-0.2,0.1-0.3,0.2-0.4,0.4
			L63,43.2c0,0.2,0,0.4,0,0.5v0.2c0,0.1,0.1,0.3,0.2,0.4c0.1,0.1,0.2,0.2,0.3,0.3s0.2,0.1,0.4,0.1c0.1,0,0.3,0,0.4,0l0.3-0.1
			c0.2-0.1,0.3-0.2,0.4-0.4l0.1-0.2c0.1-0.2,0.1-0.4,0-0.5v-0.2C65.1,43.1,65,43,64.9,42.9z"/>
	</g>
</g>
</svg>
