<?xml version="1.0" encoding="utf-8"?>
<!-- Generator: Adobe Illustrator 24.2.3, SVG Export Plug-In . SVG Version: 6.00 Build 0)  -->
<svg version="1.1" id="圖層_1" xmlns="http://www.w3.org/2000/svg" xmlns:xlink="http://www.w3.org/1999/xlink" x="0px" y="0px"
	 viewBox="0 0 36 36" style="enable-background:new 0 0 36 36;" xml:space="preserve">
<style type="text/css">
	.st0{fill:#647E67;}
</style>
<g id="圖層_2_1_">
	<g id="icon">
		<path class="st0" d="M20.2,25.6c0.3,0.3,0.5,0.7,0.5,1.1C20.6,26.3,20.5,25.9,20.2,25.6z"/>
		<path class="st0" d="M20.7,9c0-0.4-0.2-0.8-0.5-1.1C20.5,8.3,20.7,8.6,20.7,9z"/>
		<path class="st0" d="M30.7,5.3C27.5,2,23,0,18,0C8.1,0,0,8,0,18c0,10,8.1,18,18,18c10,0,18-8,18-18C36,13,34,8.5,30.7,5.3z
			 M29.6,18.6c0,1-0.8,1.7-1.7,1.7H14.6l5.5,5.2c0.1,0.1,0.1,0.1,0.1,0.1c0.3,0.3,0.4,0.7,0.5,1.1c0,0.1,0,0.2,0,0.3
			c0,0.4-0.2,0.8-0.5,1.1c0,0,0,0-0.1,0.1l-0.8,0.8c-0.1,0.1-0.3,0.2-0.4,0.3c-0.1,0-0.1,0.1-0.2,0.1c0,0,0,0,0,0
			c-0.1,0-0.2,0.1-0.3,0.1c-0.2,0-0.4,0-0.7,0c-0.1,0-0.2-0.1-0.3-0.1c0,0,0,0,0,0c-0.1,0-0.1,0-0.2-0.1c-0.1-0.1-0.3-0.2-0.4-0.3
			l-9.6-9.6c-0.6-0.7-0.6-1.7,0-2.5l9.6-9.6C17,7,17.2,6.9,17.3,6.8c0.1,0,0.1-0.1,0.2-0.1c0.1,0,0.1,0,0.2-0.1c0.1,0,0.1,0,0.2,0
			c0.2,0,0.4,0,0.7,0c0.1,0,0.1,0,0.2,0c0.1,0,0.1,0,0.2,0.1c0.1,0,0.1,0,0.2,0.1c0.1,0.1,0.3,0.2,0.4,0.3l0.8,0.8
			C20.2,8,20.2,8,20.2,8c0.3,0.3,0.4,0.7,0.5,1.1c0,0.1,0,0.2,0,0.3c0,0.4-0.2,0.8-0.5,1.1c0,0,0,0-0.1,0.1l-5.5,5.2h13.2
			c1,0,1.7,0.8,1.7,1.7V18.6z"/>
	</g>
</g>
</svg>
