<svg xmlns="http://www.w3.org/2000/svg" viewBox="0 0 448.87 489.51"><defs><style>.cls-1{fill:#484235;}.cls-2{fill:#2b2720;}.cls-3{fill:#e4c15d;}.cls-4{fill:#eeede7;}.cls-5{fill:#fff;}.cls-6{fill:#5a7e65;}.cls-7{fill:#9fa0a0;}.cls-8{fill:#9c962d;}.cls-9{fill:#2a261f;}.cls-10{fill:#b1ae41;}.cls-11{fill:#b73552;}.cls-12{fill:#db4971;}.cls-13{fill:#c46828;}.cls-14{fill:#e38c4f;}.cls-15{fill:#f18a38;}.cls-16{fill:#34394c;}.cls-17{fill:#82a585;}</style></defs><g id="圖層_2" data-name="圖層 2"><g id="圖層_1-2" data-name="圖層 1"><path class="cls-1" d="M432,134.64c-12.52-16.33-33.46-1.84-30.24,13.28,5.42,25.45,1.94,61.75-33,103.16-12.84,15.24-28.92,28.21-47.82,35a80.77,80.77,0,0,1-18,4.32,71.14,71.14,0,0,1-9.34.52c-2.93,0-5.87-.51-8.81-.25h-.39a2.28,2.28,0,0,0-2.58,3.06c.53,2.91,1.63,5.94,4,7.65a13.32,13.32,0,0,0,6,1.9c2.13.32,4.18,1,6.31,1.2,5.5.63,11,1.11,16.55,1.37a167.89,167.89,0,0,0,28.62-.89,113.13,113.13,0,0,0,44.16-14.87,162,162,0,0,0,27.28-21C458.67,228.48,444.55,151,432,134.64Z"/><path class="cls-1" d="M255.49,189.56s25.28-1.4,49.81-11.54c26.45-10.93,65.47-41.88,51.45-49.67-12.46-7-47.26,21.85-95.34,22.85,0,0-10.41,1.14-19.3-1.2v-4.91c-.64-5.27-1.3-10.54-1.89-15.82-.35-3.11.56-10.16-2.63-11.8a3,3,0,0,0-4,1.13,5.44,5.44,0,0,0-.23,2.74c.36,4.47.73,5.47.12,9.76-1.4,9.8,0,12,0,15.86,0,7.47.84,10.31-.16,17.72-1.88,13.94-5.75,35.52-9.8,49-3,9.94-2.39,8-4.2,18.2-1.21,6.81-9.9,22.41-15.4,26.6-4.24,3.22-16.8,11.2-32.2-1.4-13.09-10.71-32.35-55.89-36.9-72.18q-3.75-13.44-6.66-27.09c-.77-3.6-.6-7.61-.89-11.32l-1-13c-.12-1.43-.29-3-1.3-4-.76,2.68,1.61,10.75.06,12.43-1.35,1.48-9.94.65-12.11,1.52-17.39,7-51.81,58.77-54.87,67.16-1.4,3.84-2.81,7.69-4,11.6A154.91,154.91,0,0,0,47.33,283c.33,3.5,2.59,8.47,6.07,8.92,2.42.31,4.52-1.56,6.13-3.39,9.64-10.9,27.16-61.64,29-65,3.33-5.92,5.09-9.12,8.48-13.46,4.34-5.55,17.06-24.9,25.49-18.24,3,2.37,2.73,5.82,2.91,9.16.69,12.72,2,25.42,3.67,38.05,5,37.52,13,78.15,34,110.33,0,0,3.14,11.31,14,41.3s10.59,54.39,9.09,65.33c-.9,6.58-4.24,14.67-2.42,21.3.8,2.85,2.7,4.2,5.7,3.78,5.48-.75,12-2.28,17-4.85,10.29-5.32,10.7-15.39,11.55-25.72,1.46-17.33-.75-74.51,31.92-61.9s54,36.5,59.39,55c1.66,5.63,2.93,11.49,5.13,16.95,2,5,6.93,7.72,12.36,7.67a14.3,14.3,0,0,0,9.44-3.71,23.1,23.1,0,0,0,3.64-4.48c2.14-3.22,3.65-6.52,3.67-10.42,0-3.71,1.2-6.95-.1-10.71-3.76-10.78-25.65-48.09-33.21-62.11s-14.67-26.23-26-64.4c-.48-1.58-.95-3.19-1.41-4.8-1.25-4.19-2.5-8.46-3.73-12.78C269.32,260.77,259.65,223,255.49,189.56Z"/><path class="cls-2" d="M329.89,135.69A260.26,260.26,0,0,1,268.61,166c-1.08.36-.57,5.52,0,5.4a206.34,206.34,0,0,0,27.8-8.14,274.81,274.81,0,0,0,29.31-12.08,87.09,87.09,0,0,0,11.66-6.63l-.32-5.21A138.58,138.58,0,0,1,310.28,158c-8.69,4.78-18,9.24-27.8,11.22-1.1.22-.6,5.51,0,5.4,16.91-3.06,34.18-6.45,48.61-16.35l-.31-5.21A53.22,53.22,0,0,1,300,167.2c-.91.09-.87,5.36,0,5.4,14,.64,27.26-6.85,35.16-18.24.38-.54.81-5.4-.15-5.3l-30,3c-10,1-20.16,2.43-30.28,2.07v5.4a66.21,66.21,0,0,1,11.76-3.66A79.75,79.75,0,0,0,298.08,152c8-3.26,15.74-7.19,24-9.78,1.2-.38.39-5.53,0-5.41-8.29,2.6-16,6.52-24,9.78a76.33,76.33,0,0,1-11.32,3.78,67.21,67.21,0,0,0-12,3.72c-.88.38-.9,5.37,0,5.4,10.12.36,20.23-1,30.28-2.06l30-3.06-.16-5.31C327,160.43,314,167.78,300,167.1v5.4a53.69,53.69,0,0,0,31.05-14.35c.67-.62.47-2.52.42-3.33,0-.32-.14-2.29-.73-1.88-14.31,9.81-31.54,13.12-48.3,16.16v5.4c10-2,19.46-6.59,28.3-11.49a140.19,140.19,0,0,0,26.59-18.55c.66-.61.46-2.53.41-3.33,0-.32-.14-2.3-.73-1.88-7.28,5.08-15.71,8.67-23.88,12.07A314.26,314.26,0,0,1,283,162.17c-4.74,1.43-9.54,2.76-14.4,3.74v5.4a261.41,261.41,0,0,0,61.59-30.46c.68-.45.46-2.64.42-3.32,0-.33-.13-2.29-.73-1.89Z"/><path class="cls-2" d="M209.59,458.74c-1.82-4.37-.66-8.67.73-13A95.34,95.34,0,0,0,213.94,433c1.43-8.33.57-17.08,4.95-24.65l-.46-4.94c-5.9,17-7,34.75-6.29,52.61l.73-3.33c-2.86-3.09-4.1-7-4.86-11.11a59.62,59.62,0,0,1-1-13,67.37,67.37,0,0,1,6.36-25.85l-.6-4.66c-3.42,10.14-4.29,21.18-5.83,31.73q-2.3,15.57-4.58,31.14a9,9,0,0,0,.09,3.27c.09.34.48,1.27.72.43,4.41-15.19,8.31-30.52,12.71-45.7a9,9,0,0,0,.25-3.38c0-.16-.41-2.1-.71-1.56-6.8,12.52-12.69,25.85-15.13,40l.72-.42c-3.06-9.76-2.4-20.54-1-30.53a114.64,114.64,0,0,1,8.33-30.5l-.72-4.24c-2.72,9.73-4.77,19.68-6.74,29.59-2.27,11.45-5.08,23.64-2.2,35.22.2.81.42,1,.78.21a7.07,7.07,0,0,0,.15-3.48c-1.36-8.44-2.5-16.92-3.14-25.44-.62-8.36-1-17,.61-25.3l-1-2.63c-.57,9.11-1.09,18.23-2,27.3s-2.11,18.29-4.88,27l.89,2.34c.15-9,1.45-18.06,1.2-27.1a47.93,47.93,0,0,0-1.8-12.59c-1.48-4.91-4.05-9.43-6.58-13.87l-.32,5.22c2.94,3,6,6,7.81,9.86s2.56,8.26,3.21,12.49a123.73,123.73,0,0,1,1.12,27.46,6.63,6.63,0,0,0,.22,2.84c.17.39.36.88.66.21,3.43-7.88,6.42-16,7.17-24.64a59.52,59.52,0,0,0-.54-13.2c-.57-4.19-.89-8,1.85-11.56l-.73-1.89q.78,26,3.32,52c.06.64.21,1.68.82,1s.29-2.87.21-3.7q-2.46-25.28-3.21-50.69c0-.12-.29-2.46-.73-1.89-5.34,6.91-2.51,16.23-2,24.08.54,8.93-3.24,17.85-6.73,25.87l.87,3.06a142.3,142.3,0,0,0-1.21-31.61c-.71-4.67-1.46-9.5-3.37-13.86s-5.09-7.67-8.35-11c-.54-.53-.72,1.72-.73,1.89a6.21,6.21,0,0,0,.41,3.33,68.08,68.08,0,0,1,6.11,12.7,36,36,0,0,1,1.34,11.06c-.05,8.18-1.09,16.33-1.22,24.52,0,.26.46,3.68.89,2.33,2.92-9.17,4.24-18.82,5.25-28.36,1-9.7,1.61-19.44,2.21-29.17,0-.67.24-2.46-.27-3.05s-.58-.28-.72.42c-1.88,9.44-1.67,19.27-1,28.83s1.86,19,3.38,28.46l.94-3.28c-1.5-6-.61-12.12.43-18.14.72-4.16,1.53-8.31,2.38-12.46,1.81-8.9,3.68-17.82,6.13-26.57a8.18,8.18,0,0,0,0-3.55c-.08-.39-.36-1.62-.77-.7A116.86,116.86,0,0,0,200,414a121.88,121.88,0,0,0-2.09,29.71,61.19,61.19,0,0,0,2.5,14.47c.25.81.65,0,.72-.42,2.35-13.62,8.05-26.51,14.61-38.58l-.46-4.94c-4.4,15.19-8.3,30.51-12.71,45.7l.82,3.7q2.22-14.94,4.39-29.89l2.13-14.49a95.57,95.57,0,0,1,3.46-16.56,8.35,8.35,0,0,0,.21-3.69c-.06-.41-.35-2-.81-1a77.42,77.42,0,0,0-7,31.11,79.4,79.4,0,0,0,1.29,15.92c.84,4.6,2.2,9.3,5.44,12.81.56.61.75-3.07.74-3.32-.63-15.83.51-31.44,5.74-46.5a8.19,8.19,0,0,0,.24-3.38c0-.16-.38-2.1-.7-1.56a35.5,35.5,0,0,0-4.24,13.75c-.62,5.13-.64,10.33-1.85,15.37-1.29,5.36-3.63,10.4-4.57,15.85-.88,5-.91,10.54,1.08,15.33.43,1,.77-.65.81-1a7.61,7.61,0,0,0-.21-3.7Z"/><path class="cls-2" d="M336.55,427.46a28.12,28.12,0,0,1-9.63-9.37c-2.77-4.6-3.59-10.28-5.75-15.17-3.65-8.26-10.6-15.22-11.7-24.48l-.82,3.7c5.08,16,14,29.95,24.48,43l.16-5.31c-4.62-.86-8.29-3.81-11.59-7a69.68,69.68,0,0,1-19.86-35.78l-.72,4.24c2.93,9,8,17.24,12.56,25.49,4.41,8,8.87,16.06,13.29,24.1,2.19,4,4.38,8,6.53,12,.33.6.71-1.57.71-1.57a7.86,7.86,0,0,0-.25-3.37c-6.35-16.91-14.45-33.11-20.79-50-.3-.8-.62,0-.73.42a8.57,8.57,0,0,0-.09,3.27,144.37,144.37,0,0,0,13.81,43.79l.45-4.94c-6.93-5-12.29-12.18-16.94-19.29a145.93,145.93,0,0,1-13.47-26A90.76,90.76,0,0,1,292,372l-.72,4.25c3.53,9.17,7.7,18.13,11.92,27,4.45,9.39,8.77,20,17,26.73.59.48.72-1.66.73-1.89.06-.78.24-2.69-.41-3.33-6.29-6.13-12.41-12.45-18.14-19.12s-11.44-13.8-15.24-21.8l-.46,4.94q8.34,12.87,16,26.18c5.09,8.88,10.14,18,13.49,27.69l.46-4.93c-5.9-8.25-10.39-17.36-16.11-25.71a38.32,38.32,0,0,0-8.7-9.57,67.34,67.34,0,0,0-12.87-6.86V401c4.54.68,9.11,1.44,13.1,3.86s7.21,5.69,10.38,8.91a132,132,0,0,1,17.21,21.65c.35.56.67-1.25.67-1.24a9,9,0,0,0-.1-3.28c-1.8-7.62-3.93-15.29-7.87-22.11a48.16,48.16,0,0,0-7.41-9.36c-2.68-2.76-7-6.75-6.92-10.95l-.76,2.61q15.66,19.83,32.6,38.59c.51.56.73-1.73.74-1.89,0-.84.22-2.61-.42-3.32q-16.94-18.75-32.6-38.6c-.47-.59-.75,2.54-.75,2.61a18.59,18.59,0,0,0,3.92,11.85c2.77,3.61,6.35,6.49,9,10.19,5.16,7.12,7.61,15.76,9.6,24.2l.58-4.51a131.41,131.41,0,0,0-17.65-22.1c-3.12-3.13-6.36-6.33-10.16-8.62-4-2.42-8.6-3.21-13.19-3.89-.67-.11-1,5,0,5.4,4.57,2,9.24,4.05,13.21,7.13a40.37,40.37,0,0,1,8.3,9.48c5.56,8.24,10,17.16,15.8,25.26.41.57.7-1.53.7-1.57a8.18,8.18,0,0,0-.24-3.37c-3.35-9.71-8.46-18.86-13.51-27.76-5.13-9.06-10.57-17.93-16.24-26.66-.38-.59-.7,1.54-.7,1.56a7.17,7.17,0,0,0,.24,3.38c3.82,8,9.41,15.17,15.16,21.9s12.08,13.3,18.51,19.57l.32-5.22c-8.2-6.73-12.48-17.26-16.92-26.63-4.13-8.73-8.23-17.53-11.7-26.55-.37-1-.7.35-.77.7a8.84,8.84,0,0,0,0,3.55,114.73,114.73,0,0,0,9.46,25.17,131.19,131.19,0,0,0,15.7,24.92,54.58,54.58,0,0,0,10,9.8c.69.5.77-4.32.46-4.94a138.12,138.12,0,0,1-13.38-41.84l-.78,3.72c6.34,16.91,14.44,33.11,20.79,50l.46-4.93c-5.18-9.68-10.53-19.26-15.83-28.87q-3.93-7.1-7.8-14.22c-3.15-5.82-6.41-11.65-8.47-18-.33-1-.71.4-.77.7a9,9,0,0,0,.05,3.55A73.3,73.3,0,0,0,312.05,407,69.13,69.13,0,0,0,321.3,418c3.38,3.25,7.19,6.31,11.91,7.19.86.15.59-4.77.16-5.31C323,407,314.19,393.25,309.17,377.42c-.26-.84-.63.08-.72.42a9.51,9.51,0,0,0-.09,3.28,34.94,34.94,0,0,0,4.6,13.33c2.53,4.35,5.53,8.43,7.53,13.11,2.22,5,3.11,10.74,5.91,15.5a28.75,28.75,0,0,0,10.09,9.73c.39.23.59-2.51.59-2.71,0-.69.11-2.28-.59-2.7Z"/><path class="cls-2" d="M397.55,224.69c9.08-6.51,10.67-18.57,12.25-28.81a239.36,239.36,0,0,0,2.69-41l-1.11,1.36a123.27,123.27,0,0,1-5.31,54.4l.72,4.24q4.62-26.85,10.78-53.4l-.93-.55c2.1,21.39,2.71,43.28-3.41,64.11l.72,4.25a313.9,313.9,0,0,0,8.29-64.1l-.89,2.33c7.58,22.08,5.11,46-5.73,66.55a95.89,95.89,0,0,1-11.08,16.49c-.63.76-.47,2.42-.41,3.33,0,.22.28,2.4.73,1.88,16.25-18.8,22.61-43.16,25.42-67.34.88-7.55,1.47-15.13,2.06-22.7l-1.09.64c1.46,11.38,2.63,23,1,34.41C430.57,213,425,223.48,419.05,234q-5.13,9-10.25,18.09l.45,4.94c2.92-6.52,7.18-12.28,11-18.25a120.28,120.28,0,0,0,9.42-17.59,115.17,115.17,0,0,0,9.08-38.51l-1.17-.72c0,24.79-8.29,49-22,69.6a5.83,5.83,0,0,0-.41,3.32c0,.24.25,2.39.73,1.89a95.44,95.44,0,0,0,22.18-37.46c4.44-14.5,6-30.94.4-45.34-3.18-8.22-8.11-15.61-13-22.9-.37-.56-.67,1.24-.67,1.24a8.56,8.56,0,0,0,.09,3.27,104.89,104.89,0,0,1-2.27,63.5l.87,3c1.66-26.32,3.15-52.91-1.75-79-.1-.52-.23-.91-.65-.56s-.38,2-.37,2.47c.56,25.7,1.14,51.52-1.9,77.1l1.11,1.36a386.4,386.4,0,0,0-8.73-76.61c-.15-.7-.28-.93-.72-.42s-.33,2.35-.28,3c.92,10.64,3.27,21.09,4.42,31.7a62.14,62.14,0,0,1-3.95,30.14,101,101,0,0,1-8.51,16.42,6,6,0,0,0-.41,3.32c0,.2.39,2.43.73,1.89,6-9.56,10.84-19.84,12.78-31,2-11.45.69-22.93-1.12-34.31-1-6.51-2.23-13-2.79-19.57l-1,2.62a367.24,367.24,0,0,1,8.53,72.9c0,.45-.1,2.31.43,2.61s.64-1,.68-1.24c3.14-26.5,2.64-53.21,2.06-79.83l-1,1.91c4.57,24.33,3,49.19,1.44,73.73a6.81,6.81,0,0,0,.22,2.84c.15.35.4.93.66.21a120.22,120.22,0,0,0,2.51-72l-.58,4.52c8,12.05,16.2,24.6,15.59,39.67-.53,13.2-5,26.28-11.63,37.64a98.4,98.4,0,0,1-13.58,18l.32,5.21A135.57,135.57,0,0,0,438.85,182c0-.37.06-2.54-.51-2.65s-.64,1.65-.65,1.93a106.34,106.34,0,0,1-9.32,37,121.85,121.85,0,0,1-9.63,17.26c-3.61,5.47-7.36,10.86-10.05,16.86a7.31,7.31,0,0,0-.24,3.38c0,.16.39,2.1.7,1.56l10.08-17.8A173.91,173.91,0,0,0,428,222.71c5.06-11.69,6.49-24.44,6.14-37.08-.2-7.36-1-14.68-1.9-22,0-.32-.14-1.39-.6-1.29s-.47,1.69-.49,1.93c-1.87,24.09-4,48.89-15.77,70.52a89,89,0,0,1-10.88,15.77l.32,5.21a97.65,97.65,0,0,0,21.69-72,93,93,0,0,0-4.6-20.9c-.47-1.37-.89,2.1-.89,2.33a296.45,296.45,0,0,1-7.95,60.27,8.67,8.67,0,0,0-.05,3.55c.06.3.47,1.72.77.7,6.82-23.23,6.18-47.65,3.83-71.51-.08-.85-.58-2-.93-.54q-6.17,26.54-10.78,53.4a9.63,9.63,0,0,0,0,3.55c.07.32.44,1.7.77.7a140.35,140.35,0,0,0,5.69-61.76c0-.31-.17-1.58-.68-1.25s-.44,2.11-.43,2.61a221.74,221.74,0,0,1-2.43,37.57c-1.47,9.78-3,20.84-11.64,27-.68.49-.46,2.62-.42,3.33,0,.31.15,2.3.74,1.88Z"/><path class="cls-3" d="M232.8,153.75c-.46,5.93-4.73,29.25-6.52,35.57-1.92,6.75-4.45,13.33-5.94,20.19-.8,3.67-1.29,7.41-2.15,11.06-2.37,10.05-7.47,19.22-13.25,27.7a34.24,34.24,0,0,1-4.69,5.83c-8.8,8.3-20.44,9.16-29.91,1.2-6.79-5.72-11-14-15.49-21.68A70.94,70.94,0,0,1,149.26,223c-1.22-3.76-2.48-7.87-2.61-11.87-.08-2.53-1.67-4.9-2.65-7.21q-1.59-3.75-3-7.57a162.41,162.41,0,0,1-4.86-15.58A147.07,147.07,0,0,1,133,165.49c-1.4-8.72-1.49-17.67-5.58-25.74-1-2-2.3-4-2.49-6.32-.31-3.82,3.67-6.78,7.08-4.67,4.38,2.72,7.67,6.34,12.3,8.68,8.16,4.12,16.48,8.29,25.48,9.63,9.85,1.47,19.88-.72,28.78-5.12a67.9,67.9,0,0,0,12.89-8.39c6.48-5.31,10.86-13,18.69-16.28.89-.37,2-.62,2.71.07a2.56,2.56,0,0,1,.47,2c-.35,7.86-1.57,15.71-1,23.56.23,3.53.81,7.05.58,10.58C232.81,153.56,232.81,153.67,232.8,153.75Z"/><path class="cls-4" d="M204.88,70a25.21,25.21,0,0,1-7.65-1.39,27.27,27.27,0,0,1-6.74-4.22l-10.81-8.32c-2.08-1.6-4.28-3.26-6.87-3.69-5.58-1-10.24,3.86-14.6,7.46C147.21,69,132.32,72.09,118,72.6a123.7,123.7,0,0,1,2.85,44.45,3.57,3.57,0,0,0,0,1.56c.47,1.27,2.12,1.5,3.47,1.65,7.47.87,16.16,8.42,22.61,12.29,10.78,6.48,13.38,12.6,25.94,13,4.85.15,10.22,2.29,15,1.15,3.86-.93,7.73-.71,11.46-2.48a38.88,38.88,0,0,0,8.74-6.08c7.35-6.31,21.2-20.64,27-28.41,1.37-1.84,3.61-4.63,3.31-7.08a56.53,56.53,0,0,1-.63-6.1c0-5.76-.91-9.73-1.44-14.41-.25-2.21-2-4.3-2.11-6.52a11.34,11.34,0,0,0-1.78-4.92c-1.41-2.16-10-.35-12.61-.3Q212.4,70.57,204.88,70Z"/><path class="cls-1" d="M230.25,60.82c-1.31-6.19.82-20.56,1.1-22.1,1.13-6.23,9.26-7.93,5.48-22.85-1-3.91-2.65-9.26-6.72-11.08-5.38-2.4-12.69-.31-18,1.41-4.34,1.41-8.57,3.08-13.09,3.76-4.76.71-9.62,0-14.3-.89-8.16-1.61-16.88-4-25.21-3.26-9,.84-17.68,4.45-25.32,9.24a24.76,24.76,0,0,1-5.4,2.87,18.55,18.55,0,0,1-7.3.51c-3.5-.28-6.86-1.67-10.4-1.66s-6.49,1.35-9.54,3a11,11,0,0,0-5.11,7.71c-.26,1.24-.8,2.22-.62,3.5A14.88,14.88,0,0,0,100,38.75c2.75,3,6.13,5.42,8.4,8.79,2.46,3.65,3.39,8.08,4.45,12.35a8.25,8.25,0,0,0,1.68,3.85A6.57,6.57,0,0,0,117,65.27c5.92,2.31,12.91,1.43,18.6-1.11,4.8-2.14,11.27-2.78,15.5-6,3.82-2.88,7.86-5.74,11.53-8.88a9.37,9.37,0,0,1,2.14-1.5c5.1-2.21,13.35,2,16.86,5.64,1.77,1.84,3,4.16,5.05,5.73a18.11,18.11,0,0,0,5.93,2.7l6.13,2a25.87,25.87,0,0,0,3.87,1A28,28,0,0,0,208,65l14-.42c2.9-.09,6.08-.29,8.19-2.28A4.84,4.84,0,0,0,230.25,60.82Z"/><path class="cls-2" d="M234.81,28.3a5.68,5.68,0,0,1-1.09-.11,11.56,11.56,0,0,1-2.23-.63.68.68,0,0,1-.37-.06,7.34,7.34,0,0,1-1.65-1,7.78,7.78,0,0,1-1-.82,2.67,2.67,0,0,1-2.29-2.55,16.31,16.31,0,0,1,.26-4.35,17,17,0,0,1,1-6.4.74.74,0,0,1,.55-.46.72.72,0,0,1,.68.24c.33.39.64.78,1,1.17A.76.76,0,0,1,230,13a.76.76,0,0,1,.71.12,7.12,7.12,0,0,1,.64.58,20,20,0,0,1,.52-2.26.72.72,0,0,1,1.32-.15l.17.31c.05-.42.09-.84.15-1.27a.72.72,0,0,1,.83-.59.71.71,0,0,1,.6.68v4.1a113.39,113.39,0,0,1,4.7,10.36.74.74,0,0,1-.19.8.71.71,0,0,1-.81.11c-.24-.12-.46-.24-.68-.37a3,3,0,0,1-.13.68,1.59,1.59,0,0,1-1,1.15,1.62,1.62,0,0,1-.84.83A2.72,2.72,0,0,1,234.81,28.3Zm-2.05-1.82c.39.11.79.21,1.23.29a3.72,3.72,0,0,0,.81.09h0a8.14,8.14,0,0,1-1.46-1.23,5.54,5.54,0,0,1-.58.85Zm-2.34-1.1a8.29,8.29,0,0,0,.91.53,4.33,4.33,0,0,0,.66-.81h0a.69.69,0,0,1-.8-.14,3.84,3.84,0,0,1-.77.42ZM234,24.11a5.68,5.68,0,0,0,1.57,1.52A8,8,0,0,0,234.49,23l-.19-.31a10,10,0,0,1-.32,1.44Zm-1.72,0,.05.11a.7.7,0,0,1,.06.19v-.06a.79.79,0,0,0-.11-.29Zm-4.36-4.93a15.08,15.08,0,0,0,.53,3,7.31,7.31,0,0,0,.91,2.06,2.52,2.52,0,0,0,1.19-.56,19.18,19.18,0,0,1-1.24-8.39,4.2,4.2,0,0,0-.88,1.6,1.3,1.3,0,0,1-.11.35c-.15.61-.3,1.26-.4,1.89Zm2.78-2.06a17.25,17.25,0,0,0,.93,5.29h0c-.11-.39-.19-.77-.26-1.14a21.77,21.77,0,0,1-.35-3.7Zm4.23,2a7.64,7.64,0,0,0,1.45,3.12,9.61,9.61,0,0,0-1.45-3.13Zm-1.8-2.07a1.84,1.84,0,0,0,.1.42v-.35Zm-.5-2.31.53.42v-.84c0-.28-.25-.46-.37-.69a8.58,8.58,0,0,1-.16,1.1Z"/><path class="cls-2" d="M104.23,40.83h-.13a.73.73,0,0,1-.59-.79c.14-1.27.28-2.54.45-3.79a96.86,96.86,0,0,1-3.19-10,.71.71,0,0,1,1.09-.77c.19.12.36.24.53.37q.08-.27.18-.54a1.58,1.58,0,0,1,1-1,1.53,1.53,0,0,1,.92-.75,3.55,3.55,0,0,1,2.09.14,12.13,12.13,0,0,1,2,.85.88.88,0,0,1,.35.1,7.48,7.48,0,0,1,1.42,1.14c.28.27.55.56.8.85A2.54,2.54,0,0,1,113,29.29a15.48,15.48,0,0,1-.71,4,15.67,15.67,0,0,1-1.62,5.8.71.71,0,0,1-.6.4.7.7,0,0,1-.65-.32L108.7,38a.61.61,0,0,1-.33.19.71.71,0,0,1-.69-.19c-.17-.18-.33-.36-.47-.54-.2.65-.43,1.3-.69,1.94a.73.73,0,0,1-.67.44h0a.73.73,0,0,1-.67-.44l-.06-.16c-.07.33-.15.67-.24,1A.69.69,0,0,1,104.23,40.83Zm1.42-4.2c.07.17.13.34.2.52.09-.28.16-.55.24-.83-.12-.11-.24-.23-.35-.35Zm3.44-8.28a17.67,17.67,0,0,1,.25,7.69,4.16,4.16,0,0,0,.86-1.25l.13-.31c.22-.58.42-1.15.58-1.72a14,14,0,0,0-.16-2.81,6.76,6.76,0,0,0-.59-2A2.58,2.58,0,0,0,109.09,28.35ZM108,33.9l.15.28a15.83,15.83,0,0,0-.06-3.37A19.87,19.87,0,0,1,108,33.9Zm-4.39-4.65a9,9,0,0,0,.81,2.47A7,7,0,0,0,103.6,29.25Zm1.08-3.18a7.77,7.77,0,0,0,.7,2.41l.08.17a11.6,11.6,0,0,1,.39-1.13A5.61,5.61,0,0,0,104.68,26.07Zm3.41.65a.75.75,0,0,1,.53.24,5.39,5.39,0,0,1,.6-.25c-.22-.18-.44-.34-.68-.5-.19.17-.37.34-.54.52ZM105.61,25a6.69,6.69,0,0,1,1,1.13c.17-.21.35-.42.54-.62-.32-.13-.65-.26-1-.37A5.36,5.36,0,0,0,105.61,25Z"/><path class="cls-5" d="M339.4,447.23c.5-.53.91-1.18,1.66-1.32.55-.09,1.16,0,1.31.66a1.41,1.41,0,0,1-.31,1.19,4,4,0,0,1-1,.83l-.82.58a1.37,1.37,0,0,1-1.1.37.94.94,0,0,1-.54-1.15A2.89,2.89,0,0,1,339.4,447.23Z"/><path class="cls-5" d="M333.33,453.63a.75.75,0,0,1,1.06,0,1.15,1.15,0,0,1,.26,1.09,2.17,2.17,0,0,1-.62,1,4.15,4.15,0,0,1-1.44.93.79.79,0,0,1-.43.08c-.33-.06-.5-.44-.51-.78a3.53,3.53,0,0,1,1.2-2.27"/><path class="cls-5" d="M324.16,459.3a1.09,1.09,0,0,1-.93-.1.83.83,0,0,1-.11-1.05c.44-.77,2.73-2.13,3.64-1.54C328.54,457.76,324.93,459.15,324.16,459.3Z"/><path class="cls-5" d="M318,456.47c.32.22.82.18,1,.51s-.11.84-.5,1a2.74,2.74,0,0,1-1.46.29,1.18,1.18,0,0,1-1.15-.69,1,1,0,0,1,.3-.89,2.94,2.94,0,0,1,.84-.49c.24-.11.55-.2.72,0"/><path class="cls-5" d="M209.49,467.33a3.28,3.28,0,0,1,2-.82c.55.05,1.1.36,1.08,1a1.42,1.42,0,0,1-.62,1.07,3.78,3.78,0,0,1-1.15.54l-.94.33a1.37,1.37,0,0,1-1.17.06,1,1,0,0,1-.21-1.25A2.74,2.74,0,0,1,209.49,467.33Z"/><path class="cls-5" d="M202,471.85a.79.79,0,0,1,1,.27,1.12,1.12,0,0,1,0,1.12,2,2,0,0,1-.87.78,4.34,4.34,0,0,1-1.6.54.74.74,0,0,1-.44-.05.72.72,0,0,1-.27-.88,3.57,3.57,0,0,1,1.76-1.87"/><path class="cls-5" d="M190.16,476.27a1,1,0,0,1-.87-.35.82.82,0,0,1,.17-1c.64-.62,3.21-1.31,3.92-.5C194.79,476,190.94,476.33,190.16,476.27Z"/><path class="cls-5" d="M186.38,470.42c.25.3.75.39.86.77s-.34.78-.76.87a2.62,2.62,0,0,1-1.49-.12c-.45-.16-.92-.5-.92-1a1,1,0,0,1,.53-.77,3.1,3.1,0,0,1,.94-.24c.26,0,.59,0,.69.19"/><path class="cls-2" d="M169.88,48.37a45.63,45.63,0,0,0,.17,8.9c.35,2.33.94,5.16,2.94,6.66a8.79,8.79,0,0,0,5.7,1.45c2-.08,4.19-.49,5.53-2.11a2.82,2.82,0,0,0,.35-1.24,10.42,10.42,0,0,0,.06-2.09c0-.21-.29-2.41-.73-1.88-1.15,1.39-3,1.76-4.71,1.88a9.66,9.66,0,0,1-5.22-.81,5.77,5.77,0,0,1-2.83-4.27,4.82,4.82,0,0,1-.1-.57c0-.08-.08-.78,0-.35v-.76h0V51.56a13.33,13.33,0,0,1,.08-1.78,10.34,10.34,0,0,0-.06-2.08,2.61,2.61,0,0,0-.35-1.24c-.59-.45-.73,1.73-.73,1.89Z"/><path class="cls-2" d="M244.22,139.17c-.85-7-1.74-14.07-2.47-21.12-.75-7.3-1.31-14.59-2.41-21.87-1.24-8.28-2.76-16.51-4-24.8-1.14-7.92-2.11-16-1.83-24a17.6,17.6,0,0,1,1-5.72,37.85,37.85,0,0,1,2.68-5A25.56,25.56,0,0,0,240,29.1a38.83,38.83,0,0,0,0-16c-.94-4.3-3-8.67-6.79-11.1C228.07-1.31,221.53.16,216,1.7,209.46,3.51,202.92,6,196,4.8c-5.12-.86-10.17-2-15.34-2.65a70.06,70.06,0,0,0-21.44.31c-7.63,1.43-14.25,5.25-21.43,8a32.34,32.34,0,0,1-10.49,2.29c-3.29.1-6.57-.24-9.85-.43-6.41-.38-13.51-.12-18.26,4.84S94,30,96.14,36.19c2,5.53,6.38,9.74,10.08,14.12a35.59,35.59,0,0,1,5,7.27,48,48,0,0,1,3,8.33,111.42,111.42,0,0,1,3.17,19c1.14,12.46.91,25,1.35,37.47.13,3.69.42,7.37.51,11.06,0,.35,0,2.5.55,2.5s.56-2.27.55-2.5c-.17-6.59-.6-12.9-.71-19.38s-.19-12.69-.45-19c-.54-12.81-1.55-26.15-6-38.3a31.94,31.94,0,0,0-3.85-7.54,83.52,83.52,0,0,0-5.55-6.77,53.51,53.51,0,0,1-5.26-6.74C97.37,33.74,96,31.28,96.08,29c.07-3.12,2.37-6.32,4.7-8.19a17.25,17.25,0,0,1,8.92-3.44c6.42-.74,12.84.82,19.26.28,7.53-.63,14.23-4.7,21.1-7.47a54.86,54.86,0,0,1,21.52-3.67,108.61,108.61,0,0,1,18.51,2.17c2.07.4,4.14.85,6.22,1.19a25.86,25.86,0,0,0,9.36-.35c10-2,25.06-9.93,31.78,2.13a18.64,18.64,0,0,1,2,5.94c.08.47.16,1.07.2,1.47,0,.11,0,.46,0,.66a5.63,5.63,0,0,0,0,.58,20.38,20.38,0,0,1-.12,2.86,24,24,0,0,1-1.44,6.09c-1.3,3.4-3.72,6.18-4.7,9.73a42.56,42.56,0,0,0-1,11.81c.05,4.23.32,8.45.72,12.66.78,8.15,2.13,16.23,3.47,24.3s2.69,16.11,3.43,24.24c.58,6.39,1.17,12.76,1.93,19.13q.63,5.29,1.28,10.6c.07.54.2,1.61.76.89s.29-2.63.19-3.42Z"/><path class="cls-2" d="M115.09,68.57A43.92,43.92,0,0,0,144.38,66a65.68,65.68,0,0,0,16.48-11.23c2.9-2.6,5.85-5.06,10-4.52s7.75,2.94,11,5.28c2.5,1.83,4.75,4,7.25,5.77a35.06,35.06,0,0,0,7.53,4.17c11.87,4.76,25,2.36,37.12.16,1-.19.56-5.1,0-5-10.83,2-22.24,4.09-33.11,1.18a34.53,34.53,0,0,1-7.93-3.21,57.27,57.27,0,0,1-7.87-5.81C181.31,50,177.4,47.08,173,45.75A9.8,9.8,0,0,0,166,46a18.3,18.3,0,0,0-4.16,2.88c-4.58,4-9.16,7.89-14.58,10.76a44.39,44.39,0,0,1-32.13,4c-.42-.11-1.09,4.72,0,5Z"/><path class="cls-2" d="M233.26,164.43c-.3,2-.77,4.42-1.19,6.68-.47,2.49-.95,5-1.4,7.49-1.52,8.61-3.12,17.19-5.06,25.72a253.7,253.7,0,0,1-7.26,26.25c-2.66,7.73-5.85,15.49-11.38,21.63a22.73,22.73,0,0,1-7.88,6.13,25.81,25.81,0,0,1-8.8,1.91c-5.89.28-12.5-1-17.1-4.93a44.67,44.67,0,0,1-6.89-7.95,85.12,85.12,0,0,1-6-9.7,170.18,170.18,0,0,1-9.12-20.86c-6-16.12-11.8-32.53-14.7-49.56-.37-2.17-.68-4.35-1-6.54-.06-.54-.19-1.61-.75-.89s-.29,2.63-.2,3.42c2.22,18.1,7.86,35.5,14.08,52.57,5.19,14.23,10.74,29.08,20.78,40.7a23.62,23.62,0,0,0,7.16,6,25.91,25.91,0,0,0,9,2.56c5.91.63,12.54-.33,17.38-4,6.45-4.87,10.47-12.4,13.47-19.71a189.6,189.6,0,0,0,8.16-26.16c3.73-14.87,6.36-30,9-45.09.19-1.06.38-2.13.54-3.19.13-.9.34-2.64-.2-3.42s-.68.39-.75.89Z"/><path class="cls-2" d="M288.42,297.88a37.08,37.08,0,0,0,6.58.35,75.85,75.85,0,0,0,17.35-2.3c20.46-5,38.42-17.39,52.72-32.59a176.91,176.91,0,0,0,24.77-33.5,135.47,135.47,0,0,0,13.1-31.08,113.74,113.74,0,0,0,4.05-28.6,110.58,110.58,0,0,0-.61-12.87q-.31-2.91-.79-5.79c-.3-1.79-.84-3.76-1-5.46a4.62,4.62,0,0,1,.08-1.71,13.51,13.51,0,0,1,.81-2.79,17.75,17.75,0,0,1,3.35-5.31,18.14,18.14,0,0,1,10.92-5.95c7.91-1.07,14.32,4.21,17.86,10.84a71.94,71.94,0,0,1,5.8,15.9,138.22,138.22,0,0,1,3.78,22.27c1.55,17.6.2,35.85-5.46,53a95.81,95.81,0,0,1-12.86,25.77c-5.53,7.75-12.46,14.2-19.69,20.33-12.82,10.86-27.07,19.92-43.17,25-19.52,6.22-40.35,6.69-60.59,4.85-6.37-.58-12.72-1.39-19-2.37-.57-.09-1,4.84,0,5,22.41,3.46,45.69,5.14,68.06.53a116.77,116.77,0,0,0,46.05-21.09,169.88,169.88,0,0,0,20.31-17.48,89.38,89.38,0,0,0,16.84-24.55c8.2-17.46,11.3-37.07,11.25-56.24-.05-15.83-2-32.14-7.25-47.14-1.72-4.91-3.82-10-7.38-13.93a17,17,0,0,0-12.33-5.9,17.88,17.88,0,0,0-11.42,4.35A19.6,19.6,0,0,0,404,140.24a25,25,0,0,0-.39,8c.21,1.93.73,3.92,1.05,5.78a86.11,86.11,0,0,1,.84,23.54c-2.21,22.61-12.24,43.78-25.32,62.08-14.33,20.06-32.6,38.1-55.8,47.4-10.69,4.29-22.68,7-34.26,6-.56-.05-1.13-.1-1.68-.19s-1,4.83,0,5Z"/><path class="cls-2" d="M200.92,40.77a2.86,2.86,0,0,1-2.15.58,2.79,2.79,0,0,1-1.85-1.54,7.26,7.26,0,0,1-.61-2.39,4.48,4.48,0,0,1,.53-3.37,3.45,3.45,0,0,1,1.25-.92,3,3,0,0,1,2.79,0c1.07.66,1.29,2.1,1.39,3.35C202.44,38.38,202.68,39.53,200.92,40.77Z"/><path class="cls-2" d="M138.77,35.61a2.66,2.66,0,0,1,2.23-.42,2.79,2.79,0,0,1,1.8,1.59,7.06,7.06,0,0,1,.55,2.41,4.49,4.49,0,0,1-.62,3.35,3.23,3.23,0,0,1-1.27.88,3,3,0,0,1-2.79,0C136.46,41.94,136.61,37.16,138.77,35.61Z"/><path class="cls-2" d="M171.05,49.47c-3.07.1-5.68-2.15-7.66-4.49a6.23,6.23,0,0,1-1.36-2.2,2.42,2.42,0,0,1,.5-2.43,3.11,3.11,0,0,1,1.15-.61c3.47-1.24,11.87-2.3,14.77.74C182,44.2,174.36,49.37,171.05,49.47Z"/><path class="cls-2" d="M228,5.53c-1.14.76-1.66,2.43-2.19,3.63a27.58,27.58,0,0,0-1.6,4.49,22,22,0,0,0-.24,9.52,15.21,15.21,0,0,0,9,11.4c.22.08,1.17-4.53,0-5a13.89,13.89,0,0,1-7.86-8.35,6.54,6.54,0,0,1-.05-4.47,27,27,0,0,1,1.34-3.47,6.33,6.33,0,0,1,1.84-2.92c.63-.42.43-2.45.39-3.08,0-.31-.12-2.11-.68-1.75Z"/><path class="cls-2" d="M108,22.28c1,.36,1.71,1.44,2.37,2.26a34.1,34.1,0,0,1,2.1,2.84,10.61,10.61,0,0,1,2.05,5.49c-.05,3.54-2.62,7.06-5.35,9.07-.62.46-.42,2.41-.38,3.08,0,.29.14,2.14.67,1.74,4.59-3.37,6.28-9.06,6.15-14.55a18.06,18.06,0,0,0-2-8.23,25.92,25.92,0,0,0-2.54-3.77c-.85-1.07-1.72-2.47-3.06-2.93-.29-.1-1.15,4.61,0,5Z"/><path class="cls-2" d="M170.23,48.18a45,45,0,0,0,.17,8.76c.34,2.3.94,5.09,2.92,6.57A8.8,8.8,0,0,0,179,65c2-.08,4.19-.49,5.52-2.11a2.47,2.47,0,0,0,.33-1.15,9.47,9.47,0,0,0,.06-1.92c0-.2-.28-2.24-.68-1.75-1.15,1.4-3,1.78-4.73,1.9a10.09,10.09,0,0,1-5.23-.81,5.9,5.9,0,0,1-2.87-4.35c0-.21-.07-.4-.1-.61,0-.06-.09-.71-.06-.4,0-.25,0-.51,0-.76s0-.34,0-.09c0-.13,0-.26,0-.39,0-.29,0-.59,0-.88,0-.09,0-.81,0-.36,0-.59,0-1.18.08-1.77a10.36,10.36,0,0,0-.06-1.93c0-.21-.1-1-.32-1.15-.54-.41-.67,1.6-.68,1.75Z"/><path class="cls-2" d="M170.66,58.26a4.61,4.61,0,0,1,0-.91,2.23,2.23,0,0,1,0-.73c0-.14,0-.11,0,.08v-.07a5.46,5.46,0,0,1-.3.7,5.86,5.86,0,0,1-1.1,1.38,5.75,5.75,0,0,1-3.58,1.41,10.34,10.34,0,0,1-3.94-.5,3.4,3.4,0,0,1-2.37-2c-.07-.24-.21-.41-.42-.25s-.31,1-.33,1.15a8.57,8.57,0,0,0,.2,3.42,4.21,4.21,0,0,0,3,2.68,9.55,9.55,0,0,0,5.08.3,6,6,0,0,0,3.61-2.56,9.86,9.86,0,0,0,1.08-6.64c0-.3-.35-1.87-.75-.9a7.07,7.07,0,0,0-.2,3.42Z"/><path class="cls-2" d="M227,118.83c-7.24,12.21-18.18,23.45-32,27.69-7.82,2.39-15.78,1.32-23.51-.91a83,83,0,0,1-21.92-10.14,97.43,97.43,0,0,1-20.78-17.63c-.46-.53-.67,1.61-.68,1.75-.05.8-.2,2.39.39,3.07a96.77,96.77,0,0,0,18.61,16.19,87.72,87.72,0,0,0,21.07,10.72c7.67,2.61,16.13,4.45,24.18,2.65a45.51,45.51,0,0,0,19.21-9.84,74.89,74.89,0,0,0,15.75-18.73,5.67,5.67,0,0,0,.39-3.08c0-.18-.38-2.25-.68-1.74Z"/><path class="cls-2" d="M190.81,123.46a18.07,18.07,0,0,1,1.46,2.32l-.13-.25a18.29,18.29,0,0,1,1.18,2.91c.07.2.22.44.43.25a2.5,2.5,0,0,0,.33-1.15,8.4,8.4,0,0,0-.2-3.42,18.29,18.29,0,0,0-2.78-5.48c-.19-.25-.37.13-.42.25a4.81,4.81,0,0,0-.25,1.5,9.47,9.47,0,0,0,0,1.92,2.65,2.65,0,0,0,.33,1.15Z"/><path class="cls-2" d="M185.81,125.78c.09.27.18.53.26.8,0,.06,0,.13.05.19l0-.08c0,.12.07.25.1.38.13.52.24,1.05.34,1.58s-.06-.44,0,0l.06.39.09.78c.05.46,0-.51,0-.08l0,.39,0,.46c0,.59,0-.56,0-.08a8.7,8.7,0,0,0,.16,1.77c0,.1.15.73.39.73s.36-.6.39-.73a8,8,0,0,0,.16-1.77,29.67,29.67,0,0,0-1.46-9.06c-.07-.2-.22-.44-.43-.25a2.5,2.5,0,0,0-.33,1.15,8.05,8.05,0,0,0,.2,3.42Z"/><path class="cls-2" d="M177.1,122.89a43.36,43.36,0,0,0-1,8,11.21,11.21,0,0,0,.06,1.92,2.39,2.39,0,0,0,.33,1.15c.5.47.67-1.66.68-1.74,0-.57,0-1.13.08-1.69,0-.15,0-.31,0-.46l0,.32,0-.26.09-.81c0-.26.07-.53.11-.79l.06-.4a2.51,2.51,0,0,0,0-.27l0,.24a5.76,5.76,0,0,1,.15-.79c.06-.3.13-.61.19-.91a8.16,8.16,0,0,0,.16-1.77,7.53,7.53,0,0,0-.16-1.77c0-.18-.13-.73-.39-.73s-.36.6-.38.73Z"/><path class="cls-2" d="M171.43,119.67a7.73,7.73,0,0,0-2.51,5.14,10.4,10.4,0,0,0,0,1.93,6,6,0,0,0,.09.85,2.94,2.94,0,0,0,.16.65c.07.16.21.49.42.25l.13-.25a4.16,4.16,0,0,0,.2-.9s0-.09,0-.13c0-.24-.06.34-.06.32s0-.17,0-.25l.06-.25c.05-.2-.05.2-.06.21a.43.43,0,0,0,.05-.16,5.77,5.77,0,0,1,.41-1l-.14.25a6,6,0,0,1,1.52-1.88,1.27,1.27,0,0,0,.19-.45,3.34,3.34,0,0,0,.14-.7,10.38,10.38,0,0,0,.06-1.93,4.41,4.41,0,0,0-.26-1.49l-.13-.25c-.1-.12-.19-.12-.29,0Z"/><path class="cls-2" d="M121.18,137.93c-19,9.2-34.58,23.94-46.29,41.36a175.39,175.39,0,0,0-23.51,53C47.55,246.78,45,262.19,46,277.21c.29,4.32.71,9.22,2.87,13.08,1.88,3.35,6.39,4,9.81,2.73,5.54-2,8.43-8.45,10.52-13.48,3.46-8.3,5.78-17.06,8.52-25.61,3.23-10.09,6.8-20.17,11.83-29.52a77.55,77.55,0,0,1,21.87-25.65,41.74,41.74,0,0,1,6.54-4.23,7.43,7.43,0,0,1,3.6-1,2.1,2.1,0,0,1,.82.2c.15.08.57.46.38.37.15.07.07.47,0,0,0,0-.08-.64-.07-.63s0-1.25,0-.9c0,0,.06-.71,0-.28.09-1,0,.08,0,.46a12,12,0,0,0,0,1.7c0,.31,0,.62,0,.93.06,1.55.15,3.1.24,4.65.92,15.65,2.6,31.27,4.93,46.78,3.42,22.84,8.22,45.62,15.75,67.5a195.49,195.49,0,0,0,13.78,31.5c.62,1.1,1.25,2.2,1.9,3.28a22.74,22.74,0,0,0,2.31,3.75c.75.81.1-.15.27.21a6.23,6.23,0,0,1,.23.8c.52,1.79,1.07,3.57,1.63,5.35,3.28,10.35,6.87,20.61,10.53,30.83a237.71,237.71,0,0,1,7.72,24.42,159.36,159.36,0,0,1,3.63,21.12c1,9.79,1.14,19.81-1.08,29.43-1.51,6.56-3.68,14.66-1,21.21,1.17,2.82,3.5,3.64,6.4,3.24A65.73,65.73,0,0,0,200.77,487c6.14-2,11.72-5.06,14.73-11,2.7-5.32,3.2-11.5,3.69-17.35.6-7.14.75-14.31,1.21-21.46.55-8.37,1.41-16.82,3.62-24.93,1.8-6.6,4.77-14.07,10.86-17.83,8.1-5,17.81-.27,25.42,3.32a118.13,118.13,0,0,1,33.76,23.6c7.46,7.54,14.18,16.41,17.84,26.45,2.07,5.72,3.28,11.73,5.2,17.5,1.08,3.24,2.45,7.43,5.7,9.14,3.65,1.92,8.64-.05,11.92-1.86a30.26,30.26,0,0,0,12.48-13.34,24.53,24.53,0,0,0,1.34-17.93,76.77,76.77,0,0,0-4.34-9.61c-9.31-18.61-20.15-36.4-30-54.7-3.61-6.67-7.2-13.34-10.34-20.26a305.35,305.35,0,0,1-12.14-32.21c-4.93-15.28-9.33-30.76-13.61-46.24-4.38-15.84-8.47-31.77-12-47.83-3.31-15-6.14-30.15-8-45.42l-.47,3.77a149.88,149.88,0,0,0,19.57-2.65c12.6-2.4,25.15-5.95,36.76-11.46a165.18,165.18,0,0,0,26.42-15.92c7.34-5.36,14.69-11.28,20.3-18.49a23.55,23.55,0,0,0,4.47-8.11c.74-2.71,1-6.21-.32-8.8-2.24-4.49-8.27-4.12-12.39-3.27-7.46,1.54-14.59,4.8-21.63,7.63a301.31,301.31,0,0,1-29.83,10.62,153.61,153.61,0,0,1-36.62,5.86c-7.17.25-14.26.6-21.27-1.41a22.7,22.7,0,0,1-6.71-3c-.57-.39-.66,1.49-.68,1.75,0,.58-.23,2.64.39,3.07,7,4.85,16.67,5.25,24.93,4.83a182.83,182.83,0,0,0,28.1-3.15,207.63,207.63,0,0,0,31.26-9.44c8.11-3.08,16.05-6.59,24.24-9.45,4.76-1.67,10.75-3.91,15.83-2.4a7.16,7.16,0,0,1,2.75,1.46,5.35,5.35,0,0,1,1,1.1c.14.24.37,1,.46,1.06-.08-.05.08-1.12,0-.84-.21.51-.29,1.1-.49,1.62a20.51,20.51,0,0,1-2.07,3.83c-4.64,6.94-11.36,12.6-17.89,17.68a168.92,168.92,0,0,1-25.67,16.55c-18.2,9.5-39.09,14.63-59.51,16.26l-1.33.1c-.82,0-.54,3.31-.48,3.76,5.31,42.75,17.06,84.58,29.29,125.78,4.83,16.28,10,32.55,17.05,48,4.24,9.31,9.2,18.29,14.18,27.21,7.27,13,14.71,25.93,21.72,39.08,2.74,5.13,5.52,10.3,7.78,15.68,1.2,2.83,1.74,5.26.84,8.3a27,27,0,0,1-6.86,11,25.87,25.87,0,0,1-10.79,6.77c-2.17.65-4.67,1.13-6.85.27s-3.41-2.93-4.31-4.92a72,72,0,0,1-3.39-10.25c-2-7.13-4-13.95-7.69-20.4a87,87,0,0,0-13.68-17.63,115.43,115.43,0,0,0-21-16.65,124.76,124.76,0,0,0-12-6.61,78.56,78.56,0,0,0-12.39-5.1c-4.61-1.3-9.58-1.35-13.83,1.09-3.87,2.23-6.5,5.93-8.44,9.86-5,10.07-6.23,22-7.12,33-.85,10.59-.45,21.46-2.26,31.95a22.39,22.39,0,0,1-4.56,10.8c-3.09,3.67-7.54,5.67-12,7.1a65.3,65.3,0,0,1-7.29,1.83c-2.1.4-4.71,1.2-6.82.51-4.6-1.51-3.06-8.24-2.33-11.68.85-4,1.92-8,2.37-12.13.32-2.93.49-5.87.57-8.81A147,147,0,0,0,186,428.27,174.14,174.14,0,0,0,179.4,399c-3.11-9.9-6.92-19.6-10.29-29.42-1.8-5.27-3.57-10.56-5.23-15.87-.38-1.22-.76-2.44-1.12-3.66-.08-.27-.16-.54-.23-.81.22.77-.31-.62-.44-.85-1.77-3.08-3.73-6-5.42-9.17-1.85-3.42-3.55-6.91-5.15-10.45a223.33,223.33,0,0,1-8.54-22.2,353.8,353.8,0,0,1-11.48-45.94,491.8,491.8,0,0,1-7.68-64.23c-.06-1.12-.11-2.23-.15-3.35l-.14,2.44c.39-1.75.69-4.94-.63-6.36-2.13-2.28-7.26,1.67-8.92,2.79-12.2,8.21-20.93,19.46-27.25,32.62-5.66,11.79-9.34,24.35-13.25,36.79a150.85,150.85,0,0,1-5.33,15c-1.54,3.51-3.39,7.18-6.32,9.76-3.51,3.08-10.48,3.81-12.78-.79a19.47,19.47,0,0,1-1.74-6.55,59,59,0,0,1-.39-9.83A146.23,146.23,0,0,1,50.86,241a182.27,182.27,0,0,1,11.42-33.65c10.8-23.89,27.36-45.85,50-59.62,2.89-1.75,5.87-3.36,8.91-4.84,1.18-.57.13-5.06,0-5Z"/><path class="cls-2" d="M77.65,228.16c-2.4,7.92-5.46,15.61-7.75,23.54A64.86,64.86,0,0,0,67.48,263c-.42,4.16-.14,8.39-1.45,12.42L69.35,272c-.83-11.82,3.46-23.08,7.67-33.9.11-.29-1.3.91-1.4,1a8.35,8.35,0,0,0-1.92,2.3,134.85,134.85,0,0,0-8.39,30.21l3.32-3.43c-4.07-12.77,2.9-25.21,11-34.69l-2.53,2.18c-3.92,6.18-6.11,13.15-8.26,20.09-2,6.34-3.79,12.86-3.12,19.56,0,0,1.71-1.42,1.86-1.58.4-.43,1.48-1.29,1.46-1.95a77.23,77.23,0,0,1,10.67-40.05c.46-.8-.75.28-.88.41a11.26,11.26,0,0,0-2.2,2.47,176.73,176.73,0,0,0-14.89,32l3.32-3.42a65,65,0,0,1,.16-17.89c1-5.53,3-12.1,7.28-16l-1,.6-6.31,12.76c-1.79,3.64-3.74,7.22-5.18,11a74.93,74.93,0,0,0-4.79,20.88l3.32-3.41c.48-13.49,3.38-27.17,7.09-40.12.09-.31-1.14.76-1.2.81a17.37,17.37,0,0,0-2,2.28A84.62,84.62,0,0,0,51.69,255.5L55,252.19a161.07,161.07,0,0,1,10.16-26.88l-3.32,3.31-8.11,24.84,3.32-3.31a110.26,110.26,0,0,1,9.18-24.45c.15-.29-1,.6-1,.6a17.7,17.7,0,0,0-2,2.17c-3.34,4.38-6.54,10.07-6.49,15.74,0,1,.11,2.87,1.45,2.9a3,3,0,0,0,1.75-.92A22.16,22.16,0,0,0,63.09,243l-2.68,2.41c-1.24,3.66-.89,7.95-.66,11.71.22,4.09.72,8.18.77,12.27,0,0,1.57-1.28,1.64-1.35.48-.51,1.54-1.34,1.71-2.09,1.64-8,3.31-16,6.86-23.39,2.86-5.94,6.35-11.6,8.23-17.9.09-.31-1.14.74-1.19.8a11.78,11.78,0,0,0-2,2.28q-6.27,11-13,21.74c-1.76,2.82-3.51,5.65-5.42,8.37-.27.39-.59.75-.84,1.15.22-.35.09-.1,0,0A9.19,9.19,0,0,0,58,257.35a2.88,2.88,0,0,1,.34-.27,15.91,15.91,0,0,0-.38-2.83,23.08,23.08,0,0,1-.11-3.81,14.71,14.71,0,0,1,.42-2.46c.38-1.81-2.68,2.41-2.59,2.58s.23.14.29.28c.69,1.88.31,4,.07,5.86,0,.35,1.3-.91,1.4-1,.54-.58,1.71-1.49,1.91-2.31,2.83-11.9,2.69-24.6,8.09-35.79.12-.25-1.11.74-1.18.8a10.7,10.7,0,0,0-2,2.29,48,48,0,0,0-5.74,18.25c0,.34,1.35-1,1.4-1a128.77,128.77,0,0,0,11.85-13.5c.86-1.12-.18-.34-.64.07-7.75,7.12-13.62,16.05-15.68,26.46l3.32-3.42c.23-7.78.55-15.73,3.79-22.95,0,0-1.62,1.23-1.86,1.47-4.52,4.71-6.39,11-8.29,17.1-2.06,6.59-4.06,13.19-6.09,19.78-.1.32.75-.41.81-.46a16.32,16.32,0,0,0,1.85-2,19.68,19.68,0,0,0,4.63-10.15c0-.37-1.3.91-1.4,1-.49.52-1.79,1.52-1.91,2.29-.14,1-.53,3.72,1.13,2.54a9.65,9.65,0,0,0,3.74-5.29c.09-.34-1.3.92-1.4,1a8.33,8.33,0,0,0-1.91,2.31,13.31,13.31,0,0,0-.79,7.66A24,24,0,0,0,53,260.31c.33-.35,1.58-1.39,1.48-1.95a12.82,12.82,0,0,1,.77-7.44l-3.31,3.31c-.28,1.15-1.16,2.1.56.29L54.2,253c-1,.59-.59-2.43-.56-2.59l-3.34,3.29A16.1,16.1,0,0,1,47,262l2.68-2.4,5.26-17.09c.85-2.79,1.7-5.57,2.68-8.32.49-1.37,1-2.74,1.58-4.07a12.46,12.46,0,0,1,1.94-3.72l-1.85,1.46C56,235.11,55.71,243.15,55.46,251c0,0,1.56-1.27,1.64-1.36.48-.51,1.55-1.34,1.71-2.09,1.54-7.76,5.13-15.64,11-21.05l-.65.07a91.81,91.81,0,0,1-8.72,10l1.41-1a47,47,0,0,1,5.51-17.81L64.2,220.8C58.8,232,59,244.71,56.1,256.59l3.31-3.3a23.71,23.71,0,0,0,.31-3.85,4.31,4.31,0,0,0-.33-2.19c-.88-1.23-3.26,2.15-3.72,2.77-1.06,1.47-1.12,3.36-1.12,5.11a27.94,27.94,0,0,0,.42,4.66c.13.75,0,.72.55.52a6.62,6.62,0,0,0,1.93-1.76,24.56,24.56,0,0,0,1.75-2.05c1-1.27,1.88-2.61,2.76-3.95C64.73,248.3,67.4,244,70,239.67c3-5,6-9.95,8.82-15l-3.19,3.08c-1.85,6.32-5.37,12-8.23,17.91-3.54,7.36-5.21,15.43-6.85,23.38l3.32-3.42c-.06-3.95-.53-7.9-.77-11.82s-.62-8.23.64-12c.11-.31-.75.41-.82.47a17.16,17.16,0,0,0-1.85,2c1.79-2.21,1.12-.61.14-.86a1.22,1.22,0,0,1-.75-.71A6.71,6.71,0,0,1,60.2,239a27.57,27.57,0,0,1,5.69-12.83l-3,2.78a111,111,0,0,0-9.13,24.44c-.08.33,1.3-.91,1.4-1a7.19,7.19,0,0,0,1.91-2.3l8.11-24.84c.1-.32-1.31.91-1.41,1a9.1,9.1,0,0,0-1.9,2.29,159.44,159.44,0,0,0-10.16,26.89c-.09.32,1.31-.92,1.4-1A7.27,7.27,0,0,0,55,252.07a82.84,82.84,0,0,1,10.53-20.92l-3.21,3.15c-3.73,13-6.61,26.76-7.1,40.34,0,0,1.55-1.27,1.63-1.35.42-.45,1.65-1.42,1.71-2.09a75,75,0,0,1,4.82-21c1.39-3.69,3.29-7.19,5-10.72l6.44-13c.14-.29-1,.61-1,.61a37.19,37.19,0,0,0-11.23,18.1c-1.78,7-1.63,14.3-.86,21.39l1.64-1.35a7,7,0,0,0,1.71-2.09,175,175,0,0,1,14.64-31.58l-3.06,2.86a78.39,78.39,0,0,0-10.9,40.75l3.35-3.55c-.67-6.63,1.15-13.08,3.07-19.31,2.1-6.76,4.2-13.63,8-19.66.39-.62-.3-.1-.5.06a15.14,15.14,0,0,0-2.05,2.11c-8.57,10-16.66,23.1-12.32,36.76a11.2,11.2,0,0,0,1.63-1.36c.46-.49,1.58-1.37,1.71-2.09a134,134,0,0,1,8.37-30.17l-3.32,3.31c-4.23,10.9-8.52,22.22-7.68,34.12,0,0,1.58-1.29,1.63-1.35a6.75,6.75,0,0,0,1.71-2.09c1.32-4,1-8.26,1.45-12.42a64.86,64.86,0,0,1,2.42-11.29c2.3-7.95,5.37-15.64,7.74-23.54.11-.32-1.3.91-1.39,1a7,7,0,0,0-1.91,2.3Z"/><rect class="cls-6" x="317.31" y="103.86" width="63.2" height="39.53" rx="7.75" transform="translate(623.42 371.95) rotate(-157.38)"/><path class="cls-2" d="M334.5,97.45l33,13.74,8,3.35a31.45,31.45,0,0,1,3.95,1.72c2.54,1.49,4.25,4.47,3.12,7.35-.22.54-.45,1.08-.68,1.62l-3.9,9.36L374.05,144c-.24.58-.47,1.17-.73,1.75a7.7,7.7,0,0,1-6.08,4.55c-2.18.26-4-.58-5.92-1.38l-7.29-3c-11.54-4.81-23.15-9.46-34.61-14.42a7.79,7.79,0,0,1-4-3.65,5.16,5.16,0,0,1,0-4.64q1.62-3.92,3.26-7.82l4.3-10.34c1-2.34,1.75-5,3.83-6.61a7.83,7.83,0,0,1,7.67-1c.12,0,.58-2.27,0-2.5-4.36-1.7-8.69.58-10.44,4.74q-1.74,4.16-3.46,8.3l-4.43,10.64c-1.17,2.79-2.23,5.32-1.83,8.47a8.7,8.7,0,0,0,5.69,7.15l6.27,2.62L348.11,146c5,2.08,10,4.19,15,6.24a8,8,0,0,0,10.38-3.92c1-2.06,1.76-4.21,2.64-6.31l4.67-11.21c.9-2.17,2.16-4.47,2.61-6.8.83-4.35-.76-8.89-5-10.71-1.6-.69-3.22-1.34-4.83-2l-21.05-8.77-17.07-7.12L334.5,95C334.4,94.91,333.91,97.21,334.5,97.45Z"/><rect class="cls-7" x="320.46" y="111.73" width="62.7" height="8.59" transform="translate(631.91 358.45) rotate(-157.38)"/><path class="cls-2" d="M324.52,101.25l19.54,8.14,31.15,13,7.18,3-.13-2.33-3,7.16c-.08.19-.14.38-.23.56-.16.33,0,0,0,0a.87.87,0,0,1-.17-.07,9.14,9.14,0,0,0-1.08-.45L366,125.35l-35.8-14.92-9-3.75.14,2.33,3.3-7.93a3.41,3.41,0,0,0,.1-1.71c0-.17-.18-.93-.38-.45l-3.3,7.93c-.16.39-.37,2.12.14,2.33l19.53,8.14,31.16,13,7.18,3a.22.22,0,0,0,.14-.17l3.3-7.93c.17-.39.37-2.12-.14-2.33l-19.53-8.14-31.16-13-7.18-3C324.42,98.71,323.93,101,324.52,101.25Z"/><path class="cls-8" d="M26.81,291.28c5.18,19.92,8.8,40.2,13.37,60.26a.58.58,0,0,0,1.14-.25C36.74,331.24,33.13,311,27.94,291c-.19-.73-1.32-.48-1.13.24Z"/><path class="cls-9" d="M26.61,292.17c4.68,18,8.1,36.34,12.1,54.52.24,1.12.49,2.23.74,3.35a9.28,9.28,0,0,0,.68,2.79c.81,1.21,1.44-.42,1.47-1.15.08-1.92-.69-3.95-1.1-5.81-.52-2.31-1-4.63-1.51-6.94-2-9.11-3.8-18.23-5.78-27.33-1.1-5-2.24-10-3.46-15-.31-1.27-.62-2.54-.94-3.81-.22-.86-.32-2.35-.86-3.07a.7.7,0,0,0-1.11-.09c-.44.47-.34,1.45-.3,2,0,.21,0,1,.34.87s.2-1.38.19-1.54l0-.22-.12,1.41c.39-1.15,1.11.92,1.19,1.2.26,1,.52,2.06.77,3.09.5,2,1,4,1.44,5.95.94,4,1.83,8,2.7,11.95,1.75,8.06,3.4,16.14,5.11,24.21q.7,3.36,1.44,6.7c.24,1.12.49,2.24.74,3.35a21,21,0,0,1,.75,3.26l.12-1.41c-.42,1.16-1.07-.92-1.14-1.22l-.69-3.1c-.44-2-.88-4-1.3-6q-1.29-6-2.53-12C33.84,320.08,32.15,312,30.31,304Q28.75,297.17,27,290.4c-.12-.47-.24-.36-.39,0A3.43,3.43,0,0,0,26.61,292.17Z"/><path class="cls-8" d="M10.56,303.21C19.4,319.35,27,336.14,35.31,352.53a.58.58,0,0,0,1-.55C28,335.6,20.43,318.8,11.59,302.67c-.36-.65-1.39-.12-1,.54Z"/><path class="cls-9" d="M10.49,304.42c8.11,14.83,15.16,30.19,22.72,45.3l1.42,2.81c.21.42.48,1.42,1,1.54,1.14.24,1.07-1.87,1-2.47a7.53,7.53,0,0,0-.93-2.21c-.48-.93-.95-1.87-1.42-2.81L31.51,341c-3.7-7.53-7.32-15.1-11.07-22.61q-3.11-6.24-6.36-12.4l-1.6-3c-.3-.54-.66-1.91-1.47-1.82-1.18.13-.8,2.46-.58,3.16.16.52.35-.34.37-.45a3.67,3.67,0,0,0-.1-1.71l-.07-.23.1,1.71c-.08.26,0,.26.28,0a.45.45,0,0,1,.51.25,6.79,6.79,0,0,1,.93,1.7l1.6,3q1.66,3.15,3.28,6.32,3.24,6.36,6.37,12.78c2.05,4.2,4.09,8.42,6.15,12.62q1.54,3.15,3.1,6.3c.5,1,1,2,1.51,3a22,22,0,0,1,1.76,3.5l0-1.51c.07-.26,0-.27-.29,0-.33,0-.55-.15-.65-.56a18.65,18.65,0,0,1-.87-1.73l-1.52-3q-1.62-3.25-3.21-6.51-3.09-6.3-6.15-12.62c-4.13-8.45-8.33-16.87-12.84-25.12-.16-.29-.34.83-.34.87A3,3,0,0,0,10.49,304.42Z"/><path class="cls-8" d="M37.59,335.45A16.59,16.59,0,0,1,34.38,341a8.67,8.67,0,0,0-1.94,4.63,8.32,8.32,0,0,0-2.62-1.37c-.69-.14-1.42-.16-2.12-.3a23.23,23.23,0,0,1-5-1.19,15,15,0,0,1-2.13-1.39,5.09,5.09,0,0,1-2-2,2.81,2.81,0,0,1,.37-3.14c.5-.51,1.26-.79,1.54-1.45a2.07,2.07,0,0,0-.9-2.25c-1.83-1.5-4.43-1.65-6.42-2.92S8.59,324.09,11,322c.51-.44,1.19-.64,1.71-1.07a3.36,3.36,0,0,0,.71-3.63A11.85,11.85,0,0,0,11.27,314a13.63,13.63,0,0,1-2.64-4.61,6.73,6.73,0,0,1,1.73-6.66c1.68-1.46,4.34-.8,6.17.47,3.67,2.54,5.6,6.95,6.62,11.3.19.79.61,1.8,1.42,1.71s1-.91,1.38-1.51a3.32,3.32,0,0,1,4.28-.89,4.93,4.93,0,0,1,2.35,4,9.94,9.94,0,0,1-1,4.66c-.62,1.46-1.76,3.35-1,5,1.14,2.48,3.26.53,5.21,1.17a3.69,3.69,0,0,1,2.29,3A8,8,0,0,1,37.59,335.45Z"/><path class="cls-9" d="M37.5,335.26a22.18,22.18,0,0,1-3.33,5,9.56,9.56,0,0,0-2.2,4.78l.58-.57A8.27,8.27,0,0,0,29.86,343c-1.05-.28-2.18-.39-3.25-.61a18.77,18.77,0,0,1-3.39-.88,13.39,13.39,0,0,1-2.83-1.82c-.55-.4-1.56-1.13-1.29-1.72s1.37-1,1.77-1.69a4.52,4.52,0,0,0-1.06-5.33c-1.43-1.22-3.32-1.57-5-2.25a6.61,6.61,0,0,1-3.62-3.24c-.21-.43-.46-.92-.32-1.27.32-.86,1.7-1.16,2.32-1.77,1.29-1.28,1.4-3.46,1.08-5.14-.38-2-1.67-3.51-2.89-5.08-1.07-1.38-2.43-3.16-2.18-5a3.81,3.81,0,0,1,3.56-3.47,7.59,7.59,0,0,1,5.18,2.53A15.47,15.47,0,0,1,21.08,311c.79,1.79,1,3.78,1.81,5.54.72,1.58,2.09,1.89,3.09.38.5-.77.84-1.38,1.79-1.64a3.25,3.25,0,0,1,2.61.45c2.24,1.55,1.29,4.11.37,6.14s-1.61,4.26-.8,6.47c.75,2,2.07,2.26,4,2a3.11,3.11,0,0,1,2.63.49c1.1.94.84,2.16.44,3.38a3.4,3.4,0,0,0,.06,2.51c.29.56.86.7,1.1,0,.76-2.34,1.18-4.91.21-7.26A4,4,0,0,0,34,326.77a4.37,4.37,0,0,1-2.21.09c-1.2-.51-.18-1.81.19-2.65A13.09,13.09,0,0,0,33.27,317C33,315,32,312.8,30.1,312a3.76,3.76,0,0,0-4.66,1.36c-.22.32-.44,1.06-.91,1.13s-.63-.5-.74-.86c-.33-1.11-.59-2.23-1-3.33a21.52,21.52,0,0,0-3.07-5.85c-2.13-2.74-6.89-6.27-10-2.95s-2.4,8.56-.22,12.06a31.1,31.1,0,0,0,1.94,2.62c.49.62,1.67,1.81,1.36,2.64s-1.81,1.2-2.43,1.9a4.75,4.75,0,0,0-1.05,2.59,8.62,8.62,0,0,0,5.53,8.9,32.42,32.42,0,0,1,3.33,1.24,7.75,7.75,0,0,1,.79.46c.21.14.59.64.8.69l.15-1-.24.25a5.11,5.11,0,0,0-.75.57c-1.72,1.48-1.76,4.41-.75,6.3a6.3,6.3,0,0,0,2.25,2.19,11.73,11.73,0,0,0,3.53,1.78,30.39,30.39,0,0,0,4.23.72,11.42,11.42,0,0,1,2,.27,10.33,10.33,0,0,1,2.16,1.13c.43.26.6-.64.62-.85.24-2.27,1.41-3.75,2.61-5.58a15.58,15.58,0,0,0,2.14-4.78C37.73,335.48,37.63,335,37.5,335.26Z"/><path class="cls-8" d="M45.43,296c-1.29,18.35-1.15,36.77-1.88,55.14a.58.58,0,0,0,1.16.07c.74-18.38.59-36.8,1.88-55.15a.58.58,0,0,0-1.16-.06Z"/><path class="cls-9" d="M45.17,295.64C44,312.51,44,329.42,43.45,346.31a28.22,28.22,0,0,0-.11,5.66c.14.74.88,1.46,1.43.57a4.6,4.6,0,0,0,.25-2c0-1.08.08-2.16.11-3.23.07-2,.13-4,.18-6.05.23-8.59.36-17.17.63-25.76.14-4.72.33-9.44.6-14.15.07-1.16.14-2.32.22-3.48a10.85,10.85,0,0,0,.05-2.67c-.22-1.18-1.28-1.27-1.57-.09a3.19,3.19,0,0,0,0,1.76c.14.36.26.51.39,0,.06-.23.4-.09.52-.15l.25.14c-.08-.81-.13-.86-.14-.15s-.11,1.66-.16,2.48c-.12,2-.23,4-.32,6-.17,3.64-.3,7.28-.41,10.93-.22,7.31-.35,14.63-.53,21.95-.09,3.78-.19,7.56-.34,11.34,0,0,0,1,0,1,.4-.58-.71.52-.46.1l-.26-.14c.07.81.1.85.1.14,0-.4,0-.83,0-1.24q.1-2.77.18-5.55c.22-7.45.34-14.91.53-22.36.21-8.34.51-16.68,1.09-25,0-.22.09-1.45-.19-1.53S45.18,295.44,45.17,295.64Z"/><path class="cls-8" d="M35.51,336.62a16.77,16.77,0,0,0,5.24,3.7,8.86,8.86,0,0,1,3.7,3.4,8.27,8.27,0,0,1,1.8-2.34c.57-.42,1.23-.74,1.81-1.16A23.52,23.52,0,0,0,52.12,337a15,15,0,0,0,1.36-2.15,5.14,5.14,0,0,0,1-2.66,2.83,2.83,0,0,0-1.65-2.7c-.66-.25-1.47-.19-2-.67a2.09,2.09,0,0,1-.13-2.42c1-2.12,3.34-3.35,4.62-5.33s1.81-6.94-1.23-7.82c-.65-.18-1.35-.08-2-.26a3.33,3.33,0,0,1-2.16-3,11.47,11.47,0,0,1,.57-3.87,13.56,13.56,0,0,0,.47-5.29,6.73,6.73,0,0,0-4.36-5.32c-2.13-.63-4.28,1.08-5.41,3-2.27,3.85-2.18,8.65-1.29,13,.16.8.2,1.89-.58,2.15s-1.28-.42-1.88-.8a3.34,3.34,0,0,0-4.26,1,4.94,4.94,0,0,0-.47,4.59,9.87,9.87,0,0,0,2.82,3.84c1.17,1.06,3,2.3,3,4.08,0,2.73-2.74,1.84-4.24,3.23a3.69,3.69,0,0,0-.84,3.66A8.09,8.09,0,0,0,35.51,336.62Z"/><path class="cls-9" d="M35.46,336.86a14.73,14.73,0,0,0,4.12,3.66,11.63,11.63,0,0,1,4.52,4.06c.14.25.41.51.64.17a7.48,7.48,0,0,1,2.41-2.56c1.1-.65,2.19-1.32,3.23-2.06a12.53,12.53,0,0,0,4.29-5.39c.79-1.88.75-4.55-.7-6.13a3.73,3.73,0,0,0-2.48-1.12l-.24-.09c-.18.61-.2.74,0,.39s.31-.56.48-.8a11.54,11.54,0,0,1,1.19-1.33c1.36-1.31,2.81-2.54,3.5-4.35a11.4,11.4,0,0,0,.63-5.43c-.19-1.5-.76-3.25-2.17-4-.92-.51-2-.25-2.9-.62a2,2,0,0,1-1.18-2.48c.47-2.6,1.26-5,1-7.68a9.06,9.06,0,0,0-2.64-5.78,4.65,4.65,0,0,0-5.53-1.06,9.15,9.15,0,0,0-3.87,5,19.9,19.9,0,0,0-1.17,7.38,29.45,29.45,0,0,0,.3,3.63,11.74,11.74,0,0,0,.28,1.66c.23.82,0,0,.17.06l-.35.09a1.33,1.33,0,0,1-.58-.26,4.77,4.77,0,0,0-2.46-1,4,4,0,0,0-2.54,1c-1.69,1.48-2,4.09-1.68,6.18a10.6,10.6,0,0,0,3.79,6.25c.7.62,1.9,1.36,2.22,2.29,0-.09.19-.34,0-.2a2.42,2.42,0,0,1-.39.31,4.19,4.19,0,0,1-1.09.4,5.58,5.58,0,0,0-2.21,1,5,5,0,0,0-1.46,3.12,8.68,8.68,0,0,0,2.6,7.1c1,1,1.4-2.34.71-3.09a6.56,6.56,0,0,1-1.73-2.48c-.22-.85.49-1.44,1.21-1.76,1.1-.5,2.42-.47,3.21-1.51a5.67,5.67,0,0,0,.29-5.12c-.68-1.65-2.18-2.62-3.42-3.82s-3.15-3.24-1.83-4.95a3,3,0,0,1,2.23-1.13c1.16-.06,1.67.74,2.67,1.12,1.8.68,2.27-1.75,2.25-3,0-2.12-.69-4.17-.68-6.31a12,12,0,0,1,1.63-6.21c1-1.66,3-3.28,5.07-2.54a5.51,5.51,0,0,1,3.48,4.2c.28,2.27-.83,4.5-1.07,6.73-.2,1.9,0,4.19,1.45,5.63a3.21,3.21,0,0,0,2.08,1,3.29,3.29,0,0,1,2.35.8,3,3,0,0,1,.25,2.94c-.52,1.67-2,2.76-3.19,3.94-1.53,1.52-2.65,3.27-2.49,5.5a3.15,3.15,0,0,0,1.31,2.66c.81.44,2.26.19,2.67,1.23.32.81-.9,2.4-1.35,3.11a11,11,0,0,1-3,2.81c-1,.77-2.2,1.44-3.2,2.25a8.79,8.79,0,0,0-1.91,2.57h.53a9.38,9.38,0,0,0-4.24-3.35,22.87,22.87,0,0,1-4.91-3C35.39,336.22,35.39,336.78,35.46,336.86Z"/><path class="cls-10" d="M47.25,333.67a18.59,18.59,0,0,1-5,5.15,9.85,9.85,0,0,0-3.37,4.5,9.28,9.28,0,0,0-2.47-2.21c-.7-.34-1.49-.56-2.21-.9a26.22,26.22,0,0,1-5.12-2.67,16.6,16.6,0,0,1-1.94-2.08,5.81,5.81,0,0,1-1.63-2.73,3.16,3.16,0,0,1,1.26-3.3c.68-.41,1.59-.52,2.07-1.15a2.35,2.35,0,0,0-.36-2.69c-1.58-2.12-4.36-3-6.17-4.91s-3.41-7.26-.25-8.85c.67-.34,1.46-.37,2.14-.7A3.75,3.75,0,0,0,26,307.39a13.3,13.3,0,0,0-1.42-4.14,15.28,15.28,0,0,1-1.61-5.72,7.54,7.54,0,0,1,3.7-6.75c2.22-1.13,4.93.31,6.57,2.19,3.28,3.76,4.17,9.07,4.09,14.06,0,.92.17,2.12,1.08,2.25s1.32-.72,1.9-1.26a3.73,3.73,0,0,1,4.89.2,5.51,5.51,0,0,1,1.46,4.95,11.17,11.17,0,0,1-2.31,4.8c-1.07,1.41-2.82,3.15-2.46,5.1.55,3,3.39,1.47,5.33,2.69a4.15,4.15,0,0,1,1.68,3.85A9,9,0,0,1,47.25,333.67Z"/><path class="cls-9" d="M47.18,333.43a24.86,24.86,0,0,1-5,4.56,10.26,10.26,0,0,0-3.64,4.49l.63-.21A11.56,11.56,0,0,0,37,340.14a22.87,22.87,0,0,0-3.24-1.53c-1.06-.51-2.15-1-3.17-1.58a11.15,11.15,0,0,1-2.87-2.61c-.58-.69-1.88-1.75-1.37-2.7s1.82-1,2.58-1.64c1.62-1.46,1-4.44-.1-6-1.28-1.77-3.37-2.7-5.08-4a6.65,6.65,0,0,1-2.65-4.05c-.32-1.57.63-2.39,2.07-2.82a4.24,4.24,0,0,0,2.46-1.43,6.16,6.16,0,0,0,1.07-2.93c.29-2.48-.65-4.68-1.64-6.87s-1.93-4.62-.7-7c1-1.95,3-3.38,5.27-2.71A9,9,0,0,1,34.56,297a18.24,18.24,0,0,1,1.85,6.59c.21,2-.26,4.39.63,6.29a1.73,1.73,0,0,0,1.7,1.2c1-.12,1.5-1.25,2.32-1.71a3.43,3.43,0,0,1,4.83,2.17c.54,2.47-2,4.86-3.34,6.66a7,7,0,0,0-1,6.95c.83,1.79,2.46,1.66,4.15,1.92a2.65,2.65,0,0,1,2.33,1.79c.24,1.13-.67,2.43-1.24,3.33a3.11,3.11,0,0,0-.22,2.43c.13.41.64,1.32,1.08.62a10.43,10.43,0,0,0,1.84-7.45c-.35-2-1.5-3.81-3.62-4.23a14.38,14.38,0,0,1-2.54-.35c-1.2-.47-.55-1.12,0-2,1.47-2,3.08-3.85,3.75-6.35a9.23,9.23,0,0,0-.94-7.37,4.4,4.4,0,0,0-5.35-1.71c-.65.3-1.94,2.14-2.64,1.67-.43-.28-.17-2.55-.21-3.21a27.59,27.59,0,0,0-1.43-7.48c-1.34-3.72-5.36-10-10.18-7.67s-4.76,9.09-3.21,13.36c.49,1.33,1.16,2.58,1.66,3.91s.48,2.41-.89,3.08c-.94.45-2,.43-2.81,1.14a4.64,4.64,0,0,0-1.37,2.27,10.32,10.32,0,0,0,3.49,10.52c1.11.85,2.35,1.5,3.45,2.35a7.37,7.37,0,0,1,.8.68c.24.24.47.72.72.89l.12.18c.23-.72.14-.86-.26-.4-.31.13-.63.29-.94.43-2.52,1.12-2.9,4.45-2,6.79a11.31,11.31,0,0,0,2.49,3.42,10.73,10.73,0,0,0,3.42,2.52A37.91,37.91,0,0,0,35,341.89a8.88,8.88,0,0,1,3.64,2.47c.26.26.52.12.63-.2.86-2.4,2.38-3.81,4.22-5.46a17.14,17.14,0,0,0,3.85-4.83C47.4,333.77,47.34,333.24,47.18,333.43Z"/><path class="cls-11" d="M50.67,351.11a17.82,17.82,0,0,0-7.39-1.59,14.51,14.51,0,0,0-10.46,3.89c-3.76,3.66-6.43,10.43-2.74,15.08,1.81,2.27,4.94,2.89,7.78,3.52s6,1.66,7.25,4.27c-.6-1.22,3-4.84,3.84-5.51,1.75-1.49,4-2,5.64-3.57,1.89-1.77,3.36-4.27,3-6.82C57.15,357.22,53.5,352.48,50.67,351.11Z"/><path class="cls-9" d="M50.7,350.78c-7-3.24-15.87-1.68-20.19,5-3.53,5.44-3.47,13.4,3.54,15.82,3.66,1.26,8.83,1.25,10.88,5.13.3.57.48-.49.39-.73-.22-.63,1.55-2.42,2-2.89a14.24,14.24,0,0,1,2.37-2.22c1.45-1,3.17-1.58,4.56-2.69a10.42,10.42,0,0,0,2.9-3.65,8.2,8.2,0,0,0-.56-7.77,15,15,0,0,0-5.85-6.19c-.32-.16-.41.94-.1,1.1a14.71,14.71,0,0,1,5.92,6.56,5.89,5.89,0,0,1,.19,5.43,9.78,9.78,0,0,1-3.64,4,31.74,31.74,0,0,0-4.23,2.53A18.27,18.27,0,0,0,47.1,372c-1,1.1-2.81,2.95-2.21,4.63l.39-.73c-3.15-5.92-11.83-3-15.43-8.25-4.27-6.26,2-14.75,8-16.87a17.46,17.46,0,0,1,12.77.71C50.84,351.53,50.89,350.87,50.7,350.78Z"/><path class="cls-12" d="M28.74,360.68a38.68,38.68,0,0,0,11.05-2.31c.28-.1.06-.51-.22-.41a38,38,0,0,1-10.81,2.26c-.29,0-.32.48,0,.46Z"/><path class="cls-9" d="M28.74,361.93a39.25,39.25,0,0,0,5.91-.81c.94-.21,1.87-.44,2.78-.72.47-.14.93-.28,1.38-.44s1-.2,1.18-.51a2.74,2.74,0,0,0,.19-1.6c0-.31,0-1-.39-1.12s-.91.23-1.19.32c-.49.17-1,.32-1.47.46a37,37,0,0,1-5.7,1.2c-.58.08-1.16.14-1.74.19-.35,0-1-.07-1.2.24a3,3,0,0,0-.22,1.81c0,.33.05.92.47,1s.49-2.42,0-2.5c-.08,0-.12,0-.13-.08l.16.57v-.09l0,1.52c-.1.16-.09.2,0,.12l.42,0,.82-.07c.48,0,.95-.09,1.43-.16,1-.12,2-.29,2.92-.5s1.93-.44,2.88-.72l1.37-.44c.28-.09,1.06-.55,1.24-.21l-.19-.88v.1l.13-1.41a5.37,5.37,0,0,1-.77.25l-.59.19L37,358c-.89.25-1.79.47-2.69.66a39.37,39.37,0,0,1-5.61.75C28.3,359.46,28.37,362,28.74,361.93Z"/><path class="cls-12" d="M34.83,365.38a27,27,0,0,0,7.58-2.14c.28-.12.06-.53-.22-.41a26.53,26.53,0,0,1-7.45,2.1c-.3,0-.2.49.09.45Z"/><path class="cls-9" d="M34.83,366.63a27.4,27.4,0,0,0,4.21-.89c.67-.2,1.34-.43,2-.68.33-.12.66-.26,1-.4s.59-.22.69-.63a4.58,4.58,0,0,0,.06-1.65c0-.24-.1-.75-.42-.81s-.6.21-.81.29-.7.29-1.06.41a25.82,25.82,0,0,1-4.13,1.15l-1.19.2c-.33.05-.6,0-.73.36a4,4,0,0,0-.07,2.06c.06.26.16.59.47.59s.42-2.49,0-2.5c-.14,0-.12-.06-.08.14l.08.88v-.06l-.13,1.08s.76-.09.88-.12l1-.17c.71-.14,1.42-.32,2.12-.52s1.34-.41,2-.66a8.3,8.3,0,0,1,1.71-.61l-.12-.75v.07l.07-1.22v.07l.12-.32c-.15.2-.59.29-.82.39l-.92.36c-.64.23-1.29.44-1.94.63a26.48,26.48,0,0,1-3.94.81c-.3.05-.27,1.05-.27,1.25S34.57,366.67,34.83,366.63Z"/><path class="cls-12" d="M42.17,354.81A42.89,42.89,0,0,0,51.59,352c.28-.12.06-.54-.21-.42a42.6,42.6,0,0,1-9.31,2.83c-.29.05-.19.51.1.45Z"/><path class="cls-9" d="M42.17,356.06a41.8,41.8,0,0,0,5-1.24c.84-.26,1.67-.55,2.49-.86l1.15-.45c.29-.12.75-.23.93-.49a3.14,3.14,0,0,0,.18-1.77c0-.28-.06-.86-.4-1s-.76.24-1,.35c-.44.18-.88.35-1.33.51a41.38,41.38,0,0,1-5,1.51l-1.39.31c-.36.07-.88,0-1.07.4a3.66,3.66,0,0,0-.13,1.86c0,.31.1.84.51.84s.41-2.5,0-2.5c-.11,0-.13,0-.19-.1l.13.32,0-.08.07,1.22v-.08l-.13.75.56-.08.69-.14,1.21-.28c.83-.2,1.66-.43,2.47-.68s1.63-.53,2.43-.83a11.8,11.8,0,0,1,2.18-.77l-.13-1.41v.08l.19-.87c-.13.25-.76.39-1,.5l-1.15.44c-.79.3-1.6.57-2.41.82a42.85,42.85,0,0,1-4.88,1.19C41.66,353.65,41.9,356.11,42.17,356.06Z"/><path class="cls-12" d="M47.38,358.32a23.81,23.81,0,0,0,3.79-1.19c.28-.11.06-.52-.21-.41a22.7,22.7,0,0,1-3.68,1.14.24.24,0,0,0,.1.46Z"/><path class="cls-9" d="M47.38,359.57a24.68,24.68,0,0,0,2.38-.66c.39-.13.79-.28,1.17-.43a1,1,0,0,0,.42-.22,1,1,0,0,0,.14-.39,4.13,4.13,0,0,0,.09-.93,2.5,2.5,0,0,0-.23-1.3.39.39,0,0,0-.31-.19,1.81,1.81,0,0,0-.49.18l-.58.22a24,24,0,0,1-2.34.68c-.17,0-.41.05-.54.19a.68.68,0,0,0-.12.22,2.51,2.51,0,0,0-.13.82,3.45,3.45,0,0,0,.16,1.53.38.38,0,0,0,.38.28c.12,0,.18-.3.19-.37a3.28,3.28,0,0,0,.08-.88,3.78,3.78,0,0,0-.08-.89c0-.08-.07-.38-.19-.36a.28.28,0,0,1-.18,0l.08,0-.05,0a.68.68,0,0,1,.07.2l.07.55v.63l0,.23-.1.45c0-.05,0,0,0,0a.1.1,0,0,1,.05,0l-.08,0a2.83,2.83,0,0,1,.5-.13l.5-.12,1.08-.31c.35-.11.69-.23,1-.36l.51-.2c.13,0,.23-.1.36,0l-.07-.05.06.06s0-.09,0,0l-.1-.45v0l0-.63v0l.08-.88c0-.29.15-.27,0-.18l.07-.05a9.47,9.47,0,0,1-.93.37l-.94.31c-.65.21-1.3.38-2,.53-.13,0-.18.28-.2.36a4.4,4.4,0,0,0-.08.89C47.1,358.43,47.13,359.62,47.38,359.57Z"/><path class="cls-12" d="M31.7,355.41a38,38,0,0,0,6.29-.94c.29-.07.19-.53-.1-.46a36.68,36.68,0,0,1-6.16.94c-.3,0-.33.48,0,.46Z"/><path class="cls-9" d="M31.7,356.66c1.22-.08,2.43-.21,3.64-.41l1.77-.33a6.59,6.59,0,0,0,.88-.2.66.66,0,0,0,.37-.57,4.65,4.65,0,0,0,0-1.82c0-.2-.11-.5-.35-.57a1.72,1.72,0,0,0-.7.14l-1,.19c-1.19.24-2.4.41-3.61.53a6.8,6.8,0,0,0-1,.08c-.25.06-.34.23-.4.47a4.32,4.32,0,0,0,0,2c0,.22.13.52.4.53s.28-1.08.28-1.25a4.38,4.38,0,0,0-.09-.88c0-.09-.06-.36-.19-.37-.32,0,0,.08.06.7l0,1v-.05l-.09.45h0l.08,0a2.45,2.45,0,0,1,.48,0l.83-.07c.6-.06,1.2-.14,1.79-.23s1.18-.19,1.77-.31l.82-.18a4,4,0,0,1,.47-.11c.18,0,.13.07.08-.16l-.08-.89v.06l.08-.89c.1-.15.11-.2,0-.16l-.23,0-.36.08-.82.17c-.53.11-1.06.2-1.6.29-1.08.16-2.18.28-3.28.35-.3,0-.28,1.07-.27,1.25S31.42,356.68,31.7,356.66Z"/><path class="cls-12" d="M33.17,370.73a15.82,15.82,0,0,0,4.49-.53c.29-.08.19-.54-.1-.46a15.67,15.67,0,0,1-4.37.53c-.3,0-.32.46,0,.46Z"/><path class="cls-9" d="M33.17,372a17.11,17.11,0,0,0,2.77-.17c.47-.08.93-.17,1.39-.28a1,1,0,0,0,.51-.19c.23-.22.24-.73.26-1a3.72,3.72,0,0,0-.14-1.52.43.43,0,0,0-.29-.32,1.35,1.35,0,0,0-.52.11l-.71.15a15.69,15.69,0,0,1-2.73.27,1.72,1.72,0,0,0-.64,0c-.21.09-.26.34-.31.54a4.27,4.27,0,0,0,0,2c.06.19.14.39.37.41s.18-.33.19-.36a3.32,3.32,0,0,0,.08-.89,3.7,3.7,0,0,0-.08-.88c0-.1-.06-.35-.19-.37s-.09-.11,0,.19l.07.55v.59l-.07.55s-.07.18-.06.19,0,0,0,0a1.07,1.07,0,0,0,.25,0h.69a13,13,0,0,0,1.39-.11c.45,0,.89-.13,1.34-.22l.66-.16a.58.58,0,0,1,.23,0h0l0,0c.06.08,0,0-.07-.21l-.07-.55v-.59l.07-.55c.06-.27.14-.24,0-.17a1.83,1.83,0,0,1-.25.06l-.58.14c-.41.08-.82.15-1.23.2a15.17,15.17,0,0,1-2.43.13c-.12,0-.18.32-.2.37a4.94,4.94,0,0,0,0,1.77C33,371.71,33,372,33.17,372Z"/><path class="cls-12" d="M48.31,366.43a22.15,22.15,0,0,0,8.55-3.28c.25-.16,0-.58-.21-.41A22.13,22.13,0,0,1,48.21,366c-.29,0-.19.5.1.45Z"/><path class="cls-9" d="M48.31,367.68A22.2,22.2,0,0,0,53,366.4a22.52,22.52,0,0,0,2.18-1c.36-.19.71-.39,1.06-.6s.74-.34.88-.67a3.78,3.78,0,0,0,.12-1.83c0-.25-.09-.84-.44-.85a.65.65,0,0,0-.32.16l-.57.35c-.37.21-.74.42-1.12.61a21.14,21.14,0,0,1-4.42,1.7c-.43.12-.87.22-1.31.31s-.84,0-1,.29a1.61,1.61,0,0,0-.19.67,5.26,5.26,0,0,0,0,1.19c0,.31.08,1,.52.95s.41-2.5,0-2.5c0,0-.12,0-.13,0l.13.75v-.07l-.07,1.22V367l-.12.32c.12-.2.84-.21,1.06-.26.39-.08.78-.17,1.16-.28a21,21,0,0,0,2.4-.78A22.27,22.27,0,0,0,55,365c.35-.19.7-.38,1-.59.19-.11.74-.6.89-.32l-.13-.32,0,.08,0-1.52c.14-.35.12-.45-.08-.28l-.32.2-.52.31c-.31.18-.62.34-.94.5a21.11,21.11,0,0,1-2.12,1,22.18,22.18,0,0,1-4.45,1.2C47.81,365.27,48,367.73,48.31,367.68Z"/><path class="cls-12" d="M43.82,370.78a10.31,10.31,0,0,0,2.29-.84c.27-.13,0-.55-.22-.41a9.71,9.71,0,0,1-2.17.79c-.29.07-.19.53.1.46Z"/><path class="cls-9" d="M43.82,372a10.11,10.11,0,0,0,1.61-.53l.36-.15a3.36,3.36,0,0,0,.42-.22.73.73,0,0,0,.21-.45,4.13,4.13,0,0,0,.09-.93,4.88,4.88,0,0,0-.09-.93c0-.2-.17-.62-.47-.56a1.74,1.74,0,0,0-.34.16l-.4.17c-.25.11-.51.2-.77.29l-.38.11a2.48,2.48,0,0,0-.39.1.48.48,0,0,0-.26.31,2.73,2.73,0,0,0-.13.8,5.66,5.66,0,0,0,0,1c0,.25.11.89.51.82.12,0,.17-.29.19-.37a3.28,3.28,0,0,0,.08-.88,3.78,3.78,0,0,0-.08-.89c0-.07-.07-.38-.19-.36a.24.24,0,0,1-.17,0l.07.05a.25.25,0,0,1-.08-.1l.07.13s0,0,0,.06a1.36,1.36,0,0,1,.06.29l0,.63q-.32,1.44-.12,1l-.06.13a.18.18,0,0,1,.08-.09l-.07,0a1.47,1.47,0,0,1,.28-.08l.34-.09.68-.23.64-.28c.15-.06.34-.22.51-.14l-.07,0a.27.27,0,0,1,.1.11l-.06-.13c.09.23.06,0-.1-.63v-.67l.1-.66.07-.13a.24.24,0,0,1-.08.09l.07,0a7.45,7.45,0,0,1-1.12.49c-.39.14-.79.26-1.19.36-.13,0-.18.28-.2.36a4.4,4.4,0,0,0-.08.89,4.3,4.3,0,0,0,.08.88C43.64,371.73,43.7,372.06,43.82,372Z"/><path class="cls-12" d="M52.19,361.39a8.72,8.72,0,0,0,2.5-.95c.26-.14,0-.56-.22-.41a8.81,8.81,0,0,1-2.38.91.23.23,0,0,0,.1.45Z"/><path class="cls-9" d="M52.19,362.64a8.65,8.65,0,0,0,1.72-.56,4.52,4.52,0,0,0,.85-.43.74.74,0,0,0,.24-.46,4.9,4.9,0,0,0,.08-.77,4.53,4.53,0,0,0-.08-1.1,1,1,0,0,0-.2-.46.29.29,0,0,0-.27-.1,1.66,1.66,0,0,0-.35.18,4.09,4.09,0,0,1-.42.2,7.67,7.67,0,0,1-.84.32c-.28.09-.57.14-.84.23a.44.44,0,0,0-.29.29,2.81,2.81,0,0,0-.14.81,4.88,4.88,0,0,0,0,1c0,.25.1.91.51.84.12,0,.17-.29.19-.36a3.32,3.32,0,0,0,.08-.89,3.7,3.7,0,0,0-.08-.88c0-.08-.07-.39-.19-.37a.22.22,0,0,1-.16,0l.07,0a.26.26,0,0,1-.09-.09l.07.12s0,0,0,.06a1.5,1.5,0,0,1,.06.29l0,.63c-.22.95-.26,1.27-.11.95l-.07.13.08-.08-.07.05a1.68,1.68,0,0,1,.32-.09l.36-.1a6.49,6.49,0,0,0,.74-.26c.24-.09.47-.2.7-.31l.33-.18a.24.24,0,0,1,.22,0l-.07,0a.28.28,0,0,1,.09.1l-.07-.12c.06.14,0,0-.07-.36l0-.63V360l.07-.55c0-.16.06-.2,0-.13l.07-.13a.22.22,0,0,1-.09.1l.07-.05a9,9,0,0,1-2.5.95c-.13,0-.18.28-.2.37a4.94,4.94,0,0,0,0,1.77C52,362.35,52.07,362.67,52.19,362.64Z"/><path class="cls-13" d="M101.5,335.39c-7.69,28.95-18.3,40.76-26.91,38.47s-12-17.81-4.26-46.76,19-43.55,27.66-41.26S109.2,306.45,101.5,335.39Z"/><path class="cls-9" d="M101.31,334.51c-2.37,8.88-5.3,17.85-9.9,25.86-2.52,4.4-5.83,9.26-10.55,11.51a8.66,8.66,0,0,1-9.72-1.17c-3.57-3.26-4.5-8.67-4.77-13.25-.51-8.7,1.2-17.55,3.26-26a132.5,132.5,0,0,1,9.61-27.59c2.67-5.37,6-11.1,10.91-14.74,2.94-2.19,6.93-3.33,10.14-1,3.87,2.83,4.92,8.46,5.32,12.91.76,8.53-.62,17.26-2.41,25.58q-.86,3.93-1.89,7.83a3.23,3.23,0,0,0,0,1.77c.15.36.26.5.39,0,2.56-9.7,4.51-19.7,4.64-29.75.08-5.89-.23-12.71-3.38-17.9-2.07-3.41-5.73-5.16-9.6-3.75-5.09,1.86-8.72,7-11.41,11.43-4.82,7.91-8,16.78-10.63,25.64-2.81,9.65-5.08,19.66-5.51,29.74-.25,6-.11,12.74,2.75,18.17,1.8,3.41,5.09,5.93,9.1,5.47,4.74-.54,8.47-4.57,11.11-8.2,5-6.87,8.13-15.08,10.68-23.11.82-2.56,1.56-5.15,2.25-7.74a3.23,3.23,0,0,0,0-1.77C101.55,334.15,101.44,334,101.31,334.51Z"/><path class="cls-14" d="M101.1,302c-2.17,4.73-8.31,2.51-11.58.77-1.7-.92-3.4-2.43-3.37-4.36A29.49,29.49,0,0,0,101.1,302Z"/><path class="cls-9" d="M101,301.81c-1.18,2.34-3.59,2.87-6,2.43a14.88,14.88,0,0,1-6.6-2.93l.19.33c-.19-.82-.69-1.15-1.19-1.77a2.47,2.47,0,0,1-.7-1.52l-.7,1.29a33.44,33.44,0,0,0,7.51,3.08,29.17,29.17,0,0,0,3.92.76c.7.09,1.39.14,2.09.18s1.33.2,1.9-.46a2.41,2.41,0,0,0-.06-2.51c-.6-.62-1.12-.45-1.93-.43-.6,0-1.21,0-1.82-.05a28.6,28.6,0,0,1-3.92-.51,30.18,30.18,0,0,1-7.44-2.61c-.61-.29-.71,1-.7,1.29a5.59,5.59,0,0,0,1,3.1c.38.56,1.34,1.88,2,1.13l-.24.08c3.68,2.22,10.53,4.58,12.87-.59C101.21,302,101.13,301.61,101,301.81Z"/><path class="cls-14" d="M86.52,356.81c-2.17,4.73-8.31,2.52-11.58.77-1.7-.91-3.4-2.42-3.37-4.36A29.39,29.39,0,0,0,86.52,356.81Z"/><path class="cls-9" d="M86.45,356.67c-1.18,2.33-3.59,2.86-6,2.43a15,15,0,0,1-6.59-2.93l.19.32c-.19-.81-.69-1.15-1.19-1.76a2.49,2.49,0,0,1-.7-1.52l-.7,1.28A32.53,32.53,0,0,0,79,357.57a29.2,29.2,0,0,0,3.92.77c.7.08,1.39.13,2.09.18s1.33.2,1.9-.46a2.41,2.41,0,0,0-.06-2.51c-.6-.63-1.12-.45-1.93-.44-.6,0-1.21,0-1.82-.05a25.8,25.8,0,0,1-3.92-.51,30.23,30.23,0,0,1-7.45-2.6c-.6-.3-.7,1-.69,1.29a5.58,5.58,0,0,0,1,3.09c.38.56,1.34,1.88,2,1.14l-.24.08c3.68,2.21,10.53,4.57,12.86-.6C86.63,356.85,86.55,356.47,86.45,356.67Z"/><path class="cls-14" d="M100.12,314.42c-2.81,6.13-10.75,3.26-15,1-2.21-1.18-4.41-3.14-4.36-5.64A38,38,0,0,0,100.12,314.42Z"/><path class="cls-9" d="M100.05,314.28c-1.9,3.8-6.12,3.85-9.72,2.77a25.36,25.36,0,0,1-4.8-2,7.65,7.65,0,0,1-1.33-.84c-.43-.38-.67-.92-1.07-1.34a4.68,4.68,0,0,1-1.77-3.06l-.69,1.28a42.41,42.41,0,0,0,9.5,3.87,38.89,38.89,0,0,0,4.9.95c.9.12,1.79.19,2.69.24s1.85.32,2.56-.29a2.2,2.2,0,0,0-.07-2.81c-.73-.56-1.69-.28-2.57-.29s-1.57,0-2.35-.1a35.4,35.4,0,0,1-4.91-.7,39.71,39.71,0,0,1-9.51-3.41c-.6-.3-.7,1-.7,1.28a6.65,6.65,0,0,0,1.23,3.81,6.52,6.52,0,0,0,1.4,1.47,1.08,1.08,0,0,0,.59.25,2.21,2.21,0,0,1,.9.29,25.63,25.63,0,0,0,5.52,2.29c4,1.11,8.41.86,10.34-3.34C100.23,314.46,100.15,314.08,100.05,314.28Z"/><path class="cls-14" d="M96.41,328.39c-2.81,6.12-10.75,3.26-15,1-2.2-1.18-4.4-3.14-4.36-5.64A38.1,38.1,0,0,0,96.41,328.39Z"/><path class="cls-9" d="M96.34,328.25c-1.9,3.8-6.12,3.85-9.73,2.77a25.59,25.59,0,0,1-4.79-2,6.74,6.74,0,0,1-1.33-.83c-.44-.38-.67-.92-1.08-1.34a4.71,4.71,0,0,1-1.76-3.07L77,325a42.18,42.18,0,0,0,9.51,3.86,37.21,37.21,0,0,0,4.9,1c.89.11,1.79.19,2.69.24s1.85.32,2.56-.29a2.22,2.22,0,0,0-.07-2.81c-.73-.57-1.7-.28-2.57-.29s-1.57,0-2.36-.1a36.59,36.59,0,0,1-4.9-.7,39.31,39.31,0,0,1-9.51-3.42c-.61-.3-.71,1-.7,1.29a6.67,6.67,0,0,0,1.22,3.81A6.78,6.78,0,0,0,79.13,329a1,1,0,0,0,.59.25,2.17,2.17,0,0,1,.89.29,26.44,26.44,0,0,0,5.53,2.29c4,1.11,8.41.85,10.33-3.34C96.52,328.43,96.44,328.05,96.34,328.25Z"/><path class="cls-14" d="M92.71,342.3c-2.81,6.12-10.75,3.25-15,1-2.21-1.18-4.41-3.13-4.36-5.64A38.07,38.07,0,0,0,92.71,342.3Z"/><path class="cls-9" d="M92.64,342.15c-1.9,3.8-6.12,3.85-9.72,2.77a25.36,25.36,0,0,1-4.8-2,6.62,6.62,0,0,1-1.33-.84c-.43-.38-.67-.91-1.07-1.33A4.68,4.68,0,0,1,74,337.64l-.69,1.29a42.27,42.27,0,0,0,9.51,3.86,36.75,36.75,0,0,0,4.89,1c.9.11,1.79.19,2.69.24s1.85.31,2.56-.3a2.19,2.19,0,0,0-.07-2.8c-.73-.57-1.69-.28-2.57-.29s-1.57,0-2.35-.1a37,37,0,0,1-4.91-.7,40.17,40.17,0,0,1-9.51-3.42c-.6-.3-.7,1-.7,1.29a6.74,6.74,0,0,0,2.63,5.27,1.09,1.09,0,0,0,.59.26,2,2,0,0,1,.9.29,26,26,0,0,0,5.53,2.29c4,1.11,8.41.85,10.33-3.34C92.82,342.34,92.74,342,92.64,342.15Z"/><path class="cls-10" d="M70.77,308.91a9.49,9.49,0,0,1,5.84-5.64,28.26,28.26,0,0,1,8.24-1.41c-.24,2-1.84,3.67-3.56,4.8a16.7,16.7,0,0,1-10.61,2.62"/><path class="cls-9" d="M70.87,309.14a8.84,8.84,0,0,1,5-5A15.87,15.87,0,0,1,80,303c.74-.11,1.48-.18,2.22-.23.39,0,.78,0,1.18-.05a2.52,2.52,0,0,1,1.31.32l-.38-1.84c-.48,2.53-3.1,4.17-5.28,5.17a16.49,16.49,0,0,1-8.43,1.39c-.83-.08-.89,2.87.07,2.95a17.14,17.14,0,0,0,9.3-1.87c2.67-1.39,5.07-3.55,5.37-6.7,0-.26-.08-1.94-.71-1.53a3,3,0,0,1-1.29.52l-1.18.16c-.83.11-1.65.24-2.47.42a15.9,15.9,0,0,0-4.18,1.43,9.7,9.7,0,0,0-4.9,5.51c0,.16.1.77.21.45Z"/><path class="cls-10" d="M70.27,309.38a18.1,18.1,0,0,0-1.45-8,11.8,11.8,0,0,0-5.53-5.87,9.82,9.82,0,0,0,7.38,14.29"/><path class="cls-9" d="M70.41,309.46a19.44,19.44,0,0,0-1.54-8.88,13.85,13.85,0,0,0-2.23-3.43,14.77,14.77,0,0,0-1.39-1.35,15.22,15.22,0,0,0-1.84-1.58.33.33,0,0,0-.44.14,12.25,12.25,0,0,0-.16,11.27A11.05,11.05,0,0,0,66,309.45a8.47,8.47,0,0,0,4.69,1.88c.91,0,.87-2.87.11-3.09a15.09,15.09,0,0,1-3.8-1.4,9.15,9.15,0,0,1-2.91-2.73,7.73,7.73,0,0,1-.4-7.74l-.54.35a7.1,7.1,0,0,1,1.56.5,9.34,9.34,0,0,1,1.45,1.12,11.64,11.64,0,0,1,2.16,2.86,16.65,16.65,0,0,1,1.78,8.18c0,.29.28.47.29.08Z"/><path class="cls-15" d="M93.87,340.61c4.38-8.86.46-22.95-9.12-26.84a25.29,25.29,0,0,0-9.47-1.67c-7,0-13.79,2.87-17.75,8.78a22.14,22.14,0,0,0-3.37,13,19.46,19.46,0,0,0,1.09,6.25c2.5,6.75,9.81,10.78,17,11.4C80.78,352.24,90.07,348.3,93.87,340.61Z"/><path class="cls-9" d="M94,340.94c3.3-6.65,2.37-15.22-1.34-21.51a17.15,17.15,0,0,0-8.2-7.38A25.57,25.57,0,0,0,69.43,311,20.54,20.54,0,0,0,58,318.05c-3.27,4.1-4.57,9.38-4.63,14.54s1.1,10.11,4.62,13.85a21.79,21.79,0,0,0,11.42,6.14c9.22,1.93,21.13-1.72,24.88-11.1a2.32,2.32,0,0,0,0-1.64c-.12-.27-.43-.74-.71-.3a22.38,22.38,0,0,1-8.17,7.77,24,24,0,0,1-11.27,2.76c-7.82,0-16.92-4.36-18.78-12.6a20.27,20.27,0,0,1,2-13.92,18.8,18.8,0,0,1,9.23-8,25.52,25.52,0,0,1,12.95-1.5,16.78,16.78,0,0,1,10.31,4.69c5.3,5.43,7.17,14.57,3.92,21.49C93.6,340.51,93.8,341.41,94,340.94Z"/><path class="cls-16" d="M71.16,319.69l.69,0a45.73,45.73,0,0,1,1.36-22.25c.21-.67-.84-1-1-.29a47,47,0,0,0-1.4,22.52A2.68,2.68,0,0,1,71.16,319.69Z"/><path class="cls-9" d="M71.16,320.94l.69,0c.44,0,.24-1.89.2-2.14a41.72,41.72,0,0,1-.17-14.1c.19-1.18.43-2.34.71-3.5s.68-2.07.85-3.13c.09-.52.16-3.25-1.11-2.43-.57.36-.67,1.64-.84,2.26-.3,1.09-.56,2.19-.78,3.29a50.82,50.82,0,0,0-.86,6.39,52.69,52.69,0,0,0,.72,13c0,.05.07.38.19.37l.4,0c.43,0,.38-2.52,0-2.5l-.4,0,.2.37a42.78,42.78,0,0,1-.52-11.24,43.26,43.26,0,0,1,.83-5.42c.18-.82.38-1.65.61-2.46a4.41,4.41,0,0,1,.45-1.5c.09-.09.65-.28.71-.06l0-1.51a26.74,26.74,0,0,1-.8,2.84c-.23,1-.44,1.93-.61,2.91a48.31,48.31,0,0,0-.71,6,52.06,52.06,0,0,0,.78,12.21l.19-2.13-.69,0C70.81,318.42,70.71,320.91,71.16,320.94Z"/><path class="cls-16" d="M64.23,320.43a17.1,17.1,0,0,0,15-4c.52-.47-.25-1.23-.76-.77a16,16,0,0,1-13.9,3.75c-.68-.14-1,.91-.29,1.05Z"/><path class="cls-9" d="M64.23,321.68a17.53,17.53,0,0,0,8.3-.33,16.46,16.46,0,0,0,3.76-1.61,18.49,18.49,0,0,0,1.61-1.05,4.74,4.74,0,0,0,1.53-1.35c.33-.64.5-2.95-.57-3.1-.48-.06-.94.55-1.27.82a16.08,16.08,0,0,1-1.94,1.31,15.81,15.81,0,0,1-7.74,2.09,16.31,16.31,0,0,1-2.42-.16c-.47-.07-1.15-.37-1.54,0a2.83,2.83,0,0,0-.37,2c0,.53.08,1.16.65,1.36.16.05.57-2.31,0-2.5-.72-.25-.57,1.47-.07,1.51.06,0,.21-.06.28-.06a5.47,5.47,0,0,1,1,.17,15.87,15.87,0,0,0,2.18.16A15.89,15.89,0,0,0,76,318.69a17.21,17.21,0,0,0,1.68-1.15,6.19,6.19,0,0,1,.85-.7.56.56,0,0,1,.37-.1c.1,0,.32.22.3.12l-.07-1.21,0-.46-.19.17a2.3,2.3,0,0,0-.38.32c-.26.21-.52.41-.79.6a17.59,17.59,0,0,1-1.88,1.2A16.94,16.94,0,0,1,72.19,319a17.69,17.69,0,0,1-8,.23C64,319.13,63.71,321.57,64.23,321.68Z"/><path class="cls-17" d="M70.38,338.9H6.13L21.9,385.76a6.35,6.35,0,0,0,6,4.32H87.28a6.33,6.33,0,0,0,6-4.32l15.77-46.86ZM33.22,376.31a2.78,2.78,0,0,1-2.78,2.78H30a2.79,2.79,0,0,1-2.78-2.78v-27A2.79,2.79,0,0,1,30,346.53h.44a2.78,2.78,0,0,1,2.78,2.78Zm18.57,0A2.79,2.79,0,0,1,49,379.09h-.44a2.78,2.78,0,0,1-2.78-2.78v-27a2.78,2.78,0,0,1,2.78-2.78H49a2.79,2.79,0,0,1,2.78,2.78Zm18.57,0a2.79,2.79,0,0,1-2.78,2.78h-.44a2.78,2.78,0,0,1-2.78-2.78v-27a2.78,2.78,0,0,1,2.78-2.78h.44a2.79,2.79,0,0,1,2.78,2.78Zm18.57,0a2.79,2.79,0,0,1-2.79,2.78h-.43a2.79,2.79,0,0,1-2.79-2.78v-27a2.79,2.79,0,0,1,2.79-2.78h.43a2.79,2.79,0,0,1,2.79,2.78Z"/><path class="cls-2" d="M70.38,337.65H6.13c-.48,0-.22,2.07-.14,2.33l11.54,34.29c1.41,4.18,2.72,8.41,4.23,12.56a6.67,6.67,0,0,0,4.76,4.35,14.71,14.71,0,0,0,3.25.15H85.59A12.59,12.59,0,0,0,89,391.1c2.76-.78,4-3,4.85-5.51l2.27-6.75,12.79-38,.29-.87c.09-.27.34-2.33-.14-2.33H70.38c-.4,0-.41,2.5,0,2.5h38.68l-.14-2.33L97.53,371.68c-1.45,4.31-2.82,8.67-4.36,12.95A6.25,6.25,0,0,1,88,388.8c-.89.09-1.82,0-2.72,0H29.77a17.66,17.66,0,0,1-2.91-.08A6.26,6.26,0,0,1,22,384.61c-.16-.45-.3-.9-.45-1.35l-2.28-6.76L6.56,338.69l-.29-.87-.14,2.33H70.38C70.78,340.15,70.79,337.65,70.38,337.65Z"/><path class="cls-2" d="M33,376c-.12,2.06-3.38,2.29-4.62,1.3a3.38,3.38,0,0,1-.83-1c0,.1,0,.06,0,0a2.67,2.67,0,0,1,0-.49V353.63a23.1,23.1,0,0,1,0-4.24c0-.05,0-.11,0,0a3.58,3.58,0,0,1,.83-1,3.24,3.24,0,0,1,2.42-.55,2.85,2.85,0,0,1,2.17,1.59c0-.13,0,.13,0,.22.14,1.6,0,3.29,0,4.9v21.8c0,.14,0,1.29.27,1.25s.28-1.09.28-1.25c0-9,.17-18,0-27,0-1.69-.56-3.54-2.42-4a3.23,3.23,0,0,0-4,2.44,21.53,21.53,0,0,0-.15,4.68V370.6c0,1.89,0,3.79,0,5.68s.67,3.78,2.73,4c2.41.3,3.68-1.48,3.81-3.68,0-.23.09-1.46-.19-1.54S33,375.78,33,376Z"/><path class="cls-2" d="M51.53,376c-.12,2.06-3.38,2.29-4.63,1.3a3.48,3.48,0,0,1-.82-1c0,.1,0,.06,0,0a2.67,2.67,0,0,1,0-.49V353.63a23.1,23.1,0,0,1,0-4.24c0-.05,0-.11,0,0a3.52,3.52,0,0,1,.82-1,3.26,3.26,0,0,1,2.43-.55,2.86,2.86,0,0,1,2.17,1.59c0-.13,0,.13,0,.22.14,1.6,0,3.29,0,4.9v21.8c0,.14,0,1.29.27,1.25s.28-1.09.28-1.25c0-9,.17-18,0-27,0-1.69-.56-3.54-2.42-4a3.23,3.23,0,0,0-4,2.44,21.53,21.53,0,0,0-.16,4.68V370.6c0,1.89,0,3.79,0,5.68s.67,3.78,2.74,4c2.41.3,3.68-1.48,3.81-3.68,0-.23.09-1.46-.2-1.54S51.54,375.78,51.53,376Z"/><path class="cls-2" d="M70.09,376c-.12,2.06-3.37,2.29-4.62,1.3a3.72,3.72,0,0,1-.83-1c0,.1,0,.06,0,0a2.67,2.67,0,0,1,0-.49V353.63a23.1,23.1,0,0,1,0-4.24c0-.05.05-.11,0,0a3.76,3.76,0,0,1,.83-1,3.26,3.26,0,0,1,2.43-.55,2.86,2.86,0,0,1,2.17,1.59c0-.13,0,.13,0,.22.15,1.6,0,3.29,0,4.9v21.8c0,.14,0,1.29.28,1.25s.27-1.09.27-1.25c0-9,.17-18,0-27,0-1.69-.55-3.54-2.42-4a3.22,3.22,0,0,0-4,2.44,20.92,20.92,0,0,0-.16,4.68V370.6c0,1.89,0,3.79,0,5.68s.67,3.78,2.73,4c2.41.3,3.69-1.48,3.81-3.68,0-.23.1-1.46-.19-1.54S70.1,375.78,70.09,376Z"/><path class="cls-2" d="M88.66,376c-.12,2.06-3.38,2.29-4.62,1.3a3.54,3.54,0,0,1-.83-1c0,.1,0,.06,0,0a2.67,2.67,0,0,1,0-.49V353.63a23.1,23.1,0,0,1,0-4.24c0-.05,0-.11,0,0a3.58,3.58,0,0,1,.83-1,3.26,3.26,0,0,1,2.43-.55,2.86,2.86,0,0,1,2.17,1.59c0-.13,0,.13,0,.22.15,1.6,0,3.29,0,4.9v21.8c0,.14,0,1.29.28,1.25s.27-1.09.27-1.25c0-9,.17-18,0-27,0-1.69-.56-3.54-2.42-4a3.23,3.23,0,0,0-4,2.44,21.53,21.53,0,0,0-.15,4.68V370.6c0,1.89,0,3.79,0,5.68s.67,3.78,2.73,4c2.41.3,3.68-1.48,3.81-3.68,0-.23.1-1.46-.19-1.54S88.67,375.78,88.66,376Z"/><rect class="cls-6" x="53.47" y="281.63" width="7.8" height="48.24" rx="3.59"/><path class="cls-2" d="M57.67,328.62c-1.65,0-3.72-.67-3.93-2.6-.08-.79,0-1.63,0-2.42V289.42c0-1.91-.57-4.38,1.09-5.75s5.64-1,6.16,1.6a9.62,9.62,0,0,1,0,1.78v37.67a8,8,0,0,1,0,1.55,3.51,3.51,0,0,1-3.32,2.35c-.43,0-.37,2.52,0,2.5,3.93-.19,3.87-4.16,3.87-7.08V287.83c0-2.65.37-6.38-2.86-7.31s-5.36,1.39-5.48,4.36c0,.6,0,1.2,0,1.8v35.93c0,2.2-.45,5.4,1,7.17a4.16,4.16,0,0,0,3.44,1.34C58.07,331.12,58.08,328.62,57.67,328.62Z"/><rect class="cls-6" x="0.31" y="325.63" width="114.12" height="15.4" rx="7.34"/><path class="cls-2" d="M107.08,339.78H12.7c-1.6,0-3.21,0-4.81,0a7.46,7.46,0,0,1-5-1.78,6,6,0,0,1-.12-9.23c2-1.83,4.32-1.89,6.79-1.89h97.53c3.48.07,7.07,2.73,7.07,6.45s-3.59,6.37-7.07,6.45c-.42,0-.39,2.51,0,2.5a7.71,7.71,0,0,0,7.38-6.19c.65-3,.32-6.76-1.78-9.16s-4.6-2.55-7.35-2.55h-82c-5.16,0-10.31,0-15.47,0a7.74,7.74,0,0,0-5.12,1.87c-2.52,2.2-3,5.76-2.62,8.92a7.82,7.82,0,0,0,6.51,7,13.1,13.1,0,0,0,1.77.07h98.68C107.48,342.28,107.49,339.78,107.08,339.78Z"/></g></g></svg>