<svg xmlns="http://www.w3.org/2000/svg" viewBox="0 0 251.66 276.27"><defs><style>.cls-1,.cls-4{fill:#494233;}.cls-1{stroke:#494233;}.cls-1,.cls-3{stroke-miterlimit:10;}.cls-2{fill:#f0efe8;}.cls-3{fill:#f5c641;stroke:#f5c641;}.cls-5{fill:#fff;}.cls-6{fill:#2c271f;}.cls-7{fill:none;stroke:#2c271f;stroke-linecap:round;stroke-linejoin:round;}</style></defs><title>資產 1</title><g id="圖層_2" data-name="圖層 2"><g id="圖層_1-2" data-name="圖層 1"><path class="cls-1" d="M232.17,41.46c-.94-4.44.58-14.74.79-15.85.81-4.47,6.63-5.69,3.92-16.38-.71-2.81-1.9-6.65-4.81-7.95-3.86-1.72-9.1-.23-12.88,1A59.2,59.2,0,0,1,209.8,5a30.25,30.25,0,0,1-10.25-.64C193.7,3.19,187.45,1.46,181.47,2a41.94,41.94,0,0,0-18.16,6.63,18.43,18.43,0,0,1-3.87,2.06,13.72,13.72,0,0,1-5.23.36c-2.52-.2-4.92-1.2-7.46-1.19a13.76,13.76,0,0,0-6.84,2.19,8,8,0,0,0-2.54,2.52,8.28,8.28,0,0,0-1.11,3,7,7,0,0,0-.44,2.51,10.6,10.6,0,0,0,2.93,5.57c2,2.15,4.4,3.89,6,6.31,1.76,2.61,2.43,5.79,3.19,8.85a6,6,0,0,0,1.23,2.77,5,5,0,0,0,1.8,1.09c4.25,1.66,9.26,1,13.34-.79,3.44-1.54,8.08-2,11.11-4.29,2.74-2.06,5.64-4.12,8.28-6.36a6.06,6.06,0,0,1,1.53-1.08c3.66-1.58,9.57,1.44,12.09,4,1.27,1.31,2.18,3,3.62,4.1a13.24,13.24,0,0,0,4.25,1.94l4.4,1.4a20.58,20.58,0,0,0,2.77.74,20.2,20.2,0,0,0,3.89.14l10-.3c2.08-.06,4.36-.21,5.87-1.64A3.27,3.27,0,0,0,232.17,41.46Z"/><path class="cls-2" d="M213.37,47a18,18,0,0,1-5.31-1,19.69,19.69,0,0,1-4.65-2.93l-7.5-5.77a11.35,11.35,0,0,0-4.77-2.57C187.27,34.13,184,37.46,181,40c-7.66,6.33-18,8.49-27.89,8.84a85.89,85.89,0,0,1,2,30.84,2.5,2.5,0,0,0,0,1.09c.32.88,1.47,1,2.4,1.14,5.19.6,9.5,4.08,14,6.77a51.49,51.49,0,0,0,24.86,7.21,39.56,39.56,0,0,0,10.25-.65c2.68-.65,5.36-.5,7.95-1.72a27.85,27.85,0,0,0,6.07-4.22,92.43,92.43,0,0,0,13.73-14.71c.95-1.28,2.5-3.22,2.3-4.92A14.17,14.17,0,0,0,235.41,66a34.84,34.84,0,0,1-2.3-9.49c-.17-1.54-.27-3.08-.34-4.62-.05-1.07.36-3.49-.24-4.4-1-1.5-6.93-.24-8.74-.2C220.32,47.35,216.84,47.26,213.37,47Z"/><path class="cls-3" d="M240.32,105.15c-.33,4.59-1.64,9.08-1.58,13.7a52,52,0,0,1-2,15.58c-1.6,5.53-3.73,10.91-5,16.53-.67,3-1.08,6.07-1.8,9.06-2,8.23-6.27,15.73-11.12,22.67a29.14,29.14,0,0,1-3.94,4.77c-7.39,6.8-17.15,7.51-25.1,1-5.7-4.67-9.2-11.42-13-17.74a58.54,58.54,0,0,1-4.7-8.71,35.69,35.69,0,0,1-2.19-9.72c-.06-2.07-1.4-4-2.22-5.9q-1.33-3.06-2.51-6.2a130.32,130.32,0,0,1-4.08-12.75q-1.63-6.18-2.67-12.49c-.33-2.05-.64-4.12-.86-6.18-.19-1.78-1-3.12-1.58-4.73A29.64,29.64,0,0,1,155,97.93a58.42,58.42,0,0,1-.18-12.33,1.74,1.74,0,0,1,.21-.84c.52-.83,1.8-.41,2.64.1,3.68,2.22,6.44,5.19,10.33,7.1,6.84,3.37,13.83,6.79,21.37,7.89a42.1,42.1,0,0,0,24.16-4.19,57.32,57.32,0,0,0,10.8-6.85c3-2.38,6.77-5.11,8.5-8.45.49-1,1.37-1.93,2.45-1.83a2.3,2.3,0,0,1,1.81,1.91,9.4,9.4,0,0,1-.05,2.8c-.49,6.09,2.68,11.67,3.29,17.63A23.55,23.55,0,0,1,240.32,105.15Z"/><path class="cls-1" d="M245.7,212c-.38,5.55.37,11.4.3,17A47.87,47.87,0,0,1,245,240c-.85,3.45-2,6.82-.94,10.45a13.2,13.2,0,0,0,1,2.24l2.53,4.85c1,1.87,2.13,5.5,1.16,7.48-.72,1.49-2.42,2.18-4,2.75-.9.33-1.8.66-2.72.9a19.5,19.5,0,0,1-11.15-.94,6.4,6.4,0,0,1-1.82-1.42,13.73,13.73,0,0,1-3.53-5.53c-1-3.54.7-8.07,2-11.36a16.22,16.22,0,0,0,.66-9.21c-.57-2.41-1.45-4.63-1.83-7.15q-1.46-9.58-2.09-19.27c-.39-5.91-1.4-11.53-2.27-17.39-1.06-7.19,1.17-14.58,4.31-21.08A85.92,85.92,0,0,0,231.91,162q2.28-7.71,4.1-15.54c1-4.3,1.57-8.68,2.33-13,.35-2,.95-3.92,1.45-5.87.43-1.69.17-3.56,1.15-5.07.06-.1.16-.2.27-.18s.16.14.2.24c.7,2.06,1,4.34,1.56,6.46.64,2.36,1.32,4.71,1.77,7.12,1,5.48,1.3,11.29,1.83,16.86a260.13,260.13,0,0,1,1.07,37.34c-.34,7.1-1.33,14.09-1.9,21.16C245.72,211.66,245.71,211.83,245.7,212Z"/><path class="cls-1" d="M198.34,225.51a5.85,5.85,0,0,1-1.38,1c-2-6-1.83-12.45-1.16-18.67.14-1.24,1.65-7.76.24-7.87-2.09-.15-2.83,4-3,5.37a17.46,17.46,0,0,0,.49,6.46,56,56,0,0,1,1.18,7.93c.5,5.46.55,11,1.37,16.39.43,2.93,1.09,5.83,1.75,8.72a27.38,27.38,0,0,0,2.48,7.44c3,5.36,9.65,6.06,12.79,11.37.75,1.27,1.76,3.16.67,4.49a5.23,5.23,0,0,1-2.2,1.4c-5.32,2.1-11.2,2.12-16.93,2.12-3.66,0-7.76-.18-10.27-2.84s-2-6.48-3-9.81c-1.19-4.23-3.55-8.45-5.79-12.21a32.5,32.5,0,0,1-2.58-4.79c-.81-2.11-1-4.41-1.83-6.52-.74-1.92-2.25-3-3.13-4.82-2.2-4.56-3.21-9.95-3.88-14.93-1.36-10.21-.69-20.54-.63-30.8.06-8.87-.4-17.69-1-26.52-.06-.87-.23-1.9-1-2.26a1.88,1.88,0,0,0-2.19,1.06,6.44,6.44,0,0,0-.59,2.75c-.57,9.73.32,19.58.77,29.33a11.34,11.34,0,0,1-.55,5.19,10.07,10.07,0,0,1-4.21,4.14c-4.82,3-10.16,5-15.23,7.6A102,102,0,0,0,124,215.78c-4.52,3.44-7.1,9-9.6,14-3,5.91-6.69,12.15-12.87,14.56A28.62,28.62,0,0,1,94,245.78c-5.86.6-12.11,1.13-17.35-1.56-1.67-.85-3.37-2.63-2.63-4.35A4.27,4.27,0,0,1,76.07,238a69.66,69.66,0,0,0,13.59-10.39c4.89-5,6.34-12.22,8.07-19,1.56-6.08,4-11.56,5.61-17.64q2.53-9.75,5.2-19.48c3.78-13.83,13.5-26.07,22.31-37.16,6.62-8.34,14.34-19.07,23.23-25.06,2.36,2.24,2.25,11.16,2.93,14.55a108.78,108.78,0,0,0,3.93,14.73A80.7,80.7,0,0,0,167.47,152c2.51,4.4,2.81,9.86,4.52,14.58C175.4,176,180.73,185,189,191a26.6,26.6,0,0,0,6.34,3.47,20.47,20.47,0,0,0,8.17,1.22,8.56,8.56,0,0,0,3.16-.46c1.26-.59,2.43-1.3,3.74-1.81.73-.29,1.47-.54,2.22-.8a3.62,3.62,0,0,1,2.39-.25,1.26,1.26,0,0,1,.71.63,1.53,1.53,0,0,1,.09.71,26.77,26.77,0,0,1-1.54,6.81,55.17,55.17,0,0,1-8.88,17.14,54,54,0,0,1-4.09,4.72C200.47,223.24,199.42,224.56,198.34,225.51Z"/><path class="cls-1" d="M50.48,152.46c-.94.44-1.86.9-2.75,1.37C43.6,156,37.25,158.91,34,162.19a63.15,63.15,0,0,0-8.83,6.08,63.61,63.61,0,0,0-6.64,7.09C14.58,180,10.64,184.67,7.72,190,3,198.57,1.18,208.42,1,218.14c-.08,4.54.28,8.91-.17,13.4-.48,4.72-.64,10,.79,14.52,1.79,5.71,3.44,11.7,5.82,17.27a21.63,21.63,0,0,0,4.25,6.93c1.7,1.71,4.25,3.21,6.74,3.05a11.85,11.85,0,0,0,2.85-1.06,10.09,10.09,0,0,0,3.44-1.86A10.69,10.69,0,0,0,28,259.89c-1.22-5.55-.28-11.27.09-16.91.45-7,.32-13.66,2.37-20.38,2.34-7.68,6.78-14.5,11.11-21.18l7.57-11.63A100.54,100.54,0,0,1,55,181.44c4.18-5.21,9.34-9.55,14.6-13.67a40,40,0,0,1,5.84-4,42.79,42.79,0,0,1,6.64-2.66l11.33-3.84c4.8-1.63,9.69-3.27,14.76-3.47,1.64-.06,4.15.12,5.44-1.11,2.26-2.15-1.62-4.05-3.36-4.48a43.24,43.24,0,0,0-6.06-1.18c-2.21-.22-4.45-.1-6.68-.12-5.75-.07-11.49-1.13-17.24-.77-2.25.15-4.48.5-6.7.86l-12.64,2A39.91,39.91,0,0,0,50.48,152.46Z"/><path class="cls-4" d="M205.61,237a5.41,5.41,0,0,1,1.76,1.41,2.07,2.07,0,0,1,.26,2.13,2.6,2.6,0,0,1-1,.9,11,11,0,0,1-6.66,1.71c-.15-1.7-2.89-9-1.67-10.09C199.25,232.22,204.36,236.24,205.61,237Z"/><path class="cls-5" d="M244.58,262.57a2.35,2.35,0,0,1,1.47-.17c.35.15.66.46.53.87a1,1,0,0,1-.63.59,3.11,3.11,0,0,1-.87.14l-.69,0a1,1,0,0,1-.78-.19.66.66,0,0,1,.1-.88A1.93,1.93,0,0,1,244.58,262.57Z"/><path class="cls-5" d="M238.66,264.12a.52.52,0,0,1,.63.38.76.76,0,0,1-.25.73,1.48,1.48,0,0,1-.72.35,3,3,0,0,1-1.19,0,.62.62,0,0,1-.29-.12c-.17-.15-.12-.44,0-.64a2.53,2.53,0,0,1,1.54-.9"/><path class="cls-5" d="M231.18,264.1a.78.78,0,0,1-.51-.41A.58.58,0,0,1,231,263c.54-.29,2.39-.25,2.71.43C234.33,264.79,231.69,264.29,231.18,264.1Z"/><path class="cls-5" d="M228.56,260.15c.11.25.42.4.42.68s-.37.45-.68.43a1.9,1.9,0,0,1-1-.37.84.84,0,0,1-.43-.83.68.68,0,0,1,.51-.41,1.89,1.89,0,0,1,.67,0c.18,0,.4.09.42.27"/><path class="cls-5" d="M206.3,263.49c.83-.72,3.64-.61,3.06,1-.23.63-1.05.77-1.73.81s-2.11.21-1.83-.91A1.87,1.87,0,0,1,206.3,263.49Z"/><path class="cls-5" d="M200.47,266.18a2.26,2.26,0,0,1,2-.12c.61.34.49,1-.11,1.24a1.9,1.9,0,0,1-1.49.14A.86.86,0,0,1,200.47,266.18Z"/><path class="cls-5" d="M193.71,266.69a2.42,2.42,0,0,1,3.37.58.57.57,0,0,1-.18.81.71.71,0,0,1-.29.05l-2.07.1a1.34,1.34,0,0,1-.8-.11A.93.93,0,0,1,193.71,266.69Z"/><path class="cls-5" d="M187.49,265.67c.49-1.12,2.92.23,2.36.93a.73.73,0,0,1-.54.21,2.56,2.56,0,0,1-1.29-.08A.87.87,0,0,1,187.49,265.67Z"/><path class="cls-5" d="M94,241.91c0-.37.33-.44.61-.54a3.55,3.55,0,0,1,1.12-.14,9.29,9.29,0,0,1,1.29.06.66.66,0,0,1,.6.46.75.75,0,0,1-.42.75,2.09,2.09,0,0,1-.89.18c-.36,0-.71,0-1.06,0C94.65,242.69,93.91,242.46,94,241.91Z"/><path class="cls-5" d="M86.3,241.66a1.2,1.2,0,0,1-.44-1c0-.2.07-.27.28-.33a2,2,0,0,1,.6-.07,4.47,4.47,0,0,1,.73,0,1,1,0,0,1,.29.07,1.51,1.51,0,0,1,.57.63.68.68,0,0,1,0,.78.92.92,0,0,1-.73.29A2,2,0,0,1,86.3,241.66Z"/><path class="cls-5" d="M79.48,238.86c1.1-.33,3.06.26,3.1,1.65,0,.56-.49.51-.92.48a3.31,3.31,0,0,1-2.32-1.18c-.19-.23-.34-.58-.14-.8A.59.59,0,0,1,79.48,238.86Z"/><path class="cls-6" d="M190.51,221.79a47.73,47.73,0,0,0,3.64,21.42,40,40,0,0,0,5.4,8.92c2.25,2.81,4.85,5.35,6.4,8.65l.07-4.91c-8.05-7.41-12.29-17.72-16.31-27.66-.12-.29-.34,1.6-.34,1.75a8.33,8.33,0,0,0,.19,3.07,123.81,123.81,0,0,0,13.49,25.61l.07-4.91c-10.79-6-14-18.74-14.55-30.19L188.2,227c1.29,6.73,4.31,12.89,7.29,19,2.66,5.44,5.56,10.91,10.2,14.93,0,0,.28-2.28.28-2.5,0-.61.19-2-.28-2.5a71.28,71.28,0,0,1-18.19-33.68c-.21-1-.36.75-.37.9a12.25,12.25,0,0,0,.09,3.42,163.36,163.36,0,0,0,10.28,31l.08-4.91a59.74,59.74,0,0,1-11.37-12.34,35,35,0,0,1-3.62-7.18,19.36,19.36,0,0,1-1.46-7.61l-.31,1.15c2.12,6.92,4.22,13.86,6.36,20.78,1.81,5.87,3.83,11.79,7.75,16.63l.08-4.92c-7.39-8.43-12.32-18.54-17.41-28.44-.15-.3-.32,1.36-.32,1.45a16.26,16.26,0,0,0,.11,3.12,77.82,77.82,0,0,0,6.29,21.21l.15-4.82a147.7,147.7,0,0,1-10.21-24.52l-.14,4.82,10.29,21.86.15-4.83a102.14,102.14,0,0,1-9.33-22.27c-.09-.32-.31,1.15-.31,1.15a18,18,0,0,0,.05,3c.51,5.08,2,10.87,5.56,14.71.6.64,1.88,1.91,2.82,1.15a2.33,2.33,0,0,0,.62-1.5,20.18,20.18,0,0,0,.11-4.85l-.32,3.67c1.49,3.27,4.47,5.94,7,8.37,2.73,2.61,5.65,5,8.28,7.75,0,0,.27-2.07.27-2.17,0-.73.21-2.09-.19-2.74-3.92-6.37-7.9-12.83-10.19-20-1.84-5.8-3.08-11.9-5.86-17.35-.15-.3-.32,1.37-.32,1.45a11.63,11.63,0,0,0,.11,3.12Q185,234,187.35,245.67c.59,2.93,1.24,6.16,1.61,9,0,.22,0,.44.08.67s0,.26,0,.39c0,0,0-.48,0-.16s0-.31,0-.3c0-.68.36-1.77.1-2.28-.05-.11,0-.16,0-.18a4.65,4.65,0,0,0-.78-.58c-.49-.38-1-.78-1.43-1.19a20.16,20.16,0,0,1-2.49-2.57,11.36,11.36,0,0,1-1.14-1.82c-.64-1.18-.36,4-.08,4,.1,0,.23-.07.37,0,1.62.62,2.84,2.56,3.78,3.9.22.31.33-1.6.34-1.75,0-.81.24-2.31-.19-3.07-5.63-9.8-13.79-18.26-17.24-29.22-.08-.26-.32,1.35-.32,1.45a10.87,10.87,0,0,0,.11,3.12,44.13,44.13,0,0,0,7.71,16c.21.28.33-1.68.34-1.75a121.4,121.4,0,0,0-.59-16.84c-.15-1.45-.38-.14-.43.5-.73,9.81,1,19.71,6.23,28.12l.07-4.91c-4.77-5.38-9.6-10.93-12-17.83-.11-.3-.23.28-.22.25a4,4,0,0,0-.12,1.49,24.61,24.61,0,0,0,1.59,9.42c1.08,2.83,2.36,5.57,3.69,8.3,2.78,5.72,5.61,11.42,8.42,17.13.15.31.28-.83.29-.9a20,20,0,0,0-3.32-12.66c-.22-.3-.33,1.6-.34,1.75,0,.74-.27,2.4.2,3.07S183.6,259,184,257.3a9.54,9.54,0,0,0-.8-6.56c-.18-.31-.34,1.61-.34,1.74a8.61,8.61,0,0,0,.19,3.08,12.28,12.28,0,0,0,4.33,5.67,24.33,24.33,0,0,0,.28-2.5c0-.5.2-2.15-.28-2.5a11.84,11.84,0,0,1-4.18-5.49l-.15,4.82c.55.94.51,2,.54-.42l.13-2.15c-.11.48-1.95-1.67-1.93-1.64l-.14,4.82a14.91,14.91,0,0,1,3,7.59l.31-3.67-7.3-14.83c-1.13-2.3-2.26-4.6-3.3-6.95-.53-1.2-1-2.42-1.51-3.65-.25-.66-.49-1.32-.7-2-.11-.33-.2-.67-.29-1s-.2-1.45-.22-.28l-.34,1.75c2.41,7,7.32,12.58,12.13,18,0,0,.27-2.05.27-2.17,0-.72.21-2.1-.19-2.74-3.81-6.06-6.44-13.55-5.91-20.78l-.43.51a87.21,87.21,0,0,1,.45,12l.33-1.74a43.27,43.27,0,0,1-7.57-15.45l-.21,4.57c3.44,10.95,11.61,19.41,17.23,29.21l.15-4.82a23.23,23.23,0,0,0-2.29-2.85c-.38-.39-1-1.13-1.6-1.22-.36-.06-.42,0-.6.28a5.78,5.78,0,0,0-.21,2.48,12.59,12.59,0,0,0,.15,2.38c.32,1.6,1.67,3,2.78,4.1.52.52,1.07,1,1.63,1.5.22.18,1.37,1.39,1.69,1.35s.26-.24.33-.52a16.68,16.68,0,0,0,0-5.46c-.17-1.58-.45-3.16-.72-4.73-.8-4.51-1.75-9-2.71-13.5q-1.65-7.69-3.48-15.35l-.21,4.57c2.78,5.46,4,11.56,5.86,17.35,2.29,7.17,6.26,13.63,10.18,20l.07-4.91c-2.55-2.63-5.38-5-8-7.51s-5.62-5.13-7.12-8.43c-.14-.31-.28.84-.29.9a17.08,17.08,0,0,0,0,2.77c.06.84.21-1.92,0-1.75s0,.17-.07.22-.14.3-.3.42a1.06,1.06,0,0,1-.9.12,5.63,5.63,0,0,1-2.63-2.27,25.16,25.16,0,0,1-4.4-12.31l-.26,4.18a101.9,101.9,0,0,0,9.32,22.28c.18.31.33-1.61.34-1.75a7.61,7.61,0,0,0-.19-3.08l-10.3-21.85c-.14-.3-.33,1.61-.33,1.75a9.58,9.58,0,0,0,.19,3.07,147.66,147.66,0,0,0,10.2,24.52c.16.31.33-1.61.34-1.74a7.61,7.61,0,0,0-.19-3.08,75.71,75.71,0,0,1-6.16-20.71l-.21,4.57c5.12,10,10.1,20.12,17.55,28.62,0,0,.27-2,.27-2.16,0-.64.23-2.22-.2-2.75-3.92-4.83-6-10.75-7.76-16.63q-3.19-10.38-6.36-20.77c-.1-.33-.31,1.15-.31,1.15a34.83,34.83,0,0,0,4.07,19.9c3.2,5.75,7.9,10.5,12.86,14.75,0,0,.27-2.09.27-2.16a7.25,7.25,0,0,0-.2-2.75,160.34,160.34,0,0,1-10.15-30.5l-.28,4.32a72.46,72.46,0,0,0,18.47,34.36v-5c-4.58-4-7.43-9.38-10.05-14.75-2.9-5.94-5.91-12-7.17-18.5-.14-.74-.29.13-.33.39a17,17,0,0,0,0,3c.57,12.18,3.41,26.24,15,32.67a11.1,11.1,0,0,0,.27-2.17c0-.69.22-2.14-.19-2.74a123.81,123.81,0,0,1-13.49-25.61l-.15,4.82c4.05,10,8.35,20.38,16.46,27.84,0,0,.27-2.08.27-2.17a6.82,6.82,0,0,0-.2-2.74,34,34,0,0,0-5.27-7.3,42.39,42.39,0,0,1-5.45-8c-2.74-5.31-4.59-11.5-4.33-17.53,0-.52.27-2.75-.19-3.07-.3-.21-.33,1.59-.34,1.74Z"/><path class="cls-6" d="M31.07,210.71c-6,5.07-6.6,14-7.34,21.32a185.22,185.22,0,0,0-.65,28.75l1-1.93a90.61,90.61,0,0,1,2-37.4l-.87-3Q23,236.9,19.73,255.24l.86.5c-1.87-14.64-2.85-29.57.53-44.08l-.78-3.54a237.73,237.73,0,0,0-3.8,45.11l.83-2.16a60.72,60.72,0,0,1,1.74-44.91,67.61,67.61,0,0,1,6.78-12,5.26,5.26,0,0,0,.38-3.07c0-.2-.31-2.25-.67-1.75-10.25,13.88-13.58,31.16-14.79,48-.37,5.18-.55,10.38-.74,15.58l1-.6c-1.22-7.81-2.32-15.79-1.56-23.7s3.94-15.25,7.38-22.46l6.33-13.24-.56-4.32c-1.64,4.4-4.09,8.4-6.35,12.5A87.28,87.28,0,0,0,10.47,214a88.5,88.5,0,0,0-5,28l1.08-.67c-.56-16.58,4-33.2,12.18-47.59a5.87,5.87,0,0,0,.38-3.08c0-.2-.28-2.24-.68-1.75A69.12,69.12,0,0,0,5,215.82c-2.55,10.37-3.2,22.08.8,32.16,2.24,5.62,5.63,10.69,9,15.7.36.54.64-1.42.65-1.45a8.41,8.41,0,0,0-.23-3.12A75.87,75.87,0,0,1,15,216.4l-.83-2.16c-.4,18.26-.7,36.7,3.11,54.67.12.54.3,1,.67.39a5.65,5.65,0,0,0,.25-2.83c-1-17.68-2-35.42-.7-53.12H16.47A287.11,287.11,0,0,0,24,266c.16.68.43,1,.72.19a7.29,7.29,0,0,0,.14-3.22c-1.05-9.1-3.77-18-4.13-27.2s3-18,7.17-25.92a5.94,5.94,0,0,0,.39-3.07c0-.19-.42-2.25-.68-1.75-3.74,7.07-6.65,14.55-7.6,22.54-1,8.32.18,16.53,1.69,24.71.81,4.39,1.7,8.77,2.21,13.21l.87-3A274.4,274.4,0,0,1,17.54,212c0-.31,0-1.77-.53-1.84s-.52,1.65-.54,1.84c-1.36,18.58-.34,37.21.71,55.78l.92-2.43c-3.56-16.8-3.17-34.06-2.79-51.13a4.49,4.49,0,0,0-.27-2.16c-.2-.25-.4-.56-.56,0a91.8,91.8,0,0,0,.18,51.35l.42-4.57c-5.32-8-10.79-16.26-10.95-26.16-.14-8.87,2.33-17.81,6.16-25.76a67,67,0,0,1,8.43-13.19l-.3-4.83A102,102,0,0,0,5.48,242.67c0,.36.06,1.85.61,1.79s.47-2.24.47-2.45a75.94,75.94,0,0,1,5.09-25.4,89.06,89.06,0,0,1,5.73-12,84.91,84.91,0,0,0,5.85-11.63,7.46,7.46,0,0,0,.19-3.42c-.05-.39-.31-1.82-.75-.9q-3,6.28-6,12.59a120.91,120.91,0,0,0-5.23,12c-3,8.49-3.6,17.55-3.07,26.48.3,5.1,1,10.17,1.77,15.21,0,.28.13,1.3.55,1.2s.45-1.56.45-1.79c.58-16.42,1.25-33.23,8-48.48a61.38,61.38,0,0,1,6.75-11.64l-.29-4.82C15.1,204.2,11,222.85,13.3,240.83a70,70,0,0,0,3.51,14.56c.19.53.34.27.56,0a4.5,4.5,0,0,0,.27-2.16,219.39,219.39,0,0,1,3.48-41.57,8.79,8.79,0,0,0,0-3.54c-.21-.81-.56-.92-.78,0-3.83,16.46-2.82,33.53-.7,50.15.09.7.61,2,.87.5q3.33-18.84,5.65-37.83a7,7,0,0,0-.14-3.22c-.29-.71-.52-.56-.72.19a106.19,106.19,0,0,0-2.17,43.46c.06.36.17,1.59.69,1s.36-2.3.32-2.95a159.25,159.25,0,0,1,.54-24.9c.68-6.67,1.18-14.38,6.69-19,.62-.53.42-2.37.38-3.08,0-.26-.17-2.17-.68-1.74Z"/><path class="cls-7" d="M229.66,7.53c-.16,1.73-.94,3.44-.73,5.17s1.78,3.57,4.69,4.11a2.29,2.29,0,0,0,1.25,0,.69.69,0,0,0,.41-.54,4.3,4.3,0,0,0-.8-2.79,47.12,47.12,0,0,0-4.85-7,11,11,0,0,0-.25,6.77,4.45,4.45,0,0,0,2.53,3.12,4.46,4.46,0,0,0,1.54-3.13,53,53,0,0,0,.4-8.26,26.84,26.84,0,0,0-.22,4.1c.06,2.21.58,4.65,3.51,6.13a76.09,76.09,0,0,0-4.45-9.38,14.43,14.43,0,0,0-.32,6.56,5,5,0,0,0,2.33,3.68,1,1,0,0,0,.54.18.62.62,0,0,0,.62-.5c.74-3-1.12-6.19-4.9-8.36a2.9,2.9,0,0,0-1.59,1.9,11.52,11.52,0,0,0-.59,4.45,1.39,1.39,0,0,0,1.43,1.33,2.2,2.2,0,0,0,1.43-.53c1.4-1.14,1.38-2.64,1.15-4a4.87,4.87,0,0,0-1.7-3.28,12.93,12.93,0,0,0,1,7.49"/><path class="cls-7" d="M145.81,24.68c.34-1.58,1.25-3.07,1.24-4.68s-1.25-3.49-3.87-4.31a2.24,2.24,0,0,0-1.16-.1.62.62,0,0,0-.43.45A3.92,3.92,0,0,0,142,18.7a43,43,0,0,0,3.7,7,10.16,10.16,0,0,0,1-6.21,4.15,4.15,0,0,0-2-3.15A4.15,4.15,0,0,0,142.94,19a48.44,48.44,0,0,0-1.27,7.57,24.12,24.12,0,0,0,.65-3.75c.19-2,0-4.36-2.56-6a70.62,70.62,0,0,0,3.07,9.14,13.43,13.43,0,0,0,1-6,4.63,4.63,0,0,0-1.74-3.64,1,1,0,0,0-.48-.22.57.57,0,0,0-.63.39c-1,2.69.36,5.82,3.6,8.23a2.66,2.66,0,0,0,1.68-1.57,10.52,10.52,0,0,0,1-4,1.27,1.27,0,0,0-1.17-1.39,2.13,2.13,0,0,0-1.37.33,3.62,3.62,0,0,0-1.5,3.59,4.56,4.56,0,0,0,1.21,3.2,12,12,0,0,0-.11-7"/><path class="cls-6" d="M243.38,256.27a66.75,66.75,0,0,1-2.4-18.34q-.06-4.65,0-9.32a25.2,25.2,0,0,1,1.39-8.83l-.83-2.16,0,37.31.94-1.76a142.75,142.75,0,0,1-4.12-28.11l-1.07,1.33L240,260.51l.81-2.83c-4.22-9.78-8.57-20.7-7.42-31.56h-.95c1.59,10.7,3.15,21.4,4.9,32.08l.87-3A111.74,111.74,0,0,1,235.76,225l-1.08-.66q-.15,12.81.2,25.62c0,.36-.08,2.2.4,2.41s.57-.82.62-1.14c1.17-7.4-1.16-14.54-2-21.82a75.84,75.84,0,0,1,.58-20.9l-.87.51a159.21,159.21,0,0,1,2.23,20.78c.27,6.62.53,13.62-1.16,20.08l.66-.39A103.83,103.83,0,0,1,228.48,223l-.87,3c2.28,10.36,4.57,20.77,5.14,31.39l.92-2.44A66.85,66.85,0,0,1,231,237.51c0-.37.06-2.33-.47-2.46s-.6,1.55-.61,1.79l-.56,18.46,1.08.66c0-9.53,1.05-19,2.1-28.48l-.87.51c1.94,9.76,2.62,19.71,3.3,29.63l.81-2.83a72.39,72.39,0,0,1-4.93-21.07l-.8,2.82,2.84,9.94c.18.63.48.15.61-.2a6.62,6.62,0,0,0,.2-2.62L232,220.32c0-.36-.05-2-.67-1.75s-.42,2.66-.39,3.08L232.67,245l.8-2.83-2.84-9.93c-.18-.64-.48-.15-.61.19a6.67,6.67,0,0,0-.2,2.63,82.51,82.51,0,0,0,5.44,24.06c.23.58.46.21.61-.2a6.81,6.81,0,0,0,.2-2.62c-.74-10.66-1.51-21.34-3.59-31.84-.28-1.42-.78-.23-.86.51-1.14,10.3-2.25,20.62-2.25,31,0,.37-.05,2.33.48,2.46s.6-1.55.6-1.79l.56-18.46-1.08-.66a80,80,0,0,0,3,21c.15.52.29,1,.67.39a5.61,5.61,0,0,0,.25-2.82c-.61-11.37-3-22.5-5.42-33.59-.15-.69-.44-1-.72-.2a7.34,7.34,0,0,0-.14,3.23,110.58,110.58,0,0,0,7.27,28.29c.29.72.56,0,.66-.39,2-7.71,1.76-16.06,1.48-24a175.4,175.4,0,0,0-2.54-24c-.26-1.48-.75-.16-.86.51a94,94,0,0,0-1,22A98.64,98.64,0,0,0,234,238.69c.62,3.3,1.49,6.69,1,10.05l1,1.26q-.36-12.81-.2-25.62c0-.37.06-2.33-.47-2.46s-.59,1.55-.61,1.79a130.13,130.13,0,0,0,2.75,35c.15.69.44,1,.72.2a6.92,6.92,0,0,0,.14-3.23c-1.75-10.67-3.31-21.38-4.9-32.07,0-.19-.11-1.24-.48-1.24s-.45,1-.47,1.24C231,237,235,249.8,240.27,262c.25.57.46.23.62-.19a6.68,6.68,0,0,0,.19-2.63l-2.74-34.12c0-.35-.06-2-.68-1.75s-.4,2.66-.39,3.08a154.37,154.37,0,0,0,4.41,30.31c.1.41.21.92.6.52s.34-1.78.34-2.29l0-37.31c0-.24-.35-3.41-.83-2.16A33.22,33.22,0,0,0,240,226.34c-.13,3.86-.14,7.73-.08,11.59.12,7.65.72,15.31,3,22.65.31,1,.72-.66.75-.89a8.21,8.21,0,0,0-.2-3.42Z"/><path class="cls-6" d="M90.47,235c6.82-4.39,7-13.52,10.08-20.23,1.43-3.05,3.3-5.86,4.83-8.86a26.83,26.83,0,0,0,2.87-10.26c0-.69.19-2.18-.25-2.82s-.52-.16-.67.39c-3.25,11.84-9.52,22.24-16.81,32-.37.5-.62,5.08.15,4.91,3.52-.79,6.31-3.18,8.76-5.7a51.94,51.94,0,0,0,6.78-8.64,55.94,55.94,0,0,0,7.66-20.43,6.79,6.79,0,0,0-.14-3.23c-.29-.72-.51-.54-.72.2a68.47,68.47,0,0,1-4.71,11.22l-4.86,9.93q-5,10.17-10,20.35l.56,4.32c3.67-11.07,7.7-22,11.37-33.09l-.75-3.42c-1,10-3,20-7.18,29.19a6.6,6.6,0,0,0-.22,3.12c0,.27.16,1.83.65,1.45,5-3.9,8.77-9.21,12-14.62a98.77,98.77,0,0,0,8.58-18.87,75.9,75.9,0,0,0,2.7-10.15,9,9,0,0,0,0-3.28c-.06-.31-.4-1.56-.71-.65-2.34,6.86-5.16,13.56-8,20.22-3.06,7.12-6,15.1-11.91,20.35l.29,4.82c4.66-4.88,9.18-9.9,13.37-15.18s8.18-10.74,10.82-16.89a6.73,6.73,0,0,0,.22-3.12c0-.16-.35-1.95-.65-1.45-3.61,6-7.25,12-10.6,18.23s-6.51,12.37-8.53,19a8,8,0,0,0-.22,3.12c0,.17.32,1.95.65,1.45,3.58-5.41,6.5-11.27,10.28-16.54a29.76,29.76,0,0,1,6-6.44,51.43,51.43,0,0,1,8.93-5.08c.9-.44.6-5.11,0-5-3.44.66-6.85,1.39-9.84,3.31a40.74,40.74,0,0,0-7.55,6.88,97.7,97.7,0,0,0-12.56,17l.53,4.18c1.26-6.46,2.85-13.07,6.64-18.57,1.9-2.77,4.48-5,6.4-7.73a15.29,15.29,0,0,0,2.62-9.94c0-.1-.28-2.29-.67-1.75Q105.41,214,93.19,228.54c-.59.69-.44,2.23-.39,3.07,0,.21.27,2.23.68,1.75q12.21-14.54,23.44-29.85l-.68-1.74c0-.68-.07.17-.13.38a7.84,7.84,0,0,1-.35,1,11.63,11.63,0,0,1-1.14,2.11,31.36,31.36,0,0,1-3,3.65,36.63,36.63,0,0,0-5.38,7.23c-2.84,5.29-4.27,11.18-5.41,17a9.34,9.34,0,0,0-.08,3c0,.11.33,1.65.62,1.15a97.33,97.33,0,0,1,12.26-16.63,45.68,45.68,0,0,1,7.16-6.74c3.05-2.15,6.64-2.91,10.24-3.6v-5a56.22,56.22,0,0,0-8.73,4.9,28.91,28.91,0,0,0-6.27,6.51c-3.89,5.34-6.84,11.33-10.49,16.83l.43,4.57a102,102,0,0,1,8.45-18.87c3.3-6.06,6.87-12,10.42-17.88l-.43-4.57c-2.61,6.09-6.69,11.55-10.8,16.7s-8.56,10.09-13.12,14.87c-.61.63-.44,2.28-.39,3.07,0,.25.19,2.18.68,1.75,4.86-4.28,7.55-10.38,10.13-16.18,2.43-5.44,4.72-11,6.91-16.48,1.1-2.79,2.18-5.58,3.15-8.41l-.67-3.93A82.06,82.06,0,0,1,114.62,206a81.93,81.93,0,0,1-10.13,17.48,40.62,40.62,0,0,1-6.92,7.13l.43,4.57c4.46-9.7,6.46-20.43,7.57-31a9.07,9.07,0,0,0-.09-3c-.08-.34-.41-1.15-.66-.39-3.67,11.07-7.71,22-11.38,33.09a8.06,8.06,0,0,0-.2,3.42c.06.4.31,1.81.76.9q5.07-10.38,10.19-20.75c3.44-7,7.45-14,9.6-21.53l-.87-3a50.35,50.35,0,0,1-7.44,18.82,52.67,52.67,0,0,1-6.34,8c-2.39,2.45-5,4.75-8.47,5.52l.14,4.91c7.6-10.16,13.92-21,17.3-33.28l-.92-2.43c-.47,6.2-5.1,11.33-7.52,16.84-2.82,6.43-3,14.85-9.5,19-.62.4-.42,2.45-.38,3.08,0,.31.12,2.1.68,1.74Z"/><path class="cls-6" d="M222,253.75a14.82,14.82,0,0,0,1.06,9.41c1.28,2.66,4.12,4.49,6.7,5.78a20.13,20.13,0,0,0,7.88,2c3.35.2,7,.26,10-1.54a8.19,8.19,0,0,0,4-7.57,11.81,11.81,0,0,0-2.84-7.16c-1.87-2.43-4-4.57-4.78-7.63-1-3.92,0-7.92.54-11.82a362.58,362.58,0,0,0,3.49-52.67c-.15-17.27-2-34.34-4.11-51.45-1.06-8.57-2.15-17.13-3.12-25.71-1-8.8-1.72-17.61-2.46-26.43-.71-8.44-2.31-16.76-3.62-25.12-.65-4.18-1.24-8.38-1.55-12.61-.29-3.8-.92-8.41.63-12,.72-1.67,1.85-3.13,2.58-4.8a18.85,18.85,0,0,0,1.11-3.61,29.11,29.11,0,0,0,.54-7.68c-.26-4.48-1.6-9.71-5.83-12-2.48-1.36-5.38-1.24-8.09-.75C220.37,1,216.79,2.49,213,3.22c-5.52,1.08-10.86-.81-16.31-1.55-7.21-1-14.76-1-21.66,1.54-3.67,1.36-7.11,3.26-10.81,4.54a25.51,25.51,0,0,1-10,1.16c-6.39-.38-14.35-1.2-17.88,5.52a14.55,14.55,0,0,0-1.11,9.24A17.38,17.38,0,0,0,139,31.21c1.84,2.31,3.93,4.41,5.67,6.8a25.85,25.85,0,0,1,3.8,8.5,91,91,0,0,1,2.75,19.85c.32,6.3.29,12.62.48,18.93.2,7.13,1.47,14.7-1.68,21.4-2.92,6.21-8.1,11.1-12.7,16-5.2,5.59-10.35,11.31-15,17.36-8,10.4-13.14,22.38-17.65,34.65-1.94,5.28-3.76,10.62-5.32,16-1,3.6-1.76,7.23-2.55,10.89a118.75,118.75,0,0,1-4.1,14.94c-1.46,4.06-3.28,9.05-6.86,11.75-1.77,1.33-4.28,1.75-6.33,2.46s-4.73,1.38-6.52,2.79A8.7,8.7,0,0,0,70,240a7.91,7.91,0,0,0,.56,3.85,4.11,4.11,0,0,0,2.83,2A25.06,25.06,0,0,0,79.31,247c2.38.13,4.76.21,7.13.4,5.36.43,11,.8,16.19-.77a14.32,14.32,0,0,0,6.62-4,44.52,44.52,0,0,0,4.43-6.35c3.86-6.14,7.39-12.73,12.06-18.31,3.55-4.25,8.61-6.77,13.71-8.71,2.63-1,5.34-1.66,8-2.71,5.14-2.06,10.33-4.3,14.66-7.82l-.47-.86c1,8.68,2.35,17.36,4.19,25.91a91.6,91.6,0,0,0,5.79,18.06c2.5,5.61,5.2,11.05,7.3,16.84.64,1.78,1.27,3.58,1.9,5.37a13.41,13.41,0,0,0,2.1,4.59c1.79,2.09,4.62,3.16,7.21,3.84a40.08,40.08,0,0,0,11.59,1.26c3.29-.12,7.06-.45,9.7-2.64,3.54-2.93,3.19-8.48.74-12-2.63-3.77-6.66-6.17-9.79-9.45-2.36-2.48-3.39-5.92-4.06-9.2-.86-4.24-1.38-8.57-2-12.86q-1-6.89-1.88-13.79c-.52-4.11-.82-7.85.91-11.73a5,5,0,0,0,.15-2.56c0-.28-.25-1.38-.56-.67-2.92,6.52-1.63,13.76-.73,20.57,1,7.61,2,15.27,3.36,22.82a26.3,26.3,0,0,0,3.18,9.2,20.09,20.09,0,0,0,4.12,4.32,68.86,68.86,0,0,1,5.22,4.74,18.27,18.27,0,0,1,2,2.45,10.62,10.62,0,0,1,.68,1.18c.1.23.18.47.28.69s0,.65.13.22c.24-.86-.23.31-.34.51a5.91,5.91,0,0,1-.83,1.15,9,9,0,0,1-4.4,2.53,31.64,31.64,0,0,1-11.06.62,30.79,30.79,0,0,1-9.83-2.3,10.31,10.31,0,0,1-3.47-2.39c-1.16-1.29-1.56-3-2.11-4.59a183.15,183.15,0,0,0-7.33-18.1,95.46,95.46,0,0,1-6.57-17.69,237.92,237.92,0,0,1-4.9-28.8c0-.17-.13-1.13-.46-.86-4.4,3.57-9.73,5.83-15,7.89-2.5,1-5.1,1.6-7.6,2.56-4.78,1.85-9.65,4.2-13.13,8a66.61,66.61,0,0,0-6,8.34c-2,3.08-3.92,6.22-5.86,9.34-2.68,4.31-5.17,9-10.12,11s-10.69,1.82-16,1.45c-2.22-.16-4.44-.36-6.66-.44a26,26,0,0,1-6-.65,15.33,15.33,0,0,1-3.48-1.1,4.78,4.78,0,0,1-1.18-1.15c-.58-.61.7-.36-.14.5a6.22,6.22,0,0,0,.36-1.08c1-2.28,2.79-3.23,5-4.1,2.54-1,5.16-1.82,7.74-2.7a8.69,8.69,0,0,0,3.9-2.84c2.95-3.57,4.63-8.26,6-12.6,2.65-8.12,3.8-16.58,6.23-24.74a230.71,230.71,0,0,1,12.28-32.61c6-12.79,15.38-23.36,24.91-33.65,4.5-4.86,9.41-9.55,12.54-15.45,3.28-6.18,3.34-13.31,3-20.14-.64-12.74-.11-25.57-1.93-38.23-.82-5.66-1.91-12-5-16.93a56.47,56.47,0,0,0-5.53-6.9c-1.83-2.14-3.77-4.51-4.44-7.31-.78-3.18,2.13-6.45,4.74-7.84s5.94-1.59,9-1.47c3.23.12,6.49.61,9.72.27,3.71-.4,7.17-2,10.53-3.5a46.08,46.08,0,0,1,10.56-3.67,45,45,0,0,1,10.43-.62c5.43.27,10.61,1.57,16,2.36,7.23,1.07,13.73-3.52,20.88-3.46,4.84,0,8.15,3.44,9.2,8a14.68,14.68,0,0,1,.06,6.12,16.38,16.38,0,0,1-.82,2.89c-.73,1.83-2,3.4-2.76,5.21-1.38,3.21-1.33,7-1.28,10.39a115.82,115.82,0,0,0,.9,12.19c1,8.25,2.66,16.41,3.78,24.64s1.46,16.42,2.29,24.61c1.69,16.75,4,33.42,5.94,50.14A328.5,328.5,0,0,1,247,198.61q-.5,12.6-1.92,25.15c-.47,4.18-1,8.37-1.65,12.53a37.93,37.93,0,0,0-.32,11.6,16.25,16.25,0,0,0,3.45,7.85c.82,1,1.68,2,2.46,3.09a17.06,17.06,0,0,1,1.83,3.45c-.22-.5.11-.66-.16,0a4.8,4.8,0,0,1-.57,1,8.4,8.4,0,0,1-1.67,1.75,9.82,9.82,0,0,1-4.77,2,28.3,28.3,0,0,1-9.58-.36A19.35,19.35,0,0,1,227,263.5a11.33,11.33,0,0,1-3.29-3.18c-.6-1-1.37-2.84-1.11-3.91a5.44,5.44,0,0,0,0-2.66c-.18-.58-.41-.71-.58,0Z"/><path class="cls-6" d="M216.73,189c0,.15,0-.27,0-.09s0,.25,0,.75c0,.77-.17,1.6-.3,2.39-.32,2-.76,4-1.25,5.95a65.87,65.87,0,0,1-3.67,11.4,33.81,33.81,0,0,1-9.91,13.24,16.2,16.2,0,0,1-3.6,2.21,3,3,0,0,0-1.13.53,3.14,3.14,0,0,0-.41,2,3.8,3.8,0,0,0,.92,2.84,28.48,28.48,0,0,0,3.1,3.21,17.23,17.23,0,0,0,3.53,2.1,6.88,6.88,0,0,1,3.12,2.32l.19.37c.19.64.21.45.08-.55a8.16,8.16,0,0,1-.71,1.1,4.89,4.89,0,0,1-2.3,1.24,12.77,12.77,0,0,1-5.22-.21c-.4-.07-.78,3.61,0,3.75,2.6.48,5.86.91,7.86-1.28,1.56-1.71,1.53-5.1.76-7.14s-2.85-2.87-4.71-3.81a12.94,12.94,0,0,1-3.3-2.34c-.54-.53-1-1.1-1.55-1.67a5.78,5.78,0,0,1-1.15-1.37l.21,1.62v-.18l-.3,1.81c.32-.54,1.58-.79,2.15-1.09a19.15,19.15,0,0,0,2.35-1.56,31.39,31.39,0,0,0,4.81-4.48,30.86,30.86,0,0,0,3.74-5.82c.67-1.25,1.4-2.46,2-3.75a75.19,75.19,0,0,0,4.94-17.34c.49-2.83,1-5.92.39-8.78-.13-.66-.42-.59-.58,0a6.12,6.12,0,0,0,0,2.66Z"/><path class="cls-6" d="M149.19,48.7a31.19,31.19,0,0,0,20.74-1.82A46.28,46.28,0,0,0,181.55,39c2.06-1.84,4.16-3.58,7.12-3.18s5.42,2.06,7.67,3.7c3.5,2.54,6.48,5.46,10.57,7.08,8.37,3.33,17.6,1.63,26.16.08.76-.14.42-3.82,0-3.75-7.66,1.39-15.74,2.9-23.42.83a24.9,24.9,0,0,1-5.59-2.26,38.61,38.61,0,0,1-5.47-4c-2.51-2-5.31-4.12-8.45-5.07s-5.57.16-7.91,2.2a56.2,56.2,0,0,1-10.36,7.64A31.44,31.44,0,0,1,149.19,45c-.32-.09-.82,3.54,0,3.75Z"/><path class="cls-6" d="M240.53,108.92c-.61,4.16-1.53,8.27-2.26,12.4C237,128.65,235.61,136,234,143.23A223.18,223.18,0,0,1,227.72,166c-2.29,6.69-5,13.46-9.77,18.82a20.21,20.21,0,0,1-6.64,5.38,21.78,21.78,0,0,1-7.78,1.81c-5.08.29-10.76-.78-14.8-4.06a35.67,35.67,0,0,1-5.93-6.69,71.61,71.61,0,0,1-5.35-8.52,146.39,146.39,0,0,1-7.94-18.05c-6-15.84-11.6-32.06-13.67-48.94-.06-.45-.14-1.18-.57-.68s-.22,2-.15,2.57c1.93,15.66,6.81,30.72,12.2,45.48,4.53,12.42,9.38,25.39,18.23,35.46a19.81,19.81,0,0,0,6.15,5,23.12,23.12,0,0,0,7.82,2.11c5.14.49,11-.4,15.09-3.75,5.48-4.45,8.89-10.78,11.49-17.22A169,169,0,0,0,233,152.21c3.19-12.78,5.45-25.78,7.76-38.75.16-.88.31-1.76.45-2.65.09-.61.28-2-.15-2.56s-.5.21-.57.67Z"/><path class="cls-6" d="M113.55,153.91c-5.5-.9-11.58.07-16.92,1.38-14.22,3.51-26.76,12-36.77,22.52-12.17,12.75-22.25,28.43-27.08,45.47a78.85,78.85,0,0,0-1.55,37.2c1.13,5.54-4.82,10.81-9.78,11.81-5.7,1.15-10.54-2.43-13.2-7.23A48.47,48.47,0,0,1,4.12,254a96.75,96.75,0,0,1-2.76-15.86,93.17,93.17,0,0,1,3.81-37.62,67.5,67.5,0,0,1,9.06-18.2c3.91-5.5,8.81-10.06,13.94-14.41,9.06-7.68,19.14-14.09,30.52-17.72,13.75-4.38,28.44-4.73,42.71-3.45,4.55.41,9.09,1,13.61,1.69.43.07.75-3.63,0-3.75-15.86-2.44-32.32-3.64-48.15-.37a82.66,82.66,0,0,0-32.67,15,117.88,117.88,0,0,0-14.46,12.5A63.37,63.37,0,0,0,8,189.08C2.22,201.43.05,215.29.09,228.85.12,240,1.5,251.51,5.18,262.1c1.19,3.42,2.63,7,5.05,9.75a12.23,12.23,0,0,0,8.65,4.41A12.52,12.52,0,0,0,27,273.43a13.93,13.93,0,0,0,4.78-7.33c.88-3.32.39-6.51-.22-9.82a62.23,62.23,0,0,1-.73-16.8c1.43-15.89,8.46-30.84,17.59-43.73,10.14-14.31,23.1-27.22,39.58-33.89,7.6-3.07,16.15-5,24.41-4.33.4,0,.8.07,1.19.13s.76-3.62,0-3.75Z"/><path class="cls-6" d="M209.87,28.93a1.77,1.77,0,0,1-2.82-.67,5,5,0,0,1-.43-1.7,3.15,3.15,0,0,1,.37-2.38,2.42,2.42,0,0,1,.89-.65,2.14,2.14,0,0,1,2,0,2.9,2.9,0,0,1,1,2.36C211,27.24,211.12,28.06,209.87,28.93Z"/><path class="cls-6" d="M165.93,25.28a1.91,1.91,0,0,1,1.58-.29,2,2,0,0,1,1.27,1.12,5,5,0,0,1,.39,1.7,3.2,3.2,0,0,1-.44,2.38,2.27,2.27,0,0,1-.9.62,2.11,2.11,0,0,1-2,0C164.3,29.76,164.41,26.38,165.93,25.28Z"/><path class="cls-6" d="M188.75,35.08c-2.16.07-4-1.52-5.41-3.17a4.54,4.54,0,0,1-1-1.56,1.71,1.71,0,0,1,.36-1.71,2.45,2.45,0,0,1,.81-.44c2.46-.87,8.4-1.62,10.45.53C196.51,31.36,191.09,35,188.75,35.08Z"/><path class="cls-6" d="M229,3.92a5.8,5.8,0,0,0-1.56,2.57,20.16,20.16,0,0,0-1.13,3.19,15.71,15.71,0,0,0-.17,6.89,10.79,10.79,0,0,0,6.41,8.09c.34.13.41-1.72.41-1.88,0-.4.09-1.68-.41-1.87A9.83,9.83,0,0,1,227,15a4.19,4.19,0,0,1,0-3,19.69,19.69,0,0,1,1-2.45,4.41,4.41,0,0,1,1.3-2.06c.47-.31.32-1.83.29-2.3,0-.23-.09-1.59-.51-1.31Z"/><path class="cls-6" d="M144.19,16c.73.25,1.21,1,1.67,1.59a22.1,22.1,0,0,1,1.48,2,7.43,7.43,0,0,1,1.44,3.8c0,2.37-1.87,4.89-3.77,6.29-.47.35-.32,1.81-.28,2.31,0,.21.1,1.6.5,1.31,3.28-2.42,4.46-6.49,4.36-10.41A13,13,0,0,0,148.16,17a17.84,17.84,0,0,0-1.8-2.67c-.6-.76-1.22-1.74-2.17-2.07-.22-.08-.86,3.45,0,3.75Z"/><path class="cls-6" d="M188.15,34.14a32.15,32.15,0,0,0,.13,6.28c.24,1.64.66,3.64,2.07,4.7a6.25,6.25,0,0,0,4,1,5.11,5.11,0,0,0,3.91-1.49,1.86,1.86,0,0,0,.25-.86,7.79,7.79,0,0,0,0-1.45c0-.15-.21-1.67-.51-1.31a4.49,4.49,0,0,1-3.33,1.34,7.08,7.08,0,0,1-3.7-.57,4.15,4.15,0,0,1-2-3c0-.19-.05-.25-.07-.41s-.06-.54,0-.26c0-.18,0-.36,0-.54s0-.24,0,0v-.26c0-.21,0-.42,0-.63s0-.6,0-.22l.06-1.26a8.79,8.79,0,0,0,0-1.45c0-.15-.08-.73-.25-.86-.41-.31-.5,1.2-.51,1.31Z"/><path class="cls-6" d="M188.46,41.36a3.47,3.47,0,0,1,0-.72,2.09,2.09,0,0,1,0-.56c0-.11,0-.1,0,0v-.06a2.26,2.26,0,0,1-.21.48,3.84,3.84,0,0,1-3.3,2,7.09,7.09,0,0,1-2.78-.36,2.37,2.37,0,0,1-1.67-1.38c-.05-.18-.15-.31-.31-.19s-.23.71-.25.86a6.55,6.55,0,0,0,.15,2.57,3,3,0,0,0,2.14,1.91,6.74,6.74,0,0,0,3.59.21,4.21,4.21,0,0,0,2.55-1.81,7.2,7.2,0,0,0,.78-4.86c0-.22-.26-1.4-.56-.67a5.32,5.32,0,0,0-.15,2.57Z"/><path class="cls-6" d="M223.79,252.34c2.61-2.66,2.45-7.42,1.61-10.73-.61-2.46-1.15-4.94-1.66-7.43a229.58,229.58,0,0,1-4.13-26.57,63.67,63.67,0,0,1-.12-13.73c.08-.61.29-2-.15-2.56s-.5.21-.56.67c-1.14,8.76-.05,17.86,1.17,26.55,1.09,7.74,2.5,15.46,4.24,23.08.22,1,.47,1.95.71,2.93a4.54,4.54,0,0,1-1.33,4.17c-.45.47-.33,1.73-.29,2.31,0,.17.17,1.66.51,1.31Z"/><path class="cls-6" d="M162.34,196.48c-.64-9.61-1.13-19.26-1.25-28.89,0-3.11-.05-6.22.13-9.32,0-.44.18-2-.28-2.31s-.5,1.14-.51,1.31c-.37,6.31-.16,12.65,0,19q.3,8.81.84,17.6c.07,1.21.15,2.43.23,3.65,0,.19.08,1.59.51,1.3s.31-1.9.28-2.3Z"/><path class="cls-6" d="M228.34,84c-5.14,8.64-12.87,16.59-22.69,19.59-5.49,1.67-11.08.92-16.52-.64a59.21,59.21,0,0,1-15.55-7.18,69,69,0,0,1-14.69-12.47c-.35-.39-.5,1.21-.51,1.31,0,.6-.15,1.8.29,2.31A66.73,66.73,0,0,0,187,106c5.36,1.8,11.25,3,16.87,1.8a32.12,32.12,0,0,0,13.53-6.9,53.36,53.36,0,0,0,11.21-13.3,4.22,4.22,0,0,0,.28-2.31c0-.14-.28-1.69-.5-1.31Z"/><path class="cls-6" d="M202.72,87.5a11.68,11.68,0,0,1,1,1.65l-.1-.19a12.61,12.61,0,0,1,.84,2.05c0,.16.17.34.32.19s.22-.67.25-.86a6.37,6.37,0,0,0-.15-2.57,12.92,12.92,0,0,0-2-3.88c-.14-.19-.28.09-.32.19a3.87,3.87,0,0,0-.19,1.12,7.68,7.68,0,0,0,0,1.44,1.91,1.91,0,0,0,.25.86Z"/><path class="cls-6" d="M199.18,89.13l.18.57,0,.13c0-.13,0-.16,0-.07s.05.17.07.26c.09.38.17.75.24,1.13s-.05-.35,0,0c0,.09,0,.18,0,.28l.06.55c0,.33,0-.4,0-.08a2.45,2.45,0,0,0,0,.27c0,.11,0,.22,0,.33,0,.43,0-.44,0-.09a6.58,6.58,0,0,0,.12,1.33c0,.07.11.55.29.55s.27-.46.29-.55a5.4,5.4,0,0,0,.12-1.33,21.45,21.45,0,0,0-1-6.5c0-.15-.16-.33-.32-.18a1.75,1.75,0,0,0-.25.86,6,6,0,0,0,.15,2.56Z"/><path class="cls-6" d="M193,86.92a31.52,31.52,0,0,0-.72,5.72,10,10,0,0,0,0,1.45c0,.19.08.7.25.86.37.35.51-1.24.51-1.31,0-.4,0-.79.06-1.19,0-.11,0-.22,0-.33l0,.26a1.37,1.37,0,0,0,0-.19c0-.19,0-.38.07-.57s0-.38.08-.56a2.89,2.89,0,0,1,0-.29l0-.18,0,.19c0-.06,0-.2,0-.28a2.74,2.74,0,0,1,.05-.28c0-.22.09-.43.14-.65a6.55,6.55,0,0,0,.12-1.32,5.93,5.93,0,0,0-.12-1.33c0-.14-.1-.55-.3-.55s-.27.45-.29.55Z"/><path class="cls-6" d="M189,84.61a5.53,5.53,0,0,0-1.79,3.69,7.81,7.81,0,0,0,0,1.45,4.81,4.81,0,0,0,.07.64,2.11,2.11,0,0,0,.12.48c.05.12.16.37.32.19l.09-.19a2.6,2.6,0,0,0,.15-.67v-.09c0-.18,0,.27,0,.24a1.16,1.16,0,0,1,0-.18,1.36,1.36,0,0,1,0-.17c0-.15-.05.16-.05.16s0-.07,0-.11a4.43,4.43,0,0,1,.28-.68l-.1.19a4.22,4.22,0,0,1,1.08-1.33,1,1,0,0,0,.14-.34,2.28,2.28,0,0,0,.1-.52,6.4,6.4,0,0,0,0-1.45,3.29,3.29,0,0,0-.18-1.12l-.1-.19c-.08-.09-.15-.09-.22,0Z"/></g></g></svg>