<?xml version="1.0" encoding="utf-8"?>
<!-- Generator: Adobe Illustrator 25.0.0, SVG Export Plug-In . SVG Version: 6.00 Build 0)  -->
<svg version="1.1" id="圖層_1" xmlns="http://www.w3.org/2000/svg" xmlns:xlink="http://www.w3.org/1999/xlink" x="0px" y="0px"
	 viewBox="0 0 142.1 94.3" style="enable-background:new 0 0 142.1 94.3;" xml:space="preserve">
<style type="text/css">
	.st0{fill:#FFFFFF;}
	.st1{fill:#2C271F;}
</style>
<g id="圖層_2_1_">
	<g id="圖層_1-2">
		<path class="st0" d="M141.2,56c-0.8,5.1-9.2,6.8-13.5,6.9c-2.1,0.1-4.3-0.2-6.3,0.7c-2.3,1-3.7,3.2-5.1,5.3
			c-5.6,8.2-12.9,15.5-22,19.4c-11.7,5.1-25.1,4.1-37.7,2.1c-11.4-1.8-22.9-4.3-33-9.9C13.3,75,4.6,66.1,1.4,55
			C-4,36.3,8.1,15.8,25.4,6.9s38.1-8.1,57-3.3c17.5,4.5,35.7,13.8,42.4,30.6c2.2,5.5,3.1,11.8,6.7,16.5
			C133.9,53.8,137.7,54.8,141.2,56z"/>
		<path class="st1" d="M131.8,51.2c0.1-0.6,0.5-1.8,0.1-2.3c-1.8-2.5-3.1-5.2-4-8.1c-1-2.9-1.7-5.9-2.9-8.7c-1-2.5-2.3-4.9-3.9-7.2
			c-3.1-4.4-7-8.2-11.4-11.3C100.5,7,89.4,3.1,78.3,0.6c-23.1-5-50.4-3.3-67,15.7C4,24.7-0.2,35.4-0.4,46.6
			c-0.1,11.6,5.5,21.8,14.1,29.3C24,84.9,37.4,89,50.6,91.4c12.7,2.3,26.4,4.3,39,0.4c5.9-1.8,11.3-4.9,15.9-8.9
			c4.7-4,8.2-8.9,11.8-13.8c0.8-1.3,2-2.4,3.3-3.2c1.4-0.7,2.9-1,4.4-0.9c2.4,0,4.8-0.2,7.1-0.6c2.2-0.4,4.3-1.2,6.2-2.5
			c1.8-1.3,3-3.4,3.3-5.6c0-0.2,0.3-1.8-0.1-1.9c-3.5-1.2-7.2-2.3-9.6-5.3c-0.3-0.4-0.7,1-0.7,1.2c-0.1,0.5-0.5,1.8-0.1,2.3
			c2.5,3.1,6.2,4.2,9.8,5.5l-0.1-1.9c0.1-0.4-0.1,0.1-0.1,0.2c-0.2,0.2-0.3,0.5-0.5,0.7c-0.3,0.3-0.6,0.7-1,0.9
			c-0.8,0.6-1.7,1.2-2.7,1.6c-2.1,0.9-4.3,1.4-6.5,1.6c-2.5,0.3-5.1-0.2-7.5,0.6c-2.6,0.8-4.2,3-5.7,5.2c-1.7,2.5-3.5,4.9-5.4,7.2
			c-3.9,4.5-8.5,8.3-13.7,11.2c-5.6,2.9-11.7,4.6-17.9,5c-6.2,0.4-12.4,0.1-18.6-0.8c-6.7-0.8-13.3-2.1-19.8-3.8
			c-12.1-3.2-23.9-8.8-32.1-18.7c-6.8-8.2-10.2-19-7.6-29.5C4.1,27.1,11.2,18,19.7,12C39.2-1.8,66.4,0.2,88,7.1
			c10.2,3.3,20.2,8.2,27.8,15.9c3.7,3.7,6.6,8.1,8.5,12.9c2.2,5.5,3.1,11.6,6.7,16.5C131.4,52.8,131.8,51.4,131.8,51.2z"/>
	</g>
</g>
</svg>
